<svg width="400" height="62" viewBox="0 0 699 62" fill="none" xmlns="http://www.w3.org/2000/svg">
<path d="M157.32 23H161.192V13.848H170.216V10.264H161.192V4.216H170.856V0.599998H157.32V23ZM174.888 23H185.096V19.48H181.928V4.152H185.096V0.599998H174.888V4.152H178.056V19.48H174.888V23ZM190.408 23H194.28V14.52H196.968L201.768 23H206.44L200.84 14.008C203.88 13.08 205.512 10.552 205.512 7.416C205.512 3.352 202.504 0.599998 197.864 0.599998H190.408V23ZM194.28 11.032V4.184H197.736C200.296 4.184 201.544 5.656 201.544 7.48C201.544 9.784 199.976 11.032 197.896 11.032H194.28ZM217.174 23.416C222.294 23.416 225.27 20.44 225.27 16.76C225.27 7.704 213.462 11.512 213.462 6.52C213.462 5.144 214.518 3.768 217.078 3.768C219.478 3.768 220.918 5.176 220.918 7.256H224.822C224.822 2.136 220.822 0.183998 217.078 0.183998C212.278 0.183998 209.59 3.16 209.59 6.52C209.59 15.544 221.302 11.32 221.302 16.824C221.302 18.584 219.734 19.736 217.334 19.736C214.646 19.736 212.79 18.104 212.79 15.768H208.886C208.886 20.344 212.566 23.416 217.174 23.416ZM234.068 23H237.94V4.216H244.148V0.599998H227.86V4.216H234.068V23ZM266.759 23.448C271.815 23.448 275.943 20.536 277.415 15.608H273.287C272.199 18.232 269.607 19.736 266.759 19.736C262.343 19.736 259.303 16.376 259.303 11.8C259.303 7.288 262.343 3.896 266.759 3.896C269.671 3.896 272.199 5.464 273.287 8.024H277.415C275.911 3.16 271.815 0.183998 266.759 0.183998C260.071 0.183998 255.271 5.24 255.271 11.8C255.271 18.424 260.039 23.448 266.759 23.448ZM281.626 23H285.498V14.52H288.186L292.986 23H297.658L292.058 14.008C295.098 13.08 296.73 10.552 296.73 7.416C296.73 3.352 293.722 0.599998 289.082 0.599998H281.626V23ZM285.498 11.032V4.184H288.954C291.514 4.184 292.762 5.656 292.762 7.48C292.762 9.784 291.194 11.032 289.114 11.032H285.498ZM311.817 23.416C318.409 23.416 323.401 18.36 323.401 11.8C323.401 5.272 318.441 0.183998 311.849 0.183998C305.257 0.183998 300.265 5.208 300.265 11.8C300.265 18.424 305.225 23.416 311.817 23.416ZM311.849 19.704C307.497 19.704 304.297 16.376 304.297 11.8C304.297 7.288 307.497 3.896 311.849 3.896C316.137 3.896 319.369 7.288 319.369 11.8C319.369 16.376 316.137 19.704 311.849 19.704ZM334.624 23.416C339.744 23.416 342.72 20.44 342.72 16.76C342.72 7.704 330.912 11.512 330.912 6.52C330.912 5.144 331.968 3.768 334.528 3.768C336.928 3.768 338.368 5.176 338.368 7.256H342.272C342.272 2.136 338.272 0.183998 334.528 0.183998C329.728 0.183998 327.04 3.16 327.04 6.52C327.04 15.544 338.752 11.32 338.752 16.824C338.752 18.584 337.184 19.736 334.784 19.736C332.096 19.736 330.24 18.104 330.24 15.768H326.336C326.336 20.344 330.016 23.416 334.624 23.416ZM353.918 23.416C359.038 23.416 362.014 20.44 362.014 16.76C362.014 7.704 350.206 11.512 350.206 6.52C350.206 5.144 351.262 3.768 353.822 3.768C356.222 3.768 357.662 5.176 357.662 7.256H361.566C361.566 2.136 357.566 0.183998 353.822 0.183998C349.022 0.183998 346.334 3.16 346.334 6.52C346.334 15.544 358.046 11.32 358.046 16.824C358.046 18.584 356.478 19.736 354.078 19.736C351.39 19.736 349.534 18.104 349.534 15.768H345.63C345.63 20.344 349.31 23.416 353.918 23.416ZM365.564 15.256H374.492V11.736H365.564V15.256ZM379.345 23H383.217V14.712H387.057C391.217 14.712 394.321 11.832 394.321 7.608C394.321 3.352 391.345 0.599998 387.057 0.599998H379.345V23ZM383.217 11.128V4.184H386.865C388.977 4.184 390.353 5.624 390.353 7.608C390.353 9.624 388.977 11.128 386.865 11.128H383.217ZM398.514 23H411.57V19.416H402.386V0.599998H398.514V23ZM430.4 23H434.496L426.72 0.599998H421.28L413.44 23H417.44L419.072 18.2H428.768L430.4 23ZM420.256 14.648L423.744 4.408H424.064L427.552 14.648H420.256ZM440.956 23H444.828V4.216H451.036V0.599998H434.748V4.216H440.956V23ZM454.926 23H458.798V13.848H467.822V10.264H458.798V4.216H468.462V0.599998H454.926V23ZM483.086 23.416C489.678 23.416 494.67 18.36 494.67 11.8C494.67 5.272 489.71 0.183998 483.118 0.183998C476.526 0.183998 471.534 5.208 471.534 11.8C471.534 18.424 476.494 23.416 483.086 23.416ZM483.118 19.704C478.766 19.704 475.566 16.376 475.566 11.8C475.566 7.288 478.766 3.896 483.118 3.896C487.406 3.896 490.638 7.288 490.638 11.8C490.638 16.376 487.406 19.704 483.118 19.704ZM499.045 23H502.917V14.52H505.605L510.405 23H515.077L509.477 14.008C512.517 13.08 514.149 10.552 514.149 7.416C514.149 3.352 511.141 0.599998 506.501 0.599998H499.045V23ZM502.917 11.032V4.184H506.373C508.933 4.184 510.181 5.656 510.181 7.48C510.181 9.784 508.613 11.032 506.533 11.032H502.917ZM518.964 23H522.74V4.408H523.028L527.476 23H533.204L537.652 4.408H537.94V23H541.684V0.599998H534.964L530.484 19.224H530.196L525.716 0.599998H518.964V23ZM8.98051 61.416C14.1005 61.416 17.0765 58.44 17.0765 54.76C17.0765 45.704 5.26851 49.512 5.26851 44.52C5.26851 43.144 6.32451 41.768 8.88451 41.768C11.2845 41.768 12.7245 43.176 12.7245 45.256H16.6285C16.6285 40.136 12.6285 38.184 8.88451 38.184C4.08451 38.184 1.39651 41.16 1.39651 44.52C1.39651 53.544 13.1085 49.32 13.1085 54.824C13.1085 56.584 11.5405 57.736 9.14051 57.736C6.45251 57.736 4.59651 56.104 4.59651 53.768H0.692506C0.692506 58.344 4.37251 61.416 8.98051 61.416ZM31.6983 61.416C38.2903 61.416 43.2823 56.36 43.2823 49.8C43.2823 43.272 38.3223 38.184 31.7303 38.184C25.1383 38.184 20.1463 43.208 20.1463 49.8C20.1463 56.424 25.1063 61.416 31.6983 61.416ZM31.7303 57.704C27.3783 57.704 24.1783 54.376 24.1783 49.8C24.1783 45.288 27.3783 41.896 31.7303 41.896C36.0183 41.896 39.2503 45.288 39.2503 49.8C39.2503 54.376 36.0183 57.704 31.7303 57.704ZM57.8655 61.448C62.9215 61.448 67.0495 58.536 68.5215 53.608H64.3935C63.3055 56.232 60.7135 57.736 57.8655 57.736C53.4495 57.736 50.4095 54.376 50.4095 49.8C50.4095 45.288 53.4495 41.896 57.8655 41.896C60.7775 41.896 63.3055 43.464 64.3935 46.024H68.5215C67.0175 41.16 62.9215 38.184 57.8655 38.184C51.1775 38.184 46.3775 43.24 46.3775 49.8C46.3775 56.424 51.1455 61.448 57.8655 61.448ZM72.4125 61H82.6205V57.48H79.4525V42.152H82.6205V38.6H72.4125V42.152H75.5805V57.48H72.4125V61ZM102.557 61H106.653L98.8765 38.6H93.4365L85.5965 61H89.5965L91.2285 56.2H100.925L102.557 61ZM92.4125 52.648L95.9005 42.408H96.2205L99.7085 52.648H92.4125ZM109.945 61H123.001V57.416H113.817V38.6H109.945V61ZM150.344 61H154.44L146.664 38.6H141.224L133.384 61H137.384L139.016 56.2H148.712L150.344 61ZM140.2 52.648L143.688 42.408H144.008L147.496 52.648H140.2ZM157.733 61H161.605V52.52H164.293L169.093 61H173.765L168.165 52.008C171.205 51.08 172.837 48.552 172.837 45.416C172.837 41.352 169.829 38.6 165.189 38.6H157.733V61ZM161.605 49.032V42.184H165.061C167.621 42.184 168.869 43.656 168.869 45.48C168.869 47.784 167.301 49.032 165.221 49.032H161.605ZM187.859 61.448C192.915 61.448 197.043 58.536 198.515 53.608H194.387C193.299 56.232 190.707 57.736 187.859 57.736C183.443 57.736 180.403 54.376 180.403 49.8C180.403 45.288 183.443 41.896 187.859 41.896C190.771 41.896 193.299 43.464 194.387 46.024H198.515C197.011 41.16 192.915 38.184 187.859 38.184C181.171 38.184 176.371 43.24 176.371 49.8C176.371 56.424 181.139 61.448 187.859 61.448ZM216.725 61H220.821L213.045 38.6H207.605L199.765 61H203.765L205.397 56.2H215.093L216.725 61ZM206.581 52.648L210.069 42.408H210.389L213.877 52.648H206.581ZM223.474 61H232.05C239.25 61 243.378 56.744 243.378 49.8C243.378 43.272 239.25 38.6 232.05 38.6H223.474V41.992H225.458V57.608H223.474V61ZM229.33 57.448V42.184H232.05C236.69 42.184 239.346 45.16 239.346 49.8C239.346 54.632 236.658 57.448 232.05 57.448H229.33ZM247.751 61H261.607V57.384H251.623V51.4H259.943V47.816H251.623V42.216H261.287V38.6H247.751V61ZM289.119 61H293.215L285.439 38.6H279.999L272.159 61H276.159L277.791 56.2H287.487L289.119 61ZM278.975 52.648L282.463 42.408H282.783L286.271 52.648H278.975ZM296.508 61H300.38V42.408H300.668L307.772 61H314.364V38.6H310.524V57.224H310.268L303.036 38.6H296.508V61ZM319.349 61H327.925C335.125 61 339.253 56.744 339.253 49.8C339.253 43.272 335.125 38.6 327.925 38.6H319.349V41.992H321.333V57.608H319.349V61ZM325.205 57.448V42.184H327.925C332.565 42.184 335.221 45.16 335.221 49.8C335.221 54.632 332.533 57.448 327.925 57.448H325.205ZM362.347 61.448C367.467 61.448 373.099 58.312 373.611 49.864H362.955V53.224H369.259C368.331 56.424 365.419 57.736 362.379 57.736C357.963 57.736 354.891 54.376 354.891 49.8C354.891 45.288 357.931 41.896 362.347 41.896C365.259 41.896 367.787 43.464 368.875 46.024H373.067C371.563 41.16 367.403 38.184 362.347 38.184C355.659 38.184 350.859 43.24 350.859 49.8C350.859 56.424 355.659 61.416 362.347 61.448ZM391.963 61H396.059L388.283 38.6H382.843L375.003 61H379.003L380.635 56.2H390.331L391.963 61ZM381.819 52.648L385.307 42.408H385.627L389.115 52.648H381.819ZM399.351 61H403.127V42.408H403.415L407.863 61H413.591L418.039 42.408H418.327V61H422.071V38.6H415.351L410.871 57.224H410.583L406.103 38.6H399.351V61ZM427.708 61H441.564V57.384H431.58V51.4H439.9V47.816H431.58V42.216H441.244V38.6H427.708V61ZM452.787 61.416C457.907 61.416 460.883 58.44 460.883 54.76C460.883 45.704 449.075 49.512 449.075 44.52C449.075 43.144 450.131 41.768 452.691 41.768C455.091 41.768 456.531 43.176 456.531 45.256H460.435C460.435 40.136 456.435 38.184 452.691 38.184C447.891 38.184 445.203 41.16 445.203 44.52C445.203 53.544 456.915 49.32 456.915 54.824C456.915 56.584 455.347 57.736 452.947 57.736C450.259 57.736 448.403 56.104 448.403 53.768H444.499C444.499 58.344 448.179 61.416 452.787 61.416ZM473.745 61H477.521V42.408H477.809L482.257 61H487.985L492.433 42.408H492.721V61H496.465V38.6H489.745L485.265 57.224H484.977L480.497 38.6H473.745V61ZM516.725 61H520.821L513.045 38.6H507.605L499.765 61H503.765L505.397 56.2H515.093L516.725 61ZM506.581 52.648L510.069 42.408H510.389L513.877 52.648H506.581ZM524.114 61H527.986V52.52H530.674L535.474 61H540.146L534.546 52.008C537.586 51.08 539.218 48.552 539.218 45.416C539.218 41.352 536.21 38.6 531.57 38.6H524.114V61ZM527.986 49.032V42.184H531.442C534.002 42.184 535.25 43.656 535.25 45.48C535.25 47.784 533.682 49.032 531.602 49.032H527.986ZM544.033 61H547.905V51.24H550.465L556.481 61H561.249L553.761 49.352L560.897 38.6H556.225L550.465 47.624H547.905V38.6H544.033V61ZM564.795 61H578.651V57.384H568.667V51.4H576.987V47.816H568.667V42.216H578.331V38.6H564.795V61ZM587.474 61H591.346V42.216H597.554V38.6H581.266V42.216H587.474V61ZM601.445 61H605.317V52.712H609.157C613.317 52.712 616.421 49.832 616.421 45.608C616.421 41.352 613.445 38.6 609.157 38.6H601.445V61ZM605.317 49.128V42.184H608.965C611.077 42.184 612.453 43.624 612.453 45.608C612.453 47.624 611.077 49.128 608.965 49.128H605.317ZM620.614 61H633.67V57.416H624.486V38.6H620.614V61ZM652.5 61H656.596L648.82 38.6H643.38L635.54 61H639.54L641.172 56.2H650.868L652.5 61ZM642.356 52.648L645.844 42.408H646.164L649.652 52.648H642.356ZM669.409 61.448C674.465 61.448 678.593 58.536 680.065 53.608H675.937C674.849 56.232 672.257 57.736 669.409 57.736C664.993 57.736 661.953 54.376 661.953 49.8C661.953 45.288 664.993 41.896 669.409 41.896C672.321 41.896 674.849 43.464 675.937 46.024H680.065C678.561 41.16 674.465 38.184 669.409 38.184C662.721 38.184 657.921 43.24 657.921 49.8C657.921 56.424 662.689 61.448 669.409 61.448ZM684.276 61H698.132V57.384H688.148V51.4H696.468V47.816H688.148V42.216H697.812V38.6H684.276V61Z" fill="black"/>
</svg>
