<svg width="107" height="107" viewBox="0 0 107 107" fill="none" xmlns="http://www.w3.org/2000/svg">
<path d="M104.082 15.048C103.022 13.1878 101.569 11.5813 99.8243 10.3402C98.0795 9.09908 96.085 8.25336 93.9798 7.86194L92.8482 3.18615C92.8002 2.98772 92.7135 2.80073 92.593 2.63589C92.4726 2.47105 92.3208 2.33161 92.1463 2.22558C91.9718 2.11954 91.7781 2.049 91.5763 2.01799C91.3745 1.98698 91.1686 1.99612 90.9703 2.04489L82.2857 4.14754C81.886 4.24453 81.5412 4.49621 81.327 4.84728C81.1128 5.19835 81.0468 5.62008 81.1434 6.0198L81.9711 9.43738L24.3459 23.3894C23.9473 23.4872 23.6036 23.739 23.3902 24.0895C23.1768 24.4401 23.1109 24.861 23.2072 25.2599L23.7628 27.554L13.2987 30.0881C12.899 30.1851 12.5542 30.4368 12.34 30.7879C12.1258 31.139 12.0598 31.5607 12.1564 31.9604L12.9761 35.3452L2.18592 37.9564C1.98795 38.0044 1.80136 38.0908 1.63681 38.2108C1.47226 38.3309 1.33298 38.4821 1.2269 38.656C1.12083 38.8299 1.05004 39.0229 1.0186 39.2241C0.987148 39.4253 0.995651 39.6308 1.04362 39.8287L3.03754 48.0603C3.11937 48.3983 3.31236 48.6989 3.58555 48.9141C3.85874 49.1292 4.1963 49.2464 4.54406 49.2468C4.66737 49.2463 4.7902 49.2314 4.91005 49.2025L15.6994 46.5912L16.5164 49.9654C16.5983 50.3033 16.7913 50.604 17.0645 50.8191C17.3376 51.0343 17.6752 51.1515 18.023 51.1518C18.1463 51.1518 18.2692 51.1369 18.389 51.1075L28.8539 48.5751L29.4105 50.87C29.4926 51.2078 29.6857 51.5081 29.9588 51.7231C30.232 51.938 30.5694 52.0551 30.917 52.0556C31.0403 52.0556 31.1632 52.0407 31.283 52.0113L46.7824 48.2561C46.9686 49.1455 47.3301 49.9889 47.8458 50.7371L23.1558 100.936C22.8412 101.577 22.6951 102.288 22.7311 103.001C22.7671 103.715 22.984 104.408 23.3615 105.014C23.739 105.621 24.2646 106.121 24.8889 106.468C25.5131 106.816 26.2156 106.999 26.93 107C27.716 106.996 28.4855 106.774 29.1524 106.358C29.8193 105.942 30.3572 105.349 30.7061 104.645L49.2974 66.8388V102.791C49.2974 103.907 49.7409 104.978 50.5303 105.767C51.3197 106.557 52.3904 107 53.5068 107C54.6232 107 55.6938 106.557 56.4833 105.767C57.2727 104.978 57.7162 103.907 57.7162 102.791V66.8388L76.3075 104.645C76.6566 105.35 77.1951 105.943 77.8627 106.359C78.5302 106.775 79.3005 106.997 80.0871 107C80.7295 107.003 81.3635 106.854 81.9383 106.568C82.4348 106.325 82.8784 105.986 83.2439 105.572C83.6094 105.157 83.8895 104.674 84.0682 104.152C84.2469 103.629 84.3207 103.075 84.2853 102.524C84.25 101.972 84.1062 101.433 83.8622 100.937L59.1731 50.7336C59.7411 49.9107 60.1207 48.9727 60.2846 47.9863C60.4485 47 60.3927 45.9896 60.1213 45.0273L88.9055 38.0486L89.735 41.4706C89.832 41.8702 90.0837 42.215 90.4348 42.4292C90.7859 42.6433 91.2077 42.7094 91.6075 42.6127L100.292 40.5092C100.49 40.4614 100.677 40.375 100.841 40.255C101.006 40.135 101.145 39.9837 101.251 39.8099C101.358 39.636 101.428 39.4429 101.46 39.2416C101.491 39.0404 101.483 38.8349 101.434 38.637L100.303 33.9638C103.099 31.79 105.02 28.6825 105.714 25.2094C106.408 21.7362 105.829 18.1293 104.082 15.048ZM5.68724 45.823L4.42354 40.6058L13.7055 38.3596L14.9692 43.5768L5.68724 45.823ZM19.1661 47.7289L18.3579 44.3911C18.3579 44.3787 18.3579 44.3663 18.3526 44.3539C18.3473 44.3415 18.3438 44.33 18.3402 44.3176L16.3631 36.1586C16.3631 36.1471 16.3631 36.1365 16.3631 36.1258C16.3631 36.1152 16.3552 36.1054 16.3525 36.0939L15.5399 32.741L24.4974 30.5737L28.1308 45.5643L19.1661 47.7289ZM56.6563 44.8049C57.1293 45.5247 57.3396 46.3855 57.2517 47.2422C57.1639 48.099 56.7834 48.8993 56.1742 49.5082L56.1662 49.5179C55.8169 49.8676 55.4021 50.1451 54.9454 50.3344C54.4888 50.5237 53.9993 50.6211 53.505 50.6211C53.0107 50.6211 52.5212 50.5237 52.0646 50.3344C51.6079 50.1451 51.1931 49.8676 50.8438 49.5179L50.8358 49.5082C50.4633 49.1351 50.1733 48.688 49.9846 48.1957C49.796 47.7034 49.713 47.177 49.7409 46.6506C49.7688 46.1242 49.907 45.6095 50.1466 45.1399C50.3862 44.6703 50.7218 44.2563 51.1317 43.9248C51.5416 43.5932 52.0166 43.3515 52.5259 43.2153C53.0353 43.079 53.5675 43.0513 54.0882 43.134C54.609 43.2166 55.1065 43.4078 55.5486 43.695C55.9907 43.9822 56.3675 44.3592 56.6545 44.8013L56.6563 44.8049ZM27.9217 103.278C27.8251 103.474 27.6726 103.636 27.4835 103.746C27.2944 103.855 27.0771 103.906 26.8591 103.892C26.6411 103.878 26.432 103.8 26.2584 103.668C26.0848 103.535 25.9543 103.354 25.8834 103.147C25.8362 103.01 25.8168 102.865 25.8262 102.721C25.8357 102.576 25.8738 102.435 25.9384 102.306L49.2974 54.8015V59.8114L27.9217 103.278ZM53.5068 103.898C53.2131 103.898 52.9314 103.781 52.7237 103.573C52.5161 103.366 52.3993 103.084 52.399 102.79V53.6275C53.1318 53.7575 53.8817 53.7575 54.6145 53.6275V102.791C54.6143 103.085 54.4975 103.366 54.2898 103.574C54.0821 103.782 53.8005 103.898 53.5068 103.899V103.898ZM81.1301 103.146C81.0825 103.286 81.0075 103.414 80.9095 103.524C80.8115 103.634 80.6924 103.724 80.5594 103.787C80.2957 103.906 79.9964 103.92 79.7231 103.824C79.4499 103.729 79.2236 103.533 79.091 103.276L57.7162 59.8114V54.8015L81.076 102.308C81.1401 102.437 81.1778 102.578 81.1871 102.721C81.1964 102.865 81.177 103.009 81.1301 103.146V103.146ZM53.5068 39.9909C52.0034 39.9935 50.5424 40.4889 49.3475 41.4011C48.1527 42.3133 47.2899 43.5921 46.8914 45.0415L32.0557 48.6327L27.1409 28.3417V28.3266L26.5871 26.0397L82.7031 12.4509L88.1735 35.0342L58.5527 42.2158C57.912 41.5153 57.1325 40.9557 56.2638 40.5727C55.3951 40.1896 54.4562 39.9915 53.5068 39.9909ZM92.3829 39.2333L85.3643 10.2588C85.3643 10.2428 85.3643 10.2269 85.3572 10.2109C85.3501 10.195 85.3457 10.1817 85.3421 10.1666L84.5251 6.79955L90.1967 5.42614L98.0554 37.8634L92.3829 39.2333ZM94.8022 11.2724C96.7075 11.8737 98.4252 12.9568 99.7891 14.4166C101.153 15.8765 102.117 17.6637 102.587 19.6053C103.057 21.5468 103.018 23.5769 102.474 25.499C101.929 27.4211 100.898 29.17 99.4786 30.5764L94.8022 11.2724Z" fill="black"/>
<path d="M65.0529 19.006L53.1417 21.8928C52.9386 21.9357 52.7461 22.0188 52.5757 22.1373C52.4054 22.2559 52.2605 22.4074 52.1498 22.583C52.0391 22.7585 51.9647 22.9545 51.9312 23.1594C51.8976 23.3642 51.9055 23.5736 51.9544 23.7753C52.0033 23.9771 52.0922 24.1669 52.2158 24.3336C52.3394 24.5003 52.4952 24.6406 52.6741 24.7459C52.8529 24.8513 53.051 24.9198 53.2568 24.9472C53.4626 24.9746 53.6717 24.9604 53.8719 24.9055L65.784 22.0195C65.9867 21.9763 66.1787 21.8928 66.3486 21.7741C66.5185 21.6554 66.6628 21.5038 66.7731 21.3283C66.8834 21.1529 66.9575 20.9571 66.9908 20.7526C67.0241 20.548 67.0161 20.3389 66.9673 20.1375C66.9184 19.9361 66.8296 19.7465 66.7062 19.58C66.5828 19.4135 66.4273 19.2734 66.2489 19.168C66.0704 19.0626 65.8726 18.994 65.6672 18.9664C65.4618 18.9387 65.2529 18.9525 65.0529 19.0069V19.006Z" fill="black"/>
<path d="M76.5867 17.8081C76.5393 17.6098 76.4531 17.4229 76.3333 17.258C76.2134 17.0931 76.0621 16.9536 75.8881 16.8474C75.7141 16.7411 75.5208 16.6704 75.3193 16.6391C75.1179 16.6078 74.9122 16.6166 74.7142 16.665L71.1694 17.5227C70.9663 17.5656 70.7739 17.6487 70.6035 17.7673C70.4331 17.8858 70.2883 18.0373 70.1775 18.2129C70.0668 18.3885 69.9925 18.5844 69.9589 18.7893C69.9253 18.9941 69.9332 19.2035 69.9821 19.4053C70.031 19.607 70.1199 19.7968 70.2435 19.9635C70.3671 20.1302 70.523 20.2705 70.7018 20.3758C70.8806 20.4812 71.0788 20.5497 71.2845 20.5771C71.4903 20.6045 71.6995 20.5903 71.8996 20.5354L75.4399 19.6777C75.6381 19.6303 75.825 19.5444 75.9899 19.4248C76.1548 19.3052 76.2944 19.1542 76.401 18.9806C76.5075 18.8069 76.5787 18.614 76.6105 18.4128C76.6424 18.2116 76.6343 18.0061 76.5867 17.8081Z" fill="black"/>
</svg>
