<svg width="363" height="90" viewBox="0 0 363 90" fill="none" xmlns="http://www.w3.org/2000/svg">
<rect x="1.5" y="1.5" width="360" height="87" rx="43.5" fill="white"/>
<path d="M102.141 57.49C107.636 57.49 112.081 54.27 113.656 49.195H109.806C108.616 52.24 105.606 54.095 102.141 54.095C97.0315 54.095 93.3565 50.14 93.3565 44.75C93.3565 39.43 97.0315 35.44 102.141 35.44C105.641 35.44 108.581 37.33 109.806 40.305H113.656C112.046 35.335 107.671 32.045 102.141 32.045C94.9315 32.045 89.6465 37.575 89.6465 44.75C89.6465 51.995 94.8965 57.49 102.141 57.49ZM129.384 57.455C136.559 57.455 141.984 51.925 141.984 44.75C141.984 37.61 136.594 32.045 129.419 32.045C122.244 32.045 116.819 37.54 116.819 44.75C116.819 51.995 122.209 57.455 129.384 57.455ZM129.419 54.06C124.344 54.06 120.529 50.14 120.529 44.75C120.529 39.43 124.344 35.44 129.419 35.44C134.459 35.44 138.309 39.43 138.309 44.75C138.309 50.14 134.459 54.06 129.419 54.06ZM146.866 57H150.436V35.895H150.681L159.991 57H166.011V32.5H162.511V53.605H162.266L152.816 32.5H146.866V57ZM177.262 57H180.797V35.79H187.762V32.5H170.297V35.79H177.262V57ZM191.667 57H202.342V53.815H198.772V35.685H202.342V32.5H191.667V35.685H195.237V53.815H191.667V57ZM208.424 57H211.994V35.895H212.239L221.549 57H227.569V32.5H224.069V53.605H223.824L214.374 32.5H208.424V57ZM243.054 57.455C248.969 57.455 252.364 53.605 252.364 48.04V32.5H248.829V48.005C248.829 51.715 246.834 54.095 243.054 54.095C239.309 54.095 237.314 51.715 237.314 48.04V32.5H233.779V48.075C233.779 53.675 237.069 57.455 243.054 57.455ZM258.565 57H273.335V53.71H262.135V46.15H271.48V42.895H262.135V35.79H272.985V32.5H258.565V57Z" fill="black"/>
<rect x="1.5" y="1.5" width="360" height="87" rx="43.5" stroke="black" stroke-width="3"/>
</svg>
