<svg width="1886" height="136" viewBox="0 0 1886 136" fill="none" xmlns="http://www.w3.org/2000/svg">
<path d="M3.69 38H17.415V33.905H12.825V10.595H17.415V6.5H3.69V10.595H8.28V33.905H3.69V38ZM23.3315 16.265H26.8865L29.0015 6.5H24.1415L23.3315 16.265ZM36.0719 38H40.5269V23.96C40.5269 20.45 43.0019 18.11 45.8819 18.11C48.8069 18.11 51.0569 20.09 51.0569 23.42V38H55.5119V24.095C55.5119 20.225 57.9869 18.11 60.9119 18.11C63.9269 18.11 65.9519 20.135 65.9519 24.05V38H70.4069V22.565C70.4069 17.615 66.9869 13.925 61.8569 13.925C58.6169 13.925 56.1419 15.32 54.7019 17.975H54.3419C53.0819 15.545 50.6969 13.925 47.3219 13.925C44.0369 13.925 41.9219 15.635 40.8869 17.525H40.5269V14.51H36.0719V38ZM100.188 38.585C104.868 38.585 106.848 35.885 107.658 34.76H107.973C107.973 36.785 109.458 38 111.393 38H114.588V33.95H113.508C112.788 33.95 112.338 33.59 112.338 32.87V14.51H107.883V17.885H107.523C106.623 16.625 104.463 13.925 99.9183 13.925C93.4383 13.925 88.8933 19.19 88.8933 26.255C88.8933 33.41 93.6633 38.585 100.188 38.585ZM100.728 34.49C96.6333 34.49 93.3933 31.25 93.3933 26.3C93.3933 21.485 96.4983 18.065 100.683 18.065C104.688 18.065 108.018 21.08 108.018 26.3C108.018 30.755 105.183 34.49 100.728 34.49ZM1017.98 38.585C1022.66 38.585 1024.64 35.885 1025.45 34.76H1025.76C1025.76 36.785 1027.25 38 1029.18 38H1032.38V33.95H1031.3C1030.58 33.95 1030.13 33.59 1030.13 32.87V14.51H1025.67V17.885H1025.31C1024.41 16.625 1022.25 13.925 1017.71 13.925C1011.23 13.925 1006.68 19.19 1006.68 26.255C1006.68 33.41 1011.45 38.585 1017.98 38.585ZM1018.52 34.49C1014.42 34.49 1011.18 31.25 1011.18 26.3C1011.18 21.485 1014.29 18.065 1018.47 18.065C1022.48 18.065 1025.81 21.08 1025.81 26.3C1025.81 30.755 1022.97 34.49 1018.52 34.49ZM1048.45 38H1052.23V34.085H1048.5C1046.43 34.085 1045.57 33.185 1045.57 31.07V18.38H1052.5V14.51H1045.57V7.805H1041.39V14.51H1036.84V18.38H1041.12V31.115C1041.12 35.975 1044.04 38 1048.45 38Z" fill="black"/>
</svg>
