<svg width="333" height="37" viewBox="0 0 333 37" fill="none" xmlns="http://www.w3.org/2000/svg">
<path d="M0.45 34.6V5.35C0.45 4.18333 0.866667 3.16667 1.7 2.3C2.53333 1.43333 3.56667 0.999998 4.8 0.999998H6.45C6.81667 0.999998 7.25 1.08333 7.75 1.25C8.25 1.38333 8.76667 1.81666 9.3 2.55C11.2667 5.61667 13.0333 8.38333 14.6 10.85C15.5667 12.35 16.3167 13.55 16.85 14.45C17.4167 15.3167 17.95 16.1333 18.45 16.9C18.95 17.6333 19.3667 18.2667 19.7 18.8C20.0333 19.3333 20.2333 19.65 20.3 19.75C20.3 19.8167 20.3667 19.85 20.5 19.85C20.6667 19.85 20.75 19.7667 20.75 19.6V5.35C20.75 4.05 21.2 3 22.1 2.2C23 1.4 24.0167 0.999998 25.15 0.999998H28.35C28.7167 0.999998 29.0167 1.11666 29.25 1.35C29.4833 1.65 29.6 1.96667 29.6 2.3V34.55C29.6 34.85 29.4833 35.15 29.25 35.45C28.9833 35.7167 28.6833 35.85 28.35 35.85H22.7C21.9667 35.85 21.4 35.5333 21 34.9C19 31.8333 17.2 29.0833 15.6 26.65C14.6333 25.1833 13.8667 24.0167 13.3 23.15C12.7333 22.25 12.2 21.4333 11.7 20.7C11.2 19.9333 10.7833 19.3 10.45 18.8C10.1167 18.2667 9.91667 17.95 9.85 17.85C9.75 17.75 9.66667 17.7 9.6 17.7C9.43333 17.7 9.35 17.7833 9.35 17.95V34.6C9.35 34.9667 9.21667 35.2667 8.95 35.5C8.68333 35.7333 8.38333 35.85 8.05 35.85H1.7C1.4 35.85 1.11667 35.7167 0.85 35.45C0.583334 35.1833 0.45 34.9 0.45 34.6ZM36.6852 34.65V5.4C36.6852 4.13333 37.1185 3.1 37.9852 2.3C38.8518 1.46666 39.8685 1.05 41.0352 1.05H61.4352C61.8018 1.05 62.1018 1.18333 62.3352 1.45C62.6018 1.68333 62.7352 1.98333 62.7352 2.35V7.3C62.7352 7.66667 62.6185 7.95 62.3852 8.15C62.1518 8.38333 61.8352 8.5 61.4352 8.5H42.9852C43.7852 8.5 44.4352 8.78333 44.9352 9.35C45.4685 9.91666 45.7352 10.5333 45.7352 11.2V13.3C45.7352 13.6667 45.8518 14.0167 46.0852 14.35C46.3518 14.6833 46.7352 14.85 47.2352 14.85H58.1352C58.5018 14.85 58.8018 14.9833 59.0352 15.25C59.3018 15.4833 59.4352 15.7833 59.4352 16.15V20.65C59.4352 21.0167 59.3018 21.3333 59.0352 21.6C58.8018 21.8333 58.5018 21.95 58.1352 21.95H42.9852C43.7518 21.95 44.4018 22.2167 44.9352 22.75C45.4685 23.2833 45.7352 23.8833 45.7352 24.55V26.9C45.7352 27.2667 45.8685 27.6167 46.1352 27.95C46.4018 28.2833 46.7685 28.45 47.2352 28.45H61.8352C62.7018 28.45 63.1352 28.8833 63.1352 29.75V34.65C63.1352 35.05 63.0018 35.3667 62.7352 35.6C62.5018 35.8 62.2018 35.9 61.8352 35.9H37.9352C37.6018 35.9 37.3018 35.7833 37.0352 35.55C36.8018 35.2833 36.6852 34.9833 36.6852 34.65ZM105.465 2V2.3L100.165 34.2C99.9319 35.2667 99.2652 35.8 98.1652 35.8H93.1152C92.5486 35.8 92.1486 35.6667 91.9152 35.4C91.6152 35.1667 91.4152 34.8833 91.3152 34.55L86.6152 21.45C86.5819 21.3167 86.4986 21.25 86.3652 21.25C86.2319 21.25 86.1486 21.3167 86.1152 21.45L81.4152 34.55C81.3152 34.85 81.0986 35.1333 80.7652 35.4C80.5319 35.6667 80.1319 35.8 79.5652 35.8H74.5652C73.4652 35.8 72.7986 35.2667 72.5652 34.2L67.2652 2.3C67.2319 1.86667 67.3152 1.53333 67.5152 1.3C67.7152 1.1 67.9652 0.999998 68.2652 0.999998H74.7652C75.7319 0.999998 76.2652 1.36666 76.3652 2.1L79.2152 19.85C79.2486 19.9833 79.3319 20.05 79.4652 20.05C79.6319 20.05 79.7152 20 79.7152 19.9L82.8152 10.05C83.1152 9.15 83.6652 8.7 84.4652 8.7H88.2152C89.0152 8.7 89.5652 9.15 89.8652 10.05L92.9652 19.85C93.0319 19.95 93.1152 20 93.2152 20C93.3486 20 93.4319 19.9333 93.4652 19.8L96.3652 2.1C96.4319 1.66666 96.5986 1.38333 96.8652 1.25C97.1652 1.08333 97.5152 0.999998 97.9152 0.999998H104.415C104.682 0.999998 104.915 1.1 105.115 1.3C105.349 1.5 105.465 1.73333 105.465 2ZM138.97 25.4C138.97 27.4333 138.487 29.15 137.52 30.55C136.587 31.95 135.387 33.0833 133.92 33.95C132.454 34.8167 130.82 35.45 129.02 35.85C127.22 36.2167 125.47 36.4 123.77 36.4C122.137 36.4 120.437 36.2333 118.67 35.9C116.937 35.5667 115.337 35.0167 113.87 34.25C112.404 33.45 111.17 32.4167 110.17 31.15C109.204 29.85 108.67 28.25 108.57 26.35C108.57 26.05 108.67 25.8 108.87 25.6C109.104 25.4 109.37 25.3 109.67 25.3H116.32C116.52 25.3 116.687 25.3167 116.82 25.35C116.987 25.3833 117.137 25.4333 117.27 25.5C117.504 25.6333 117.787 25.8667 118.12 26.2C118.654 27.2667 119.437 28 120.47 28.4C121.537 28.7667 122.637 28.95 123.77 28.95C124.27 28.95 124.837 28.9167 125.47 28.85C126.137 28.7833 126.737 28.65 127.27 28.45C127.837 28.2167 128.32 27.9 128.72 27.5C129.12 27.0667 129.32 26.5167 129.32 25.85C129.32 24.95 128.987 24.3 128.32 23.9C127.654 23.5 126.954 23.1833 126.22 22.95C125.654 22.75 124.97 22.5667 124.17 22.4C123.404 22.2 122.504 22 121.47 21.8C119.937 21.5 118.454 21.1167 117.02 20.65C115.587 20.15 114.304 19.5 113.17 18.7C112.07 17.9 111.17 16.9 110.47 15.7C109.804 14.4667 109.47 12.9667 109.47 11.2C109.47 9 110.07 7.11667 111.27 5.55C112.504 3.95 114.104 2.73333 116.07 1.9C118.204 1.03333 120.654 0.6 123.42 0.6C124.52 0.6 125.654 0.699999 126.82 0.899999C128.02 1.06667 129.17 1.36667 130.27 1.8C131.404 2.2 132.454 2.75 133.42 3.45C134.387 4.11666 135.22 4.93333 135.92 5.9C137.054 7.36666 137.67 8.85 137.77 10.35C137.77 10.6167 137.654 10.8667 137.42 11.1C137.22 11.3333 136.987 11.45 136.72 11.45H129.72C129.02 11.45 128.47 11.15 128.07 10.55C127.87 9.85 127.354 9.25 126.52 8.75C125.62 8.28333 124.587 8.05 123.42 8.05C122.92 8.05 122.404 8.08333 121.87 8.15C121.37 8.21667 120.904 8.36667 120.47 8.6C120.037 8.83333 119.687 9.15 119.42 9.55C119.154 9.91667 119.02 10.4 119.02 11C119.02 11.9333 119.52 12.6833 120.52 13.25C121.52 13.7833 123.387 14.3333 126.12 14.9C127.687 15.2 129.237 15.5667 130.77 16C132.337 16.4 133.72 16.9833 134.92 17.75C136.12 18.5167 137.087 19.5167 137.82 20.75C138.587 21.95 138.97 23.5 138.97 25.4ZM144.171 34.6V5.3C144.171 4.66667 144.288 4.08333 144.521 3.55C144.788 3.01667 145.121 2.56666 145.521 2.2C145.954 1.83333 146.421 1.55 146.921 1.35C147.454 1.11666 147.988 0.999998 148.521 0.999998H152.421C152.788 0.999998 153.071 1.11666 153.271 1.35C153.504 1.58333 153.621 1.88333 153.621 2.25V26.5C153.621 26.7667 153.754 27.1 154.021 27.5C154.288 27.8667 154.671 28.05 155.171 28.05H168.571C168.938 28.05 169.238 28.1667 169.471 28.4C169.738 28.6 169.871 28.9 169.871 29.3V34.6C169.871 35 169.738 35.3167 169.471 35.55C169.238 35.75 168.938 35.85 168.571 35.85H145.421C145.121 35.85 144.838 35.7167 144.571 35.45C144.304 35.1833 144.171 34.9 144.171 34.6ZM174.302 34.65V5.4C174.302 4.13333 174.735 3.1 175.602 2.3C176.468 1.46666 177.485 1.05 178.652 1.05H199.052C199.418 1.05 199.718 1.18333 199.952 1.45C200.218 1.68333 200.352 1.98333 200.352 2.35V7.3C200.352 7.66667 200.235 7.95 200.002 8.15C199.768 8.38333 199.452 8.5 199.052 8.5H180.602C181.402 8.5 182.052 8.78333 182.552 9.35C183.085 9.91666 183.352 10.5333 183.352 11.2V13.3C183.352 13.6667 183.468 14.0167 183.702 14.35C183.968 14.6833 184.352 14.85 184.852 14.85H195.752C196.118 14.85 196.418 14.9833 196.652 15.25C196.918 15.4833 197.052 15.7833 197.052 16.15V20.65C197.052 21.0167 196.918 21.3333 196.652 21.6C196.418 21.8333 196.118 21.95 195.752 21.95H180.602C181.368 21.95 182.018 22.2167 182.552 22.75C183.085 23.2833 183.352 23.8833 183.352 24.55V26.9C183.352 27.2667 183.485 27.6167 183.752 27.95C184.018 28.2833 184.385 28.45 184.852 28.45H199.452C200.318 28.45 200.752 28.8833 200.752 29.75V34.65C200.752 35.05 200.618 35.3667 200.352 35.6C200.118 35.8 199.818 35.9 199.452 35.9H175.552C175.218 35.9 174.918 35.7833 174.652 35.55C174.418 35.2833 174.302 34.9833 174.302 34.65ZM232.582 0.999998C232.948 0.999998 233.248 1.13333 233.482 1.4C233.748 1.63333 233.882 1.91666 233.882 2.25V7.85C233.882 8.21666 233.748 8.51666 233.482 8.75C233.248 8.98333 232.948 9.1 232.582 9.1H220.982C221.715 9.1 222.365 9.36666 222.932 9.9C223.532 10.4333 223.832 11.0333 223.832 11.7V34.6C223.832 34.9667 223.698 35.25 223.432 35.45C223.198 35.6833 222.898 35.8 222.532 35.8H215.582C215.215 35.8 214.915 35.6833 214.682 35.45C214.415 35.25 214.282 34.9667 214.282 34.6V10.6C214.282 10.1333 214.132 9.76667 213.832 9.5C213.532 9.23333 213.182 9.1 212.782 9.1H205.532C205.198 9.1 204.898 8.98333 204.632 8.75C204.365 8.51666 204.232 8.21666 204.232 7.85V5.3C204.232 4.66667 204.348 4.08333 204.582 3.55C204.848 3.01667 205.182 2.56666 205.582 2.2C206.015 1.8 206.482 1.5 206.982 1.3C207.515 1.1 208.048 0.999998 208.582 0.999998H232.582ZM264.52 0.999998C264.887 0.999998 265.187 1.13333 265.42 1.4C265.687 1.63333 265.82 1.91666 265.82 2.25V7.85C265.82 8.21666 265.687 8.51666 265.42 8.75C265.187 8.98333 264.887 9.1 264.52 9.1H252.92C253.653 9.1 254.303 9.36666 254.87 9.9C255.47 10.4333 255.77 11.0333 255.77 11.7V34.6C255.77 34.9667 255.637 35.25 255.37 35.45C255.137 35.6833 254.837 35.8 254.47 35.8H247.52C247.153 35.8 246.853 35.6833 246.62 35.45C246.353 35.25 246.22 34.9667 246.22 34.6V10.6C246.22 10.1333 246.07 9.76667 245.77 9.5C245.47 9.23333 245.12 9.1 244.72 9.1H237.47C237.137 9.1 236.837 8.98333 236.57 8.75C236.303 8.51666 236.17 8.21666 236.17 7.85V5.3C236.17 4.66667 236.287 4.08333 236.52 3.55C236.787 3.01667 237.12 2.56666 237.52 2.2C237.953 1.8 238.42 1.5 238.92 1.3C239.453 1.1 239.987 0.999998 240.52 0.999998H264.52ZM270.458 34.65V5.4C270.458 4.13333 270.892 3.1 271.758 2.3C272.625 1.46666 273.642 1.05 274.808 1.05H295.208C295.575 1.05 295.875 1.18333 296.108 1.45C296.375 1.68333 296.508 1.98333 296.508 2.35V7.3C296.508 7.66667 296.392 7.95 296.158 8.15C295.925 8.38333 295.608 8.5 295.208 8.5H276.758C277.558 8.5 278.208 8.78333 278.708 9.35C279.242 9.91666 279.508 10.5333 279.508 11.2V13.3C279.508 13.6667 279.625 14.0167 279.858 14.35C280.125 14.6833 280.508 14.85 281.008 14.85H291.908C292.275 14.85 292.575 14.9833 292.808 15.25C293.075 15.4833 293.208 15.7833 293.208 16.15V20.65C293.208 21.0167 293.075 21.3333 292.808 21.6C292.575 21.8333 292.275 21.95 291.908 21.95H276.758C277.525 21.95 278.175 22.2167 278.708 22.75C279.242 23.2833 279.508 23.8833 279.508 24.55V26.9C279.508 27.2667 279.642 27.6167 279.908 27.95C280.175 28.2833 280.542 28.45 281.008 28.45H295.608C296.475 28.45 296.908 28.8833 296.908 29.75V34.65C296.908 35.05 296.775 35.3667 296.508 35.6C296.275 35.8 295.975 35.9 295.608 35.9H271.708C271.375 35.9 271.075 35.7833 270.808 35.55C270.575 35.2833 270.458 34.9833 270.458 34.65ZM331.438 35.9H324.388C323.455 35.9 322.788 35.4667 322.388 34.6L317.288 24.6C316.988 24.0667 316.538 23.8 315.938 23.8H309.388C310.222 23.8 310.872 24.1 311.338 24.7C311.838 25.2667 312.088 25.85 312.088 26.45V34.7C312.088 35.0667 311.972 35.35 311.738 35.55C311.505 35.7833 311.205 35.9 310.838 35.9H303.988C303.655 35.9 303.355 35.7833 303.088 35.55C302.855 35.2833 302.738 35 302.738 34.7V5.4C302.738 4.16666 303.172 3.15 304.038 2.35C304.905 1.51667 305.922 1.1 307.088 1.1H317.688C319.555 1.1 321.322 1.3 322.988 1.7C324.688 2.1 326.172 2.75 327.438 3.65C328.738 4.55 329.772 5.73333 330.538 7.2C331.305 8.63333 331.688 10.4 331.688 12.5C331.688 14.5 331.238 16.3 330.338 17.9C329.438 19.5 328.105 20.8 326.338 21.8C326.072 21.9667 325.922 22.1667 325.888 22.4C325.888 22.6333 325.938 22.8167 326.038 22.95L332.338 34.35C332.438 34.55 332.488 34.7333 332.488 34.9C332.488 35.1667 332.372 35.4 332.138 35.6C331.938 35.8 331.705 35.9 331.438 35.9ZM322.038 12.45C322.038 11.0833 321.622 10.05 320.788 9.35C319.988 8.61667 318.938 8.25 317.638 8.25H309.038C309.872 8.25 310.538 8.53333 311.038 9.1C311.538 9.66666 311.788 10.2667 311.788 10.9V14.95C311.788 15.35 311.922 15.7 312.188 16C312.488 16.3 312.855 16.45 313.288 16.45H317.638C318.938 16.45 319.988 16.1333 320.788 15.5C321.622 14.8333 322.038 13.8167 322.038 12.45Z" fill="black"/>
</svg>
