<svg width="423" height="86" viewBox="0 0 423 86" fill="none" xmlns="http://www.w3.org/2000/svg">
<path d="M1.25586 1.65625H379.881C402.519 1.65625 420.871 20.0084 420.871 42.6469C420.871 65.2854 402.519 83.6376 379.881 83.6376H1.25586V1.65625Z" fill="#F1F1F1"/>
<path d="M1.62695 1.5H379.627C402.271 1.5 420.627 19.8563 420.627 42.5C420.627 65.1437 402.271 83.5 379.627 83.5H1.62695V1.5Z" stroke="black" stroke-width="3"/>
<line x1="1.5" y1="4.2798e-08" x2="1.49999" y2="85.2937" stroke="black" stroke-width="3"/>
<path d="M113.492 59.8789C120.557 59.8789 124.652 55.7839 124.652 50.7439C124.652 38.0089 107.642 43.6789 107.642 35.8939C107.642 33.5989 109.352 31.3939 113.357 31.3939C117.182 31.3939 119.387 33.5089 119.387 36.7489H124.022C124.022 29.9089 118.397 27.2089 113.402 27.2089C106.832 27.2089 103.052 31.2589 103.052 35.8939C103.052 48.5389 120.017 42.1039 120.017 50.8789C120.017 53.7589 117.407 55.5589 113.672 55.5589C109.397 55.5589 106.607 52.9939 106.607 49.5289H102.017C102.017 55.6489 107.102 59.8789 113.492 59.8789ZM137.107 59.2939H141.652V32.0239H150.607V27.7939H128.152V32.0239H137.107V59.2939ZM167.688 59.8789C175.293 59.8789 179.658 54.9289 179.658 47.7739V27.7939H175.113V47.7289C175.113 52.4989 172.548 55.5589 167.688 55.5589C162.873 55.5589 160.308 52.4989 160.308 47.7739V27.7939H155.763V47.8189C155.763 55.0189 159.993 59.8789 167.688 59.8789ZM186.731 59.2939H198.476C208.556 59.2939 214.361 53.3089 214.361 43.5439C214.361 34.3639 208.556 27.7939 198.476 27.7939H186.731V31.7539H189.611V55.3339H186.731V59.2939ZM194.201 55.1539V31.9789H198.476C205.541 31.9789 209.636 36.4789 209.636 43.5439C209.636 50.8789 205.451 55.1539 198.476 55.1539H194.201ZM220.634 59.2939H239.624V55.0639H225.224V45.3439H237.239V41.1589H225.224V32.0239H239.174V27.7939H220.634V59.2939ZM245.903 59.2939H250.493V32.1589H250.808L262.778 59.2939H270.518V27.7939H266.018V54.9289H265.703L253.553 27.7939H245.903V59.2939ZM284.983 59.2939H289.528V32.0239H298.483V27.7939H276.028V32.0239H284.983V59.2939Z" fill="black"/>
</svg>
