<svg width="843" height="86" viewBox="0 0 843 86" fill="none" xmlns="http://www.w3.org/2000/svg">
<path d="M421 1.65625H42.3752C19.7367 1.65625 1.38452 20.0084 1.38452 42.6469C1.38452 65.2854 19.7367 83.6376 42.3752 83.6376H421V1.65625Z" fill="#F1F1F1"/>
<rect x="1.5" y="1.5" width="840" height="82.2937" rx="41.1469" stroke="black" stroke-width="3"/>
<line x1="422.373" y1="4.2798e-08" x2="422.373" y2="85.2937" stroke="black" stroke-width="3"/>
<path d="M52.14 59.2939H56.73V47.2339H62.76C68.475 47.2339 72.705 43.2739 72.705 37.4689C72.705 31.6189 68.655 27.7939 62.76 27.7939H52.14V59.2939ZM56.73 43.0939V31.9789H62.49C65.865 31.9789 68.025 34.2739 68.025 37.4689C68.025 40.6639 65.865 43.0939 62.49 43.0939H56.73ZM78.639 59.2939H83.229V46.9639H87.729L95.064 59.2939H100.554L92.409 46.4689C96.999 45.3439 99.429 41.7439 99.429 37.1989C99.429 31.5739 95.379 27.7939 88.899 27.7939H78.639V59.2939ZM83.229 42.8689V31.9789H88.674C92.724 31.9789 94.704 34.3189 94.704 37.2439C94.704 40.9339 92.229 42.8689 88.899 42.8689H83.229ZM120.411 59.8789C129.636 59.8789 136.611 52.7689 136.611 43.5439C136.611 34.3639 129.681 27.2089 120.456 27.2089C111.231 27.2089 104.256 34.2739 104.256 43.5439C104.256 52.8589 111.186 59.8789 120.411 59.8789ZM120.456 55.5139C113.931 55.5139 109.026 50.4739 109.026 43.5439C109.026 36.7039 113.931 31.5739 120.456 31.5739C126.936 31.5739 131.886 36.7039 131.886 43.5439C131.886 50.4739 126.936 55.5139 120.456 55.5139ZM142.887 59.2939H147.477V45.8389H160.482V41.6539H147.477V32.0239H161.427V27.7939H142.887V59.2939ZM167.672 59.2939H186.662V55.0639H172.262V45.3439H184.277V41.1589H172.262V32.0239H186.212V27.7939H167.672V59.2939ZM202.166 59.8789C209.231 59.8789 213.326 55.7839 213.326 50.7439C213.326 38.0089 196.316 43.6789 196.316 35.8939C196.316 33.5989 198.026 31.3939 202.031 31.3939C205.856 31.3939 208.061 33.5089 208.061 36.7489H212.696C212.696 29.9089 207.071 27.2089 202.076 27.2089C195.506 27.2089 191.726 31.2589 191.726 35.8939C191.726 48.5389 208.691 42.1039 208.691 50.8789C208.691 53.7589 206.081 55.5589 202.346 55.5589C198.071 55.5589 195.281 52.9939 195.281 49.5289H190.691C190.691 55.6489 195.776 59.8789 202.166 59.8789ZM228.841 59.8789C235.906 59.8789 240.001 55.7839 240.001 50.7439C240.001 38.0089 222.991 43.6789 222.991 35.8939C222.991 33.5989 224.701 31.3939 228.706 31.3939C232.531 31.3939 234.736 33.5089 234.736 36.7489H239.371C239.371 29.9089 233.746 27.2089 228.751 27.2089C222.181 27.2089 218.401 31.2589 218.401 35.8939C218.401 48.5389 235.366 42.1039 235.366 50.8789C235.366 53.7589 232.756 55.5589 229.021 55.5589C224.746 55.5589 221.956 52.9939 221.956 49.5289H217.366C217.366 55.6489 222.451 59.8789 228.841 59.8789ZM245.84 59.2939H259.565V55.1989H254.975V31.8889H259.565V27.7939H245.84V31.8889H250.43V55.1989H245.84V59.2939ZM281.514 59.8789C290.739 59.8789 297.714 52.7689 297.714 43.5439C297.714 34.3639 290.784 27.2089 281.559 27.2089C272.334 27.2089 265.359 34.2739 265.359 43.5439C265.359 52.8589 272.289 59.8789 281.514 59.8789ZM281.559 55.5139C275.034 55.5139 270.129 50.4739 270.129 43.5439C270.129 36.7039 275.034 31.5739 281.559 31.5739C288.039 31.5739 292.989 36.7039 292.989 43.5439C292.989 50.4739 288.039 55.5139 281.559 55.5139ZM303.991 59.2939H308.581V32.1589H308.896L320.866 59.2939H328.606V27.7939H324.106V54.9289H323.791L311.641 27.7939H303.991V59.2939ZM333.486 59.2939H338.211L340.731 52.1839H355.221L357.741 59.2939H362.556L351.306 27.7939H344.871L333.486 59.2939ZM342.216 47.9989L347.796 32.1589H348.156L353.736 47.9989H342.216ZM367.404 59.2939H385.224V55.1089H371.994V27.7939H367.404V59.2939Z" fill="black"/>
<path d="M534.365 59.8789C541.43 59.8789 545.525 55.7839 545.525 50.7439C545.525 38.0089 528.515 43.6789 528.515 35.8939C528.515 33.5989 530.225 31.3939 534.23 31.3939C538.055 31.3939 540.26 33.5089 540.26 36.7489H544.895C544.895 29.9089 539.27 27.2089 534.275 27.2089C527.705 27.2089 523.925 31.2589 523.925 35.8939C523.925 48.5389 540.89 42.1039 540.89 50.8789C540.89 53.7589 538.28 55.5589 534.545 55.5589C530.27 55.5589 527.48 52.9939 527.48 49.5289H522.89C522.89 55.6489 527.975 59.8789 534.365 59.8789ZM557.98 59.2939H562.525V32.0239H571.48V27.7939H549.025V32.0239H557.98V59.2939ZM588.562 59.8789C596.167 59.8789 600.532 54.9289 600.532 47.7739V27.7939H595.987V47.7289C595.987 52.4989 593.422 55.5589 588.562 55.5589C583.747 55.5589 581.182 52.4989 581.182 47.7739V27.7939H576.637V47.8189C576.637 55.0189 580.867 59.8789 588.562 59.8789ZM607.604 59.2939H619.349C629.429 59.2939 635.234 53.3089 635.234 43.5439C635.234 34.3639 629.429 27.7939 619.349 27.7939H607.604V31.7539H610.484V55.3339H607.604V59.2939ZM615.074 55.1539V31.9789H619.349C626.414 31.9789 630.509 36.4789 630.509 43.5439C630.509 50.8789 626.324 55.1539 619.349 55.1539H615.074ZM641.507 59.2939H660.497V55.0639H646.097V45.3439H658.112V41.1589H646.097V32.0239H660.047V27.7939H641.507V59.2939ZM666.776 59.2939H671.366V32.1589H671.681L683.651 59.2939H691.391V27.7939H686.891V54.9289H686.576L674.426 27.7939H666.776V59.2939ZM705.856 59.2939H710.401V32.0239H719.356V27.7939H696.901V32.0239H705.856V59.2939Z" fill="black"/>
</svg>
