<svg width="1886" height="140" viewBox="0 0 1886 140" fill="none" xmlns="http://www.w3.org/2000/svg">
<path d="M4.14 39H8.595V11.865H8.91L16.605 39H23.175L30.825 11.865H31.185V39H35.595V7.5H27.675L20.025 34.635H19.71L12.06 7.5H4.14V39ZM42.748 49.35H45.718C49.318 49.35 51.793 47.955 53.008 44.805L64.213 15.51H59.308L52.648 34.725H52.288L46.123 15.51H41.263L49.633 39H50.758L49.273 42.825C48.598 44.49 47.653 45.3 45.763 45.3H42.748V49.35ZM82.1017 39H86.5567V25.095C86.5567 21.675 89.1217 19.11 92.4067 19.11C95.3767 19.11 97.8067 21.36 97.8067 24.69V39H102.262V23.925C102.262 18.885 98.9767 14.925 93.6667 14.925C90.2467 14.925 87.9067 16.59 86.9167 18.57H86.5567V15.51H82.1017V39ZM119.348 39.585C124.028 39.585 126.008 36.885 126.818 35.76H127.133C127.133 37.785 128.618 39 130.553 39H133.748V34.95H132.668C131.948 34.95 131.498 34.59 131.498 33.87V15.51H127.043V18.885H126.683C125.783 17.625 123.623 14.925 119.078 14.925C112.598 14.925 108.053 20.19 108.053 27.255C108.053 34.41 112.823 39.585 119.348 39.585ZM119.888 35.49C115.793 35.49 112.553 32.25 112.553 27.3C112.553 22.485 115.658 19.065 119.843 19.065C123.848 19.065 127.178 22.08 127.178 27.3C127.178 31.755 124.343 35.49 119.888 35.49ZM140.236 39H144.691V24.96C144.691 21.45 147.166 19.11 150.046 19.11C152.971 19.11 155.221 21.09 155.221 24.42V39H159.676V25.095C159.676 21.225 162.151 19.11 165.076 19.11C168.091 19.11 170.116 21.135 170.116 25.05V39H174.571V23.565C174.571 18.615 171.151 14.925 166.021 14.925C162.781 14.925 160.306 16.32 158.866 18.975H158.506C157.246 16.545 154.861 14.925 151.486 14.925C148.201 14.925 146.086 16.635 145.051 18.525H144.691V15.51H140.236V39ZM192.172 39.585C197.302 39.585 201.397 36.84 202.837 32.205L198.652 31.17C197.842 34.095 195.097 35.715 192.172 35.715C187.807 35.715 185.017 33.015 184.972 28.425H203.287V27.03C203.287 20.01 199.102 14.925 191.947 14.925C185.647 14.925 180.382 19.875 180.382 27.3C180.382 34.5 185.017 39.585 192.172 39.585ZM185.017 25.05C185.332 21.45 188.347 18.84 191.947 18.84C195.502 18.84 198.517 21.045 198.742 25.05H185.017ZM227.382 11.595C229.137 11.595 230.397 10.29 230.397 8.58C230.397 6.96 229.137 5.655 227.382 5.655C225.672 5.655 224.412 6.96 224.412 8.58C224.412 10.29 225.672 11.595 227.382 11.595ZM225.132 39H229.587V15.51H220.857V19.38H225.132V39ZM246.053 39.585C251.678 39.585 255.368 36.525 255.368 31.98C255.368 22.395 241.778 26.94 241.778 21.81C241.778 20.1 243.398 18.885 245.963 18.885C248.618 18.885 250.508 20.19 250.913 22.575L254.828 21.45C254.108 17.22 250.373 14.925 246.098 14.925C240.968 14.925 237.503 17.76 237.503 21.765C237.503 31.17 250.868 26.67 250.868 32.34C250.868 34.32 249.248 35.625 246.233 35.625C243.218 35.625 241.283 34.23 240.878 31.44L236.738 32.385C237.323 36.93 240.878 39.585 246.053 39.585ZM601.248 39.585C605.928 39.585 607.908 36.885 608.718 35.76H609.033C609.033 37.785 610.518 39 612.453 39H615.648V34.95H614.568C613.848 34.95 613.398 34.59 613.398 33.87V15.51H608.943V18.885H608.583C607.683 17.625 605.523 14.925 600.978 14.925C594.498 14.925 589.953 20.19 589.953 27.255C589.953 34.41 594.723 39.585 601.248 39.585ZM601.788 35.49C597.693 35.49 594.453 32.25 594.453 27.3C594.453 22.485 597.558 19.065 601.743 19.065C605.748 19.065 609.078 22.08 609.078 27.3C609.078 31.755 606.243 35.49 601.788 35.49ZM622.135 39H626.59V25.095C626.59 21.675 629.155 19.11 632.44 19.11C635.41 19.11 637.84 21.36 637.84 24.69V39H642.295V23.925C642.295 18.885 639.01 14.925 633.7 14.925C630.28 14.925 627.94 16.59 626.95 18.57H626.59V15.51H622.135V39ZM659.382 39.585C663.972 39.585 666.042 36.795 666.852 35.76H667.167V39H671.532V5.25H667.077V18.885H666.717C665.817 17.625 663.657 14.925 659.112 14.925C652.632 14.925 648.087 20.19 648.087 27.255C648.087 34.41 652.902 39.585 659.382 39.585ZM659.922 35.49C655.827 35.49 652.587 32.25 652.587 27.3C652.587 22.485 655.692 19.065 659.877 19.065C663.882 19.065 667.212 22.08 667.212 27.3C667.212 31.755 664.377 35.49 659.922 35.49ZM691.67 39H705.395V34.905H700.805V11.595H705.395V7.5H691.67V11.595H696.26V34.905H691.67V39ZM711.312 17.265H714.867L716.982 7.5H712.122L711.312 17.265ZM724.052 39H728.507V24.96C728.507 21.45 730.982 19.11 733.862 19.11C736.787 19.11 739.037 21.09 739.037 24.42V39H743.492V25.095C743.492 21.225 745.967 19.11 748.892 19.11C751.907 19.11 753.932 21.135 753.932 25.05V39H758.387V23.565C758.387 18.615 754.967 14.925 749.837 14.925C746.597 14.925 744.122 16.32 742.682 18.975H742.322C741.062 16.545 738.677 14.925 735.302 14.925C732.017 14.925 729.902 16.635 728.867 18.525H728.507V15.51H724.052V39ZM783.714 11.595C785.469 11.595 786.729 10.29 786.729 8.58C786.729 6.96 785.469 5.655 783.714 5.655C782.004 5.655 780.744 6.96 780.744 8.58C780.744 10.29 782.004 11.595 783.714 11.595ZM781.464 39H785.919V15.51H777.189V19.38H781.464V39ZM794.51 39H798.965V25.095C798.965 21.675 801.53 19.11 804.815 19.11C807.785 19.11 810.215 21.36 810.215 24.69V39H814.67V23.925C814.67 18.885 811.385 14.925 806.075 14.925C802.655 14.925 800.315 16.59 799.325 18.57H798.965V15.51H794.51V39ZM831.712 39H835.492V35.085H831.757C829.687 35.085 828.832 34.185 828.832 32.07V19.38H835.762V15.51H828.832V8.805H824.647V15.51H820.102V19.38H824.377V32.115C824.377 36.975 827.302 39 831.712 39ZM852.354 39.585C857.484 39.585 861.579 36.84 863.019 32.205L858.834 31.17C858.024 34.095 855.279 35.715 852.354 35.715C847.989 35.715 845.199 33.015 845.154 28.425H863.469V27.03C863.469 20.01 859.284 14.925 852.129 14.925C845.829 14.925 840.564 19.875 840.564 27.3C840.564 34.5 845.199 39.585 852.354 39.585ZM845.199 25.05C845.514 21.45 848.529 18.84 852.129 18.84C855.684 18.84 858.699 21.045 858.924 25.05H845.199ZM869.713 39H874.168V26.94C874.168 22.485 876.103 19.38 880.153 19.38H882.403V14.925H880.738C877.543 14.925 875.248 17.22 874.438 19.2H874.123V15.51H869.713V39ZM897.48 39.585C902.61 39.585 906.705 36.84 908.145 32.205L903.96 31.17C903.15 34.095 900.405 35.715 897.48 35.715C893.115 35.715 890.325 33.015 890.28 28.425H908.595V27.03C908.595 20.01 904.41 14.925 897.255 14.925C890.955 14.925 885.69 19.875 885.69 27.3C885.69 34.5 890.325 39.585 897.48 39.585ZM890.325 25.05C890.64 21.45 893.655 18.84 897.255 18.84C900.81 18.84 903.825 21.045 904.05 25.05H890.325ZM922.715 39.585C928.34 39.585 932.03 36.525 932.03 31.98C932.03 22.395 918.44 26.94 918.44 21.81C918.44 20.1 920.06 18.885 922.625 18.885C925.28 18.885 927.17 20.19 927.575 22.575L931.49 21.45C930.77 17.22 927.035 14.925 922.76 14.925C917.63 14.925 914.165 17.76 914.165 21.765C914.165 31.17 927.53 26.67 927.53 32.34C927.53 34.32 925.91 35.625 922.895 35.625C919.88 35.625 917.945 34.23 917.54 31.44L913.4 32.385C913.985 36.93 917.54 39.585 922.715 39.585ZM948.306 39H952.086V35.085H948.351C946.281 35.085 945.426 34.185 945.426 32.07V19.38H952.356V15.51H945.426V8.805H941.241V15.51H936.696V19.38H940.971V32.115C940.971 36.975 943.896 39 948.306 39ZM968.948 39.585C974.078 39.585 978.173 36.84 979.613 32.205L975.428 31.17C974.618 34.095 971.873 35.715 968.948 35.715C964.583 35.715 961.793 33.015 961.748 28.425H980.063V27.03C980.063 20.01 975.878 14.925 968.723 14.925C962.423 14.925 957.158 19.875 957.158 27.3C957.158 34.5 961.793 39.585 968.948 39.585ZM961.793 25.05C962.108 21.45 965.123 18.84 968.723 18.84C972.278 18.84 975.293 21.045 975.518 25.05H961.793ZM995.938 39.585C1000.53 39.585 1002.6 36.795 1003.41 35.76H1003.72V39H1008.09V5.25H1003.63V18.885H1003.27C1002.37 17.625 1000.21 14.925 995.668 14.925C989.188 14.925 984.643 20.19 984.643 27.255C984.643 34.41 989.458 39.585 995.938 39.585ZM996.478 35.49C992.383 35.49 989.143 32.25 989.143 27.3C989.143 22.485 992.248 19.065 996.433 19.065C1000.44 19.065 1003.77 22.08 1003.77 27.3C1003.77 31.755 1000.93 35.49 996.478 35.49ZM1033.4 11.595C1035.16 11.595 1036.42 10.29 1036.42 8.58C1036.42 6.96 1035.16 5.655 1033.4 5.655C1031.69 5.655 1030.43 6.96 1030.43 8.58C1030.43 10.29 1031.69 11.595 1033.4 11.595ZM1031.15 39H1035.61V15.51H1026.88V19.38H1031.15V39ZM1044.2 39H1048.65V25.095C1048.65 21.675 1051.22 19.11 1054.5 19.11C1057.47 19.11 1059.9 21.36 1059.9 24.69V39H1064.36V23.925C1064.36 18.885 1061.07 14.925 1055.76 14.925C1052.34 14.925 1050 16.59 1049.01 18.57H1048.65V15.51H1044.2V39ZM1092.36 39.585C1097.99 39.585 1101.68 36.525 1101.68 31.98C1101.68 22.395 1088.09 26.94 1088.09 21.81C1088.09 20.1 1089.71 18.885 1092.27 18.885C1094.93 18.885 1096.82 20.19 1097.22 22.575L1101.14 21.45C1100.42 17.22 1096.68 14.925 1092.41 14.925C1087.28 14.925 1083.81 17.76 1083.81 21.765C1083.81 31.17 1097.18 26.67 1097.18 32.34C1097.18 34.32 1095.56 35.625 1092.54 35.625C1089.53 35.625 1087.59 34.23 1087.19 31.44L1083.05 32.385C1083.63 36.93 1087.19 39.585 1092.36 39.585ZM1117.96 39H1121.74V35.085H1118C1115.93 35.085 1115.08 34.185 1115.08 32.07V19.38H1122.01V15.51H1115.08V8.805H1110.89V15.51H1106.35V19.38H1110.62V32.115C1110.62 36.975 1113.55 39 1117.96 39ZM1138.1 39.585C1142.78 39.585 1144.76 36.885 1145.57 35.76H1145.89C1145.89 37.785 1147.37 39 1149.31 39H1152.5V34.95H1151.42C1150.7 34.95 1150.25 34.59 1150.25 33.87V15.51H1145.8V18.885H1145.44C1144.54 17.625 1142.38 14.925 1137.83 14.925C1131.35 14.925 1126.81 20.19 1126.81 27.255C1126.81 34.41 1131.58 39.585 1138.1 39.585ZM1138.64 35.49C1134.55 35.49 1131.31 32.25 1131.31 27.3C1131.31 22.485 1134.41 19.065 1138.6 19.065C1142.6 19.065 1145.93 22.08 1145.93 27.3C1145.93 31.755 1143.1 35.49 1138.64 35.49ZM1157.77 49.35H1160.74C1164.34 49.35 1166.82 47.955 1168.03 44.805L1179.24 15.51H1174.33L1167.67 34.725H1167.31L1161.15 15.51H1156.29L1164.66 39H1165.78L1164.3 42.825C1163.62 44.49 1162.68 45.3 1160.79 45.3H1157.77V49.35ZM1189.63 11.595C1191.38 11.595 1192.64 10.29 1192.64 8.58C1192.64 6.96 1191.38 5.655 1189.63 5.655C1187.92 5.655 1186.66 6.96 1186.66 8.58C1186.66 10.29 1187.92 11.595 1189.63 11.595ZM1187.38 39H1191.83V15.51H1183.1V19.38H1187.38V39ZM1200.42 39H1204.88V25.095C1204.88 21.675 1207.44 19.11 1210.73 19.11C1213.7 19.11 1216.13 21.36 1216.13 24.69V39H1220.58V23.925C1220.58 18.885 1217.3 14.925 1211.99 14.925C1208.57 14.925 1206.23 16.59 1205.24 18.57H1204.88V15.51H1200.42V39ZM1232.09 49.35H1242.49C1246.9 49.35 1249.82 47.325 1249.82 42.465V15.51H1245.46V18.75H1245.14C1244.33 17.715 1242.26 14.925 1237.67 14.925C1231.19 14.925 1226.38 20.1 1226.38 27.21C1226.38 34.365 1230.92 39.585 1237.4 39.585C1241.95 39.585 1244.15 37.065 1245.01 35.625H1245.37V42.42C1245.37 44.535 1244.51 45.48 1242.44 45.48H1232.09V49.35ZM1238.17 35.445C1233.98 35.445 1230.92 32.07 1230.92 27.21C1230.92 22.26 1234.16 19.065 1238.21 19.065C1242.67 19.065 1245.5 22.8 1245.5 27.21C1245.5 32.43 1242.17 35.445 1238.17 35.445ZM1278.55 39.585C1281.97 39.585 1284.31 37.92 1285.3 35.94H1285.66V39H1290.11V15.51H1285.66V29.415C1285.66 32.835 1283.09 35.355 1279.81 35.355C1276.84 35.355 1274.41 33.15 1274.41 29.82V15.51H1269.95V30.585C1269.95 35.625 1273.24 39.585 1278.55 39.585ZM1297.8 49.35H1302.25V35.625H1302.61C1303.47 37.065 1305.72 39.585 1310.26 39.585C1316.7 39.585 1321.29 34.365 1321.29 27.21C1321.29 20.1 1316.43 14.925 1309.95 14.925C1305.36 14.925 1303.29 17.715 1302.52 18.75H1302.16V15.51H1297.8V49.35ZM1309.45 35.445C1305.45 35.445 1302.16 32.43 1302.16 27.21C1302.16 22.8 1304.95 19.065 1309.36 19.065C1313.5 19.065 1316.7 22.26 1316.7 27.21C1316.7 32.07 1313.64 35.445 1309.45 35.445ZM1337.2 39.585C1341.79 39.585 1343.86 36.795 1344.67 35.76H1344.98V39H1349.35V5.25H1344.89V18.885H1344.53C1343.63 17.625 1341.47 14.925 1336.93 14.925C1330.45 14.925 1325.9 20.19 1325.9 27.255C1325.9 34.41 1330.72 39.585 1337.2 39.585ZM1337.74 35.49C1333.64 35.49 1330.4 32.25 1330.4 27.3C1330.4 22.485 1333.51 19.065 1337.69 19.065C1341.7 19.065 1345.03 22.08 1345.03 27.3C1345.03 31.755 1342.19 35.49 1337.74 35.49ZM1366.44 39.585C1371.12 39.585 1373.1 36.885 1373.91 35.76H1374.22C1374.22 37.785 1375.71 39 1377.64 39H1380.84V34.95H1379.76C1379.04 34.95 1378.59 34.59 1378.59 33.87V15.51H1374.13V18.885H1373.77C1372.87 17.625 1370.71 14.925 1366.17 14.925C1359.69 14.925 1355.14 20.19 1355.14 27.255C1355.14 34.41 1359.91 39.585 1366.44 39.585ZM1366.98 35.49C1362.88 35.49 1359.64 32.25 1359.64 27.3C1359.64 22.485 1362.75 19.065 1366.93 19.065C1370.94 19.065 1374.27 22.08 1374.27 27.3C1374.27 31.755 1371.43 35.49 1366.98 35.49ZM1396.91 39H1400.69V35.085H1396.96C1394.89 35.085 1394.03 34.185 1394.03 32.07V19.38H1400.96V15.51H1394.03V8.805H1389.85V15.51H1385.3V19.38H1389.58V32.115C1389.58 36.975 1392.5 39 1396.91 39ZM1417.55 39.585C1422.68 39.585 1426.78 36.84 1428.22 32.205L1424.03 31.17C1423.22 34.095 1420.48 35.715 1417.55 35.715C1413.19 35.715 1410.4 33.015 1410.35 28.425H1428.67V27.03C1428.67 20.01 1424.48 14.925 1417.33 14.925C1411.03 14.925 1405.76 19.875 1405.76 27.3C1405.76 34.5 1410.4 39.585 1417.55 39.585ZM1410.4 25.05C1410.71 21.45 1413.73 18.84 1417.33 18.84C1420.88 18.84 1423.9 21.045 1424.12 25.05H1410.4ZM1444.54 39.585C1449.13 39.585 1451.2 36.795 1452.01 35.76H1452.33V39H1456.69V5.25H1452.24V18.885H1451.88C1450.98 17.625 1448.82 14.925 1444.27 14.925C1437.79 14.925 1433.25 20.19 1433.25 27.255C1433.25 34.41 1438.06 39.585 1444.54 39.585ZM1445.08 35.49C1440.99 35.49 1437.75 32.25 1437.75 27.3C1437.75 22.485 1440.85 19.065 1445.04 19.065C1449.04 19.065 1452.37 22.08 1452.37 27.3C1452.37 31.755 1449.54 35.49 1445.08 35.49ZM1480.88 39H1487.05L1492.09 19.74H1492.36L1497.44 39H1503.56L1510.31 15.51H1505.54L1500.55 34.815H1500.23L1495.15 15.51H1489.34L1484.21 34.815H1483.9L1478.95 15.51H1474.13L1480.88 39ZM1520.74 11.595C1522.5 11.595 1523.76 10.29 1523.76 8.58C1523.76 6.96 1522.5 5.655 1520.74 5.655C1519.03 5.655 1517.77 6.96 1517.77 8.58C1517.77 10.29 1519.03 11.595 1520.74 11.595ZM1518.49 39H1522.95V15.51H1514.22V19.38H1518.49V39ZM1541.12 39H1544.9V35.085H1541.17C1539.1 35.085 1538.24 34.185 1538.24 32.07V19.38H1545.17V15.51H1538.24V8.805H1534.06V15.51H1529.51V19.38H1533.79V32.115C1533.79 36.975 1536.71 39 1541.12 39ZM1551.64 39H1556.09V24.87C1556.09 21.54 1558.79 19.11 1561.99 19.11C1565 19.11 1567.52 21.36 1567.52 24.69V39H1571.98V23.925C1571.98 18.885 1568.56 14.925 1563.25 14.925C1559.87 14.925 1557.44 16.635 1556.45 18.57H1556.09V5.25H1551.64V39ZM1601.74 39H1605.52V35.085H1601.78C1599.71 35.085 1598.86 34.185 1598.86 32.07V19.38H1605.79V15.51H1598.86V8.805H1594.67V15.51H1590.13V19.38H1594.4V32.115C1594.4 36.975 1597.33 39 1601.74 39ZM1612.25 39H1616.71V24.87C1616.71 21.54 1619.41 19.11 1622.6 19.11C1625.62 19.11 1628.14 21.36 1628.14 24.69V39H1632.59V23.925C1632.59 18.885 1629.17 14.925 1623.86 14.925C1620.49 14.925 1618.06 16.635 1617.07 18.57H1616.71V5.25H1612.25V39ZM1650.21 39.585C1655.34 39.585 1659.44 36.84 1660.88 32.205L1656.69 31.17C1655.88 34.095 1653.14 35.715 1650.21 35.715C1645.85 35.715 1643.06 33.015 1643.01 28.425H1661.33V27.03C1661.33 20.01 1657.14 14.925 1649.99 14.925C1643.69 14.925 1638.42 19.875 1638.42 27.3C1638.42 34.5 1643.06 39.585 1650.21 39.585ZM1643.06 25.05C1643.37 21.45 1646.39 18.84 1649.99 18.84C1653.54 18.84 1656.56 21.045 1656.78 25.05H1643.06ZM1689.88 39.585C1694.47 39.585 1696.54 36.795 1697.35 35.76H1697.66V39H1702.03V5.25H1697.57V18.885H1697.21C1696.31 17.625 1694.15 14.925 1689.61 14.925C1683.13 14.925 1678.58 20.19 1678.58 27.255C1678.58 34.41 1683.4 39.585 1689.88 39.585ZM1690.42 35.49C1686.32 35.49 1683.08 32.25 1683.08 27.3C1683.08 22.485 1686.19 19.065 1690.37 19.065C1694.38 19.065 1697.71 22.08 1697.71 27.3C1697.71 31.755 1694.87 35.49 1690.42 35.49ZM1714.67 11.595C1716.42 11.595 1717.68 10.29 1717.68 8.58C1717.68 6.96 1716.42 5.655 1714.67 5.655C1712.96 5.655 1711.7 6.96 1711.7 8.58C1711.7 10.29 1712.96 11.595 1714.67 11.595ZM1712.42 39H1716.87V15.51H1708.14V19.38H1712.42V39ZM1729.51 49.35H1739.91C1744.32 49.35 1747.24 47.325 1747.24 42.465V15.51H1742.88V18.75H1742.56C1741.75 17.715 1739.68 14.925 1735.09 14.925C1728.61 14.925 1723.8 20.1 1723.8 27.21C1723.8 34.365 1728.34 39.585 1734.82 39.585C1739.37 39.585 1741.57 37.065 1742.43 35.625H1742.79V42.42C1742.79 44.535 1741.93 45.48 1739.86 45.48H1729.51V49.35ZM1735.59 35.445C1731.4 35.445 1728.34 32.07 1728.34 27.21C1728.34 22.26 1731.58 19.065 1735.63 19.065C1740.09 19.065 1742.92 22.8 1742.92 27.21C1742.92 32.43 1739.59 35.445 1735.59 35.445ZM1760.1 11.595C1761.86 11.595 1763.12 10.29 1763.12 8.58C1763.12 6.96 1761.86 5.655 1760.1 5.655C1758.39 5.655 1757.13 6.96 1757.13 8.58C1757.13 10.29 1758.39 11.595 1760.1 11.595ZM1757.85 39H1762.31V15.51H1753.58V19.38H1757.85V39ZM1780.48 39H1784.26V35.085H1780.53C1778.46 35.085 1777.6 34.185 1777.6 32.07V19.38H1784.53V15.51H1777.6V8.805H1773.42V15.51H1768.87V19.38H1773.15V32.115C1773.15 36.975 1776.07 39 1780.48 39ZM1800.63 39.585C1805.31 39.585 1807.29 36.885 1808.1 35.76H1808.41C1808.41 37.785 1809.9 39 1811.83 39H1815.03V34.95H1813.95C1813.23 34.95 1812.78 34.59 1812.78 33.87V15.51H1808.32V18.885H1807.96C1807.06 17.625 1804.9 14.925 1800.36 14.925C1793.88 14.925 1789.33 20.19 1789.33 27.255C1789.33 34.41 1794.1 39.585 1800.63 39.585ZM1801.17 35.49C1797.07 35.49 1793.83 32.25 1793.83 27.3C1793.83 22.485 1796.94 19.065 1801.12 19.065C1805.13 19.065 1808.46 22.08 1808.46 27.3C1808.46 31.755 1805.62 35.49 1801.17 35.49ZM1820.39 39H1833.98V35.13H1829.44V5.25H1820.39V9.165H1824.98V35.13H1820.39V39ZM14.13 84.585C19.485 84.585 24.075 81.525 25.38 76.035L21.06 75.045C20.43 78.33 17.685 80.4 14.265 80.4C9.81 80.4 6.615 76.98 6.615 72.255C6.615 67.665 9.675 64.065 14.22 64.065C17.64 64.065 20.385 66.225 21.015 69.51L25.29 68.475C23.985 62.985 19.44 59.925 14.085 59.925C7.065 59.925 2.025 65.325 2.025 72.255C2.025 79.14 6.93 84.585 14.13 84.585ZM42.2783 84.585C49.4333 84.585 54.6533 79.275 54.6533 72.255C54.6533 65.235 49.4783 59.925 42.3233 59.925C35.2133 59.925 29.9933 65.19 29.9933 72.255C29.9933 79.32 35.1683 84.585 42.2783 84.585ZM42.2783 80.4C37.7783 80.4 34.5383 77.025 34.5383 72.255C34.5383 67.62 37.7333 64.065 42.2783 64.065C46.8683 64.065 50.1083 67.575 50.1083 72.255C50.1083 76.98 46.8683 80.4 42.2783 80.4ZM60.901 84H65.356V70.095C65.356 66.675 67.921 64.11 71.206 64.11C74.176 64.11 76.606 66.36 76.606 69.69V84H81.061V68.925C81.061 63.885 77.776 59.925 72.466 59.925C69.046 59.925 66.706 61.59 65.716 63.57H65.356V60.51H60.901V84ZM96.3928 84.585C102.018 84.585 105.708 81.525 105.708 76.98C105.708 67.395 92.1178 71.94 92.1178 66.81C92.1178 65.1 93.7378 63.885 96.3028 63.885C98.9578 63.885 100.848 65.19 101.253 67.575L105.168 66.45C104.448 62.22 100.713 59.925 96.4378 59.925C91.3078 59.925 87.8428 62.76 87.8428 66.765C87.8428 76.17 101.208 71.67 101.208 77.34C101.208 79.32 99.5878 80.625 96.5728 80.625C93.5578 80.625 91.6228 79.23 91.2178 76.44L87.0778 77.385C87.6628 81.93 91.2178 84.585 96.3928 84.585ZM121.984 84H125.764V80.085H122.029C119.959 80.085 119.104 79.185 119.104 77.07V64.38H126.034V60.51H119.104V53.805H114.919V60.51H110.374V64.38H114.649V77.115C114.649 81.975 117.574 84 121.984 84ZM132.501 84H136.956V71.94C136.956 67.485 138.891 64.38 142.941 64.38H145.191V59.925H143.526C140.331 59.925 138.036 62.22 137.226 64.2H136.911V60.51H132.501V84ZM159.479 84.585C162.899 84.585 165.239 82.92 166.229 80.94H166.589V84H171.044V60.51H166.589V74.415C166.589 77.835 164.024 80.355 160.739 80.355C157.769 80.355 155.339 78.15 155.339 74.82V60.51H150.884V75.585C150.884 80.625 154.169 84.585 159.479 84.585ZM189.166 84.585C194.521 84.585 199.111 81.525 200.416 76.035L196.096 75.045C195.466 78.33 192.721 80.4 189.301 80.4C184.846 80.4 181.651 76.98 181.651 72.255C181.651 67.665 184.711 64.065 189.256 64.065C192.676 64.065 195.421 66.225 196.051 69.51L200.326 68.475C199.021 62.985 194.476 59.925 189.121 59.925C182.101 59.925 177.061 65.325 177.061 72.255C177.061 79.14 181.966 84.585 189.166 84.585ZM216.279 84H220.059V80.085H216.324C214.254 80.085 213.399 79.185 213.399 77.07V64.38H220.329V60.51H213.399V53.805H209.214V60.51H204.669V64.38H208.944V77.115C208.944 81.975 211.869 84 216.279 84ZM231.971 56.595C233.726 56.595 234.986 55.29 234.986 53.58C234.986 51.96 233.726 50.655 231.971 50.655C230.261 50.655 229.001 51.96 229.001 53.58C229.001 55.29 230.261 56.595 231.971 56.595ZM229.721 84H234.176V60.51H225.446V64.38H229.721V84ZM253.388 84.585C260.543 84.585 265.763 79.275 265.763 72.255C265.763 65.235 260.588 59.925 253.433 59.925C246.323 59.925 241.103 65.19 241.103 72.255C241.103 79.32 246.278 84.585 253.388 84.585ZM253.388 80.4C248.888 80.4 245.648 77.025 245.648 72.255C245.648 67.62 248.843 64.065 253.388 64.065C257.978 64.065 261.218 67.575 261.218 72.255C261.218 76.98 257.978 80.4 253.388 80.4ZM272.01 84H276.465V70.095C276.465 66.675 279.03 64.11 282.315 64.11C285.285 64.11 287.715 66.36 287.715 69.69V84H292.17V68.925C292.17 63.885 288.885 59.925 283.575 59.925C280.155 59.925 277.815 61.59 276.825 63.57H276.465V60.51H272.01V84ZM322.922 84.585C330.077 84.585 335.297 79.275 335.297 72.255C335.297 65.235 330.122 59.925 322.967 59.925C315.857 59.925 310.637 65.19 310.637 72.255C310.637 79.32 315.812 84.585 322.922 84.585ZM322.922 80.4C318.422 80.4 315.182 77.025 315.182 72.255C315.182 67.62 318.377 64.065 322.922 64.065C327.512 64.065 330.752 67.575 330.752 72.255C330.752 76.98 327.512 80.4 322.922 80.4ZM343.345 84H347.8V64.38H354.415V60.51H347.8V57.18C347.8 55.065 348.655 54.12 350.725 54.12H354.235V50.25H350.68C346.27 50.25 343.345 52.275 343.345 57.135V60.51H339.07V64.38H343.345V84ZM373.586 84H378.176V71.94H384.206C389.921 71.94 394.151 67.98 394.151 62.175C394.151 56.325 390.101 52.5 384.206 52.5H373.586V84ZM378.176 67.8V56.685H383.936C387.311 56.685 389.471 58.98 389.471 62.175C389.471 65.37 387.311 67.8 383.936 67.8H378.176ZM399.056 84H412.646V80.13H408.101V50.25H399.056V54.165H403.646V80.13H399.056V84ZM427.365 84.585C432.045 84.585 434.025 81.885 434.835 80.76H435.15C435.15 82.785 436.635 84 438.57 84H441.765V79.95H440.685C439.965 79.95 439.515 79.59 439.515 78.87V60.51H435.06V63.885H434.7C433.8 62.625 431.64 59.925 427.095 59.925C420.615 59.925 416.07 65.19 416.07 72.255C416.07 79.41 420.84 84.585 427.365 84.585ZM427.905 80.49C423.81 80.49 420.57 77.25 420.57 72.3C420.57 67.485 423.675 64.065 427.86 64.065C431.865 64.065 435.195 67.08 435.195 72.3C435.195 76.755 432.36 80.49 427.905 80.49ZM447.037 94.35H450.007C453.607 94.35 456.082 92.955 457.297 89.805L468.502 60.51H463.597L456.937 79.725H456.577L450.412 60.51H445.552L453.922 84H455.047L453.562 87.825C452.887 89.49 451.942 90.3 450.052 90.3H447.037V94.35ZM475.245 75.45H479.07L479.43 52.5H474.84L475.245 75.45ZM477.18 84.585C478.755 84.585 480.06 83.28 480.06 81.705C480.06 80.085 478.755 78.78 477.18 78.78C475.515 78.78 474.165 80.085 474.165 81.705C474.165 83.28 475.515 84.585 477.18 84.585ZM498.205 84H502.93L505.45 76.89H519.94L522.46 84H527.275L516.025 52.5H509.59L498.205 84ZM506.935 72.705L512.515 56.865H512.875L518.455 72.705H506.935ZM531.736 84H536.191V71.94C536.191 67.485 538.126 64.38 542.176 64.38H544.426V59.925H542.761C539.566 59.925 537.271 62.22 536.461 64.2H536.146V60.51H531.736V84ZM559.818 84.585C565.173 84.585 569.763 81.525 571.068 76.035L566.748 75.045C566.118 78.33 563.373 80.4 559.953 80.4C555.498 80.4 552.302 76.98 552.302 72.255C552.302 67.665 555.363 64.065 559.908 64.065C563.328 64.065 566.073 66.225 566.703 69.51L570.978 68.475C569.673 62.985 565.128 59.925 559.773 59.925C552.753 59.925 547.713 65.325 547.713 72.255C547.713 79.14 552.618 84.585 559.818 84.585ZM586.976 84.585C591.656 84.585 593.636 81.885 594.446 80.76H594.761C594.761 82.785 596.246 84 598.181 84H601.376V79.95H600.296C599.576 79.95 599.126 79.59 599.126 78.87V60.51H594.671V63.885H594.311C593.411 62.625 591.251 59.925 586.706 59.925C580.226 59.925 575.681 65.19 575.681 72.255C575.681 79.41 580.451 84.585 586.976 84.585ZM587.516 80.49C583.421 80.49 580.181 77.25 580.181 72.3C580.181 67.485 583.286 64.065 587.471 64.065C591.476 64.065 594.806 67.08 594.806 72.3C594.806 76.755 591.971 80.49 587.516 80.49ZM617.493 84.585C622.083 84.585 624.153 81.795 624.963 80.76H625.278V84H629.643V50.25H625.188V63.885H624.828C623.928 62.625 621.768 59.925 617.223 59.925C610.743 59.925 606.198 65.19 606.198 72.255C606.198 79.41 611.013 84.585 617.493 84.585ZM618.033 80.49C613.938 80.49 610.698 77.25 610.698 72.3C610.698 67.485 613.803 64.065 617.988 64.065C621.993 64.065 625.323 67.08 625.323 72.3C625.323 76.755 622.488 80.49 618.033 80.49ZM647.231 84.585C652.361 84.585 656.456 81.84 657.896 77.205L653.711 76.17C652.901 79.095 650.156 80.715 647.231 80.715C642.866 80.715 640.076 78.015 640.031 73.425H658.346V72.03C658.346 65.01 654.161 59.925 647.006 59.925C640.706 59.925 635.441 64.875 635.441 72.3C635.441 79.5 640.076 84.585 647.231 84.585ZM640.076 70.05C640.391 66.45 643.406 63.84 647.006 63.84C650.561 63.84 653.576 66.045 653.801 70.05H640.076ZM667.111 67.845C668.731 67.845 670.036 66.54 670.036 64.92C670.036 63.345 668.731 62.04 667.111 62.04C665.491 62.04 664.141 63.345 664.141 64.92C664.141 66.54 665.491 67.845 667.111 67.845ZM667.111 84.585C668.731 84.585 670.036 83.28 670.036 81.705C670.036 80.085 668.731 78.78 667.111 78.78C665.491 78.78 664.141 80.085 664.141 81.705C664.141 83.28 665.491 84.585 667.111 84.585ZM679.015 90.435H680.005C684.235 90.435 687.07 88.23 687.07 83.505V56.595C687.07 51.87 684.235 49.665 680.005 49.665H679.015V53.715H679.69C681.94 53.715 682.615 54.795 682.615 56.64V83.46C682.615 85.305 681.94 86.385 679.69 86.385H679.015V90.435ZM708.022 84H721.747V79.905H717.157V56.595H721.747V52.5H708.022V56.595H712.612V79.905H708.022V84ZM751.967 84.585C756.647 84.585 758.627 81.885 759.437 80.76H759.752C759.752 82.785 761.237 84 763.172 84H766.367V79.95H765.287C764.567 79.95 764.117 79.59 764.117 78.87V60.51H759.662V63.885H759.302C758.402 62.625 756.242 59.925 751.697 59.925C745.217 59.925 740.672 65.19 740.672 72.255C740.672 79.41 745.442 84.585 751.967 84.585ZM752.507 80.49C748.412 80.49 745.172 77.25 745.172 72.3C745.172 67.485 748.277 64.065 752.462 64.065C756.467 64.065 759.797 67.08 759.797 72.3C759.797 76.755 756.962 80.49 752.507 80.49ZM771.729 84H785.319V80.13H780.774V50.25H771.729V54.165H776.319V80.13H771.729V84ZM799.162 84.585C804.787 84.585 808.477 81.525 808.477 76.98C808.477 67.395 794.887 71.94 794.887 66.81C794.887 65.1 796.507 63.885 799.072 63.885C801.727 63.885 803.617 65.19 804.022 67.575L807.937 66.45C807.217 62.22 803.482 59.925 799.207 59.925C794.077 59.925 790.612 62.76 790.612 66.765C790.612 76.17 803.977 71.67 803.977 77.34C803.977 79.32 802.357 80.625 799.342 80.625C796.327 80.625 794.392 79.23 793.987 76.44L789.847 77.385C790.432 81.93 793.987 84.585 799.162 84.585ZM825.788 84.585C832.943 84.585 838.163 79.275 838.163 72.255C838.163 65.235 832.988 59.925 825.833 59.925C818.723 59.925 813.503 65.19 813.503 72.255C813.503 79.32 818.678 84.585 825.788 84.585ZM825.788 80.4C821.288 80.4 818.048 77.025 818.048 72.255C818.048 67.62 821.243 64.065 825.788 64.065C830.378 64.065 833.618 67.575 833.618 72.255C833.618 76.98 830.378 80.4 825.788 80.4ZM867.526 84.585C872.881 84.585 877.471 81.525 878.776 76.035L874.456 75.045C873.826 78.33 871.081 80.4 867.661 80.4C863.206 80.4 860.011 76.98 860.011 72.255C860.011 67.665 863.071 64.065 867.616 64.065C871.036 64.065 873.781 66.225 874.411 69.51L878.686 68.475C877.381 62.985 872.836 59.925 867.481 59.925C860.461 59.925 855.421 65.325 855.421 72.255C855.421 79.14 860.326 84.585 867.526 84.585ZM894.684 84.585C899.364 84.585 901.344 81.885 902.154 80.76H902.469C902.469 82.785 903.954 84 905.889 84H909.084V79.95H908.004C907.284 79.95 906.834 79.59 906.834 78.87V60.51H902.379V63.885H902.019C901.119 62.625 898.959 59.925 894.414 59.925C887.934 59.925 883.389 65.19 883.389 72.255C883.389 79.41 888.159 84.585 894.684 84.585ZM895.224 80.49C891.129 80.49 887.889 77.25 887.889 72.3C887.889 67.485 890.994 64.065 895.179 64.065C899.184 64.065 902.514 67.08 902.514 72.3C902.514 76.755 899.679 80.49 895.224 80.49ZM915.572 84H920.027V71.94C920.027 67.485 921.962 64.38 926.012 64.38H928.262V59.925H926.597C923.402 59.925 921.107 62.22 920.297 64.2H919.982V60.51H915.572V84ZM943.338 84.585C948.468 84.585 952.563 81.84 954.003 77.205L949.818 76.17C949.008 79.095 946.263 80.715 943.338 80.715C938.973 80.715 936.183 78.015 936.138 73.425H954.453V72.03C954.453 65.01 950.268 59.925 943.113 59.925C936.813 59.925 931.548 64.875 931.548 72.3C931.548 79.5 936.183 84.585 943.338 84.585ZM936.183 70.05C936.498 66.45 939.513 63.84 943.113 63.84C946.668 63.84 949.683 66.045 949.908 70.05H936.183ZM983.003 84.585C987.683 84.585 989.663 81.885 990.473 80.76H990.788C990.788 82.785 992.273 84 994.208 84H997.403V79.95H996.323C995.603 79.95 995.153 79.59 995.153 78.87V60.51H990.698V63.885H990.338C989.438 62.625 987.278 59.925 982.733 59.925C976.253 59.925 971.708 65.19 971.708 72.255C971.708 79.41 976.478 84.585 983.003 84.585ZM983.543 80.49C979.448 80.49 976.208 77.25 976.208 72.3C976.208 67.485 979.313 64.065 983.498 64.065C987.503 64.065 990.833 67.08 990.833 72.3C990.833 76.755 987.998 80.49 983.543 80.49ZM1016.04 84.585C1022.52 84.585 1027.38 79.41 1027.38 72.255C1027.38 65.19 1022.79 59.925 1016.36 59.925C1011.81 59.925 1009.56 62.625 1008.71 63.885H1008.35V50.25H1003.89V84H1008.26V80.76H1008.62C1009.38 81.795 1011.45 84.585 1016.04 84.585ZM1015.46 80.49C1011.05 80.49 1008.26 76.755 1008.26 72.3C1008.26 67.08 1011.54 64.065 1015.55 64.065C1019.73 64.065 1022.84 67.485 1022.84 72.3C1022.84 77.25 1019.6 80.49 1015.46 80.49ZM1044.28 84.585C1051.44 84.585 1056.66 79.275 1056.66 72.255C1056.66 65.235 1051.48 59.925 1044.33 59.925C1037.22 59.925 1032 65.19 1032 72.255C1032 79.32 1037.17 84.585 1044.28 84.585ZM1044.28 80.4C1039.78 80.4 1036.54 77.025 1036.54 72.255C1036.54 67.62 1039.74 64.065 1044.28 64.065C1048.87 64.065 1052.11 67.575 1052.11 72.255C1052.11 76.98 1048.87 80.4 1044.28 80.4ZM1071.27 84.585C1074.69 84.585 1077.03 82.92 1078.02 80.94H1078.38V84H1082.84V60.51H1078.38V74.415C1078.38 77.835 1075.82 80.355 1072.53 80.355C1069.56 80.355 1067.13 78.15 1067.13 74.82V60.51H1062.68V75.585C1062.68 80.625 1065.96 84.585 1071.27 84.585ZM1100.1 84H1103.88V80.085H1100.15C1098.08 80.085 1097.22 79.185 1097.22 77.07V64.38H1104.15V60.51H1097.22V53.805H1093.04V60.51H1088.49V64.38H1092.77V77.115C1092.77 81.975 1095.69 84 1100.1 84ZM1132.88 84H1136.66V80.085H1132.93C1130.86 80.085 1130 79.185 1130 77.07V64.38H1136.93V60.51H1130V53.805H1125.82V60.51H1121.27V64.38H1125.55V77.115C1125.55 81.975 1128.47 84 1132.88 84ZM1143.4 84H1147.85V69.87C1147.85 66.54 1150.55 64.11 1153.75 64.11C1156.76 64.11 1159.28 66.36 1159.28 69.69V84H1163.74V68.925C1163.74 63.885 1160.32 59.925 1155.01 59.925C1151.63 59.925 1149.2 61.635 1148.21 63.57H1147.85V50.25H1143.4V84ZM1181.36 84.585C1186.49 84.585 1190.59 81.84 1192.03 77.205L1187.84 76.17C1187.03 79.095 1184.29 80.715 1181.36 80.715C1177 80.715 1174.21 78.015 1174.16 73.425H1192.48V72.03C1192.48 65.01 1188.29 59.925 1181.14 59.925C1174.84 59.925 1169.57 64.875 1169.57 72.3C1169.57 79.5 1174.21 84.585 1181.36 84.585ZM1174.21 70.05C1174.52 66.45 1177.54 63.84 1181.14 63.84C1184.69 63.84 1187.71 66.045 1187.93 70.05H1174.21ZM1220.98 84H1224.76V80.085H1221.03C1218.96 80.085 1218.1 79.185 1218.1 77.07V64.38H1225.03V60.51H1218.1V53.805H1213.92V60.51H1209.37V64.38H1213.65V77.115C1213.65 81.975 1216.57 84 1220.98 84ZM1231.5 84H1235.95V71.94C1235.95 67.485 1237.89 64.38 1241.94 64.38H1244.19V59.925H1242.52C1239.33 59.925 1237.03 62.22 1236.22 64.2H1235.91V60.51H1231.5V84ZM1259.26 84.585C1264.39 84.585 1268.49 81.84 1269.93 77.205L1265.74 76.17C1264.93 79.095 1262.19 80.715 1259.26 80.715C1254.9 80.715 1252.11 78.015 1252.06 73.425H1270.38V72.03C1270.38 65.01 1266.19 59.925 1259.04 59.925C1252.74 59.925 1247.47 64.875 1247.47 72.3C1247.47 79.5 1252.11 84.585 1259.26 84.585ZM1252.11 70.05C1252.42 66.45 1255.44 63.84 1259.04 63.84C1262.59 63.84 1265.61 66.045 1265.83 70.05H1252.11ZM1286.75 84.585C1291.88 84.585 1295.97 81.84 1297.41 77.205L1293.23 76.17C1292.42 79.095 1289.67 80.715 1286.75 80.715C1282.38 80.715 1279.59 78.015 1279.55 73.425H1297.86V72.03C1297.86 65.01 1293.68 59.925 1286.52 59.925C1280.22 59.925 1274.96 64.875 1274.96 72.3C1274.96 79.5 1279.59 84.585 1286.75 84.585ZM1279.59 70.05C1279.91 66.45 1282.92 63.84 1286.52 63.84C1290.08 63.84 1293.09 66.045 1293.32 70.05H1279.59ZM1311.98 84.585C1317.61 84.585 1321.3 81.525 1321.3 76.98C1321.3 67.395 1307.71 71.94 1307.71 66.81C1307.71 65.1 1309.33 63.885 1311.89 63.885C1314.55 63.885 1316.44 65.19 1316.84 67.575L1320.76 66.45C1320.04 62.22 1316.3 59.925 1312.03 59.925C1306.9 59.925 1303.43 62.76 1303.43 66.765C1303.43 76.17 1316.8 71.67 1316.8 77.34C1316.8 79.32 1315.18 80.625 1312.16 80.625C1309.15 80.625 1307.21 79.23 1306.81 76.44L1302.67 77.385C1303.25 81.93 1306.81 84.585 1311.98 84.585ZM1327.06 88.995H1330.66L1332.77 79.05H1327.87L1327.06 88.995ZM1360.86 84.585C1366.49 84.585 1370.18 81.525 1370.18 76.98C1370.18 67.395 1356.59 71.94 1356.59 66.81C1356.59 65.1 1358.21 63.885 1360.77 63.885C1363.43 63.885 1365.32 65.19 1365.72 67.575L1369.64 66.45C1368.92 62.22 1365.18 59.925 1360.91 59.925C1355.78 59.925 1352.31 62.76 1352.31 66.765C1352.31 76.17 1365.68 71.67 1365.68 77.34C1365.68 79.32 1364.06 80.625 1361.04 80.625C1358.03 80.625 1356.09 79.23 1355.69 76.44L1351.55 77.385C1352.13 81.93 1355.69 84.585 1360.86 84.585ZM1387.49 84.585C1394.65 84.585 1399.87 79.275 1399.87 72.255C1399.87 65.235 1394.69 59.925 1387.54 59.925C1380.43 59.925 1375.21 65.19 1375.21 72.255C1375.21 79.32 1380.38 84.585 1387.49 84.585ZM1387.49 80.4C1382.99 80.4 1379.75 77.025 1379.75 72.255C1379.75 67.62 1382.95 64.065 1387.49 64.065C1392.08 64.065 1395.32 67.575 1395.32 72.255C1395.32 76.98 1392.08 80.4 1387.49 80.4ZM1428.42 84.585C1433.01 84.585 1435.08 81.795 1435.89 80.76H1436.2V84H1440.57V50.25H1436.11V63.885H1435.75C1434.85 62.625 1432.69 59.925 1428.15 59.925C1421.67 59.925 1417.12 65.19 1417.12 72.255C1417.12 79.41 1421.94 84.585 1428.42 84.585ZM1428.96 80.49C1424.86 80.49 1421.62 77.25 1421.62 72.3C1421.62 67.485 1424.73 64.065 1428.91 64.065C1432.92 64.065 1436.25 67.08 1436.25 72.3C1436.25 76.755 1433.41 80.49 1428.96 80.49ZM1458.65 84.585C1465.81 84.585 1471.03 79.275 1471.03 72.255C1471.03 65.235 1465.85 59.925 1458.7 59.925C1451.59 59.925 1446.37 65.19 1446.37 72.255C1446.37 79.32 1451.54 84.585 1458.65 84.585ZM1458.65 80.4C1454.15 80.4 1450.91 77.025 1450.91 72.255C1450.91 67.62 1454.11 64.065 1458.65 64.065C1463.24 64.065 1466.48 67.575 1466.48 72.255C1466.48 76.98 1463.24 80.4 1458.65 80.4ZM1477.27 84H1481.73V70.095C1481.73 66.675 1484.29 64.11 1487.58 64.11C1490.55 64.11 1492.98 66.36 1492.98 69.69V84H1497.43V68.925C1497.43 63.885 1494.15 59.925 1488.84 59.925C1485.42 59.925 1483.08 61.59 1482.09 63.57H1481.73V60.51H1477.27V84ZM1503.99 62.265H1507.55L1509.66 52.5H1504.8L1503.99 62.265ZM1526.32 84H1530.1V80.085H1526.36C1524.29 80.085 1523.44 79.185 1523.44 77.07V64.38H1530.37V60.51H1523.44V53.805H1519.25V60.51H1514.71V64.38H1518.98V77.115C1518.98 81.975 1521.91 84 1526.32 84ZM1557.38 84.585C1563.01 84.585 1566.7 81.525 1566.7 76.98C1566.7 67.395 1553.11 71.94 1553.11 66.81C1553.11 65.1 1554.73 63.885 1557.29 63.885C1559.95 63.885 1561.84 65.19 1562.24 67.575L1566.16 66.45C1565.44 62.22 1561.7 59.925 1557.43 59.925C1552.3 59.925 1548.83 62.76 1548.83 66.765C1548.83 76.17 1562.2 71.67 1562.2 77.34C1562.2 79.32 1560.58 80.625 1557.56 80.625C1554.55 80.625 1552.61 79.23 1552.21 76.44L1548.07 77.385C1548.65 81.93 1552.21 84.585 1557.38 84.585ZM1583.52 84.585C1588.65 84.585 1592.74 81.84 1594.18 77.205L1590 76.17C1589.19 79.095 1586.44 80.715 1583.52 80.715C1579.15 80.715 1576.36 78.015 1576.32 73.425H1594.63V72.03C1594.63 65.01 1590.45 59.925 1583.29 59.925C1576.99 59.925 1571.73 64.875 1571.73 72.3C1571.73 79.5 1576.36 84.585 1583.52 84.585ZM1576.36 70.05C1576.68 66.45 1579.69 63.84 1583.29 63.84C1586.85 63.84 1589.86 66.045 1590.09 70.05H1576.36ZM1600.88 84H1605.33V70.095C1605.33 66.675 1607.9 64.11 1611.18 64.11C1614.15 64.11 1616.58 66.36 1616.58 69.69V84H1621.04V68.925C1621.04 63.885 1617.75 59.925 1612.44 59.925C1609.02 59.925 1606.68 61.59 1605.69 63.57H1605.33V60.51H1600.88V84ZM1638.12 84.585C1642.71 84.585 1644.78 81.795 1645.59 80.76H1645.91V84H1650.27V50.25H1645.82V63.885H1645.46C1644.56 62.625 1642.4 59.925 1637.85 59.925C1631.37 59.925 1626.83 65.19 1626.83 72.255C1626.83 79.41 1631.64 84.585 1638.12 84.585ZM1638.66 80.49C1634.57 80.49 1631.33 77.25 1631.33 72.3C1631.33 67.485 1634.43 64.065 1638.62 64.065C1642.62 64.065 1645.95 67.08 1645.95 72.3C1645.95 76.755 1643.12 80.49 1638.66 80.49ZM1670.41 84H1674.86V69.96C1674.86 66.45 1677.34 64.11 1680.22 64.11C1683.14 64.11 1685.39 66.09 1685.39 69.42V84H1689.85V70.095C1689.85 66.225 1692.32 64.11 1695.25 64.11C1698.26 64.11 1700.29 66.135 1700.29 70.05V84H1704.74V68.565C1704.74 63.615 1701.32 59.925 1696.19 59.925C1692.95 59.925 1690.48 61.32 1689.04 63.975H1688.68C1687.42 61.545 1685.03 59.925 1681.66 59.925C1678.37 59.925 1676.26 61.635 1675.22 63.525H1674.86V60.51H1670.41V84ZM1721.85 84.585C1726.53 84.585 1728.51 81.885 1729.32 80.76H1729.64C1729.64 82.785 1731.12 84 1733.06 84H1736.25V79.95H1735.17C1734.45 79.95 1734 79.59 1734 78.87V60.51H1729.55V63.885H1729.19C1728.29 62.625 1726.13 59.925 1721.58 59.925C1715.1 59.925 1710.56 65.19 1710.56 72.255C1710.56 79.41 1715.33 84.585 1721.85 84.585ZM1722.39 80.49C1718.3 80.49 1715.06 77.25 1715.06 72.3C1715.06 67.485 1718.16 64.065 1722.35 64.065C1726.35 64.065 1729.68 67.08 1729.68 72.3C1729.68 76.755 1726.85 80.49 1722.39 80.49ZM1747.91 56.595C1749.67 56.595 1750.93 55.29 1750.93 53.58C1750.93 51.96 1749.67 50.655 1747.91 50.655C1746.2 50.655 1744.94 51.96 1744.94 53.58C1744.94 55.29 1746.2 56.595 1747.91 56.595ZM1745.66 84H1750.12V60.51H1741.39V64.38H1745.66V84ZM1757.58 84H1771.17V80.13H1766.63V50.25H1757.58V54.165H1762.17V80.13H1757.58V84ZM1799.4 84H1803.18V80.085H1799.45C1797.38 80.085 1796.52 79.185 1796.52 77.07V64.38H1803.45V60.51H1796.52V53.805H1792.34V60.51H1787.79V64.38H1792.07V77.115C1792.07 81.975 1794.99 84 1799.4 84ZM1820.54 84.585C1827.69 84.585 1832.91 79.275 1832.91 72.255C1832.91 65.235 1827.74 59.925 1820.58 59.925C1813.47 59.925 1808.25 65.19 1808.25 72.255C1808.25 79.32 1813.43 84.585 1820.54 84.585ZM1820.54 80.4C1816.04 80.4 1812.8 77.025 1812.8 72.255C1812.8 67.62 1815.99 64.065 1820.54 64.065C1825.13 64.065 1828.37 67.575 1828.37 72.255C1828.37 76.98 1825.13 80.4 1820.54 80.4ZM3.69 129H8.145V114.96C8.145 111.45 10.62 109.11 13.5 109.11C16.425 109.11 18.675 111.09 18.675 114.42V129H23.13V115.095C23.13 111.225 25.605 109.11 28.53 109.11C31.545 109.11 33.57 111.135 33.57 115.05V129H38.025V113.565C38.025 108.615 34.605 104.925 29.475 104.925C26.235 104.925 23.76 106.32 22.32 108.975H21.96C20.7 106.545 18.315 104.925 14.94 104.925C11.655 104.925 9.54 106.635 8.505 108.525H8.145V105.51H3.69V129ZM44.0664 139.35H47.0364C50.6364 139.35 53.1114 137.955 54.3264 134.805L65.5314 105.51H60.6264L53.9664 124.725H53.6064L47.4414 105.51H42.5814L50.9514 129H52.0764L50.5914 132.825C49.9164 134.49 48.9714 135.3 47.0814 135.3H44.0664V139.35ZM83.4201 129H87.8751V114.96C87.8751 111.45 90.3501 109.11 93.2301 109.11C96.1551 109.11 98.4051 111.09 98.4051 114.42V129H102.86V115.095C102.86 111.225 105.335 109.11 108.26 109.11C111.275 109.11 113.3 111.135 113.3 115.05V129H117.755V113.565C117.755 108.615 114.335 104.925 109.205 104.925C105.965 104.925 103.49 106.32 102.05 108.975H101.69C100.43 106.545 98.0451 104.925 94.6701 104.925C91.3851 104.925 89.2701 106.635 88.2351 108.525H87.8751V105.51H83.4201V129ZM134.861 129.585C139.541 129.585 141.521 126.885 142.331 125.76H142.646C142.646 127.785 144.131 129 146.066 129H149.261V124.95H148.181C147.461 124.95 147.011 124.59 147.011 123.87V105.51H142.556V108.885H142.196C141.296 107.625 139.136 104.925 134.591 104.925C128.111 104.925 123.566 110.19 123.566 117.255C123.566 124.41 128.336 129.585 134.861 129.585ZM135.401 125.49C131.306 125.49 128.066 122.25 128.066 117.3C128.066 112.485 131.171 109.065 135.356 109.065C139.361 109.065 142.691 112.08 142.691 117.3C142.691 121.755 139.856 125.49 135.401 125.49ZM160.923 101.595C162.678 101.595 163.938 100.29 163.938 98.58C163.938 96.96 162.678 95.655 160.923 95.655C159.213 95.655 157.953 96.96 157.953 98.58C157.953 100.29 159.213 101.595 160.923 101.595ZM158.673 129H163.128V105.51H154.398V109.38H158.673V129ZM170.595 129H184.185V125.13H179.64V95.25H170.595V99.165H175.185V125.13H170.595V129ZM202.302 129.585C208.782 129.585 213.642 124.41 213.642 117.255C213.642 110.19 209.052 104.925 202.617 104.925C198.072 104.925 195.822 107.625 194.967 108.885H194.607V95.25H190.152V129H194.517V125.76H194.877C195.642 126.795 197.712 129.585 202.302 129.585ZM201.717 125.49C197.307 125.49 194.517 121.755 194.517 117.3C194.517 112.08 197.802 109.065 201.807 109.065C205.992 109.065 209.097 112.485 209.097 117.3C209.097 122.25 205.857 125.49 201.717 125.49ZM230.542 129.585C237.697 129.585 242.917 124.275 242.917 117.255C242.917 110.235 237.742 104.925 230.587 104.925C223.477 104.925 218.257 110.19 218.257 117.255C218.257 124.32 223.432 129.585 230.542 129.585ZM230.542 125.4C226.042 125.4 222.802 122.025 222.802 117.255C222.802 112.62 225.997 109.065 230.542 109.065C235.132 109.065 238.372 112.575 238.372 117.255C238.372 121.98 235.132 125.4 230.542 125.4ZM245.8 129H250.885L256.555 119.955H257.005L262.72 129H267.895L259.795 116.94L267.265 105.51H262.18L257.005 113.835H256.645L251.515 105.51H246.43L253.9 116.76L245.8 129ZM275.434 129.585C277.054 129.585 278.359 128.28 278.359 126.705C278.359 125.085 277.054 123.78 275.434 123.78C273.814 123.78 272.464 125.085 272.464 126.705C272.464 128.28 273.814 129.585 275.434 129.585Z" fill="black"/>
<path d="M273 39H579.5" stroke="black" stroke-width="3" stroke-linecap="round"/>
</svg>
