<svg width="1886" height="136" viewBox="0 0 1886 136" fill="none" xmlns="http://www.w3.org/2000/svg">
<path d="M4.14 61H23.13V56.77H8.73V47.05H20.745V42.865H8.73V33.73H22.68V29.5H4.14V61ZM29.505 61H33.96V46.96C33.96 43.45 36.435 41.11 39.315 41.11C42.24 41.11 44.49 43.09 44.49 46.42V61H48.945V47.095C48.945 43.225 51.42 41.11 54.345 41.11C57.36 41.11 59.385 43.135 59.385 47.05V61H63.84V45.565C63.84 40.615 60.42 36.925 55.29 36.925C52.05 36.925 49.575 38.32 48.135 40.975H47.775C46.515 38.545 44.13 36.925 40.755 36.925C37.47 36.925 35.355 38.635 34.32 40.525H33.96V37.51H29.505V61ZM80.9461 61.585C85.6261 61.585 87.6061 58.885 88.4161 57.76H88.7311C88.7311 59.785 90.2161 61 92.1511 61H95.3461V56.95H94.2661C93.5461 56.95 93.0961 56.59 93.0961 55.87V37.51H88.6411V40.885H88.2811C87.3811 39.625 85.2211 36.925 80.6761 36.925C74.1961 36.925 69.6511 42.19 69.6511 49.255C69.6511 56.41 74.4211 61.585 80.9461 61.585ZM81.4861 57.49C77.3911 57.49 74.1511 54.25 74.1511 49.3C74.1511 44.485 77.2561 41.065 81.4411 41.065C85.4461 41.065 88.7761 44.08 88.7761 49.3C88.7761 53.755 85.9411 57.49 81.4861 57.49ZM107.008 33.595C108.763 33.595 110.023 32.29 110.023 30.58C110.023 28.96 108.763 27.655 107.008 27.655C105.298 27.655 104.038 28.96 104.038 30.58C104.038 32.29 105.298 33.595 107.008 33.595ZM104.758 61H109.213V37.51H100.483V41.38H104.758V61ZM116.679 61H130.269V57.13H125.724V27.25H116.679V31.165H121.269V57.13H116.679V61ZM148.912 61H153.367V46.96C153.367 43.45 155.842 41.11 158.722 41.11C161.647 41.11 163.897 43.09 163.897 46.42V61H168.352V47.095C168.352 43.225 170.827 41.11 173.752 41.11C176.767 41.11 178.792 43.135 178.792 47.05V61H183.247V45.565C183.247 40.615 179.827 36.925 174.697 36.925C171.457 36.925 168.982 38.32 167.542 40.975H167.182C165.922 38.545 163.537 36.925 160.162 36.925C156.877 36.925 154.762 38.635 153.727 40.525H153.367V37.51H148.912V61ZM200.848 61.585C205.978 61.585 210.073 58.84 211.513 54.205L207.328 53.17C206.518 56.095 203.773 57.715 200.848 57.715C196.483 57.715 193.693 55.015 193.648 50.425H211.963V49.03C211.963 42.01 207.778 36.925 200.623 36.925C194.323 36.925 189.058 41.875 189.058 49.3C189.058 56.5 193.693 61.585 200.848 61.585ZM193.693 47.05C194.008 43.45 197.023 40.84 200.623 40.84C204.178 40.84 207.193 43.045 207.418 47.05H193.693ZM240.513 61.585C245.193 61.585 247.173 58.885 247.983 57.76H248.298C248.298 59.785 249.783 61 251.718 61H254.913V56.95H253.833C253.113 56.95 252.663 56.59 252.663 55.87V37.51H248.208V40.885H247.848C246.948 39.625 244.788 36.925 240.243 36.925C233.763 36.925 229.218 42.19 229.218 49.255C229.218 56.41 233.988 61.585 240.513 61.585ZM241.053 57.49C236.958 57.49 233.718 54.25 233.718 49.3C233.718 44.485 236.823 41.065 241.008 41.065C245.013 41.065 248.343 44.08 248.343 49.3C248.343 53.755 245.508 57.49 241.053 57.49ZM270.985 61H274.765V57.085H271.03C268.96 57.085 268.105 56.185 268.105 54.07V41.38H275.035V37.51H268.105V30.805H263.92V37.51H259.375V41.38H263.65V54.115C263.65 58.975 266.575 61 270.985 61ZM821.742 61.585C827.367 61.585 831.057 58.525 831.057 53.98C831.057 44.395 817.467 48.94 817.467 43.81C817.467 42.1 819.087 40.885 821.652 40.885C824.307 40.885 826.197 42.19 826.602 44.575L830.517 43.45C829.797 39.22 826.062 36.925 821.787 36.925C816.657 36.925 813.192 39.76 813.192 43.765C813.192 53.17 826.557 48.67 826.557 54.34C826.557 56.32 824.937 57.625 821.922 57.625C818.907 57.625 816.972 56.23 816.567 53.44L812.427 54.385C813.012 58.93 816.567 61.585 821.742 61.585ZM848.368 61.585C855.523 61.585 860.743 56.275 860.743 49.255C860.743 42.235 855.568 36.925 848.413 36.925C841.303 36.925 836.083 42.19 836.083 49.255C836.083 56.32 841.258 61.585 848.368 61.585ZM848.368 57.4C843.868 57.4 840.628 54.025 840.628 49.255C840.628 44.62 843.823 41.065 848.368 41.065C852.958 41.065 856.198 44.575 856.198 49.255C856.198 53.98 852.958 57.4 848.368 57.4ZM879.666 61H893.391V56.905H888.801V33.595H893.391V29.5H879.666V33.595H884.256V56.905H879.666V61ZM924.422 61.585C929.777 61.585 934.367 58.525 935.672 53.035L931.352 52.045C930.722 55.33 927.977 57.4 924.557 57.4C920.102 57.4 916.907 53.98 916.907 49.255C916.907 44.665 919.967 41.065 924.512 41.065C927.932 41.065 930.677 43.225 931.307 46.51L935.582 45.475C934.277 39.985 929.732 36.925 924.377 36.925C917.357 36.925 912.317 42.325 912.317 49.255C912.317 56.14 917.222 61.585 924.422 61.585ZM951.58 61.585C956.26 61.585 958.24 58.885 959.05 57.76H959.365C959.365 59.785 960.85 61 962.785 61H965.98V56.95H964.9C964.18 56.95 963.73 56.59 963.73 55.87V37.51H959.275V40.885H958.915C958.015 39.625 955.855 36.925 951.31 36.925C944.83 36.925 940.285 42.19 940.285 49.255C940.285 56.41 945.055 61.585 951.58 61.585ZM952.12 57.49C948.025 57.49 944.785 54.25 944.785 49.3C944.785 44.485 947.89 41.065 952.075 41.065C956.08 41.065 959.41 44.08 959.41 49.3C959.41 53.755 956.575 57.49 952.12 57.49ZM972.467 61H976.922V47.095C976.922 43.675 979.487 41.11 982.772 41.11C985.742 41.11 988.172 43.36 988.172 46.69V61H992.627V45.925C992.627 40.885 989.342 36.925 984.032 36.925C980.612 36.925 978.272 38.59 977.282 40.57H976.922V37.51H972.467V61ZM1012.76 61H1017.21V48.94C1017.21 44.485 1019.15 41.38 1023.2 41.38H1025.45V36.925H1023.78C1020.59 36.925 1018.29 39.22 1017.48 41.2H1017.17V37.51H1012.76V61ZM1040.53 61.585C1045.66 61.585 1049.75 58.84 1051.19 54.205L1047.01 53.17C1046.2 56.095 1043.45 57.715 1040.53 57.715C1036.16 57.715 1033.37 55.015 1033.33 50.425H1051.64V49.03C1051.64 42.01 1047.46 36.925 1040.3 36.925C1034 36.925 1028.74 41.875 1028.74 49.3C1028.74 56.5 1033.37 61.585 1040.53 61.585ZM1033.37 47.05C1033.69 43.45 1036.7 40.84 1040.3 40.84C1043.86 40.84 1046.87 43.045 1047.1 47.05H1033.37ZM1068.33 61.585C1073.68 61.585 1078.27 58.525 1079.58 53.035L1075.26 52.045C1074.63 55.33 1071.88 57.4 1068.46 57.4C1064.01 57.4 1060.81 53.98 1060.81 49.255C1060.81 44.665 1063.87 41.065 1068.42 41.065C1071.84 41.065 1074.58 43.225 1075.21 46.51L1079.49 45.475C1078.18 39.985 1073.64 36.925 1068.28 36.925C1061.26 36.925 1056.22 42.325 1056.22 49.255C1056.22 56.14 1061.13 61.585 1068.33 61.585ZM1095.98 61.585C1101.11 61.585 1105.2 58.84 1106.64 54.205L1102.46 53.17C1101.65 56.095 1098.9 57.715 1095.98 57.715C1091.61 57.715 1088.82 55.015 1088.78 50.425H1107.09V49.03C1107.09 42.01 1102.91 36.925 1095.75 36.925C1089.45 36.925 1084.19 41.875 1084.19 49.3C1084.19 56.5 1088.82 61.585 1095.98 61.585ZM1088.82 47.05C1089.14 43.45 1092.15 40.84 1095.75 40.84C1099.31 40.84 1102.32 43.045 1102.55 47.05H1088.82ZM1118.51 33.595C1120.27 33.595 1121.53 32.29 1121.53 30.58C1121.53 28.96 1120.27 27.655 1118.51 27.655C1116.8 27.655 1115.54 28.96 1115.54 30.58C1115.54 32.29 1116.8 33.595 1118.51 33.595ZM1116.26 61H1120.72V37.51H1111.99V41.38H1116.26V61ZM1135.02 61H1141.01L1149.38 37.51H1144.52L1138.13 56.815H1137.77L1131.33 37.51H1126.61L1135.02 61ZM1164.02 61.585C1169.15 61.585 1173.24 58.84 1174.68 54.205L1170.5 53.17C1169.69 56.095 1166.94 57.715 1164.02 57.715C1159.65 57.715 1156.86 55.015 1156.82 50.425H1175.13V49.03C1175.13 42.01 1170.95 36.925 1163.79 36.925C1157.49 36.925 1152.23 41.875 1152.23 49.3C1152.23 56.5 1156.86 61.585 1164.02 61.585ZM1156.86 47.05C1157.18 43.45 1160.19 40.84 1163.79 40.84C1167.35 40.84 1170.36 43.045 1170.59 47.05H1156.86ZM1194.05 61H1198.51V47.095C1198.51 43.675 1201.07 41.11 1204.36 41.11C1207.33 41.11 1209.76 43.36 1209.76 46.69V61H1214.21V45.925C1214.21 40.885 1210.93 36.925 1205.62 36.925C1202.2 36.925 1199.86 38.59 1198.87 40.57H1198.51V37.51H1194.05V61ZM1231.8 61.585C1236.93 61.585 1241.02 58.84 1242.46 54.205L1238.28 53.17C1237.47 56.095 1234.72 57.715 1231.8 57.715C1227.43 57.715 1224.64 55.015 1224.6 50.425H1242.91V49.03C1242.91 42.01 1238.73 36.925 1231.57 36.925C1225.27 36.925 1220.01 41.875 1220.01 49.3C1220.01 56.5 1224.64 61.585 1231.8 61.585ZM1224.64 47.05C1224.96 43.45 1227.97 40.84 1231.57 40.84C1235.13 40.84 1238.14 43.045 1238.37 47.05H1224.64ZM1252.5 61H1258.67L1263.71 41.74H1263.98L1269.06 61H1275.18L1281.93 37.51H1277.16L1272.17 56.815H1271.85L1266.77 37.51H1260.96L1255.83 56.815H1255.52L1250.57 37.51H1245.75L1252.5 61ZM1295.06 61.585C1300.69 61.585 1304.38 58.525 1304.38 53.98C1304.38 44.395 1290.79 48.94 1290.79 43.81C1290.79 42.1 1292.41 40.885 1294.97 40.885C1297.63 40.885 1299.52 42.19 1299.92 44.575L1303.84 43.45C1303.12 39.22 1299.38 36.925 1295.11 36.925C1289.98 36.925 1286.51 39.76 1286.51 43.765C1286.51 53.17 1299.88 48.67 1299.88 54.34C1299.88 56.32 1298.26 57.625 1295.24 57.625C1292.23 57.625 1290.29 56.23 1289.89 53.44L1285.75 54.385C1286.33 58.93 1289.89 61.585 1295.06 61.585ZM1327.79 61H1333.96L1339 41.74H1339.27L1344.35 61H1350.47L1357.22 37.51H1352.45L1347.46 56.815H1347.14L1342.06 37.51H1336.25L1331.12 56.815H1330.81L1325.86 37.51H1321.04L1327.79 61ZM1362.48 61H1366.93V46.87C1366.93 43.54 1369.63 41.11 1372.83 41.11C1375.84 41.11 1378.36 43.36 1378.36 46.69V61H1382.82V45.925C1382.82 40.885 1379.4 36.925 1374.09 36.925C1370.71 36.925 1368.28 38.635 1367.29 40.57H1366.93V27.25H1362.48V61ZM1395.49 33.595C1397.25 33.595 1398.51 32.29 1398.51 30.58C1398.51 28.96 1397.25 27.655 1395.49 27.655C1393.78 27.655 1392.52 28.96 1392.52 30.58C1392.52 32.29 1393.78 33.595 1395.49 33.595ZM1393.24 61H1397.7V37.51H1388.97V41.38H1393.24V61ZM1405.16 61H1418.75V57.13H1414.21V27.25H1405.16V31.165H1409.75V57.13H1405.16V61ZM1433.97 61.585C1439.1 61.585 1443.19 58.84 1444.63 54.205L1440.45 53.17C1439.64 56.095 1436.89 57.715 1433.97 57.715C1429.6 57.715 1426.81 55.015 1426.77 50.425H1445.08V49.03C1445.08 42.01 1440.9 36.925 1433.74 36.925C1427.44 36.925 1422.18 41.875 1422.18 49.3C1422.18 56.5 1426.81 61.585 1433.97 61.585ZM1426.81 47.05C1427.13 43.45 1430.14 40.84 1433.74 40.84C1437.3 40.84 1440.31 43.045 1440.54 47.05H1426.81ZM1473.63 61.585C1478.31 61.585 1480.29 58.885 1481.1 57.76H1481.42C1481.42 59.785 1482.9 61 1484.84 61H1488.03V56.95H1486.95C1486.23 56.95 1485.78 56.59 1485.78 55.87V37.51H1481.33V40.885H1480.97C1480.07 39.625 1477.91 36.925 1473.36 36.925C1466.88 36.925 1462.34 42.19 1462.34 49.255C1462.34 56.41 1467.11 61.585 1473.63 61.585ZM1474.17 57.49C1470.08 57.49 1466.84 54.25 1466.84 49.3C1466.84 44.485 1469.94 41.065 1474.13 41.065C1478.13 41.065 1481.46 44.08 1481.46 49.3C1481.46 53.755 1478.63 57.49 1474.17 57.49ZM1493.39 61H1506.98V57.13H1502.44V27.25H1493.39V31.165H1497.98V57.13H1493.39V61ZM1520.82 61.585C1526.45 61.585 1530.14 58.525 1530.14 53.98C1530.14 44.395 1516.55 48.94 1516.55 43.81C1516.55 42.1 1518.17 40.885 1520.73 40.885C1523.39 40.885 1525.28 42.19 1525.68 44.575L1529.6 43.45C1528.88 39.22 1525.14 36.925 1520.87 36.925C1515.74 36.925 1512.27 39.76 1512.27 43.765C1512.27 53.17 1525.64 48.67 1525.64 54.34C1525.64 56.32 1524.02 57.625 1521 57.625C1517.99 57.625 1516.05 56.23 1515.65 53.44L1511.51 54.385C1512.09 58.93 1515.65 61.585 1520.82 61.585ZM1547.45 61.585C1554.61 61.585 1559.83 56.275 1559.83 49.255C1559.83 42.235 1554.65 36.925 1547.5 36.925C1540.39 36.925 1535.17 42.19 1535.17 49.255C1535.17 56.32 1540.34 61.585 1547.45 61.585ZM1547.45 57.4C1542.95 57.4 1539.71 54.025 1539.71 49.255C1539.71 44.62 1542.91 41.065 1547.45 41.065C1552.04 41.065 1555.28 44.575 1555.28 49.255C1555.28 53.98 1552.04 57.4 1547.45 57.4ZM1578.75 61H1583.2V46.87C1583.2 43.54 1585.9 41.11 1589.1 41.11C1592.11 41.11 1594.63 43.36 1594.63 46.69V61H1599.09V45.925C1599.09 40.885 1595.67 36.925 1590.36 36.925C1586.98 36.925 1584.55 38.635 1583.56 40.57H1583.2V27.25H1578.75V61ZM1616.71 61.585C1621.84 61.585 1625.94 58.84 1627.38 54.205L1623.19 53.17C1622.38 56.095 1619.64 57.715 1616.71 57.715C1612.35 57.715 1609.56 55.015 1609.51 50.425H1627.83V49.03C1627.83 42.01 1623.64 36.925 1616.49 36.925C1610.19 36.925 1604.92 41.875 1604.92 49.3C1604.92 56.5 1609.56 61.585 1616.71 61.585ZM1609.56 47.05C1609.87 43.45 1612.89 40.84 1616.49 40.84C1620.04 40.84 1623.06 43.045 1623.28 47.05H1609.56ZM1632.95 61H1646.54V57.13H1641.99V27.25H1632.95V31.165H1637.54V57.13H1632.95V61ZM1652.5 71.35H1656.96V57.625H1657.32C1658.17 59.065 1660.42 61.585 1664.97 61.585C1671.4 61.585 1675.99 56.365 1675.99 49.21C1675.99 42.1 1671.13 36.925 1664.65 36.925C1660.06 36.925 1657.99 39.715 1657.23 40.75H1656.87V37.51H1652.5V71.35ZM1664.16 57.445C1660.15 57.445 1656.87 54.43 1656.87 49.21C1656.87 44.8 1659.66 41.065 1664.07 41.065C1668.21 41.065 1671.4 44.26 1671.4 49.21C1671.4 54.07 1668.34 57.445 1664.16 57.445ZM1687.45 33.595C1689.2 33.595 1690.46 32.29 1690.46 30.58C1690.46 28.96 1689.2 27.655 1687.45 27.655C1685.74 27.655 1684.48 28.96 1684.48 30.58C1684.48 32.29 1685.74 33.595 1687.45 33.595ZM1685.2 61H1689.65V37.51H1680.92V41.38H1685.2V61ZM1698.24 61H1702.7V47.095C1702.7 43.675 1705.26 41.11 1708.55 41.11C1711.52 41.11 1713.95 43.36 1713.95 46.69V61H1718.4V45.925C1718.4 40.885 1715.12 36.925 1709.81 36.925C1706.39 36.925 1704.05 38.59 1703.06 40.57H1702.7V37.51H1698.24V61ZM1729.91 71.35H1740.31C1744.72 71.35 1747.64 69.325 1747.64 64.465V37.51H1743.28V40.75H1742.96C1742.15 39.715 1740.08 36.925 1735.49 36.925C1729.01 36.925 1724.2 42.1 1724.2 49.21C1724.2 56.365 1728.74 61.585 1735.22 61.585C1739.77 61.585 1741.97 59.065 1742.83 57.625H1743.19V64.42C1743.19 66.535 1742.33 67.48 1740.26 67.48H1729.91V71.35ZM1735.99 57.445C1731.8 57.445 1728.74 54.07 1728.74 49.21C1728.74 44.26 1731.98 41.065 1736.03 41.065C1740.49 41.065 1743.32 44.8 1743.32 49.21C1743.32 54.43 1739.99 57.445 1735.99 57.445ZM1778.62 61.585C1785.77 61.585 1790.99 56.275 1790.99 49.255C1790.99 42.235 1785.82 36.925 1778.66 36.925C1771.55 36.925 1766.33 42.19 1766.33 49.255C1766.33 56.32 1771.51 61.585 1778.62 61.585ZM1778.62 57.4C1774.12 57.4 1770.88 54.025 1770.88 49.255C1770.88 44.62 1774.07 41.065 1778.62 41.065C1783.21 41.065 1786.45 44.575 1786.45 49.255C1786.45 53.98 1783.21 57.4 1778.62 57.4ZM1805.61 61.585C1809.03 61.585 1811.37 59.92 1812.36 57.94H1812.72V61H1817.18V37.51H1812.72V51.415C1812.72 54.835 1810.16 57.355 1806.87 57.355C1803.9 57.355 1801.47 55.15 1801.47 51.82V37.51H1797.02V52.585C1797.02 57.625 1800.3 61.585 1805.61 61.585ZM1834.44 61H1838.22V57.085H1834.49C1832.42 57.085 1831.56 56.185 1831.56 54.07V41.38H1838.49V37.51H1831.56V30.805H1827.38V37.51H1822.83V41.38H1827.11V54.115C1827.11 58.975 1830.03 61 1834.44 61ZM14.31 106.585C21.465 106.585 26.685 101.275 26.685 94.255C26.685 87.235 21.51 81.925 14.355 81.925C7.245 81.925 2.025 87.19 2.025 94.255C2.025 101.32 7.2 106.585 14.31 106.585ZM14.31 102.4C9.81 102.4 6.57 99.025 6.57 94.255C6.57 89.62 9.765 86.065 14.31 86.065C18.9 86.065 22.14 89.575 22.14 94.255C22.14 98.98 18.9 102.4 14.31 102.4ZM41.3027 106.585C44.7227 106.585 47.0627 104.92 48.0527 102.94H48.4127V106H52.8677V82.51H48.4127V96.415C48.4127 99.835 45.8477 102.355 42.5627 102.355C39.5927 102.355 37.1627 100.15 37.1627 96.82V82.51H32.7077V97.585C32.7077 102.625 35.9927 106.585 41.3027 106.585ZM60.5495 106H65.0045V93.94C65.0045 89.485 66.9395 86.38 70.9895 86.38H73.2395V81.925H71.5745C68.3795 81.925 66.0845 84.22 65.2745 86.2H64.9595V82.51H60.5495V106ZM101.958 106.585C107.088 106.585 111.183 103.84 112.623 99.205L108.438 98.17C107.628 101.095 104.883 102.715 101.958 102.715C97.5927 102.715 94.8027 100.015 94.7577 95.425H113.073V94.03C113.073 87.01 108.888 81.925 101.733 81.925C95.4327 81.925 90.1677 86.875 90.1677 94.3C90.1677 101.5 94.8027 106.585 101.958 106.585ZM94.8027 92.05C95.1177 88.45 98.1327 85.84 101.733 85.84C105.288 85.84 108.303 88.045 108.528 92.05H94.8027ZM119.318 106H123.773V92.095C123.773 88.675 126.338 86.11 129.623 86.11C132.593 86.11 135.023 88.36 135.023 91.69V106H139.478V90.925C139.478 85.885 136.193 81.925 130.883 81.925C127.463 81.925 125.123 83.59 124.133 85.57H123.773V82.51H119.318V106ZM152.166 106H158.151L166.521 82.51H161.661L155.271 101.815H154.911L148.476 82.51H143.751L152.166 106ZM176.914 78.595C178.669 78.595 179.929 77.29 179.929 75.58C179.929 73.96 178.669 72.655 176.914 72.655C175.204 72.655 173.944 73.96 173.944 75.58C173.944 77.29 175.204 78.595 176.914 78.595ZM174.664 106H179.119V82.51H170.389V86.38H174.664V106ZM187.71 106H192.165V93.94C192.165 89.485 194.1 86.38 198.15 86.38H200.4V81.925H198.735C195.54 81.925 193.245 84.22 192.435 86.2H192.12V82.51H187.71V106ZM215.971 106.585C223.126 106.585 228.346 101.275 228.346 94.255C228.346 87.235 223.171 81.925 216.016 81.925C208.906 81.925 203.686 87.19 203.686 94.255C203.686 101.32 208.861 106.585 215.971 106.585ZM215.971 102.4C211.471 102.4 208.231 99.025 208.231 94.255C208.231 89.62 211.426 86.065 215.971 86.065C220.561 86.065 223.801 89.575 223.801 94.255C223.801 98.98 220.561 102.4 215.971 102.4ZM234.594 106H239.049V92.095C239.049 88.675 241.614 86.11 244.899 86.11C247.869 86.11 250.299 88.36 250.299 91.69V106H254.754V90.925C254.754 85.885 251.469 81.925 246.159 81.925C242.739 81.925 240.399 83.59 239.409 85.57H239.049V82.51H234.594V106ZM262.21 106H266.665V91.96C266.665 88.45 269.14 86.11 272.02 86.11C274.945 86.11 277.195 88.09 277.195 91.42V106H281.65V92.095C281.65 88.225 284.125 86.11 287.05 86.11C290.065 86.11 292.09 88.135 292.09 92.05V106H296.545V90.565C296.545 85.615 293.125 81.925 287.995 81.925C284.755 81.925 282.28 83.32 280.84 85.975H280.48C279.22 83.545 276.835 81.925 273.46 81.925C270.175 81.925 268.06 83.635 267.025 85.525H266.665V82.51H262.21V106ZM314.147 106.585C319.277 106.585 323.372 103.84 324.812 99.205L320.627 98.17C319.817 101.095 317.072 102.715 314.147 102.715C309.782 102.715 306.992 100.015 306.947 95.425H325.262V94.03C325.262 87.01 321.077 81.925 313.922 81.925C307.622 81.925 302.357 86.875 302.357 94.3C302.357 101.5 306.992 106.585 314.147 106.585ZM306.992 92.05C307.307 88.45 310.322 85.84 313.922 85.84C317.477 85.84 320.492 88.045 320.717 92.05H306.992ZM331.506 106H335.961V92.095C335.961 88.675 338.526 86.11 341.811 86.11C344.781 86.11 347.211 88.36 347.211 91.69V106H351.666V90.925C351.666 85.885 348.381 81.925 343.071 81.925C339.651 81.925 337.311 83.59 336.321 85.57H335.961V82.51H331.506V106ZM368.708 106H372.488V102.085H368.753C366.683 102.085 365.828 101.185 365.828 99.07V86.38H372.758V82.51H365.828V75.805H361.643V82.51H357.098V86.38H361.373V99.115C361.373 103.975 364.298 106 368.708 106ZM381.745 89.845C383.365 89.845 384.67 88.54 384.67 86.92C384.67 85.345 383.365 84.04 381.745 84.04C380.125 84.04 378.775 85.345 378.775 86.92C378.775 88.54 380.125 89.845 381.745 89.845ZM381.745 106.585C383.365 106.585 384.67 105.28 384.67 103.705C384.67 102.085 383.365 100.78 381.745 100.78C380.125 100.78 378.775 102.085 378.775 103.705C378.775 105.28 380.125 106.585 381.745 106.585ZM393.649 112.435H394.639C398.869 112.435 401.704 110.23 401.704 105.505V78.595C401.704 73.87 398.869 71.665 394.639 71.665H393.649V75.715H394.324C396.574 75.715 397.249 76.795 397.249 78.64V105.46C397.249 107.305 396.574 108.385 394.324 108.385H393.649V112.435Z" fill="black"/>
<path d="M293 59H800" stroke="black" stroke-width="3" stroke-linecap="round"/>
</svg>
