<svg width="107" height="107" viewBox="0 0 107 107" fill="none" xmlns="http://www.w3.org/2000/svg">
<path d="M102.781 96.4835L82.5578 61.4547C81.4894 59.6036 79.5728 58.4981 77.4353 58.4981C75.2971 58.4981 73.3829 59.6036 72.3129 61.4547L68.1828 68.6119L49.7829 36.7404C48.5335 34.5795 46.4737 33.1367 44.092 32.6928V26.7503H65.2884C65.8384 26.7503 66.3479 26.4665 66.6366 25.9966C66.9229 25.5267 66.9463 24.9436 66.6956 24.4528L62.0075 15.2714L66.6956 6.09248C66.9463 5.6024 66.9229 5.01851 66.6366 4.54865C66.3479 4.07959 65.8384 3.7925 65.2884 3.7925H44.092V2.57942C44.092 1.7052 43.386 1 42.5118 1C41.64 1 40.9323 1.7052 40.9323 2.57942V32.6928C38.5523 33.1367 36.4901 34.5795 35.2414 36.7404L11.525 77.8207C11.0891 78.5769 11.3479 79.5409 12.104 79.9768C12.3531 80.1223 12.6249 80.1903 12.8917 80.1903C13.4376 80.1903 13.9681 79.908 14.2609 79.4001L24.8025 61.1434C25.9274 62.2214 27.5432 62.5756 29.0402 62.0346L33.7631 60.3322L36.0566 63.4013C37.5915 65.4587 39.9465 66.6362 42.5118 66.6362C45.0794 66.6362 47.4344 65.4587 48.9694 63.4013L51.2637 60.3322L55.9858 62.0346C57.4827 62.5756 59.0961 62.2214 60.2234 61.1434L66.3584 71.7715L52.0886 96.4835C50.8229 98.6783 50.8229 101.3 52.0886 103.495C52.1581 103.613 52.2301 103.727 52.3037 103.839H12.2035C9.68842 103.839 7.43452 102.539 6.17778 100.359C4.92023 98.181 4.92023 95.5801 6.17778 93.3998L10.853 85.3038C11.2889 84.5476 11.0301 83.5812 10.2764 83.1445C9.5202 82.7086 8.55298 82.9682 8.11708 83.7243L3.44109 91.8204C1.61339 94.9881 1.61339 98.7713 3.44109 101.939C5.26959 105.108 8.54489 106.998 12.2035 106.998L84.455 107C85.3276 107 86.0352 106.292 86.0352 105.421C86.0352 104.546 85.3276 103.84 84.455 103.84L58.1507 103.839C56.763 103.836 55.52 103.118 54.8253 101.916C54.1298 100.709 54.1298 99.2703 54.8253 98.0637L66.3462 78.1135C67.1485 78.5955 68.1343 78.703 69.0627 78.3698L71.6644 77.4309L73.8252 80.3229C74.6849 81.4729 76.0007 82.132 77.4353 82.132C78.8716 82.132 80.1858 81.4729 81.0455 80.3229L83.2063 77.4309L85.8096 78.3698C86.7364 78.703 87.7222 78.5955 88.5269 78.1135L100.045 98.0637C100.743 99.2703 100.743 100.709 100.045 101.916C99.3507 103.121 98.1037 103.84 96.7111 103.84H90.7743C89.9017 103.84 89.1941 104.546 89.1941 105.421C89.1941 106.292 89.9017 107 90.7743 107H96.7111C99.2456 107 101.516 105.69 102.781 103.495C104.049 101.3 104.049 98.6783 102.781 96.4835ZM44.0912 6.95215H62.7086L58.8268 14.5533C58.5971 15.0061 58.5971 15.5391 58.8268 15.992L62.7086 23.5915H44.0912V6.95215ZM58.1232 58.7738C57.9922 58.9299 57.6283 59.2688 57.0549 59.0626L51.2338 56.9648C50.5803 56.7286 49.8501 56.9478 49.4328 57.5034L46.4397 61.5097C45.5048 62.7608 44.0726 63.4773 42.5118 63.4773C40.9509 63.4773 39.5211 62.7608 38.5854 61.5097L35.5924 57.5034C35.1759 56.9478 34.4448 56.7286 33.7922 56.9648L27.9686 59.0626C27.3952 59.2688 27.0313 58.9299 26.9027 58.7738C26.7717 58.6178 26.5024 58.1989 26.8057 57.6724L37.9773 38.3222C38.9186 36.6919 40.6016 35.7149 42.4802 35.7044C42.4907 35.7044 42.5013 35.706 42.5118 35.706C42.5223 35.706 42.5328 35.7044 42.5433 35.7044C44.4244 35.7149 46.1049 36.6919 47.0462 38.3198L58.2219 57.6788C58.5211 58.2029 58.2534 58.6178 58.1232 58.7738ZM86.907 75.4043C86.907 75.4043 86.8981 75.4043 86.8795 75.3962L83.1772 74.0626C82.5238 73.8273 81.7927 74.0456 81.3762 74.602L78.5158 78.4313C78.2586 78.7742 77.8648 78.9723 77.4353 78.9723C77.0075 78.9723 76.6137 78.7742 76.3565 78.4313L73.4945 74.602C73.0796 74.0456 72.3485 73.8273 71.6935 74.0626L67.9912 75.3962C67.9807 75.4002 67.9718 75.4027 67.9701 75.4043C67.9548 75.3962 67.9362 75.3727 67.9337 75.3663C67.9337 75.3663 67.9362 75.3582 67.9443 75.3412L75.0488 63.035C75.5478 62.1729 76.439 61.6569 77.4353 61.6569C78.4317 61.6569 79.3245 62.1729 79.8219 63.035L86.9281 75.3436C86.9321 75.3517 86.9361 75.3606 86.9386 75.3606C86.9321 75.3768 86.9127 75.4002 86.907 75.4043Z" fill="black"/>
</svg>
