<svg width="107" height="107" viewBox="0 0 107 107" fill="none" xmlns="http://www.w3.org/2000/svg">
<g clip-path="url(#clip0)">
<g clip-path="url(#clip1)">
<path d="M92.944 60.556C93.8037 60.556 94.5 59.8597 94.5 59V3.41483C94.5 2.55516 93.8037 1.85886 92.944 1.85886L19.9315 1C14.4986 1 10.0781 5.42044 10.0781 10.8534V97.1466C10.0781 102.58 14.4986 107 19.9315 107L92.944 107.859C93.8037 107.859 94.5 107.163 94.5 106.303V68C94.5 67.1411 93.8037 66.4448 92.944 66.4448C92.0852 66.4448 91.3881 67.1411 91.3881 68V88.1521L26.4659 87.2932V4.11194L91.3881 4.97079V59C91.3881 59.8597 92.0852 60.556 92.944 60.556ZM91.3881 104.747L19.9315 103.888C16.2139 103.888 13.1901 100.864 13.1901 97.1466C13.1901 93.4297 16.2139 90.4052 19.9315 90.4052H64.8411V98.8061C64.8411 100.024 66.2442 100.779 67.26 100.101L71.3755 97.3569L75.4911 100.101C76.5077 100.779 77.91 100.022 77.91 98.8061V90.4052L91.3881 91.264V104.747ZM74.798 90.4052V95.8996L72.2384 94.1924C71.9772 94.0185 71.6764 93.9312 71.3755 93.9312C71.0747 93.9312 70.7739 94.0185 70.5126 94.1924L67.9531 95.8996V90.4052H74.798ZM23.354 87.2932H19.9315C17.325 87.2932 14.9539 88.313 13.1901 89.9709V10.8534C13.1901 7.13573 16.2139 4.11194 19.9315 4.11194H23.354V87.2932Z" fill="black"/>
<path d="M83.6119 19.1508C83.6119 18.2912 82.9148 17.5948 82.056 17.5948C79.2538 17.5948 76.974 15.3151 76.974 12.5129C76.974 11.6532 76.2769 10.9569 75.418 10.9569H41.5048C40.6452 10.9569 39.9489 11.6532 39.9489 12.5129C39.9489 15.3151 37.6691 17.5948 34.8669 17.5948C34.0072 17.5948 33.3109 18.2912 33.3109 19.1508V55.6595C33.3109 56.5183 34.0072 57.2155 34.8669 57.2155C37.6691 57.2155 39.9489 59.4952 39.9489 62.2974C39.9489 63.1563 40.6452 63.8534 41.5048 63.8534H75.418C76.2769 63.8534 76.974 63.1563 76.974 62.2974C76.974 59.4952 79.2538 57.2155 82.056 57.2155C82.9148 57.2155 83.6119 56.5183 83.6119 55.6595V19.1508ZM80.5 54.2515C77.2279 54.8831 74.6417 57.4694 74.0101 60.7415H42.9128C42.2804 57.4694 39.6949 54.8831 36.4229 54.2515V20.558C39.6949 19.9264 42.2804 17.3409 42.9128 14.0688H74.0109C74.6425 17.3409 77.2279 19.9264 80.5008 20.558L80.5 54.2515Z" fill="black"/>
<path d="M80.9441 69.0389H33.2074C32.3477 69.0389 31.6514 69.736 31.6514 70.5948C31.6514 71.4545 32.3477 72.1508 33.2074 72.1508H80.9441C81.8029 72.1508 82.5001 71.4545 82.5001 70.5948C82.5001 69.736 81.8029 69.0389 80.9441 69.0389Z" fill="black"/>
<path d="M33.2074 77.3363C32.3477 77.3363 31.6514 78.0334 31.6514 78.8923C31.6514 79.7519 32.3477 80.4482 33.2074 80.4482H46.4833C47.3421 80.4482 48.0392 79.7519 48.0392 78.8923C48.0392 78.0334 47.3421 77.3363 46.4833 77.3363H33.2074Z" fill="black"/>
<path d="M80.7888 77H57.556C56.6972 77 56.0001 77.6971 56.0001 78.556C56.0001 79.4156 56.6972 80.1119 57.556 80.1119H80.7888C81.6477 80.1119 82.3448 79.4156 82.3448 78.556C82.3448 77.6971 81.6477 77 80.7888 77Z" fill="black"/>
</g>
<path d="M73.7675 34.3162L69.6469 33.4807C66.2045 32.7827 63.5291 30.1073 62.8311 26.6649L61.9956 22.5441C61.6694 20.9354 60.2953 19.8116 58.6535 19.8116C57.0121 19.8116 55.6379 20.9354 55.3116 22.5441L54.4761 26.6647C53.7781 30.1071 51.1027 32.7825 47.6603 33.4805L43.5397 34.316C41.931 34.642 40.8073 36.0163 40.8073 37.6581C40.8073 39.2997 41.931 40.6737 43.5397 41L47.6603 41.8355C51.1027 42.5335 53.7781 45.2089 54.4761 48.6513L55.3116 52.7721C55.6379 54.3808 57.0119 55.5046 58.6535 55.5046C60.2951 55.5046 61.6692 54.3808 61.9956 52.7721L62.8311 48.6515C63.5291 45.2091 66.2045 42.5337 69.6469 41.8357L73.7675 41.0002C75.3763 40.6742 76.5 39.2999 76.5 37.6583C76.5 36.0167 75.3765 34.6422 73.7675 34.3162ZM73.1361 37.8851L69.0156 38.7206C64.3189 39.6727 60.6687 43.3228 59.7164 48.0196L58.8809 52.1403C58.865 52.2187 58.8433 52.3259 58.6537 52.3259C58.4644 52.3259 58.4424 52.2187 58.4268 52.1403L57.5912 48.0196C56.6389 43.3228 52.9888 39.6727 48.292 38.7206L44.1715 37.8851C44.0931 37.8692 43.9859 37.8477 43.9859 37.6579C43.9859 37.4681 44.0931 37.4466 44.1715 37.4307L48.292 36.5954C52.9888 35.6433 56.6389 31.9932 57.5912 27.2964L58.4268 23.1757C58.4426 23.0973 58.4644 22.9901 58.6537 22.9901C58.8431 22.9901 58.865 23.0973 58.8809 23.1757L59.7164 27.2964C60.6687 31.9932 64.3189 35.6433 69.0156 36.5954L73.1361 37.4309C73.2145 37.4468 73.3217 37.4683 73.3217 37.6581C73.3217 37.8479 73.2145 37.8692 73.1361 37.8851Z" fill="black"/>
</g>
<defs>
<clipPath id="clip0">
<rect width="107" height="107" fill="white"/>
</clipPath>
<clipPath id="clip1">
<rect x="-4" y="1" width="106" height="106" fill="white"/>
</clipPath>
</defs>
</svg>
