<svg width="661" height="157" viewBox="0 0 661 157" fill="none" xmlns="http://www.w3.org/2000/svg">
<path d="M34.1875 36H40.2375V21.7H54.3375V16.1H40.2375V6.65H55.3375V0.999998H34.1875V36ZM61.3242 36H77.2742V30.5H72.3242V6.55H77.2742V0.999998H61.3242V6.55H66.2742V30.5H61.3242V36ZM85.2617 36H91.3117V22.75H95.5117L103.012 36H110.312L101.562 21.95C106.312 20.5 108.862 16.55 108.862 11.65C108.862 5.3 104.162 0.999998 96.9117 0.999998H85.2617V36ZM91.3117 17.3V6.6H96.7117C100.712 6.6 102.662 8.9 102.662 11.75C102.662 15.35 100.212 17.3 96.9617 17.3H91.3117ZM126.772 36.65C134.772 36.65 139.422 32 139.422 26.25C139.422 12.1 120.972 18.05 120.972 10.25C120.972 8.1 122.622 5.95 126.622 5.95C130.372 5.95 132.622 8.15 132.622 11.4H138.722C138.722 3.4 132.472 0.349997 126.622 0.349997C119.122 0.349997 114.922 5 114.922 10.25C114.922 24.35 133.222 17.75 133.222 26.35C133.222 29.1 130.772 30.9 127.022 30.9C122.822 30.9 119.922 28.35 119.922 24.7H113.822C113.822 31.85 119.572 36.65 126.772 36.65ZM152.856 36H158.906V6.65H168.606V0.999998H143.156V6.65H152.856V36ZM203.311 36.7C211.211 36.7 217.661 32.15 219.961 24.45H213.511C211.811 28.55 207.761 30.9 203.311 30.9C196.411 30.9 191.661 25.65 191.661 18.5C191.661 11.45 196.411 6.15 203.311 6.15C207.861 6.15 211.811 8.6 213.511 12.6H219.961C217.611 5 211.211 0.349997 203.311 0.349997C192.861 0.349997 185.361 8.25 185.361 18.5C185.361 28.85 192.811 36.7 203.311 36.7ZM226.229 36H232.279V22.75H236.479L243.979 36H251.279L242.529 21.95C247.279 20.5 249.829 16.55 249.829 11.65C249.829 5.3 245.129 0.999998 237.879 0.999998H226.229V36ZM232.279 17.3V6.6H237.679C241.679 6.6 243.629 8.9 243.629 11.75C243.629 15.35 241.179 17.3 237.929 17.3H232.279ZM273.089 36.65C283.389 36.65 291.189 28.75 291.189 18.5C291.189 8.3 283.439 0.349997 273.139 0.349997C262.839 0.349997 255.039 8.2 255.039 18.5C255.039 28.85 262.789 36.65 273.089 36.65ZM273.139 30.85C266.339 30.85 261.339 25.65 261.339 18.5C261.339 11.45 266.339 6.15 273.139 6.15C279.839 6.15 284.889 11.45 284.889 18.5C284.889 25.65 279.839 30.85 273.139 30.85ZM308.413 36.65C316.413 36.65 321.063 32 321.063 26.25C321.063 12.1 302.613 18.05 302.613 10.25C302.613 8.1 304.263 5.95 308.263 5.95C312.013 5.95 314.263 8.15 314.263 11.4H320.363C320.363 3.4 314.113 0.349997 308.263 0.349997C300.763 0.349997 296.563 5 296.563 10.25C296.563 24.35 314.863 17.75 314.863 26.35C314.863 29.1 312.413 30.9 308.663 30.9C304.463 30.9 301.563 28.35 301.563 24.7H295.463C295.463 31.85 301.213 36.65 308.413 36.65ZM338.247 36.65C346.247 36.65 350.897 32 350.897 26.25C350.897 12.1 332.447 18.05 332.447 10.25C332.447 8.1 334.097 5.95 338.097 5.95C341.847 5.95 344.097 8.15 344.097 11.4H350.197C350.197 3.4 343.947 0.349997 338.097 0.349997C330.597 0.349997 326.397 5 326.397 10.25C326.397 24.35 344.697 17.75 344.697 26.35C344.697 29.1 342.247 30.9 338.497 30.9C334.297 30.9 331.397 28.35 331.397 24.7H325.297C325.297 31.85 331.047 36.65 338.247 36.65ZM356.131 23.9H370.081V18.4H356.131V23.9ZM377.352 36H383.402V23.05H389.402C395.902 23.05 400.752 18.55 400.752 11.95C400.752 5.3 396.102 0.999998 389.402 0.999998H377.352V36ZM383.402 17.45V6.6H389.102C392.402 6.6 394.552 8.85 394.552 11.95C394.552 15.1 392.402 17.45 389.102 17.45H383.402ZM406.99 36H427.39V30.4H413.04V0.999998H406.99V36ZM456.5 36H462.9L450.75 0.999998H442.25L430 36H436.25L438.8 28.5H453.95L456.5 36ZM440.65 22.95L446.1 6.95H446.6L452.05 22.95H440.65ZM472.68 36H478.73V6.65H488.43V0.999998H462.98V6.65H472.68V36ZM494.197 36H500.247V21.7H514.347V16.1H500.247V6.65H515.347V0.999998H494.197V36ZM537.884 36.65C548.184 36.65 555.984 28.75 555.984 18.5C555.984 8.3 548.234 0.349997 537.934 0.349997C527.634 0.349997 519.834 8.2 519.834 18.5C519.834 28.85 527.584 36.65 537.884 36.65ZM537.934 30.85C531.134 30.85 526.134 25.65 526.134 18.5C526.134 11.45 531.134 6.15 537.934 6.15C544.634 6.15 549.684 11.45 549.684 18.5C549.684 25.65 544.634 30.85 537.934 30.85ZM562.508 36H568.558V22.75H572.758L580.258 36H587.558L578.808 21.95C583.558 20.5 586.108 16.55 586.108 11.65C586.108 5.3 581.408 0.999998 574.158 0.999998H562.508V36ZM568.558 17.3V6.6H573.958C577.958 6.6 579.908 8.9 579.908 11.75C579.908 15.35 577.458 17.3 574.208 17.3H568.558ZM593.318 36H599.218V6.95H599.668L606.618 36H615.568L622.518 6.95H622.968V36H628.818V0.999998H618.318L611.318 30.1H610.868L603.868 0.999998H593.318V36ZM97.4395 83.9H111.389V78.4H97.4395V83.9ZM142.348 96.65C150.348 96.65 154.998 92 154.998 86.25C154.998 72.1 136.548 78.05 136.548 70.25C136.548 68.1 138.198 65.95 142.198 65.95C145.948 65.95 148.198 68.15 148.198 71.4H154.298C154.298 63.4 148.048 60.35 142.198 60.35C134.698 60.35 130.498 65 130.498 70.25C130.498 84.35 148.798 77.75 148.798 86.35C148.798 89.1 146.348 90.9 142.598 90.9C138.398 90.9 135.498 88.35 135.498 84.7H129.398C129.398 91.85 135.148 96.65 142.348 96.65ZM177.532 96.65C187.832 96.65 195.632 88.75 195.632 78.5C195.632 68.3 187.882 60.35 177.582 60.35C167.282 60.35 159.482 68.2 159.482 78.5C159.482 88.85 167.232 96.65 177.532 96.65ZM177.582 90.85C170.782 90.85 165.782 85.65 165.782 78.5C165.782 71.45 170.782 66.15 177.582 66.15C184.282 66.15 189.332 71.45 189.332 78.5C189.332 85.65 184.282 90.85 177.582 90.85ZM218.106 96.7C226.006 96.7 232.456 92.15 234.756 84.45H228.306C226.606 88.55 222.556 90.9 218.106 90.9C211.206 90.9 206.456 85.65 206.456 78.5C206.456 71.45 211.206 66.15 218.106 66.15C222.656 66.15 226.606 68.6 228.306 72.6H234.756C232.406 65 226.006 60.35 218.106 60.35C207.656 60.35 200.156 68.25 200.156 78.5C200.156 88.85 207.606 96.7 218.106 96.7ZM240.523 96H256.473V90.5H251.523V66.55H256.473V61H240.523V66.55H245.473V90.5H240.523V96ZM287.311 96H293.711L281.561 61H273.061L260.811 96H267.061L269.611 88.5H284.761L287.311 96ZM271.461 82.95L276.911 66.95H277.411L282.861 82.95H271.461ZM298.543 96H318.943V90.4H304.593V61H298.543V96ZM361.041 96H367.441L355.291 61H346.791L334.541 96H340.791L343.341 88.5H358.491L361.041 96ZM345.191 82.95L350.641 66.95H351.141L356.591 82.95H345.191ZM372.273 96H378.323V82.75H382.523L390.023 96H397.323L388.573 81.95C393.323 80.5 395.873 76.55 395.873 71.65C395.873 65.3 391.173 61 383.923 61H372.273V96ZM378.323 77.3V66.6H383.723C387.723 66.6 389.673 68.9 389.673 71.75C389.673 75.35 387.223 77.3 383.973 77.3H378.323ZM419.034 96.7C426.934 96.7 433.384 92.15 435.684 84.45H429.234C427.534 88.55 423.484 90.9 419.034 90.9C412.134 90.9 407.384 85.65 407.384 78.5C407.384 71.45 412.134 66.15 419.034 66.15C423.584 66.15 427.534 68.6 429.234 72.6H435.684C433.334 65 426.934 60.35 419.034 60.35C408.584 60.35 401.084 68.25 401.084 78.5C401.084 88.85 408.534 96.7 419.034 96.7ZM463.825 96H470.225L458.075 61H449.575L437.325 96H443.575L446.125 88.5H461.275L463.825 96ZM447.975 82.95L453.425 66.95H453.925L459.375 82.95H447.975ZM474.057 96H487.457C498.707 96 505.157 89.35 505.157 78.5C505.157 68.3 498.707 61 487.457 61H474.057V66.3H477.157V90.7H474.057V96ZM483.207 90.45V66.6H487.457C494.707 66.6 498.857 71.25 498.857 78.5C498.857 86.05 494.657 90.45 487.457 90.45H483.207ZM511.678 96H533.328V90.35H517.728V81H530.728V75.4H517.728V66.65H532.828V61H511.678V96ZM551.59 83.9H565.54V78.4H551.59V83.9ZM27.4965 156H33.8965L21.7465 121H13.2465L0.996484 156H7.24648L9.79648 148.5H24.9465L27.4965 156ZM11.6465 142.95L17.0965 126.95H17.5965L23.0465 142.95H11.6465ZM38.7285 156H44.7785V126.95H45.2285L56.3285 156H66.6285V121H60.6285V150.1H60.2285L48.9285 121H38.7285V156ZM74.1055 156H87.5055C98.7555 156 105.205 149.35 105.205 138.5C105.205 128.3 98.7555 121 87.5055 121H74.1055V126.3H77.2055V150.7H74.1055V156ZM83.2555 150.45V126.6H87.5055C94.7555 126.6 98.9055 131.25 98.9055 138.5C98.9055 146.05 94.7055 150.45 87.5055 150.45H83.2555ZM140.665 156.7C148.665 156.7 157.465 151.8 158.265 138.6H141.615V143.85H151.465C150.015 148.85 145.465 150.9 140.715 150.9C133.815 150.9 129.015 145.65 129.015 138.5C129.015 131.45 133.765 126.15 140.665 126.15C145.215 126.15 149.165 128.6 150.865 132.6H157.415C155.065 125 148.565 120.35 140.665 120.35C130.215 120.35 122.715 128.25 122.715 138.5C122.715 148.85 130.215 156.65 140.665 156.7ZM186.627 156H193.027L180.877 121H172.377L160.127 156H166.377L168.927 148.5H184.077L186.627 156ZM170.777 142.95L176.227 126.95H176.727L182.177 142.95H170.777ZM197.859 156H203.759V126.95H204.209L211.159 156H220.109L227.059 126.95H227.509V156H233.359V121H222.859L215.859 150.1H215.409L208.409 121H197.859V156ZM241.854 156H263.504V150.35H247.904V141H260.904V135.4H247.904V126.65H263.004V121H241.854V156ZM280.727 156.65C288.727 156.65 293.377 152 293.377 146.25C293.377 132.1 274.927 138.05 274.927 130.25C274.927 128.1 276.577 125.95 280.577 125.95C284.327 125.95 286.577 128.15 286.577 131.4H292.677C292.677 123.4 286.427 120.35 280.577 120.35C273.077 120.35 268.877 125 268.877 130.25C268.877 144.35 287.177 137.75 287.177 146.35C287.177 149.1 284.727 150.9 280.977 150.9C276.777 150.9 273.877 148.35 273.877 144.7H267.777C267.777 151.85 273.527 156.65 280.727 156.65ZM312.85 156H318.75V126.95H319.2L326.15 156H335.1L342.05 126.95H342.5V156H348.35V121H337.85L330.85 150.1H330.4L323.4 121H312.85V156ZM379.694 156H386.094L373.944 121H365.444L353.194 156H359.444L361.994 148.5H377.144L379.694 156ZM363.844 142.95L369.294 126.95H369.794L375.244 142.95H363.844ZM390.926 156H396.976V142.75H401.176L408.676 156H415.976L407.226 141.95C411.976 140.5 414.526 136.55 414.526 131.65C414.526 125.3 409.826 121 402.576 121H390.926V156ZM396.976 137.3V126.6H402.376C406.376 126.6 408.326 128.9 408.326 131.75C408.326 135.35 405.876 137.3 402.626 137.3H396.976ZM421.736 156H427.786V140.75H431.786L441.186 156H448.636L436.936 137.8L448.086 121H440.786L431.786 135.1H427.786V121H421.736V156ZM453.865 156H475.515V150.35H459.915V141H472.915V135.4H459.915V126.65H475.015V121H453.865V156ZM488.989 156H495.039V126.65H504.739V121H479.289V126.65H488.989V156ZM510.506 156H516.556V143.05H522.556C529.056 143.05 533.906 138.55 533.906 131.95C533.906 125.3 529.256 121 522.556 121H510.506V156ZM516.556 137.45V126.6H522.256C525.556 126.6 527.706 128.85 527.706 131.95C527.706 135.1 525.556 137.45 522.256 137.45H516.556ZM540.145 156H560.545V150.4H546.195V121H540.145V156ZM589.655 156H596.055L583.905 121H575.405L563.155 156H569.405L571.955 148.5H587.105L589.655 156ZM573.805 142.95L579.255 126.95H579.755L585.205 142.95H573.805ZM615.763 156.7C623.663 156.7 630.113 152.15 632.413 144.45H625.963C624.263 148.55 620.213 150.9 615.763 150.9C608.863 150.9 604.113 145.65 604.113 138.5C604.113 131.45 608.863 126.15 615.763 126.15C620.313 126.15 624.263 128.6 625.963 132.6H632.413C630.063 125 623.663 120.35 615.763 120.35C605.313 120.35 597.813 128.25 597.813 138.5C597.813 148.85 605.263 156.7 615.763 156.7ZM638.68 156H660.33V150.35H644.73V141H657.73V135.4H644.73V126.65H659.83V121H638.68V156Z" fill="black"/>
</svg>
