<svg width="671" height="103" viewBox="0 0 671 103" fill="none" xmlns="http://www.w3.org/2000/svg">
<path d="M335 2H619.5C646.838 2 669 24.1619 669 51.5C669 78.8381 646.838 101 619.5 101H335V2Z" fill="#F1F1F1"/>
<rect x="1.5" y="1.5" width="668" height="100" rx="48.5" stroke="black" stroke-width="3"/>
<line x1="336.5" y1="6.49305e-08" x2="336.5" y2="103" stroke="black" stroke-width="3"/>
<path d="M82.178 32.9258C87.9307 32.1639 93.7827 33.159 98.9406 35.776C99.7719 32.9357 101.287 30.334 103.358 28.191C102.263 27.313 101.448 26.1432 101.011 24.8217C90.1389 24.6714 84.4914 27.9922 82.178 32.9258ZM76.8655 34.1542C78.9159 26.0148 86.29 20.1156 101.011 20.2747C101.955 17.4157 104.635 15.3411 107.816 15.3411C111.794 15.3411 114.984 18.5845 114.984 22.5482C114.984 26.249 112.2 29.3223 108.592 29.7111C105.7 31.7854 103.726 34.8684 103.073 38.3278C103.565 38.6902 104.046 39.0702 104.518 39.4679C104.764 39.6575 104.968 39.894 105.118 40.1632C105.269 40.4324 105.362 40.7287 105.393 41.0342C105.423 41.3397 105.391 41.6482 105.297 41.941C105.203 42.2339 105.05 42.5051 104.847 42.7382C104.643 42.9714 104.394 43.1617 104.114 43.2977C103.834 43.4338 103.529 43.5127 103.217 43.5298C102.905 43.5469 102.593 43.5018 102.299 43.3972C102.006 43.2926 101.736 43.1307 101.508 42.9212C94.6825 37.1767 85.348 35.6478 77.1038 38.9177C76.8203 39.0382 76.515 39.1017 76.2061 39.1044C75.8972 39.1072 75.5909 39.0492 75.3051 38.9338C75.0194 38.8184 74.76 38.648 74.5423 38.4327C74.3246 38.2173 74.1529 37.9613 74.0374 37.6797C73.9219 37.3981 73.8649 37.0967 73.8697 36.7931C73.8746 36.4896 73.9412 36.1901 74.0656 35.9122C74.19 35.6343 74.3698 35.3837 74.5943 35.1752C74.8188 34.9666 75.0834 34.8043 75.3727 34.6978C75.8673 34.5033 76.3642 34.3222 76.8655 34.1542ZM107.727 25.2061C107.786 25.2038 107.846 25.2038 107.906 25.2061C109.251 25.1553 110.357 23.9998 110.357 22.5482C110.357 21.0613 109.201 19.8881 107.816 19.8881C106.429 19.8881 105.276 21.0613 105.276 22.5482C105.276 23.9998 106.38 25.1553 107.727 25.2039V25.2061ZM90.267 76.3342C90.3187 76.3143 90.3704 76.2988 90.4244 76.2834C94.0215 75.1146 97.0431 72.5649 98.8507 69.2C98.8782 69.1421 98.9082 69.0853 98.9406 69.0299C99.66 67.649 100.175 66.1333 100.445 64.5227C100.571 63.9526 100.915 63.4521 101.406 63.1243C101.897 62.7965 102.497 62.6665 103.083 62.7612C103.669 62.8559 104.195 63.1681 104.554 63.6332C104.912 64.0983 105.075 64.6809 105.008 65.2606C104.779 66.6395 104.403 67.9909 103.887 69.2928C110.103 73.7116 112.254 81.9063 107.776 86.4887C102.846 91.4908 93.8596 88.5081 89.7814 81.1529C85.95 81.9279 81.9681 81.5125 78.3875 79.9643C78.5045 82.4476 77.7558 84.8029 76.0269 86.5572C72.1533 90.4943 65.303 89.5001 60.692 84.8117C56.1146 80.1631 55.1524 73.3316 58.9743 69.4474C61.1484 67.2402 64.2576 66.584 67.3826 67.2601C67.1352 66.3642 66.9511 65.4524 66.8318 64.5315C65.2336 63.5829 63.7707 62.4298 62.4815 61.1025C58.3134 56.8715 56.2383 51.5092 57.187 47.4284L56.7194 47.6825C56.7038 47.6908 56.688 47.6989 56.6722 47.7068L52.4141 50.0156C52.1471 50.1741 51.8504 50.2779 51.5416 50.3209C51.2328 50.3638 50.9184 50.345 50.6171 50.2656C50.3159 50.1862 50.0341 50.0479 49.7887 49.8588C49.5432 49.6698 49.3391 49.4339 49.1887 49.1655C49.0382 48.897 48.9445 48.6014 48.9131 48.2965C48.8818 47.9916 48.9134 47.6836 49.0061 47.3909C49.0989 47.0983 49.2508 46.8271 49.4528 46.5936C49.6548 46.3601 49.9027 46.1691 50.1816 46.0321L52.2365 44.9207L42.4029 30.7341C42.0743 30.2609 41.9395 29.6834 42.0252 29.1168L43.8889 16.9341C43.9433 16.5819 44.0811 16.2472 44.2912 15.9569C44.5012 15.6666 44.7777 15.4288 45.0983 15.2627C45.4189 15.0966 45.7747 15.0067 46.1371 15.0004C46.4995 14.994 46.8584 15.0714 47.1848 15.2262L58.1717 20.4515C58.7113 20.7077 59.1272 21.1585 59.3341 21.7108L65.3885 37.802L67.3174 36.7569C67.5844 36.5985 67.8812 36.4947 68.1899 36.4517C68.4987 36.4088 68.8132 36.4276 69.1144 36.507C69.4156 36.5864 69.6974 36.7247 69.9429 36.9138C70.1883 37.1028 70.3924 37.3387 70.5429 37.6071C70.6933 37.8756 70.787 38.1711 70.8184 38.4761C70.8498 38.781 70.8181 39.089 70.7254 39.3816C70.6327 39.6743 70.4807 39.9455 70.2787 40.179C70.0767 40.4125 69.8288 40.6035 69.5499 40.7405L67.0004 42.1214C69.5566 42.6848 72.2477 44.0834 74.6758 46.1558C75.3345 45.6741 76.0292 45.2323 76.7598 44.8301C84.7185 40.4555 94.6105 42.2672 100.546 49.1783C100.915 49.642 101.088 50.2286 101.026 50.8147C100.965 51.4007 100.675 51.9405 100.217 52.3205C99.7586 52.7006 99.1685 52.8912 98.5703 52.8524C97.9721 52.8136 97.4126 52.5483 97.0094 52.1124C92.4972 46.8584 85.0355 45.4908 79.0193 48.7983C78.0121 49.3506 77.0903 50.0134 76.263 50.758C76.1927 50.8312 76.1176 50.8999 76.0382 50.9635C72.8188 53.9904 71.0719 58.354 71.317 62.8347C71.3327 62.9407 71.3394 63.0468 71.3394 63.1528C71.4136 64.1294 71.5822 65.1082 71.852 66.0803C72.4366 68.1881 73.4415 70.0749 74.7567 71.6657C74.9073 71.8336 75.0557 72.0037 75.1996 72.1783C78.0908 75.3665 82.2814 77.2091 86.7486 76.9683C87.9438 76.9045 89.1261 76.6922 90.267 76.3364V76.3342ZM101.686 73.3559C99.7924 76.0444 97.2306 78.2121 94.2441 79.6527C97.0701 84.0915 102.142 85.6668 104.444 83.3314C106.616 81.1087 105.44 76.3386 101.686 73.3559ZM71.2405 74.6219C71.1574 74.5314 71.0727 74.4423 70.9865 74.3546C68.0166 71.3365 64.1115 70.7709 62.3017 72.6091C60.4357 74.5026 61.0135 78.5989 64.0171 81.6523C66.9847 84.6681 70.892 85.2359 72.7019 83.3977C74.4127 81.6567 74.0665 78.0597 71.6722 75.119C71.5255 74.9557 71.3816 74.79 71.2405 74.6219ZM61.29 40.0202L55.3188 24.1456L47.9964 20.6636L46.7374 28.9113L56.3102 42.7157L61.29 40.0202ZM71.299 49.2998C67.7108 46.3834 63.8709 45.6388 62.3736 47.1567C60.6065 48.9529 61.8228 53.8976 65.8179 57.9541C66.1641 58.3098 66.526 58.65 66.9015 58.9726C67.4489 55.4171 68.9689 52.0746 71.299 49.302V49.2998ZM76.3822 57.0659C76.3684 56.7589 76.418 56.4523 76.5281 56.1647C76.6381 55.8771 76.8063 55.6143 77.0225 55.3923C77.2386 55.1703 77.4983 54.9936 77.7859 54.8729C78.0734 54.7522 78.3829 54.6899 78.6955 54.6899C79.0082 54.6899 79.3177 54.7522 79.6052 54.8729C79.8928 54.9936 80.1525 55.1703 80.3686 55.3923C80.5848 55.6143 80.753 55.8771 80.863 56.1647C80.9731 56.4523 81.0227 56.7589 81.0089 57.0659V61.9951C81.0227 62.3021 80.9731 62.6086 80.863 62.8963C80.753 63.1839 80.5848 63.4466 80.3686 63.6687C80.1525 63.8907 79.8928 64.0674 79.6052 64.1881C79.3177 64.3088 79.0082 64.371 78.6955 64.371C78.3829 64.371 78.0734 64.3088 77.7859 64.1881C77.4983 64.0674 77.2386 63.8907 77.0225 63.6687C76.8063 63.4466 76.6381 63.1839 76.5281 62.8963C76.418 62.6086 76.3684 62.3021 76.3822 61.9951V57.0681V57.0659ZM86.0899 57.0659C86.0761 56.7589 86.1257 56.4523 86.2358 56.1647C86.3458 55.8771 86.514 55.6143 86.7302 55.3923C86.9464 55.1703 87.2061 54.9936 87.4936 54.8729C87.7811 54.7522 88.0906 54.6899 88.4033 54.6899C88.716 54.6899 89.0254 54.7522 89.3129 54.8729C89.6005 54.9936 89.8602 55.1703 90.0764 55.3923C90.2925 55.6143 90.4607 55.8771 90.5708 56.1647C90.6808 56.4523 90.7304 56.7589 90.7167 57.0659V61.9951C90.7304 62.3021 90.6808 62.6086 90.5708 62.8963C90.4607 63.1839 90.2925 63.4466 90.0764 63.6687C89.8602 63.8907 89.6005 64.0674 89.3129 64.1881C89.0254 64.3088 88.716 64.371 88.4033 64.371C88.0906 64.371 87.7811 64.3088 87.4936 64.1881C87.2061 64.0674 86.9464 63.8907 86.7302 63.6687C86.514 63.4466 86.3458 63.1839 86.2358 62.8963C86.1257 62.6086 86.0761 62.3021 86.0899 61.9951V57.0681V57.0659ZM103.419 67.0635C102.842 67.2141 102.229 67.1402 101.706 66.8572C101.184 66.5741 100.793 66.1038 100.614 65.5442C100.436 64.9846 100.484 64.379 100.749 63.8537C101.014 63.3283 101.475 62.9237 102.036 62.7242C107.594 61.0163 111.074 57.0239 110.249 54.4831C109.471 52.1212 104.763 51.0386 99.5206 52.784C98.946 52.9528 98.3272 52.8958 97.7944 52.6252C97.2617 52.3546 96.8565 51.8914 96.6643 51.3332C96.472 50.7749 96.5076 50.1651 96.7636 49.6322C97.0196 49.0992 97.476 48.6846 98.0368 48.4757C105.406 46.0232 112.893 47.7444 114.653 53.0911C116.441 58.5926 111.112 64.6994 103.419 67.0635Z" fill="black"/>
<path d="M559.981 15H619.02C620.006 15 620.983 15.1927 621.895 15.567C622.806 15.9413 623.635 16.4899 624.332 17.1816C625.03 17.8732 625.583 18.6942 625.96 19.5978C626.338 20.5014 626.532 21.4699 626.532 22.4478V42.0586C626.532 44.0333 625.74 45.927 624.331 47.3233C622.923 48.7196 621.012 49.504 619.02 49.504H559.981C558.995 49.5044 558.018 49.312 557.106 48.938C556.194 48.564 555.366 48.0156 554.668 47.3242C553.97 46.6328 553.417 45.8119 553.039 44.9084C552.661 44.0049 552.467 43.0366 552.467 42.0586V22.4502C552.466 21.4719 552.66 20.503 553.038 19.599C553.415 18.6949 553.969 17.8735 554.666 17.1816C555.364 16.4896 556.193 15.9408 557.105 15.5665C558.017 15.1922 558.994 14.9997 559.981 15ZM559.981 19.9684C558.597 19.9684 557.475 21.0779 557.475 22.4478V42.0586C557.475 43.4286 558.597 44.5428 559.981 44.5428H619.02C620.402 44.5428 621.524 43.4286 621.524 42.0586V22.4502C621.524 21.0755 620.402 19.966 619.017 19.966H559.984L559.981 19.9684ZM564.838 29.8136C564.503 29.824 564.169 29.7674 563.855 29.6473C563.542 29.5272 563.257 29.346 563.016 29.1144C562.775 28.8828 562.583 28.6056 562.452 28.2991C562.321 27.9927 562.254 27.6634 562.254 27.3306C562.254 26.9979 562.321 26.6685 562.452 26.3621C562.583 26.0557 562.775 25.7785 563.016 25.5469C563.257 25.3153 563.542 25.134 563.855 25.0139C564.169 24.8938 564.503 24.8372 564.838 24.8476H569.771C570.106 24.8372 570.441 24.8938 570.754 25.0139C571.067 25.134 571.352 25.3153 571.593 25.5469C571.834 25.7785 572.026 26.0557 572.157 26.3621C572.288 26.6685 572.355 26.9979 572.355 27.3306C572.355 27.6634 572.288 27.9927 572.157 28.2991C572.026 28.6056 571.834 28.8828 571.593 29.1144C571.352 29.346 571.067 29.5272 570.754 29.6473C570.441 29.7674 570.106 29.824 569.771 29.8136H564.838ZM564.838 39.6588C564.5 39.6736 564.163 39.6204 563.846 39.5023C563.529 39.3842 563.24 39.2038 562.995 38.9719C562.751 38.74 562.556 38.4614 562.423 38.1529C562.29 37.8444 562.222 37.5125 562.222 37.177C562.222 36.8416 562.29 36.5096 562.423 36.2011C562.556 35.8927 562.751 35.6141 562.995 35.3822C563.24 35.1502 563.529 34.9698 563.846 34.8518C564.163 34.7337 564.5 34.6805 564.838 34.6952H569.771C570.109 34.6805 570.446 34.7337 570.763 34.8518C571.08 34.9698 571.369 35.1502 571.614 35.3822C571.858 35.6141 572.053 35.8927 572.186 36.2011C572.319 36.5096 572.388 36.8416 572.388 37.177C572.388 37.5125 572.319 37.8444 572.186 38.1529C572.053 38.4614 571.858 38.74 571.614 38.9719C571.369 39.2038 571.08 39.3842 570.763 39.5023C570.446 39.6204 570.109 39.6736 569.771 39.6588H564.838ZM579.633 29.8136C579.298 29.824 578.963 29.7674 578.65 29.6473C578.337 29.5272 578.052 29.346 577.811 29.1144C577.57 28.8828 577.378 28.6056 577.247 28.2991C577.116 27.9927 577.049 27.6634 577.049 27.3306C577.049 26.9979 577.116 26.6685 577.247 26.3621C577.378 26.0557 577.57 25.7785 577.811 25.5469C578.052 25.3153 578.337 25.134 578.65 25.0139C578.963 24.8938 579.298 24.8372 579.633 24.8476H584.568C584.904 24.8372 585.238 24.8938 585.551 25.0139C585.864 25.134 586.15 25.3153 586.391 25.5469C586.632 25.7785 586.823 26.0557 586.954 26.3621C587.085 26.6685 587.153 26.9979 587.153 27.3306C587.153 27.6634 587.085 27.9927 586.954 28.2991C586.823 28.6056 586.632 28.8828 586.391 29.1144C586.15 29.346 585.864 29.5272 585.551 29.6473C585.238 29.7674 584.904 29.824 584.568 29.8136H579.636H579.633ZM579.633 39.6588C579.295 39.6736 578.957 39.6204 578.641 39.5023C578.324 39.3842 578.035 39.2038 577.79 38.9719C577.545 38.74 577.351 38.4614 577.218 38.1529C577.085 37.8444 577.016 37.5125 577.016 37.177C577.016 36.8416 577.085 36.5096 577.218 36.2011C577.351 35.8927 577.545 35.6141 577.79 35.3822C578.035 35.1502 578.324 34.9698 578.641 34.8518C578.957 34.7337 579.295 34.6805 579.633 34.6952H599.365C599.703 34.6805 600.041 34.7337 600.358 34.8518C600.675 34.9698 600.964 35.1502 601.209 35.3822C601.453 35.6141 601.648 35.8927 601.781 36.2011C601.914 36.5096 601.982 36.8416 601.982 37.177C601.982 37.5125 601.914 37.8444 601.781 38.1529C601.648 38.4614 601.453 38.74 601.209 38.9719C600.964 39.2038 600.675 39.3842 600.358 39.5023C600.041 39.6204 599.703 39.6736 599.365 39.6588H579.636H579.633ZM594.433 29.8136C594.097 29.824 593.763 29.7674 593.45 29.6473C593.137 29.5272 592.851 29.346 592.61 29.1144C592.369 28.8828 592.178 28.6056 592.047 28.2991C591.916 27.9927 591.848 27.6634 591.848 27.3306C591.848 26.9979 591.916 26.6685 592.047 26.3621C592.178 26.0557 592.369 25.7785 592.61 25.5469C592.851 25.3153 593.137 25.134 593.45 25.0139C593.763 24.8938 594.097 24.8372 594.433 24.8476H599.365C599.701 24.8372 600.035 24.8938 600.348 25.0139C600.661 25.134 600.947 25.3153 601.188 25.5469C601.429 25.7785 601.621 26.0557 601.751 26.3621C601.882 26.6685 601.95 26.9979 601.95 27.3306C601.95 27.6634 601.882 27.9927 601.751 28.2991C601.621 28.6056 601.429 28.8828 601.188 29.1144C600.947 29.346 600.661 29.5272 600.348 29.6473C600.035 29.7674 599.701 29.824 599.365 29.8136H594.433ZM609.228 29.8136C608.892 29.824 608.558 29.7674 608.245 29.6473C607.932 29.5272 607.646 29.346 607.405 29.1144C607.164 28.8828 606.973 28.6056 606.842 28.2991C606.711 27.9927 606.643 27.6634 606.643 27.3306C606.643 26.9979 606.711 26.6685 606.842 26.3621C606.973 26.0557 607.164 25.7785 607.405 25.5469C607.646 25.3153 607.932 25.134 608.245 25.0139C608.558 24.8938 608.892 24.8372 609.228 24.8476H614.163C614.498 24.8372 614.832 24.8938 615.146 25.0139C615.459 25.134 615.744 25.3153 615.985 25.5469C616.226 25.7785 616.418 26.0557 616.549 26.3621C616.68 26.6685 616.747 26.9979 616.747 27.3306C616.747 27.6634 616.68 27.9927 616.549 28.2991C616.418 28.6056 616.226 28.8828 615.985 29.1144C615.744 29.346 615.459 29.5272 615.146 29.6473C614.832 29.7674 614.498 29.824 614.163 29.8136H609.228ZM609.228 39.6588C608.89 39.6736 608.552 39.6204 608.235 39.5023C607.919 39.3842 607.629 39.2038 607.385 38.9719C607.14 38.74 606.945 38.4614 606.813 38.1529C606.68 37.8444 606.611 37.5125 606.611 37.177C606.611 36.8416 606.68 36.5096 606.813 36.2011C606.945 35.8927 607.14 35.6141 607.385 35.3822C607.629 35.1502 607.919 34.9698 608.235 34.8518C608.552 34.7337 608.89 34.6805 609.228 34.6952H614.163C614.501 34.6805 614.838 34.7337 615.155 34.8518C615.472 34.9698 615.761 35.1502 616.006 35.3822C616.25 35.6141 616.445 35.8927 616.578 36.2011C616.711 36.5096 616.779 36.8416 616.779 37.177C616.779 37.5125 616.711 37.8444 616.578 38.1529C616.445 38.4614 616.25 38.74 616.006 38.9719C615.761 39.2038 615.472 39.3842 615.155 39.5023C614.838 39.6204 614.501 39.6736 614.163 39.6588H609.228ZM565.671 61.8117C564.371 61.8151 563.095 62.1599 561.974 62.8112C560.853 63.4624 559.926 64.3967 559.288 65.5188C558.147 67.5061 557.229 70.0772 556.531 73.0872C555.862 76.0692 555.417 79.0964 555.2 82.1437C555.093 83.5596 555.029 84.9785 555.01 86.3982C555.026 86.7333 554.973 87.0681 554.855 87.3824C554.737 87.6967 554.556 87.9841 554.323 88.2273C554.09 88.4704 553.809 88.6642 553.499 88.797C553.188 88.9298 552.853 88.9988 552.515 89C552.176 89.0011 551.841 88.9343 551.53 88.8036C551.218 88.6729 550.936 88.481 550.701 88.2395C550.467 87.9979 550.284 87.7118 550.163 87.3982C550.043 87.0847 549.988 86.7503 550.002 86.4151C550.002 85.4118 550.051 83.7958 550.206 81.7675C550.442 78.4724 550.924 75.1994 551.649 71.9753C552.448 68.5336 553.523 65.526 554.932 63.0683C556.007 61.1836 557.567 59.615 559.453 58.5224C561.339 57.4297 563.484 56.852 565.668 56.8481H574.326C575.769 56.8481 577.141 57.4752 578.083 58.5606C579.022 59.6387 579.446 61.0689 579.246 62.4895L577.864 72.1514C582.592 70.2074 585.923 70.6681 586.977 74.3462C587.882 77.5129 585.773 82.3945 581.643 87.8912C581.235 88.3869 580.649 88.7074 580.009 88.7858C579.368 88.8642 578.721 88.6945 578.203 88.312C577.686 87.9296 577.337 87.3638 577.23 86.7328C577.123 86.1017 577.265 85.454 577.628 84.9246C580.594 80.974 582.205 77.4936 582.2 76.0465C582.138 76.0508 582.075 76.0564 582.013 76.0634C580.75 76.2154 578.694 77.0716 575.998 78.6851C575.592 78.9269 575.126 79.0499 574.653 79.0399C574.18 79.03 573.719 78.8875 573.324 78.6288C572.929 78.3702 572.616 78.006 572.422 77.5785C572.227 77.151 572.158 76.6775 572.224 76.213L574.285 61.8142H565.671V61.8117ZM599.752 62.4847C599.653 61.7858 599.706 61.0741 599.906 60.3969C600.107 59.7198 600.451 59.0929 600.915 58.5582C601.86 57.4728 603.23 56.8506 604.675 56.8481H613.345C615.527 56.8541 617.668 57.4325 619.551 58.5246C621.435 59.6168 622.992 61.1836 624.066 63.0659C625.478 65.526 626.551 68.5336 627.352 71.9753C628.076 75.1994 628.558 78.4725 628.792 81.7675C628.948 83.7958 628.999 85.4094 628.999 86.4079C629.009 86.7405 628.951 87.0716 628.829 87.3817C628.707 87.6917 628.524 87.9744 628.29 88.2128C628.056 88.4513 627.776 88.6407 627.466 88.7698C627.157 88.8989 626.824 88.9652 626.489 88.9645C626.153 88.9639 625.821 88.8964 625.512 88.7661C625.203 88.6358 624.924 88.4453 624.691 88.2059C624.457 87.9665 624.275 87.6832 624.155 87.3727C624.034 87.0622 623.978 86.7308 623.989 86.3982C623.969 84.9777 623.906 83.558 623.799 82.1413C623.582 79.0948 623.137 76.0684 622.468 73.0872C621.772 70.0772 620.852 67.5061 619.711 65.5164C619.073 64.3969 618.148 63.4648 617.029 62.8145C615.91 62.1643 614.637 61.8191 613.34 61.8142H604.714L606.777 76.213C606.843 76.6777 606.775 77.1515 606.581 77.5794C606.386 78.0073 606.073 78.3719 605.678 78.6308C605.283 78.8898 604.822 79.0325 604.349 79.0426C603.876 79.0526 603.409 78.9295 603.003 78.6875C600.307 77.0716 598.248 76.2178 596.986 76.0658C596.923 76.0588 596.861 76.0532 596.798 76.0489C596.793 77.4961 598.404 80.9764 601.373 84.927C601.736 85.4564 601.878 86.1041 601.771 86.7352C601.664 87.3662 601.315 87.932 600.797 88.3144C600.28 88.6969 599.633 88.8666 598.992 88.7882C598.352 88.7098 597.766 88.3894 597.358 87.8936C593.226 82.3945 591.116 77.5154 592.024 74.3486C593.075 70.6705 596.409 70.2098 601.137 72.1538L599.752 62.4871V62.4847Z" fill="black"/>
<path d="M144.14 68H148.73V55.94H154.76C160.475 55.94 164.705 51.98 164.705 46.175C164.705 40.325 160.655 36.5 154.76 36.5H144.14V68ZM148.73 51.8V40.685H154.49C157.865 40.685 160.025 42.98 160.025 46.175C160.025 49.37 157.865 51.8 154.49 51.8H148.73ZM170.639 68H188.459V63.815H175.229V36.5H170.639V68ZM191.213 68H195.938L198.458 60.89H212.948L215.468 68H220.283L209.033 36.5H202.598L191.213 68ZM199.943 56.705L205.523 40.865H205.883L211.463 56.705H199.943ZM228.558 68H233.103V54.185L243.948 36.5H238.548L230.898 49.73H230.583L222.933 36.5H217.713L228.558 54.185V68ZM248.906 68H267.896V63.77H253.496V54.05H265.511V49.865H253.496V40.73H267.446V36.5H248.906V68ZM274.174 68H278.764V55.67H283.264L290.599 68H296.089L287.944 55.175C292.534 54.05 294.964 50.45 294.964 45.905C294.964 40.28 290.914 36.5 284.434 36.5H274.174V68ZM278.764 51.575V40.685H284.209C288.259 40.685 290.239 43.025 290.239 45.95C290.239 49.64 287.764 51.575 284.434 51.575H278.764Z" fill="black"/>
<path d="M376.14 68H380.595V40.865H380.91L388.605 68H395.175L402.825 40.865H403.185V68H407.595V36.5H399.675L392.025 63.635H391.71L384.06 36.5H376.14V68ZM412.447 68H417.172L419.692 60.89H434.182L436.702 68H441.517L430.267 36.5H423.832L412.447 68ZM421.177 56.705L426.757 40.865H427.117L432.697 56.705H421.177ZM446.365 68H450.955V53.825H454.915L464.095 68H469.72L458.74 51.62L469.18 36.5H463.69L454.915 49.595H450.955V36.5H446.365V68ZM474.753 68H493.743V63.77H479.343V54.05H491.358V49.865H479.343V40.73H493.293V36.5H474.753V68ZM500.022 68H504.612V55.67H509.112L516.447 68H521.937L513.792 55.175C518.382 54.05 520.812 50.45 520.812 45.905C520.812 40.28 516.762 36.5 510.282 36.5H500.022V68ZM504.612 51.575V40.685H510.057C514.107 40.685 516.087 43.025 516.087 45.95C516.087 49.64 513.612 51.575 510.282 51.575H504.612Z" fill="black"/>
</svg>
