<svg width="132" height="132" viewBox="0 0 132 132" fill="none" xmlns="http://www.w3.org/2000/svg">
<g clip-path="url(#clip0)">
<path d="M16.7448 33.3057C15.6623 33.3057 14.7844 34.1835 14.7844 35.2661V40.4613C14.7844 41.5438 15.6623 42.4217 16.7448 42.4217C17.8274 42.4217 18.7052 41.5438 18.7052 40.4613V35.2661C18.7052 34.1835 17.8274 33.3057 16.7448 33.3057Z" fill="black"/>
<path d="M16.7448 47.292C15.6623 47.292 14.7844 48.1698 14.7844 49.2524V54.4476C14.7844 55.5302 15.6623 56.408 16.7448 56.408C17.8274 56.408 18.7052 55.5302 18.7052 54.4476V49.2524C18.7052 48.1698 17.8274 47.292 16.7448 47.292Z" fill="black"/>
<path d="M26.3353 42.8965H21.1403C20.0578 42.8965 19.1799 43.7743 19.1799 44.8569C19.1799 45.9395 20.0578 46.8173 21.1403 46.8173H26.3355C27.4181 46.8173 28.2959 45.9395 28.2959 44.8569C28.2957 43.7743 27.4181 42.8965 26.3353 42.8965Z" fill="black"/>
<path d="M12.3487 42.8965H7.15377C6.07121 42.8965 5.19336 43.7743 5.19336 44.8569C5.19336 45.9395 6.07121 46.8173 7.15377 46.8173H12.349C13.4315 46.8173 14.3094 45.9395 14.3094 44.8569C14.3091 43.7743 13.4315 42.8965 12.3487 42.8965Z" fill="black"/>
<path d="M113.456 7.46289C112.373 7.46289 111.495 8.34074 111.495 9.4233V14.6185C111.495 15.701 112.373 16.5789 113.456 16.5789C114.538 16.5789 115.416 15.701 115.416 14.6185V9.4233C115.416 8.34049 114.538 7.46289 113.456 7.46289Z" fill="black"/>
<path d="M113.456 21.4502C112.373 21.4502 111.495 22.3281 111.495 23.4106V28.6058C111.495 29.6881 112.373 30.566 113.456 30.566C114.538 30.566 115.416 29.6881 115.416 28.6055V23.4106C115.416 22.3278 114.538 21.4502 113.456 21.4502Z" fill="black"/>
<path d="M123.046 17.0537H117.851C116.769 17.0537 115.891 17.9316 115.891 19.0141C115.891 20.0967 116.769 20.9745 117.851 20.9745H123.046C124.129 20.9745 125.007 20.0967 125.007 19.0141C125.007 17.9316 124.129 17.0537 123.046 17.0537Z" fill="black"/>
<path d="M109.06 17.0537H103.865C102.782 17.0537 101.904 17.9316 101.904 19.0141C101.904 20.0967 102.782 20.9745 103.865 20.9745H109.06C110.142 20.9745 111.02 20.0967 111.02 19.0141C111.02 17.9316 110.142 17.0537 109.06 17.0537Z" fill="black"/>
<path d="M70.5172 90.2519C68.4696 90.3382 66.3777 90.3818 64.2992 90.3818C51.7035 90.3818 39.8879 88.8174 31.0297 85.9763C23.0981 83.4327 18.3629 80.0703 18.3629 76.9817C18.3629 75.1198 20.182 73.0563 23.4856 71.1709C27.1832 69.0604 32.5653 67.247 39.0493 65.9264C40.1102 65.7104 40.7952 64.6753 40.5791 63.6141C40.3633 62.5532 39.3277 61.8685 38.2668 62.0843C31.3744 63.4878 25.8255 65.3791 21.8194 67.6236C25.2228 60.5549 29.926 53.851 35.5023 48.455C36.2804 47.7022 36.3007 46.4611 35.5477 45.683C34.7948 44.9052 33.5537 44.8845 32.7757 45.6376C26.6077 51.6062 21.3783 59.072 17.6523 67.2274C13.936 75.3624 11.9714 83.615 11.9714 91.0934C11.9714 97.4817 13.4173 103.403 16.2687 108.694C16.6229 109.351 17.2984 109.724 17.996 109.724C18.3103 109.724 18.6287 109.649 18.9244 109.49C19.8775 108.976 20.2336 107.787 19.72 106.834C17.1803 102.121 15.8923 96.8253 15.8923 91.0934C15.8923 88.3306 16.1965 85.4535 16.767 82.5286C23.6099 90.2135 44.4636 94.3026 64.299 94.3026C66.4321 94.3026 68.5797 94.2578 70.6819 94.1693C71.7637 94.124 72.6036 93.2098 72.5583 92.1282C72.5129 91.0467 71.591 90.206 70.5172 90.2519Z" fill="black"/>
<path d="M116.486 87.5802C116.401 86.5012 115.457 85.6945 114.378 85.7796C113.299 85.8642 112.493 86.8083 112.577 87.8875C112.662 88.9729 112.706 90.051 112.706 91.0924C112.706 102.172 107.883 111.552 98.7576 118.218C90.0528 124.577 77.8157 128.079 64.3001 128.079C47.122 128.079 32.3854 122.506 23.8701 112.789C23.1565 111.975 21.918 111.893 21.1035 112.607C20.2894 113.32 20.2079 114.559 20.9213 115.373C30.1814 125.939 45.9925 132 64.3004 132C78.6412 132 91.6994 128.23 101.07 121.384C111.247 113.95 116.627 103.475 116.627 91.0921C116.627 89.9487 116.58 88.7671 116.486 87.5802Z" fill="black"/>
<path d="M100.228 50.3441C98.6369 48.4726 96.9523 46.6968 95.2221 45.0661C94.4337 44.3234 93.1932 44.3602 92.4507 45.1478C91.7082 45.9355 91.745 47.1766 92.5326 47.9191C94.1584 49.4513 95.7424 51.1216 97.2411 52.8838C97.6288 53.3399 98.1803 53.5745 98.7353 53.5745C99.1844 53.5745 99.6356 53.4211 100.004 53.1073C100.83 52.4063 100.93 51.1688 100.228 50.3441Z" fill="black"/>
<path d="M74.8853 15.0291C74.2307 13.4786 71.9745 13.4391 71.2846 14.9852C70.9258 15.7899 71.1663 16.7742 71.8619 17.3179C72.4961 17.8137 73.3863 17.8733 74.078 17.4628C74.9 16.974 75.2588 15.9139 74.8853 15.0291Z" fill="black"/>
<path d="M66.1108 16.3517C65.4753 14.8458 63.2862 14.7414 62.5496 16.221C62.1652 16.9936 62.333 17.953 62.9688 18.5408C63.6004 19.1245 64.568 19.2232 65.3064 18.7839C66.1358 18.2902 66.4658 17.2406 66.1108 16.3517Z" fill="black"/>
<path d="M71.5213 21.6082C71.1962 20.8379 70.4047 20.3398 69.5661 20.404C68.7638 20.4656 68.0713 21.0202 67.8359 21.789C67.3213 23.4712 69.2116 24.9332 70.7136 24.0415C71.535 23.5545 71.8952 22.492 71.5213 21.6082Z" fill="black"/>
<path d="M98.26 87.8437C97.9592 86.8039 96.8722 86.2043 95.8317 86.5056C94.4019 86.9194 92.8761 87.309 91.2978 87.663C90.2413 87.9001 89.5771 88.9487 89.8141 90.0049C90.0185 90.9168 90.8278 91.5366 91.725 91.5366C91.8673 91.5366 92.0114 91.5209 92.156 91.4884C93.8122 91.1166 95.4156 90.7075 96.9217 90.2712C97.9617 89.9709 98.5609 88.8837 98.26 87.8437Z" fill="black"/>
<path d="M94.1485 62.9465C85.5293 60.7971 75.2075 59.6611 64.2991 59.6611C58.1583 59.6611 52.1706 60.0241 46.5018 60.7406C45.4278 60.8762 44.6669 61.8572 44.8028 62.9312C44.9387 64.0056 45.9184 64.7659 46.9934 64.6305C52.4996 63.9347 58.322 63.5817 64.2991 63.5817C74.8927 63.5817 84.8863 64.6774 93.2 66.7508C93.3593 66.7902 93.5189 66.8093 93.6759 66.8093C94.5548 66.8093 95.3543 66.214 95.5765 65.3227C95.8384 64.2724 95.1991 63.2081 94.1485 62.9465Z" fill="black"/>
<path d="M81.8303 19.6513V6.72144C81.8301 1.41565 70.8106 0 64.2995 0C57.7885 0 46.769 1.41565 46.769 6.72144V19.6515C38.486 22.8881 33.585 28.2251 33.585 34.1066C33.585 43.9365 47.0768 51.6368 64.3006 51.6368C68.3289 51.6368 72.2412 51.2086 75.9295 50.3638C76.985 50.1219 77.6445 49.0703 77.4026 48.0151C77.1608 46.9599 76.1094 46.3006 75.0539 46.542C71.6526 47.3208 68.0347 47.7158 64.3006 47.7158C49.7764 47.7158 37.5058 41.4831 37.5058 34.1061C37.5058 30.275 40.9904 26.497 46.769 23.8998V29.6266C46.2083 29.385 45.6671 29.1334 45.1569 28.8671C44.1973 28.3656 43.0127 28.7374 42.5117 29.697C42.0103 30.6565 42.3818 31.8409 43.3416 32.3421C48.6026 35.0904 56.2416 36.6664 64.2998 36.6664C72.3588 36.6664 79.9985 35.0894 85.2595 32.3403C86.2191 31.8389 86.5906 30.6545 86.0889 29.6949C85.5874 28.7353 84.403 28.3638 83.4434 28.8655C82.933 29.1321 82.3913 29.3842 81.8303 29.6258V23.9003C87.6084 26.4991 91.093 30.2768 91.093 34.1066C91.093 37.7567 87.9926 41.3486 82.5865 43.9615C81.6117 44.4325 81.2033 45.6048 81.6746 46.5796C82.0128 47.2796 82.7125 47.6874 83.4411 47.6874C83.7273 47.6874 84.0181 47.6245 84.2927 47.4917C91.1059 44.1984 95.0141 39.3201 95.0141 34.1069C95.0138 28.2269 90.1131 22.8897 81.8303 19.6513ZM64.2995 3.92082C72.4939 3.92082 76.9991 5.78455 77.8301 6.7217C76.9991 7.65859 72.4936 9.52232 64.2995 9.52232C56.1055 9.52232 51.5999 7.65859 50.769 6.7217C51.5999 5.78455 56.1055 3.92082 64.2995 3.92082ZM77.9092 29.8424C77.3642 30.6968 73.2049 32.5659 65.4236 32.733C65.0498 32.7399 64.6757 32.7461 64.2995 32.7461C63.9231 32.7461 63.549 32.7402 63.1752 32.7327C55.3939 32.5657 51.2348 30.6968 50.6898 29.8421V20.9726C50.6896 20.9623 50.6901 20.9525 50.6898 20.9422V11.2195C54.4921 12.8981 60.2622 13.4429 64.2995 13.4429C68.3369 13.4429 74.107 12.8981 77.9092 11.2195V29.8424Z" fill="black"/>
<path d="M123.436 70.6464L118.352 69.6157C114.106 68.7546 110.805 65.4541 109.944 61.2074L108.913 56.1238C108.511 54.1392 106.816 52.7529 104.79 52.7529C102.765 52.7529 101.07 54.1392 100.668 56.1238L99.6369 61.2071C98.7758 65.4538 95.4753 68.7543 91.2286 69.6154L86.1453 70.6462C84.1607 71.0484 82.7744 72.7437 82.7744 74.7691C82.7744 76.7942 84.1607 78.4894 86.1453 78.8918L91.2286 79.9225C95.4753 80.7836 98.7758 84.0841 99.6369 88.3308L100.668 93.4144C101.07 95.399 102.765 96.7853 104.79 96.7853C106.815 96.7853 108.511 95.399 108.913 93.4144L109.944 88.3311C110.805 84.0844 114.106 80.7839 118.352 79.9228L123.436 78.8921C125.42 78.4899 126.807 76.7945 126.807 74.7694C126.807 72.7443 125.421 71.0486 123.436 70.6464ZM122.657 75.0491L117.573 76.0798C111.779 77.2544 107.276 81.7574 106.102 87.5515L105.071 92.635C105.051 92.7317 105.024 92.864 104.791 92.864C104.557 92.864 104.53 92.7317 104.511 92.635L103.48 87.5515C102.305 81.7574 97.8021 77.2544 92.008 76.0798L86.9247 75.0491C86.828 75.0295 86.6957 75.0029 86.6957 74.7689C86.6957 74.5348 86.828 74.5082 86.9247 74.4886L92.008 73.4581C97.8021 72.2835 102.305 67.7806 103.48 61.9865L104.511 56.9029C104.53 56.8063 104.557 56.674 104.791 56.674C105.024 56.674 105.051 56.8063 105.071 56.9029L106.102 61.9865C107.276 67.7806 111.779 72.2835 117.573 73.4581L122.657 74.4889C122.753 74.5085 122.886 74.535 122.886 74.7691C122.886 75.0032 122.753 75.0295 122.657 75.0491Z" fill="black"/>
<path d="M94.6743 95.9567L93.0854 95.6345C89.8472 94.9776 87.3307 92.461 86.6743 89.2232L86.3523 87.634C85.977 85.7832 84.396 84.4902 82.5073 84.4902C80.6186 84.4902 79.0377 85.7832 78.6623 87.634L78.34 89.2232C77.6836 92.4613 75.1671 94.9776 71.929 95.6342L70.3398 95.9565C68.489 96.3319 67.196 97.913 67.196 99.8015C67.196 101.69 68.489 103.271 70.3398 103.647L71.929 103.969C75.1671 104.625 77.6836 107.142 78.34 110.38L78.6623 111.969C79.0377 113.82 80.6186 115.113 82.5073 115.113C84.396 115.113 85.977 113.82 86.3523 111.969L86.6743 110.38C87.331 107.142 89.8472 104.626 93.0854 103.969L94.6743 103.647C96.5254 103.271 97.8181 101.69 97.8181 99.8018C97.8181 97.9133 96.5254 96.3321 94.6743 95.9567ZM93.8972 99.8033C93.8967 99.8033 93.8959 99.8036 93.8954 99.8038L92.3065 100.126C87.521 101.096 83.802 104.815 82.8316 109.601L82.5096 111.19C82.5096 111.19 82.5094 111.191 82.5094 111.191C82.5081 111.191 82.5068 111.191 82.5055 111.191C82.5055 111.191 82.5052 111.19 82.5052 111.189L82.183 109.6C81.2131 104.815 77.4939 101.096 72.7081 100.126L71.1189 99.8036C71.1184 99.8036 71.1176 99.8033 71.1171 99.8033C71.1171 99.802 71.1171 99.8007 71.1171 99.7994C71.1176 99.7994 71.1182 99.7992 71.1189 99.7992L72.7081 99.4772C77.4936 98.507 81.2126 94.7878 82.183 90.0025L82.5052 88.4134C82.5052 88.4129 82.5055 88.4121 82.5055 88.4116C82.5068 88.4116 82.5081 88.4116 82.5094 88.4116C82.5094 88.4121 82.5096 88.4129 82.5096 88.4134L82.8316 90.0025C83.8018 94.7881 87.521 98.5068 92.3065 99.4772L93.8954 99.7989C93.8959 99.7989 93.8967 99.7992 93.8972 99.7994C93.8972 99.8007 93.8972 99.802 93.8972 99.8033Z" fill="black"/>
</g>
<defs>
<clipPath id="clip0">
<rect width="132" height="132" fill="white"/>
</clipPath>
</defs>
</svg>
