<svg width="144" height="144" viewBox="0 0 144 144" fill="none" xmlns="http://www.w3.org/2000/svg">
<path d="M1.46419 59.7603C3.35249 57.6262 6.093 56.4024 8.98341 56.4024H43.3561C43.3789 56.4019 43.4016 56.4013 43.4247 56.4013H45.0523L47.6589 51.3512C49.4187 47.9413 52.9442 45.8232 56.8592 45.8232H87.8268C91.6031 45.8232 95.1131 47.6477 97.2166 50.704C98.5326 52.616 100.743 53.7576 103.131 53.7576H105.523C106.41 52.7842 107.698 52.1705 109.129 52.1705H112.48V50.5772C112.48 47.9559 114.651 45.8232 117.32 45.8232H121.168C122.257 43.0422 125.016 41.0625 128.24 41.0625C131.464 41.0625 134.223 43.0422 135.312 45.8232H139.161C141.829 45.8232 144 47.9559 144 50.5772V98.1833C144 100.805 141.829 102.938 139.161 102.938H117.32C114.651 102.938 112.48 100.805 112.48 98.1833V96.59H109.13C107.698 96.59 106.41 95.9763 105.524 95.0032H103.131C100.743 95.0032 98.5323 96.1447 97.2169 98.0567C95.1134 101.113 91.6031 102.938 87.8268 102.938H59.9875C54.3083 102.938 49.6879 98.4319 49.6879 92.8938V92.3583H49.0672C43.3879 92.3583 38.7675 87.8527 38.7675 82.3146V81.7791H38.1468C32.4675 81.7791 27.8471 77.2734 27.8471 71.7353V71.1998H9.297C6.19987 71.1998 3.23718 69.761 1.3708 67.3507L1.2178 67.1529C0.432556 66.1388 0 64.8787 0 63.6052C0 62.1928 0.520035 60.8271 1.46419 59.7603ZM128.24 45.2812C126.393 45.2812 124.889 46.7078 124.889 48.4613C124.889 50.2149 126.393 51.6417 128.24 51.6417C130.088 51.6417 131.591 50.2149 131.591 48.4613C131.591 46.7078 130.088 45.2812 128.24 45.2812ZM108.509 91.8357C108.509 92.131 108.787 92.3712 109.13 92.3712H112.48V86.1497C112.48 84.9847 113.424 84.0403 114.59 84.0403C115.755 84.0403 116.699 84.9847 116.699 86.1497V98.1833C116.699 98.4786 116.978 98.7188 117.32 98.7188H139.161C139.503 98.7188 139.781 98.4786 139.781 98.1833V50.5772C139.781 50.2822 139.503 50.042 139.161 50.042H135.636C134.893 53.3649 131.859 55.8605 128.24 55.8605C124.621 55.8605 121.587 53.3649 120.844 50.042H117.32C116.978 50.042 116.699 50.2822 116.699 50.5772V78.4797C116.699 79.6447 115.755 80.5891 114.59 80.5891C113.424 80.5891 112.48 79.6447 112.48 78.4797V56.3892H109.13C108.787 56.3892 108.509 56.6294 108.509 56.9247V91.8357ZM59.9875 66.9814C61.1527 66.9814 62.0969 67.9258 62.0969 69.0908C62.0969 70.2557 61.1527 71.2001 59.9875 71.2001H32.0659V71.7356C32.0659 74.9475 34.7937 77.5606 38.1468 77.5606H40.8128C40.8341 77.56 40.8555 77.5598 40.8772 77.5598H62.7179C63.8831 77.5598 64.8273 78.5042 64.8273 79.6691C64.8273 80.8341 63.8831 81.7785 62.7179 81.7785H42.9865V82.3148C42.9865 85.5267 45.7144 88.1398 49.0674 88.1398H51.7975C51.8799 88.1398 51.9612 88.1446 52.0414 88.1536C52.0847 88.1511 52.1288 88.1497 52.173 88.1497H67.9084C69.0736 88.1497 70.0177 89.0941 70.0177 90.259C70.0177 91.424 69.0736 92.3684 67.9084 92.3684H53.9069V92.8941C53.9069 96.1059 56.6348 98.719 59.9878 98.719H87.8271C90.2146 98.719 92.4258 97.5774 93.7412 95.6655C95.8447 92.6094 99.3547 90.7847 103.131 90.7847H104.29V57.9763H103.131C99.3547 57.9763 95.8447 56.1518 93.7412 53.0955C92.4255 51.1833 90.2146 50.042 87.8271 50.042H56.8595C54.5299 50.042 52.441 51.2851 51.4083 53.2862L49.8004 56.4013H51.6895C55.2499 56.4013 58.8257 56.0588 62.3171 55.3829C63.4607 55.1607 64.5677 55.9094 64.7887 57.053C65.0101 58.1968 64.2625 59.3032 63.1187 59.5249C59.3637 60.2516 55.5185 60.6203 51.6895 60.6203H46.4057C46.3829 60.6209 46.3601 60.6215 46.3373 60.6215H15.617V66.9814H59.9875ZM4.55373 64.5705L4.70671 64.7682C5.7794 66.1539 7.49559 66.9814 9.29672 66.9814H11.3979V60.6212H8.98341C7.30069 60.6212 5.71162 61.3263 4.62347 62.5559C4.36247 62.8509 4.21875 63.2239 4.21875 63.6055C4.21875 63.9537 4.33463 64.2876 4.55373 64.5705Z" fill="black"/>
</svg>
