<svg width="144" height="144" viewBox="0 0 144 144" fill="none" xmlns="http://www.w3.org/2000/svg">
<path d="M142.536 59.7603C140.648 57.6262 137.907 56.4024 135.017 56.4024H100.644C100.621 56.4019 100.598 56.4013 100.575 56.4013H98.9477L96.3411 51.3512C94.5813 47.9413 91.0558 45.8232 87.1408 45.8232H56.1732C52.3969 45.8232 48.8869 47.6477 46.7834 50.704C45.4674 52.616 43.2565 53.7576 40.8693 53.7576H38.477C37.5902 52.7842 36.3021 52.1705 34.8708 52.1705H31.5197V50.5772C31.5197 47.9559 29.3487 45.8232 26.6802 45.8232H22.8324C21.7429 43.0422 18.9835 41.0625 15.7598 41.0625C12.5362 41.0625 9.77709 43.0422 8.68753 45.8232H4.83947C2.17097 45.8232 0 47.9559 0 50.5772V98.1833C0 100.805 2.17097 102.938 4.83947 102.938H26.6802C29.3487 102.938 31.5197 100.805 31.5197 98.1833V96.59H34.8705C36.3018 96.59 37.5899 95.9763 38.4764 95.0032H40.869C43.2565 95.0032 45.4677 96.1447 46.7831 98.0567C48.8866 101.113 52.3969 102.938 56.1732 102.938H84.0125C89.6917 102.938 94.3121 98.4319 94.3121 92.8938V92.3583H94.9328C100.612 92.3583 105.232 87.8527 105.232 82.3146V81.7791H105.853C111.533 81.7791 116.153 77.2734 116.153 71.7353V71.1998H134.703C137.8 71.1998 140.763 69.761 142.629 67.3507L142.782 67.1529C143.567 66.1388 144 64.8787 144 63.6052C144 62.1928 143.48 60.8271 142.536 59.7603ZM15.7598 45.2812C17.6074 45.2812 19.1107 46.7078 19.1107 48.4613C19.1107 50.2149 17.6074 51.6417 15.7598 51.6417C13.9123 51.6417 12.409 50.2149 12.409 48.4613C12.409 46.7078 13.9123 45.2812 15.7598 45.2812ZM35.4912 91.8357C35.4912 92.131 35.2128 92.3712 34.8705 92.3712H31.5197V86.1497C31.5197 84.9847 30.5755 84.0403 29.4103 84.0403C28.2451 84.0403 27.3009 84.9847 27.3009 86.1497V98.1833C27.3009 98.4786 27.0225 98.7188 26.6802 98.7188H4.83947C4.49719 98.7188 4.21875 98.4786 4.21875 98.1833V50.5772C4.21875 50.2822 4.49719 50.042 4.83947 50.042H8.36409C9.10688 53.3649 12.141 55.8605 15.7598 55.8605C19.3787 55.8605 22.4128 53.3649 23.1556 50.042H26.6802C27.0225 50.042 27.3009 50.2822 27.3009 50.5772V78.4797C27.3009 79.6447 28.2451 80.5891 29.4103 80.5891C30.5755 80.5891 31.5197 79.6447 31.5197 78.4797V56.3892H34.8705C35.2128 56.3892 35.4912 56.6294 35.4912 56.9247V91.8357ZM84.0125 66.9814C82.8473 66.9814 81.9031 67.9258 81.9031 69.0908C81.9031 70.2557 82.8473 71.2001 84.0125 71.2001H111.934V71.7356C111.934 74.9475 109.206 77.5606 105.853 77.5606H103.187C103.166 77.56 103.145 77.5598 103.123 77.5598H81.2821C80.1169 77.5598 79.1727 78.5042 79.1727 79.6691C79.1727 80.8341 80.1169 81.7785 81.2821 81.7785H101.013V82.3148C101.013 85.5267 98.2856 88.1398 94.9326 88.1398H92.2025C92.1201 88.1398 92.0388 88.1446 91.9586 88.1536C91.9153 88.1511 91.8712 88.1497 91.827 88.1497H76.0916C74.9264 88.1497 73.9823 89.0941 73.9823 90.259C73.9823 91.424 74.9264 92.3684 76.0916 92.3684H90.0931V92.8941C90.0931 96.1059 87.3652 98.719 84.0122 98.719H56.1729C53.7854 98.719 51.5742 97.5774 50.2588 95.6655C48.1553 92.6094 44.6453 90.7847 40.869 90.7847H39.71V57.9763H40.869C44.6453 57.9763 48.1553 56.1518 50.2588 53.0955C51.5745 51.1833 53.7854 50.042 56.1729 50.042H87.1405C89.4701 50.042 91.559 51.2851 92.5917 53.2862L94.1996 56.4013H92.3105C88.7501 56.4013 85.1743 56.0588 81.6829 55.3829C80.5393 55.1607 79.4323 55.9094 79.2113 57.053C78.9899 58.1968 79.7375 59.3032 80.8813 59.5249C84.6363 60.2516 88.4815 60.6203 92.3105 60.6203H97.5943C97.6171 60.6209 97.6399 60.6215 97.6627 60.6215H128.383V66.9814H84.0125ZM139.446 64.5705L139.293 64.7682C138.221 66.1539 136.504 66.9814 134.703 66.9814H132.602V60.6212H135.017C136.699 60.6212 138.288 61.3263 139.377 62.5559C139.638 62.8509 139.781 63.2239 139.781 63.6055C139.781 63.9537 139.665 64.2876 139.446 64.5705Z" fill="black"/>
</svg>
