<svg width="132" height="132" viewBox="0 0 132 132" fill="none" xmlns="http://www.w3.org/2000/svg">
<g clip-path="url(#clip0)">
<g clip-path="url(#clip1)">
<path d="M115.808 74.6022C116.871 74.6022 117.731 73.7417 117.731 72.6792V3.98436C117.731 2.92194 116.871 2.06142 115.808 2.06142L25.5757 1C18.8614 1 13.3984 6.463 13.3984 13.1773V119.823C13.3984 126.537 18.8614 132 25.5757 132L115.808 133.061C116.871 133.061 117.731 132.201 117.731 131.138V83.8019C117.731 82.7405 116.871 81.8799 115.808 81.8799C114.747 81.8799 113.885 82.7405 113.885 83.8019V107.901L33.6513 107.645V4.84589L113.885 5.9073V72.6792C113.885 73.7417 114.747 74.6022 115.808 74.6022ZM113.885 129.216L25.5757 128.154C20.9813 128.154 17.2443 124.417 17.2443 119.823C17.2443 115.229 20.9813 111.491 25.5757 111.491H60.7437V121.874C60.7437 123.379 62.4778 124.311 63.7331 123.474L68.8193 120.083L73.9055 123.474C75.1618 124.311 76.8949 123.377 76.8949 121.874V111.491H113.885V129.216ZM73.049 111.491V118.282L69.8857 116.172C69.5629 115.957 69.1911 115.849 68.8193 115.849C68.4475 115.849 68.0757 115.957 67.7529 116.172L64.5896 118.282V111.491H73.049ZM29.8054 107.645H25.5757C22.3545 107.645 19.4241 108.906 17.2443 110.955V13.1773C17.2443 8.58283 20.9813 4.84589 25.5757 4.84589H29.8054V107.645Z" fill="black"/>
<path d="M104.275 23.4321C104.275 22.3697 103.414 21.5092 102.352 21.5092C98.889 21.5092 96.0716 18.6917 96.0716 15.2286C96.0716 14.1662 95.21 13.3057 94.1486 13.3057H52.237C51.1746 13.3057 50.3141 14.1662 50.3141 15.2286C50.3141 18.6917 47.4966 21.5092 44.0335 21.5092C42.9711 21.5092 42.1106 22.3697 42.1106 23.4321V68.5513C42.1106 69.6127 42.9711 70.4742 44.0335 70.4742C47.4966 70.4742 50.3141 73.2917 50.3141 76.7548C50.3141 77.8162 51.1746 78.6777 52.237 78.6777H94.1486C95.21 78.6777 96.0716 77.8162 96.0716 76.7548C96.0716 73.2917 98.889 70.4742 102.352 70.4742C103.414 70.4742 104.275 69.6127 104.275 68.5513V23.4321ZM100.429 66.8113C96.3854 67.5918 93.1892 70.7881 92.4086 74.8318H53.9771C53.1955 70.7881 50.0003 67.5918 45.9565 66.8113V25.1711C50.0003 24.3906 53.1955 21.1953 53.9771 17.1516H92.4096C93.1902 21.1953 96.3854 24.3906 100.43 25.1711L100.429 66.8113Z" fill="black"/>
<path d="M100.978 85.0859H41.9828C40.9203 85.0859 40.0598 85.9475 40.0598 87.0089C40.0598 88.0713 40.9203 88.9318 41.9828 88.9318H100.978C102.04 88.9318 102.901 88.0713 102.901 87.0089C102.901 85.9475 102.04 85.0859 100.978 85.0859Z" fill="black"/>
<path d="M41.9828 95.3398C40.9203 95.3398 40.0598 96.2014 40.0598 97.2628C40.0598 98.3252 40.9203 99.1857 41.9828 99.1857H58.3897C59.4512 99.1857 60.3127 98.3252 60.3127 97.2628C60.3127 96.2014 59.4512 95.3398 58.3897 95.3398H41.9828Z" fill="black"/>
<path d="M100.786 94.9248H72.0739C71.0125 94.9248 70.151 95.7863 70.151 96.8477C70.151 97.9102 71.0125 98.7707 72.0739 98.7707H100.786C101.848 98.7707 102.709 97.9102 102.709 96.8477C102.709 95.7863 101.848 94.9248 100.786 94.9248Z" fill="black"/>
</g>
<path d="M91.0028 42.3339L85.9195 41.3032C81.6728 40.4421 78.3723 37.1416 77.5112 32.8949L76.4804 27.8113C76.078 25.8267 74.3829 24.4404 72.3575 24.4404C70.3326 24.4404 68.6372 25.8267 68.2348 27.8113L67.2041 32.8946C66.343 37.1413 63.0424 40.4418 58.7958 41.3029L53.7125 42.3337C51.7278 42.7359 50.3416 44.4312 50.3416 46.4566C50.3416 48.4817 51.7278 50.1769 53.7125 50.5793L58.7958 51.61C63.0424 52.4711 66.343 55.7717 67.2041 60.0183L68.2348 65.1019C68.6372 67.0865 70.3324 68.4728 72.3575 68.4728C74.3826 68.4728 76.0777 67.0865 76.4804 65.1019L77.5112 60.0186C78.3723 55.7719 81.6728 52.4714 85.9195 51.6103L91.0028 50.5796C92.9874 50.1774 94.3737 48.482 94.3737 46.4569C94.3737 44.4318 92.9877 42.7361 91.0028 42.3339ZM90.2239 46.7366L85.1406 47.7673C79.3465 48.9419 74.8436 53.4449 73.6687 59.239L72.638 64.3225C72.6184 64.4192 72.5916 64.5515 72.3577 64.5515C72.1242 64.5515 72.0971 64.4192 72.0778 64.3225L71.047 59.239C69.8722 53.4449 65.3692 48.9419 59.5751 47.7673L54.4918 46.7366C54.3951 46.717 54.2629 46.6905 54.2629 46.4564C54.2629 46.2223 54.3951 46.1957 54.4918 46.1761L59.5751 45.1456C65.3692 43.971 69.8722 39.4681 71.047 33.674L72.0778 28.5904C72.0974 28.4938 72.1242 28.3615 72.3577 28.3615C72.5913 28.3615 72.6184 28.4938 72.638 28.5904L73.6687 33.674C74.8436 39.4681 79.3465 43.971 85.1406 45.1456L90.2239 46.1764C90.3206 46.196 90.4529 46.2225 90.4529 46.4566C90.4529 46.6907 90.3206 46.717 90.2239 46.7366Z" fill="black"/>
</g>
<defs>
<clipPath id="clip0">
<rect width="132" height="132" fill="white"/>
</clipPath>
<clipPath id="clip1">
<rect x="-4" y="1" width="131" height="131" fill="white"/>
</clipPath>
</defs>
</svg>
