<svg width="132" height="132" viewBox="0 0 132 132" fill="none" xmlns="http://www.w3.org/2000/svg">
<path fill-rule="evenodd" clip-rule="evenodd" d="M33.9534 9.20338C33.9534 9.32194 33.2754 9.40675 32.3261 9.40675C31.3767 9.40675 30.6988 9.49156 30.6988 9.61013C30.6988 9.72198 30.2411 9.8135 29.6817 9.8135C29.1223 9.8135 28.6646 9.90502 28.6646 10.0169C28.6646 10.1287 28.2984 10.2203 27.8509 10.2203C27.4034 10.2203 27.0373 10.3118 27.0373 10.4236C27.0373 10.5355 26.7627 10.627 26.427 10.627C26.0914 10.627 25.8168 10.7185 25.8168 10.8304C25.8168 10.9422 25.5422 11.0338 25.2065 11.0338C24.8709 11.0338 24.5963 11.1253 24.5963 11.2371C24.5963 11.349 24.3217 11.4405 23.986 11.4405C23.6504 11.4405 23.3758 11.532 23.3758 11.6439C23.3758 11.7557 23.1927 11.8473 22.9689 11.8473C22.7452 11.8473 22.5621 11.9388 22.5621 12.0506C22.5621 12.1625 22.379 12.254 22.1553 12.254C21.9315 12.254 21.7484 12.3455 21.7484 12.4574C21.7484 12.5692 21.5654 12.6608 21.3416 12.6608C21.1179 12.6608 20.9348 12.7523 20.9348 12.8641C20.9348 12.976 20.7517 13.0675 20.528 13.0675C20.3042 13.0675 20.1211 13.159 20.1211 13.2709C20.1211 13.3827 19.938 13.4743 19.7143 13.4743C19.4905 13.4743 19.3075 13.5658 19.3075 13.6776C19.3075 13.7895 19.1445 13.881 18.9456 13.881C18.7464 13.881 18.4517 14.064 18.2904 14.2878C18.1291 14.5115 17.8545 14.6945 17.6801 14.6945C17.5058 14.6945 17.2312 14.8775 17.0699 15.1013C16.9086 15.325 16.634 15.508 16.4596 15.508C16.2853 15.508 16.0107 15.6911 15.8494 15.9148C15.6881 16.1385 15.4352 16.3215 15.2871 16.3215C15.1393 16.3215 14.2939 17.0537 13.4084 17.9485C12.5229 18.8434 11.6572 19.5755 11.4847 19.5755C11.312 19.5755 11.1708 19.7173 11.1708 19.8903C11.1708 20.0636 10.53 20.8371 9.74689 21.6093C8.96374 22.3815 8.32298 23.1348 8.32298 23.2833C8.32298 23.4317 8.13991 23.6851 7.91615 23.8464C7.69239 24.0077 7.50932 24.2822 7.50932 24.4565C7.50932 24.6308 7.32624 24.9054 7.10248 25.0667C6.87873 25.2279 6.69565 25.5025 6.69565 25.6768C6.69565 25.8511 6.51258 26.1256 6.28882 26.2869C6.06506 26.4482 5.88199 26.7429 5.88199 26.942C5.88199 27.1409 5.79045 27.3038 5.67857 27.3038C5.56669 27.3038 5.47516 27.4868 5.47516 27.7105C5.47516 27.9342 5.38362 28.1173 5.27174 28.1173C5.15986 28.1173 5.06832 28.3003 5.06832 28.524C5.06832 28.7477 4.97679 28.9308 4.86491 28.9308C4.75303 28.9308 4.66149 29.1138 4.66149 29.3375C4.66149 29.5613 4.56995 29.7443 4.45807 29.7443C4.3462 29.7443 4.25466 29.9273 4.25466 30.151C4.25466 30.3748 4.16312 30.5578 4.05124 30.5578C3.93936 30.5578 3.84783 30.7408 3.84783 30.9645C3.84783 31.1883 3.75629 31.3713 3.64441 31.3713C3.53253 31.3713 3.44099 31.6458 3.44099 31.9814C3.44099 32.317 3.34946 32.5915 3.23758 32.5915C3.1257 32.5915 3.03416 32.8661 3.03416 33.2017C3.03416 33.5372 2.94262 33.8118 2.83075 33.8118C2.71887 33.8118 2.62733 34.0864 2.62733 34.4219C2.62733 34.7575 2.53579 35.032 2.42391 35.032C2.31203 35.032 2.2205 35.3981 2.2205 35.8456C2.2205 36.293 2.12896 36.6591 2.01708 36.6591C1.9052 36.6591 1.81366 37.1166 1.81366 37.6759C1.81366 38.2352 1.72213 38.6928 1.61025 38.6928C1.4941 38.6928 1.40683 39.3029 1.40683 40.1164C1.40683 40.9299 1.31957 41.5401 1.20342 41.5401C1.07486 41.5401 1 42.9637 1 45.4042C1 47.8447 1.07486 49.2683 1.20342 49.2683C1.31957 49.2683 1.40683 49.8785 1.40683 50.692C1.40683 51.5055 1.4941 52.1156 1.61025 52.1156C1.72213 52.1156 1.81366 52.5732 1.81366 53.1325C1.81366 53.6917 1.9052 54.1493 2.01708 54.1493C2.12896 54.1493 2.2205 54.5154 2.2205 54.9628C2.2205 55.4103 2.31203 55.7763 2.42391 55.7763C2.53579 55.7763 2.62733 56.0509 2.62733 56.3865C2.62733 56.722 2.71887 56.9966 2.83075 56.9966C2.94262 56.9966 3.03416 57.2711 3.03416 57.6067C3.03416 57.9423 3.1257 58.2168 3.23758 58.2168C3.34946 58.2168 3.44099 58.4914 3.44099 58.827C3.44099 59.1625 3.53253 59.4371 3.64441 59.4371C3.75629 59.4371 3.84783 59.6201 3.84783 59.8438C3.84783 60.0676 3.93936 60.2506 4.05124 60.2506C4.16312 60.2506 4.25466 60.4336 4.25466 60.6573C4.25466 60.8811 4.3462 61.0641 4.45807 61.0641C4.56995 61.0641 4.66149 61.2471 4.66149 61.4708C4.66149 61.6946 4.75303 61.8776 4.86491 61.8776C4.97679 61.8776 5.06832 62.0606 5.06832 62.2844C5.06832 62.5081 5.15986 62.6911 5.27174 62.6911C5.38362 62.6911 5.47516 62.8741 5.47516 63.0979C5.47516 63.3216 5.56669 63.5046 5.67857 63.5046C5.79045 63.5046 5.88199 63.6675 5.88199 63.8664C5.88199 64.0655 6.06506 64.3602 6.28882 64.5215C6.51258 64.6828 6.69565 64.9573 6.69565 65.1316C6.69565 65.3059 6.87873 65.5805 7.10248 65.7417C7.32624 65.903 7.50932 66.1776 7.50932 66.3519C7.50932 66.5262 7.69239 66.8007 7.91615 66.962C8.13991 67.1233 8.32298 67.3734 8.32298 67.5178C8.32298 67.6624 10.9776 70.4324 14.222 73.6734C20.1425 79.5875 21.2375 80.9949 19.9177 80.9949C19.7934 80.9949 19.7143 81.944 19.7143 83.4354C19.7143 84.9267 19.7934 85.8759 19.9177 85.8759C20.0296 85.8759 20.1211 86.1505 20.1211 86.486C20.1211 86.8216 20.2127 87.0961 20.3245 87.0961C20.4364 87.0961 20.528 87.3506 20.528 87.6613C20.528 87.9932 20.696 88.3475 20.9348 88.5198C21.1585 88.6811 21.3416 88.932 21.3416 89.0774C21.3416 89.4478 23.5029 91.5704 23.8798 91.5704C24.0501 91.5704 24.1894 91.6619 24.1894 91.7738C24.1894 91.8856 24.3725 91.9772 24.5963 91.9772C24.82 91.9772 25.0031 92.0687 25.0031 92.1805C25.0031 92.2924 25.1862 92.3839 25.4099 92.3839C25.6337 92.3839 25.8168 92.4754 25.8168 92.5873C25.8168 92.6991 26.0914 92.7906 26.427 92.7906C26.7627 92.7906 27.0373 92.8822 27.0373 92.994C27.0373 93.1146 27.7832 93.1974 28.868 93.1974H30.6988V95.2312C30.6988 96.4514 30.7801 97.2649 30.9022 97.2649C31.0141 97.2649 31.1056 97.5395 31.1056 97.875C31.1056 98.2106 31.1971 98.4852 31.309 98.4852C31.4209 98.4852 31.5124 98.6481 31.5124 98.847C31.5124 99.0461 31.6955 99.3408 31.9193 99.502C32.143 99.6633 32.3261 99.9147 32.3261 100.061C32.3261 100.406 34.0661 102.146 34.4117 102.146C34.5578 102.146 34.8092 102.329 34.9705 102.553C35.1318 102.776 35.4266 102.959 35.6257 102.959C35.8246 102.959 35.9876 103.051 35.9876 103.163C35.9876 103.275 36.1707 103.366 36.3944 103.366C36.6182 103.366 36.8012 103.458 36.8012 103.57C36.8012 103.681 37.1674 103.773 37.6149 103.773C38.0624 103.773 38.4286 103.864 38.4286 103.976C38.4286 104.095 39.1066 104.18 40.0559 104.18C41.0052 104.18 41.6832 104.264 41.6832 104.383C41.6832 104.495 41.5917 104.586 41.4798 104.586C41.3679 104.586 41.2764 104.953 41.2764 105.4C41.2764 105.847 41.3679 106.213 41.4798 106.213C41.5917 106.213 41.6832 106.671 41.6832 107.23C41.6832 107.79 41.7748 108.247 41.8866 108.247C41.9985 108.247 42.0901 108.522 42.0901 108.857C42.0901 109.193 42.1816 109.467 42.2935 109.467C42.4054 109.467 42.4969 109.63 42.4969 109.829C42.4969 110.028 42.68 110.323 42.9037 110.484C43.1275 110.646 43.3106 110.897 43.3106 111.043C43.3106 111.389 45.0506 113.128 45.3962 113.128C45.5422 113.128 45.7937 113.311 45.955 113.535C46.1163 113.759 46.411 113.942 46.6102 113.942C46.8091 113.942 46.972 114.033 46.972 114.145C46.972 114.257 47.2467 114.348 47.5823 114.348C47.9179 114.348 48.1925 114.44 48.1925 114.552C48.1925 114.664 48.5587 114.755 49.0062 114.755C49.4537 114.755 49.8199 114.847 49.8199 114.959C49.8199 115.072 50.3624 115.162 51.0404 115.162H52.2609V116.382C52.2609 117.06 52.3512 117.602 52.4643 117.602C52.5762 117.602 52.6677 117.969 52.6677 118.416C52.6677 118.863 52.7592 119.229 52.8711 119.229C52.983 119.229 53.0745 119.504 53.0745 119.84C53.0745 120.175 53.1661 120.45 53.278 120.45C53.3898 120.45 53.4814 120.613 53.4814 120.812C53.4814 121.011 53.6644 121.305 53.8882 121.467C54.112 121.628 54.295 121.879 54.295 122.025C54.295 122.371 56.035 124.11 56.3807 124.11C56.5267 124.11 56.7781 124.294 56.9394 124.517C57.1007 124.741 57.3955 124.924 57.5946 124.924C57.7936 124.924 57.9565 125.015 57.9565 125.127C57.9565 125.239 58.2311 125.331 58.5668 125.331C58.9024 125.331 59.177 125.422 59.177 125.534C59.177 125.646 59.5432 125.737 59.9907 125.737C60.4382 125.737 60.8043 125.829 60.8043 125.941C60.8043 126.054 61.3469 126.144 62.0248 126.144C62.7028 126.144 63.2453 126.054 63.2453 125.941C63.2453 125.829 63.703 125.737 64.2624 125.737C64.8218 125.737 65.2795 125.646 65.2795 125.534C65.2795 125.422 65.4626 125.331 65.6863 125.331C65.9101 125.331 66.0932 125.239 66.0932 125.127C66.0932 125.015 66.2762 124.924 66.5 124.924C66.7238 124.924 66.9068 124.832 66.9068 124.721C66.9068 124.609 67.0452 124.517 67.2142 124.517C67.3832 124.517 70.6318 121.406 74.4332 117.602C81.1301 110.903 82.3665 109.857 82.3665 110.891C82.3665 111.003 82.6411 111.094 82.9767 111.094C83.3123 111.094 83.587 111.186 83.587 111.298C83.587 111.411 84.1295 111.501 84.8074 111.501C85.4854 111.501 86.028 111.591 86.028 111.705C86.028 111.816 86.211 111.908 86.4348 111.908C86.6585 111.908 86.8416 111.816 86.8416 111.705C86.8416 111.591 87.3841 111.501 88.0621 111.501C88.7401 111.501 89.2826 111.411 89.2826 111.298C89.2826 111.186 89.5572 111.094 89.8929 111.094C90.2285 111.094 90.5031 111.003 90.5031 110.891C90.5031 110.779 90.666 110.688 90.865 110.688C91.0641 110.688 91.3589 110.505 91.5202 110.281C91.6815 110.057 91.9325 109.874 92.078 109.874C92.4484 109.874 94.5714 107.713 94.5714 107.336C94.5714 107.166 94.663 107.027 94.7748 107.027C94.8867 107.027 94.9783 106.844 94.9783 106.62C94.9783 106.396 95.0698 106.213 95.1817 106.213C95.2936 106.213 95.3851 106.03 95.3851 105.807C95.3851 105.583 95.4766 105.4 95.5885 105.4C95.7004 105.4 95.7919 105.034 95.7919 104.586C95.7919 104.139 95.8835 103.773 95.9953 103.773C96.1139 103.773 96.1988 103.095 96.1988 102.146C96.1988 101.197 96.2836 100.519 96.4022 100.519C96.5141 100.519 96.6056 100.61 96.6056 100.722C96.6056 100.834 97.0633 100.926 97.6227 100.926C98.1821 100.926 98.6398 100.834 98.6398 100.722C98.6398 100.61 99.0059 100.519 99.4534 100.519C99.9009 100.519 100.267 100.427 100.267 100.316C100.267 100.204 100.542 100.112 100.877 100.112C101.213 100.112 101.488 100.021 101.488 99.9088C101.488 99.7969 101.651 99.7054 101.849 99.7054C102.049 99.7054 102.343 99.5224 102.505 99.2987C102.666 99.075 102.917 98.8919 103.063 98.8919C103.409 98.8919 105.149 97.1523 105.149 96.8067C105.149 96.6607 105.332 96.4093 105.556 96.248C105.78 96.0868 105.963 95.7921 105.963 95.593C105.963 95.3941 106.054 95.2312 106.166 95.2312C106.278 95.2312 106.37 95.0481 106.37 94.8244C106.37 94.6007 106.461 94.4177 106.573 94.4177C106.685 94.4177 106.776 94.0516 106.776 93.6042C106.776 93.1567 106.868 92.7906 106.98 92.7906C107.096 92.7906 107.183 92.1805 107.183 91.367V89.9434H108.404C109.082 89.9434 109.624 89.8531 109.624 89.74C109.624 89.6282 110.082 89.5367 110.641 89.5367C111.201 89.5367 111.658 89.4451 111.658 89.3333C111.658 89.2214 111.841 89.1299 112.065 89.1299C112.289 89.1299 112.472 89.0384 112.472 88.9265C112.472 88.8147 112.635 88.7232 112.834 88.7232C113.033 88.7232 113.328 88.5401 113.489 88.3164C113.65 88.0927 113.902 87.9096 114.048 87.9096C114.394 87.9096 116.134 86.17 116.134 85.8244C116.134 85.6784 116.317 85.427 116.54 85.2658C116.764 85.1045 116.947 84.8098 116.947 84.6107C116.947 84.4118 117.039 84.2489 117.151 84.2489C117.262 84.2489 117.354 83.9743 117.354 83.6388C117.354 83.3032 117.446 83.0286 117.557 83.0286C117.669 83.0286 117.761 82.6626 117.761 82.2151C117.761 81.7677 117.852 81.4016 117.964 81.4016C118.086 81.4016 118.168 80.5881 118.168 79.3679C118.168 78.1476 118.086 77.3341 117.964 77.3341C117.852 77.3341 117.761 76.968 117.761 76.5206C117.761 76.0732 117.669 75.7071 117.557 75.7071C116.948 75.7071 117.641 74.8003 120.202 72.2497C121.768 70.6894 123.05 69.3118 123.05 69.1883C123.05 69.0649 123.416 68.6122 123.863 68.1822C124.311 67.7523 124.677 67.2929 124.677 67.1613C124.677 67.0295 124.952 66.6653 125.287 66.3519C125.623 66.0385 125.898 65.6356 125.898 65.4568C125.898 65.2778 125.989 65.1316 126.101 65.1316C126.213 65.1316 126.304 64.9687 126.304 64.7698C126.304 64.5707 126.487 64.276 126.711 64.1147C126.935 63.9535 127.118 63.6588 127.118 63.4597C127.118 63.2608 127.21 63.0979 127.321 63.0979C127.433 63.0979 127.525 62.9148 127.525 62.6911C127.525 62.4674 127.616 62.2844 127.728 62.2844C127.84 62.2844 127.932 62.1013 127.932 61.8776C127.932 61.6539 128.023 61.4708 128.135 61.4708C128.247 61.4708 128.339 61.2878 128.339 61.0641C128.339 60.8404 128.43 60.6573 128.542 60.6573C128.654 60.6573 128.745 60.4743 128.745 60.2506C128.745 60.0269 128.837 59.8438 128.949 59.8438C129.061 59.8438 129.152 59.6608 129.152 59.4371C129.152 59.2134 129.244 59.0303 129.356 59.0303C129.467 59.0303 129.559 58.7558 129.559 58.4202C129.559 58.0846 129.651 57.8101 129.762 57.8101C129.874 57.8101 129.966 57.5355 129.966 57.2C129.966 56.8644 130.057 56.5898 130.169 56.5898C130.281 56.5898 130.373 56.3153 130.373 55.9797C130.373 55.6441 130.464 55.3696 130.576 55.3696C130.688 55.3696 130.779 55.0035 130.779 54.5561C130.779 54.1087 130.871 53.7426 130.983 53.7426C131.095 53.7426 131.186 53.285 131.186 52.7257C131.186 52.1664 131.278 51.7088 131.39 51.7088C131.506 51.7088 131.593 51.0987 131.593 50.2852C131.593 49.4717 131.68 48.8616 131.797 48.8616C131.925 48.8616 132 47.5057 132 45.2008C132 42.896 131.925 41.5401 131.797 41.5401C131.68 41.5401 131.593 40.9299 131.593 40.1164C131.593 39.3029 131.506 38.6928 131.39 38.6928C131.278 38.6928 131.186 38.2352 131.186 37.6759C131.186 37.1166 131.095 36.6591 130.983 36.6591C130.871 36.6591 130.779 36.3845 130.779 36.0489C130.779 35.7134 130.688 35.4388 130.576 35.4388C130.464 35.4388 130.373 35.0727 130.373 34.6253C130.373 34.1779 130.281 33.8118 130.169 33.8118C130.057 33.8118 129.966 33.5372 129.966 33.2017C129.966 32.8661 129.874 32.5915 129.762 32.5915C129.651 32.5915 129.559 32.4085 129.559 32.1848C129.559 31.9611 129.467 31.778 129.356 31.778C129.244 31.778 129.152 31.5035 129.152 31.1679C129.152 30.8323 129.061 30.5578 128.949 30.5578C128.837 30.5578 128.745 30.3748 128.745 30.151C128.745 29.9273 128.654 29.7443 128.542 29.7443C128.43 29.7443 128.339 29.5613 128.339 29.3375C128.339 29.1138 128.247 28.9308 128.135 28.9308C128.023 28.9308 127.932 28.7477 127.932 28.524C127.932 28.3003 127.84 28.1173 127.728 28.1173C127.616 28.1173 127.525 27.9544 127.525 27.7555C127.525 27.5564 127.342 27.2617 127.118 27.1004C126.894 26.9391 126.711 26.6444 126.711 26.4453C126.711 26.2464 126.62 26.0835 126.508 26.0835C126.396 26.0835 126.304 25.9206 126.304 25.7217C126.304 25.5226 126.121 25.2279 125.898 25.0667C125.674 24.9054 125.491 24.6473 125.491 24.4931C125.491 24.3392 125.216 23.9564 124.88 23.643C124.545 23.3296 124.27 22.9717 124.27 22.8478C124.27 22.5537 118.444 16.7283 118.149 16.7283C118.026 16.7283 117.667 16.4537 117.354 16.1181C117.041 15.7826 116.658 15.508 116.504 15.508C116.35 15.508 116.091 15.325 115.93 15.1013C115.769 14.8775 115.494 14.6945 115.32 14.6945C115.146 14.6945 114.871 14.5115 114.71 14.2878C114.548 14.064 114.254 13.881 114.054 13.881C113.855 13.881 113.693 13.7895 113.693 13.6776C113.693 13.5658 113.509 13.4743 113.286 13.4743C113.062 13.4743 112.879 13.3827 112.879 13.2709C112.879 13.159 112.696 13.0675 112.472 13.0675C112.248 13.0675 112.065 12.976 112.065 12.8641C112.065 12.7523 111.882 12.6608 111.658 12.6608C111.435 12.6608 111.252 12.5692 111.252 12.4574C111.252 12.3455 111.068 12.254 110.845 12.254C110.621 12.254 110.438 12.1625 110.438 12.0506C110.438 11.9388 110.163 11.8473 109.828 11.8473C109.492 11.8473 109.217 11.7557 109.217 11.6439C109.217 11.532 109.034 11.4405 108.811 11.4405C108.587 11.4405 108.404 11.349 108.404 11.2371C108.404 11.1253 108.129 11.0338 107.793 11.0338C107.458 11.0338 107.183 10.9422 107.183 10.8304C107.183 10.7185 106.817 10.627 106.37 10.627C105.922 10.627 105.556 10.5355 105.556 10.4236C105.556 10.3118 105.281 10.2203 104.946 10.2203C104.61 10.2203 104.335 10.1287 104.335 10.0169C104.335 9.90502 103.878 9.8135 103.318 9.8135C102.759 9.8135 102.301 9.72198 102.301 9.61013C102.301 9.49156 101.623 9.40675 100.674 9.40675C99.7246 9.40675 99.0466 9.32194 99.0466 9.20338C99.0466 9.07688 97.8938 9 95.9953 9C94.0969 9 92.9441 9.07688 92.9441 9.20338C92.9441 9.32194 92.2661 9.40675 91.3168 9.40675C90.3674 9.40675 89.6894 9.49156 89.6894 9.61013C89.6894 9.72198 89.2318 9.8135 88.6724 9.8135C88.113 9.8135 87.6553 9.90502 87.6553 10.0169C87.6553 10.1287 87.2891 10.2203 86.8416 10.2203C86.3941 10.2203 86.028 10.3118 86.028 10.4236C86.028 10.5355 85.7533 10.627 85.4177 10.627C85.0821 10.627 84.8074 10.7185 84.8074 10.8304C84.8074 10.9422 84.5328 11.0338 84.1972 11.0338C83.8616 11.0338 83.587 11.1253 83.587 11.2371C83.587 11.349 83.3123 11.4405 82.9767 11.4405C82.6411 11.4405 82.3665 11.532 82.3665 11.6439C82.3665 11.7557 82.1834 11.8473 81.9596 11.8473C81.7359 11.8473 81.5528 11.9388 81.5528 12.0506C81.5528 12.1625 81.3697 12.254 81.146 12.254C80.9222 12.254 80.7391 12.3455 80.7391 12.4574C80.7391 12.5692 80.5561 12.6608 80.3323 12.6608C80.1085 12.6608 79.9255 12.7523 79.9255 12.8641C79.9255 12.976 79.7424 13.0675 79.5186 13.0675C79.2949 13.0675 79.1118 13.159 79.1118 13.2709C79.1118 13.3827 78.9287 13.4743 78.705 13.4743C78.4812 13.4743 78.2981 13.5658 78.2981 13.6776C78.2981 13.7895 78.1352 13.881 77.9363 13.881C77.7371 13.881 77.4424 14.064 77.2811 14.2878C77.1198 14.5115 76.8451 14.6945 76.6708 14.6945C76.4965 14.6945 76.2219 14.8775 76.0606 15.1013C75.8993 15.325 75.6411 15.508 75.4869 15.508C75.3329 15.508 74.9501 15.7826 74.6366 16.1181C74.3232 16.4537 73.9631 16.7283 73.8366 16.7283C73.7101 16.7283 72.6055 17.735 71.382 18.9654C70.1584 20.1958 69.0578 21.2025 68.9363 21.2025C68.8147 21.2025 68.1725 21.7551 67.5094 22.4307L66.3037 23.6587L62.8464 20.1936C60.9449 18.2875 59.2865 16.7283 59.1612 16.7283C59.0358 16.7283 58.6768 16.4537 58.3634 16.1181C58.0499 15.7826 57.6671 15.508 57.5131 15.508C57.3589 15.508 57.1007 15.325 56.9394 15.1013C56.7781 14.8775 56.4834 14.6945 56.2842 14.6945C56.0853 14.6945 55.9224 14.603 55.9224 14.4911C55.9224 14.3793 55.7594 14.2878 55.5605 14.2878C55.3613 14.2878 55.0666 14.1047 54.9053 13.881C54.744 13.6573 54.4492 13.4743 54.2501 13.4743C54.0511 13.4743 53.8882 13.3827 53.8882 13.2709C53.8882 13.159 53.7051 13.0675 53.4814 13.0675C53.2576 13.0675 53.0745 12.976 53.0745 12.8641C53.0745 12.7523 52.8915 12.6608 52.6677 12.6608C52.4439 12.6608 52.2609 12.5692 52.2609 12.4574C52.2609 12.3455 52.0778 12.254 51.854 12.254C51.6303 12.254 51.4472 12.1625 51.4472 12.0506C51.4472 11.9388 51.1726 11.8473 50.837 11.8473C50.5013 11.8473 50.2267 11.7557 50.2267 11.6439C50.2267 11.532 50.0436 11.4405 49.8199 11.4405C49.5961 11.4405 49.413 11.349 49.413 11.2371C49.413 11.1253 49.1384 11.0338 48.8028 11.0338C48.4672 11.0338 48.1925 10.9422 48.1925 10.8304C48.1925 10.7185 47.8264 10.627 47.3789 10.627C46.9314 10.627 46.5652 10.5355 46.5652 10.4236C46.5652 10.3118 46.1991 10.2203 45.7516 10.2203C45.304 10.2203 44.9379 10.1287 44.9379 10.0169C44.9379 9.90502 44.5717 9.8135 44.1242 9.8135C43.6767 9.8135 43.3106 9.72198 43.3106 9.61013C43.3106 9.49156 42.6326 9.40675 41.6832 9.40675C40.7339 9.40675 40.0559 9.32194 40.0559 9.20338C40.0559 9.07688 38.9031 9 37.0047 9C35.1062 9 33.9534 9.07688 33.9534 9.20338ZM98.2329 13.2709C98.2329 13.3895 98.9109 13.4743 99.8602 13.4743C100.81 13.4743 101.488 13.5591 101.488 13.6776C101.488 13.7895 101.945 13.881 102.505 13.881C103.064 13.881 103.522 13.9725 103.522 14.0844C103.522 14.1962 103.888 14.2878 104.335 14.2878C104.783 14.2878 105.149 14.3793 105.149 14.4911C105.149 14.603 105.424 14.6945 105.759 14.6945C106.095 14.6945 106.37 14.786 106.37 14.8979C106.37 15.0097 106.644 15.1013 106.98 15.1013C107.315 15.1013 107.59 15.1928 107.59 15.3046C107.59 15.4165 107.773 15.508 107.997 15.508C108.221 15.508 108.404 15.5995 108.404 15.7114C108.404 15.8232 108.587 15.9148 108.811 15.9148C109.034 15.9148 109.217 16.0063 109.217 16.1181C109.217 16.23 109.4 16.3215 109.624 16.3215C109.848 16.3215 110.031 16.413 110.031 16.5249C110.031 16.6367 110.214 16.7283 110.438 16.7283C110.662 16.7283 110.845 16.8198 110.845 16.9316C110.845 17.0435 111.028 17.135 111.252 17.135C111.475 17.135 111.658 17.2265 111.658 17.3384C111.658 17.4502 111.841 17.5418 112.065 17.5418C112.289 17.5418 112.472 17.6333 112.472 17.7451C112.472 17.857 112.635 17.9485 112.834 17.9485C113.033 17.9485 113.328 18.1316 113.489 18.3553C113.65 18.579 113.909 18.762 114.063 18.762C114.217 18.762 114.6 19.0366 114.913 19.3721C115.227 19.7077 115.585 19.9823 115.709 19.9823C116.003 19.9823 120.609 24.5867 120.609 24.8812C120.609 25.0052 120.883 25.3634 121.219 25.6768C121.555 25.9902 121.829 26.3729 121.829 26.5269C121.829 26.681 122.012 26.9391 122.236 27.1004C122.46 27.2617 122.643 27.5362 122.643 27.7105C122.643 27.8848 122.826 28.1594 123.05 28.3207C123.273 28.4819 123.457 28.7766 123.457 28.9757C123.457 29.1746 123.548 29.3375 123.66 29.3375C123.772 29.3375 123.863 29.5206 123.863 29.7443C123.863 29.968 123.955 30.151 124.067 30.151C124.179 30.151 124.27 30.3341 124.27 30.5578C124.27 30.7815 124.362 30.9645 124.474 30.9645C124.585 30.9645 124.677 31.1476 124.677 31.3713C124.677 31.595 124.769 31.778 124.88 31.778C124.992 31.778 125.084 31.9611 125.084 32.1848C125.084 32.4085 125.175 32.5915 125.287 32.5915C125.399 32.5915 125.491 32.8661 125.491 33.2017C125.491 33.5372 125.582 33.8118 125.694 33.8118C125.806 33.8118 125.898 33.9948 125.898 34.2185C125.898 34.4423 125.989 34.6253 126.101 34.6253C126.213 34.6253 126.304 34.9914 126.304 35.4388C126.304 35.8862 126.396 36.2523 126.508 36.2523C126.62 36.2523 126.711 36.5269 126.711 36.8624C126.711 37.198 126.803 37.4726 126.915 37.4726C127.026 37.4726 127.118 37.9301 127.118 38.4894C127.118 39.0487 127.21 39.5063 127.321 39.5063C127.44 39.5063 127.525 40.1842 127.525 41.1333C127.525 42.0825 127.61 42.7603 127.728 42.7603C127.853 42.7603 127.932 43.7772 127.932 45.4042C127.932 47.0312 127.853 48.0481 127.728 48.0481C127.61 48.0481 127.525 48.7259 127.525 49.6751C127.525 50.6242 127.44 51.3021 127.321 51.3021C127.21 51.3021 127.118 51.6682 127.118 52.1156C127.118 52.563 127.026 52.9291 126.915 52.9291C126.803 52.9291 126.711 53.2952 126.711 53.7426C126.711 54.19 126.62 54.5561 126.508 54.5561C126.396 54.5561 126.304 54.8306 126.304 55.1662C126.304 55.5018 126.213 55.7763 126.101 55.7763C125.989 55.7763 125.898 56.0509 125.898 56.3865C125.898 56.722 125.806 56.9966 125.694 56.9966C125.582 56.9966 125.491 57.1796 125.491 57.4033C125.491 57.6271 125.399 57.8101 125.287 57.8101C125.175 57.8101 125.084 57.9931 125.084 58.2168C125.084 58.4406 124.992 58.6236 124.88 58.6236C124.769 58.6236 124.677 58.8066 124.677 59.0303C124.677 59.2541 124.585 59.4371 124.474 59.4371C124.362 59.4371 124.27 59.6201 124.27 59.8438C124.27 60.0676 124.179 60.2506 124.067 60.2506C123.955 60.2506 123.863 60.4336 123.863 60.6573C123.863 60.8811 123.772 61.0641 123.66 61.0641C123.548 61.0641 123.457 61.227 123.457 61.4259C123.457 61.625 123.273 61.9197 123.05 62.081C122.826 62.2423 122.643 62.5168 122.643 62.6911C122.643 62.8654 122.46 63.14 122.236 63.3012C122.012 63.4625 121.829 63.7165 121.829 63.8658C121.829 64.0151 121.28 64.6762 120.609 65.335C119.937 65.9937 119.388 66.6303 119.388 66.7495C119.388 67.0262 114.783 71.6396 114.507 71.6396C114.393 71.6396 108.718 66.057 101.894 59.2337C95.0712 52.4105 89.3709 46.8278 89.2271 46.8278C89.0833 46.8278 88.8337 46.6448 88.6724 46.4211C88.5111 46.1974 88.2163 46.0143 88.0172 46.0143C87.8182 46.0143 87.6553 45.9228 87.6553 45.8109C87.6553 45.6991 87.4722 45.6076 87.2484 45.6076C87.0247 45.6076 86.8416 45.516 86.8416 45.4042C86.8416 45.2923 86.6585 45.2008 86.4348 45.2008C86.211 45.2008 86.028 45.1093 86.028 44.9974C86.028 44.8856 85.8449 44.7941 85.6211 44.7941C85.3974 44.7941 85.2143 44.7025 85.2143 44.5907C85.2143 44.4788 85.0312 44.3873 84.8074 44.3873C84.5837 44.3873 84.4006 44.2958 84.4006 44.1839C84.4006 44.0721 84.126 43.9806 83.7904 43.9806C83.4547 43.9806 83.1801 43.889 83.1801 43.7772C83.1801 43.6653 82.814 43.5738 82.3665 43.5738C81.9189 43.5738 81.5528 43.4823 81.5528 43.3704C81.5528 43.2574 81.0103 43.1671 80.3323 43.1671C79.6543 43.1671 79.1118 43.0768 79.1118 42.9637C79.1118 42.8394 78.1625 42.7603 76.6708 42.7603C75.1792 42.7603 74.2298 42.8394 74.2298 42.9637C74.2298 43.0768 73.6873 43.1671 73.0093 43.1671C72.3313 43.1671 71.7888 43.2574 71.7888 43.3704C71.7888 43.4823 71.4227 43.5738 70.9752 43.5738C70.5276 43.5738 70.1615 43.6653 70.1615 43.7772C70.1615 43.889 69.9784 43.9806 69.7547 43.9806C69.5309 43.9806 69.3478 44.0721 69.3478 44.1839C69.3478 44.2958 69.0732 44.3873 68.7376 44.3873C68.4019 44.3873 68.1273 44.4788 68.1273 44.5907C68.1273 44.7025 67.9443 44.7941 67.7205 44.7941C67.4967 44.7941 67.3137 44.8856 67.3137 44.9974C67.3137 45.1093 67.1306 45.2008 66.9068 45.2008C66.6831 45.2008 66.5 45.2923 66.5 45.4042C66.5 45.516 66.3371 45.6076 66.1381 45.6076C65.939 45.6076 65.6442 45.7906 65.4829 46.0143C65.3216 46.238 65.0269 46.4211 64.8277 46.4211C64.6288 46.4211 64.4658 46.5126 64.4658 46.6244C64.4658 46.7363 64.3029 46.8278 64.104 46.8278C63.9048 46.8278 63.6101 47.0109 63.4488 47.2346C63.2874 47.4583 62.9927 47.6413 62.7936 47.6413C62.5946 47.6413 62.4317 47.7328 62.4317 47.8447C62.4317 47.9566 62.2687 48.0481 62.0698 48.0481C61.8707 48.0481 61.5759 48.2311 61.4146 48.4548C61.2533 48.6785 60.9787 48.8616 60.8043 48.8616C60.63 48.8616 60.3554 49.0446 60.1941 49.2683C60.0328 49.492 59.738 49.6751 59.5389 49.6751C59.34 49.6751 59.177 49.7666 59.177 49.8785C59.177 49.9903 58.9939 50.0818 58.7702 50.0818C58.5464 50.0818 58.3634 50.1733 58.3634 50.2852C58.3634 50.3971 58.1803 50.4886 57.9565 50.4886C57.7328 50.4886 57.5497 50.5801 57.5497 50.692C57.5497 50.8038 57.3666 50.8953 57.1429 50.8953C56.9191 50.8953 56.736 50.9868 56.736 51.0987C56.736 51.2106 56.3699 51.3021 55.9224 51.3021C55.4748 51.3021 55.1087 51.3936 55.1087 51.5055C55.1087 51.6313 54.0239 51.7088 52.2609 51.7088C50.4979 51.7088 49.413 51.6313 49.413 51.5055C49.413 51.3936 49.1384 51.3021 48.8028 51.3021C48.4672 51.3021 48.1925 51.2106 48.1925 51.0987C48.1925 50.9868 47.9179 50.8953 47.5823 50.8953C47.2467 50.8953 46.972 50.8038 46.972 50.692C46.972 50.5801 46.789 50.4886 46.5652 50.4886C46.3415 50.4886 46.1584 50.3971 46.1584 50.2852C46.1584 50.1733 46.018 50.0818 45.8465 50.0818C45.6749 50.0818 45.2149 49.7621 44.8242 49.3714L44.1136 48.6613L45.4375 47.3377C46.1655 46.6098 46.8604 46.0143 46.9814 46.0143C47.1026 46.0143 47.6476 45.5567 48.1925 44.9974C48.7375 44.4382 49.2867 43.9806 49.413 43.9806C49.5394 43.9806 50.0886 43.523 50.6335 42.9637C51.1785 42.4044 51.7277 41.9468 51.854 41.9468C51.9804 41.9468 52.5296 41.4892 53.0745 40.9299C53.6195 40.3707 54.1687 39.9131 54.295 39.9131C54.4214 39.9131 54.9706 39.4555 55.5155 38.8962C56.0605 38.3369 56.6087 37.8793 56.734 37.8793C56.8595 37.8793 57.5011 37.3302 58.1599 36.6591C58.8188 35.9879 59.459 35.4388 59.5824 35.4388C59.7059 35.4388 60.4388 34.7982 61.2112 34.0152C61.9835 33.2322 62.7144 32.5915 62.8353 32.5915C62.9561 32.5915 64.056 31.5848 65.2795 30.3544C66.5031 29.124 67.6003 28.1173 67.7178 28.1173C67.8354 28.1173 69.6674 26.3784 71.7888 24.2532C73.9102 22.1279 75.7483 20.389 75.8734 20.389C75.9985 20.389 76.3573 20.1145 76.6708 19.7789C76.9843 19.4433 77.3671 19.1688 77.5211 19.1688C77.6753 19.1688 77.9334 18.9857 78.0947 18.762C78.256 18.5383 78.5306 18.3553 78.705 18.3553C78.8793 18.3553 79.1539 18.1722 79.3152 17.9485C79.4765 17.7248 79.7713 17.5418 79.9704 17.5418C80.1694 17.5418 80.3323 17.4502 80.3323 17.3384C80.3323 17.2265 80.5154 17.135 80.7391 17.135C80.9629 17.135 81.146 17.0435 81.146 16.9316C81.146 16.8198 81.329 16.7283 81.5528 16.7283C81.7766 16.7283 81.9596 16.6367 81.9596 16.5249C81.9596 16.413 82.1427 16.3215 82.3665 16.3215C82.5902 16.3215 82.7733 16.23 82.7733 16.1181C82.7733 16.0063 82.9564 15.9148 83.1801 15.9148C83.4039 15.9148 83.587 15.8232 83.587 15.7114C83.587 15.5995 83.8616 15.508 84.1972 15.508C84.5328 15.508 84.8074 15.4165 84.8074 15.3046C84.8074 15.1928 84.9905 15.1013 85.2143 15.1013C85.438 15.1013 85.6211 15.0097 85.6211 14.8979C85.6211 14.786 85.8957 14.6945 86.2314 14.6945C86.567 14.6945 86.8416 14.603 86.8416 14.4911C86.8416 14.3793 87.2078 14.2878 87.6553 14.2878C88.1028 14.2878 88.4689 14.1962 88.4689 14.0844C88.4689 13.9725 88.9266 13.881 89.486 13.881C90.0454 13.881 90.5031 13.7895 90.5031 13.6776C90.5031 13.5591 91.1811 13.4743 92.1304 13.4743C93.0798 13.4743 93.7578 13.3895 93.7578 13.2709C93.7578 13.1476 94.6392 13.0675 95.9953 13.0675C97.3515 13.0675 98.2329 13.1476 98.2329 13.2709ZM41.2764 13.6776C41.2764 13.7907 41.8189 13.881 42.4969 13.881C43.1749 13.881 43.7174 13.9713 43.7174 14.0844C43.7174 14.1962 44.0835 14.2878 44.5311 14.2878C44.9786 14.2878 45.3447 14.3793 45.3447 14.4911C45.3447 14.603 45.6193 14.6945 45.955 14.6945C46.2906 14.6945 46.5652 14.786 46.5652 14.8979C46.5652 15.0097 46.8398 15.1013 47.1755 15.1013C47.5111 15.1013 47.7857 15.1928 47.7857 15.3046C47.7857 15.4165 48.0603 15.508 48.396 15.508C48.7316 15.508 49.0062 15.5995 49.0062 15.7114C49.0062 15.8232 49.1893 15.9148 49.413 15.9148C49.6368 15.9148 49.8199 16.0063 49.8199 16.1181C49.8199 16.23 50.003 16.3215 50.2267 16.3215C50.4505 16.3215 50.6335 16.413 50.6335 16.5249C50.6335 16.6367 50.8166 16.7283 51.0404 16.7283C51.2641 16.7283 51.4472 16.8198 51.4472 16.9316C51.4472 17.0435 51.6303 17.135 51.854 17.135C52.0778 17.135 52.2609 17.2265 52.2609 17.3384C52.2609 17.4502 52.4238 17.5418 52.6227 17.5418C52.8219 17.5418 53.1166 17.7248 53.278 17.9485C53.4393 18.1722 53.7139 18.3553 53.8882 18.3553C54.0625 18.3553 54.3371 18.5383 54.4984 18.762C54.6598 18.9857 54.9179 19.1688 55.0721 19.1688C55.2261 19.1688 55.6089 19.4433 55.9224 19.7789C56.2358 20.1145 56.5936 20.389 56.7175 20.389C56.8414 20.389 58.3627 21.8088 60.0983 23.544L63.2537 26.6987L62.5444 27.4081C62.1542 27.7982 61.7364 28.1173 61.6162 28.1173C61.4958 28.1173 60.6727 28.8494 59.7873 29.7443C58.9018 30.6391 58.0767 31.3713 57.9539 31.3713C57.831 31.3713 57.1915 31.9204 56.5326 32.5915C55.8737 33.2627 55.2322 33.8118 55.1067 33.8118C54.9814 33.8118 54.4332 34.2694 53.8882 34.8287C53.3432 35.388 52.794 35.8456 52.6677 35.8456C52.5414 35.8456 51.9922 36.3031 51.4472 36.8624C50.9023 37.4217 50.353 37.8793 50.2267 37.8793C50.1004 37.8793 49.5512 38.3369 49.0062 38.8962C48.4613 39.4555 47.9131 39.9131 47.7877 39.9131C47.6622 39.9131 47.0207 40.4622 46.3618 41.1333C45.7029 41.8045 45.0614 42.3536 44.9359 42.3536C44.8106 42.3536 44.2623 42.8112 43.7174 43.3704C43.1724 43.9297 42.6269 44.3873 42.5048 44.3873C42.0484 44.3873 40.4627 46.1994 40.4627 46.7208C40.4627 47.0033 40.3712 47.2346 40.2593 47.2346C40.1432 47.2346 40.0559 47.8447 40.0559 48.6582C40.0559 49.4717 40.1432 50.0818 40.2593 50.0818C40.3712 50.0818 40.4627 50.2649 40.4627 50.4886C40.4627 50.7123 40.5543 50.8953 40.6661 50.8953C40.778 50.8953 40.8696 51.0367 40.8696 51.2095C40.8696 51.5939 41.7664 52.5223 42.1377 52.5223C42.2857 52.5223 42.539 52.7054 42.7003 52.9291C42.8616 53.1528 43.1362 53.3358 43.3106 53.3358C43.4849 53.3358 43.7595 53.5189 43.9208 53.7426C44.0821 53.9663 44.3769 54.1493 44.576 54.1493C44.7749 54.1493 44.9379 54.2409 44.9379 54.3527C44.9379 54.4646 45.2125 54.5561 45.5481 54.5561C45.8838 54.5561 46.1584 54.6476 46.1584 54.7595C46.1584 54.8713 46.3415 54.9628 46.5652 54.9628C46.789 54.9628 46.972 55.0544 46.972 55.1662C46.972 55.2781 47.3382 55.3696 47.7857 55.3696C48.2332 55.3696 48.5994 55.4611 48.5994 55.573C48.5994 55.7011 49.9556 55.7763 52.2609 55.7763C54.5662 55.7763 55.9224 55.7011 55.9224 55.573C55.9224 55.4611 56.2885 55.3696 56.736 55.3696C57.1835 55.3696 57.5497 55.2781 57.5497 55.1662C57.5497 55.0544 57.8243 54.9628 58.1599 54.9628C58.4956 54.9628 58.7702 54.8713 58.7702 54.7595C58.7702 54.6476 58.9533 54.5561 59.177 54.5561C59.4008 54.5561 59.5839 54.4646 59.5839 54.3527C59.5839 54.2409 59.7669 54.1493 59.9907 54.1493C60.2144 54.1493 60.3975 54.0578 60.3975 53.946C60.3975 53.8341 60.5605 53.7426 60.7594 53.7426C60.9585 53.7426 61.2533 53.5595 61.4146 53.3358C61.5759 53.1121 61.8707 52.9291 62.0698 52.9291C62.2687 52.9291 62.4317 52.8376 62.4317 52.7257C62.4317 52.6138 62.5946 52.5223 62.7936 52.5223C62.9927 52.5223 63.2874 52.3393 63.4488 52.1156C63.6101 51.8919 63.8847 51.7088 64.059 51.7088C64.2333 51.7088 64.5079 51.5258 64.6693 51.3021C64.8306 51.0784 65.1253 50.8953 65.3245 50.8953C65.5234 50.8953 65.6863 50.8038 65.6863 50.692C65.6863 50.5801 65.8493 50.4886 66.0482 50.4886C66.2474 50.4886 66.5421 50.3055 66.7034 50.0818C66.8647 49.8581 67.1595 49.6751 67.3586 49.6751C67.5576 49.6751 67.7205 49.5836 67.7205 49.4717C67.7205 49.3598 67.9036 49.2683 68.1273 49.2683C68.3511 49.2683 68.5342 49.1768 68.5342 49.0649C68.5342 48.9531 68.7172 48.8616 68.941 48.8616C69.1647 48.8616 69.3478 48.7701 69.3478 48.6582C69.3478 48.5463 69.5309 48.4548 69.7547 48.4548C69.9784 48.4548 70.1615 48.3633 70.1615 48.2514C70.1615 48.1396 70.4361 48.0481 70.7717 48.0481C71.1074 48.0481 71.382 47.9566 71.382 47.8447C71.382 47.7328 71.6566 47.6413 71.9922 47.6413C72.3279 47.6413 72.6025 47.5498 72.6025 47.4379C72.6025 47.3249 73.145 47.2346 73.823 47.2346C74.501 47.2346 75.0435 47.1443 75.0435 47.0312C75.0435 46.9126 75.7215 46.8278 76.6708 46.8278C77.6201 46.8278 78.2981 46.9126 78.2981 47.0312C78.2981 47.1443 78.8407 47.2346 79.5186 47.2346C80.1966 47.2346 80.7391 47.3249 80.7391 47.4379C80.7391 47.5498 81.1053 47.6413 81.5528 47.6413C82.0003 47.6413 82.3665 47.7328 82.3665 47.8447C82.3665 47.9566 82.5495 48.0481 82.7733 48.0481C82.997 48.0481 83.1801 48.1396 83.1801 48.2514C83.1801 48.3633 83.4346 48.4548 83.7454 48.4548C84.0774 48.4548 84.4317 48.6228 84.604 48.8616C84.7653 49.0853 85.0601 49.2683 85.2592 49.2683C85.4582 49.2683 85.6211 49.3598 85.6211 49.4717C85.6211 49.5836 85.7841 49.6751 85.983 49.6751C86.1821 49.6751 86.4769 49.8581 86.6382 50.0818C86.7995 50.3055 87.0487 50.4886 87.1921 50.4886C87.7324 50.4886 113.693 76.6868 113.693 77.232C113.693 77.5119 113.784 77.7409 113.896 77.7409C114.015 77.7409 114.099 78.4187 114.099 79.3679C114.099 80.317 114.015 80.9949 113.896 80.9949C113.784 80.9949 113.693 81.2694 113.693 81.605C113.693 81.9406 113.601 82.2151 113.489 82.2151C113.377 82.2151 113.286 82.378 113.286 82.5769C113.286 82.776 113.103 83.0707 112.879 83.232C112.655 83.3933 112.472 83.688 112.472 83.8871C112.472 84.0984 112.322 84.2489 112.11 84.2489C111.911 84.2489 111.616 84.4319 111.455 84.6556C111.294 84.8794 110.999 85.0624 110.8 85.0624C110.601 85.0624 110.438 85.1539 110.438 85.2658C110.438 85.3776 109.988 85.4691 109.438 85.4691C108.837 85.4691 108.39 85.5706 108.319 85.7234C108.224 85.9267 108.177 85.9267 108.082 85.7234C108.01 85.5706 107.564 85.4691 106.963 85.4691C106.413 85.4691 105.963 85.3776 105.963 85.2658C105.963 85.1539 105.825 85.0624 105.656 85.0624C105.487 85.0624 101.323 81.0356 96.4022 76.1139C91.4813 71.1922 87.3172 67.1654 87.1484 67.1654C86.9797 67.1654 86.8416 67.0738 86.8416 66.962C86.8416 66.8501 86.567 66.7586 86.2314 66.7586C85.8957 66.7586 85.6211 66.8501 85.6211 66.962C85.6211 67.0738 85.4773 67.1654 85.3015 67.1654C85.1256 67.1654 84.851 67.2961 84.6913 67.456C84.5314 67.6156 84.4006 67.8902 84.4006 68.0661C84.4006 68.2418 84.3091 68.3856 84.1972 68.3856C84.0853 68.3856 83.9938 68.6602 83.9938 68.9957C83.9938 69.3313 84.0853 69.6059 84.1972 69.6059C84.3091 69.6059 84.4006 69.744 84.4006 69.9126C84.4006 70.0814 88.4283 74.2447 93.3509 79.1645C98.2736 84.0844 102.301 88.2477 102.301 88.4165C102.301 88.5851 102.393 88.7232 102.505 88.7232C102.617 88.7232 102.708 88.9977 102.708 89.3333C102.708 89.6688 102.8 89.9434 102.911 89.9434C103.023 89.9434 103.115 90.401 103.115 90.9603C103.115 91.5196 103.023 91.9772 102.911 91.9772C102.8 91.9772 102.708 92.2517 102.708 92.5873C102.708 92.9229 102.617 93.1974 102.505 93.1974C102.393 93.1974 102.301 93.3603 102.301 93.5592C102.301 93.7583 102.118 94.053 101.894 94.2143C101.671 94.3756 101.488 94.6702 101.488 94.8694C101.488 95.0807 101.337 95.2312 101.126 95.2312C100.927 95.2312 100.632 95.4142 100.47 95.6379C100.309 95.8616 100.014 96.0447 99.8153 96.0447C99.6163 96.0447 99.4534 96.1362 99.4534 96.248C99.4534 96.3701 98.6398 96.4514 97.4193 96.4514C96.1988 96.4514 95.3851 96.3701 95.3851 96.248C95.3851 96.1362 95.202 96.0447 94.9783 96.0447C94.7545 96.0447 94.5714 95.9531 94.5714 95.8413C94.5714 95.7294 94.4333 95.6379 94.2645 95.6379C94.0958 95.6379 90.0232 91.7026 85.2143 86.8928C80.4053 82.0829 76.3327 78.1476 76.1641 78.1476C75.9953 78.1476 75.8571 78.0561 75.8571 77.9443C75.8571 77.8324 75.5825 77.7409 75.2469 77.7409C74.9113 77.7409 74.6366 77.8324 74.6366 77.9443C74.6366 78.0561 74.4928 78.1476 74.3171 78.1476C73.906 78.1476 73.4161 78.6374 73.4161 79.0484C73.4161 79.2241 73.3246 79.3679 73.2127 79.3679C73.1009 79.3679 73.0093 79.5509 73.0093 79.7746C73.0093 79.9983 73.1009 80.1814 73.2127 80.1814C73.3246 80.1814 73.4161 80.3195 73.4161 80.4883C73.4161 80.6571 77.2607 84.6373 81.9596 89.3333C86.6585 94.0292 90.5031 97.9893 90.5031 98.1333C90.5031 98.2775 90.6862 98.5273 90.9099 98.6885C91.1337 98.8498 91.3168 99.1445 91.3168 99.3436C91.3168 99.5425 91.4083 99.7054 91.5202 99.7054C91.6321 99.7054 91.7236 99.8885 91.7236 100.112C91.7236 100.336 91.8151 100.519 91.927 100.519C92.0432 100.519 92.1304 101.129 92.1304 101.943C92.1304 102.756 92.0432 103.366 91.927 103.366C91.8151 103.366 91.7236 103.549 91.7236 103.773C91.7236 103.997 91.6321 104.18 91.5202 104.18C91.4083 104.18 91.3168 104.343 91.3168 104.541C91.3168 104.741 91.1337 105.035 90.9099 105.197C90.6862 105.358 90.5031 105.653 90.5031 105.852C90.5031 106.063 90.3526 106.213 90.1412 106.213C89.9421 106.213 89.6473 106.396 89.486 106.62C89.3137 106.859 88.9594 107.027 88.6274 107.027C88.3166 107.027 88.0621 107.118 88.0621 107.23C88.0621 107.351 87.3162 107.434 86.2314 107.434C85.1466 107.434 84.4006 107.351 84.4006 107.23C84.4006 107.118 84.2568 107.027 84.0811 107.027C83.4354 107.027 83.1801 106.484 83.1801 105.109C83.1801 104.354 83.0916 103.773 82.9767 103.773C82.8648 103.773 82.7733 103.315 82.7733 102.756C82.7733 102.197 82.6817 101.739 82.5699 101.739C82.458 101.739 82.3665 101.556 82.3665 101.332C82.3665 101.109 82.2749 100.926 82.163 100.926C82.0512 100.926 81.9596 100.743 81.9596 100.519C81.9596 100.295 81.8681 100.112 81.7562 100.112C81.6443 100.112 81.5528 99.9733 81.5528 99.8032C81.5528 99.4012 79.0093 96.8582 78.6071 96.8582C78.4371 96.8582 78.2981 96.7666 78.2981 96.6548C78.2981 96.5429 78.1151 96.4514 77.8913 96.4514C77.6675 96.4514 77.4845 96.3599 77.4845 96.248C77.4845 96.1362 77.3014 96.0447 77.0776 96.0447C76.8539 96.0447 76.6708 95.9531 76.6708 95.8413C76.6708 95.7294 76.3047 95.6379 75.8571 95.6379C75.4096 95.6379 75.0435 95.5464 75.0435 95.4345C75.0435 95.3184 74.4332 95.2312 73.6196 95.2312H72.1956V93.8075C72.1956 92.994 72.1084 92.3839 71.9922 92.3839C71.8804 92.3839 71.7888 92.0178 71.7888 91.5704C71.7888 91.123 71.6973 90.7569 71.5854 90.7569C71.4735 90.7569 71.382 90.5739 71.382 90.3502C71.382 90.1264 71.2905 89.9434 71.1786 89.9434C71.0667 89.9434 70.9752 89.7604 70.9752 89.5367C70.9752 89.3129 70.8836 89.1299 70.7717 89.1299C70.6599 89.1299 70.5683 88.991 70.5683 88.821C70.5683 88.4189 68.0248 85.8759 67.6227 85.8759C67.4526 85.8759 67.3137 85.7844 67.3137 85.6725C67.3137 85.5607 67.1306 85.4691 66.9068 85.4691C66.6831 85.4691 66.5 85.3776 66.5 85.2658C66.5 85.1539 66.3169 85.0624 66.0932 85.0624C65.8694 85.0624 65.6863 84.9709 65.6863 84.859C65.6863 84.7472 65.2286 84.6556 64.6693 84.6556C64.1099 84.6556 63.6522 84.5641 63.6522 84.4523C63.6522 84.3392 63.1097 84.2489 62.4317 84.2489H61.2112V82.8253C61.2112 82.0118 61.1239 81.4016 61.0078 81.4016C60.8959 81.4016 60.8043 81.0356 60.8043 80.5881C60.8043 80.1407 60.7128 79.7746 60.6009 79.7746C60.4891 79.7746 60.3975 79.5916 60.3975 79.3679C60.3975 79.1442 60.306 78.9611 60.1941 78.9611C60.0822 78.9611 59.9907 78.7781 59.9907 78.5544C59.9907 78.3307 59.8991 78.1476 59.7873 78.1476C59.6754 78.1476 59.5839 78.0083 59.5839 77.8381C59.5839 77.4612 57.4608 75.3004 57.0904 75.3004C56.9449 75.3004 56.6939 75.1173 56.5326 74.8936C56.3713 74.6699 56.0765 74.4869 55.8774 74.4869C55.6785 74.4869 55.5155 74.3954 55.5155 74.2835C55.5155 74.1716 55.2409 74.0801 54.9053 74.0801C54.5696 74.0801 54.295 73.9886 54.295 73.8767C54.295 73.7649 53.9289 73.6734 53.4814 73.6734C53.0339 73.6734 52.6677 73.5818 52.6677 73.47C52.6677 73.3581 52.3016 73.2666 51.854 73.2666C51.4065 73.2666 51.0404 73.3581 51.0404 73.47C51.0404 73.5818 50.8573 73.6734 50.6335 73.6734C50.2568 73.6734 50.2267 73.5377 50.2267 71.843C50.2267 70.7584 50.1439 70.0126 50.0233 70.0126C49.9114 70.0126 49.8199 69.7381 49.8199 69.4025C49.8199 69.0669 49.7283 68.7924 49.6165 68.7924C49.5046 68.7924 49.413 68.6093 49.413 68.3856C49.413 68.1619 49.3215 67.9789 49.2096 67.9789C49.0978 67.9789 49.0062 67.7958 49.0062 67.5721C49.0062 67.3484 48.9147 67.1654 48.8028 67.1654C48.6909 67.1654 48.5994 67.026 48.5994 66.8558C48.5994 66.479 46.4763 64.3181 46.1059 64.3181C45.9605 64.3181 45.7094 64.1351 45.5481 63.9114C45.3868 63.6876 45.0921 63.5046 44.8929 63.5046C44.694 63.5046 44.5311 63.4131 44.5311 63.3012C44.5311 63.1894 44.2564 63.0979 43.9208 63.0979C43.5852 63.0979 43.3106 63.0063 43.3106 62.8945C43.3106 62.7686 42.2257 62.6911 40.4627 62.6911C38.6997 62.6911 37.6149 62.7686 37.6149 62.8945C37.6149 63.0063 37.3403 63.0979 37.0047 63.0979C36.669 63.0979 36.3944 63.1894 36.3944 63.3012C36.3944 63.4131 36.2315 63.5046 36.0325 63.5046C35.8334 63.5046 35.5386 63.6876 35.3773 63.9114C35.216 64.1351 34.9658 64.3181 34.8214 64.3181C34.6768 64.3181 31.9062 66.9722 28.6646 70.216C25.423 73.4598 22.6774 76.1139 22.5635 76.1139C22.2861 76.1139 13.205 67.0242 13.205 66.7466C13.205 66.6268 12.7473 66.0832 12.1879 65.5384C11.6285 64.9935 11.1708 64.4413 11.1708 64.3112C11.1708 64.181 10.8962 63.818 10.5606 63.5046C10.2249 63.1912 9.95031 62.7883 9.95031 62.6095C9.95031 62.4306 9.85877 62.2844 9.74689 62.2844C9.63502 62.2844 9.54348 62.1214 9.54348 61.9226C9.54348 61.7234 9.3604 61.4287 9.13665 61.2675C8.91289 61.1062 8.72981 60.8115 8.72981 60.6124C8.72981 60.4135 8.63828 60.2506 8.5264 60.2506C8.41452 60.2506 8.32298 60.0676 8.32298 59.8438C8.32298 59.6201 8.23144 59.4371 8.11957 59.4371C8.00769 59.4371 7.91615 59.2541 7.91615 59.0303C7.91615 58.8066 7.82461 58.6236 7.71273 58.6236C7.60085 58.6236 7.50932 58.4406 7.50932 58.2168C7.50932 57.9931 7.41778 57.8101 7.3059 57.8101C7.19402 57.8101 7.10248 57.5355 7.10248 57.2C7.10248 56.8644 7.01095 56.5898 6.89907 56.5898C6.78719 56.5898 6.69565 56.3153 6.69565 55.9797C6.69565 55.6441 6.60412 55.3696 6.49224 55.3696C6.38036 55.3696 6.28882 55.095 6.28882 54.7595C6.28882 54.4239 6.19728 54.1493 6.0854 54.1493C5.97352 54.1493 5.88199 53.8748 5.88199 53.5392C5.88199 53.2036 5.79045 52.9291 5.67857 52.9291C5.56669 52.9291 5.47516 52.4715 5.47516 51.9122C5.47516 51.3529 5.38362 50.8953 5.27174 50.8953C5.15559 50.8953 5.06832 50.2852 5.06832 49.4717C5.06832 48.6582 4.98106 48.0481 4.86491 48.0481C4.73838 48.0481 4.66149 46.8955 4.66149 44.9974C4.66149 43.0993 4.73838 41.9468 4.86491 41.9468C4.97801 41.9468 5.06832 41.4044 5.06832 40.7266C5.06832 40.0487 5.15864 39.5063 5.27174 39.5063C5.38362 39.5063 5.47516 39.0487 5.47516 38.4894C5.47516 37.9301 5.56669 37.4726 5.67857 37.4726C5.79045 37.4726 5.88199 37.198 5.88199 36.8624C5.88199 36.5269 5.97352 36.2523 6.0854 36.2523C6.19728 36.2523 6.28882 35.9777 6.28882 35.6422C6.28882 35.3066 6.38036 35.032 6.49224 35.032C6.60412 35.032 6.69565 34.7575 6.69565 34.4219C6.69565 34.0864 6.78719 33.8118 6.89907 33.8118C7.01095 33.8118 7.10248 33.6288 7.10248 33.405C7.10248 33.1813 7.19402 32.9983 7.3059 32.9983C7.41778 32.9983 7.50932 32.8153 7.50932 32.5915C7.50932 32.3678 7.60085 32.1848 7.71273 32.1848C7.82461 32.1848 7.91615 32.0018 7.91615 31.778C7.91615 31.5543 8.00769 31.3713 8.11957 31.3713C8.23144 31.3713 8.32298 31.1883 8.32298 30.9645C8.32298 30.7408 8.41452 30.5578 8.5264 30.5578C8.63828 30.5578 8.72981 30.3748 8.72981 30.151C8.72981 29.9273 8.82135 29.7443 8.93323 29.7443C9.04511 29.7443 9.13665 29.5814 9.13665 29.3825C9.13665 29.1834 9.31972 28.8887 9.54348 28.7274C9.76724 28.5661 9.95031 28.2916 9.95031 28.1173C9.95031 27.943 10.1334 27.6684 10.3571 27.5072C10.5809 27.3459 10.764 27.0911 10.764 26.9406C10.764 26.7903 11.2217 26.2216 11.7811 25.6768C12.3405 25.1319 12.7981 24.5873 12.7981 24.4665C12.7981 24.1779 15.7768 21.2025 16.0654 21.2025C16.1879 21.2025 16.6399 20.8364 17.0699 20.389C17.4999 19.9416 17.9594 19.5755 18.091 19.5755C18.2228 19.5755 18.5872 19.301 18.9006 18.9654C19.2141 18.6298 19.5969 18.3553 19.7509 18.3553C19.9051 18.3553 20.1632 18.1722 20.3245 17.9485C20.4858 17.7248 20.7806 17.5418 20.9797 17.5418C21.1787 17.5418 21.3416 17.4502 21.3416 17.3384C21.3416 17.2265 21.5247 17.135 21.7484 17.135C21.9722 17.135 22.1553 17.0435 22.1553 16.9316C22.1553 16.8198 22.3384 16.7283 22.5621 16.7283C22.7859 16.7283 22.9689 16.6367 22.9689 16.5249C22.9689 16.413 23.152 16.3215 23.3758 16.3215C23.5995 16.3215 23.7826 16.23 23.7826 16.1181C23.7826 16.0063 23.9657 15.9148 24.1894 15.9148C24.4132 15.9148 24.5963 15.8232 24.5963 15.7114C24.5963 15.5995 24.8709 15.508 25.2065 15.508C25.5422 15.508 25.8168 15.4165 25.8168 15.3046C25.8168 15.1928 26.0914 15.1013 26.427 15.1013C26.7627 15.1013 27.0373 15.0097 27.0373 14.8979C27.0373 14.786 27.3119 14.6945 27.6475 14.6945C27.9832 14.6945 28.2578 14.603 28.2578 14.4911C28.2578 14.3793 28.6239 14.2878 29.0714 14.2878C29.5189 14.2878 29.8851 14.1962 29.8851 14.0844C29.8851 13.9713 30.4276 13.881 31.1056 13.881C31.7836 13.881 32.3261 13.7907 32.3261 13.6776C32.3261 13.5483 33.9534 13.4743 36.8012 13.4743C39.6491 13.4743 41.2764 13.5483 41.2764 13.6776ZM42.4969 66.962C42.4969 67.0738 42.6598 67.1654 42.8588 67.1654C43.0579 67.1654 43.3527 67.3484 43.514 67.5721C43.6753 67.7958 43.9308 67.9789 44.0819 67.9789C44.4361 67.9789 44.9379 68.4806 44.9379 68.8347C44.9379 68.9858 45.121 69.2412 45.3447 69.4025C45.5835 69.5747 45.7516 69.929 45.7516 70.2609C45.7516 70.5717 45.8431 70.8261 45.955 70.8261C46.0711 70.8261 46.1584 71.4362 46.1584 72.2497C46.1584 73.0632 46.0711 73.6734 45.955 73.6734C45.8431 73.6734 45.7516 73.9278 45.7516 74.2385C45.7516 74.5705 45.5835 74.9247 45.3447 75.097C45.121 75.2583 44.9379 75.5076 44.9379 75.6512C44.9379 75.9923 33.0181 87.9096 32.677 87.9096C32.5334 87.9096 32.284 88.0927 32.1227 88.3164C31.9504 88.5552 31.596 88.7232 31.2641 88.7232C30.9532 88.7232 30.6988 88.8147 30.6988 88.9265C30.6988 89.0426 30.0885 89.1299 29.2748 89.1299C28.4612 89.1299 27.8509 89.0426 27.8509 88.9265C27.8509 88.8147 27.6679 88.7232 27.4441 88.7232C27.2203 88.7232 27.0373 88.6316 27.0373 88.5198C27.0373 88.4079 26.8979 88.3164 26.7277 88.3164C26.1951 88.3164 24.1894 86.1505 24.1894 85.5753C24.1894 85.2932 24.0979 85.0624 23.986 85.0624C23.8654 85.0624 23.7826 84.3166 23.7826 83.232C23.7826 82.1474 23.8654 81.4016 23.986 81.4016C24.0979 81.4016 24.1894 81.2554 24.1894 81.0764C24.1894 80.8977 24.4641 80.4948 24.7997 80.1814C25.1353 79.868 25.4099 79.5104 25.4099 79.387C25.4099 79.0937 36.1202 68.3856 36.4135 68.3856C36.537 68.3856 36.8946 68.1111 37.2081 67.7755C37.5215 67.4399 37.9245 67.1654 38.1033 67.1654C38.2823 67.1654 38.4286 67.0738 38.4286 66.962C38.4286 66.84 39.2422 66.7586 40.4627 66.7586C41.6832 66.7586 42.4969 66.84 42.4969 66.962ZM53.4814 77.9443C53.4814 78.0561 53.6443 78.1476 53.8432 78.1476C54.0424 78.1476 54.3371 78.3307 54.4984 78.5544C54.6598 78.7781 54.9545 78.9611 55.1537 78.9611C55.365 78.9611 55.5155 79.1116 55.5155 79.3229C55.5155 79.522 55.6986 79.8167 55.9224 79.978C56.1461 80.1393 56.3292 80.434 56.3292 80.6331C56.3292 80.832 56.4207 80.9949 56.5326 80.9949C56.6445 80.9949 56.736 81.1779 56.736 81.4016C56.736 81.6254 56.8276 81.8084 56.9394 81.8084C57.0525 81.8084 57.1429 82.3508 57.1429 83.0286C57.1429 83.7065 57.0525 84.2489 56.9394 84.2489C56.8276 84.2489 56.736 84.5234 56.736 84.859C56.736 85.1946 56.6445 85.4691 56.5326 85.4691C56.4207 85.4691 56.3292 85.632 56.3292 85.8309C56.3292 86.0301 56.1461 86.3247 55.9224 86.486C55.6986 86.6473 55.5155 86.8966 55.5155 87.0402C55.5155 87.3815 44.4096 98.4852 44.0683 98.4852C43.9247 98.4852 43.6753 98.6682 43.514 98.8919C43.3527 99.1156 43.0579 99.2987 42.8588 99.2987C42.6598 99.2987 42.4969 99.3902 42.4969 99.502C42.4969 99.6139 42.2223 99.7054 41.8866 99.7054C41.551 99.7054 41.2764 99.7969 41.2764 99.9088C41.2764 100.021 40.8187 100.112 40.2593 100.112C39.6999 100.112 39.2422 100.021 39.2422 99.9088C39.2422 99.7969 38.9676 99.7054 38.632 99.7054C38.2964 99.7054 38.0217 99.6139 38.0217 99.502C38.0217 99.3902 37.8824 99.2987 37.7121 99.2987C37.3094 99.2987 35.1739 97.1636 35.1739 96.7609C35.1739 96.5907 35.0824 96.4514 34.9705 96.4514C34.8484 96.4514 34.7671 95.6379 34.7671 94.4177C34.7671 93.1974 34.8484 92.3839 34.9705 92.3839C35.0824 92.3839 35.1739 92.2009 35.1739 91.9772C35.1739 91.7534 35.2654 91.5704 35.3773 91.5704C35.4892 91.5704 35.5807 91.4327 35.5807 91.2645C35.5807 90.8649 47.8937 78.5544 48.2934 78.5544C48.4617 78.5544 48.5994 78.4629 48.5994 78.351C48.5994 78.2392 48.7825 78.1476 49.0062 78.1476C49.23 78.1476 49.413 78.0561 49.413 77.9443C49.413 77.8222 50.2267 77.7409 51.4472 77.7409C52.6677 77.7409 53.4814 77.8222 53.4814 77.9443ZM62.8385 88.5198C62.8385 88.6316 63.2047 88.7232 63.6522 88.7232C64.0997 88.7232 64.4658 88.8147 64.4658 88.9265C64.4658 89.0384 64.6288 89.1299 64.8277 89.1299C65.0269 89.1299 65.3216 89.3129 65.4829 89.5367C65.6442 89.7604 65.939 89.9434 66.1381 89.9434C66.3495 89.9434 66.5 90.0939 66.5 90.3052C66.5 90.5043 66.6831 90.799 66.9068 90.9603C67.1306 91.1216 67.3137 91.4163 67.3137 91.6154C67.3137 91.8143 67.4052 91.9772 67.5171 91.9772C67.629 91.9772 67.7205 92.2517 67.7205 92.5873C67.7205 92.9229 67.812 93.1974 67.9239 93.1974C68.0358 93.1974 68.1273 93.655 68.1273 94.2143C68.1273 94.7736 68.0358 95.2312 67.9239 95.2312C67.812 95.2312 67.7205 95.5057 67.7205 95.8413C67.7205 96.1769 67.629 96.4514 67.5171 96.4514C67.4052 96.4514 67.3137 96.5891 67.3137 96.7573C67.3137 96.9255 64.3391 100.037 60.7035 103.672C57.0678 107.307 53.9555 110.281 53.7873 110.281C53.6191 110.281 53.4814 110.372 53.4814 110.484C53.4814 110.596 53.1152 110.688 52.6677 110.688C52.2202 110.688 51.854 110.779 51.854 110.891C51.854 111.003 51.5794 111.094 51.2438 111.094C50.9082 111.094 50.6335 111.003 50.6335 110.891C50.6335 110.779 50.2674 110.688 49.8199 110.688C49.3724 110.688 49.0062 110.596 49.0062 110.484C49.0062 110.372 48.8669 110.281 48.6966 110.281C48.2938 110.281 46.1584 108.146 46.1584 107.743C46.1584 107.573 46.0668 107.434 45.955 107.434C45.8431 107.434 45.7516 106.984 45.7516 106.434C45.7516 105.833 45.65 105.387 45.4973 105.315C45.2939 105.22 45.2939 105.173 45.4973 105.078C45.6372 105.013 45.7516 104.601 45.7516 104.163C45.7516 103.725 45.8431 103.366 45.955 103.366C46.0668 103.366 46.1584 103.183 46.1584 102.959C46.1584 102.736 46.2499 102.553 46.3618 102.553C46.4737 102.553 46.5652 102.415 46.5652 102.247C46.5652 101.876 58.8633 89.5367 59.233 89.5367C59.3766 89.5367 59.626 89.3536 59.7873 89.1299C60.0102 88.8208 60.3139 88.7232 61.0527 88.7232C61.5873 88.7232 62.0248 88.6316 62.0248 88.5198C62.0248 88.4079 62.2079 88.3164 62.4317 88.3164C62.6554 88.3164 62.8385 88.4079 62.8385 88.5198ZM74.2298 99.502C74.2298 99.6139 74.5044 99.7054 74.8401 99.7054C75.1757 99.7054 75.4503 99.7969 75.4503 99.9088C75.4503 100.021 75.6132 100.112 75.8122 100.112C76.0113 100.112 76.3061 100.295 76.4674 100.519C76.6287 100.743 76.9235 100.926 77.1226 100.926C77.3339 100.926 77.4845 101.076 77.4845 101.287C77.4845 101.487 77.6675 101.781 77.8913 101.943C78.1151 102.104 78.2981 102.399 78.2981 102.598C78.2981 102.797 78.3897 102.959 78.5016 102.959C78.6134 102.959 78.705 103.326 78.705 103.773C78.705 104.22 78.7965 104.586 78.9084 104.586C79.0203 104.586 79.1118 104.769 79.1118 104.993C79.1118 105.217 79.0203 105.4 78.9084 105.4C78.7965 105.4 78.705 105.837 78.705 106.372C78.705 107.111 78.6073 107.414 78.2981 107.637C78.0744 107.798 77.8913 108.048 77.8913 108.191C77.8913 108.561 65.5496 120.856 65.1786 120.856C65.0104 120.856 64.8727 120.948 64.8727 121.06C64.8727 121.172 64.6896 121.263 64.4658 121.263C64.2421 121.263 64.059 121.355 64.059 121.467C64.059 121.578 63.7006 121.67 63.2622 121.67C62.8239 121.67 62.4122 121.784 62.3469 121.924C62.2521 122.128 62.2045 122.128 62.1097 121.924C62.0383 121.771 61.592 121.67 60.9909 121.67C60.4406 121.67 59.9907 121.578 59.9907 121.467C59.9907 121.355 59.8513 121.263 59.6811 121.263C59.2783 121.263 57.1429 119.128 57.1429 118.725C57.1429 118.555 57.0513 118.416 56.9394 118.416C56.8276 118.416 56.736 118.141 56.736 117.806C56.736 117.47 56.6445 117.196 56.5326 117.196C56.4207 117.196 56.3292 116.83 56.3292 116.382C56.3292 115.935 56.4207 115.569 56.5326 115.569C56.6445 115.569 56.736 115.203 56.736 114.755C56.736 114.308 56.8276 113.942 56.9394 113.942C57.0513 113.942 57.1429 113.804 57.1429 113.636C57.1429 113.236 70.2695 100.112 70.6692 100.112C70.8374 100.112 70.9752 100.021 70.9752 99.9088C70.9752 99.7969 71.2498 99.7054 71.5854 99.7054C71.921 99.7054 72.1956 99.6139 72.1956 99.502C72.1956 99.3902 72.6533 99.2987 73.2127 99.2987C73.7721 99.2987 74.2298 99.3902 74.2298 99.502Z" fill="black"/>
</svg>
