<svg width="189" height="72" viewBox="0 0 189 72" fill="none" xmlns="http://www.w3.org/2000/svg">
<g clip-path="url(#clip0)">
<path d="M80.4 20.275C80.4 21.325 80.2167 22.2167 79.85 22.95C79.4833 23.6667 78.9833 24.25 78.35 24.7C77.7333 25.1333 77.0083 25.45 76.175 25.65C75.3417 25.8333 74.45 25.925 73.5 25.925H71.4C71.2 25.925 71.025 25.9917 70.875 26.125C70.725 26.2583 70.65 26.4417 70.65 26.675V31.3C70.65 31.4667 70.5833 31.6167 70.45 31.75C70.3333 31.8667 70.1917 31.925 70.025 31.925H66.45C66.2833 31.925 66.1333 31.8667 66 31.75C65.8833 31.6167 65.825 31.4667 65.825 31.3V16.675C65.825 16.325 65.8917 16.0167 66.025 15.75C66.1583 15.4667 66.3333 15.2333 66.55 15.05C66.7667 14.8667 67 14.7333 67.25 14.65C67.5 14.55 67.75 14.5 68 14.5H73.5C74.45 14.5 75.3417 14.6083 76.175 14.825C77.025 15.025 77.7583 15.3583 78.375 15.825C79.0083 16.275 79.5 16.8667 79.85 17.6C80.2167 18.3333 80.4 19.225 80.4 20.275ZM75.55 20.25C75.55 19.55 75.3583 19.0167 74.975 18.65C74.6083 18.2667 74.075 18.075 73.375 18.075H69.15C69.2833 18.075 69.4333 18.1083 69.6 18.175C69.7667 18.225 69.9167 18.3083 70.05 18.425C70.2 18.5417 70.325 18.6917 70.425 18.875C70.525 19.0417 70.575 19.2333 70.575 19.45V21.6C70.575 21.8333 70.65 22.025 70.8 22.175C70.9667 22.3083 71.15 22.375 71.35 22.375H73.375C74.0583 22.375 74.5917 22.1917 74.975 21.825C75.3583 21.4583 75.55 20.9333 75.55 20.25ZM82.9178 31.3V16.65C82.9178 16.3333 82.9761 16.0417 83.0928 15.775C83.2261 15.5083 83.3928 15.2833 83.5928 15.1C83.8094 14.9167 84.0428 14.775 84.2928 14.675C84.5594 14.5583 84.8261 14.5 85.0928 14.5H87.0428C87.2261 14.5 87.3678 14.5583 87.4678 14.675C87.5844 14.7917 87.6428 14.9417 87.6428 15.125V27.25C87.6428 27.3833 87.7094 27.55 87.8428 27.75C87.9761 27.9333 88.1678 28.025 88.4178 28.025H95.1178C95.3011 28.025 95.4511 28.0833 95.5678 28.2C95.7011 28.3 95.7678 28.45 95.7678 28.65V31.3C95.7678 31.5 95.7011 31.6583 95.5678 31.775C95.4511 31.875 95.3011 31.925 95.1178 31.925H83.5428C83.3928 31.925 83.2511 31.8583 83.1178 31.725C82.9844 31.5917 82.9178 31.45 82.9178 31.3ZM96.708 31.85C96.608 31.7167 96.558 31.5917 96.558 31.475C96.558 31.3583 96.5663 31.2833 96.583 31.25L102.383 15.3C102.566 14.8167 102.9 14.575 103.383 14.575H107.258C107.741 14.575 108.075 14.8167 108.258 15.3L114.058 31.25C114.075 31.2833 114.083 31.3583 114.083 31.475C114.083 31.6083 114.025 31.7333 113.908 31.85C113.808 31.95 113.691 32 113.558 32H110.333C109.916 32 109.633 31.8167 109.483 31.45L108.183 27.925C107.583 28.1583 106.975 28.35 106.358 28.5C105.741 28.65 105.141 28.7667 104.558 28.85C103.991 28.9167 103.458 28.9667 102.958 29C102.458 29.0167 102.025 29.025 101.658 29.025C101.425 29.025 101.225 29.025 101.058 29.025C100.908 29.025 100.791 29.0167 100.708 29C101.008 29.05 101.25 29.2167 101.433 29.5C101.633 29.7833 101.658 30.1167 101.508 30.5L101.158 31.45C101.008 31.8167 100.725 32 100.308 32H97.083C96.9663 32 96.8413 31.95 96.708 31.85ZM103.058 25.45C103.525 25.4167 104.008 25.3583 104.508 25.275C104.941 25.2083 105.391 25.1167 105.858 25C106.341 24.8667 106.8 24.6833 107.233 24.45L105.308 18.95L103.058 25.45ZM120.751 31.35V26.9C120.751 26.6333 120.718 26.3667 120.651 26.1C120.585 25.8167 120.501 25.5833 120.401 25.4L115.001 15.35C114.951 15.2667 114.926 15.175 114.926 15.075C114.926 14.9417 114.976 14.825 115.076 14.725C115.193 14.6083 115.318 14.55 115.451 14.55H118.726C118.91 14.55 119.085 14.6 119.251 14.7C119.435 14.7833 119.56 14.9167 119.626 15.1C120.226 16.1833 120.768 17.1583 121.251 18.025C121.535 18.5583 121.76 18.9833 121.926 19.3C122.11 19.6 122.268 19.8833 122.401 20.15C122.551 20.4167 122.676 20.6417 122.776 20.825C122.893 21.0083 122.96 21.1167 122.976 21.15C123.01 21.2 123.051 21.225 123.101 21.225C123.151 21.225 123.185 21.2 123.201 21.15C123.218 21.1167 123.276 21.0083 123.376 20.825C123.493 20.625 123.626 20.3833 123.776 20.1C123.943 19.8167 124.126 19.4917 124.326 19.125C124.526 18.7583 124.726 18.3917 124.926 18.025C125.41 17.1583 125.951 16.1833 126.551 15.1C126.768 14.7333 127.068 14.55 127.451 14.55H130.726C130.86 14.55 130.976 14.6083 131.076 14.725C131.193 14.825 131.251 14.9417 131.251 15.075C131.251 15.175 131.226 15.2667 131.176 15.35C130.21 17.15 129.335 18.7667 128.551 20.2C128.085 21.0833 127.71 21.7833 127.426 22.3C127.16 22.8 126.91 23.275 126.676 23.725C126.443 24.1583 126.243 24.5333 126.076 24.85C125.91 25.15 125.81 25.325 125.776 25.375C125.66 25.5917 125.568 25.8333 125.501 26.1C125.451 26.35 125.426 26.5917 125.426 26.825V31.35C125.426 31.55 125.368 31.7083 125.251 31.825C125.135 31.925 124.976 31.975 124.776 31.975H121.376C121.193 31.975 121.043 31.9167 120.926 31.8C120.81 31.6833 120.751 31.5333 120.751 31.35ZM137.041 26.275H134.016C133.849 26.275 133.699 26.2167 133.566 26.1C133.433 25.9833 133.366 25.8333 133.366 25.65V16.675C133.366 16.375 133.424 16.1 133.541 15.85C133.674 15.5833 133.841 15.35 134.041 15.15C134.258 14.95 134.499 14.7917 134.766 14.675C135.033 14.5583 135.308 14.5 135.591 14.5H137.041C137.224 14.5 137.374 14.5583 137.491 14.675C137.624 14.7917 137.691 14.9333 137.691 15.1V25.65C137.691 25.8333 137.624 25.9833 137.491 26.1C137.358 26.2167 137.208 26.275 137.041 26.275ZM133.291 31.3V29.575C133.291 29.2583 133.358 28.975 133.491 28.725C133.641 28.4583 133.824 28.2333 134.041 28.05C134.274 27.85 134.516 27.7 134.766 27.6C135.033 27.4833 135.291 27.425 135.541 27.425H137.141C137.308 27.425 137.449 27.5 137.566 27.65C137.699 27.7833 137.766 27.925 137.766 28.075V31.3C137.766 31.45 137.708 31.5917 137.591 31.725C137.474 31.8417 137.324 31.9 137.141 31.9H133.916C133.766 31.9 133.624 31.8417 133.491 31.725C133.358 31.6083 133.291 31.4667 133.291 31.3ZM64.35 52.85C64.25 52.7167 64.2 52.5917 64.2 52.475C64.2 52.3583 64.2083 52.2833 64.225 52.25L70.025 36.3C70.2083 35.8167 70.5417 35.575 71.025 35.575H74.9C75.3833 35.575 75.7167 35.8167 75.9 36.3L81.7 52.25C81.7167 52.2833 81.725 52.3583 81.725 52.475C81.725 52.6083 81.6667 52.7333 81.55 52.85C81.45 52.95 81.3333 53 81.2 53H77.975C77.5583 53 77.275 52.8167 77.125 52.45L75.825 48.925C75.225 49.1583 74.6167 49.35 74 49.5C73.3833 49.65 72.7833 49.7667 72.2 49.85C71.6333 49.9167 71.1 49.9667 70.6 50C70.1 50.0167 69.6667 50.025 69.3 50.025C69.0667 50.025 68.8667 50.025 68.7 50.025C68.55 50.025 68.4333 50.0167 68.35 50C68.65 50.05 68.8917 50.2167 69.075 50.5C69.275 50.7833 69.3 51.1167 69.15 51.5L68.8 52.45C68.65 52.8167 68.3667 53 67.95 53H64.725C64.6083 53 64.4833 52.95 64.35 52.85ZM70.7 46.45C71.1667 46.4167 71.65 46.3583 72.15 46.275C72.5833 46.2083 73.0333 46.1167 73.5 46C73.9833 45.8667 74.4417 45.6833 74.875 45.45L72.95 39.95L70.7 46.45ZM98.2682 52.95H94.7432C94.2765 52.95 93.9432 52.7333 93.7432 52.3L91.1932 47.3C91.0432 47.0333 90.8182 46.9 90.5182 46.9H87.2432C87.6598 46.9 87.9848 47.05 88.2182 47.35C88.4682 47.6333 88.5932 47.925 88.5932 48.225V52.35C88.5932 52.5333 88.5348 52.675 88.4182 52.775C88.3015 52.8917 88.1515 52.95 87.9682 52.95H84.5432C84.3765 52.95 84.2265 52.8917 84.0932 52.775C83.9765 52.6417 83.9182 52.5 83.9182 52.35V37.7C83.9182 37.0833 84.1348 36.575 84.5682 36.175C85.0015 35.7583 85.5098 35.55 86.0932 35.55H91.3932C92.3265 35.55 93.2098 35.65 94.0432 35.85C94.8932 36.05 95.6348 36.375 96.2682 36.825C96.9182 37.275 97.4348 37.8667 97.8182 38.6C98.2015 39.3167 98.3932 40.2 98.3932 41.25C98.3932 42.25 98.1682 43.15 97.7182 43.95C97.2682 44.75 96.6015 45.4 95.7182 45.9C95.5848 45.9833 95.5098 46.0833 95.4932 46.2C95.4932 46.3167 95.5182 46.4083 95.5682 46.475L98.7182 52.175C98.7682 52.275 98.7932 52.3667 98.7932 52.45C98.7932 52.5833 98.7348 52.7 98.6182 52.8C98.5182 52.9 98.4015 52.95 98.2682 52.95ZM93.5682 41.225C93.5682 40.5417 93.3598 40.025 92.9432 39.675C92.5432 39.3083 92.0182 39.125 91.3682 39.125H87.0682C87.4848 39.125 87.8182 39.2667 88.0682 39.55C88.3182 39.8333 88.4432 40.1333 88.4432 40.45V42.475C88.4432 42.675 88.5098 42.85 88.6432 43C88.7932 43.15 88.9765 43.225 89.1932 43.225H91.3682C92.0182 43.225 92.5432 43.0667 92.9432 42.75C93.3598 42.4167 93.5682 41.9083 93.5682 41.225ZM108.653 53.25C106.269 53.25 104.394 52.675 103.028 51.525C101.678 50.375 100.961 48.6917 100.878 46.475C100.861 46.025 100.853 45.2917 100.853 44.275C100.853 43.2417 100.861 42.4917 100.878 42.025C100.961 39.8583 101.686 38.1917 103.053 37.025C104.436 35.8417 106.303 35.25 108.653 35.25C110.136 35.25 111.461 35.4917 112.628 35.975C113.811 36.4583 114.744 37.1583 115.428 38.075C116.111 38.9917 116.469 40.075 116.503 41.325C116.503 41.475 116.444 41.6 116.328 41.7C116.228 41.8 116.103 41.85 115.953 41.85H112.403C112.169 41.85 111.994 41.8083 111.878 41.725C111.778 41.625 111.686 41.45 111.603 41.2C111.369 40.3833 111.011 39.8167 110.528 39.5C110.061 39.1667 109.436 39 108.653 39C106.769 39 105.794 40.05 105.728 42.15C105.711 42.6 105.703 43.2917 105.703 44.225C105.703 45.1583 105.711 45.8667 105.728 46.35C105.794 48.45 106.769 49.5 108.653 49.5C109.419 49.5 110.044 49.3333 110.528 49C111.028 48.6667 111.386 48.1 111.603 47.3C111.669 47.05 111.761 46.8833 111.878 46.8C111.994 46.7 112.169 46.65 112.403 46.65H115.953C116.103 46.65 116.228 46.7 116.328 46.8C116.444 46.9 116.503 47.025 116.503 47.175C116.469 48.425 116.111 49.5083 115.428 50.425C114.744 51.3417 113.811 52.0417 112.628 52.525C111.461 53.0083 110.136 53.25 108.653 53.25ZM117.904 52.85C117.804 52.7167 117.754 52.5917 117.754 52.475C117.754 52.3583 117.762 52.2833 117.779 52.25L123.579 36.3C123.762 35.8167 124.096 35.575 124.579 35.575H128.454C128.937 35.575 129.271 35.8167 129.454 36.3L135.254 52.25C135.271 52.2833 135.279 52.3583 135.279 52.475C135.279 52.6083 135.221 52.7333 135.104 52.85C135.004 52.95 134.887 53 134.754 53H131.529C131.112 53 130.829 52.8167 130.679 52.45L129.379 48.925C128.779 49.1583 128.171 49.35 127.554 49.5C126.937 49.65 126.337 49.7667 125.754 49.85C125.187 49.9167 124.654 49.9667 124.154 50C123.654 50.0167 123.221 50.025 122.854 50.025C122.621 50.025 122.421 50.025 122.254 50.025C122.104 50.025 121.987 50.0167 121.904 50C122.204 50.05 122.446 50.2167 122.629 50.5C122.829 50.7833 122.854 51.1167 122.704 51.5L122.354 52.45C122.204 52.8167 121.921 53 121.504 53H118.279C118.162 53 118.037 52.95 117.904 52.85ZM124.254 46.45C124.721 46.4167 125.204 46.3583 125.704 46.275C126.137 46.2083 126.587 46.1167 127.054 46C127.537 45.8667 127.996 45.6833 128.429 45.45L126.504 39.95L124.254 46.45ZM137.447 52.375V37.75C137.447 37.1167 137.664 36.6 138.097 36.2C138.547 35.7833 139.056 35.575 139.622 35.575H144.622C145.739 35.575 146.764 35.7083 147.697 35.975C148.647 36.225 149.472 36.6333 150.172 37.2C150.872 37.75 151.422 38.4583 151.822 39.325C152.222 40.175 152.439 41.1917 152.472 42.375C152.489 42.6083 152.497 42.8917 152.497 43.225C152.497 43.5417 152.497 43.9 152.497 44.3C152.497 44.6833 152.497 45.0333 152.497 45.35C152.497 45.6667 152.489 45.9417 152.472 46.175C152.322 50.725 149.747 53 144.747 53H138.072C137.889 53 137.739 52.9417 137.622 52.825C137.506 52.7083 137.447 52.5583 137.447 52.375ZM144.622 49.275C145.706 49.275 146.489 49.0167 146.972 48.5C147.456 47.9667 147.706 47.175 147.722 46.125C147.739 45.8917 147.747 45.625 147.747 45.325C147.764 45.0083 147.772 44.6583 147.772 44.275C147.772 43.8917 147.764 43.55 147.747 43.25C147.747 42.9333 147.739 42.6583 147.722 42.425C147.672 40.3417 146.597 39.3 144.497 39.3H140.747C141.131 39.3 141.456 39.4417 141.722 39.725C141.989 39.9917 142.122 40.2833 142.122 40.6V48.5C142.122 48.7167 142.189 48.9 142.322 49.05C142.472 49.2 142.664 49.275 142.897 49.275H144.622ZM155.641 52.325V37.7C155.641 37.0667 155.858 36.55 156.291 36.15C156.724 35.7333 157.233 35.525 157.816 35.525H168.016C168.199 35.525 168.349 35.5917 168.466 35.725C168.599 35.8417 168.666 35.9917 168.666 36.175V38.65C168.666 38.8333 168.608 38.975 168.491 39.075C168.374 39.1917 168.216 39.25 168.016 39.25H158.791C159.191 39.25 159.516 39.3917 159.766 39.675C160.033 39.9583 160.166 40.2667 160.166 40.6V41.65C160.166 41.8333 160.224 42.0083 160.341 42.175C160.474 42.3417 160.666 42.425 160.916 42.425H166.366C166.549 42.425 166.699 42.4917 166.816 42.625C166.949 42.7417 167.016 42.8917 167.016 43.075V45.325C167.016 45.5083 166.949 45.6667 166.816 45.8C166.699 45.9167 166.549 45.975 166.366 45.975H158.791C159.174 45.975 159.499 46.1083 159.766 46.375C160.033 46.6417 160.166 46.9417 160.166 47.275V48.45C160.166 48.6333 160.233 48.8083 160.366 48.975C160.499 49.1417 160.683 49.225 160.916 49.225H168.216C168.649 49.225 168.866 49.4417 168.866 49.875V52.325C168.866 52.525 168.799 52.6833 168.666 52.8C168.549 52.9 168.399 52.95 168.216 52.95H156.266C156.099 52.95 155.949 52.8917 155.816 52.775C155.699 52.6417 155.641 52.4917 155.641 52.325Z" fill="black"/>
<g clip-path="url(#clip1)">
<path d="M42.4535 29.4098L41.577 28.5333C40.9634 27.9197 40.9111 26.9768 41.4609 26.427L50.8427 15.7408C52.1987 14.3848 53.739 14.9045 54.9106 16.0761C56.0824 17.248 56.662 18.8279 55.2959 20.194L44.5597 29.5259C44.0104 30.0753 43.067 30.0233 42.4535 29.4098Z" fill="black"/>
<path d="M56.7254 25.6021L55.6646 26.2143C55.1807 26.4937 54.9526 27.0705 55.1171 27.6044C56.9898 33.6853 55.5186 40.5748 50.7016 45.3842C43.7904 52.2841 32.5183 52.2719 25.6213 45.3569C18.7144 38.433 18.7195 27.2199 25.6378 20.3016C30.4317 15.5077 37.2878 14.0342 43.3507 15.8786C43.8846 16.0412 44.4595 15.8131 44.7385 15.3305L45.3511 14.2693C45.7328 13.6077 45.41 12.759 44.6829 12.5267C37.3919 10.1969 29.0953 11.8848 23.2628 17.5929C14.8059 25.8688 14.6721 39.3585 22.9706 47.7927C31.2884 56.2463 44.8846 56.2878 53.2543 47.9181C59.1113 42.0611 60.8483 33.6447 58.4676 26.2689C58.2329 25.5432 57.3856 25.2209 56.7254 25.6021Z" fill="black"/>
<rect x="38.5012" y="28.1765" width="5.99789" height="5.99791" rx="2.99895" transform="rotate(45 38.5012 28.1765)" fill="black"/>
<path fill-rule="evenodd" clip-rule="evenodd" d="M27.7397 39.6919C28.1583 40.307 28.6353 40.8938 29.1709 41.4445C34.2759 46.6937 42.6696 46.738 47.8301 41.5774C50.7192 38.6884 52.0591 35.0218 51.6852 31.2502C51.6385 30.7786 51.3571 30.6379 50.9629 30.6692C47.8519 30.9167 47.8393 32.3796 47.8281 33.6965C47.8243 34.135 47.8207 34.5573 47.7029 34.9132C47.2948 36.3542 46.5394 37.7175 45.4372 38.8716C41.8082 42.6712 35.7117 42.7885 31.9456 39.1251C31.3071 38.504 30.7749 37.8158 30.3488 37.0828L27.7397 39.6919Z" fill="black"/>
<path fill-rule="evenodd" clip-rule="evenodd" d="M31.188 43.14C30.5729 42.7214 29.9861 42.2444 29.4354 41.7088C24.1862 36.6039 24.1419 28.2102 29.3025 23.0497C32.1915 20.1606 35.8581 18.8206 39.6297 19.1945C40.1013 19.2413 40.242 19.5227 40.2107 19.9169C39.9632 23.0279 38.5003 23.0404 37.1834 23.0517C36.7449 23.0555 36.3226 23.0591 35.9667 23.1769C34.5257 23.585 33.1624 24.3404 32.0083 25.4426C28.2087 29.0716 28.0914 35.168 31.7548 38.9342C32.3759 39.5727 33.0641 40.1049 33.7971 40.5309L31.188 43.14Z" fill="black"/>
</g>
</g>
<defs>
<clipPath id="clip0">
<rect width="189" height="72" fill="white"/>
</clipPath>
<clipPath id="clip1">
<rect x="43.0723" y="-5.04578" width="46.6502" height="53.5811" transform="rotate(45 43.0723 -5.04578)" fill="white"/>
</clipPath>
</defs>
</svg>
