<svg width="107" height="107" viewBox="0 0 107 107" fill="none" xmlns="http://www.w3.org/2000/svg">
<g clip-path="url(#clip0)">
<path d="M13.5734 26.9979C12.6958 26.9979 11.9843 27.7095 11.9843 28.587V32.7982C11.9843 33.6758 12.6958 34.3874 13.5734 34.3874C14.4509 34.3874 15.1625 33.6758 15.1625 32.7982V28.587C15.1625 27.7095 14.4509 26.9979 13.5734 26.9979Z" fill="black"/>
<path d="M13.5734 38.3353C12.6958 38.3353 11.9843 39.0469 11.9843 39.9244V44.1357C11.9843 45.0132 12.6958 45.7248 13.5734 45.7248C14.4509 45.7248 15.1625 45.0132 15.1625 44.1357V39.9244C15.1625 39.0469 14.4509 38.3353 13.5734 38.3353Z" fill="black"/>
<path d="M21.3475 34.7724H17.1365C16.259 34.7724 15.5474 35.484 15.5474 36.3615C15.5474 37.2391 16.259 37.9506 17.1365 37.9506H21.3477C22.2253 37.9506 22.9369 37.2391 22.9369 36.3615C22.9366 35.484 22.2253 34.7724 21.3475 34.7724Z" fill="black"/>
<path d="M10.0099 34.7724H5.79884C4.92131 34.7724 4.20972 35.484 4.20972 36.3615C4.20972 37.2391 4.92131 37.9506 5.79884 37.9506H10.0101C10.8876 37.9506 11.5992 37.2391 11.5992 36.3615C11.599 35.484 10.8876 34.7724 10.0099 34.7724Z" fill="black"/>
<path d="M91.9678 6.04968C91.0903 6.04968 90.3787 6.76128 90.3787 7.6388V11.8501C90.3787 12.7276 91.0903 13.4392 91.9678 13.4392C92.8453 13.4392 93.5569 12.7276 93.5569 11.8501V7.6388C93.5569 6.76107 92.8453 6.04968 91.9678 6.04968Z" fill="black"/>
<path d="M91.9678 17.3873C91.0903 17.3873 90.3787 18.0989 90.3787 18.9765V23.1877C90.3787 24.065 91.0903 24.7766 91.9678 24.7766C92.8453 24.7766 93.5569 24.065 93.5569 23.1875V18.9765C93.5569 18.0987 92.8453 17.3873 91.9678 17.3873Z" fill="black"/>
<path d="M99.7421 13.824H95.5309C94.6534 13.824 93.9418 14.5356 93.9418 15.4131C93.9418 16.2906 94.6534 17.0022 95.5309 17.0022H99.7421C100.62 17.0022 101.331 16.2906 101.331 15.4131C101.331 14.5356 100.62 13.824 99.7421 13.824Z" fill="black"/>
<path d="M88.4045 13.824H84.1933C83.3157 13.824 82.6041 14.5356 82.6041 15.4131C82.6041 16.2906 83.3157 17.0022 84.1933 17.0022H88.4045C89.282 17.0022 89.9936 16.2906 89.9936 15.4131C89.9936 14.5356 89.282 13.824 88.4045 13.824Z" fill="black"/>
<path d="M57.1616 73.1585C55.5019 73.2285 53.8062 73.2638 52.1213 73.2638C41.9112 73.2638 32.3334 71.9957 25.1529 69.6927C18.7235 67.6308 14.885 64.9052 14.885 62.4016C14.885 60.8923 16.3596 59.2196 19.0376 57.6913C22.0348 55.9805 26.3976 54.5105 31.6536 53.4401C32.5135 53.265 33.0688 52.4259 32.8937 51.5657C32.7188 50.7058 31.8793 50.1507 31.0193 50.3256C25.4323 51.4633 20.9343 52.9965 17.6869 54.8159C20.4457 49.0859 24.2582 43.6517 28.7784 39.2777C29.4091 38.6674 29.4256 37.6614 28.8151 37.0307C28.2049 36.4001 27.1988 36.3834 26.5681 36.9939C21.5684 41.8321 17.3293 47.8839 14.3091 54.4947C11.2966 61.089 9.7041 67.7786 9.7041 73.8406C9.7041 79.019 10.8761 83.819 13.1875 88.1075C13.4746 88.6405 14.0221 88.9431 14.5877 88.9431C14.8424 88.9431 15.1005 88.8818 15.3402 88.7527C16.1128 88.3364 16.4014 87.3726 15.9851 86.5999C13.9264 82.7797 12.8823 78.4869 12.8823 73.8406C12.8823 71.6011 13.1289 69.2688 13.5914 66.8979C19.1383 73.1273 36.0425 76.442 52.1211 76.442C53.8503 76.442 55.5911 76.4057 57.2952 76.334C58.1721 76.2972 58.8529 75.5561 58.8162 74.6795C58.7794 73.8028 58.032 73.1213 57.1616 73.1585Z" fill="black"/>
<path d="M94.4246 70.9934C94.3554 70.1188 93.5903 69.4649 92.7157 69.5339C91.8409 69.6024 91.1872 70.3677 91.2558 71.2425C91.3249 72.1224 91.3601 72.9963 91.3601 73.8404C91.3601 82.8218 87.4504 90.425 80.0536 95.8286C72.9974 100.983 63.0779 103.822 52.1221 103.822C38.1975 103.822 26.2519 99.3042 19.3493 91.4277C18.7709 90.7678 17.7669 90.7017 17.1067 91.28C16.4468 91.8585 16.3807 92.8626 16.959 93.5224C24.4653 102.087 37.2819 107 52.1223 107C63.7471 107 74.3322 103.944 81.9284 98.3949C90.1778 92.3686 94.5383 83.8778 94.5383 73.8402C94.5385 72.9134 94.5003 71.9556 94.4246 70.9934Z" fill="black"/>
<path d="M81.2456 40.8089C79.9557 39.2919 78.5902 37.8524 77.1877 36.5306C76.5486 35.9285 75.543 35.9584 74.9411 36.5968C74.3393 37.2353 74.3691 38.2413 75.0076 38.8432C76.3254 40.0852 77.6094 41.4392 78.8243 42.8676C79.1386 43.2373 79.5856 43.4275 80.0355 43.4275C80.3996 43.4275 80.7653 43.3031 81.0642 43.0488C81.7331 42.4806 81.8144 41.4774 81.2456 40.8089Z" fill="black"/>
<path d="M60.7025 12.183C60.1719 10.9261 58.3431 10.8942 57.7839 12.1475C57.4929 12.7997 57.6879 13.5976 58.2518 14.0384C58.7659 14.4402 59.4875 14.4885 60.0482 14.1558C60.7145 13.7596 61.0054 12.9002 60.7025 12.183Z" fill="black"/>
<path d="M53.5898 13.2551C53.0746 12.0344 51.3002 11.9498 50.7031 13.1492C50.3915 13.7755 50.5275 14.5531 51.0429 15.0296C51.5549 15.5027 52.3392 15.5828 52.9378 15.2267C53.6101 14.8265 53.8776 13.9757 53.5898 13.2551Z" fill="black"/>
<path d="M57.9757 17.5158C57.7121 16.8914 57.0706 16.4876 56.3907 16.5397C55.7404 16.5896 55.179 17.0391 54.9882 17.6623C54.5711 19.0259 56.1034 20.2111 57.3209 19.4882C57.9868 19.0934 58.2787 18.2322 57.9757 17.5158Z" fill="black"/>
<path d="M79.6502 71.2064C79.4063 70.3635 78.5252 69.8774 77.6817 70.1217C76.5227 70.4572 75.2859 70.7729 74.0065 71.0599C73.1501 71.2521 72.6118 72.1021 72.8038 72.9583C72.9695 73.6975 73.6256 74.1999 74.3528 74.1999C74.4682 74.1999 74.585 74.1871 74.7022 74.1608C76.0448 73.8594 77.3444 73.5278 78.5653 73.1742C79.4084 72.9307 79.8941 72.0494 79.6502 71.2064Z" fill="black"/>
<path d="M76.3173 51.0244C69.3305 49.2821 60.9636 48.3613 52.1212 48.3613C47.1434 48.3613 42.2897 48.6556 37.6946 49.2364C36.8239 49.3463 36.2072 50.1415 36.3174 51.0121C36.4275 51.8829 37.2216 52.4992 38.0931 52.3895C42.5564 51.8255 47.2761 51.5394 52.1212 51.5394C60.7084 51.5394 68.8093 52.4276 75.5484 54.1082C75.6776 54.1402 75.8069 54.1557 75.9342 54.1557C76.6466 54.1557 77.2947 53.6731 77.4748 52.9507C77.6871 52.0992 77.1689 51.2366 76.3173 51.0244Z" fill="black"/>
<path d="M66.3322 15.9294V5.44844C66.3319 1.14754 57.3995 0 52.1216 0C46.8437 0 37.9113 1.14754 37.9113 5.44844V15.9297C31.197 18.5533 27.2242 22.8794 27.2242 27.647C27.2242 35.6152 38.1608 41.8571 52.1224 41.8571C55.3878 41.8571 58.5592 41.51 61.5489 40.8252C62.4045 40.6292 62.9391 39.7767 62.743 38.9213C62.547 38.066 61.6948 37.5316 60.8392 37.7272C58.0821 38.3585 55.1494 38.6787 52.1224 38.6787C40.3491 38.6787 30.4024 33.6265 30.4024 27.6466C30.4024 24.5411 33.2271 21.4786 37.9113 19.3733V24.0155C37.4567 23.8197 37.0181 23.6157 36.6045 23.3998C35.8266 22.9933 34.8663 23.2947 34.4603 24.0725C34.0538 24.8504 34.355 25.8105 35.133 26.2167C39.3976 28.4445 45.5898 29.722 52.1218 29.722C58.6545 29.722 64.8473 28.4437 69.1119 26.2153C69.8897 25.8088 70.1908 24.8487 69.7842 24.0709C69.3777 23.293 68.4176 22.9919 67.6398 23.3986C67.226 23.6147 66.7869 23.819 66.3322 24.0149V19.3737C71.0159 21.4803 73.8406 24.5425 73.8406 27.647C73.8406 30.6058 71.3273 33.5174 66.9451 35.6355C66.1549 36.0173 65.8239 36.9675 66.2059 37.7577C66.4801 38.3251 67.0473 38.6557 67.6379 38.6557C67.8699 38.6557 68.1056 38.6047 68.3282 38.4971C73.851 35.8275 77.019 31.8731 77.019 27.6472C77.0188 22.8809 73.0462 18.5545 66.3322 15.9294ZM52.1216 3.17824C58.764 3.17824 62.416 4.68899 63.0895 5.44865C62.416 6.2081 58.7638 7.71885 52.1216 7.71885C45.4794 7.71885 41.8272 6.2081 41.1537 5.44865C41.8272 4.68899 45.4794 3.17824 52.1216 3.17824ZM63.1537 24.1904C62.7119 24.883 59.3404 26.3981 53.0328 26.5335C52.7297 26.5392 52.4265 26.5442 52.1216 26.5442C51.8165 26.5442 51.5132 26.5394 51.2102 26.5333C44.9026 26.3979 41.5313 24.883 41.0895 24.1902V17.0005C41.0893 16.9921 41.0897 16.9842 41.0895 16.9758V9.0946C44.1716 10.4553 48.8489 10.8969 52.1216 10.8969C55.3943 10.8969 60.0716 10.4553 63.1537 9.0946V24.1904Z" fill="black"/>
<path d="M100.058 57.2665L95.9372 56.431C92.4948 55.733 89.8194 53.0576 89.1214 49.6152L88.2859 45.4944C87.9596 43.8857 86.5856 42.762 84.9438 42.762C83.3024 42.762 81.9281 43.8857 81.6019 45.4944L80.7664 49.615C80.0684 53.0574 77.393 55.7328 73.9506 56.4308L69.83 57.2663C68.2212 57.5924 67.0975 58.9666 67.0975 60.6084C67.0975 62.25 68.2212 63.6241 69.83 63.9503L73.9506 64.7858C77.393 65.4838 80.0684 68.1592 80.7664 71.6016L81.6019 75.7224C81.9281 77.3312 83.3022 78.4549 84.9438 78.4549C86.5854 78.4549 87.9594 77.3312 88.2859 75.7224L89.1214 71.6018C89.8194 68.1595 92.4948 65.484 95.9372 64.786L100.058 63.9505C101.667 63.6245 102.79 62.2502 102.79 60.6086C102.79 58.9671 101.667 57.5926 100.058 57.2665ZM99.4264 60.8354L95.3059 61.6709C90.6092 62.623 86.959 66.2732 86.0067 70.9699L85.1712 75.0906C85.1553 75.169 85.1335 75.2762 84.944 75.2762C84.7547 75.2762 84.7327 75.169 84.717 75.0906L83.8815 70.9699C82.9292 66.2732 79.279 62.623 74.5823 61.6709L70.4618 60.8354C70.3834 60.8195 70.2762 60.798 70.2762 60.6082C70.2762 60.4185 70.3834 60.3969 70.4618 60.381L74.5823 59.5457C79.279 58.5936 82.9292 54.9435 83.8815 50.2467L84.717 46.126C84.7329 46.0476 84.7547 45.9404 84.944 45.9404C85.1333 45.9404 85.1553 46.0476 85.1712 46.126L86.0067 50.2467C86.959 54.9435 90.6092 58.5936 95.3059 59.5457L99.4264 60.3813C99.5048 60.3971 99.612 60.4187 99.612 60.6084C99.612 60.7982 99.5048 60.8195 99.4264 60.8354Z" fill="black"/>
<path d="M76.7434 77.7829L75.4555 77.5216C72.8306 76.9891 70.7907 74.9492 70.2586 72.3246L69.9976 71.0364C69.6933 69.5361 68.4118 68.488 66.8808 68.488C65.3498 68.488 64.0683 69.5361 63.764 71.0364L63.5028 72.3246C62.9707 74.9494 60.9308 76.9891 58.306 77.5214L57.0178 77.7826C55.5175 78.0869 54.4694 79.3686 54.4694 80.8994C54.4694 82.4303 55.5175 83.712 57.0178 84.0162L58.306 84.2775C60.9308 84.8098 62.9707 86.8495 63.5028 89.4745L63.764 90.7625C64.0683 92.2628 65.3498 93.3108 66.8808 93.3108C68.4118 93.3108 69.6933 92.2628 69.9976 90.7625L70.2586 89.4745C70.7909 86.8497 72.8306 84.81 75.4555 84.2777L76.7434 84.0165C78.244 83.7122 79.2918 82.4305 79.2918 80.8997C79.2918 79.3688 78.244 78.0871 76.7434 77.7829ZM76.1136 80.9009C76.1131 80.9009 76.1125 80.9011 76.1121 80.9013L74.8241 81.1626C70.945 81.949 67.9303 84.9636 67.1437 88.8427L66.8827 90.1307C66.8827 90.1311 66.8825 90.1318 66.8825 90.1322C66.8814 90.1322 66.8804 90.1322 66.8794 90.1322C66.8794 90.1318 66.8792 90.1311 66.8792 90.1305L66.6179 88.8425C65.8317 84.9634 62.8169 81.9488 58.9375 81.1623L57.6493 80.9011C57.6489 80.9011 57.6483 80.9009 57.6479 80.9009C57.6479 80.8999 57.6479 80.8988 57.6479 80.8978C57.6483 80.8978 57.6487 80.8976 57.6493 80.8976L58.9375 80.6365C62.8167 79.8501 65.8313 76.8353 66.6179 72.9563L66.8792 71.6682C66.8792 71.6677 66.8794 71.6671 66.8794 71.6667C66.8804 71.6667 66.8814 71.6667 66.8825 71.6667C66.8825 71.6671 66.8827 71.6677 66.8827 71.6682L67.1437 72.9563C67.9301 76.8355 70.945 79.8499 74.8241 80.6365L76.1121 80.8973C76.1125 80.8973 76.1131 80.8976 76.1136 80.8978C76.1136 80.8988 76.1136 80.8999 76.1136 80.9009Z" fill="black"/>
</g>
<defs>
<clipPath id="clip0">
<rect width="107" height="107" fill="white"/>
</clipPath>
</defs>
</svg>
