<svg width="250" height="250" viewBox="0 0 250 250" fill="none" xmlns="http://www.w3.org/2000/svg">
<rect x="1.5" y="1.5" width="247" height="247" rx="65.5" fill="white" stroke="black" stroke-width="3"/>
<path d="M36.4617 210.25V192.7C36.4617 191.94 36.7217 191.32 37.2417 190.84C37.7817 190.34 38.3917 190.09 39.0717 190.09H45.0717C46.4117 190.09 47.6417 190.25 48.7617 190.57C49.9017 190.87 50.8917 191.36 51.7317 192.04C52.5717 192.7 53.2317 193.55 53.7117 194.59C54.1917 195.61 54.4517 196.83 54.4917 198.25C54.5117 198.53 54.5217 198.87 54.5217 199.27C54.5217 199.65 54.5217 200.08 54.5217 200.56C54.5217 201.02 54.5217 201.44 54.5217 201.82C54.5217 202.2 54.5117 202.53 54.4917 202.81C54.3117 208.27 51.2217 211 45.2217 211H37.2117C36.9917 211 36.8117 210.93 36.6717 210.79C36.5317 210.65 36.4617 210.47 36.4617 210.25ZM45.0717 206.53C46.3717 206.53 47.3117 206.22 47.8917 205.6C48.4717 204.96 48.7717 204.01 48.7917 202.75C48.8117 202.47 48.8217 202.15 48.8217 201.79C48.8417 201.41 48.8517 200.99 48.8517 200.53C48.8517 200.07 48.8417 199.66 48.8217 199.3C48.8217 198.92 48.8117 198.59 48.7917 198.31C48.7317 195.81 47.4417 194.56 44.9217 194.56H40.4217C40.8817 194.56 41.2717 194.73 41.5917 195.07C41.9117 195.39 42.0717 195.74 42.0717 196.12V205.6C42.0717 205.86 42.1517 206.08 42.3117 206.26C42.4917 206.44 42.7217 206.53 43.0017 206.53H45.0717ZM58.2542 210.19V192.64C58.2542 191.88 58.5142 191.26 59.0342 190.78C59.5542 190.28 60.1642 190.03 60.8642 190.03H73.1042C73.3242 190.03 73.5042 190.11 73.6442 190.27C73.8042 190.41 73.8842 190.59 73.8842 190.81V193.78C73.8842 194 73.8142 194.17 73.6742 194.29C73.5342 194.43 73.3442 194.5 73.1042 194.5H62.0342C62.5142 194.5 62.9042 194.67 63.2042 195.01C63.5242 195.35 63.6842 195.72 63.6842 196.12V197.38C63.6842 197.6 63.7542 197.81 63.8942 198.01C64.0542 198.21 64.2842 198.31 64.5842 198.31H71.1242C71.3442 198.31 71.5242 198.39 71.6642 198.55C71.8242 198.69 71.9042 198.87 71.9042 199.09V201.79C71.9042 202.01 71.8242 202.2 71.6642 202.36C71.5242 202.5 71.3442 202.57 71.1242 202.57H62.0342C62.4942 202.57 62.8842 202.73 63.2042 203.05C63.5242 203.37 63.6842 203.73 63.6842 204.13V205.54C63.6842 205.76 63.7642 205.97 63.9242 206.17C64.0842 206.37 64.3042 206.47 64.5842 206.47H73.3442C73.8642 206.47 74.1242 206.73 74.1242 207.25V210.19C74.1242 210.43 74.0442 210.62 73.8842 210.76C73.7442 210.88 73.5642 210.94 73.3442 210.94H59.0042C58.8042 210.94 58.6242 210.87 58.4642 210.73C58.3242 210.57 58.2542 210.39 58.2542 210.19ZM95.1343 190C95.2943 190 95.4343 190.06 95.5543 190.18C95.6943 190.3 95.7643 190.44 95.7643 190.6C95.7643 190.74 95.7543 190.83 95.7343 190.87L89.6743 210.01C89.6143 210.23 89.4843 210.44 89.2843 210.64C89.1043 210.8 88.8243 210.88 88.4443 210.88H83.6443C83.2643 210.88 82.9843 210.8 82.8043 210.64C82.6043 210.46 82.4643 210.25 82.3843 210.01L76.3543 190.87L76.2943 190.6C76.2943 190.44 76.3543 190.3 76.4743 190.18C76.6143 190.06 76.7743 190 76.9543 190H80.8543C81.1743 190 81.4243 190.08 81.6043 190.24C81.7843 190.42 81.9043 190.6 81.9643 190.78L85.8943 203.8C85.8943 203.88 85.9443 203.92 86.0443 203.92C86.1243 203.92 86.1643 203.88 86.1643 203.8L90.1243 190.78C90.2043 190.52 90.3443 190.33 90.5443 190.21C90.7443 190.07 90.9743 190 91.2343 190H95.1343ZM98.7323 210.19V192.64C98.7323 191.88 98.9923 191.26 99.5123 190.78C100.032 190.28 100.642 190.03 101.342 190.03H113.582C113.802 190.03 113.982 190.11 114.122 190.27C114.282 190.41 114.362 190.59 114.362 190.81V193.78C114.362 194 114.292 194.17 114.152 194.29C114.012 194.43 113.822 194.5 113.582 194.5H102.512C102.992 194.5 103.382 194.67 103.682 195.01C104.002 195.35 104.162 195.72 104.162 196.12V197.38C104.162 197.6 104.232 197.81 104.372 198.01C104.532 198.21 104.762 198.31 105.062 198.31H111.602C111.822 198.31 112.002 198.39 112.142 198.55C112.302 198.69 112.382 198.87 112.382 199.09V201.79C112.382 202.01 112.302 202.2 112.142 202.36C112.002 202.5 111.822 202.57 111.602 202.57H102.512C102.972 202.57 103.362 202.73 103.682 203.05C104.002 203.37 104.162 203.73 104.162 204.13V205.54C104.162 205.76 104.242 205.97 104.402 206.17C104.562 206.37 104.782 206.47 105.062 206.47H113.822C114.342 206.47 114.602 206.73 114.602 207.25V210.19C114.602 210.43 114.522 210.62 114.362 210.76C114.222 210.88 114.042 210.94 113.822 210.94H99.4823C99.2823 210.94 99.1023 210.87 98.9423 210.73C98.8023 210.57 98.7323 210.39 98.7323 210.19ZM118.21 210.16V192.58C118.21 192.2 118.28 191.85 118.42 191.53C118.58 191.21 118.78 190.94 119.02 190.72C119.28 190.5 119.56 190.33 119.86 190.21C120.18 190.07 120.5 190 120.82 190H123.16C123.38 190 123.55 190.07 123.67 190.21C123.81 190.35 123.88 190.53 123.88 190.75V205.3C123.88 205.46 123.96 205.66 124.12 205.9C124.28 206.12 124.51 206.23 124.81 206.23H132.85C133.07 206.23 133.25 206.3 133.39 206.44C133.55 206.56 133.63 206.74 133.63 206.98V210.16C133.63 210.4 133.55 210.59 133.39 210.73C133.25 210.85 133.07 210.91 132.85 210.91H118.96C118.78 210.91 118.61 210.83 118.45 210.67C118.29 210.51 118.21 210.34 118.21 210.16ZM144.804 211.3C141.964 211.3 139.724 210.61 138.084 209.23C136.444 207.85 135.574 205.82 135.474 203.14C135.454 202.58 135.444 201.72 135.444 200.56C135.444 199.4 135.454 198.53 135.474 197.95C135.554 195.31 136.424 193.28 138.084 191.86C139.764 190.42 142.004 189.7 144.804 189.7C147.584 189.7 149.804 190.42 151.464 191.86C153.144 193.28 154.024 195.31 154.104 197.95C154.144 199.11 154.164 199.98 154.164 200.56C154.164 201.16 154.144 202.02 154.104 203.14C154.004 205.82 153.134 207.85 151.494 209.23C149.874 210.61 147.644 211.3 144.804 211.3ZM144.804 206.8C145.844 206.8 146.674 206.49 147.294 205.87C147.914 205.23 148.244 204.26 148.284 202.96C148.324 201.8 148.344 200.97 148.344 200.47C148.344 199.97 148.324 199.16 148.284 198.04C148.244 196.74 147.914 195.78 147.294 195.16C146.674 194.52 145.844 194.2 144.804 194.2C143.744 194.2 142.904 194.52 142.284 195.16C141.664 195.78 141.334 196.74 141.294 198.04C141.274 198.6 141.264 199.41 141.264 200.47C141.264 201.55 141.274 202.38 141.294 202.96C141.334 204.26 141.664 205.23 142.284 205.87C142.904 206.49 143.744 206.8 144.804 206.8ZM175.39 196.93C175.39 198.19 175.17 199.26 174.73 200.14C174.29 201 173.69 201.7 172.93 202.24C172.19 202.76 171.32 203.14 170.32 203.38C169.32 203.6 168.25 203.71 167.11 203.71H164.59C164.35 203.71 164.14 203.79 163.96 203.95C163.78 204.11 163.69 204.33 163.69 204.61V210.16C163.69 210.36 163.61 210.54 163.45 210.7C163.31 210.84 163.14 210.91 162.94 210.91H158.65C158.45 210.91 158.27 210.84 158.11 210.7C157.97 210.54 157.9 210.36 157.9 210.16V192.61C157.9 192.19 157.98 191.82 158.14 191.5C158.3 191.16 158.51 190.88 158.77 190.66C159.03 190.44 159.31 190.28 159.61 190.18C159.91 190.06 160.21 190 160.51 190H167.11C168.25 190 169.32 190.13 170.32 190.39C171.34 190.63 172.22 191.03 172.96 191.59C173.72 192.13 174.31 192.84 174.73 193.72C175.17 194.6 175.39 195.67 175.39 196.93ZM169.57 196.9C169.57 196.06 169.34 195.42 168.88 194.98C168.44 194.52 167.8 194.29 166.96 194.29H161.89C162.05 194.29 162.23 194.33 162.43 194.41C162.63 194.47 162.81 194.57 162.97 194.71C163.15 194.85 163.3 195.03 163.42 195.25C163.54 195.45 163.6 195.68 163.6 195.94V198.52C163.6 198.8 163.69 199.03 163.87 199.21C164.07 199.37 164.29 199.45 164.53 199.45H166.96C167.78 199.45 168.42 199.23 168.88 198.79C169.34 198.35 169.57 197.72 169.57 196.9ZM178.341 210.19V192.64C178.341 191.88 178.601 191.26 179.121 190.78C179.641 190.28 180.251 190.03 180.951 190.03H193.191C193.411 190.03 193.591 190.11 193.731 190.27C193.891 190.41 193.971 190.59 193.971 190.81V193.78C193.971 194 193.901 194.17 193.761 194.29C193.621 194.43 193.431 194.5 193.191 194.5H182.121C182.601 194.5 182.991 194.67 183.291 195.01C183.611 195.35 183.771 195.72 183.771 196.12V197.38C183.771 197.6 183.841 197.81 183.981 198.01C184.141 198.21 184.371 198.31 184.671 198.31H191.211C191.431 198.31 191.611 198.39 191.751 198.55C191.911 198.69 191.991 198.87 191.991 199.09V201.79C191.991 202.01 191.911 202.2 191.751 202.36C191.611 202.5 191.431 202.57 191.211 202.57H182.121C182.581 202.57 182.971 202.73 183.291 203.05C183.611 203.37 183.771 203.73 183.771 204.13V205.54C183.771 205.76 183.851 205.97 184.011 206.17C184.171 206.37 184.391 206.47 184.671 206.47H193.431C193.951 206.47 194.211 206.73 194.211 207.25V210.19C194.211 210.43 194.131 210.62 193.971 210.76C193.831 210.88 193.651 210.94 193.431 210.94H179.091C178.891 210.94 178.711 210.87 178.551 210.73C178.411 210.57 178.341 210.39 178.341 210.19ZM215.009 210.94H210.779C210.219 210.94 209.819 210.68 209.579 210.16L206.519 204.16C206.339 203.84 206.069 203.68 205.709 203.68H201.779C202.279 203.68 202.669 203.86 202.949 204.22C203.249 204.56 203.399 204.91 203.399 205.27V210.22C203.399 210.44 203.329 210.61 203.189 210.73C203.049 210.87 202.869 210.94 202.649 210.94H198.539C198.339 210.94 198.159 210.87 197.999 210.73C197.859 210.57 197.789 210.4 197.789 210.22V192.64C197.789 191.9 198.049 191.29 198.569 190.81C199.089 190.31 199.699 190.06 200.399 190.06H206.759C207.879 190.06 208.939 190.18 209.939 190.42C210.959 190.66 211.849 191.05 212.609 191.59C213.389 192.13 214.009 192.84 214.469 193.72C214.929 194.58 215.159 195.64 215.159 196.9C215.159 198.1 214.889 199.18 214.349 200.14C213.809 201.1 213.009 201.88 211.949 202.48C211.789 202.58 211.699 202.7 211.679 202.84C211.679 202.98 211.709 203.09 211.769 203.17L215.549 210.01C215.609 210.13 215.639 210.24 215.639 210.34C215.639 210.5 215.569 210.64 215.429 210.76C215.309 210.88 215.169 210.94 215.009 210.94ZM209.369 196.87C209.369 196.05 209.119 195.43 208.619 195.01C208.139 194.57 207.509 194.35 206.729 194.35H201.569C202.069 194.35 202.469 194.52 202.769 194.86C203.069 195.2 203.219 195.56 203.219 195.94V198.37C203.219 198.61 203.299 198.82 203.459 199C203.639 199.18 203.859 199.27 204.119 199.27H206.729C207.509 199.27 208.139 199.08 208.619 198.7C209.119 198.3 209.369 197.69 209.369 196.87Z" fill="black"/>
<path d="M65.5 35.2249H61.25V39.4499H65.5V35.2249Z" fill="black"/>
<path d="M74 35.2249H69.75V39.4499H74V35.2249Z" fill="black"/>
<path d="M78.25 52.125H74V56.35H78.25V52.125Z" fill="black"/>
<path d="M86.75 52.125H82.5V56.35H86.75V52.125Z" fill="black"/>
<path d="M84.625 43.675H78.25V47.9H84.625V43.675Z" fill="black"/>
<path d="M88.875 35.2249H78.25V39.4499H88.875V35.2249Z" fill="black"/>
<path d="M74 43.675H61.25V47.9H74V43.675Z" fill="black"/>
<path d="M69.75 52.125H61.25V56.35H69.75V52.125Z" fill="black"/>
<path d="M80.375 90.1501H76.125V94.3751H80.375V90.1501Z" fill="black"/>
<path d="M76.125 73.25H71.875V77.475H76.125V73.25Z" fill="black"/>
<path d="M67.625 73.25H63.375V77.475H67.625V73.25Z" fill="black"/>
<path d="M71.875 81.7H65.5V85.9249H71.875V81.7Z" fill="black"/>
<path d="M71.875 90.1501H61.25V94.3751H71.875V90.1501Z" fill="black"/>
<path d="M82.5 81.7H76.125V85.9249H82.5V81.7Z" fill="black"/>
<path d="M86.75 73.25H80.375V77.475H86.75V73.25Z" fill="black"/>
<path d="M165.375 35.2249H161.125V39.4499H165.375V35.2249Z" fill="black"/>
<path d="M173.875 35.2249H169.625V39.4499H173.875V35.2249Z" fill="black"/>
<path d="M180.25 52.125H176V56.35H180.25V52.125Z" fill="black"/>
<path d="M188.75 52.125H184.5V56.35H188.75V52.125Z" fill="black"/>
<path d="M184.5 43.675H178.125V47.9H184.5V43.675Z" fill="black"/>
<path d="M188.75 35.2249H178.125V39.4499H188.75V35.2249Z" fill="black"/>
<path d="M173.875 43.675H161.125V47.9H173.875V43.675Z" fill="black"/>
<path d="M171.75 52.125H165.375V56.35H171.75V52.125Z" fill="black"/>
<path d="M188.75 90.1501H184.5V94.3751H188.75V90.1501Z" fill="black"/>
<path d="M178.125 73.25H173.875V77.475H178.125V73.25Z" fill="black"/>
<path d="M169.625 73.25H165.375V77.475H169.625V73.25Z" fill="black"/>
<path d="M173.875 81.7H167.5V85.9249H173.875V81.7Z" fill="black"/>
<path d="M180.25 90.1501H169.625V94.3751H180.25V90.1501Z" fill="black"/>
<path d="M184.5 81.7H178.125V85.9249H184.5V81.7Z" fill="black"/>
<path d="M188.75 73.25H182.375V77.475H188.75V73.25Z" fill="black"/>
<path d="M65.5 113.388H61.25V117.613H65.5V113.388Z" fill="black"/>
<path d="M74 113.388H69.75V117.613H74V113.388Z" fill="black"/>
<path d="M78.25 130.288H74V134.513H78.25V130.288Z" fill="black"/>
<path d="M93.125 121.837H88.875V126.062H93.125V121.837Z" fill="black"/>
<path d="M84.625 121.837H78.25V126.062H84.625V121.837Z" fill="black"/>
<path d="M88.875 113.388H78.25V117.613H88.875V113.388Z" fill="black"/>
<path d="M74 121.837H61.25V126.062H74V121.837Z" fill="black"/>
<path d="M69.75 130.288H61.25V134.513H69.75V130.288Z" fill="black"/>
<path d="M186.625 117.612H165.375C164.786 117.612 164.255 117.851 163.87 118.233L151.127 130.902C150.757 131.268 150.534 131.772 150.515 132.328L142 128.868V118.487L154.127 106.431C154.527 106.036 154.75 105.499 154.75 104.937V98.4921C159.519 97.9598 163.25 93.9735 163.25 89.0936C163.25 85.0503 160.685 81.6111 157.098 80.2401L158.377 78.9684C158.777 78.5734 159 78.0368 159 77.4749V62.6874C159 52.203 150.421 43.6749 139.875 43.6749H139.705C136.688 38.5013 131.058 35.2249 125 35.2249H110.125C108.95 35.2249 108 36.1691 108 37.3374C108 39.5386 108.425 41.6891 109.25 43.696C99.109 44.1523 91 52.4967 91 62.6874V77.4749C91 78.0368 91.2231 78.5734 91.6226 78.9684L92.9019 80.2401C89.3149 81.6111 86.75 85.0503 86.75 89.0936C86.75 93.9735 90.4815 97.9598 95.25 98.4921V104.937C95.25 105.499 95.4731 106.036 95.8726 106.431L108 118.487V128.868L62.5696 147.344C61.7706 147.671 61.25 148.442 61.25 149.3V159.862C61.25 161.031 62.1999 161.975 63.375 161.975H152.625H186.625C187.8 161.975 188.75 161.031 188.75 159.862V119.725C188.75 118.557 187.8 117.612 186.625 117.612ZM159 89.0936C159 91.6434 157.173 93.7791 154.75 94.2692V83.918C157.173 84.4081 159 86.5438 159 89.0936ZM95.25 94.2692C92.8275 93.7791 91 91.6434 91 89.0936C91 86.5438 92.8275 84.4081 95.25 83.918V94.2692ZM95.25 76.6003V62.6874C95.25 54.5352 101.925 47.8999 110.125 47.8999H112.803C113.595 47.8999 114.32 47.4626 114.687 46.7654C115.053 46.0662 114.998 45.2254 114.547 44.579C113.455 43.0263 112.739 41.2835 112.428 39.4499H125C129.883 39.4499 134.401 42.2933 136.505 46.6957C136.858 47.4309 137.605 47.8999 138.424 47.8999H139.875C148.075 47.8999 154.75 54.5352 154.75 62.6874V76.6003L152.625 78.7128L150.5 76.6003V62.6874C150.5 62.0937 150.249 61.5276 149.809 61.1283C149.367 60.7291 148.777 60.5263 148.182 60.5833L125 62.6789L101.818 60.5833C101.228 60.5284 100.635 60.727 100.191 61.1283C99.7508 61.5276 99.5 62.0937 99.5 62.6874V76.6003L97.375 78.7128L95.25 76.6003ZM99.5 104.063V96.4874V82.5744L103.127 78.9684C103.527 78.5734 103.75 78.0368 103.75 77.4749V65.0005L124.807 66.9039C124.936 66.9166 125.064 66.9166 125.193 66.9039L146.25 65.0005V77.4749C146.25 78.0368 146.473 78.5734 146.873 78.9684L150.5 82.5744V96.4874V104.063L132.62 121.837H117.38L99.5 104.063ZM137.75 122.712V129.199L125 138.254L112.25 129.199V122.712L114.998 125.443C115.395 125.841 115.935 126.062 116.5 126.062H133.5C134.065 126.062 134.605 125.841 135.002 125.443L137.75 122.712ZM150.5 157.75H65.5V150.717L109.845 132.685L123.765 142.569C124.135 142.831 124.567 142.962 125 142.962C125.434 142.962 125.865 142.831 126.235 142.567L140.156 132.683L150.5 136.891V157.75ZM163.25 124.824V130.287H157.755L163.25 124.824ZM184.5 157.75H154.75V135.471V134.512H165.375C166.55 134.512 167.5 133.568 167.5 132.4V121.837H184.5V157.75Z" fill="black"/>
<path d="M163.25 138.737H159V142.962H163.25V138.737Z" fill="black"/>
<path d="M171.75 138.737H167.5V142.962H171.75V138.737Z" fill="black"/>
<path d="M180.25 138.737H176V142.962H180.25V138.737Z" fill="black"/>
<path d="M167.5 147.188H159V151.412H167.5V147.188Z" fill="black"/>
<path d="M180.25 147.188H171.75V151.412H180.25V147.188Z" fill="black"/>
<path d="M180.25 130.288H171.75V134.513H180.25V130.288Z" fill="black"/>
<path d="M127.125 147.188H122.875V151.412H127.125V147.188Z" fill="black"/>
<path d="M111.005 88.0373L115.878 83.1934L112.873 80.2063L106.498 86.5438C105.667 87.3698 105.667 88.7049 106.498 89.5309L112.873 95.8684L115.878 92.8813L111.005 88.0373Z" fill="black"/>
<path d="M137.128 95.8684L143.503 89.5309C144.334 88.7049 144.334 87.3698 143.503 86.5438L137.128 80.2063L134.123 83.1934L138.996 88.0373L134.123 92.8813L137.128 95.8684Z" fill="black"/>
<path d="M127.347 78.6442L118.848 95.5432L122.649 97.4326L131.148 80.5337L127.347 78.6442Z" fill="black"/>
<path d="M127.125 102.825H122.875V107.05H127.125V102.825Z" fill="black"/>
<path d="M135.625 102.825H131.375V107.05H135.625V102.825Z" fill="black"/>
<path d="M118.625 102.825H114.375V107.05H118.625V102.825Z" fill="black"/>
</svg>
