<svg width="1234" height="45" viewBox="0 0 1234 45" fill="none" xmlns="http://www.w3.org/2000/svg">
<path d="M0.170591 34H13.8956V29.905H9.30559V6.595H13.8956V2.5H0.170591V6.595H4.76059V29.905H0.170591V34ZM19.8121 12.265H23.3671L25.4821 2.5H20.6221L19.8121 12.265ZM32.5525 34H37.0075V19.96C37.0075 16.45 39.4825 14.11 42.3625 14.11C45.2875 14.11 47.5375 16.09 47.5375 19.42V34H51.9925V20.095C51.9925 16.225 54.4675 14.11 57.3925 14.11C60.4075 14.11 62.4325 16.135 62.4325 20.05V34H66.8875V18.565C66.8875 13.615 63.4675 9.925 58.3375 9.925C55.0975 9.925 52.6225 11.32 51.1825 13.975H50.8225C49.5625 11.545 47.1775 9.925 43.8025 9.925C40.5175 9.925 38.4025 11.635 37.3675 13.525H37.0075V10.51H32.5525V34ZM96.6689 34.585C101.349 34.585 103.329 31.885 104.139 30.76H104.454C104.454 32.785 105.939 34 107.874 34H111.069V29.95H109.989C109.269 29.95 108.819 29.59 108.819 28.87V10.51H104.364V13.885H104.004C103.104 12.625 100.944 9.925 96.3989 9.925C89.9189 9.925 85.3739 15.19 85.3739 22.255C85.3739 29.41 90.1439 34.585 96.6689 34.585ZM97.2089 30.49C93.1139 30.49 89.8739 27.25 89.8739 22.3C89.8739 17.485 92.9789 14.065 97.1639 14.065C101.169 14.065 104.499 17.08 104.499 22.3C104.499 26.755 101.664 30.49 97.2089 30.49ZM116.431 34H130.021V30.13H125.476V0.249997H116.431V4.165H121.021V30.13H116.431V34ZM143.863 34.585C149.488 34.585 153.178 31.525 153.178 26.98C153.178 17.395 139.588 21.94 139.588 16.81C139.588 15.1 141.208 13.885 143.773 13.885C146.428 13.885 148.318 15.19 148.723 17.575L152.638 16.45C151.918 12.22 148.183 9.925 143.908 9.925C138.778 9.925 135.313 12.76 135.313 16.765C135.313 26.17 148.678 21.67 148.678 27.34C148.678 29.32 147.058 30.625 144.043 30.625C141.028 30.625 139.093 29.23 138.688 26.44L134.548 27.385C135.133 31.93 138.688 34.585 143.863 34.585ZM170.49 34.585C177.645 34.585 182.865 29.275 182.865 22.255C182.865 15.235 177.69 9.925 170.535 9.925C163.425 9.925 158.205 15.19 158.205 22.255C158.205 29.32 163.38 34.585 170.49 34.585ZM170.49 30.4C165.99 30.4 162.75 27.025 162.75 22.255C162.75 17.62 165.945 14.065 170.49 14.065C175.08 14.065 178.32 17.575 178.32 22.255C178.32 26.98 175.08 30.4 170.49 30.4ZM206.963 6.595C208.718 6.595 209.978 5.29 209.978 3.58C209.978 1.96 208.718 0.654997 206.963 0.654997C205.253 0.654997 203.993 1.96 203.993 3.58C203.993 5.29 205.253 6.595 206.963 6.595ZM204.713 34H209.168V10.51H200.438V14.38H204.713V34ZM217.759 34H222.214V20.095C222.214 16.675 224.779 14.11 228.064 14.11C231.034 14.11 233.464 16.36 233.464 19.69V34H237.919V18.925C237.919 13.885 234.634 9.925 229.324 9.925C225.904 9.925 223.564 11.59 222.574 13.57H222.214V10.51H217.759V34ZM254.961 34H258.741V30.085H255.006C252.936 30.085 252.081 29.185 252.081 27.07V14.38H259.011V10.51H252.081V3.805H247.896V10.51H243.351V14.38H247.626V27.115C247.626 31.975 250.551 34 254.961 34ZM275.603 34.585C280.733 34.585 284.828 31.84 286.268 27.205L282.083 26.17C281.273 29.095 278.528 30.715 275.603 30.715C271.238 30.715 268.448 28.015 268.403 23.425H286.718V22.03C286.718 15.01 282.533 9.925 275.378 9.925C269.078 9.925 263.813 14.875 263.813 22.3C263.813 29.5 268.448 34.585 275.603 34.585ZM268.448 20.05C268.763 16.45 271.778 13.84 275.378 13.84C278.933 13.84 281.948 16.045 282.173 20.05H268.448ZM292.963 34H297.418V21.94C297.418 17.485 299.353 14.38 303.403 14.38H305.653V9.925H303.988C300.793 9.925 298.498 12.22 297.688 14.2H297.373V10.51H292.963V34ZM320.729 34.585C325.859 34.585 329.954 31.84 331.394 27.205L327.209 26.17C326.399 29.095 323.654 30.715 320.729 30.715C316.364 30.715 313.574 28.015 313.529 23.425H331.844V22.03C331.844 15.01 327.659 9.925 320.504 9.925C314.204 9.925 308.939 14.875 308.939 22.3C308.939 29.5 313.574 34.585 320.729 34.585ZM313.574 20.05C313.889 16.45 316.904 13.84 320.504 13.84C324.059 13.84 327.074 16.045 327.299 20.05H313.574ZM345.964 34.585C351.589 34.585 355.279 31.525 355.279 26.98C355.279 17.395 341.689 21.94 341.689 16.81C341.689 15.1 343.309 13.885 345.874 13.885C348.529 13.885 350.419 15.19 350.824 17.575L354.739 16.45C354.019 12.22 350.284 9.925 346.009 9.925C340.879 9.925 337.414 12.76 337.414 16.765C337.414 26.17 350.779 21.67 350.779 27.34C350.779 29.32 349.159 30.625 346.144 30.625C343.129 30.625 341.194 29.23 340.789 26.44L336.649 27.385C337.234 31.93 340.789 34.585 345.964 34.585ZM371.555 34H375.335V30.085H371.6C369.53 30.085 368.675 29.185 368.675 27.07V14.38H375.605V10.51H368.675V3.805H364.49V10.51H359.945V14.38H364.22V27.115C364.22 31.975 367.145 34 371.555 34ZM392.197 34.585C397.327 34.585 401.422 31.84 402.862 27.205L398.677 26.17C397.867 29.095 395.122 30.715 392.197 30.715C387.832 30.715 385.042 28.015 384.997 23.425H403.312V22.03C403.312 15.01 399.127 9.925 391.972 9.925C385.672 9.925 380.407 14.875 380.407 22.3C380.407 29.5 385.042 34.585 392.197 34.585ZM385.042 20.05C385.357 16.45 388.372 13.84 391.972 13.84C395.527 13.84 398.542 16.045 398.767 20.05H385.042ZM419.187 34.585C423.777 34.585 425.847 31.795 426.657 30.76H426.972V34H431.337V0.249997H426.882V13.885H426.522C425.622 12.625 423.462 9.925 418.917 9.925C412.437 9.925 407.892 15.19 407.892 22.255C407.892 29.41 412.707 34.585 419.187 34.585ZM419.727 30.49C415.632 30.49 412.392 27.25 412.392 22.3C412.392 17.485 415.497 14.065 419.682 14.065C423.687 14.065 427.017 17.08 427.017 22.3C427.017 26.755 424.182 30.49 419.727 30.49ZM456.65 6.595C458.405 6.595 459.665 5.29 459.665 3.58C459.665 1.96 458.405 0.654997 456.65 0.654997C454.94 0.654997 453.68 1.96 453.68 3.58C453.68 5.29 454.94 6.595 456.65 6.595ZM454.4 34H458.855V10.51H450.125V14.38H454.4V34ZM467.446 34H471.901V20.095C471.901 16.675 474.466 14.11 477.751 14.11C480.721 14.11 483.151 16.36 483.151 19.69V34H487.606V18.925C487.606 13.885 484.321 9.925 479.011 9.925C475.591 9.925 473.251 11.59 472.261 13.57H471.901V10.51H467.446V34ZM518.178 34.585C523.533 34.585 528.123 31.525 529.428 26.035L525.108 25.045C524.478 28.33 521.733 30.4 518.313 30.4C513.858 30.4 510.663 26.98 510.663 22.255C510.663 17.665 513.723 14.065 518.268 14.065C521.688 14.065 524.433 16.225 525.063 19.51L529.338 18.475C528.033 12.985 523.488 9.925 518.133 9.925C511.113 9.925 506.073 15.325 506.073 22.255C506.073 29.14 510.978 34.585 518.178 34.585ZM546.327 34.585C553.482 34.585 558.702 29.275 558.702 22.255C558.702 15.235 553.527 9.925 546.372 9.925C539.262 9.925 534.042 15.19 534.042 22.255C534.042 29.32 539.217 34.585 546.327 34.585ZM546.327 30.4C541.827 30.4 538.587 27.025 538.587 22.255C538.587 17.62 541.782 14.065 546.327 14.065C550.917 14.065 554.157 17.575 554.157 22.255C554.157 26.98 550.917 30.4 546.327 30.4ZM564.949 34H569.404V20.095C569.404 16.675 571.969 14.11 575.254 14.11C578.224 14.11 580.654 16.36 580.654 19.69V34H585.109V18.925C585.109 13.885 581.824 9.925 576.514 9.925C573.094 9.925 570.754 11.59 569.764 13.57H569.404V10.51H564.949V34ZM602.151 34H605.931V30.085H602.196C600.126 30.085 599.271 29.185 599.271 27.07V14.38H606.201V10.51H599.271V3.805H595.086V10.51H590.541V14.38H594.816V27.115C594.816 31.975 597.741 34 602.151 34ZM622.298 34.585C626.978 34.585 628.958 31.885 629.768 30.76H630.083C630.083 32.785 631.568 34 633.503 34H636.698V29.95H635.618C634.898 29.95 634.448 29.59 634.448 28.87V10.51H629.993V13.885H629.633C628.733 12.625 626.573 9.925 622.028 9.925C615.548 9.925 611.003 15.19 611.003 22.255C611.003 29.41 615.773 34.585 622.298 34.585ZM622.838 30.49C618.743 30.49 615.503 27.25 615.503 22.3C615.503 17.485 618.608 14.065 622.793 14.065C626.798 14.065 630.128 17.08 630.128 22.3C630.128 26.755 627.293 30.49 622.838 30.49ZM653.625 34.585C658.98 34.585 663.57 31.525 664.875 26.035L660.555 25.045C659.925 28.33 657.18 30.4 653.76 30.4C649.305 30.4 646.11 26.98 646.11 22.255C646.11 17.665 649.17 14.065 653.715 14.065C657.135 14.065 659.88 16.225 660.51 19.51L664.785 18.475C663.48 12.985 658.935 9.925 653.58 9.925C646.56 9.925 641.52 15.325 641.52 22.255C641.52 29.14 646.425 34.585 653.625 34.585ZM680.739 34H684.519V30.085H680.784C678.714 30.085 677.859 29.185 677.859 27.07V14.38H684.789V10.51H677.859V3.805H673.674V10.51H669.129V14.38H673.404V27.115C673.404 31.975 676.329 34 680.739 34ZM696.431 6.595C698.186 6.595 699.446 5.29 699.446 3.58C699.446 1.96 698.186 0.654997 696.431 0.654997C694.721 0.654997 693.461 1.96 693.461 3.58C693.461 5.29 694.721 6.595 696.431 6.595ZM694.181 34H698.636V10.51H689.906V14.38H694.181V34ZM707.227 34H711.682V20.095C711.682 16.675 714.247 14.11 717.532 14.11C720.502 14.11 722.932 16.36 722.932 19.69V34H727.387V18.925C727.387 13.885 724.102 9.925 718.792 9.925C715.372 9.925 713.032 11.59 712.042 13.57H711.682V10.51H707.227V34ZM738.894 44.35H749.289C753.699 44.35 756.624 42.325 756.624 37.465V10.51H752.259V13.75H751.944C751.134 12.715 749.064 9.925 744.474 9.925C737.994 9.925 733.179 15.1 733.179 22.21C733.179 29.365 737.724 34.585 744.204 34.585C748.749 34.585 750.954 32.065 751.809 30.625H752.169V37.42C752.169 39.535 751.314 40.48 749.244 40.48H738.894V44.35ZM744.969 30.445C740.784 30.445 737.724 27.07 737.724 22.21C737.724 17.26 740.964 14.065 745.014 14.065C749.469 14.065 752.304 17.8 752.304 22.21C752.304 27.43 748.974 30.445 744.969 30.445ZM786.567 34H790.347V30.085H786.612C784.542 30.085 783.687 29.185 783.687 27.07V14.38H790.617V10.51H783.687V3.805H779.502V10.51H774.957V14.38H779.232V27.115C779.232 31.975 782.157 34 786.567 34ZM797.084 34H801.539V19.87C801.539 16.54 804.239 14.11 807.434 14.11C810.449 14.11 812.969 16.36 812.969 19.69V34H817.424V18.925C817.424 13.885 814.004 9.925 808.694 9.925C805.319 9.925 802.889 11.635 801.899 13.57H801.539V0.249997H797.084V34ZM835.045 34.585C840.175 34.585 844.27 31.84 845.71 27.205L841.525 26.17C840.715 29.095 837.97 30.715 835.045 30.715C830.68 30.715 827.89 28.015 827.845 23.425H846.16V22.03C846.16 15.01 841.975 9.925 834.82 9.925C828.52 9.925 823.255 14.875 823.255 22.3C823.255 29.5 827.89 34.585 835.045 34.585ZM827.89 20.05C828.205 16.45 831.22 13.84 834.82 13.84C838.375 13.84 841.39 16.045 841.615 20.05H827.89ZM865.53 34H870.12V21.94H876.15C881.865 21.94 886.095 17.98 886.095 12.175C886.095 6.325 882.045 2.5 876.15 2.5H865.53V34ZM870.12 17.8V6.685H875.88C879.255 6.685 881.415 8.98 881.415 12.175C881.415 15.37 879.255 17.8 875.88 17.8H870.12ZM891.001 34H904.591V30.13H900.046V0.249997H891.001V4.165H895.591V30.13H891.001V34ZM919.309 34.585C923.989 34.585 925.969 31.885 926.779 30.76H927.094C927.094 32.785 928.579 34 930.514 34H933.709V29.95H932.629C931.909 29.95 931.459 29.59 931.459 28.87V10.51H927.004V13.885H926.644C925.744 12.625 923.584 9.925 919.039 9.925C912.559 9.925 908.014 15.19 908.014 22.255C908.014 29.41 912.784 34.585 919.309 34.585ZM919.849 30.49C915.754 30.49 912.514 27.25 912.514 22.3C912.514 17.485 915.619 14.065 919.804 14.065C923.809 14.065 927.139 17.08 927.139 22.3C927.139 26.755 924.304 30.49 919.849 30.49ZM938.981 44.35H941.951C945.551 44.35 948.026 42.955 949.241 39.805L960.446 10.51H955.541L948.881 29.725H948.521L942.356 10.51H937.496L945.866 34H946.991L945.506 37.825C944.831 39.49 943.886 40.3 941.996 40.3H938.981V44.35ZM967.19 25.45H971.015L971.375 2.5H966.785L967.19 25.45ZM969.125 34.585C970.7 34.585 972.005 33.28 972.005 31.705C972.005 30.085 970.7 28.78 969.125 28.78C967.46 28.78 966.11 30.085 966.11 31.705C966.11 33.28 967.46 34.585 969.125 34.585ZM999.735 34H1004.28V6.73H1013.23V2.5H990.78V6.73H999.735V34ZM1027.13 34.585C1032.26 34.585 1036.35 31.84 1037.79 27.205L1033.61 26.17C1032.8 29.095 1030.05 30.715 1027.13 30.715C1022.76 30.715 1019.97 28.015 1019.93 23.425H1038.24V22.03C1038.24 15.01 1034.06 9.925 1026.9 9.925C1020.6 9.925 1015.34 14.875 1015.34 22.3C1015.34 29.5 1019.97 34.585 1027.13 34.585ZM1019.97 20.05C1020.29 16.45 1023.3 13.84 1026.9 13.84C1030.46 13.84 1033.47 16.045 1033.7 20.05H1019.97ZM1054.12 34.585C1058.8 34.585 1060.78 31.885 1061.59 30.76H1061.9C1061.9 32.785 1063.39 34 1065.32 34H1068.52V29.95H1067.44C1066.72 29.95 1066.27 29.59 1066.27 28.87V10.51H1061.81V13.885H1061.45C1060.55 12.625 1058.39 9.925 1053.85 9.925C1047.37 9.925 1042.82 15.19 1042.82 22.255C1042.82 29.41 1047.59 34.585 1054.12 34.585ZM1054.66 30.49C1050.56 30.49 1047.32 27.25 1047.32 22.3C1047.32 17.485 1050.43 14.065 1054.61 14.065C1058.62 14.065 1061.95 17.08 1061.95 22.3C1061.95 26.755 1059.11 30.49 1054.66 30.49ZM1075 34H1079.46V19.96C1079.46 16.45 1081.93 14.11 1084.81 14.11C1087.74 14.11 1089.99 16.09 1089.99 19.42V34H1094.44V20.095C1094.44 16.225 1096.92 14.11 1099.84 14.11C1102.86 14.11 1104.88 16.135 1104.88 20.05V34H1109.34V18.565C1109.34 13.615 1105.92 9.925 1100.79 9.925C1097.55 9.925 1095.07 11.32 1093.63 13.975H1093.27C1092.01 11.545 1089.63 9.925 1086.25 9.925C1082.97 9.925 1080.85 11.635 1079.82 13.525H1079.46V10.51H1075V34ZM1139.12 34.585C1143.8 34.585 1145.78 31.885 1146.59 30.76H1146.9C1146.9 32.785 1148.39 34 1150.32 34H1153.52V29.95H1152.44C1151.72 29.95 1151.27 29.59 1151.27 28.87V10.51H1146.81V13.885H1146.45C1145.55 12.625 1143.39 9.925 1138.85 9.925C1132.37 9.925 1127.82 15.19 1127.82 22.255C1127.82 29.41 1132.59 34.585 1139.12 34.585ZM1139.66 30.49C1135.56 30.49 1132.32 27.25 1132.32 22.3C1132.32 17.485 1135.43 14.065 1139.61 14.065C1143.62 14.065 1146.95 17.08 1146.95 22.3C1146.95 26.755 1144.11 30.49 1139.66 30.49ZM1180.56 34.585C1186.18 34.585 1189.87 31.525 1189.87 26.98C1189.87 17.395 1176.28 21.94 1176.28 16.81C1176.28 15.1 1177.9 13.885 1180.47 13.885C1183.12 13.885 1185.01 15.19 1185.42 17.575L1189.33 16.45C1188.61 12.22 1184.88 9.925 1180.6 9.925C1175.47 9.925 1172.01 12.76 1172.01 16.765C1172.01 26.17 1185.37 21.67 1185.37 27.34C1185.37 29.32 1183.75 30.625 1180.74 30.625C1177.72 30.625 1175.79 29.23 1175.38 26.44L1171.24 27.385C1171.83 31.93 1175.38 34.585 1180.56 34.585ZM1218.87 34.585C1223.55 34.585 1225.53 31.885 1226.34 30.76H1226.65C1226.65 32.785 1228.14 34 1230.07 34H1233.27V29.95H1232.19C1231.47 29.95 1231.02 29.59 1231.02 28.87V10.51H1226.56V13.885H1226.2C1225.3 12.625 1223.14 9.925 1218.6 9.925C1212.12 9.925 1207.57 15.19 1207.57 22.255C1207.57 29.41 1212.34 34.585 1218.87 34.585ZM1219.41 30.49C1215.31 30.49 1212.07 27.25 1212.07 22.3C1212.07 17.485 1215.18 14.065 1219.36 14.065C1223.37 14.065 1226.7 17.08 1226.7 22.3C1226.7 26.755 1223.86 30.49 1219.41 30.49Z" fill="black"/>
</svg>
