<svg width="263" height="256" viewBox="0 0 263 256" fill="none" xmlns="http://www.w3.org/2000/svg">
<rect x="1.5" y="7.5" width="247" height="247" rx="65.5" fill="#F1F1F1" stroke="black" stroke-width="3"/>
<path d="M60.6842 216.19V198.64C60.6842 197.88 60.9442 197.26 61.4642 196.78C61.9842 196.28 62.5942 196.03 63.2942 196.03H65.6942C65.9342 196.03 66.1142 196.1 66.2342 196.24C66.3742 196.38 66.4442 196.56 66.4442 196.78V216.19C66.4442 216.39 66.3742 216.56 66.2342 216.7C66.1142 216.86 65.9342 216.94 65.6942 216.94H61.4342C61.2342 216.94 61.0542 216.87 60.8942 216.73C60.7542 216.57 60.6842 216.39 60.6842 216.19ZM70.7872 216.16V198.61C70.7872 197.91 71.0372 197.3 71.5372 196.78C72.0372 196.26 72.6572 196 73.3972 196H74.3872C74.6072 196 74.8672 196.05 75.1672 196.15C75.4672 196.23 75.7772 196.49 76.0972 196.93C77.2772 198.77 78.3372 200.43 79.2772 201.91C79.8572 202.81 80.3072 203.53 80.6272 204.07C80.9672 204.59 81.2872 205.08 81.5872 205.54C81.8872 205.98 82.1372 206.36 82.3372 206.68C82.5372 207 82.6572 207.19 82.6972 207.25C82.6972 207.29 82.7372 207.31 82.8172 207.31C82.9172 207.31 82.9672 207.26 82.9672 207.16V198.61C82.9672 197.83 83.2372 197.2 83.7772 196.72C84.3172 196.24 84.9272 196 85.6072 196H87.5272C87.7472 196 87.9272 196.07 88.0672 196.21C88.2072 196.39 88.2772 196.58 88.2772 196.78V216.13C88.2772 216.31 88.2072 216.49 88.0672 216.67C87.9072 216.83 87.7272 216.91 87.5272 216.91H84.1372C83.6972 216.91 83.3572 216.72 83.1172 216.34C81.9172 214.5 80.8372 212.85 79.8772 211.39C79.2972 210.51 78.8372 209.81 78.4972 209.29C78.1572 208.75 77.8372 208.26 77.5372 207.82C77.2372 207.36 76.9872 206.98 76.7872 206.68C76.5872 206.36 76.4672 206.17 76.4272 206.11C76.3672 206.05 76.3172 206.02 76.2772 206.02C76.1772 206.02 76.1272 206.07 76.1272 206.17V216.16C76.1272 216.38 76.0472 216.56 75.8872 216.7C75.7272 216.84 75.5472 216.91 75.3472 216.91H71.5372C71.3572 216.91 71.1872 216.83 71.0272 216.67C70.8672 216.51 70.7872 216.34 70.7872 216.16ZM110.128 196C110.288 196 110.428 196.06 110.548 196.18C110.688 196.3 110.758 196.44 110.758 196.6C110.758 196.74 110.748 196.83 110.728 196.87L104.668 216.01C104.608 216.23 104.478 216.44 104.278 216.64C104.098 216.8 103.818 216.88 103.438 216.88H98.6383C98.2583 216.88 97.9783 216.8 97.7983 216.64C97.5983 216.46 97.4583 216.25 97.3783 216.01L91.3483 196.87L91.2883 196.6C91.2883 196.44 91.3483 196.3 91.4683 196.18C91.6083 196.06 91.7683 196 91.9483 196H95.8483C96.1683 196 96.4183 196.08 96.5983 196.24C96.7783 196.42 96.8983 196.6 96.9583 196.78L100.888 209.8C100.888 209.88 100.938 209.92 101.038 209.92C101.118 209.92 101.158 209.88 101.158 209.8L105.118 196.78C105.198 196.52 105.338 196.33 105.538 196.21C105.738 196.07 105.968 196 106.228 196H110.128ZM113.726 216.19V198.64C113.726 197.88 113.986 197.26 114.506 196.78C115.026 196.28 115.636 196.03 116.336 196.03H128.576C128.796 196.03 128.976 196.11 129.116 196.27C129.276 196.41 129.356 196.59 129.356 196.81V199.78C129.356 200 129.286 200.17 129.146 200.29C129.006 200.43 128.816 200.5 128.576 200.5H117.506C117.986 200.5 118.376 200.67 118.676 201.01C118.996 201.35 119.156 201.72 119.156 202.12V203.38C119.156 203.6 119.226 203.81 119.366 204.01C119.526 204.21 119.756 204.31 120.056 204.31H126.596C126.816 204.31 126.996 204.39 127.136 204.55C127.296 204.69 127.376 204.87 127.376 205.09V207.79C127.376 208.01 127.296 208.2 127.136 208.36C126.996 208.5 126.816 208.57 126.596 208.57H117.506C117.966 208.57 118.356 208.73 118.676 209.05C118.996 209.37 119.156 209.73 119.156 210.13V211.54C119.156 211.76 119.236 211.97 119.396 212.17C119.556 212.37 119.776 212.47 120.056 212.47H128.816C129.336 212.47 129.596 212.73 129.596 213.25V216.19C129.596 216.43 129.516 216.62 129.356 216.76C129.216 216.88 129.036 216.94 128.816 216.94H114.476C114.276 216.94 114.096 216.87 113.936 216.73C113.796 216.57 113.726 216.39 113.726 216.19ZM150.184 210.64C150.184 211.86 149.894 212.89 149.314 213.73C148.754 214.57 148.034 215.25 147.154 215.77C146.274 216.29 145.294 216.67 144.214 216.91C143.134 217.13 142.084 217.24 141.064 217.24C140.084 217.24 139.064 217.14 138.004 216.94C136.964 216.74 136.004 216.41 135.124 215.95C134.244 215.47 133.504 214.85 132.904 214.09C132.324 213.31 132.004 212.35 131.944 211.21C131.944 211.03 132.004 210.88 132.124 210.76C132.264 210.64 132.424 210.58 132.604 210.58H136.594C136.714 210.58 136.814 210.59 136.894 210.61C136.994 210.63 137.084 210.66 137.164 210.7C137.304 210.78 137.474 210.92 137.674 211.12C137.994 211.76 138.464 212.2 139.084 212.44C139.724 212.66 140.384 212.77 141.064 212.77C141.364 212.77 141.704 212.75 142.084 212.71C142.484 212.67 142.844 212.59 143.164 212.47C143.504 212.33 143.794 212.14 144.034 211.9C144.274 211.64 144.394 211.31 144.394 210.91C144.394 210.37 144.194 209.98 143.794 209.74C143.394 209.5 142.974 209.31 142.534 209.17C142.194 209.05 141.784 208.94 141.304 208.84C140.844 208.72 140.304 208.6 139.684 208.48C138.764 208.3 137.874 208.07 137.014 207.79C136.154 207.49 135.384 207.1 134.704 206.62C134.044 206.14 133.504 205.54 133.084 204.82C132.684 204.08 132.484 203.18 132.484 202.12C132.484 200.8 132.844 199.67 133.564 198.73C134.304 197.77 135.264 197.04 136.444 196.54C137.724 196.02 139.194 195.76 140.854 195.76C141.514 195.76 142.194 195.82 142.894 195.94C143.614 196.04 144.304 196.22 144.964 196.48C145.644 196.72 146.274 197.05 146.854 197.47C147.434 197.87 147.934 198.36 148.354 198.94C149.034 199.82 149.404 200.71 149.464 201.61C149.464 201.77 149.394 201.92 149.254 202.06C149.134 202.2 148.994 202.27 148.834 202.27H144.634C144.214 202.27 143.884 202.09 143.644 201.73C143.524 201.31 143.214 200.95 142.714 200.65C142.174 200.37 141.554 200.23 140.854 200.23C140.554 200.23 140.244 200.25 139.924 200.29C139.624 200.33 139.344 200.42 139.084 200.56C138.824 200.7 138.614 200.89 138.454 201.13C138.294 201.35 138.214 201.64 138.214 202C138.214 202.56 138.514 203.01 139.114 203.35C139.714 203.67 140.834 204 142.474 204.34C143.414 204.52 144.344 204.74 145.264 205C146.204 205.24 147.034 205.59 147.754 206.05C148.474 206.51 149.054 207.11 149.494 207.85C149.954 208.57 150.184 209.5 150.184 210.64ZM168.75 196C168.97 196 169.15 196.08 169.29 196.24C169.45 196.38 169.53 196.55 169.53 196.75V200.11C169.53 200.33 169.45 200.51 169.29 200.65C169.15 200.79 168.97 200.86 168.75 200.86H161.79C162.23 200.86 162.62 201.02 162.96 201.34C163.32 201.66 163.5 202.02 163.5 202.42V216.16C163.5 216.38 163.42 216.55 163.26 216.67C163.12 216.81 162.94 216.88 162.72 216.88H158.55C158.33 216.88 158.15 216.81 158.01 216.67C157.85 216.55 157.77 216.38 157.77 216.16V201.76C157.77 201.48 157.68 201.26 157.5 201.1C157.32 200.94 157.11 200.86 156.87 200.86H152.52C152.32 200.86 152.14 200.79 151.98 200.65C151.82 200.51 151.74 200.33 151.74 200.11V198.58C151.74 198.2 151.81 197.85 151.95 197.53C152.11 197.21 152.31 196.94 152.55 196.72C152.81 196.48 153.09 196.3 153.39 196.18C153.71 196.06 154.03 196 154.35 196H168.75ZM180.77 217.3C177.93 217.3 175.69 216.61 174.05 215.23C172.41 213.85 171.54 211.82 171.44 209.14C171.42 208.58 171.41 207.72 171.41 206.56C171.41 205.4 171.42 204.53 171.44 203.95C171.52 201.31 172.39 199.28 174.05 197.86C175.73 196.42 177.97 195.7 180.77 195.7C183.55 195.7 185.77 196.42 187.43 197.86C189.11 199.28 189.99 201.31 190.07 203.95C190.11 205.11 190.13 205.98 190.13 206.56C190.13 207.16 190.11 208.02 190.07 209.14C189.97 211.82 189.1 213.85 187.46 215.23C185.84 216.61 183.61 217.3 180.77 217.3ZM180.77 212.8C181.81 212.8 182.64 212.49 183.26 211.87C183.88 211.23 184.21 210.26 184.25 208.96C184.29 207.8 184.31 206.97 184.31 206.47C184.31 205.97 184.29 205.16 184.25 204.04C184.21 202.74 183.88 201.78 183.26 201.16C182.64 200.52 181.81 200.2 180.77 200.2C179.71 200.2 178.87 200.52 178.25 201.16C177.63 201.78 177.3 202.74 177.26 204.04C177.24 204.6 177.23 205.41 177.23 206.47C177.23 207.55 177.24 208.38 177.26 208.96C177.3 210.26 177.63 211.23 178.25 211.87C178.87 212.49 179.71 212.8 180.77 212.8ZM210.965 216.94H206.735C206.175 216.94 205.775 216.68 205.535 216.16L202.475 210.16C202.295 209.84 202.025 209.68 201.665 209.68H197.735C198.235 209.68 198.625 209.86 198.905 210.22C199.205 210.56 199.355 210.91 199.355 211.27V216.22C199.355 216.44 199.285 216.61 199.145 216.73C199.005 216.87 198.825 216.94 198.605 216.94H194.495C194.295 216.94 194.115 216.87 193.955 216.73C193.815 216.57 193.745 216.4 193.745 216.22V198.64C193.745 197.9 194.005 197.29 194.525 196.81C195.045 196.31 195.655 196.06 196.355 196.06H202.715C203.835 196.06 204.895 196.18 205.895 196.42C206.915 196.66 207.805 197.05 208.565 197.59C209.345 198.13 209.965 198.84 210.425 199.72C210.885 200.58 211.115 201.64 211.115 202.9C211.115 204.1 210.845 205.18 210.305 206.14C209.765 207.1 208.965 207.88 207.905 208.48C207.745 208.58 207.655 208.7 207.635 208.84C207.635 208.98 207.665 209.09 207.725 209.17L211.505 216.01C211.565 216.13 211.595 216.24 211.595 216.34C211.595 216.5 211.525 216.64 211.385 216.76C211.265 216.88 211.125 216.94 210.965 216.94ZM205.325 202.87C205.325 202.05 205.075 201.43 204.575 201.01C204.095 200.57 203.465 200.35 202.685 200.35H197.525C198.025 200.35 198.425 200.52 198.725 200.86C199.025 201.2 199.175 201.56 199.175 201.94V204.37C199.175 204.61 199.255 204.82 199.415 205C199.595 205.18 199.815 205.27 200.075 205.27H202.685C203.465 205.27 204.095 205.08 204.575 204.7C205.075 204.3 205.325 203.69 205.325 202.87Z" fill="black"/>
<path d="M104.73 91.8324H114.288L123.471 101.016V105.368C123.471 105.92 123.69 106.45 124.081 106.84C124.471 107.231 125.001 107.45 125.553 107.45C126.106 107.45 126.635 107.231 127.026 106.84C127.416 106.45 127.636 105.92 127.636 105.368V90.6038L135.632 82.6284C139.614 85.9558 144.696 87.6763 149.88 87.4529C155.065 87.2295 159.979 85.0783 163.66 81.4207L171.032 74.0699C171.405 73.6455 171.599 73.0933 171.573 72.529C171.553 71.9456 171.307 71.3931 170.886 70.9881C166.981 67.0842 161.686 64.8912 156.164 64.8912C150.642 64.8912 145.347 67.0842 141.442 70.9881L134.487 77.9223L134.07 78.3388L127.636 84.7316V76.0065C131.325 72.0619 133.338 66.8379 133.249 61.4373C133.159 56.0368 130.975 50.8822 127.157 47.0618L122.721 42.6055C122.331 42.2177 121.803 42 121.253 42C120.703 42 120.175 42.2177 119.785 42.6055C115.881 46.5105 113.688 51.8061 113.688 57.3278C113.688 62.8495 115.881 68.1451 119.785 72.0501L123.471 75.7566V95.1434L117.224 88.8963C117.003 83.5229 114.713 78.4431 110.831 74.7207C106.95 70.9983 101.778 68.922 96.4004 68.9265H85.9886C85.4363 68.9265 84.9067 69.1459 84.5162 69.5364C84.1256 69.9269 83.9062 70.4566 83.9062 71.0089C83.9062 76.5316 86.1002 81.8282 90.0053 85.7334C93.9105 89.6385 99.2071 91.8324 104.73 91.8324Z" fill="black"/>
<path d="M139.193 127.233H139.506L145.232 131.043C145.568 131.278 145.968 131.402 146.378 131.397C146.822 131.394 147.255 131.248 147.611 130.981C147.967 130.714 148.228 130.341 148.356 129.915C148.484 129.488 148.472 129.033 148.322 128.614C148.172 128.195 147.892 127.835 147.523 127.587L143.879 125.15L147.523 122.714C147.927 122.389 148.195 121.924 148.274 121.411C148.354 120.899 148.239 120.375 147.952 119.942C147.666 119.51 147.228 119.2 146.725 119.073C146.222 118.946 145.69 119.012 145.232 119.257L139.506 123.068H138.215L143.379 116.613C143.971 115.874 144.295 114.956 144.295 114.01C144.302 113.339 144.147 112.676 143.842 112.077C143.538 111.479 143.093 110.963 142.546 110.574C142.018 110.2 141.409 109.955 140.77 109.857C140.13 109.76 139.476 109.813 138.86 110.012C138.255 110.214 137.669 110.472 137.111 110.782C136.115 111.314 135.003 111.593 133.873 111.593C132.743 111.593 131.631 111.314 130.635 110.782C129.697 110.275 128.685 109.916 127.636 109.72C126.95 109.588 126.253 109.525 125.554 109.533C124.855 109.523 124.157 109.586 123.472 109.72C122.413 109.914 121.393 110.279 120.452 110.803C119.47 111.361 118.354 111.641 117.225 111.615C116.094 111.648 114.977 111.367 113.997 110.803C113.433 110.505 112.848 110.247 112.248 110.033C111.632 109.833 110.978 109.781 110.338 109.878C109.699 109.976 109.09 110.221 108.562 110.595C108.097 110.924 107.705 111.344 107.409 111.831C107.113 112.317 106.92 112.859 106.842 113.423C106.764 113.987 106.803 114.561 106.955 115.11C107.108 115.659 107.371 116.17 107.729 116.613L112.893 123.068H110.978C110.425 123.068 109.896 123.287 109.505 123.678C109.115 124.068 108.895 124.598 108.895 125.15C108.895 125.703 109.115 126.232 109.505 126.623C109.896 127.013 110.425 127.233 110.978 127.233H111.915L92.9443 144.745C90.7026 146.804 89.1354 149.492 88.4483 152.457C87.7612 155.422 87.9864 158.525 89.0942 161.36C90.202 164.195 92.1407 166.629 94.6561 168.342C97.1714 170.056 100.146 170.969 103.19 170.962H147.919C150.962 170.969 153.937 170.056 156.452 168.342C158.967 166.629 160.906 164.195 162.014 161.36C163.122 158.525 163.347 155.422 162.66 152.457C161.973 149.492 160.405 146.804 158.164 144.745L139.193 127.233ZM125.554 143.892C127.019 143.903 128.433 144.429 129.55 145.377C130.667 146.326 131.414 147.637 131.662 149.081C131.911 150.525 131.643 152.01 130.907 153.277C130.171 154.543 129.014 155.511 127.636 156.011V158.468C127.636 159.02 127.417 159.55 127.026 159.941C126.636 160.331 126.106 160.55 125.554 160.55C125.002 160.55 124.472 160.331 124.082 159.941C123.691 159.55 123.472 159.02 123.472 158.468V156.386H121.389C120.837 156.386 120.307 156.166 119.917 155.776C119.526 155.385 119.307 154.856 119.307 154.303C119.307 153.751 119.526 153.221 119.917 152.831C120.307 152.44 120.837 152.221 121.389 152.221H125.554C126.106 152.221 126.636 152.002 127.026 151.611C127.417 151.221 127.636 150.691 127.636 150.139C127.636 149.586 127.417 149.057 127.026 148.666C126.636 148.276 126.106 148.056 125.554 148.056C124.089 148.045 122.675 147.519 121.558 146.571C120.441 145.622 119.694 144.311 119.446 142.867C119.198 141.423 119.465 139.938 120.201 138.671C120.937 137.405 122.094 136.437 123.472 135.937V133.48C123.472 132.928 123.691 132.398 124.082 132.007C124.472 131.617 125.002 131.397 125.554 131.397C126.106 131.397 126.636 131.617 127.026 132.007C127.417 132.398 127.636 132.928 127.636 133.48V135.562H129.719C130.271 135.562 130.801 135.782 131.191 136.172C131.582 136.563 131.801 137.092 131.801 137.645C131.801 138.197 131.582 138.726 131.191 139.117C130.801 139.508 130.271 139.727 129.719 139.727H125.554C125.002 139.727 124.472 139.946 124.082 140.337C123.691 140.727 123.472 141.257 123.472 141.809C123.472 142.362 123.691 142.891 124.082 143.282C124.472 143.672 125.002 143.892 125.554 143.892Z" fill="black"/>
<path d="M73.4941 102.245C73.4941 101.692 73.2747 101.163 72.8842 100.772C72.4937 100.382 71.9641 100.162 71.4118 100.162C70.8595 100.162 70.3299 99.9429 69.9393 99.5524C69.5488 99.1618 69.3294 98.6322 69.3294 98.0799C69.3294 97.5276 69.11 96.998 68.7195 96.6075C68.329 96.2169 67.7993 95.9976 67.2471 95.9976C66.6948 95.9976 66.1651 96.2169 65.7746 96.6075C65.3841 96.998 65.1647 97.5276 65.1647 98.0799C65.1647 98.6322 64.9453 99.1618 64.5548 99.5524C64.1643 99.9429 63.6346 100.162 63.0824 100.162C62.5301 100.162 62.0004 100.382 61.6099 100.772C61.2194 101.163 61 101.692 61 102.245C61 102.797 61.2194 103.327 61.6099 103.717C62.0004 104.108 62.5301 104.327 63.0824 104.327C63.6346 104.327 64.1643 104.546 64.5548 104.937C64.9453 105.327 65.1647 105.857 65.1647 106.409C65.1647 106.962 65.3841 107.491 65.7746 107.882C66.1651 108.272 66.6948 108.492 67.2471 108.492C67.7993 108.492 68.329 108.272 68.7195 107.882C69.11 107.491 69.3294 106.962 69.3294 106.409C69.3294 105.857 69.5488 105.327 69.9393 104.937C70.3299 104.546 70.8595 104.327 71.4118 104.327C71.9641 104.327 72.4937 104.108 72.8842 103.717C73.2747 103.327 73.4941 102.797 73.4941 102.245Z" fill="black"/>
<path d="M185.941 83.5034C185.941 82.9511 185.722 82.4215 185.331 82.031C184.941 81.6405 184.411 81.4211 183.859 81.4211C183.307 81.4211 182.777 81.2017 182.387 80.8112C181.996 80.4206 181.777 79.891 181.777 79.3387C181.777 78.7864 181.557 78.2568 181.167 77.8663C180.776 77.4757 180.247 77.2563 179.694 77.2563C179.142 77.2563 178.612 77.4757 178.222 77.8663C177.831 78.2568 177.612 78.7864 177.612 79.3387C177.612 79.891 177.393 80.4206 177.002 80.8112C176.612 81.2017 176.082 81.4211 175.53 81.4211C174.977 81.4211 174.448 81.6405 174.057 82.031C173.667 82.4215 173.447 82.9511 173.447 83.5034C173.447 84.0557 173.667 84.5854 174.057 84.9759C174.448 85.3664 174.977 85.5858 175.53 85.5858C176.082 85.5858 176.612 85.8052 177.002 86.1957C177.393 86.5862 177.612 87.1159 177.612 87.6681C177.612 88.2204 177.831 88.7501 178.222 89.1406C178.612 89.5311 179.142 89.7505 179.694 89.7505C180.247 89.7505 180.776 89.5311 181.167 89.1406C181.557 88.7501 181.777 88.2204 181.777 87.6681C181.777 87.1159 181.996 86.5862 182.387 86.1957C182.777 85.8052 183.307 85.5858 183.859 85.5858C184.411 85.5858 184.941 85.3664 185.331 84.9759C185.722 84.5854 185.941 84.0557 185.941 83.5034Z" fill="black"/>
<path d="M167.201 114.738C166.649 114.738 166.119 114.519 165.728 114.129C165.338 113.738 165.118 113.208 165.118 112.656C165.118 112.104 164.899 111.574 164.509 111.184C164.118 110.793 163.588 110.574 163.036 110.574C162.484 110.574 161.954 110.793 161.564 111.184C161.173 111.574 160.954 112.104 160.954 112.656C160.954 113.208 160.734 113.738 160.344 114.129C159.953 114.519 159.424 114.738 158.871 114.738C158.319 114.738 157.789 114.958 157.399 115.348C157.008 115.739 156.789 116.269 156.789 116.821C156.789 117.373 157.008 117.903 157.399 118.293C157.789 118.684 158.319 118.903 158.871 118.903C159.424 118.903 159.953 119.123 160.344 119.513C160.734 119.904 160.954 120.433 160.954 120.986C160.954 121.538 161.173 122.067 161.564 122.458C161.954 122.848 162.484 123.068 163.036 123.068C163.588 123.068 164.118 122.848 164.509 122.458C164.899 122.067 165.118 121.538 165.118 120.986C165.118 120.433 165.338 119.904 165.728 119.513C166.119 119.123 166.649 118.903 167.201 118.903C167.753 118.903 168.283 118.684 168.673 118.293C169.064 117.903 169.283 117.373 169.283 116.821C169.283 116.269 169.064 115.739 168.673 115.348C168.283 114.958 167.753 114.738 167.201 114.738Z" fill="black"/>
<path d="M90.153 133.48C90.153 134.032 90.3724 134.562 90.7629 134.952C91.1534 135.343 91.6831 135.562 92.2354 135.562C92.7876 135.562 93.3173 135.343 93.7078 134.952C94.0983 134.562 94.3177 134.032 94.3177 133.48C94.3177 132.927 94.5371 132.398 94.9276 132.007C95.3181 131.617 95.8478 131.397 96.4001 131.397C96.9523 131.397 97.482 131.178 97.8725 130.787C98.263 130.397 98.4824 129.867 98.4824 129.315C98.4824 128.763 98.263 128.233 97.8725 127.842C97.482 127.452 96.9523 127.233 96.4001 127.233C95.8478 127.233 95.3181 127.013 94.9276 126.623C94.5371 126.232 94.3177 125.703 94.3177 125.15C94.3177 124.598 94.0983 124.068 93.7078 123.678C93.3173 123.287 92.7876 123.068 92.2354 123.068C91.6831 123.068 91.1534 123.287 90.7629 123.678C90.3724 124.068 90.153 124.598 90.153 125.15C90.153 125.703 89.9336 126.232 89.5431 126.623C89.1526 127.013 88.6229 127.233 88.0706 127.233C87.5184 127.233 86.9887 127.452 86.5982 127.842C86.2077 128.233 85.9883 128.763 85.9883 129.315C85.9883 129.867 86.2077 130.397 86.5982 130.787C86.9887 131.178 87.5184 131.397 88.0706 131.397C88.6229 131.397 89.1526 131.617 89.5431 132.007C89.9336 132.398 90.153 132.927 90.153 133.48Z" fill="black"/>
<path d="M150.541 58.515C151.094 58.515 151.623 58.7344 152.014 59.1249C152.404 59.5154 152.624 60.0451 152.624 60.5973C152.624 61.1496 152.843 61.6793 153.234 62.0698C153.624 62.4603 154.154 62.6797 154.706 62.6797C155.258 62.6797 155.788 62.4603 156.179 62.0698C156.569 61.6793 156.788 61.1496 156.788 60.5973C156.788 60.0451 157.008 59.5154 157.398 59.1249C157.789 58.7344 158.318 58.515 158.871 58.515C159.423 58.515 159.953 58.2956 160.343 57.9051C160.734 57.5145 160.953 56.9849 160.953 56.4326C160.953 55.8803 160.734 55.3507 160.343 54.9602C159.953 54.5697 159.423 54.3503 158.871 54.3503C158.318 54.3503 157.789 54.1309 157.398 53.7404C157.008 53.3498 156.788 52.8202 156.788 52.2679C156.788 51.7156 156.569 51.186 156.179 50.7955C155.788 50.4049 155.258 50.1855 154.706 50.1855C154.154 50.1855 153.624 50.4049 153.234 50.7955C152.843 51.186 152.624 51.7156 152.624 52.2679C152.624 52.8202 152.404 53.3498 152.014 53.7404C151.623 54.1309 151.094 54.3503 150.541 54.3503C149.989 54.3503 149.459 54.5697 149.069 54.9602C148.678 55.3507 148.459 55.8803 148.459 56.4326C148.459 56.9849 148.678 57.5145 149.069 57.9051C149.459 58.2956 149.989 58.515 150.541 58.515Z" fill="black"/>
<path d="M88.0706 58.515C88.6229 58.515 89.1526 58.7344 89.5431 59.1249C89.9336 59.5154 90.153 60.0451 90.153 60.5973C90.153 61.1496 90.3724 61.6793 90.7629 62.0698C91.1534 62.4603 91.6831 62.6797 92.2354 62.6797C92.7876 62.6797 93.3173 62.4603 93.7078 62.0698C94.0983 61.6793 94.3177 61.1496 94.3177 60.5973C94.3177 60.0451 94.5371 59.5154 94.9276 59.1249C95.3181 58.7344 95.8478 58.515 96.4001 58.515C96.9523 58.515 97.482 58.2956 97.8725 57.9051C98.263 57.5145 98.4824 56.9849 98.4824 56.4326C98.4824 55.8803 98.263 55.3507 97.8725 54.9602C97.482 54.5697 96.9523 54.3503 96.4001 54.3503C95.8478 54.3503 95.3181 54.1309 94.9276 53.7404C94.5371 53.3498 94.3177 52.8202 94.3177 52.2679C94.3177 51.7156 94.0983 51.186 93.7078 50.7955C93.3173 50.4049 92.7876 50.1855 92.2354 50.1855C91.6831 50.1855 91.1534 50.4049 90.7629 50.7955C90.3724 51.186 90.153 51.7156 90.153 52.2679C90.153 52.8202 89.9336 53.3498 89.5431 53.7404C89.1526 54.1309 88.6229 54.3503 88.0706 54.3503C87.5184 54.3503 86.9887 54.5697 86.5982 54.9602C86.2077 55.3507 85.9883 55.8803 85.9883 56.4326C85.9883 56.9849 86.2077 57.5145 86.5982 57.9051C86.9887 58.2956 87.5184 58.515 88.0706 58.515Z" fill="black"/>
<path d="M140.129 50.1857C141.279 50.1857 142.212 49.2534 142.212 48.1034C142.212 46.9533 141.279 46.021 140.129 46.021C138.979 46.021 138.047 46.9533 138.047 48.1034C138.047 49.2534 138.979 50.1857 140.129 50.1857Z" fill="black"/>
<path d="M171.366 145.974C172.516 145.974 173.448 145.041 173.448 143.891C173.448 142.741 172.516 141.809 171.366 141.809C170.216 141.809 169.283 142.741 169.283 143.891C169.283 145.041 170.216 145.974 171.366 145.974Z" fill="black"/>
<path d="M81.8245 150.139C82.9746 150.139 83.9069 149.207 83.9069 148.056C83.9069 146.906 82.9746 145.974 81.8245 145.974C80.6745 145.974 79.7422 146.906 79.7422 148.056C79.7422 149.207 80.6745 150.139 81.8245 150.139Z" fill="black"/>
<path d="M185.942 114.738C187.092 114.738 188.024 113.806 188.024 112.656C188.024 111.506 187.092 110.574 185.942 110.574C184.792 110.574 183.859 111.506 183.859 112.656C183.859 113.806 184.792 114.738 185.942 114.738Z" fill="black"/>
<path d="M140.129 100.162C141.279 100.162 142.212 99.23 142.212 98.0799C142.212 96.9299 141.279 95.9976 140.129 95.9976C138.979 95.9976 138.047 96.9299 138.047 98.0799C138.047 99.23 138.979 100.162 140.129 100.162Z" fill="black"/>
<path d="M73.4925 125.15C74.6426 125.15 75.5749 124.218 75.5749 123.068C75.5749 121.918 74.6426 120.985 73.4925 120.985C72.3425 120.985 71.4102 121.918 71.4102 123.068C71.4102 124.218 72.3425 125.15 73.4925 125.15Z" fill="black"/>
<path d="M104.731 104.327C105.881 104.327 106.813 103.395 106.813 102.244C106.813 101.094 105.881 100.162 104.731 100.162C103.581 100.162 102.648 101.094 102.648 102.244C102.648 103.395 103.581 104.327 104.731 104.327Z" fill="black"/>
<path d="M77.6585 81.4211C78.8086 81.4211 79.7409 80.4888 79.7409 79.3387C79.7409 78.1887 78.8086 77.2563 77.6585 77.2563C76.5085 77.2563 75.5762 78.1887 75.5762 79.3387C75.5762 80.4888 76.5085 81.4211 77.6585 81.4211Z" fill="black"/>
</svg>
