<svg width="492" height="90" viewBox="0 0 492 90" fill="none" xmlns="http://www.w3.org/2000/svg">
<rect x="1.5" y="1.5" width="489" height="87" rx="43.5" fill="white"/>
<path d="M96.3515 57.42C101.986 57.42 104.016 53.465 104.016 49.335V32.5H93.3065V35.755H100.446V49.405C100.446 51.75 99.5015 54.095 96.4565 54.095C93.9015 54.095 92.4665 52.695 92.4665 50.28H88.8965C88.8965 55.145 92.4315 57.42 96.3515 57.42ZM121.201 57.455C128.376 57.455 133.801 51.925 133.801 44.75C133.801 37.61 128.411 32.045 121.236 32.045C114.061 32.045 108.636 37.54 108.636 44.75C108.636 51.995 114.026 57.455 121.201 57.455ZM121.236 54.06C116.161 54.06 112.346 50.14 112.346 44.75C112.346 39.43 116.161 35.44 121.236 35.44C126.276 35.44 130.126 39.43 130.126 44.75C130.126 50.14 126.276 54.06 121.236 54.06ZM138.333 57H149.008V53.815H145.438V35.685H149.008V32.5H138.333V35.685H141.903V53.815H138.333V57ZM155.089 57H158.659V35.895H158.904L168.214 57H174.234V32.5H170.734V53.605H170.489L161.039 32.5H155.089V57ZM190.123 57H193.693V35.895H193.938L203.248 57H209.268V32.5H205.768V53.605H205.523L196.073 32.5H190.123V57ZM215.724 57H230.494V53.71H219.294V46.15H228.639V42.895H219.294V35.79H230.144V32.5H215.724V57ZM238.352 57H243.987L248.257 35.895H248.537L252.842 57H258.442L264.042 32.5H260.227L255.782 53.605H255.537L251.162 32.5H245.632L241.292 53.605H241.012L236.567 32.5H232.752L238.352 57ZM275.057 57.455C280.552 57.455 283.737 54.27 283.737 50.35C283.737 40.445 270.507 44.855 270.507 38.8C270.507 37.015 271.837 35.3 274.952 35.3C277.927 35.3 279.642 36.945 279.642 39.465H283.247C283.247 34.145 278.872 32.045 274.987 32.045C269.877 32.045 266.937 35.195 266.937 38.8C266.937 48.635 280.132 43.63 280.132 50.455C280.132 52.695 278.102 54.095 275.197 54.095C271.872 54.095 269.702 52.1 269.702 49.405H266.132C266.132 54.165 270.087 57.455 275.057 57.455ZM288.629 57H302.489V53.745H292.199V32.5H288.629V57ZM307.291 57H322.061V53.71H310.861V46.15H320.206V42.895H310.861V35.79H321.711V32.5H307.291V57ZM331.74 57H335.275V35.79H342.24V32.5H324.775V35.79H331.74V57ZM351.29 57H354.825V35.79H361.79V32.5H344.325V35.79H351.29V57ZM366.046 57H380.816V53.71H369.616V46.15H378.961V42.895H369.616V35.79H380.466V32.5H366.046V57ZM385.699 57H389.269V47.41H392.769L398.474 57H402.744L396.409 47.025C399.979 46.15 401.869 43.35 401.869 39.815C401.869 35.44 398.719 32.5 393.679 32.5H385.699V57ZM389.269 44.225V35.755H393.504C396.654 35.755 398.194 37.575 398.194 39.85C398.194 42.72 396.269 44.225 393.679 44.225H389.269Z" fill="black"/>
<rect x="1.5" y="1.5" width="489" height="87" rx="43.5" stroke="black" stroke-width="3"/>
</svg>
