<svg width="250" height="250" viewBox="0 0 250 250" fill="none" xmlns="http://www.w3.org/2000/svg">
<rect x="1.5" y="1.5" width="247" height="247" rx="65.5" fill="white" stroke="black" stroke-width="3"/>
<path d="M72.0973 197.93C72.0973 199.19 71.8773 200.26 71.4373 201.14C70.9973 202 70.3973 202.7 69.6373 203.24C68.8973 203.76 68.0273 204.14 67.0273 204.38C66.0273 204.6 64.9573 204.71 63.8173 204.71H61.2973C61.0573 204.71 60.8473 204.79 60.6673 204.95C60.4873 205.11 60.3973 205.33 60.3973 205.61V211.16C60.3973 211.36 60.3173 211.54 60.1573 211.7C60.0173 211.84 59.8473 211.91 59.6473 211.91H55.3573C55.1573 211.91 54.9773 211.84 54.8173 211.7C54.6773 211.54 54.6073 211.36 54.6073 211.16V193.61C54.6073 193.19 54.6873 192.82 54.8473 192.5C55.0073 192.16 55.2173 191.88 55.4773 191.66C55.7373 191.44 56.0173 191.28 56.3173 191.18C56.6173 191.06 56.9173 191 57.2173 191H63.8173C64.9573 191 66.0273 191.13 67.0273 191.39C68.0473 191.63 68.9273 192.03 69.6673 192.59C70.4273 193.13 71.0173 193.84 71.4373 194.72C71.8773 195.6 72.0973 196.67 72.0973 197.93ZM66.2773 197.9C66.2773 197.06 66.0473 196.42 65.5873 195.98C65.1473 195.52 64.5073 195.29 63.6673 195.29H58.5973C58.7573 195.29 58.9373 195.33 59.1373 195.41C59.3373 195.47 59.5173 195.57 59.6773 195.71C59.8573 195.85 60.0073 196.03 60.1273 196.25C60.2473 196.45 60.3073 196.68 60.3073 196.94V199.52C60.3073 199.8 60.3973 200.03 60.5773 200.21C60.7773 200.37 60.9973 200.45 61.2373 200.45H63.6673C64.4873 200.45 65.1273 200.23 65.5873 199.79C66.0473 199.35 66.2773 198.72 66.2773 197.9ZM73.3987 211.82C73.2787 211.66 73.2187 211.51 73.2187 211.37C73.2187 211.23 73.2287 211.14 73.2487 211.1L80.2087 191.96C80.4287 191.38 80.8287 191.09 81.4087 191.09H86.0587C86.6387 191.09 87.0387 191.38 87.2587 191.96L94.2187 211.1C94.2387 211.14 94.2487 211.23 94.2487 211.37C94.2487 211.53 94.1787 211.68 94.0387 211.82C93.9187 211.94 93.7787 212 93.6187 212H89.7487C89.2487 212 88.9087 211.78 88.7287 211.34L87.1687 207.11C86.4487 207.39 85.7187 207.62 84.9787 207.8C84.2387 207.98 83.5187 208.12 82.8187 208.22C82.1387 208.3 81.4987 208.36 80.8987 208.4C80.2987 208.42 79.7787 208.43 79.3387 208.43C79.0587 208.43 78.8187 208.43 78.6187 208.43C78.4387 208.43 78.2987 208.42 78.1987 208.4C78.5587 208.46 78.8487 208.66 79.0687 209C79.3087 209.34 79.3387 209.74 79.1587 210.2L78.7387 211.34C78.5587 211.78 78.2187 212 77.7187 212H73.8487C73.7087 212 73.5587 211.94 73.3987 211.82ZM81.0187 204.14C81.5787 204.1 82.1587 204.03 82.7587 203.93C83.2787 203.85 83.8187 203.74 84.3787 203.6C84.9587 203.44 85.5087 203.22 86.0287 202.94L83.7187 196.34L81.0187 204.14ZM114.06 211.94H109.83C109.27 211.94 108.87 211.68 108.63 211.16L105.57 205.16C105.39 204.84 105.12 204.68 104.76 204.68H100.83C101.33 204.68 101.72 204.86 102 205.22C102.3 205.56 102.45 205.91 102.45 206.27V211.22C102.45 211.44 102.38 211.61 102.24 211.73C102.1 211.87 101.92 211.94 101.7 211.94H97.5905C97.3905 211.94 97.2105 211.87 97.0505 211.73C96.9105 211.57 96.8405 211.4 96.8405 211.22V193.64C96.8405 192.9 97.1005 192.29 97.6205 191.81C98.1405 191.31 98.7505 191.06 99.4505 191.06H105.81C106.93 191.06 107.99 191.18 108.99 191.42C110.01 191.66 110.9 192.05 111.66 192.59C112.44 193.13 113.06 193.84 113.52 194.72C113.98 195.58 114.21 196.64 114.21 197.9C114.21 199.1 113.94 200.18 113.4 201.14C112.86 202.1 112.06 202.88 111 203.48C110.84 203.58 110.75 203.7 110.73 203.84C110.73 203.98 110.76 204.09 110.82 204.17L114.6 211.01C114.66 211.13 114.69 211.24 114.69 211.34C114.69 211.5 114.62 211.64 114.48 211.76C114.36 211.88 114.22 211.94 114.06 211.94ZM108.42 197.87C108.42 197.05 108.17 196.43 107.67 196.01C107.19 195.57 106.56 195.35 105.78 195.35H100.62C101.12 195.35 101.52 195.52 101.82 195.86C102.12 196.2 102.27 196.56 102.27 196.94V199.37C102.27 199.61 102.35 199.82 102.51 200C102.69 200.18 102.91 200.27 103.17 200.27H105.78C106.56 200.27 107.19 200.08 107.67 199.7C108.17 199.3 108.42 198.69 108.42 197.87ZM133.295 191C133.515 191 133.695 191.08 133.835 191.24C133.995 191.38 134.075 191.55 134.075 191.75V195.11C134.075 195.33 133.995 195.51 133.835 195.65C133.695 195.79 133.515 195.86 133.295 195.86H126.335C126.775 195.86 127.165 196.02 127.505 196.34C127.865 196.66 128.045 197.02 128.045 197.42V211.16C128.045 211.38 127.965 211.55 127.805 211.67C127.665 211.81 127.485 211.88 127.265 211.88H123.095C122.875 211.88 122.695 211.81 122.555 211.67C122.395 211.55 122.315 211.38 122.315 211.16V196.76C122.315 196.48 122.225 196.26 122.045 196.1C121.865 195.94 121.655 195.86 121.415 195.86H117.065C116.865 195.86 116.685 195.79 116.525 195.65C116.365 195.51 116.285 195.33 116.285 195.11V193.58C116.285 193.2 116.355 192.85 116.495 192.53C116.655 192.21 116.855 191.94 117.095 191.72C117.355 191.48 117.635 191.3 117.935 191.18C118.255 191.06 118.575 191 118.895 191H133.295ZM136.938 211.16V193.61C136.938 192.91 137.188 192.3 137.688 191.78C138.188 191.26 138.808 191 139.548 191H140.538C140.758 191 141.018 191.05 141.318 191.15C141.618 191.23 141.928 191.49 142.248 191.93C143.428 193.77 144.488 195.43 145.428 196.91C146.008 197.81 146.458 198.53 146.778 199.07C147.118 199.59 147.438 200.08 147.738 200.54C148.038 200.98 148.288 201.36 148.488 201.68C148.688 202 148.808 202.19 148.848 202.25C148.848 202.29 148.888 202.31 148.968 202.31C149.068 202.31 149.118 202.26 149.118 202.16V193.61C149.118 192.83 149.388 192.2 149.928 191.72C150.468 191.24 151.078 191 151.758 191H153.678C153.898 191 154.078 191.07 154.218 191.21C154.358 191.39 154.428 191.58 154.428 191.78V211.13C154.428 211.31 154.358 211.49 154.218 211.67C154.058 211.83 153.878 211.91 153.678 211.91H150.288C149.848 211.91 149.508 211.72 149.268 211.34C148.068 209.5 146.988 207.85 146.028 206.39C145.448 205.51 144.988 204.81 144.648 204.29C144.308 203.75 143.988 203.26 143.688 202.82C143.388 202.36 143.138 201.98 142.938 201.68C142.738 201.36 142.618 201.17 142.578 201.11C142.518 201.05 142.468 201.02 142.428 201.02C142.328 201.02 142.278 201.07 142.278 201.17V211.16C142.278 211.38 142.198 211.56 142.038 211.7C141.878 211.84 141.698 211.91 141.498 211.91H137.688C137.508 211.91 137.338 211.83 137.178 211.67C137.018 211.51 136.938 211.34 136.938 211.16ZM158.759 211.19V193.64C158.759 192.88 159.019 192.26 159.539 191.78C160.059 191.28 160.669 191.03 161.369 191.03H173.609C173.829 191.03 174.009 191.11 174.149 191.27C174.309 191.41 174.389 191.59 174.389 191.81V194.78C174.389 195 174.319 195.17 174.179 195.29C174.039 195.43 173.849 195.5 173.609 195.5H162.539C163.019 195.5 163.409 195.67 163.709 196.01C164.029 196.35 164.189 196.72 164.189 197.12V198.38C164.189 198.6 164.259 198.81 164.399 199.01C164.559 199.21 164.789 199.31 165.089 199.31H171.629C171.849 199.31 172.029 199.39 172.169 199.55C172.329 199.69 172.409 199.87 172.409 200.09V202.79C172.409 203.01 172.329 203.2 172.169 203.36C172.029 203.5 171.849 203.57 171.629 203.57H162.539C162.999 203.57 163.389 203.73 163.709 204.05C164.029 204.37 164.189 204.73 164.189 205.13V206.54C164.189 206.76 164.269 206.97 164.429 207.17C164.589 207.37 164.809 207.47 165.089 207.47H173.849C174.369 207.47 174.629 207.73 174.629 208.25V211.19C174.629 211.43 174.549 211.62 174.389 211.76C174.249 211.88 174.069 211.94 173.849 211.94H159.509C159.309 211.94 159.129 211.87 158.969 211.73C158.829 211.57 158.759 211.39 158.759 211.19ZM195.427 211.94H191.197C190.637 211.94 190.237 211.68 189.997 211.16L186.937 205.16C186.757 204.84 186.487 204.68 186.127 204.68H182.197C182.697 204.68 183.087 204.86 183.367 205.22C183.667 205.56 183.817 205.91 183.817 206.27V211.22C183.817 211.44 183.747 211.61 183.607 211.73C183.467 211.87 183.287 211.94 183.067 211.94H178.957C178.757 211.94 178.577 211.87 178.417 211.73C178.277 211.57 178.207 211.4 178.207 211.22V193.64C178.207 192.9 178.467 192.29 178.987 191.81C179.507 191.31 180.117 191.06 180.817 191.06H187.177C188.297 191.06 189.357 191.18 190.357 191.42C191.377 191.66 192.267 192.05 193.027 192.59C193.807 193.13 194.427 193.84 194.887 194.72C195.347 195.58 195.577 196.64 195.577 197.9C195.577 199.1 195.307 200.18 194.767 201.14C194.227 202.1 193.427 202.88 192.367 203.48C192.207 203.58 192.117 203.7 192.097 203.84C192.097 203.98 192.127 204.09 192.187 204.17L195.967 211.01C196.027 211.13 196.057 211.24 196.057 211.34C196.057 211.5 195.987 211.64 195.847 211.76C195.727 211.88 195.587 211.94 195.427 211.94ZM189.787 197.87C189.787 197.05 189.537 196.43 189.037 196.01C188.557 195.57 187.927 195.35 187.147 195.35H181.987C182.487 195.35 182.887 195.52 183.187 195.86C183.487 196.2 183.637 196.56 183.637 196.94V199.37C183.637 199.61 183.717 199.82 183.877 200C184.057 200.18 184.277 200.27 184.537 200.27H187.147C187.927 200.27 188.557 200.08 189.037 199.7C189.537 199.3 189.787 198.69 189.787 197.87Z" fill="black"/>
<path d="M163.056 121.307C163.718 120.146 164.144 118.866 164.309 117.539C165.741 118.095 167.26 118.393 168.796 118.421C170.292 118.46 171.772 118.12 173.101 117.434C174.429 116.747 175.561 115.735 176.392 114.493C177.275 113.076 177.762 111.449 177.802 109.78C177.842 108.111 177.433 106.463 176.618 105.005C176.7 103.323 177.238 101.694 178.175 100.293C179.112 98.8926 180.413 97.7726 181.938 97.0531C182.687 97.8957 183.606 98.5698 184.636 99.0308C185.665 99.4918 186.781 99.7292 187.909 99.7273C189.148 99.727 190.371 99.4446 191.484 98.9016L199.339 94.7747C199.7 94.5856 200.02 94.3273 200.281 94.0145C200.542 93.7018 200.739 93.3407 200.86 92.952C200.981 92.5633 201.024 92.1545 200.987 91.7491C200.95 91.3437 200.833 90.9496 200.643 90.5894C200.453 90.2291 200.194 89.9098 199.88 89.6497C199.566 89.3896 199.204 89.1938 198.815 89.0735C198.425 88.9532 198.016 88.9108 197.61 88.9487C197.204 88.9865 196.809 89.104 196.449 89.2942L188.683 93.3758C188.283 93.5733 187.823 93.6114 187.395 93.4822C186.968 93.353 186.606 93.0662 186.383 92.6802L167.99 57.1643C167.903 57 167.849 56.8193 167.834 56.6336C167.819 56.4478 167.842 56.2609 167.903 56.0846C167.971 55.8873 168.079 55.7059 168.219 55.5511C168.359 55.3962 168.529 55.2712 168.719 55.1833L177.621 50.8748C178.355 50.5131 178.916 49.8762 179.182 49.1028C179.448 48.3294 179.397 47.4825 179.04 46.7466C178.683 46.0108 178.049 45.4458 177.276 45.1749C176.503 44.904 175.655 44.9492 174.915 45.3006L166.014 49.609C165.077 50.0548 164.24 50.685 163.553 51.4617C162.865 52.2385 162.343 53.1458 162.015 54.1292C161.521 55.6102 161.501 57.2082 161.958 58.701C160.221 59.7745 158.214 60.3338 156.171 60.3143C154.128 60.2947 152.133 59.697 150.416 58.5905L142.861 54.0173C140.596 52.9512 138.085 52.516 135.593 52.7576H124.337C122.018 52.6151 119.728 53.3419 117.917 54.7956L117.909 54.7931C110.204 53.0025 103.682 56.4505 99.3579 58.7295L98.1962 59.339C96.7193 60.0942 95.0875 60.4983 93.4283 60.5198C91.7691 60.5414 90.1274 60.1797 88.6313 59.463L87.3297 58.8696C87.8119 57.3512 87.8004 55.7193 87.2969 54.2078C86.9679 53.2179 86.4419 52.3046 85.7506 51.5227C85.0593 50.7407 84.217 50.1063 83.2741 49.6574L74.2801 45.3066C73.5407 44.9552 72.6921 44.91 71.9194 45.1809C71.1467 45.4518 70.5127 46.0168 70.1556 46.7527C69.7985 47.4885 69.7473 48.3355 70.0132 49.1088C70.2791 49.8822 70.8406 50.5191 71.575 50.8808L80.5689 55.2316C80.7646 55.3221 80.9399 55.4511 81.0844 55.6109C81.2288 55.7708 81.3394 55.9581 81.4095 56.1617C81.4715 56.3441 81.4954 56.5372 81.4797 56.7291C81.4641 56.921 81.4093 57.1078 81.3187 57.2778L62.7387 93.158C62.5198 93.5462 62.164 93.8391 61.7407 93.9798C61.3173 94.1204 60.8567 94.0986 60.4485 93.9187L53.5343 90.3225C53.173 90.1346 52.7783 90.0196 52.3726 89.984C51.9669 89.9485 51.5581 89.9931 51.1696 90.1152C50.7812 90.2374 50.4206 90.4348 50.1085 90.6961C49.7965 90.9574 49.539 91.2775 49.3508 91.6381C49.1627 91.9988 49.0475 92.3929 49.0119 92.798C48.9763 93.2031 49.0209 93.6112 49.1433 93.9991C49.2656 94.3869 49.4633 94.747 49.725 95.0585C49.9867 95.3701 50.3073 95.6272 50.6686 95.8151L57.6631 99.4521C59.532 100.353 61.6774 100.498 63.6505 99.8551C65.6235 99.2128 67.2713 97.8334 68.2489 96.0056L84.5976 64.4344L86.0656 65.1038C88.3528 66.1501 90.8381 66.6946 93.354 66.7008C96.0275 66.7037 98.6628 66.0668 101.039 64.8437L102.254 64.2085C104.698 62.7994 107.308 61.7 110.024 60.9356L96.9315 71.1015C96.8542 71.1619 96.78 71.224 96.7103 71.2905C95.9061 72.0444 95.2843 72.9712 94.892 74.0007C94.4997 75.0301 94.3471 76.1352 94.4459 77.2322C94.6776 78.3783 95.1993 79.4461 95.9613 80.334C96.7233 81.2218 97.7002 81.9002 98.799 82.3044C98.9125 82.3588 99.0294 82.4058 99.1489 82.445C103.913 83.837 109.016 83.5208 113.571 81.5513C113.65 81.5135 113.729 81.4742 113.806 81.4303L119.746 78.0655L169.322 106.009C169.791 106.237 170.209 106.557 170.552 106.949C170.895 107.341 171.155 107.798 171.317 108.293C171.48 108.788 171.541 109.31 171.497 109.829C171.454 110.347 171.306 110.852 171.064 111.313C170.702 111.768 169.107 113.265 164.975 111.081L143.597 99.4793C142.875 99.087 142.025 98.9975 141.237 99.2303C140.448 99.4632 139.784 99.9993 139.391 100.721C138.998 101.442 138.909 102.29 139.142 103.078C139.375 103.865 139.912 104.528 140.635 104.92L156.821 113.706C157.006 113.881 157.212 114.032 157.433 114.156C157.762 114.389 157.989 114.738 158.07 115.133C158.329 116.163 158.195 117.253 157.694 118.191C157.114 119.19 154.793 119.488 153.48 118.776L136.971 109.333C136.257 108.926 135.411 108.819 134.618 109.034C133.824 109.25 133.149 109.771 132.741 110.483C132.332 111.195 132.223 112.04 132.438 112.832C132.653 113.624 133.174 114.299 133.887 114.708L145.558 121.383C145.738 121.483 145.895 121.62 146.017 121.786C146.14 121.952 146.224 122.142 146.266 122.343C146.472 123.29 146.298 124.28 145.783 125.1C145.239 125.757 144.499 126.222 143.671 126.43C142.843 126.637 141.97 126.575 141.18 126.253L129.423 119.06C128.722 118.632 127.879 118.499 127.08 118.691C126.281 118.883 125.591 119.384 125.161 120.084C124.731 120.784 124.598 121.625 124.789 122.424C124.981 123.222 125.482 123.912 126.182 124.341L133.735 128.963C134.179 129.263 134.494 129.718 134.619 130.239C134.886 131.266 134.735 132.356 134.199 133.273C133.614 133.982 132.813 134.483 131.918 134.7C131.023 134.917 130.082 134.838 129.236 134.475L80.0767 104.421C79.7291 104.207 79.3427 104.064 78.9394 103.999C78.5362 103.934 78.1241 103.95 77.7269 104.044C77.3296 104.139 76.955 104.311 76.6245 104.55C76.294 104.79 76.0141 105.092 75.8009 105.44C75.5877 105.788 75.4455 106.175 75.3822 106.577C75.319 106.98 75.3361 107.392 75.4325 107.788C75.5289 108.184 75.7027 108.558 75.9439 108.887C76.1852 109.216 76.4892 109.494 76.8384 109.705L126.081 139.81C126.126 139.837 126.173 139.865 126.22 139.89C127.656 140.636 129.254 141.016 130.873 140.996C132.597 141.046 134.305 140.648 135.829 139.84C137.352 139.031 138.639 137.841 139.562 136.386C140.245 135.211 140.689 133.912 140.867 132.565C141.458 132.673 142.056 132.729 142.657 132.734C144.343 132.781 146.012 132.389 147.5 131.597C148.989 130.804 150.245 129.638 151.145 128.214C151.735 127.199 152.15 126.091 152.372 124.939C153.323 125.212 154.307 125.353 155.296 125.357C156.832 125.421 158.357 125.081 159.719 124.37C161.081 123.659 162.232 122.603 163.056 121.307ZM121.267 71.8107C120.801 71.5473 120.274 71.4091 119.738 71.4096C119.203 71.4102 118.676 71.5494 118.211 71.8138L110.865 75.974C107.82 77.222 104.45 77.4465 101.266 76.6137C101.05 76.5068 100.846 76.3776 100.657 76.2281C100.729 76.098 100.813 75.9749 100.907 75.8606C100.907 75.8606 121.759 59.6596 121.856 59.5598C122.436 59.1055 123.164 58.8828 123.9 58.9352C124.006 58.9458 135.668 58.9518 135.668 58.9518C135.721 58.9518 135.774 58.9503 135.827 58.9473C137.191 58.827 138.565 58.9955 139.859 59.4418L147.096 63.8213C149.698 65.5187 152.721 66.4601 155.828 66.5403C158.935 66.6206 162.003 65.8365 164.689 64.2758L178.86 91.6386C175.36 93.3606 172.681 96.3907 171.405 100.072L121.267 71.8107Z" fill="black"/>
</svg>
