<svg width="250" height="250" viewBox="0 0 250 250" fill="none" xmlns="http://www.w3.org/2000/svg">
<rect x="1.5" y="1.5" width="247" height="247" rx="65.5" fill="#F1F1F1" stroke="black" stroke-width="3"/>
<path d="M84.0259 190C84.2459 190 84.4259 190.08 84.5659 190.24C84.7259 190.38 84.8059 190.55 84.8059 190.75V194.11C84.8059 194.33 84.7259 194.51 84.5659 194.65C84.4259 194.79 84.2459 194.86 84.0259 194.86H77.0659C77.5059 194.86 77.8959 195.02 78.2359 195.34C78.5959 195.66 78.7759 196.02 78.7759 196.42V210.16C78.7759 210.38 78.6959 210.55 78.5359 210.67C78.3959 210.81 78.2159 210.88 77.9959 210.88H73.8259C73.6059 210.88 73.4259 210.81 73.2859 210.67C73.1259 210.55 73.0459 210.38 73.0459 210.16V195.76C73.0459 195.48 72.9559 195.26 72.7759 195.1C72.5959 194.94 72.3859 194.86 72.1459 194.86H67.7959C67.5959 194.86 67.4159 194.79 67.2559 194.65C67.0959 194.51 67.0159 194.33 67.0159 194.11V192.58C67.0159 192.2 67.0859 191.85 67.2259 191.53C67.3859 191.21 67.5859 190.94 67.8259 190.72C68.0859 190.48 68.3659 190.3 68.6659 190.18C68.9859 190.06 69.3059 190 69.6259 190H84.0259ZM87.6689 210.19V192.64C87.6689 191.88 87.9289 191.26 88.4489 190.78C88.9689 190.28 89.5789 190.03 90.2789 190.03H102.519C102.739 190.03 102.919 190.11 103.059 190.27C103.219 190.41 103.299 190.59 103.299 190.81V193.78C103.299 194 103.229 194.17 103.089 194.29C102.949 194.43 102.759 194.5 102.519 194.5H91.4489C91.9289 194.5 92.3189 194.67 92.6189 195.01C92.9389 195.35 93.0989 195.72 93.0989 196.12V197.38C93.0989 197.6 93.1689 197.81 93.3089 198.01C93.4689 198.21 93.6989 198.31 93.9989 198.31H100.539C100.759 198.31 100.939 198.39 101.079 198.55C101.239 198.69 101.319 198.87 101.319 199.09V201.79C101.319 202.01 101.239 202.2 101.079 202.36C100.939 202.5 100.759 202.57 100.539 202.57H91.4489C91.9089 202.57 92.2989 202.73 92.6189 203.05C92.9389 203.37 93.0989 203.73 93.0989 204.13V205.54C93.0989 205.76 93.1789 205.97 93.3389 206.17C93.4989 206.37 93.7189 206.47 93.9989 206.47H102.759C103.279 206.47 103.539 206.73 103.539 207.25V210.19C103.539 210.43 103.459 210.62 103.299 210.76C103.159 210.88 102.979 210.94 102.759 210.94H88.4189C88.2189 210.94 88.0389 210.87 87.8789 210.73C87.7389 210.57 87.6689 210.39 87.6689 210.19ZM124.127 204.64C124.127 205.86 123.837 206.89 123.257 207.73C122.697 208.57 121.977 209.25 121.097 209.77C120.217 210.29 119.237 210.67 118.157 210.91C117.077 211.13 116.027 211.24 115.007 211.24C114.027 211.24 113.007 211.14 111.947 210.94C110.907 210.74 109.947 210.41 109.067 209.95C108.187 209.47 107.447 208.85 106.847 208.09C106.267 207.31 105.947 206.35 105.887 205.21C105.887 205.03 105.947 204.88 106.067 204.76C106.207 204.64 106.367 204.58 106.547 204.58H110.537C110.657 204.58 110.757 204.59 110.837 204.61C110.937 204.63 111.027 204.66 111.107 204.7C111.247 204.78 111.417 204.92 111.617 205.12C111.937 205.76 112.407 206.2 113.027 206.44C113.667 206.66 114.327 206.77 115.007 206.77C115.307 206.77 115.647 206.75 116.027 206.71C116.427 206.67 116.787 206.59 117.107 206.47C117.447 206.33 117.737 206.14 117.977 205.9C118.217 205.64 118.337 205.31 118.337 204.91C118.337 204.37 118.137 203.98 117.737 203.74C117.337 203.5 116.917 203.31 116.477 203.17C116.137 203.05 115.727 202.94 115.247 202.84C114.787 202.72 114.247 202.6 113.627 202.48C112.707 202.3 111.817 202.07 110.957 201.79C110.097 201.49 109.327 201.1 108.647 200.62C107.987 200.14 107.447 199.54 107.027 198.82C106.627 198.08 106.427 197.18 106.427 196.12C106.427 194.8 106.787 193.67 107.507 192.73C108.247 191.77 109.207 191.04 110.387 190.54C111.667 190.02 113.137 189.76 114.797 189.76C115.457 189.76 116.137 189.82 116.837 189.94C117.557 190.04 118.247 190.22 118.907 190.48C119.587 190.72 120.217 191.05 120.797 191.47C121.377 191.87 121.877 192.36 122.297 192.94C122.977 193.82 123.347 194.71 123.407 195.61C123.407 195.77 123.337 195.92 123.197 196.06C123.077 196.2 122.937 196.27 122.777 196.27H118.577C118.157 196.27 117.827 196.09 117.587 195.73C117.467 195.31 117.157 194.95 116.657 194.65C116.117 194.37 115.497 194.23 114.797 194.23C114.497 194.23 114.187 194.25 113.867 194.29C113.567 194.33 113.287 194.42 113.027 194.56C112.767 194.7 112.557 194.89 112.397 195.13C112.237 195.35 112.157 195.64 112.157 196C112.157 196.56 112.457 197.01 113.057 197.35C113.657 197.67 114.777 198 116.417 198.34C117.357 198.52 118.287 198.74 119.207 199C120.147 199.24 120.977 199.59 121.697 200.05C122.417 200.51 122.997 201.11 123.437 201.85C123.897 202.57 124.127 203.5 124.127 204.64ZM142.692 190C142.912 190 143.092 190.08 143.232 190.24C143.392 190.38 143.472 190.55 143.472 190.75V194.11C143.472 194.33 143.392 194.51 143.232 194.65C143.092 194.79 142.912 194.86 142.692 194.86H135.732C136.172 194.86 136.562 195.02 136.902 195.34C137.262 195.66 137.442 196.02 137.442 196.42V210.16C137.442 210.38 137.362 210.55 137.202 210.67C137.062 210.81 136.882 210.88 136.662 210.88H132.492C132.272 210.88 132.092 210.81 131.952 210.67C131.792 210.55 131.712 210.38 131.712 210.16V195.76C131.712 195.48 131.622 195.26 131.442 195.1C131.262 194.94 131.052 194.86 130.812 194.86H126.462C126.262 194.86 126.082 194.79 125.922 194.65C125.762 194.51 125.682 194.33 125.682 194.11V192.58C125.682 192.2 125.752 191.85 125.892 191.53C126.052 191.21 126.252 190.94 126.492 190.72C126.752 190.48 127.032 190.3 127.332 190.18C127.652 190.06 127.972 190 128.292 190H142.692ZM146.335 210.19V192.64C146.335 191.88 146.595 191.26 147.115 190.78C147.635 190.28 148.245 190.03 148.945 190.03H161.185C161.405 190.03 161.585 190.11 161.725 190.27C161.885 190.41 161.965 190.59 161.965 190.81V193.78C161.965 194 161.895 194.17 161.755 194.29C161.615 194.43 161.425 194.5 161.185 194.5H150.115C150.595 194.5 150.985 194.67 151.285 195.01C151.605 195.35 151.765 195.72 151.765 196.12V197.38C151.765 197.6 151.835 197.81 151.975 198.01C152.135 198.21 152.365 198.31 152.665 198.31H159.205C159.425 198.31 159.605 198.39 159.745 198.55C159.905 198.69 159.985 198.87 159.985 199.09V201.79C159.985 202.01 159.905 202.2 159.745 202.36C159.605 202.5 159.425 202.57 159.205 202.57H150.115C150.575 202.57 150.965 202.73 151.285 203.05C151.605 203.37 151.765 203.73 151.765 204.13V205.54C151.765 205.76 151.845 205.97 152.005 206.17C152.165 206.37 152.385 206.47 152.665 206.47H161.425C161.945 206.47 162.205 206.73 162.205 207.25V210.19C162.205 210.43 162.125 210.62 161.965 210.76C161.825 210.88 161.645 210.94 161.425 210.94H147.085C146.885 210.94 146.705 210.87 146.545 210.73C146.405 210.57 146.335 210.39 146.335 210.19ZM183.003 210.94H178.773C178.213 210.94 177.813 210.68 177.573 210.16L174.513 204.16C174.333 203.84 174.063 203.68 173.703 203.68H169.773C170.273 203.68 170.663 203.86 170.943 204.22C171.243 204.56 171.393 204.91 171.393 205.27V210.22C171.393 210.44 171.323 210.61 171.183 210.73C171.043 210.87 170.863 210.94 170.643 210.94H166.533C166.333 210.94 166.153 210.87 165.993 210.73C165.853 210.57 165.783 210.4 165.783 210.22V192.64C165.783 191.9 166.043 191.29 166.563 190.81C167.083 190.31 167.693 190.06 168.393 190.06H174.753C175.873 190.06 176.933 190.18 177.933 190.42C178.953 190.66 179.843 191.05 180.603 191.59C181.383 192.13 182.003 192.84 182.463 193.72C182.923 194.58 183.153 195.64 183.153 196.9C183.153 198.1 182.883 199.18 182.343 200.14C181.803 201.1 181.003 201.88 179.943 202.48C179.783 202.58 179.693 202.7 179.673 202.84C179.673 202.98 179.703 203.09 179.763 203.17L183.543 210.01C183.603 210.13 183.633 210.24 183.633 210.34C183.633 210.5 183.563 210.64 183.423 210.76C183.303 210.88 183.163 210.94 183.003 210.94ZM177.363 196.87C177.363 196.05 177.113 195.43 176.613 195.01C176.133 194.57 175.503 194.35 174.723 194.35H169.563C170.063 194.35 170.463 194.52 170.763 194.86C171.063 195.2 171.213 195.56 171.213 195.94V198.37C171.213 198.61 171.293 198.82 171.453 199C171.633 199.18 171.853 199.27 172.113 199.27H174.723C175.503 199.27 176.133 199.08 176.613 198.7C177.113 198.3 177.363 197.69 177.363 196.87Z" fill="black"/>
<path d="M98.375 79.3672C96.2339 79.3672 94.4922 81.1089 94.4922 83.25C94.4922 85.3911 96.2339 87.1328 98.375 87.1328C100.516 87.1328 102.258 85.3911 102.258 83.25C102.258 81.1089 100.516 79.3672 98.375 79.3672ZM97.8203 83.25C97.8203 82.9438 98.0688 82.6953 98.375 82.6953C98.6812 82.6953 98.9297 82.9438 98.9297 83.25C98.9297 83.8602 97.8203 83.8602 97.8203 83.25Z" fill="black"/>
<path d="M120.562 79.3672C118.421 79.3672 116.68 81.1089 116.68 83.25C116.68 85.3911 118.421 87.1328 120.562 87.1328C122.704 87.1328 124.445 85.3911 124.445 83.25C124.445 81.1089 122.704 79.3672 120.562 79.3672ZM120.008 83.25C120.008 82.9438 120.256 82.6953 120.562 82.6953C120.869 82.6953 121.117 82.9438 121.117 83.25C121.117 83.8602 120.008 83.8602 120.008 83.25Z" fill="black"/>
<path d="M189.344 89.9062H147.188V83.25C147.188 79.6401 145.428 76.4584 142.75 74.4327V67.5368C148.046 64.4616 151.625 58.7417 151.625 52.1875V45.5312C151.625 44.3065 150.631 43.3125 149.406 43.3125H135.783C134.483 38.611 128.954 34.4375 118.344 34.4375H100.594H91.7188C86.8552 34.4375 82.2114 36.7605 79.2937 40.65C77.2902 43.3192 76.1875 46.6295 76.1875 49.9688V73.0815C72.2714 74.7966 69.5312 78.7104 69.5312 83.25V92.125C69.5312 97.4811 73.3497 101.963 78.4062 102.995V122.087C69.0831 125.355 60.6562 129.6 60.6562 134.281V165.344C60.6562 166.568 61.6503 167.562 62.875 167.562H133.875H173.812C175.037 167.562 176.031 166.568 176.031 165.344V156.469C176.031 155.244 175.037 154.25 173.812 154.25H160.5V143.156H189.344C190.568 143.156 191.562 142.162 191.562 140.938V92.125C191.562 90.9002 190.568 89.9062 189.344 89.9062ZM136.094 89.9062V76.5938C139.764 76.5938 142.75 79.5802 142.75 83.25V89.9062H136.094ZM100.594 113.299C102.209 113.96 103.942 114.312 105.692 114.312H113.245C114.208 114.312 115.175 114.19 116.125 113.98V123.756C111.157 126.602 104.916 126.019 100.594 122.229V113.299ZM118.344 89.9062C117.119 89.9062 116.125 90.9002 116.125 92.125V109.378C115.189 109.698 114.212 109.875 113.245 109.875H105.692C104.179 109.875 102.679 109.491 101.353 108.766L91.1153 103.154C88.6746 101.044 87.2812 97.998 87.2812 94.7653V76.5938C87.7006 76.5938 88.0689 76.4473 88.4039 76.2454L88.4239 76.2787L98.9896 69.9375H131.656V89.9062H118.344ZM133.875 47.75V52.1875C133.875 59.5293 127.904 65.5 120.562 65.5H118.952C122.65 62.2451 125 57.4903 125 52.1875V47.75H133.875ZM120.562 52.1875C120.562 59.5293 114.592 65.5 107.25 65.5H100.594V61.0625C100.594 53.7207 106.564 47.75 113.906 47.75H120.562V52.1875ZM138.312 72.3803C137.596 72.2339 136.853 72.1562 136.094 72.1562V69.7844C136.85 69.689 137.589 69.5426 138.312 69.354V72.3803ZM147.188 52.1875C147.188 59.5293 141.217 65.5 133.875 65.5H132.264C135.963 62.2451 138.312 57.4903 138.312 52.1875V47.75H147.188V52.1875ZM91.7188 43.3125C93.8022 40.5346 97.1192 38.875 100.594 38.875H118.344C125.095 38.875 129.329 40.8785 130.92 43.3125H113.906C104.119 43.3125 96.1562 51.2756 96.1562 61.0625V66.4629L89.5 70.4567V49.9688C89.5 47.5836 90.2877 45.2184 91.7188 43.3125ZM80.625 49.9688C80.625 47.5836 81.4127 45.2184 82.8438 43.3125C84.4767 41.1337 86.8686 39.6449 89.5 39.1013C89.0252 39.585 88.5792 40.102 88.1687 40.65C86.1652 43.3192 85.0625 46.6295 85.0625 49.9688V72.1562H80.625V49.9688ZM73.9688 92.125V83.25C73.9688 79.5802 76.9552 76.5938 80.625 76.5938H82.8438V94.7653C82.8438 96.1409 83.0457 97.4833 83.3918 98.7812H80.625C76.9552 98.7812 73.9688 95.7948 73.9688 92.125ZM82.8438 103.219H85.3643C86.2029 104.506 87.2213 105.686 88.4328 106.696C88.5415 106.789 88.6613 106.869 88.7878 106.937L96.1562 110.975V116.991C92.4798 117.867 87.705 119.101 82.8438 120.618V103.219ZM65.0938 134.281C65.0938 132.595 70.472 129.759 78.4062 126.88V153.762L75.7526 154.294L76.6246 158.645L78.4062 158.288V163.125H65.0938V134.281ZM116.125 163.125H82.8438V157.401L98.5947 154.25H111.688C114.135 154.25 116.125 156.24 116.125 158.688V163.125ZM131.656 156.469V163.125H120.562V158.688C120.562 153.793 116.582 149.812 111.688 149.812H98.375C98.2286 149.812 98.0843 149.826 97.9401 149.857L82.8438 152.874V125.351C86.9263 124.017 91.4547 122.719 96.1562 121.563V123.188C96.1562 123.775 96.3892 124.341 96.8063 124.756C100.274 128.224 104.863 130.008 109.482 130.006C111.736 130.006 113.984 129.533 116.125 128.672V140.938C116.125 142.162 117.119 143.156 118.344 143.156H147.188V154.25H133.875C132.65 154.25 131.656 155.244 131.656 156.469ZM171.594 163.125H136.094V158.688H171.594V163.125ZM151.625 154.25V103.219C151.625 101.996 152.621 101 153.844 101C155.066 101 156.062 101.996 156.062 103.219V154.25H151.625ZM187.125 138.719H160.5V103.219C160.5 99.5489 157.514 96.5625 153.844 96.5625C150.174 96.5625 147.188 99.5489 147.188 103.219V138.719H120.562V94.3438H187.125V138.719Z" fill="black"/>
</svg>
