<svg width="1886" height="136" viewBox="0 0 1886 136" fill="none" xmlns="http://www.w3.org/2000/svg">
<path d="M283.935 38H288.48V10.73H297.435V6.5H274.98V10.73H283.935V38ZM310.832 38.585C315.512 38.585 317.492 35.885 318.302 34.76H318.617C318.617 36.785 320.102 38 322.037 38H325.232V33.95H324.152C323.432 33.95 322.982 33.59 322.982 32.87V14.51H318.527V17.885H318.167C317.267 16.625 315.107 13.925 310.562 13.925C304.082 13.925 299.537 19.19 299.537 26.255C299.537 33.41 304.307 38.585 310.832 38.585ZM311.372 34.49C307.277 34.49 304.037 31.25 304.037 26.3C304.037 21.485 307.142 18.065 311.327 18.065C315.332 18.065 318.662 21.08 318.662 26.3C318.662 30.755 315.827 34.49 311.372 34.49ZM331.719 48.35H336.174V34.625H336.534C337.389 36.065 339.639 38.585 344.184 38.585C350.619 38.585 355.209 33.365 355.209 26.21C355.209 19.1 350.349 13.925 343.869 13.925C339.279 13.925 337.209 16.715 336.444 17.75H336.084V14.51H331.719V48.35ZM343.374 34.445C339.369 34.445 336.084 31.43 336.084 26.21C336.084 21.8 338.874 18.065 343.284 18.065C347.424 18.065 350.619 21.26 350.619 26.21C350.619 31.07 347.559 34.445 343.374 34.445ZM384.784 38.585C391.939 38.585 397.159 33.275 397.159 26.255C397.159 19.235 391.984 13.925 384.829 13.925C377.719 13.925 372.499 19.19 372.499 26.255C372.499 33.32 377.674 38.585 384.784 38.585ZM384.784 34.4C380.284 34.4 377.044 31.025 377.044 26.255C377.044 21.62 380.239 18.065 384.784 18.065C389.374 18.065 392.614 21.575 392.614 26.255C392.614 30.98 389.374 34.4 384.784 34.4ZM403.407 38H407.862V24.095C407.862 20.675 410.427 18.11 413.712 18.11C416.682 18.11 419.112 20.36 419.112 23.69V38H423.567V22.925C423.567 17.885 420.282 13.925 414.972 13.925C411.552 13.925 409.212 15.59 408.222 17.57H407.862V14.51H403.407V38ZM453.329 38.585C458.009 38.585 459.989 35.885 460.799 34.76H461.114C461.114 36.785 462.599 38 464.534 38H467.729V33.95H466.649C465.929 33.95 465.479 33.59 465.479 32.87V14.51H461.024V17.885H460.664C459.764 16.625 457.604 13.925 453.059 13.925C446.579 13.925 442.034 19.19 442.034 26.255C442.034 33.41 446.804 38.585 453.329 38.585ZM453.869 34.49C449.774 34.49 446.534 31.25 446.534 26.3C446.534 21.485 449.639 18.065 453.824 18.065C457.829 18.065 461.159 21.08 461.159 26.3C461.159 30.755 458.324 34.49 453.869 34.49ZM482.091 38.585C487.716 38.585 491.406 35.525 491.406 30.98C491.406 21.395 477.816 25.94 477.816 20.81C477.816 19.1 479.436 17.885 482.001 17.885C484.656 17.885 486.546 19.19 486.951 21.575L490.866 20.45C490.146 16.22 486.411 13.925 482.136 13.925C477.006 13.925 473.541 16.76 473.541 20.765C473.541 30.17 486.906 25.67 486.906 31.34C486.906 33.32 485.286 34.625 482.271 34.625C479.256 34.625 477.321 33.23 476.916 30.44L472.776 31.385C473.361 35.93 476.916 38.585 482.091 38.585ZM510.773 38H515.228V23.96C515.228 20.45 517.703 18.11 520.583 18.11C523.508 18.11 525.758 20.09 525.758 23.42V38H530.213V24.095C530.213 20.225 532.688 18.11 535.613 18.11C538.628 18.11 540.653 20.135 540.653 24.05V38H545.108V22.565C545.108 17.615 541.688 13.925 536.558 13.925C533.318 13.925 530.843 15.32 529.403 17.975H529.043C527.783 15.545 525.398 13.925 522.023 13.925C518.738 13.925 516.623 15.635 515.588 17.525H515.228V14.51H510.773V38ZM562.214 38.585C566.894 38.585 568.874 35.885 569.684 34.76H569.999C569.999 36.785 571.484 38 573.419 38H576.614V33.95H575.534C574.814 33.95 574.364 33.59 574.364 32.87V14.51H569.909V17.885H569.549C568.649 16.625 566.489 13.925 561.944 13.925C555.464 13.925 550.919 19.19 550.919 26.255C550.919 33.41 555.689 38.585 562.214 38.585ZM562.754 34.49C558.659 34.49 555.419 31.25 555.419 26.3C555.419 21.485 558.524 18.065 562.709 18.065C566.714 18.065 570.044 21.08 570.044 26.3C570.044 30.755 567.209 34.49 562.754 34.49ZM583.101 38H587.556V24.095C587.556 20.675 590.121 18.11 593.406 18.11C596.376 18.11 598.806 20.36 598.806 23.69V38H603.261V22.925C603.261 17.885 599.976 13.925 594.666 13.925C591.246 13.925 588.906 15.59 587.916 17.57H587.556V14.51H583.101V38ZM609.283 48.35H612.253C615.853 48.35 618.328 46.955 619.543 43.805L630.748 14.51H625.843L619.183 33.725H618.823L612.658 14.51H607.798L616.168 38H617.293L615.808 41.825C615.133 43.49 614.188 44.3 612.298 44.3H609.283V48.35ZM658.267 38.585C662.947 38.585 664.927 35.885 665.737 34.76H666.052C666.052 36.785 667.537 38 669.472 38H672.667V33.95H671.587C670.867 33.95 670.417 33.59 670.417 32.87V14.51H665.962V17.885H665.602C664.702 16.625 662.542 13.925 657.997 13.925C651.517 13.925 646.972 19.19 646.972 26.255C646.972 33.41 651.742 38.585 658.267 38.585ZM658.807 34.49C654.712 34.49 651.472 31.25 651.472 26.3C651.472 21.485 654.577 18.065 658.762 18.065C662.767 18.065 666.097 21.08 666.097 26.3C666.097 30.755 663.262 34.49 658.807 34.49ZM687.029 38.585C692.654 38.585 696.344 35.525 696.344 30.98C696.344 21.395 682.754 25.94 682.754 20.81C682.754 19.1 684.374 17.885 686.939 17.885C689.594 17.885 691.484 19.19 691.889 21.575L695.804 20.45C695.084 16.22 691.349 13.925 687.074 13.925C681.944 13.925 678.479 16.76 678.479 20.765C678.479 30.17 691.844 25.67 691.844 31.34C691.844 33.32 690.224 34.625 687.209 34.625C684.194 34.625 682.259 33.23 681.854 30.44L677.714 31.385C678.299 35.93 681.854 38.585 687.029 38.585ZM714.496 48.35H717.466C721.066 48.35 723.541 46.955 724.756 43.805L735.961 14.51H731.056L724.396 33.725H724.036L717.871 14.51H713.011L721.381 38H722.506L721.021 41.825C720.346 43.49 719.401 44.3 717.511 44.3H714.496V48.35ZM751.091 38.585C758.246 38.585 763.466 33.275 763.466 26.255C763.466 19.235 758.291 13.925 751.136 13.925C744.026 13.925 738.806 19.19 738.806 26.255C738.806 33.32 743.981 38.585 751.091 38.585ZM751.091 34.4C746.591 34.4 743.351 31.025 743.351 26.255C743.351 21.62 746.546 18.065 751.091 18.065C755.681 18.065 758.921 21.575 758.921 26.255C758.921 30.98 755.681 34.4 751.091 34.4ZM778.084 38.585C781.504 38.585 783.844 36.92 784.834 34.94H785.194V38H789.649V14.51H785.194V28.415C785.194 31.835 782.629 34.355 779.344 34.355C776.374 34.355 773.944 32.15 773.944 28.82V14.51H769.489V29.585C769.489 34.625 772.774 38.585 778.084 38.585ZM796.431 16.265H799.986L802.101 6.5H797.241L796.431 16.265ZM816.12 38.585C820.71 38.585 822.78 35.795 823.59 34.76H823.905V38H828.27V4.25H823.815V17.885H823.455C822.555 16.625 820.395 13.925 815.85 13.925C809.37 13.925 804.825 19.19 804.825 26.255C804.825 33.41 809.64 38.585 816.12 38.585ZM816.66 34.49C812.565 34.49 809.325 31.25 809.325 26.3C809.325 21.485 812.43 18.065 816.615 18.065C820.62 18.065 823.95 21.08 823.95 26.3C823.95 30.755 821.115 34.49 816.66 34.49ZM847.283 38H860.873V34.13H856.328V4.25H847.283V8.165H851.873V34.13H847.283V38ZM871.137 10.595C872.892 10.595 874.152 9.29 874.152 7.58C874.152 5.96 872.892 4.655 871.137 4.655C869.427 4.655 868.167 5.96 868.167 7.58C868.167 9.29 869.427 10.595 871.137 10.595ZM868.887 38H873.342V14.51H864.612V18.38H868.887V38ZM881.933 38H886.388V27.29H889.943L896.423 38H901.733L893.678 25.265V24.905L901.238 14.51H896.018L889.808 23.24H886.388V4.25H881.933V38ZM915.719 38.585C920.849 38.585 924.944 35.84 926.384 31.205L922.199 30.17C921.389 33.095 918.644 34.715 915.719 34.715C911.354 34.715 908.564 32.015 908.519 27.425H926.834V26.03C926.834 19.01 922.649 13.925 915.494 13.925C909.194 13.925 903.929 18.875 903.929 26.3C903.929 33.5 908.564 38.585 915.719 38.585ZM908.564 24.05C908.879 20.45 911.894 17.84 915.494 17.84C919.049 17.84 922.064 20.045 922.289 24.05H908.564ZM955.385 38.585C960.065 38.585 962.045 35.885 962.855 34.76H963.17C963.17 36.785 964.655 38 966.59 38H969.785V33.95H968.705C967.985 33.95 967.535 33.59 967.535 32.87V14.51H963.08V17.885H962.72C961.82 16.625 959.66 13.925 955.115 13.925C948.635 13.925 944.09 19.19 944.09 26.255C944.09 33.41 948.86 38.585 955.385 38.585ZM955.925 34.49C951.83 34.49 948.59 31.25 948.59 26.3C948.59 21.485 951.695 18.065 955.88 18.065C959.885 18.065 963.215 21.08 963.215 26.3C963.215 30.755 960.38 34.49 955.925 34.49ZM976.272 38H980.727V24.095C980.727 20.675 983.292 18.11 986.577 18.11C989.547 18.11 991.977 20.36 991.977 23.69V38H996.432V22.925C996.432 17.885 993.147 13.925 987.837 13.925C984.417 13.925 982.077 15.59 981.087 17.57H980.727V14.51H976.272V38ZM1013.52 38.585C1018.11 38.585 1020.18 35.795 1020.99 34.76H1021.3V38H1025.67V4.25H1021.21V17.885H1020.85C1019.95 16.625 1017.79 13.925 1013.25 13.925C1006.77 13.925 1002.22 19.19 1002.22 26.255C1002.22 33.41 1007.04 38.585 1013.52 38.585ZM1014.06 34.49C1009.96 34.49 1006.72 31.25 1006.72 26.3C1006.72 21.485 1009.83 18.065 1014.01 18.065C1018.02 18.065 1021.35 21.08 1021.35 26.3C1021.35 30.755 1018.51 34.49 1014.06 34.49ZM1049.86 38H1056.02L1061.06 18.74H1061.33L1066.42 38H1072.54L1079.29 14.51H1074.52L1069.52 33.815H1069.21L1064.12 14.51H1058.32L1053.19 33.815H1052.87L1047.92 14.51H1043.11L1049.86 38ZM1093.96 38.585C1099.09 38.585 1103.19 35.84 1104.63 31.205L1100.44 30.17C1099.63 33.095 1096.89 34.715 1093.96 34.715C1089.6 34.715 1086.81 32.015 1086.76 27.425H1105.08V26.03C1105.08 19.01 1100.89 13.925 1093.74 13.925C1087.44 13.925 1082.17 18.875 1082.17 26.3C1082.17 33.5 1086.81 38.585 1093.96 38.585ZM1086.81 24.05C1087.12 20.45 1090.14 17.84 1093.74 17.84C1097.29 17.84 1100.31 20.045 1100.53 24.05H1086.81ZM1110.42 16.265H1113.98L1116.09 6.5H1111.23L1110.42 16.265ZM1122.04 38H1135.63V34.13H1131.08V4.25H1122.04V8.165H1126.63V34.13H1122.04V38ZM1140.47 38H1154.06V34.13H1149.52V4.25H1140.47V8.165H1145.06V34.13H1140.47V38ZM1183.14 38.585C1188.5 38.585 1193.09 35.525 1194.39 30.035L1190.07 29.045C1189.44 32.33 1186.7 34.4 1183.28 34.4C1178.82 34.4 1175.63 30.98 1175.63 26.255C1175.63 21.665 1178.69 18.065 1183.23 18.065C1186.65 18.065 1189.4 20.225 1190.03 23.51L1194.3 22.475C1193 16.985 1188.45 13.925 1183.1 13.925C1176.08 13.925 1171.04 19.325 1171.04 26.255C1171.04 33.14 1175.94 38.585 1183.14 38.585ZM1211.29 38.585C1218.45 38.585 1223.67 33.275 1223.67 26.255C1223.67 19.235 1218.49 13.925 1211.34 13.925C1204.23 13.925 1199.01 19.19 1199.01 26.255C1199.01 33.32 1204.18 38.585 1211.29 38.585ZM1211.29 34.4C1206.79 34.4 1203.55 31.025 1203.55 26.255C1203.55 21.62 1206.75 18.065 1211.29 18.065C1215.88 18.065 1219.12 21.575 1219.12 26.255C1219.12 30.98 1215.88 34.4 1211.29 34.4ZM1229.91 38H1234.37V24.095C1234.37 20.675 1236.93 18.11 1240.22 18.11C1243.19 18.11 1245.62 20.36 1245.62 23.69V38H1250.07V22.925C1250.07 17.885 1246.79 13.925 1241.48 13.925C1238.06 13.925 1235.72 15.59 1234.73 17.57H1234.37V14.51H1229.91V38ZM1267.12 38H1270.9V34.085H1267.16C1265.09 34.085 1264.24 33.185 1264.24 31.07V18.38H1271.17V14.51H1264.24V7.805H1260.05V14.51H1255.51V18.38H1259.78V31.115C1259.78 35.975 1262.71 38 1267.12 38ZM1287.26 38.585C1291.94 38.585 1293.92 35.885 1294.73 34.76H1295.05C1295.05 36.785 1296.53 38 1298.47 38H1301.66V33.95H1300.58C1299.86 33.95 1299.41 33.59 1299.41 32.87V14.51H1294.96V17.885H1294.6C1293.7 16.625 1291.54 13.925 1286.99 13.925C1280.51 13.925 1275.97 19.19 1275.97 26.255C1275.97 33.41 1280.74 38.585 1287.26 38.585ZM1287.8 34.49C1283.71 34.49 1280.47 31.25 1280.47 26.3C1280.47 21.485 1283.57 18.065 1287.76 18.065C1291.76 18.065 1295.09 21.08 1295.09 26.3C1295.09 30.755 1292.26 34.49 1287.8 34.49ZM1318.59 38.585C1323.95 38.585 1328.54 35.525 1329.84 30.035L1325.52 29.045C1324.89 32.33 1322.15 34.4 1318.73 34.4C1314.27 34.4 1311.08 30.98 1311.08 26.255C1311.08 21.665 1314.14 18.065 1318.68 18.065C1322.1 18.065 1324.85 20.225 1325.48 23.51L1329.75 22.475C1328.45 16.985 1323.9 13.925 1318.55 13.925C1311.53 13.925 1306.49 19.325 1306.49 26.255C1306.49 33.14 1311.39 38.585 1318.59 38.585ZM1345.7 38H1349.48V34.085H1345.75C1343.68 34.085 1342.82 33.185 1342.82 31.07V18.38H1349.75V14.51H1342.82V7.805H1338.64V14.51H1334.09V18.38H1338.37V31.115C1338.37 35.975 1341.29 38 1345.7 38ZM1367.68 48.35H1370.65C1374.25 48.35 1376.73 46.955 1377.94 43.805L1389.15 14.51H1384.24L1377.58 33.725H1377.22L1371.06 14.51H1366.2L1374.57 38H1375.69L1374.21 41.825C1373.53 43.49 1372.59 44.3 1370.7 44.3H1367.68V48.35ZM1404.28 38.585C1411.43 38.585 1416.65 33.275 1416.65 26.255C1416.65 19.235 1411.48 13.925 1404.32 13.925C1397.21 13.925 1391.99 19.19 1391.99 26.255C1391.99 33.32 1397.17 38.585 1404.28 38.585ZM1404.28 34.4C1399.78 34.4 1396.54 31.025 1396.54 26.255C1396.54 21.62 1399.73 18.065 1404.28 18.065C1408.87 18.065 1412.11 21.575 1412.11 26.255C1412.11 30.98 1408.87 34.4 1404.28 34.4ZM1431.27 38.585C1434.69 38.585 1437.03 36.92 1438.02 34.94H1438.38V38H1442.83V14.51H1438.38V28.415C1438.38 31.835 1435.81 34.355 1432.53 34.355C1429.56 34.355 1427.13 32.15 1427.13 28.82V14.51H1422.67V29.585C1422.67 34.625 1425.96 38.585 1431.27 38.585ZM1471.07 38.585C1476.69 38.585 1480.38 35.525 1480.38 30.98C1480.38 21.395 1466.79 25.94 1466.79 20.81C1466.79 19.1 1468.41 17.885 1470.98 17.885C1473.63 17.885 1475.52 19.19 1475.93 21.575L1479.84 20.45C1479.12 16.22 1475.39 13.925 1471.11 13.925C1465.98 13.925 1462.52 16.76 1462.52 20.765C1462.52 30.17 1475.88 25.67 1475.88 31.34C1475.88 33.32 1474.26 34.625 1471.25 34.625C1468.23 34.625 1466.3 33.23 1465.89 30.44L1461.75 31.385C1462.34 35.93 1465.89 38.585 1471.07 38.585ZM1497.69 38.585C1504.85 38.585 1510.07 33.275 1510.07 26.255C1510.07 19.235 1504.89 13.925 1497.74 13.925C1490.63 13.925 1485.41 19.19 1485.41 26.255C1485.41 33.32 1490.58 38.585 1497.69 38.585ZM1497.69 34.4C1493.19 34.4 1489.95 31.025 1489.95 26.255C1489.95 21.62 1493.15 18.065 1497.69 18.065C1502.28 18.065 1505.52 21.575 1505.52 26.255C1505.52 30.98 1502.28 34.4 1497.69 34.4ZM1526.94 38.585C1534.09 38.585 1539.31 33.275 1539.31 26.255C1539.31 19.235 1534.14 13.925 1526.98 13.925C1519.87 13.925 1514.65 19.19 1514.65 26.255C1514.65 33.32 1519.83 38.585 1526.94 38.585ZM1526.94 34.4C1522.44 34.4 1519.2 31.025 1519.2 26.255C1519.2 21.62 1522.39 18.065 1526.94 18.065C1531.53 18.065 1534.77 21.575 1534.77 26.255C1534.77 30.98 1531.53 34.4 1526.94 34.4ZM1545.56 38H1550.01V24.095C1550.01 20.675 1552.58 18.11 1555.86 18.11C1558.83 18.11 1561.26 20.36 1561.26 23.69V38H1565.72V22.925C1565.72 17.885 1562.43 13.925 1557.12 13.925C1553.7 13.925 1551.36 15.59 1550.37 17.57H1550.01V14.51H1545.56V38ZM1588.37 21.845C1589.99 21.845 1591.3 20.54 1591.3 18.92C1591.3 17.345 1589.99 16.04 1588.37 16.04C1586.75 16.04 1585.4 17.345 1585.4 18.92C1585.4 20.54 1586.75 21.845 1588.37 21.845ZM1588.37 38.585C1589.99 38.585 1591.3 37.28 1591.3 35.705C1591.3 34.085 1589.99 32.78 1588.37 32.78C1586.75 32.78 1585.4 34.085 1585.4 35.705C1585.4 37.28 1586.75 38.585 1588.37 38.585ZM1600.27 44.435H1601.26C1605.49 44.435 1608.33 42.23 1608.33 37.505V10.595C1608.33 5.87 1605.49 3.665 1601.26 3.665H1600.27V7.715H1600.95C1603.2 7.715 1603.87 8.795 1603.87 10.64V37.46C1603.87 39.305 1603.2 40.385 1600.95 40.385H1600.27V44.435Z" fill="black" fill-opacity="0.5"/>
</svg>
