<svg width="215" height="51" viewBox="0 0 215 51" fill="none" xmlns="http://www.w3.org/2000/svg">
<g clip-path="url(#clip0)">
<path fill-rule="evenodd" clip-rule="evenodd" d="M55.7695 25.3715C38.755 34.66 21.6461 44 2.86929 44H202.131C183.354 44 166.245 34.66 149.23 25.3715C141.817 21.3245 134.422 17.2873 126.915 14.0367C119.43 10.7961 111.175 9 102.5 9C93.8251 9 85.5697 10.7961 78.0854 14.0367C70.5779 17.2873 63.1827 21.3245 55.7695 25.3715ZM238 44V102H-7V44H-70C-108.66 44 -140 75.3401 -140 114V601C-140 639.66 -108.66 671 -70 671H917C955.66 671 987 639.66 987 601V114C987 75.3401 955.66 44 917 44H238Z" fill="#F1F1F1"/>
</g>
<defs>
<clipPath id="clip0">
<rect width="215" height="51" fill="white"/>
</clipPath>
</defs>
</svg>
