<svg width="50" height="50" viewBox="0 0 107 107" fill="none" xmlns="http://www.w3.org/2000/svg">
<path fill-rule="evenodd" clip-rule="evenodd" d="M27.1615 9.16146C27.1615 9.25559 26.6232 9.32292 25.8696 9.32292C25.1159 9.32292 24.5776 9.39024 24.5776 9.48438C24.5776 9.57318 24.2143 9.64583 23.7702 9.64583C23.3261 9.64583 22.9627 9.71849 22.9627 9.80729C22.9627 9.89609 22.672 9.96875 22.3168 9.96875C21.9615 9.96875 21.6708 10.0414 21.6708 10.1302C21.6708 10.219 21.4528 10.2917 21.1863 10.2917C20.9199 10.2917 20.7019 10.3643 20.7019 10.4531C20.7019 10.5419 20.4839 10.6146 20.2174 10.6146C19.9509 10.6146 19.7329 10.6872 19.7329 10.776C19.7329 10.8648 19.5149 10.9375 19.2484 10.9375C18.982 10.9375 18.764 11.0102 18.764 11.099C18.764 11.1878 18.6186 11.2604 18.441 11.2604C18.2634 11.2604 18.118 11.3331 18.118 11.4219C18.118 11.5107 17.9727 11.5833 17.795 11.5833C17.6174 11.5833 17.472 11.656 17.472 11.7448C17.472 11.8336 17.3267 11.9062 17.1491 11.9062C16.9714 11.9062 16.8261 11.9789 16.8261 12.0677C16.8261 12.1565 16.6807 12.2292 16.5031 12.2292C16.3255 12.2292 16.1801 12.3018 16.1801 12.3906C16.1801 12.4794 16.0348 12.5521 15.8571 12.5521C15.6795 12.5521 15.5342 12.6247 15.5342 12.7135C15.5342 12.8023 15.4048 12.875 15.2469 12.875C15.0888 12.875 14.8548 13.0203 14.7267 13.1979C14.5986 13.3755 14.3806 13.5208 14.2422 13.5208C14.1038 13.5208 13.8858 13.6661 13.7578 13.8438C13.6297 14.0214 13.4117 14.1667 13.2733 14.1667C13.1349 14.1667 12.9169 14.312 12.7888 14.4896C12.6608 14.6672 12.46 14.8125 12.3425 14.8125C12.2251 14.8125 11.5539 15.3937 10.8509 16.1042C10.148 16.8146 9.46066 17.3958 9.32371 17.3958C9.18661 17.3958 9.07453 17.5084 9.07453 17.6458C9.07453 17.7833 8.56584 18.3974 7.9441 19.0104C7.32236 19.6235 6.81366 20.2215 6.81366 20.3394C6.81366 20.4572 6.66832 20.6584 6.49068 20.7865C6.31304 20.9145 6.1677 21.1325 6.1677 21.2708C6.1677 21.4092 6.02236 21.6272 5.84472 21.7552C5.66708 21.8832 5.52174 22.1012 5.52174 22.2396C5.52174 22.378 5.3764 22.5959 5.19876 22.724C5.02112 22.852 4.87578 23.0859 4.87578 23.244C4.87578 23.4019 4.80311 23.5312 4.71429 23.5312C4.62547 23.5312 4.55279 23.6766 4.55279 23.8542C4.55279 24.0318 4.48012 24.1771 4.3913 24.1771C4.30248 24.1771 4.22981 24.3224 4.22981 24.5C4.22981 24.6776 4.15714 24.8229 4.06832 24.8229C3.9795 24.8229 3.90683 24.9682 3.90683 25.1458C3.90683 25.3234 3.83416 25.4688 3.74534 25.4688C3.65652 25.4688 3.58385 25.6141 3.58385 25.7917C3.58385 25.9693 3.51118 26.1146 3.42236 26.1146C3.33354 26.1146 3.26087 26.2599 3.26087 26.4375C3.26087 26.6151 3.1882 26.7604 3.09938 26.7604C3.01056 26.7604 2.93789 26.9784 2.93789 27.2448C2.93789 27.5112 2.86522 27.7292 2.7764 27.7292C2.68758 27.7292 2.61491 27.9471 2.61491 28.2135C2.61491 28.4799 2.54224 28.6979 2.45342 28.6979C2.3646 28.6979 2.29193 28.9159 2.29193 29.1823C2.29193 29.4487 2.21925 29.6667 2.13043 29.6667C2.04161 29.6667 1.96894 29.9573 1.96894 30.3125C1.96894 30.6677 1.89627 30.9583 1.80745 30.9583C1.71863 30.9583 1.64596 31.3216 1.64596 31.7656C1.64596 32.2096 1.57329 32.5729 1.48447 32.5729C1.39226 32.5729 1.32298 33.0573 1.32298 33.7031C1.32298 34.349 1.2537 34.8333 1.16149 34.8333C1.05943 34.8333 1 35.9635 1 37.901C1 39.8385 1.05943 40.9687 1.16149 40.9687C1.2537 40.9687 1.32298 41.4531 1.32298 42.099C1.32298 42.7448 1.39226 43.2292 1.48447 43.2292C1.57329 43.2292 1.64596 43.5924 1.64596 44.0365C1.64596 44.4805 1.71863 44.8438 1.80745 44.8438C1.89627 44.8438 1.96894 45.1344 1.96894 45.4896C1.96894 45.8448 2.04161 46.1354 2.13043 46.1354C2.21925 46.1354 2.29193 46.3534 2.29193 46.6198C2.29193 46.8862 2.3646 47.1042 2.45342 47.1042C2.54224 47.1042 2.61491 47.3221 2.61491 47.5885C2.61491 47.8549 2.68758 48.0729 2.7764 48.0729C2.86522 48.0729 2.93789 48.2909 2.93789 48.5573C2.93789 48.8237 3.01056 49.0417 3.09938 49.0417C3.1882 49.0417 3.26087 49.187 3.26087 49.3646C3.26087 49.5422 3.33354 49.6875 3.42236 49.6875C3.51118 49.6875 3.58385 49.8328 3.58385 50.0104C3.58385 50.188 3.65652 50.3333 3.74534 50.3333C3.83416 50.3333 3.90683 50.4786 3.90683 50.6562C3.90683 50.8339 3.9795 50.9792 4.06832 50.9792C4.15714 50.9792 4.22981 51.1245 4.22981 51.3021C4.22981 51.4797 4.30248 51.625 4.3913 51.625C4.48012 51.625 4.55279 51.7703 4.55279 51.9479C4.55279 52.1255 4.62547 52.2708 4.71429 52.2708C4.80311 52.2708 4.87578 52.4002 4.87578 52.5581C4.87578 52.7161 5.02112 52.9501 5.19876 53.0781C5.3764 53.2062 5.52174 53.4241 5.52174 53.5625C5.52174 53.7009 5.66708 53.9188 5.84472 54.0469C6.02236 54.1749 6.1677 54.3929 6.1677 54.5312C6.1677 54.6696 6.31304 54.8876 6.49068 55.0156C6.66832 55.1437 6.81366 55.3423 6.81366 55.4569C6.81366 55.5717 8.92112 57.7708 11.4969 60.3438C16.1971 65.039 17.0664 66.1562 16.0186 66.1562C15.92 66.1562 15.8571 66.9098 15.8571 68.0938C15.8571 69.2777 15.92 70.0312 16.0186 70.0312C16.1075 70.0312 16.1801 70.2492 16.1801 70.5156C16.1801 70.782 16.2528 71 16.3416 71C16.4304 71 16.5031 71.202 16.5031 71.4487C16.5031 71.7122 16.6365 71.9935 16.8261 72.1302C17.0037 72.2582 17.1491 72.4575 17.1491 72.5729C17.1491 72.8669 18.8649 74.5521 19.1641 74.5521C19.2993 74.5521 19.4099 74.6247 19.4099 74.7135C19.4099 74.8023 19.5553 74.875 19.7329 74.875C19.9106 74.875 20.0559 74.9477 20.0559 75.0365C20.0559 75.1253 20.2012 75.1979 20.3789 75.1979C20.5565 75.1979 20.7019 75.2706 20.7019 75.3594C20.7019 75.4482 20.9199 75.5208 21.1863 75.5208C21.4528 75.5208 21.6708 75.5935 21.6708 75.6823C21.6708 75.778 22.263 75.8438 23.1242 75.8438H24.5776V77.4583C24.5776 78.4271 24.6422 79.0729 24.7391 79.0729C24.8279 79.0729 24.9006 79.2909 24.9006 79.5573C24.9006 79.8237 24.9733 80.0417 25.0621 80.0417C25.1509 80.0417 25.2236 80.171 25.2236 80.3289C25.2236 80.487 25.3689 80.7209 25.5466 80.849C25.7242 80.977 25.8696 81.1766 25.8696 81.2925C25.8696 81.5668 27.251 82.9479 27.5253 82.9479C27.6413 82.9479 27.8409 83.0932 27.9689 83.2708C28.097 83.4484 28.331 83.5938 28.4891 83.5938C28.647 83.5938 28.7764 83.6664 28.7764 83.7552C28.7764 83.844 28.9217 83.9167 29.0994 83.9167C29.277 83.9167 29.4224 83.9893 29.4224 84.0781C29.4224 84.1669 29.713 84.2396 30.0683 84.2396C30.4236 84.2396 30.7143 84.3122 30.7143 84.401C30.7143 84.4952 31.2525 84.5625 32.0062 84.5625C32.7599 84.5625 33.2981 84.6298 33.2981 84.724C33.2981 84.8128 33.2255 84.8854 33.1366 84.8854C33.0478 84.8854 32.9752 85.176 32.9752 85.5312C32.9752 85.8865 33.0478 86.1771 33.1366 86.1771C33.2255 86.1771 33.2981 86.5404 33.2981 86.9844C33.2981 87.4284 33.3708 87.7917 33.4596 87.7917C33.5484 87.7917 33.6211 88.0096 33.6211 88.276C33.6211 88.5424 33.6938 88.7604 33.7826 88.7604C33.8714 88.7604 33.9441 88.8897 33.9441 89.0476C33.9441 89.2057 34.0894 89.4397 34.2671 89.5677C34.4447 89.6957 34.5901 89.8953 34.5901 90.0112C34.5901 90.2855 35.9715 91.6667 36.2458 91.6667C36.3618 91.6667 36.5614 91.812 36.6894 91.9896C36.8175 92.1672 37.0515 92.3125 37.2096 92.3125C37.3675 92.3125 37.4969 92.3852 37.4969 92.474C37.4969 92.5628 37.7149 92.6354 37.9814 92.6354C38.2478 92.6354 38.4658 92.7081 38.4658 92.7969C38.4658 92.8857 38.7565 92.9583 39.1118 92.9583C39.4671 92.9583 39.7578 93.031 39.7578 93.1198C39.7578 93.2096 40.1885 93.2812 40.7267 93.2812H41.6957V94.25C41.6957 94.7881 41.7674 95.2188 41.8571 95.2188C41.946 95.2188 42.0186 95.5094 42.0186 95.8646C42.0186 96.2198 42.0913 96.5104 42.1801 96.5104C42.2689 96.5104 42.3416 96.7284 42.3416 96.9948C42.3416 97.2612 42.4143 97.4792 42.5031 97.4792C42.5919 97.4792 42.6646 97.6085 42.6646 97.7664C42.6646 97.9245 42.8099 98.1584 42.9876 98.2865C43.1652 98.4145 43.3106 98.6141 43.3106 98.73C43.3106 99.0043 44.6919 100.385 44.9663 100.385C45.0823 100.385 45.2819 100.531 45.4099 100.708C45.538 100.886 45.772 101.031 45.9301 101.031C46.088 101.031 46.2174 101.104 46.2174 101.193C46.2174 101.282 46.4354 101.354 46.7019 101.354C46.9683 101.354 47.1863 101.427 47.1863 101.516C47.1863 101.604 47.477 101.677 47.8323 101.677C48.1876 101.677 48.4783 101.75 48.4783 101.839C48.4783 101.928 48.909 102 49.4472 102C49.9855 102 50.4161 101.928 50.4161 101.839C50.4161 101.75 50.7795 101.677 51.2236 101.677C51.6677 101.677 52.0311 101.604 52.0311 101.516C52.0311 101.427 52.1764 101.354 52.354 101.354C52.5317 101.354 52.677 101.282 52.677 101.193C52.677 101.104 52.8224 101.031 53 101.031C53.1776 101.031 53.323 100.959 53.323 100.87C53.323 100.781 53.4328 100.708 53.567 100.708C53.7012 100.708 56.2802 98.238 59.2981 95.2188C64.6147 89.8998 65.5963 89.0695 65.5963 89.8906C65.5963 89.9794 65.8143 90.0521 66.0807 90.0521C66.3472 90.0521 66.5652 90.1247 66.5652 90.2135C66.5652 90.3033 66.9959 90.375 67.5342 90.375C68.0724 90.375 68.5031 90.4467 68.5031 90.5365C68.5031 90.6253 68.6484 90.6979 68.8261 90.6979C69.0037 90.6979 69.1491 90.6253 69.1491 90.5365C69.1491 90.4467 69.5798 90.375 70.118 90.375C70.6563 90.375 71.087 90.3033 71.087 90.2135C71.087 90.1247 71.305 90.0521 71.5714 90.0521C71.8379 90.0521 72.0559 89.9794 72.0559 89.8906C72.0559 89.8018 72.1853 89.7292 72.3432 89.7292C72.5013 89.7292 72.7353 89.5839 72.8633 89.4062C72.9914 89.2286 73.1907 89.0833 73.3062 89.0833C73.6002 89.0833 75.2857 87.3678 75.2857 87.0686C75.2857 86.9335 75.3584 86.8229 75.4472 86.8229C75.536 86.8229 75.6087 86.6776 75.6087 86.5C75.6087 86.3224 75.6814 86.1771 75.7702 86.1771C75.859 86.1771 75.9317 86.0318 75.9317 85.8542C75.9317 85.6766 76.0043 85.5312 76.0932 85.5312C76.182 85.5312 76.2547 85.2406 76.2547 84.8854C76.2547 84.5302 76.3273 84.2396 76.4161 84.2396C76.5103 84.2396 76.5776 83.7014 76.5776 82.9479C76.5776 82.1944 76.645 81.6562 76.7391 81.6562C76.8279 81.6562 76.9006 81.7289 76.9006 81.8177C76.9006 81.9065 77.264 81.9792 77.7081 81.9792C78.1522 81.9792 78.5155 81.9065 78.5155 81.8177C78.5155 81.7289 78.8062 81.6562 79.1615 81.6562C79.5168 81.6562 79.8074 81.5836 79.8074 81.4948C79.8074 81.406 80.0255 81.3333 80.2919 81.3333C80.5584 81.3333 80.7764 81.2607 80.7764 81.1719C80.7764 81.0831 80.9057 81.0104 81.0637 81.0104C81.2218 81.0104 81.4558 80.8651 81.5838 80.6875C81.7119 80.5099 81.9115 80.3646 82.0275 80.3646C82.3018 80.3646 83.6832 78.9835 83.6832 78.7092C83.6832 78.5932 83.8286 78.3937 84.0062 78.2656C84.1839 78.1376 84.3292 77.9036 84.3292 77.7456C84.3292 77.5877 84.4019 77.4583 84.4907 77.4583C84.5795 77.4583 84.6522 77.313 84.6522 77.1354C84.6522 76.9578 84.7248 76.8125 84.8137 76.8125C84.9025 76.8125 84.9752 76.5219 84.9752 76.1667C84.9752 75.8115 85.0478 75.5208 85.1366 75.5208C85.2289 75.5208 85.2981 75.0365 85.2981 74.3906V73.2604H86.2671C86.8053 73.2604 87.236 73.1887 87.236 73.099C87.236 73.0102 87.5994 72.9375 88.0435 72.9375C88.4876 72.9375 88.8509 72.8648 88.8509 72.776C88.8509 72.6872 88.9963 72.6146 89.1739 72.6146C89.3516 72.6146 89.4969 72.5419 89.4969 72.4531C89.4969 72.3643 89.6262 72.2917 89.7842 72.2917C89.9423 72.2917 90.1763 72.1464 90.3043 71.9687C90.4324 71.7911 90.632 71.6458 90.748 71.6458C91.0223 71.6458 92.4037 70.2647 92.4037 69.9904C92.4037 69.8745 92.5491 69.6749 92.7267 69.5469C92.9044 69.4188 93.0497 69.1849 93.0497 69.0268C93.0497 68.8689 93.1224 68.7396 93.2112 68.7396C93.3 68.7396 93.3727 68.5216 93.3727 68.2552C93.3727 67.9888 93.4453 67.7708 93.5342 67.7708C93.623 67.7708 93.6956 67.4802 93.6956 67.125C93.6956 66.7698 93.7683 66.4792 93.8571 66.4792C93.954 66.4792 94.0186 65.8333 94.0186 64.8646C94.0186 63.8958 93.954 63.25 93.8571 63.25C93.7683 63.25 93.6956 62.9594 93.6956 62.6042C93.6956 62.249 93.623 61.9583 93.5342 61.9583C93.0502 61.9583 93.6009 61.2384 95.6335 59.2135C96.877 57.9748 97.8944 56.8811 97.8944 56.7831C97.8944 56.6851 98.1851 56.3257 98.5404 55.9844C98.8956 55.6431 99.1863 55.2783 99.1863 55.1739C99.1863 55.0692 99.4044 54.7801 99.6708 54.5312C99.9373 54.2824 100.155 53.9626 100.155 53.8207C100.155 53.6786 100.228 53.5625 100.317 53.5625C100.406 53.5625 100.478 53.4332 100.478 53.2753C100.478 53.1172 100.624 52.8832 100.801 52.7552C100.979 52.6272 101.124 52.3932 101.124 52.2351C101.124 52.0772 101.197 51.9479 101.286 51.9479C101.375 51.9479 101.447 51.8026 101.447 51.625C101.447 51.4474 101.52 51.3021 101.609 51.3021C101.698 51.3021 101.77 51.1568 101.77 50.9792C101.77 50.8016 101.843 50.6562 101.932 50.6562C102.02 50.6562 102.093 50.5109 102.093 50.3333C102.093 50.1557 102.166 50.0104 102.255 50.0104C102.343 50.0104 102.416 49.8651 102.416 49.6875C102.416 49.5099 102.489 49.3646 102.578 49.3646C102.666 49.3646 102.739 49.2193 102.739 49.0417C102.739 48.8641 102.812 48.7188 102.901 48.7188C102.989 48.7188 103.062 48.5008 103.062 48.2344C103.062 47.968 103.135 47.75 103.224 47.75C103.312 47.75 103.385 47.532 103.385 47.2656C103.385 46.9992 103.458 46.7812 103.547 46.7812C103.635 46.7812 103.708 46.5633 103.708 46.2969C103.708 46.0305 103.781 45.8125 103.87 45.8125C103.958 45.8125 104.031 45.5219 104.031 45.1667C104.031 44.8115 104.104 44.5208 104.193 44.5208C104.281 44.5208 104.354 44.1576 104.354 43.7135C104.354 43.2695 104.427 42.9062 104.516 42.9062C104.608 42.9062 104.677 42.4219 104.677 41.776C104.677 41.1302 104.746 40.6458 104.839 40.6458C104.94 40.6458 105 39.5694 105 37.7396C105 35.9098 104.94 34.8333 104.839 34.8333C104.746 34.8333 104.677 34.349 104.677 33.7031C104.677 33.0573 104.608 32.5729 104.516 32.5729C104.427 32.5729 104.354 32.2096 104.354 31.7656C104.354 31.3216 104.281 30.9583 104.193 30.9583C104.104 30.9583 104.031 30.7404 104.031 30.474C104.031 30.2076 103.958 29.9896 103.87 29.9896C103.781 29.9896 103.708 29.699 103.708 29.3438C103.708 28.9885 103.635 28.6979 103.547 28.6979C103.458 28.6979 103.385 28.4799 103.385 28.2135C103.385 27.9471 103.312 27.7292 103.224 27.7292C103.135 27.7292 103.062 27.5839 103.062 27.4062C103.062 27.2286 102.989 27.0833 102.901 27.0833C102.812 27.0833 102.739 26.8654 102.739 26.599C102.739 26.3326 102.666 26.1146 102.578 26.1146C102.489 26.1146 102.416 25.9693 102.416 25.7917C102.416 25.6141 102.343 25.4688 102.255 25.4688C102.166 25.4688 102.093 25.3234 102.093 25.1458C102.093 24.9682 102.02 24.8229 101.932 24.8229C101.843 24.8229 101.77 24.6776 101.77 24.5C101.77 24.3224 101.698 24.1771 101.609 24.1771C101.52 24.1771 101.447 24.0478 101.447 23.8898C101.447 23.7318 101.302 23.4978 101.124 23.3698C100.947 23.2418 100.801 23.0078 100.801 22.8497C100.801 22.6918 100.729 22.5625 100.64 22.5625C100.551 22.5625 100.478 22.4332 100.478 22.2753C100.478 22.1172 100.333 21.8832 100.155 21.7552C99.9776 21.6272 99.8323 21.4223 99.8323 21.2999C99.8323 21.1777 99.6143 20.8738 99.3478 20.625C99.0814 20.3762 98.8633 20.092 98.8633 19.9937C98.8633 19.7602 94.2376 15.1354 94.0041 15.1354C93.9057 15.1354 93.6215 14.9174 93.3727 14.651C93.1238 14.3846 92.8199 14.1667 92.6976 14.1667C92.5752 14.1667 92.3703 14.0214 92.2422 13.8438C92.1142 13.6661 91.8962 13.5208 91.7578 13.5208C91.6194 13.5208 91.4014 13.3755 91.2733 13.1979C91.1452 13.0203 90.9112 12.875 90.7531 12.875C90.5952 12.875 90.4658 12.8023 90.4658 12.7135C90.4658 12.6247 90.3205 12.5521 90.1429 12.5521C89.9652 12.5521 89.8199 12.4794 89.8199 12.3906C89.8199 12.3018 89.6745 12.2292 89.4969 12.2292C89.3193 12.2292 89.1739 12.1565 89.1739 12.0677C89.1739 11.9789 89.0286 11.9062 88.8509 11.9062C88.6733 11.9062 88.5279 11.8336 88.5279 11.7448C88.5279 11.656 88.3826 11.5833 88.205 11.5833C88.0273 11.5833 87.882 11.5107 87.882 11.4219C87.882 11.3331 87.664 11.2604 87.3975 11.2604C87.1311 11.2604 86.913 11.1878 86.913 11.099C86.913 11.0102 86.7677 10.9375 86.5901 10.9375C86.4124 10.9375 86.2671 10.8648 86.2671 10.776C86.2671 10.6872 86.0491 10.6146 85.7826 10.6146C85.5162 10.6146 85.2981 10.5419 85.2981 10.4531C85.2981 10.3643 85.0074 10.2917 84.6522 10.2917C84.2969 10.2917 84.0062 10.219 84.0062 10.1302C84.0062 10.0414 83.7882 9.96875 83.5217 9.96875C83.2553 9.96875 83.0373 9.89609 83.0373 9.80729C83.0373 9.71849 82.6739 9.64583 82.2298 9.64583C81.7857 9.64583 81.4224 9.57318 81.4224 9.48438C81.4224 9.39024 80.8841 9.32292 80.1304 9.32292C79.3768 9.32292 78.8385 9.25559 78.8385 9.16146C78.8385 9.06103 77.9233 9 76.4161 9C74.909 9 73.9938 9.06103 73.9938 9.16146C73.9938 9.25559 73.4555 9.32292 72.7019 9.32292C71.9482 9.32292 71.4099 9.39024 71.4099 9.48438C71.4099 9.57318 71.0466 9.64583 70.6025 9.64583C70.1584 9.64583 69.795 9.71849 69.795 9.80729C69.795 9.89609 69.5043 9.96875 69.1491 9.96875C68.7938 9.96875 68.5031 10.0414 68.5031 10.1302C68.5031 10.219 68.2851 10.2917 68.0186 10.2917C67.7522 10.2917 67.5342 10.3643 67.5342 10.4531C67.5342 10.5419 67.3161 10.6146 67.0497 10.6146C66.7832 10.6146 66.5652 10.6872 66.5652 10.776C66.5652 10.8648 66.3472 10.9375 66.0807 10.9375C65.8143 10.9375 65.5963 11.0102 65.5963 11.099C65.5963 11.1878 65.4509 11.2604 65.2733 11.2604C65.0956 11.2604 64.9503 11.3331 64.9503 11.4219C64.9503 11.5107 64.805 11.5833 64.6273 11.5833C64.4497 11.5833 64.3043 11.656 64.3043 11.7448C64.3043 11.8336 64.159 11.9062 63.9814 11.9062C63.8037 11.9062 63.6584 11.9789 63.6584 12.0677C63.6584 12.1565 63.513 12.2292 63.3354 12.2292C63.1578 12.2292 63.0124 12.3018 63.0124 12.3906C63.0124 12.4794 62.8671 12.5521 62.6894 12.5521C62.5118 12.5521 62.3665 12.6247 62.3665 12.7135C62.3665 12.8023 62.2371 12.875 62.0792 12.875C61.9211 12.875 61.6871 13.0203 61.559 13.1979C61.4309 13.3755 61.2129 13.5208 61.0745 13.5208C60.9361 13.5208 60.7181 13.6661 60.5901 13.8438C60.462 14.0214 60.2571 14.1667 60.1347 14.1667C60.0124 14.1667 59.7085 14.3846 59.4596 14.651C59.2108 14.9174 58.9249 15.1354 58.8245 15.1354C58.724 15.1354 57.8471 15.9346 56.8758 16.9115C55.9044 17.8883 55.0306 18.6875 54.9342 18.6875C54.8376 18.6875 54.3278 19.1262 53.8013 19.6625L52.8442 20.6374L50.0995 17.8865C48.5899 16.3733 47.2732 15.1354 47.1737 15.1354C47.0743 15.1354 46.7892 14.9174 46.5404 14.651C46.2915 14.3846 45.9876 14.1667 45.8653 14.1667C45.7429 14.1667 45.538 14.0214 45.4099 13.8438C45.2819 13.6661 45.0479 13.5208 44.8898 13.5208C44.7318 13.5208 44.6025 13.4482 44.6025 13.3594C44.6025 13.2706 44.4731 13.1979 44.3152 13.1979C44.1571 13.1979 43.9231 13.0526 43.795 12.875C43.667 12.6974 43.433 12.5521 43.2749 12.5521C43.1169 12.5521 42.9876 12.4794 42.9876 12.3906C42.9876 12.3018 42.8422 12.2292 42.6646 12.2292C42.487 12.2292 42.3416 12.1565 42.3416 12.0677C42.3416 11.9789 42.1963 11.9062 42.0186 11.9062C41.841 11.9062 41.6957 11.8336 41.6957 11.7448C41.6957 11.656 41.5503 11.5833 41.3727 11.5833C41.195 11.5833 41.0497 11.5107 41.0497 11.4219C41.0497 11.3331 40.8317 11.2604 40.5652 11.2604C40.2988 11.2604 40.0807 11.1878 40.0807 11.099C40.0807 11.0102 39.9354 10.9375 39.7578 10.9375C39.5801 10.9375 39.4348 10.8648 39.4348 10.776C39.4348 10.6872 39.2168 10.6146 38.9503 10.6146C38.6838 10.6146 38.4658 10.5419 38.4658 10.4531C38.4658 10.3643 38.1752 10.2917 37.8199 10.2917C37.4646 10.2917 37.1739 10.219 37.1739 10.1302C37.1739 10.0414 36.8832 9.96875 36.528 9.96875C36.1727 9.96875 35.882 9.89609 35.882 9.80729C35.882 9.71849 35.5913 9.64583 35.236 9.64583C34.8807 9.64583 34.5901 9.57318 34.5901 9.48438C34.5901 9.39024 34.0518 9.32292 33.2981 9.32292C32.5445 9.32292 32.0062 9.25559 32.0062 9.16146C32.0062 9.06103 31.091 9 29.5839 9C28.0767 9 27.1615 9.06103 27.1615 9.16146ZM78.1925 12.3906C78.1925 12.4848 78.7308 12.5521 79.4845 12.5521C80.2381 12.5521 80.7764 12.6194 80.7764 12.7135C80.7764 12.8023 81.1397 12.875 81.5838 12.875C82.0279 12.875 82.3913 12.9477 82.3913 13.0365C82.3913 13.1253 82.682 13.1979 83.0373 13.1979C83.3925 13.1979 83.6832 13.2706 83.6832 13.3594C83.6832 13.4482 83.9012 13.5208 84.1677 13.5208C84.4342 13.5208 84.6522 13.5935 84.6522 13.6823C84.6522 13.7711 84.8702 13.8438 85.1366 13.8438C85.4031 13.8438 85.6211 13.9164 85.6211 14.0052C85.6211 14.094 85.7665 14.1667 85.9441 14.1667C86.1217 14.1667 86.2671 14.2393 86.2671 14.3281C86.2671 14.4169 86.4124 14.4896 86.5901 14.4896C86.7677 14.4896 86.913 14.5622 86.913 14.651C86.913 14.7398 87.0584 14.8125 87.236 14.8125C87.4137 14.8125 87.559 14.8852 87.559 14.974C87.559 15.0628 87.7043 15.1354 87.882 15.1354C88.0596 15.1354 88.205 15.2081 88.205 15.2969C88.205 15.3857 88.3503 15.4583 88.5279 15.4583C88.7056 15.4583 88.8509 15.531 88.8509 15.6198C88.8509 15.7086 88.9963 15.7812 89.1739 15.7812C89.3516 15.7812 89.4969 15.8539 89.4969 15.9427C89.4969 16.0315 89.6262 16.1042 89.7842 16.1042C89.9423 16.1042 90.1763 16.2495 90.3043 16.4271C90.4324 16.6047 90.6373 16.75 90.7598 16.75C90.882 16.75 91.1859 16.968 91.4348 17.2344C91.6836 17.5008 91.968 17.7188 92.0665 17.7188C92.3004 17.7188 95.9565 21.3742 95.9565 21.608C95.9565 21.7064 96.1745 21.9908 96.441 22.2396C96.7075 22.4884 96.9255 22.7923 96.9255 22.9145C96.9255 23.0369 97.0708 23.2418 97.2484 23.3698C97.4261 23.4978 97.5714 23.7158 97.5714 23.8542C97.5714 23.9925 97.7168 24.2105 97.8944 24.3385C98.0721 24.4666 98.2174 24.7005 98.2174 24.8586C98.2174 25.0165 98.2901 25.1458 98.3789 25.1458C98.4677 25.1458 98.5404 25.2911 98.5404 25.4688C98.5404 25.6464 98.613 25.7917 98.7019 25.7917C98.7907 25.7917 98.8633 25.937 98.8633 26.1146C98.8633 26.2922 98.936 26.4375 99.0248 26.4375C99.1137 26.4375 99.1863 26.5828 99.1863 26.7604C99.1863 26.938 99.259 27.0833 99.3478 27.0833C99.4366 27.0833 99.5093 27.2286 99.5093 27.4062C99.5093 27.5839 99.582 27.7292 99.6708 27.7292C99.7596 27.7292 99.8323 27.9471 99.8323 28.2135C99.8323 28.4799 99.905 28.6979 99.9938 28.6979C100.083 28.6979 100.155 28.8432 100.155 29.0208C100.155 29.1984 100.228 29.3438 100.317 29.3438C100.406 29.3438 100.478 29.6344 100.478 29.9896C100.478 30.3448 100.551 30.6354 100.64 30.6354C100.729 30.6354 100.801 30.8534 100.801 31.1198C100.801 31.3862 100.874 31.6042 100.963 31.6042C101.052 31.6042 101.124 31.9674 101.124 32.4115C101.124 32.8555 101.197 33.2188 101.286 33.2188C101.38 33.2188 101.447 33.7569 101.447 34.5104C101.447 35.2639 101.515 35.8021 101.609 35.8021C101.708 35.8021 101.77 36.6094 101.77 37.901C101.77 39.1927 101.708 40 101.609 40C101.515 40 101.447 40.5381 101.447 41.2917C101.447 42.0452 101.38 42.5833 101.286 42.5833C101.197 42.5833 101.124 42.874 101.124 43.2292C101.124 43.5844 101.052 43.875 100.963 43.875C100.874 43.875 100.801 44.1656 100.801 44.5208C100.801 44.876 100.729 45.1667 100.64 45.1667C100.551 45.1667 100.478 45.3846 100.478 45.651C100.478 45.9174 100.406 46.1354 100.317 46.1354C100.228 46.1354 100.155 46.3534 100.155 46.6198C100.155 46.8862 100.083 47.1042 99.9938 47.1042C99.905 47.1042 99.8323 47.2495 99.8323 47.4271C99.8323 47.6047 99.7596 47.75 99.6708 47.75C99.582 47.75 99.5093 47.8953 99.5093 48.0729C99.5093 48.2505 99.4366 48.3958 99.3478 48.3958C99.259 48.3958 99.1863 48.5411 99.1863 48.7188C99.1863 48.8964 99.1137 49.0417 99.0248 49.0417C98.936 49.0417 98.8633 49.187 98.8633 49.3646C98.8633 49.5422 98.7907 49.6875 98.7019 49.6875C98.613 49.6875 98.5404 49.8328 98.5404 50.0104C98.5404 50.188 98.4677 50.3333 98.3789 50.3333C98.2901 50.3333 98.2174 50.4627 98.2174 50.6206C98.2174 50.7786 98.0721 51.0126 97.8944 51.1406C97.7168 51.2687 97.5714 51.4866 97.5714 51.625C97.5714 51.7634 97.4261 51.9813 97.2484 52.1094C97.0708 52.2374 96.9255 52.4391 96.9255 52.5576C96.9255 52.6761 96.4894 53.201 95.9565 53.724C95.4236 54.2469 94.9876 54.7523 94.9876 54.8469C94.9876 55.0666 91.3319 58.7292 91.1126 58.7292C91.0222 58.7292 86.5163 54.2971 81.0994 48.8802C75.6825 43.4633 71.157 39.0312 71.0429 39.0312C70.9287 39.0312 70.7305 38.8859 70.6025 38.7083C70.4744 38.5307 70.2404 38.3854 70.0823 38.3854C69.9244 38.3854 69.795 38.3128 69.795 38.224C69.795 38.1352 69.6497 38.0625 69.472 38.0625C69.2944 38.0625 69.1491 37.9898 69.1491 37.901C69.1491 37.8122 69.0037 37.7396 68.8261 37.7396C68.6484 37.7396 68.5031 37.6669 68.5031 37.5781C68.5031 37.4893 68.3578 37.4167 68.1801 37.4167C68.0025 37.4167 67.8571 37.344 67.8571 37.2552C67.8571 37.1664 67.7118 37.0938 67.5342 37.0938C67.3565 37.0938 67.2112 37.0211 67.2112 36.9323C67.2112 36.8435 66.9932 36.7708 66.7267 36.7708C66.4603 36.7708 66.2422 36.6982 66.2422 36.6094C66.2422 36.5206 65.9515 36.4479 65.5963 36.4479C65.241 36.4479 64.9503 36.3753 64.9503 36.2865C64.9503 36.1967 64.5196 36.125 63.9814 36.125C63.4431 36.125 63.0124 36.0533 63.0124 35.9635C63.0124 35.8649 62.2587 35.8021 61.0745 35.8021C59.8903 35.8021 59.1366 35.8649 59.1366 35.9635C59.1366 36.0533 58.706 36.125 58.1677 36.125C57.6295 36.125 57.1988 36.1967 57.1988 36.2865C57.1988 36.3753 56.9081 36.4479 56.5528 36.4479C56.1975 36.4479 55.9068 36.5206 55.9068 36.6094C55.9068 36.6982 55.7615 36.7708 55.5839 36.7708C55.4062 36.7708 55.2609 36.8435 55.2609 36.9323C55.2609 37.0211 55.0429 37.0938 54.7764 37.0938C54.5099 37.0938 54.2919 37.1664 54.2919 37.2552C54.2919 37.344 54.1466 37.4167 53.9689 37.4167C53.7913 37.4167 53.646 37.4893 53.646 37.5781C53.646 37.6669 53.5006 37.7396 53.323 37.7396C53.1453 37.7396 53 37.8122 53 37.901C53 37.9898 52.8706 38.0625 52.7127 38.0625C52.5546 38.0625 52.3206 38.2078 52.1925 38.3854C52.0645 38.563 51.8305 38.7083 51.6724 38.7083C51.5144 38.7083 51.3851 38.781 51.3851 38.8698C51.3851 38.9586 51.2557 39.0312 51.0978 39.0312C50.9397 39.0312 50.7057 39.1766 50.5776 39.3542C50.4496 39.5318 50.2156 39.6771 50.0575 39.6771C49.8995 39.6771 49.7702 39.7497 49.7702 39.8385C49.7702 39.9273 49.6408 40 49.4829 40C49.3248 40 49.0908 40.1453 48.9627 40.3229C48.8347 40.5005 48.6167 40.6458 48.4783 40.6458C48.3399 40.6458 48.1218 40.7911 47.9938 40.9687C47.8657 41.1464 47.6317 41.2917 47.4736 41.2917C47.3157 41.2917 47.1863 41.3643 47.1863 41.4531C47.1863 41.5419 47.041 41.6146 46.8634 41.6146C46.6857 41.6146 46.5404 41.6872 46.5404 41.776C46.5404 41.8648 46.395 41.9375 46.2174 41.9375C46.0398 41.9375 45.8944 42.0102 45.8944 42.099C45.8944 42.1878 45.7491 42.2604 45.5714 42.2604C45.3938 42.2604 45.2484 42.3331 45.2484 42.4219C45.2484 42.5107 44.9578 42.5833 44.6025 42.5833C44.2472 42.5833 43.9565 42.656 43.9565 42.7448C43.9565 42.8447 43.0953 42.9062 41.6957 42.9062C40.296 42.9062 39.4348 42.8447 39.4348 42.7448C39.4348 42.656 39.2168 42.5833 38.9503 42.5833C38.6838 42.5833 38.4658 42.5107 38.4658 42.4219C38.4658 42.3331 38.2478 42.2604 37.9814 42.2604C37.7149 42.2604 37.4969 42.1878 37.4969 42.099C37.4969 42.0102 37.3516 41.9375 37.1739 41.9375C36.9963 41.9375 36.8509 41.8648 36.8509 41.776C36.8509 41.6872 36.7395 41.6146 36.6034 41.6146C36.4671 41.6146 36.1019 41.3608 35.7917 41.0506L35.2276 40.4868L36.2786 39.436C36.8566 38.8582 37.4082 38.3854 37.5043 38.3854C37.6006 38.3854 38.0332 38.0221 38.4658 37.5781C38.8985 37.1341 39.3345 36.7708 39.4348 36.7708C39.5351 36.7708 39.9711 36.4076 40.4037 35.9635C40.8364 35.5195 41.2724 35.1562 41.3727 35.1562C41.473 35.1562 41.909 34.793 42.3416 34.349C42.7742 33.9049 43.2103 33.5417 43.3106 33.5417C43.4108 33.5417 43.8469 33.1784 44.2795 32.7344C44.7121 32.2904 45.1474 31.9271 45.2468 31.9271C45.3465 31.9271 45.8558 31.4911 46.3789 30.9583C46.9019 30.4255 47.4102 29.9896 47.5082 29.9896C47.6062 29.9896 48.1881 29.481 48.8012 28.8594C49.4144 28.2378 49.9947 27.7292 50.0906 27.7292C50.1865 27.7292 51.0597 26.9299 52.0311 25.9531C53.0024 24.9763 53.8735 24.1771 53.9668 24.1771C54.0602 24.1771 55.5146 22.7966 57.1988 21.1094C58.8829 19.4221 60.3422 18.0417 60.4415 18.0417C60.5408 18.0417 60.8257 17.8237 61.0745 17.5573C61.3234 17.2909 61.6273 17.0729 61.7496 17.0729C61.872 17.0729 62.0769 16.9276 62.205 16.75C62.333 16.5724 62.551 16.4271 62.6894 16.4271C62.8278 16.4271 63.0458 16.2818 63.1739 16.1042C63.302 15.9266 63.536 15.7812 63.6941 15.7812C63.852 15.7812 63.9814 15.7086 63.9814 15.6198C63.9814 15.531 64.1267 15.4583 64.3043 15.4583C64.482 15.4583 64.6273 15.3857 64.6273 15.2969C64.6273 15.2081 64.7727 15.1354 64.9503 15.1354C65.128 15.1354 65.2733 15.0628 65.2733 14.974C65.2733 14.8852 65.4186 14.8125 65.5963 14.8125C65.7739 14.8125 65.9193 14.7398 65.9193 14.651C65.9193 14.5622 66.0646 14.4896 66.2422 14.4896C66.4199 14.4896 66.5652 14.4169 66.5652 14.3281C66.5652 14.2393 66.7832 14.1667 67.0497 14.1667C67.3161 14.1667 67.5342 14.094 67.5342 14.0052C67.5342 13.9164 67.6795 13.8438 67.8571 13.8438C68.0348 13.8438 68.1801 13.7711 68.1801 13.6823C68.1801 13.5935 68.3981 13.5208 68.6646 13.5208C68.9311 13.5208 69.1491 13.4482 69.1491 13.3594C69.1491 13.2706 69.4398 13.1979 69.795 13.1979C70.1503 13.1979 70.441 13.1253 70.441 13.0365C70.441 12.9477 70.8043 12.875 71.2484 12.875C71.6925 12.875 72.0559 12.8023 72.0559 12.7135C72.0559 12.6194 72.5941 12.5521 73.3478 12.5521C74.1015 12.5521 74.6397 12.4848 74.6397 12.3906C74.6397 12.2928 75.3395 12.2292 76.4161 12.2292C77.4928 12.2292 78.1925 12.2928 78.1925 12.3906ZM32.9752 12.7135C32.9752 12.8033 33.4058 12.875 33.9441 12.875C34.4823 12.875 34.913 12.9467 34.913 13.0365C34.913 13.1253 35.2037 13.1979 35.559 13.1979C35.9143 13.1979 36.205 13.2706 36.205 13.3594C36.205 13.4482 36.423 13.5208 36.6894 13.5208C36.9559 13.5208 37.1739 13.5935 37.1739 13.6823C37.1739 13.7711 37.3919 13.8438 37.6584 13.8438C37.9248 13.8438 38.1429 13.9164 38.1429 14.0052C38.1429 14.094 38.3609 14.1667 38.6273 14.1667C38.8938 14.1667 39.1118 14.2393 39.1118 14.3281C39.1118 14.4169 39.2571 14.4896 39.4348 14.4896C39.6124 14.4896 39.7578 14.5622 39.7578 14.651C39.7578 14.7398 39.9031 14.8125 40.0807 14.8125C40.2584 14.8125 40.4037 14.8852 40.4037 14.974C40.4037 15.0628 40.5491 15.1354 40.7267 15.1354C40.9043 15.1354 41.0497 15.2081 41.0497 15.2969C41.0497 15.3857 41.195 15.4583 41.3727 15.4583C41.5503 15.4583 41.6957 15.531 41.6957 15.6198C41.6957 15.7086 41.825 15.7812 41.9829 15.7812C42.141 15.7812 42.375 15.9266 42.5031 16.1042C42.6312 16.2818 42.8492 16.4271 42.9876 16.4271C43.126 16.4271 43.344 16.5724 43.472 16.75C43.6001 16.9276 43.805 17.0729 43.9275 17.0729C44.0497 17.0729 44.3536 17.2909 44.6025 17.5573C44.8513 17.8237 45.1354 18.0417 45.2337 18.0417C45.3321 18.0417 46.5399 19.1688 47.9177 20.5464L50.4228 23.0509L49.8596 23.6141C49.5499 23.9238 49.2182 24.1771 49.1228 24.1771C49.0272 24.1771 48.3738 24.7583 47.6708 25.4688C46.9678 26.1792 46.3128 26.7604 46.2153 26.7604C46.1177 26.7604 45.61 27.1964 45.087 27.7292C44.5639 28.262 44.0545 28.6979 43.9549 28.6979C43.8554 28.6979 43.4202 29.0612 42.9876 29.5052C42.5549 29.9492 42.1189 30.3125 42.0186 30.3125C41.9183 30.3125 41.4823 30.6758 41.0497 31.1198C40.6171 31.5638 40.181 31.9271 40.0807 31.9271C39.9805 31.9271 39.5444 32.2904 39.1118 32.7344C38.6792 33.1784 38.2439 33.5417 38.1445 33.5417C38.0448 33.5417 37.5355 33.9776 37.0124 34.5104C36.4894 35.0432 35.98 35.4792 35.8804 35.4792C35.7809 35.4792 35.3457 35.8424 34.913 36.2865C34.4804 36.7305 34.0473 37.0938 33.9504 37.0938C33.588 37.0938 32.3292 38.5323 32.3292 38.9463C32.3292 39.1706 32.2565 39.3542 32.1677 39.3542C32.0755 39.3542 32.0062 39.8385 32.0062 40.4844C32.0062 41.1302 32.0755 41.6146 32.1677 41.6146C32.2565 41.6146 32.3292 41.7599 32.3292 41.9375C32.3292 42.1151 32.4019 42.2604 32.4907 42.2604C32.5795 42.2604 32.6522 42.3726 32.6522 42.5099C32.6522 42.815 33.3642 43.5521 33.6589 43.5521C33.7765 43.5521 33.9775 43.6974 34.1056 43.875C34.2337 44.0526 34.4517 44.1979 34.5901 44.1979C34.7285 44.1979 34.9465 44.3432 35.0745 44.5208C35.2026 44.6984 35.4366 44.8438 35.5947 44.8438C35.7526 44.8438 35.882 44.9164 35.882 45.0052C35.882 45.094 36.1 45.1667 36.3665 45.1667C36.6329 45.1667 36.8509 45.2393 36.8509 45.3281C36.8509 45.4169 36.9963 45.4896 37.1739 45.4896C37.3516 45.4896 37.4969 45.5622 37.4969 45.651C37.4969 45.7398 37.7876 45.8125 38.1429 45.8125C38.4981 45.8125 38.7888 45.8852 38.7888 45.974C38.7888 46.0757 39.8655 46.1354 41.6957 46.1354C43.5258 46.1354 44.6025 46.0757 44.6025 45.974C44.6025 45.8852 44.8932 45.8125 45.2484 45.8125C45.6037 45.8125 45.8944 45.7398 45.8944 45.651C45.8944 45.5622 46.1124 45.4896 46.3789 45.4896C46.6453 45.4896 46.8634 45.4169 46.8634 45.3281C46.8634 45.2393 47.0087 45.1667 47.1863 45.1667C47.364 45.1667 47.5093 45.094 47.5093 45.0052C47.5093 44.9164 47.6547 44.8438 47.8323 44.8438C48.0099 44.8438 48.1553 44.7711 48.1553 44.6823C48.1553 44.5935 48.2846 44.5208 48.4426 44.5208C48.6007 44.5208 48.8347 44.3755 48.9627 44.1979C49.0908 44.0203 49.3248 43.875 49.4829 43.875C49.6408 43.875 49.7702 43.8023 49.7702 43.7135C49.7702 43.6247 49.8995 43.5521 50.0575 43.5521C50.2156 43.5521 50.4496 43.4068 50.5776 43.2292C50.7057 43.0516 50.9237 42.9062 51.0621 42.9062C51.2005 42.9062 51.4185 42.7609 51.5466 42.5833C51.6746 42.4057 51.9086 42.2604 52.0667 42.2604C52.2247 42.2604 52.354 42.1878 52.354 42.099C52.354 42.0102 52.4834 41.9375 52.6413 41.9375C52.7994 41.9375 53.0334 41.7922 53.1615 41.6146C53.2896 41.437 53.5236 41.2917 53.6817 41.2917C53.8396 41.2917 53.9689 41.219 53.9689 41.1302C53.9689 41.0414 54.1143 40.9687 54.2919 40.9687C54.4696 40.9687 54.6149 40.8961 54.6149 40.8073C54.6149 40.7185 54.7602 40.6458 54.9379 40.6458C55.1155 40.6458 55.2609 40.5732 55.2609 40.4844C55.2609 40.3956 55.4062 40.3229 55.5839 40.3229C55.7615 40.3229 55.9068 40.2503 55.9068 40.1615C55.9068 40.0727 56.1248 40 56.3913 40C56.6578 40 56.8758 39.9273 56.8758 39.8385C56.8758 39.7497 57.0938 39.6771 57.3602 39.6771C57.6267 39.6771 57.8447 39.6044 57.8447 39.5156C57.8447 39.4259 58.2754 39.3542 58.8137 39.3542C59.3519 39.3542 59.7826 39.2825 59.7826 39.1927C59.7826 39.0986 60.3209 39.0312 61.0745 39.0312C61.8282 39.0312 62.3665 39.0986 62.3665 39.1927C62.3665 39.2825 62.7972 39.3542 63.3354 39.3542C63.8737 39.3542 64.3043 39.4259 64.3043 39.5156C64.3043 39.6044 64.595 39.6771 64.9503 39.6771C65.3056 39.6771 65.5963 39.7497 65.5963 39.8385C65.5963 39.9273 65.7416 40 65.9193 40C66.0969 40 66.2422 40.0727 66.2422 40.1615C66.2422 40.2503 66.4443 40.3229 66.691 40.3229C66.9546 40.3229 67.2359 40.4563 67.3727 40.6458C67.5007 40.8234 67.7347 40.9687 67.8928 40.9687C68.0508 40.9687 68.1801 41.0414 68.1801 41.1302C68.1801 41.219 68.3095 41.2917 68.4674 41.2917C68.6255 41.2917 68.8595 41.437 68.9876 41.6146C69.1156 41.7922 69.3135 41.9375 69.4273 41.9375C69.8562 41.9375 90.4658 62.7361 90.4658 63.1689C90.4658 63.3911 90.5385 63.5729 90.6273 63.5729C90.7215 63.5729 90.7888 64.1111 90.7888 64.8646C90.7888 65.6181 90.7215 66.1562 90.6273 66.1562C90.5385 66.1562 90.4658 66.3742 90.4658 66.6406C90.4658 66.907 90.3932 67.125 90.3043 67.125C90.2155 67.125 90.1429 67.2543 90.1429 67.4122C90.1429 67.5703 89.9975 67.8043 89.8199 67.9323C89.6422 68.0603 89.4969 68.2943 89.4969 68.4523C89.4969 68.6201 89.3774 68.7396 89.2096 68.7396C89.0515 68.7396 88.8175 68.8849 88.6894 69.0625C88.5614 69.2401 88.3274 69.3854 88.1693 69.3854C88.0113 69.3854 87.882 69.4581 87.882 69.5469C87.882 69.6357 87.5248 69.7083 87.0879 69.7083C86.6107 69.7083 86.2564 69.7889 86.1997 69.9102C86.1245 70.0716 86.0867 70.0716 86.0114 69.9102C85.9548 69.7889 85.6004 69.7083 85.1232 69.7083C84.6864 69.7083 84.3292 69.6357 84.3292 69.5469C84.3292 69.4581 84.2195 69.3854 84.0857 69.3854C83.9516 69.3854 80.6458 66.1885 76.7391 62.2812C72.8325 58.374 69.5266 55.1771 69.3926 55.1771C69.2587 55.1771 69.1491 55.1044 69.1491 55.0156C69.1491 54.9268 68.9311 54.8542 68.6646 54.8542C68.3981 54.8542 68.1801 54.9268 68.1801 55.0156C68.1801 55.1044 68.0659 55.1771 67.9264 55.1771C67.7867 55.1771 67.5687 55.2809 67.4419 55.4078C67.315 55.5345 67.2112 55.7525 67.2112 55.8922C67.2112 56.0317 67.1385 56.1458 67.0497 56.1458C66.9609 56.1458 66.8882 56.3638 66.8882 56.6302C66.8882 56.8966 66.9609 57.1146 67.0497 57.1146C67.1385 57.1146 67.2112 57.2242 67.2112 57.3581C67.2112 57.4921 70.4087 60.7973 74.3168 64.7031C78.2248 68.609 81.4224 71.9142 81.4224 72.0482C81.4224 72.182 81.495 72.2917 81.5838 72.2917C81.6727 72.2917 81.7453 72.5096 81.7453 72.776C81.7453 73.0424 81.818 73.2604 81.9068 73.2604C81.9957 73.2604 82.0683 73.6237 82.0683 74.0677C82.0683 74.5117 81.9957 74.875 81.9068 74.875C81.818 74.875 81.7453 75.093 81.7453 75.3594C81.7453 75.6258 81.6727 75.8438 81.5838 75.8438C81.495 75.8438 81.4224 75.9731 81.4224 76.131C81.4224 76.289 81.277 76.523 81.0994 76.651C80.9217 76.7791 80.7764 77.013 80.7764 77.1711C80.7764 77.3389 80.6569 77.4583 80.4891 77.4583C80.331 77.4583 80.097 77.6036 79.9689 77.7812C79.8409 77.9589 79.6069 78.1042 79.4488 78.1042C79.2908 78.1042 79.1615 78.1768 79.1615 78.2656C79.1615 78.3625 78.5155 78.4271 77.5466 78.4271C76.5776 78.4271 75.9317 78.3625 75.9317 78.2656C75.9317 78.1768 75.7863 78.1042 75.6087 78.1042C75.4311 78.1042 75.2857 78.0315 75.2857 77.9427C75.2857 77.8539 75.1761 77.7812 75.042 77.7812C74.9081 77.7812 71.6749 74.657 67.8571 70.8385C64.0393 67.0201 60.8061 63.8958 60.6723 63.8958C60.5382 63.8958 60.4286 63.8232 60.4286 63.7344C60.4286 63.6456 60.2106 63.5729 59.9441 63.5729C59.6776 63.5729 59.4596 63.6456 59.4596 63.7344C59.4596 63.8232 59.3454 63.8958 59.2059 63.8958C58.8795 63.8958 58.4907 64.2846 58.4907 64.6109C58.4907 64.7504 58.418 64.8646 58.3292 64.8646C58.2404 64.8646 58.1677 65.0099 58.1677 65.1875C58.1677 65.3651 58.2404 65.5104 58.3292 65.5104C58.418 65.5104 58.4907 65.62 58.4907 65.7541C58.4907 65.8881 61.5429 69.048 65.2733 72.776C69.0037 76.5041 72.0559 79.648 72.0559 79.7623C72.0559 79.8768 72.2012 80.0751 72.3789 80.2031C72.5565 80.3312 72.7019 80.5651 72.7019 80.7232C72.7019 80.8811 72.7745 81.0104 72.8633 81.0104C72.9522 81.0104 73.0248 81.1557 73.0248 81.3333C73.0248 81.5109 73.0975 81.6562 73.1863 81.6562C73.2785 81.6562 73.3478 82.1406 73.3478 82.7865C73.3478 83.4323 73.2785 83.9167 73.1863 83.9167C73.0975 83.9167 73.0248 84.062 73.0248 84.2396C73.0248 84.4172 72.9522 84.5625 72.8633 84.5625C72.7745 84.5625 72.7019 84.6918 72.7019 84.8497C72.7019 85.0078 72.5565 85.2418 72.3789 85.3698C72.2012 85.4978 72.0559 85.7318 72.0559 85.8898C72.0559 86.0576 71.9364 86.1771 71.7686 86.1771C71.6105 86.1771 71.3765 86.3224 71.2484 86.5C71.1117 86.6896 70.8303 86.8229 70.5668 86.8229C70.32 86.8229 70.118 86.8956 70.118 86.9844C70.118 87.0801 69.5258 87.1458 68.6646 87.1458C67.8034 87.1458 67.2112 87.0801 67.2112 86.9844C67.2112 86.8956 67.097 86.8229 66.9575 86.8229C66.4449 86.8229 66.2422 86.3915 66.2422 85.3005C66.2422 84.7009 66.172 84.2396 66.0807 84.2396C65.9919 84.2396 65.9193 83.8763 65.9193 83.4323C65.9193 82.9883 65.8466 82.625 65.7578 82.625C65.6689 82.625 65.5963 82.4797 65.5963 82.3021C65.5963 82.1245 65.5236 81.9792 65.4348 81.9792C65.346 81.9792 65.2733 81.8339 65.2733 81.6562C65.2733 81.4786 65.2006 81.3333 65.1118 81.3333C65.023 81.3333 64.9503 81.2231 64.9503 81.0881C64.9503 80.7689 62.931 78.75 62.6118 78.75C62.4768 78.75 62.3665 78.6773 62.3665 78.5885C62.3665 78.4997 62.2211 78.4271 62.0435 78.4271C61.8658 78.4271 61.7205 78.3544 61.7205 78.2656C61.7205 78.1768 61.5752 78.1042 61.3975 78.1042C61.2199 78.1042 61.0745 78.0315 61.0745 77.9427C61.0745 77.8539 60.7838 77.7812 60.4286 77.7812C60.0733 77.7812 59.7826 77.7086 59.7826 77.6198C59.7826 77.5276 59.2981 77.4583 58.6522 77.4583H57.5217V76.3281C57.5217 75.6823 57.4525 75.1979 57.3602 75.1979C57.2714 75.1979 57.1988 74.9073 57.1988 74.5521C57.1988 74.1969 57.1261 73.9062 57.0373 73.9062C56.9484 73.9062 56.8758 73.7609 56.8758 73.5833C56.8758 73.4057 56.8031 73.2604 56.7143 73.2604C56.6255 73.2604 56.5528 73.1151 56.5528 72.9375C56.5528 72.7599 56.4801 72.6146 56.3913 72.6146C56.3025 72.6146 56.2298 72.5043 56.2298 72.3693C56.2298 72.0501 54.2105 70.0312 53.8913 70.0312C53.7563 70.0312 53.646 69.9586 53.646 69.8698C53.646 69.781 53.5006 69.7083 53.323 69.7083C53.1453 69.7083 53 69.6357 53 69.5469C53 69.4581 52.8547 69.3854 52.677 69.3854C52.4994 69.3854 52.354 69.3128 52.354 69.224C52.354 69.1352 51.9907 69.0625 51.5466 69.0625C51.1025 69.0625 50.7391 68.9898 50.7391 68.901C50.7391 68.8113 50.3084 68.7396 49.7702 68.7396H48.8012V67.6094C48.8012 66.9635 48.732 66.4792 48.6398 66.4792C48.5509 66.4792 48.4783 66.1885 48.4783 65.8333C48.4783 65.4781 48.4056 65.1875 48.3168 65.1875C48.2279 65.1875 48.1553 65.0422 48.1553 64.8646C48.1553 64.687 48.0826 64.5417 47.9938 64.5417C47.905 64.5417 47.8323 64.3964 47.8323 64.2188C47.8323 64.0411 47.7596 63.8958 47.6708 63.8958C47.582 63.8958 47.5093 63.7852 47.5093 63.6501C47.5093 63.3509 45.8238 61.6354 45.5298 61.6354C45.4143 61.6354 45.215 61.4901 45.087 61.3125C44.9589 61.1349 44.7249 60.9896 44.5668 60.9896C44.4089 60.9896 44.2795 60.9169 44.2795 60.8281C44.2795 60.7393 44.0615 60.6667 43.795 60.6667C43.5286 60.6667 43.3106 60.594 43.3106 60.5052C43.3106 60.4164 43.0199 60.3438 42.6646 60.3438C42.3093 60.3438 42.0186 60.2711 42.0186 60.1823C42.0186 60.0935 41.7279 60.0208 41.3727 60.0208C41.0174 60.0208 40.7267 60.0935 40.7267 60.1823C40.7267 60.2711 40.5814 60.3438 40.4037 60.3438C40.1046 60.3438 40.0807 60.2361 40.0807 58.8906C40.0807 58.0296 40.015 57.4375 39.9193 57.4375C39.8304 57.4375 39.7578 57.2195 39.7578 56.9531C39.7578 56.6867 39.6851 56.4688 39.5963 56.4688C39.5075 56.4688 39.4348 56.3234 39.4348 56.1458C39.4348 55.9682 39.3621 55.8229 39.2733 55.8229C39.1845 55.8229 39.1118 55.6776 39.1118 55.5C39.1118 55.3224 39.0391 55.1771 38.9503 55.1771C38.8615 55.1771 38.7888 55.0665 38.7888 54.9313C38.7888 54.6322 37.1033 52.9167 36.8093 52.9167C36.6938 52.9167 36.4945 52.7714 36.3665 52.5938C36.2384 52.4161 36.0044 52.2708 35.8463 52.2708C35.6884 52.2708 35.559 52.1982 35.559 52.1094C35.559 52.0206 35.341 51.9479 35.0745 51.9479C34.8081 51.9479 34.5901 51.8753 34.5901 51.7865C34.5901 51.6865 33.7288 51.625 32.3292 51.625C30.9296 51.625 30.0683 51.6865 30.0683 51.7865C30.0683 51.8753 29.8503 51.9479 29.5839 51.9479C29.3174 51.9479 29.0994 52.0206 29.0994 52.1094C29.0994 52.1982 28.97 52.2708 28.8121 52.2708C28.654 52.2708 28.42 52.4161 28.2919 52.5938C28.1639 52.7714 27.9652 52.9167 27.8506 52.9167C27.7358 52.9167 25.5362 55.0237 22.9627 57.599C20.3892 60.1742 18.2096 62.2812 18.1191 62.2812C17.8989 62.2812 10.6894 55.065 10.6894 54.8446C10.6894 54.7495 10.3261 54.318 9.88199 53.8854C9.43789 53.4529 9.07453 53.0145 9.07453 52.9112C9.07453 52.8078 8.85652 52.5196 8.59006 52.2708C8.3236 52.022 8.10559 51.7022 8.10559 51.5603C8.10559 51.4182 8.03292 51.3021 7.9441 51.3021C7.85528 51.3021 7.78261 51.1728 7.78261 51.0149C7.78261 50.8568 7.63727 50.6228 7.45963 50.4948C7.28199 50.3668 7.13665 50.1328 7.13665 49.9747C7.13665 49.8168 7.06397 49.6875 6.97515 49.6875C6.88633 49.6875 6.81366 49.5422 6.81366 49.3646C6.81366 49.187 6.74099 49.0417 6.65217 49.0417C6.56335 49.0417 6.49068 48.8964 6.49068 48.7188C6.49068 48.5411 6.41801 48.3958 6.32919 48.3958C6.24037 48.3958 6.1677 48.2505 6.1677 48.0729C6.1677 47.8953 6.09503 47.75 6.00621 47.75C5.91739 47.75 5.84472 47.532 5.84472 47.2656C5.84472 46.9992 5.77205 46.7812 5.68323 46.7812C5.59441 46.7812 5.52174 46.5633 5.52174 46.2969C5.52174 46.0305 5.44907 45.8125 5.36025 45.8125C5.27143 45.8125 5.19876 45.5945 5.19876 45.3281C5.19876 45.0617 5.12609 44.8438 5.03727 44.8438C4.94845 44.8438 4.87578 44.6258 4.87578 44.3594C4.87578 44.093 4.80311 43.875 4.71429 43.875C4.62547 43.875 4.55279 43.5117 4.55279 43.0677C4.55279 42.6237 4.48012 42.2604 4.3913 42.2604C4.29909 42.2604 4.22981 41.776 4.22981 41.1302C4.22981 40.4844 4.16053 40 4.06832 40C3.96788 40 3.90683 39.085 3.90683 37.5781C3.90683 36.0712 3.96788 35.1562 4.06832 35.1562C4.15811 35.1562 4.22981 34.7256 4.22981 34.1875C4.22981 33.6494 4.30152 33.2188 4.3913 33.2188C4.48012 33.2188 4.55279 32.8555 4.55279 32.4115C4.55279 31.9674 4.62547 31.6042 4.71429 31.6042C4.80311 31.6042 4.87578 31.3862 4.87578 31.1198C4.87578 30.8534 4.94845 30.6354 5.03727 30.6354C5.12609 30.6354 5.19876 30.4174 5.19876 30.151C5.19876 29.8846 5.27143 29.6667 5.36025 29.6667C5.44907 29.6667 5.52174 29.4487 5.52174 29.1823C5.52174 28.9159 5.59441 28.6979 5.68323 28.6979C5.77205 28.6979 5.84472 28.5526 5.84472 28.375C5.84472 28.1974 5.91739 28.0521 6.00621 28.0521C6.09503 28.0521 6.1677 27.9068 6.1677 27.7292C6.1677 27.5516 6.24037 27.4062 6.32919 27.4062C6.41801 27.4062 6.49068 27.2609 6.49068 27.0833C6.49068 26.9057 6.56335 26.7604 6.65217 26.7604C6.74099 26.7604 6.81366 26.6151 6.81366 26.4375C6.81366 26.2599 6.88633 26.1146 6.97515 26.1146C7.06397 26.1146 7.13665 25.9693 7.13665 25.7917C7.13665 25.6141 7.20932 25.4688 7.29814 25.4688C7.38696 25.4688 7.45963 25.3394 7.45963 25.1815C7.45963 25.0234 7.60497 24.7895 7.78261 24.6615C7.96025 24.5334 8.10559 24.3155 8.10559 24.1771C8.10559 24.0387 8.25093 23.8207 8.42857 23.6927C8.60621 23.5647 8.75155 23.3624 8.75155 23.2429C8.75155 23.1236 9.11491 22.6721 9.55901 22.2396C10.0031 21.807 10.3665 21.3747 10.3665 21.2787C10.3665 21.0496 12.7312 18.6875 12.9603 18.6875C13.0575 18.6875 13.4164 18.3969 13.7578 18.0417C14.0992 17.6865 14.464 17.3958 14.5684 17.3958C14.6731 17.3958 14.9623 17.1779 15.2112 16.9115C15.46 16.6451 15.764 16.4271 15.8862 16.4271C16.0086 16.4271 16.2136 16.2818 16.3416 16.1042C16.4697 15.9266 16.7037 15.7812 16.8618 15.7812C17.0197 15.7812 17.1491 15.7086 17.1491 15.6198C17.1491 15.531 17.2944 15.4583 17.472 15.4583C17.6497 15.4583 17.795 15.3857 17.795 15.2969C17.795 15.2081 17.9404 15.1354 18.118 15.1354C18.2957 15.1354 18.441 15.0628 18.441 14.974C18.441 14.8852 18.5863 14.8125 18.764 14.8125C18.9416 14.8125 19.087 14.7398 19.087 14.651C19.087 14.5622 19.2323 14.4896 19.4099 14.4896C19.5876 14.4896 19.7329 14.4169 19.7329 14.3281C19.7329 14.2393 19.9509 14.1667 20.2174 14.1667C20.4839 14.1667 20.7019 14.094 20.7019 14.0052C20.7019 13.9164 20.9199 13.8438 21.1863 13.8438C21.4528 13.8438 21.6708 13.7711 21.6708 13.6823C21.6708 13.5935 21.8888 13.5208 22.1553 13.5208C22.4217 13.5208 22.6398 13.4482 22.6398 13.3594C22.6398 13.2706 22.9304 13.1979 23.2857 13.1979C23.641 13.1979 23.9317 13.1253 23.9317 13.0365C23.9317 12.9467 24.3624 12.875 24.9006 12.875C25.4389 12.875 25.8696 12.8033 25.8696 12.7135C25.8696 12.6109 27.1615 12.5521 29.4224 12.5521C31.6832 12.5521 32.9752 12.6109 32.9752 12.7135ZM33.9441 55.0156C33.9441 55.1044 34.0735 55.1771 34.2314 55.1771C34.3895 55.1771 34.6235 55.3224 34.7516 55.5C34.8796 55.6776 35.0824 55.8229 35.2024 55.8229C35.4836 55.8229 35.882 56.2212 35.882 56.5023C35.882 56.6223 36.0273 56.8251 36.205 56.9531C36.3946 57.0899 36.528 57.3711 36.528 57.6346C36.528 57.8813 36.6006 58.0833 36.6894 58.0833C36.7817 58.0833 36.8509 58.5677 36.8509 59.2135C36.8509 59.8594 36.7817 60.3438 36.6894 60.3438C36.6006 60.3438 36.528 60.5457 36.528 60.7924C36.528 61.0559 36.3946 61.3372 36.205 61.474C36.0273 61.602 35.882 61.7999 35.882 61.9139C35.882 62.1847 26.419 71.6458 26.1481 71.6458C26.0341 71.6458 25.8361 71.7911 25.7081 71.9687C25.5713 72.1583 25.29 72.2917 25.0264 72.2917C24.7797 72.2917 24.5776 72.3643 24.5776 72.4531C24.5776 72.5453 24.0932 72.6146 23.4472 72.6146C22.8012 72.6146 22.3168 72.5453 22.3168 72.4531C22.3168 72.3643 22.1714 72.2917 21.9938 72.2917C21.8161 72.2917 21.6708 72.219 21.6708 72.1302C21.6708 72.0414 21.5602 71.9687 21.425 71.9687C21.0022 71.9687 19.4099 70.2492 19.4099 69.7926C19.4099 69.5687 19.3373 69.3854 19.2484 69.3854C19.1527 69.3854 19.087 68.7933 19.087 67.9323C19.087 67.0712 19.1527 66.4792 19.2484 66.4792C19.3373 66.4792 19.4099 66.3631 19.4099 66.221C19.4099 66.0791 19.6279 65.7592 19.8944 65.5104C20.1609 65.2616 20.3789 64.9778 20.3789 64.8798C20.3789 64.6469 28.8817 56.1458 29.1146 56.1458C29.2126 56.1458 29.4965 55.9279 29.7453 55.6615C29.9942 55.3951 30.3141 55.1771 30.4561 55.1771C30.5982 55.1771 30.7143 55.1044 30.7143 55.0156C30.7143 54.9188 31.3602 54.8542 32.3292 54.8542C33.2981 54.8542 33.9441 54.9188 33.9441 55.0156ZM42.6646 63.7344C42.6646 63.8232 42.7939 63.8958 42.9519 63.8958C43.11 63.8958 43.344 64.0411 43.472 64.2188C43.6001 64.3964 43.8341 64.5417 43.9922 64.5417C44.16 64.5417 44.2795 64.6611 44.2795 64.8289C44.2795 64.987 44.4248 65.2209 44.6025 65.349C44.7801 65.477 44.9255 65.7109 44.9255 65.869C44.9255 66.0269 44.9981 66.1562 45.087 66.1562C45.1758 66.1562 45.2484 66.3016 45.2484 66.4792C45.2484 66.6568 45.3211 66.8021 45.4099 66.8021C45.4997 66.8021 45.5714 67.2327 45.5714 67.7708C45.5714 68.309 45.4997 68.7396 45.4099 68.7396C45.3211 68.7396 45.2484 68.9576 45.2484 69.224C45.2484 69.4904 45.1758 69.7083 45.087 69.7083C44.9981 69.7083 44.9255 69.8377 44.9255 69.9956C44.9255 70.1536 44.7801 70.3876 44.6025 70.5156C44.4248 70.6437 44.2795 70.8416 44.2795 70.9556C44.2795 71.2265 35.4626 80.0417 35.1916 80.0417C35.0776 80.0417 34.8796 80.187 34.7516 80.3646C34.6235 80.5422 34.3895 80.6875 34.2314 80.6875C34.0735 80.6875 33.9441 80.7602 33.9441 80.849C33.9441 80.9378 33.7261 81.0104 33.4596 81.0104C33.1932 81.0104 32.9752 81.0831 32.9752 81.1719C32.9752 81.2607 32.6118 81.3333 32.1677 81.3333C31.7236 81.3333 31.3602 81.2607 31.3602 81.1719C31.3602 81.0831 31.1422 81.0104 30.8758 81.0104C30.6093 81.0104 30.3913 80.9378 30.3913 80.849C30.3913 80.7602 30.2807 80.6875 30.1455 80.6875C29.8258 80.6875 28.1304 78.9925 28.1304 78.6728C28.1304 78.5377 28.0578 78.4271 27.9689 78.4271C27.872 78.4271 27.8075 77.7812 27.8075 76.8125C27.8075 75.8438 27.872 75.1979 27.9689 75.1979C28.0578 75.1979 28.1304 75.0526 28.1304 74.875C28.1304 74.6974 28.2031 74.5521 28.2919 74.5521C28.3807 74.5521 28.4534 74.4428 28.4534 74.3092C28.4534 73.992 38.2286 64.2188 38.5459 64.2188C38.6795 64.2188 38.7888 64.1461 38.7888 64.0573C38.7888 63.9685 38.9342 63.8958 39.1118 63.8958C39.2894 63.8958 39.4348 63.8232 39.4348 63.7344C39.4348 63.6375 40.0807 63.5729 41.0497 63.5729C42.0186 63.5729 42.6646 63.6375 42.6646 63.7344ZM50.0932 72.1302C50.0932 72.219 50.3839 72.2917 50.7391 72.2917C51.0944 72.2917 51.3851 72.3643 51.3851 72.4531C51.3851 72.5419 51.5144 72.6146 51.6724 72.6146C51.8305 72.6146 52.0645 72.7599 52.1925 72.9375C52.3206 73.1151 52.5546 73.2604 52.7127 73.2604C52.8805 73.2604 53 73.3799 53 73.5476C53 73.7057 53.1453 73.9397 53.323 74.0677C53.5006 74.1957 53.646 74.4297 53.646 74.5878C53.646 74.7457 53.7186 74.875 53.8075 74.875C53.8963 74.875 53.9689 75.093 53.9689 75.3594C53.9689 75.6258 54.0416 75.8438 54.1304 75.8438C54.2193 75.8438 54.2919 76.207 54.2919 76.651C54.2919 77.095 54.2193 77.4583 54.1304 77.4583C54.0416 77.4583 53.9689 77.6763 53.9689 77.9427C53.9689 78.2091 53.8963 78.4271 53.8075 78.4271C53.7186 78.4271 53.646 78.5364 53.646 78.6699C53.646 78.8034 51.2845 81.2738 48.3982 84.1595C45.5118 87.0452 43.041 89.4062 42.9075 89.4062C42.7739 89.4062 42.6646 89.4789 42.6646 89.5677C42.6646 89.6565 42.3739 89.7292 42.0186 89.7292C41.6634 89.7292 41.3727 89.8018 41.3727 89.8906C41.3727 89.9794 41.1547 90.0521 40.8882 90.0521C40.6217 90.0521 40.4037 89.9794 40.4037 89.8906C40.4037 89.8018 40.113 89.7292 39.7578 89.7292C39.4025 89.7292 39.1118 89.6565 39.1118 89.5677C39.1118 89.4789 39.0012 89.4062 38.866 89.4062C38.5463 89.4062 36.8509 87.7113 36.8509 87.3916C36.8509 87.2564 36.7783 87.1458 36.6894 87.1458C36.6006 87.1458 36.528 86.7887 36.528 86.3519C36.528 85.8748 36.4474 85.5206 36.3261 85.4639C36.1646 85.3887 36.1646 85.3509 36.3261 85.2757C36.4372 85.2238 36.528 84.897 36.528 84.5491C36.528 84.2013 36.6006 83.9167 36.6894 83.9167C36.7783 83.9167 36.8509 83.7714 36.8509 83.5938C36.8509 83.4161 36.9236 83.2708 37.0124 83.2708C37.1012 83.2708 37.1739 83.1615 37.1739 83.028C37.1739 82.7335 46.9373 72.9375 47.2307 72.9375C47.3448 72.9375 47.5427 72.7922 47.6708 72.6146C47.8478 72.3692 48.0889 72.2917 48.6754 72.2917C49.0998 72.2917 49.4472 72.219 49.4472 72.1302C49.4472 72.0414 49.5925 71.9687 49.7702 71.9687C49.9478 71.9687 50.0932 72.0414 50.0932 72.1302ZM59.1366 80.849C59.1366 80.9378 59.3547 81.0104 59.6211 81.0104C59.8876 81.0104 60.1056 81.0831 60.1056 81.1719C60.1056 81.2607 60.2349 81.3333 60.3929 81.3333C60.551 81.3333 60.785 81.4786 60.913 81.6562C61.0411 81.8339 61.2751 81.9792 61.4332 81.9792C61.601 81.9792 61.7205 82.0986 61.7205 82.2664C61.7205 82.4245 61.8658 82.6584 62.0435 82.7865C62.2211 82.9145 62.3665 83.1484 62.3665 83.3065C62.3665 83.4644 62.4391 83.5938 62.528 83.5938C62.6168 83.5938 62.6894 83.8844 62.6894 84.2396C62.6894 84.5948 62.7621 84.8854 62.8509 84.8854C62.9398 84.8854 63.0124 85.0307 63.0124 85.2083C63.0124 85.3859 62.9398 85.5312 62.8509 85.5312C62.7621 85.5312 62.6894 85.8785 62.6894 86.3029C62.6894 86.8893 62.6119 87.1303 62.3665 87.3073C62.1888 87.4353 62.0435 87.6333 62.0435 87.7473C62.0435 88.0406 52.2455 97.8021 51.951 97.8021C51.8174 97.8021 51.7081 97.8747 51.7081 97.9635C51.7081 98.0523 51.5627 98.125 51.3851 98.125C51.2075 98.125 51.0621 98.1977 51.0621 98.2865C51.0621 98.3753 50.7776 98.4479 50.4296 98.4479C50.0815 98.4479 49.7547 98.5387 49.7028 98.6497C49.6276 98.8112 49.5898 98.8112 49.5145 98.6497C49.4579 98.5285 49.1035 98.4479 48.6263 98.4479C48.1895 98.4479 47.8323 98.3753 47.8323 98.2865C47.8323 98.1977 47.7217 98.125 47.5865 98.125C47.2668 98.125 45.5714 96.43 45.5714 96.1103C45.5714 95.9752 45.4988 95.8646 45.4099 95.8646C45.3211 95.8646 45.2484 95.6466 45.2484 95.3802C45.2484 95.1138 45.1758 94.8958 45.087 94.8958C44.9981 94.8958 44.9255 94.6052 44.9255 94.25C44.9255 93.8948 44.9981 93.6042 45.087 93.6042C45.1758 93.6042 45.2484 93.3135 45.2484 92.9583C45.2484 92.6031 45.3211 92.3125 45.4099 92.3125C45.4988 92.3125 45.5714 92.2032 45.5714 92.0697C45.5714 91.7524 55.9926 81.3333 56.3099 81.3333C56.4435 81.3333 56.5528 81.2607 56.5528 81.1719C56.5528 81.0831 56.7708 81.0104 57.0373 81.0104C57.3037 81.0104 57.5217 80.9378 57.5217 80.849C57.5217 80.7602 57.8851 80.6875 58.3292 80.6875C58.7733 80.6875 59.1366 80.7602 59.1366 80.849Z" fill="black"/>
</svg>
