<svg width="50" height="50" viewBox="0 0 107 107" fill="none" xmlns="http://www.w3.org/2000/svg">
<path d="M89.9762 2.05261C92.0847 2.0652 94.0013 3.29885 94.8667 5.18079C95.7636 7.06903 95.5118 9.30344 94.2184 10.9368L89.8629 16.4567L94.2341 21.9892C95.5244 23.6257 95.7794 25.857 94.9013 27.7106C94.0201 29.6303 92.1004 30.8639 89.9762 30.8734H62.6125V38.5207C64.4504 39.0085 66.1278 40.132 67.4275 41.844L103.578 99.2559C103.885 99.7458 104.055 100.309 104.071 100.887C104.088 101.465 103.949 102.037 103.669 102.543C103.39 103.049 102.98 103.472 102.483 103.766C101.985 104.061 101.418 104.217 100.84 104.219H5.14718C4.58382 104.218 4.03042 104.07 3.54153 103.79C3.05264 103.51 2.64516 103.108 2.35924 102.622C2.07333 102.137 1.91887 101.585 1.91108 101.022C1.90329 100.459 2.04245 99.9032 2.31483 99.4101L18.2641 70.7026C18.5268 70.2309 18.9032 69.8322 19.3591 69.5429C19.815 69.2536 20.3359 69.0827 20.8746 69.0458C21.4132 69.0089 21.9526 69.1072 22.4437 69.3317C22.9347 69.5561 23.3619 69.8997 23.6865 70.3312L30.1128 78.9007L36.1111 69.3777C36.174 69.2612 36.2464 69.1479 36.3251 69.0378L53.6119 41.5954C54.3074 40.6891 55.1665 39.9432 56.1296 39.3862V5.29408C56.1296 3.50655 57.5803 2.05261 59.371 2.05261H89.9762ZM62.6093 24.3967H87.8802L84.2894 19.8492C83.5308 18.8796 83.1192 17.6836 83.1203 16.4525C83.1215 15.2213 83.5353 14.0261 84.2957 13.0579L87.8645 8.53241H62.6093V24.3936V24.3967ZM59.7235 44.8212C59.4191 44.9051 59.1423 45.068 58.921 45.2932L43.2014 70.262L51.0376 76.8456C51.4373 77.1855 52.0352 77.1603 52.4034 76.7921L55.1382 74.0542C55.8337 73.3586 56.6595 72.8068 57.5682 72.4304C58.477 72.0539 59.4511 71.8602 60.4347 71.8602C61.4184 71.8602 62.3924 72.0539 63.3012 72.4304C64.21 72.8068 65.0357 73.3586 65.7312 74.0542L68.4597 76.7921C68.6416 76.9728 68.8851 77.078 69.1413 77.0867C69.3974 77.0955 69.6475 77.0071 69.8413 76.8393L77.6712 70.2588L62.1184 45.5418C61.9024 45.2602 61.6193 45.0372 61.295 44.8932C60.9706 44.7492 60.6154 44.6887 60.2616 44.7173C60.0867 44.768 59.9077 44.8038 59.7266 44.8243L59.7235 44.8212ZM74.0174 81.7897C72.5828 83.0048 70.7437 83.636 68.8652 83.5579C66.9868 83.4798 65.2064 82.698 63.8776 81.368L61.1491 78.6363C60.9591 78.4466 60.7016 78.3401 60.4331 78.3401C60.1647 78.3401 59.9072 78.4466 59.7172 78.6363L56.9855 81.3711C55.6578 82.6981 53.8802 83.4782 52.0047 83.5568C50.1292 83.6355 48.2925 83.0071 46.8583 81.796L39.7145 75.7945L33.1434 86.2365C33.1057 86.2994 33.0679 86.3624 33.0238 86.4253L25.8989 97.7421H94.9706L81.155 75.7914L74.0174 81.7897ZM26.4182 84.7668L21.5025 78.2146L10.6514 97.7421H18.2452L26.4182 84.7668Z" fill="black"/>
</svg>
