<svg width="50" height="50" viewBox="0 0 102 106" fill="none" xmlns="http://www.w3.org/2000/svg">
<g clip-path="url(#clip0)">
<path d="M92.944 59.556C93.8037 59.556 94.5 58.8597 94.5 58V2.41483C94.5 1.55516 93.8037 0.858856 92.944 0.858856L19.9315 0C14.4986 0 10.0781 4.42044 10.0781 9.85339V96.1466C10.0781 101.58 14.4986 106 19.9315 106L92.944 106.859C93.8037 106.859 94.5 106.163 94.5 105.303V67C94.5 66.1411 93.8037 65.4448 92.944 65.4448C92.0852 65.4448 91.3881 66.1411 91.3881 67V87.1521L26.4659 86.2932V3.11194L91.3881 3.97079V58C91.3881 58.8597 92.0852 59.556 92.944 59.556ZM91.3881 103.747L19.9315 102.888C16.2139 102.888 13.1901 99.8643 13.1901 96.1466C13.1901 92.4297 16.2139 89.4052 19.9315 89.4052H64.8411V97.8061C64.8411 99.024 66.2442 99.7785 67.26 99.1008L71.3755 96.3569L75.4911 99.1008C76.5077 99.7785 77.91 99.0224 77.91 97.8061V89.4052L91.3881 90.264V103.747ZM74.798 89.4052V94.8996L72.2384 93.1924C71.9772 93.0185 71.6764 92.9312 71.3755 92.9312C71.0747 92.9312 70.7739 93.0185 70.5126 93.1924L67.9531 94.8996V89.4052H74.798ZM23.354 86.2932H19.9315C17.325 86.2932 14.9539 87.313 13.1901 88.9709V9.85339C13.1901 6.13573 16.2139 3.11194 19.9315 3.11194H23.354V86.2932Z" fill="black"/>
<path d="M83.6119 18.1508C83.6119 17.2912 82.9148 16.5948 82.056 16.5948C79.2538 16.5948 76.974 14.3151 76.974 11.5129C76.974 10.6532 76.2769 9.95691 75.418 9.95691H41.5048C40.6452 9.95691 39.9489 10.6532 39.9489 11.5129C39.9489 14.3151 37.6691 16.5948 34.8669 16.5948C34.0072 16.5948 33.3109 17.2912 33.3109 18.1508V54.6595C33.3109 55.5183 34.0072 56.2155 34.8669 56.2155C37.6691 56.2155 39.9489 58.4952 39.9489 61.2974C39.9489 62.1563 40.6452 62.8534 41.5048 62.8534H75.418C76.2769 62.8534 76.974 62.1563 76.974 61.2974C76.974 58.4952 79.2538 56.2155 82.056 56.2155C82.9148 56.2155 83.6119 55.5183 83.6119 54.6595V18.1508ZM80.5 53.2515C77.2279 53.8831 74.6417 56.4694 74.0101 59.7415H42.9128C42.2804 56.4694 39.6949 53.8831 36.4229 53.2515V19.558C39.6949 18.9264 42.2804 16.3409 42.9128 13.0688H74.0109C74.6425 16.3409 77.2279 18.9264 80.5008 19.558L80.5 53.2515Z" fill="black"/>
<path d="M80.944 68.0388H33.2073C32.3477 68.0388 31.6514 68.7359 31.6514 69.5948C31.6514 70.4545 32.3477 71.1508 33.2073 71.1508H80.944C81.8029 71.1508 82.5 70.4545 82.5 69.5948C82.5 68.7359 81.8029 68.0388 80.944 68.0388Z" fill="black"/>
<path d="M33.2073 76.3363C32.3477 76.3363 31.6514 77.0334 31.6514 77.8923C31.6514 78.7519 32.3477 79.4482 33.2073 79.4482H46.4832C47.3421 79.4482 48.0392 78.7519 48.0392 77.8923C48.0392 77.0334 47.3421 76.3363 46.4832 76.3363H33.2073Z" fill="black"/>
<path d="M80.7888 76H57.556C56.6972 76 56.0001 76.6971 56.0001 77.556C56.0001 78.4156 56.6972 79.1119 57.556 79.1119H80.7888C81.6477 79.1119 82.3448 78.4156 82.3448 77.556C82.3448 76.6971 81.6477 76 80.7888 76Z" fill="black"/>
</g>
<defs>
<clipPath id="clip0">
<rect x="-4" width="106" height="106" fill="white"/>
</clipPath>
</defs>
</svg>
