<svg width="107" height="107" viewBox="0 0 107 107" fill="none" xmlns="http://www.w3.org/2000/svg">
<path fill-rule="evenodd" clip-rule="evenodd" d="M15.93 0.13375C15.93 0.208115 15.57 0.2675 15.12 0.2675C14.67 0.2675 14.31 0.326886 14.31 0.401251C14.31 0.474813 14.067 0.535 13.77 0.535C13.473 0.535 13.23 0.595187 13.23 0.66875C13.23 0.742312 13.0477 0.8025 12.825 0.8025C12.6022 0.8025 12.42 0.862687 12.42 0.93625C12.42 1.00981 12.2377 1.07 12.015 1.07C11.7922 1.07 11.61 1.13019 11.61 1.20375C11.61 1.27731 11.4278 1.3375 11.205 1.3375C10.9823 1.3375 10.8 1.39769 10.8 1.47125C10.8 1.54481 10.6785 1.605 10.53 1.605C10.3815 1.605 10.26 1.66519 10.26 1.73875C10.26 1.81231 10.1385 1.8725 9.99 1.8725C9.8415 1.8725 9.72 1.93269 9.72 2.00625C9.72 2.07981 9.61186 2.14 9.47983 2.14C9.34767 2.14 9.15206 2.26037 9.045 2.4075C8.93795 2.55462 8.74233 2.675 8.61017 2.675C8.47814 2.675 8.37 2.73519 8.37 2.80875C8.37 2.88231 8.27294 2.9425 8.15414 2.9425C8.03547 2.9425 7.76804 3.12306 7.56 3.34375C7.35197 3.56444 7.11423 3.745 7.03188 3.745C6.82128 3.745 3.78 6.78072 3.78 6.99098C3.78 7.08581 3.6585 7.25019 3.51 7.35625C3.3615 7.46231 3.24 7.64287 3.24 7.7575C3.24 7.87212 3.1185 8.05269 2.97 8.15875C2.8215 8.26481 2.7 8.44538 2.7 8.56C2.7 8.67462 2.5785 8.85519 2.43 8.96125C2.2815 9.06731 2.16 9.26112 2.16 9.39206C2.16 9.52286 2.09925 9.63 2.025 9.63C1.95075 9.63 1.89 9.75038 1.89 9.8975C1.89 10.0446 1.82925 10.165 1.755 10.165C1.68075 10.165 1.62 10.2854 1.62 10.4325C1.62 10.5796 1.55925 10.7 1.485 10.7C1.41075 10.7 1.35 10.8806 1.35 11.1012C1.35 11.3219 1.28925 11.5025 1.215 11.5025C1.14075 11.5025 1.08 11.6831 1.08 11.9037C1.08 12.1244 1.01925 12.305 0.945001 12.305C0.870751 12.305 0.81 12.4856 0.81 12.7063C0.81 12.9269 0.74925 13.1075 0.675 13.1075C0.60075 13.1075 0.539999 13.3483 0.539999 13.6425C0.539999 13.9368 0.47925 14.1775 0.405 14.1775C0.32994 14.1775 0.269999 14.5342 0.269999 14.98C0.269999 15.4258 0.210061 15.7825 0.135001 15.7825C0.0453607 15.7825 0 29.3358 0 56.175C0 83.0142 0.0453607 96.5675 0.135001 96.5675C0.209251 96.5675 0.269999 96.8684 0.269999 97.2362C0.269999 97.6041 0.33075 97.905 0.405 97.905C0.47925 97.905 0.539999 98.1457 0.539999 98.44C0.539999 98.7342 0.60075 98.975 0.675 98.975C0.74925 98.975 0.81 99.0954 0.81 99.2425C0.81 99.3896 0.870751 99.51 0.945001 99.51C1.01925 99.51 1.08 99.6304 1.08 99.7775C1.08 99.9246 1.14075 100.045 1.215 100.045C1.28925 100.045 1.35 100.165 1.35 100.312C1.35 100.46 1.41075 100.58 1.485 100.58C1.55925 100.58 1.62 100.7 1.62 100.847C1.62 100.995 1.68075 101.115 1.755 101.115C1.82925 101.115 1.89 101.222 1.89 101.353C1.89 101.484 2.0115 101.678 2.16 101.784C2.3085 101.89 2.43 102.054 2.43 102.15C2.43 102.375 4.66803 104.592 4.89577 104.592C4.99176 104.592 5.15794 104.713 5.265 104.86C5.37205 105.007 5.56767 105.127 5.69983 105.127C5.83186 105.127 5.94 105.188 5.94 105.261C5.94 105.335 6.0615 105.395 6.21 105.395C6.3585 105.395 6.48 105.455 6.48 105.529C6.48 105.602 6.6015 105.662 6.75 105.662C6.8985 105.662 7.02 105.723 7.02 105.796C7.02 105.87 7.1415 105.93 7.29 105.93C7.4385 105.93 7.56 105.99 7.56 106.064C7.56 106.137 7.6815 106.197 7.83 106.197C7.9785 106.197 8.1 106.258 8.1 106.331C8.1 106.405 8.343 106.465 8.64 106.465C8.937 106.465 9.18 106.525 9.18 106.599C9.18 106.672 9.48375 106.732 9.855 106.732C10.2262 106.732 10.53 106.793 10.53 106.866C10.53 106.955 22.95 107 47.52 107C72.09 107 84.51 106.955 84.51 106.866C84.51 106.793 84.6315 106.732 84.78 106.732C84.9285 106.732 85.05 106.672 85.05 106.599C85.05 106.525 85.1454 106.465 85.2621 106.465C85.5349 106.465 85.86 106.143 85.86 105.873C85.86 105.757 85.9207 105.662 85.995 105.662C86.0692 105.662 86.13 105.542 86.13 105.395C86.13 105.248 86.1907 105.127 86.265 105.127C86.3401 105.127 86.4 104.771 86.4 104.325C86.4 103.879 86.3401 103.522 86.265 103.522C86.1907 103.522 86.13 103.402 86.13 103.255C86.13 103.108 86.0692 102.987 85.995 102.987C85.9207 102.987 85.86 102.893 85.86 102.777C85.86 102.507 85.5349 102.185 85.2621 102.185C85.1454 102.185 85.05 102.125 85.05 102.051C85.05 101.978 84.9285 101.918 84.78 101.918C84.6315 101.918 84.51 101.857 84.51 101.784C84.51 101.701 83.835 101.65 82.755 101.65H81V94.9625V88.275H82.755C83.835 88.275 84.51 88.2235 84.51 88.1412C84.51 88.0677 84.6315 88.0075 84.78 88.0075C84.9285 88.0075 85.05 87.9473 85.05 87.8737C85.05 87.8002 85.1454 87.74 85.2621 87.74C85.5349 87.74 85.86 87.4179 85.86 87.1476C85.86 87.0321 85.9207 86.9375 85.995 86.9375C86.0692 86.9375 86.13 86.8171 86.13 86.67C86.13 86.5229 86.1907 86.4025 86.265 86.4025C86.3548 86.4025 86.4 72.225 86.4 44.1375C86.4 16.05 86.3548 1.8725 86.265 1.8725C86.1907 1.8725 86.13 1.75213 86.13 1.605C86.13 1.45788 86.0692 1.3375 85.995 1.3375C85.9207 1.3375 85.86 1.24294 85.86 1.12738C85.86 0.857071 85.5349 0.535 85.2621 0.535C85.1454 0.535 85.05 0.474813 85.05 0.401251C85.05 0.327688 84.9285 0.2675 84.78 0.2675C84.6315 0.2675 84.51 0.207312 84.51 0.13375C84.51 0.0449399 72.99 0 50.22 0C27.45 0 15.93 0.0449399 15.93 0.13375ZM73.6428 12.6391L81 19.9281V44.1375V68.3469L73.6428 75.6359L66.2857 82.925H43.9428H21.6V44.1375V5.35H43.9428H66.2857L73.6428 12.6391ZM81 8.69375C81 10.5328 80.9694 12.0375 80.9318 12.0375C80.8427 12.0375 74.25 5.50582 74.25 5.41754C74.25 5.38036 75.7687 5.35 77.625 5.35H81V8.69375ZM16.2 44.2713V82.925H13.23C11.34 82.925 10.26 82.9737 10.26 83.0587C10.26 83.1323 9.95625 83.1925 9.585 83.1925C9.21375 83.1925 8.91 83.2527 8.91 83.3262C8.91 83.3998 8.72775 83.46 8.505 83.46C8.28225 83.46 8.1 83.5202 8.1 83.5938C8.1 83.6673 7.9785 83.7275 7.83 83.7275C7.6815 83.7275 7.56 83.7877 7.56 83.8613C7.56 83.9348 7.39112 83.995 7.18484 83.995C6.96452 83.995 6.72934 84.1055 6.615 84.2625C6.50794 84.4096 6.31233 84.53 6.18017 84.53C6.04814 84.53 5.94 84.5902 5.94 84.6637C5.94 84.7373 5.8185 84.7975 5.67 84.7975C5.40068 84.7975 5.4 84.7083 5.4 50.4238C5.4 27.597 5.44536 16.05 5.535 16.05C5.60925 16.05 5.67 15.7491 5.67 15.3812C5.67 15.0134 5.73075 14.7125 5.805 14.7125C5.87925 14.7125 5.94 14.5319 5.94 14.3112C5.94 14.0906 6.00075 13.91 6.075 13.91C6.14925 13.91 6.21 13.7294 6.21 13.5087C6.21 13.2881 6.27075 13.1075 6.345 13.1075C6.41925 13.1075 6.48 12.9871 6.48 12.84C6.48 12.6929 6.54075 12.5725 6.615 12.5725C6.68925 12.5725 6.75 12.4521 6.75 12.305C6.75 12.1579 6.81075 12.0375 6.885 12.0375C6.95925 12.0375 7.02 11.9304 7.02 11.7996C7.02 11.6686 7.1415 11.4748 7.29 11.3687C7.4385 11.2627 7.56 11.0821 7.56 10.9675C7.56 10.8529 7.6815 10.6723 7.83 10.5662C7.9785 10.4602 8.1 10.2955 8.1 10.2002C8.1 9.97427 10.0675 8.025 10.2955 8.025C10.3918 8.025 10.5579 7.90462 10.665 7.7575C10.7721 7.61037 10.9543 7.49 11.07 7.49C11.1857 7.49 11.3679 7.36963 11.475 7.2225C11.5821 7.07538 11.7777 6.955 11.9098 6.955C12.0419 6.955 12.15 6.89481 12.15 6.82125C12.15 6.74769 12.2715 6.6875 12.42 6.6875C12.5685 6.6875 12.69 6.62731 12.69 6.55375C12.69 6.48019 12.8115 6.42 12.96 6.42C13.1085 6.42 13.23 6.35981 13.23 6.28625C13.23 6.21269 13.4123 6.1525 13.635 6.1525C13.8578 6.1525 14.04 6.09231 14.04 6.01875C14.04 5.94519 14.2222 5.885 14.445 5.885C14.6677 5.885 14.85 5.82481 14.85 5.75125C14.85 5.67769 15.1537 5.6175 15.525 5.6175H16.2V44.2713ZM47.79 14.8462C47.79 14.9198 47.6962 14.98 47.5814 14.98C47.3113 14.98 46.71 15.5757 46.71 15.8434C46.71 15.957 46.6492 16.05 46.575 16.05C46.5007 16.05 46.44 16.1704 46.44 16.3175C46.44 16.4646 46.3793 16.585 46.305 16.585C46.2308 16.585 46.17 16.7656 46.17 16.9863C46.17 17.2069 46.1093 17.3875 46.035 17.3875C45.9608 17.3875 45.9 17.5681 45.9 17.7887C45.9 18.0094 45.8392 18.19 45.765 18.19C45.6907 18.19 45.63 18.3706 45.63 18.5913C45.63 18.8119 45.5692 18.9925 45.495 18.9925C45.4207 18.9925 45.36 19.1731 45.36 19.3938C45.36 19.6144 45.2992 19.795 45.225 19.795C45.1507 19.795 45.09 19.9756 45.09 20.1963C45.09 20.4169 45.0292 20.5975 44.955 20.5975C44.8807 20.5975 44.82 20.8382 44.82 21.1325C44.82 21.4267 44.7593 21.6675 44.685 21.6675C44.6108 21.6675 44.55 21.8481 44.55 22.0687C44.55 22.2894 44.4893 22.47 44.415 22.47C44.3408 22.47 44.28 22.6506 44.28 22.8713C44.28 23.0919 44.2193 23.2725 44.145 23.2725C44.0708 23.2725 44.01 23.4531 44.01 23.6737C44.01 23.8944 43.9493 24.075 43.875 24.075C43.8007 24.075 43.74 24.2556 43.74 24.4763C43.74 24.6969 43.6793 24.8775 43.605 24.8775C43.5308 24.8775 43.47 25.0581 43.47 25.2787C43.47 25.4994 43.4093 25.68 43.335 25.68C43.2608 25.68 43.2 25.7746 43.2 25.8901C43.2 26.4737 43.1105 26.4825 37.2021 26.4825C33.5507 26.4825 31.59 26.5292 31.59 26.6163C31.59 26.6898 31.4973 26.75 31.384 26.75C31.2706 26.75 30.9061 27.0192 30.574 27.3484L29.97 27.9467V29.0871C29.97 29.7582 30.0256 30.2275 30.105 30.2275C30.1792 30.2275 30.24 30.3205 30.24 30.4341C30.24 30.6742 30.83 31.2975 31.0572 31.2975C31.1422 31.2975 31.382 31.4781 31.59 31.6987C31.798 31.9194 32.0521 32.1 32.1543 32.1C32.2566 32.1 32.4279 32.2204 32.535 32.3675C32.6421 32.5146 32.8134 32.635 32.9157 32.635C33.0179 32.635 33.272 32.8156 33.48 33.0363C33.688 33.2569 33.931 33.4375 34.02 33.4375C34.109 33.4375 34.352 33.6181 34.56 33.8388C34.768 34.0594 35.0221 34.24 35.1243 34.24C35.2266 34.24 35.3979 34.3604 35.505 34.5075C35.6121 34.6546 35.7834 34.775 35.8857 34.775C35.9879 34.775 36.242 34.9556 36.45 35.1763C36.658 35.3969 36.9121 35.5775 37.0143 35.5775C37.1166 35.5775 37.2879 35.6979 37.395 35.845C37.5021 35.9921 37.6734 36.1125 37.7757 36.1125C37.8779 36.1125 38.132 36.2931 38.34 36.5138C38.548 36.7344 38.7894 36.915 38.8764 36.915C39.146 36.915 39.42 37.2811 39.42 37.6411C39.42 37.8303 39.3592 37.985 39.285 37.985C39.2107 37.985 39.15 38.1656 39.15 38.3863C39.15 38.6069 39.0893 38.7875 39.015 38.7875C38.9408 38.7875 38.88 38.9681 38.88 39.1888C38.88 39.4094 38.8193 39.59 38.745 39.59C38.6708 39.59 38.61 39.7706 38.61 39.9913C38.61 40.2119 38.5493 40.3925 38.475 40.3925C38.4008 40.3925 38.34 40.5731 38.34 40.7938C38.34 41.0144 38.2793 41.195 38.205 41.195C38.1308 41.195 38.07 41.3756 38.07 41.5963C38.07 41.8169 38.0093 41.9975 37.935 41.9975C37.8608 41.9975 37.8 42.2383 37.8 42.5325C37.8 42.8268 37.7392 43.0675 37.665 43.0675C37.5907 43.0675 37.53 43.2481 37.53 43.4688C37.53 43.6894 37.4692 43.87 37.395 43.87C37.3207 43.87 37.26 44.0506 37.26 44.2713C37.26 44.4919 37.1993 44.6725 37.125 44.6725C37.0508 44.6725 36.99 44.8531 36.99 45.0738C36.99 45.2944 36.9293 45.475 36.855 45.475C36.7808 45.475 36.72 45.6556 36.72 45.8763C36.72 46.0969 36.6592 46.2775 36.585 46.2775C36.5107 46.2775 36.45 46.4581 36.45 46.6787C36.45 46.8994 36.3892 47.08 36.315 47.08C36.2363 47.08 36.18 47.5258 36.18 48.15C36.18 48.7742 36.2363 49.22 36.315 49.22C36.3892 49.22 36.45 49.313 36.45 49.4267C36.45 49.6943 37.0513 50.29 37.3214 50.29C37.4362 50.29 37.53 50.3502 37.53 50.4238C37.53 50.4973 37.6515 50.5575 37.8 50.5575C37.9485 50.5575 38.07 50.6177 38.07 50.6912C38.07 50.7656 38.43 50.825 38.88 50.825C39.33 50.825 39.69 50.7656 39.69 50.6912C39.69 50.6177 39.7981 50.5575 39.9302 50.5575C40.0623 50.5575 40.258 50.4371 40.365 50.29C40.4721 50.1429 40.6434 50.0225 40.7457 50.0225C40.8479 50.0225 41.102 49.8419 41.31 49.6213C41.518 49.4006 41.7721 49.22 41.8743 49.22C41.9766 49.22 42.1479 49.0996 42.255 48.9525C42.3621 48.8054 42.5334 48.685 42.6357 48.685C42.7379 48.685 42.992 48.5044 43.2 48.2837C43.408 48.0631 43.651 47.8825 43.74 47.8825C43.829 47.8825 44.072 47.7019 44.28 47.4813C44.488 47.2606 44.7421 47.08 44.8443 47.08C44.9466 47.08 45.1179 46.9596 45.225 46.8125C45.3321 46.6654 45.5034 46.545 45.6057 46.545C45.7079 46.545 45.962 46.3644 46.17 46.1438C46.378 45.9231 46.6321 45.7425 46.7343 45.7425C46.8366 45.7425 47.0079 45.6221 47.115 45.475C47.2221 45.3279 47.3934 45.2075 47.4957 45.2075C47.5979 45.2075 47.852 45.0269 48.06 44.8063C48.268 44.5856 48.5303 44.405 48.6429 44.405C48.7554 44.405 48.8747 44.3298 48.9081 44.2378C48.9491 44.1244 49.0556 44.1675 49.239 44.3716C49.3876 44.5371 49.584 44.6725 49.6754 44.6725C49.7668 44.6725 50.012 44.8531 50.22 45.0738C50.428 45.2944 50.671 45.475 50.76 45.475C50.849 45.475 51.092 45.6556 51.3 45.8763C51.508 46.0969 51.7621 46.2775 51.8643 46.2775C51.9666 46.2775 52.1379 46.3979 52.245 46.545C52.3521 46.6921 52.5234 46.8125 52.6257 46.8125C52.7279 46.8125 52.982 46.9931 53.19 47.2138C53.398 47.4344 53.641 47.615 53.73 47.615C53.819 47.615 54.062 47.7956 54.27 48.0163C54.478 48.2369 54.7321 48.4175 54.8343 48.4175C54.9366 48.4175 55.1079 48.5379 55.215 48.685C55.3221 48.8321 55.4934 48.9525 55.5957 48.9525C55.6979 48.9525 55.952 49.1331 56.16 49.3538C56.368 49.5744 56.6221 49.755 56.7243 49.755C56.8266 49.755 56.9979 49.8754 57.105 50.0225C57.2121 50.1696 57.4077 50.29 57.5398 50.29C57.6719 50.29 57.78 50.3502 57.78 50.4238C57.78 50.4973 57.9015 50.5575 58.05 50.5575C58.1985 50.5575 58.32 50.6177 58.32 50.6912C58.32 50.7656 58.68 50.825 59.13 50.825C59.58 50.825 59.94 50.7656 59.94 50.6912C59.94 50.6177 60.0328 50.5575 60.146 50.5575C60.4942 50.5575 61.56 49.4007 61.56 49.0229C61.56 48.8371 61.6208 48.685 61.695 48.685C61.7693 48.685 61.83 48.4443 61.83 48.15C61.83 47.8558 61.7693 47.615 61.695 47.615C61.6208 47.615 61.56 47.4344 61.56 47.2138C61.56 46.9931 61.4993 46.8125 61.425 46.8125C61.3508 46.8125 61.29 46.5718 61.29 46.2775C61.29 45.9833 61.2293 45.7425 61.155 45.7425C61.0808 45.7425 61.02 45.5619 61.02 45.3413C61.02 45.1206 60.9593 44.94 60.885 44.94C60.8108 44.94 60.75 44.7594 60.75 44.5388C60.75 44.3181 60.6892 44.1375 60.615 44.1375C60.5407 44.1375 60.48 43.9569 60.48 43.7363C60.48 43.5156 60.4192 43.335 60.345 43.335C60.2707 43.335 60.21 43.1544 60.21 42.9338C60.21 42.7131 60.1493 42.5325 60.075 42.5325C60.0008 42.5325 59.94 42.3519 59.94 42.1313C59.94 41.9106 59.8793 41.73 59.805 41.73C59.7308 41.73 59.67 41.5494 59.67 41.3288C59.67 41.1081 59.6093 40.9275 59.535 40.9275C59.4608 40.9275 59.4 40.7469 59.4 40.5263C59.4 40.3056 59.3393 40.125 59.265 40.125C59.1908 40.125 59.13 39.9444 59.13 39.7238C59.13 39.5031 59.0693 39.3225 58.995 39.3225C58.9208 39.3225 58.86 39.1419 58.86 38.9213C58.86 38.7006 58.7993 38.52 58.725 38.52C58.6508 38.52 58.59 38.3394 58.59 38.1188C58.59 37.8981 58.5293 37.7175 58.455 37.7175C58.3808 37.7175 58.32 37.5971 58.32 37.45C58.32 37.2827 58.4101 37.1825 58.5602 37.1825C58.6923 37.1825 58.888 37.0621 58.995 36.915C59.1021 36.7679 59.2734 36.6475 59.3757 36.6475C59.4779 36.6475 59.732 36.4669 59.94 36.2463C60.148 36.0256 60.391 35.845 60.48 35.845C60.569 35.845 60.812 35.6644 61.02 35.4438C61.228 35.2231 61.4821 35.0425 61.5843 35.0425C61.6866 35.0425 61.8579 34.9221 61.965 34.775C62.0721 34.6279 62.2434 34.5075 62.3457 34.5075C62.4479 34.5075 62.702 34.3269 62.91 34.1063C63.118 33.8856 63.361 33.705 63.45 33.705C63.539 33.705 63.782 33.5244 63.99 33.3038C64.198 33.0831 64.4521 32.9025 64.5543 32.9025C64.6566 32.9025 64.828 32.7821 64.935 32.635C65.0421 32.4879 65.2134 32.3675 65.3157 32.3675C65.4179 32.3675 65.672 32.1869 65.88 31.9663C66.088 31.7456 66.3267 31.565 66.4103 31.565C66.7166 31.565 67.77 30.3761 67.77 30.0304C67.77 29.8446 67.8308 29.6925 67.905 29.6925C67.9793 29.6925 68.04 29.3916 68.04 29.0237C68.04 28.6559 67.9793 28.355 67.905 28.355C67.8308 28.355 67.77 28.2346 67.77 28.0875C67.77 27.9404 67.7093 27.82 67.635 27.82C67.5608 27.82 67.5 27.727 67.5 27.6134C67.5 27.3457 66.8987 26.75 66.6286 26.75C66.5138 26.75 66.42 26.6898 66.42 26.6163C66.42 26.5292 64.4143 26.4825 60.6729 26.4825C54.4427 26.4825 54.54 26.494 54.54 25.7564C54.54 25.5673 54.4793 25.4125 54.405 25.4125C54.3308 25.4125 54.27 25.1718 54.27 24.8775C54.27 24.5833 54.2093 24.3425 54.135 24.3425C54.0608 24.3425 54 24.1619 54 23.9413C54 23.7206 53.9393 23.54 53.865 23.54C53.7908 23.54 53.73 23.3594 53.73 23.1388C53.73 22.9181 53.6693 22.7375 53.595 22.7375C53.5208 22.7375 53.46 22.5569 53.46 22.3363C53.46 22.1156 53.3993 21.935 53.325 21.935C53.2508 21.935 53.19 21.7544 53.19 21.5338C53.19 21.3131 53.1293 21.1325 53.055 21.1325C52.9808 21.1325 52.92 20.9519 52.92 20.7313C52.92 20.5106 52.8593 20.33 52.785 20.33C52.7108 20.33 52.65 20.1494 52.65 19.9288C52.65 19.7081 52.5893 19.5275 52.515 19.5275C52.4408 19.5275 52.38 19.3469 52.38 19.1262C52.38 18.9056 52.3193 18.725 52.245 18.725C52.1708 18.725 52.11 18.5444 52.11 18.3237C52.11 18.1031 52.0493 17.9225 51.975 17.9225C51.9008 17.9225 51.84 17.7419 51.84 17.5212C51.84 17.3006 51.7793 17.12 51.705 17.12C51.6308 17.12 51.57 16.9394 51.57 16.7188C51.57 16.4981 51.5092 16.3175 51.435 16.3175C51.3607 16.3175 51.3 16.2252 51.3 16.1125C51.3 15.8462 50.4257 14.98 50.157 14.98C50.0432 14.98 49.95 14.9198 49.95 14.8462C49.95 14.7683 49.5 14.7125 48.87 14.7125C48.24 14.7125 47.79 14.7683 47.79 14.8462ZM93.69 24.2087C93.69 24.2823 93.5685 24.3425 93.42 24.3425C93.2715 24.3425 93.15 24.4027 93.15 24.4763C93.15 24.5498 93.0546 24.61 92.9379 24.61C92.8212 24.61 92.6389 24.696 92.5329 24.8011C92.4268 24.9061 92.34 25.0867 92.34 25.2024C92.34 25.3179 92.2793 25.4125 92.205 25.4125C92.1308 25.4125 92.07 25.5329 92.07 25.68C92.07 25.8271 92.0093 25.9475 91.935 25.9475C91.8599 25.9475 91.8 26.3042 91.8 26.75C91.8 27.1958 91.8599 27.5525 91.935 27.5525C92.0093 27.5525 92.07 27.6729 92.07 27.82C92.07 27.9671 92.1308 28.0875 92.205 28.0875C92.2793 28.0875 92.34 28.1821 92.34 28.2976C92.34 28.5679 92.6651 28.89 92.9379 28.89C93.0546 28.89 93.15 28.9502 93.15 29.0237C93.15 29.0973 93.2715 29.1575 93.42 29.1575C93.5685 29.1575 93.69 29.2177 93.69 29.2913C93.69 29.3656 94.05 29.425 94.5 29.425C94.95 29.425 95.31 29.3656 95.31 29.2913C95.31 29.2177 95.4315 29.1575 95.58 29.1575C95.7285 29.1575 95.85 29.0973 95.85 29.0237C95.85 28.9502 95.9454 28.89 96.0621 28.89C96.3349 28.89 96.66 28.5679 96.66 28.2976C96.66 28.1821 96.7207 28.0875 96.795 28.0875C96.8692 28.0875 96.93 27.9671 96.93 27.82C96.93 27.6729 96.9908 27.5525 97.065 27.5525C97.1401 27.5525 97.2 27.1958 97.2 26.75C97.2 26.3042 97.1401 25.9475 97.065 25.9475C96.9908 25.9475 96.93 25.8271 96.93 25.68C96.93 25.5329 96.8692 25.4125 96.795 25.4125C96.7207 25.4125 96.66 25.3179 96.66 25.2024C96.66 24.9321 96.3349 24.61 96.0621 24.61C95.9454 24.61 95.85 24.5498 95.85 24.4763C95.85 24.4027 95.7285 24.3425 95.58 24.3425C95.4315 24.3425 95.31 24.2823 95.31 24.2087C95.31 24.1344 94.95 24.075 94.5 24.075C94.05 24.075 93.69 24.1344 93.69 24.2087ZM49.14 26.6163C49.14 26.8369 49.2008 27.0175 49.275 27.0175C49.3493 27.0175 49.41 27.1981 49.41 27.4188C49.41 27.6394 49.4708 27.82 49.545 27.82C49.6193 27.82 49.68 28.0006 49.68 28.2213C49.68 28.4419 49.7408 28.6225 49.815 28.6225C49.8893 28.6225 49.95 28.8031 49.95 29.0237C49.95 29.2444 50.0108 29.425 50.085 29.425C50.1593 29.425 50.22 29.6056 50.22 29.8262C50.22 30.0469 50.2807 30.2275 50.355 30.2275C50.4292 30.2275 50.49 30.3205 50.49 30.4341C50.49 30.7018 51.0913 31.2975 51.3614 31.2975C51.4762 31.2975 51.57 31.3577 51.57 31.4313C51.57 31.5048 51.7523 31.565 51.975 31.565C52.1978 31.565 52.38 31.6252 52.38 31.6987C52.38 31.7823 53.19 31.8325 54.54 31.8325C55.728 31.8325 56.7 31.8669 56.7 31.9089C56.7 32.0552 56.3131 32.3675 56.1319 32.3675C56.0316 32.3675 55.8621 32.4879 55.755 32.635C55.6479 32.7821 55.4766 32.9025 55.3743 32.9025C55.2721 32.9025 55.018 33.0831 54.81 33.3038C54.602 33.5244 54.3633 33.705 54.2797 33.705C54.0518 33.705 52.92 34.871 52.92 35.1059C52.92 35.2181 52.8593 35.31 52.785 35.31C52.7108 35.31 52.65 35.4906 52.65 35.7113C52.65 35.9319 52.5893 36.1125 52.515 36.1125C52.4408 36.1125 52.38 36.2329 52.38 36.38C52.38 36.5271 52.4408 36.6475 52.515 36.6475C52.5893 36.6475 52.65 36.8883 52.65 37.1825C52.65 37.4768 52.7108 37.7175 52.785 37.7175C52.8593 37.7175 52.92 37.8981 52.92 38.1188C52.92 38.3394 52.9808 38.52 53.055 38.52C53.1293 38.52 53.19 38.7006 53.19 38.9213C53.19 39.1419 53.2508 39.3225 53.325 39.3225C53.3993 39.3225 53.46 39.5031 53.46 39.7238C53.46 39.9444 53.5208 40.125 53.595 40.125C53.6693 40.125 53.73 40.3056 53.73 40.5263C53.73 40.9929 53.5988 41.0362 53.325 40.66C53.2179 40.5129 53.0357 40.3925 52.92 40.3925C52.8043 40.3925 52.6221 40.2721 52.515 40.125C52.4079 39.9779 52.2366 39.8575 52.1343 39.8575C52.0321 39.8575 51.778 39.6769 51.57 39.4562C51.362 39.2356 51.1079 39.055 51.0057 39.055C50.9034 39.055 50.7321 38.9346 50.625 38.7875C50.5179 38.6404 50.3223 38.52 50.1902 38.52C50.0581 38.52 49.95 38.4598 49.95 38.3863C49.95 38.1047 47.8688 38.226 47.655 38.52C47.5479 38.6671 47.3657 38.7875 47.25 38.7875C47.1343 38.7875 46.9521 38.9079 46.845 39.055C46.7379 39.2021 46.5666 39.3225 46.4643 39.3225C46.3621 39.3225 46.108 39.5031 45.9 39.7238C45.692 39.9444 45.4379 40.125 45.3357 40.125C45.2334 40.125 45.0621 40.2454 44.955 40.3925C44.8479 40.5396 44.6523 40.66 44.5202 40.66C44.3881 40.66 44.28 40.7202 44.28 40.7938C44.28 40.8673 44.2193 40.9275 44.145 40.9275C44.0708 40.9275 44.01 40.8071 44.01 40.66C44.01 40.5129 44.0708 40.3925 44.145 40.3925C44.2193 40.3925 44.28 40.2119 44.28 39.9913C44.28 39.7706 44.3408 39.59 44.415 39.59C44.4893 39.59 44.55 39.4094 44.55 39.1888C44.55 38.9681 44.6108 38.7875 44.685 38.7875C44.7593 38.7875 44.82 38.6069 44.82 38.3863C44.82 38.1656 44.8807 37.985 44.955 37.985C45.0292 37.985 45.09 37.8044 45.09 37.5838C45.09 37.3631 45.1507 37.1825 45.225 37.1825C45.3001 37.1825 45.36 36.8258 45.36 36.38C45.36 35.9342 45.3001 35.5775 45.225 35.5775C45.1507 35.5775 45.09 35.4571 45.09 35.31C45.09 35.1629 45.0292 35.0425 44.955 35.0425C44.8807 35.0425 44.82 34.9495 44.82 34.8359C44.82 34.5831 44.2248 33.9725 43.9784 33.9725C43.8801 33.9725 43.7121 33.8521 43.605 33.705C43.498 33.5579 43.3266 33.4375 43.2243 33.4375C43.1221 33.4375 42.868 33.2569 42.66 33.0363C42.452 32.8156 42.2122 32.635 42.1272 32.635C41.9729 32.635 41.31 32.0433 41.31 31.9054C41.31 31.8653 42.2213 31.8325 43.335 31.8325C44.595 31.8325 45.36 31.7819 45.36 31.6987C45.36 31.6252 45.5422 31.565 45.765 31.565C45.9877 31.565 46.17 31.5048 46.17 31.4313C46.17 31.3577 46.2632 31.2975 46.377 31.2975C46.7172 31.2975 47.52 30.4081 47.52 30.0313C47.52 29.845 47.5808 29.6925 47.655 29.6925C47.7293 29.6925 47.79 29.5119 47.79 29.2913C47.79 29.0706 47.8508 28.89 47.925 28.89C47.9993 28.89 48.06 28.7094 48.06 28.4888C48.06 28.2681 48.1208 28.0875 48.195 28.0875C48.2693 28.0875 48.33 27.9069 48.33 27.6862C48.33 27.4656 48.3908 27.285 48.465 27.285C48.5393 27.285 48.6 27.132 48.6 26.945C48.6 26.6152 48.8329 26.2304 49.0388 26.2201C49.0945 26.2173 49.14 26.3956 49.14 26.6163ZM95.93 42.9338C95.93 43.0073 95.687 43.0675 95.39 43.0675C95.093 43.0675 94.85 43.1277 94.85 43.2013C94.85 43.2748 94.6677 43.335 94.445 43.335C94.2222 43.335 94.04 43.3952 94.04 43.4688C94.04 43.5423 93.9185 43.6025 93.77 43.6025C93.6215 43.6025 93.5 43.6627 93.5 43.7363C93.5 43.8098 93.3785 43.87 93.23 43.87C93.0815 43.87 92.96 43.9302 92.96 44.0038C92.96 44.0773 92.8519 44.1375 92.7198 44.1375C92.5877 44.1375 92.3921 44.2579 92.285 44.405C92.1779 44.5521 92.0115 44.6725 91.9152 44.6725C91.6869 44.6725 89.99 46.3537 89.99 46.5799C89.99 46.6753 89.8685 46.8402 89.72 46.9463C89.5715 47.0523 89.45 47.2461 89.45 47.3771C89.45 47.5079 89.3892 47.615 89.315 47.615C89.2407 47.615 89.18 47.7354 89.18 47.8825C89.18 48.0296 89.1193 48.15 89.045 48.15C88.9708 48.15 88.91 48.2704 88.91 48.4175C88.91 48.5646 88.8493 48.685 88.775 48.685C88.7008 48.685 88.64 48.8656 88.64 49.0863C88.64 49.3069 88.5793 49.4875 88.505 49.4875C88.4308 49.4875 88.37 49.7283 88.37 50.0225C88.37 50.3168 88.3093 50.5575 88.235 50.5575C88.1525 50.5575 88.1 51.1817 88.1 52.1625C88.1 53.1433 88.1525 53.7675 88.235 53.7675C88.3093 53.7675 88.37 54.0083 88.37 54.3025C88.37 54.5968 88.4308 54.8375 88.505 54.8375C88.5793 54.8375 88.64 55.0181 88.64 55.2388C88.64 55.4594 88.7008 55.64 88.775 55.64C88.8493 55.64 88.91 55.7604 88.91 55.9075C88.91 56.0546 88.9708 56.175 89.045 56.175C89.1193 56.175 89.18 56.2954 89.18 56.4425C89.18 56.5896 89.2407 56.71 89.315 56.71C89.3892 56.71 89.45 56.8171 89.45 56.9479C89.45 57.0789 89.5715 57.2727 89.72 57.3787C89.8685 57.4848 89.99 57.6497 89.99 57.7451C89.99 57.9713 91.6869 59.6525 91.9152 59.6525C92.0115 59.6525 92.1779 59.7729 92.285 59.92C92.3921 60.0671 92.5877 60.1875 92.7198 60.1875C92.8519 60.1875 92.96 60.2477 92.96 60.3213C92.96 60.3948 93.0815 60.455 93.23 60.455C93.3785 60.455 93.5 60.5152 93.5 60.5887C93.5 60.6623 93.6215 60.7225 93.77 60.7225C93.9185 60.7225 94.04 60.7827 94.04 60.8563C94.04 60.9298 94.2222 60.99 94.445 60.99C94.6677 60.99 94.85 61.0502 94.85 61.1238C94.85 61.1973 95.093 61.2575 95.39 61.2575C95.687 61.2575 95.93 61.3177 95.93 61.3913C95.93 61.473 96.56 61.525 97.55 61.525C98.54 61.525 99.17 61.473 99.17 61.3913C99.17 61.3177 99.413 61.2575 99.71 61.2575C100.007 61.2575 100.25 61.1973 100.25 61.1238C100.25 61.0502 100.432 60.99 100.655 60.99C100.878 60.99 101.06 60.9298 101.06 60.8563C101.06 60.7827 101.181 60.7225 101.33 60.7225C101.478 60.7225 101.6 60.6623 101.6 60.5887C101.6 60.5152 101.721 60.455 101.87 60.455C102.018 60.455 102.14 60.3948 102.14 60.3213C102.14 60.2477 102.248 60.1875 102.38 60.1875C102.512 60.1875 102.708 60.0671 102.815 59.92C102.922 59.7729 103.089 59.6525 103.185 59.6525C103.413 59.6525 105.11 57.9713 105.11 57.7451C105.11 57.6497 105.232 57.4848 105.38 57.3787C105.529 57.2727 105.65 57.0789 105.65 56.9479C105.65 56.8171 105.711 56.71 105.785 56.71C105.859 56.71 105.92 56.5896 105.92 56.4425C105.92 56.2954 105.981 56.175 106.055 56.175C106.129 56.175 106.19 56.0546 106.19 55.9075C106.19 55.7604 106.251 55.64 106.325 55.64C106.399 55.64 106.46 55.4594 106.46 55.2388C106.46 55.0181 106.521 54.8375 106.595 54.8375C106.669 54.8375 106.73 54.5968 106.73 54.3025C106.73 54.0083 106.791 53.7675 106.865 53.7675C106.947 53.7675 107 53.1433 107 52.1625C107 51.1817 106.947 50.5575 106.865 50.5575C106.791 50.5575 106.73 50.3168 106.73 50.0225C106.73 49.7283 106.669 49.4875 106.595 49.4875C106.521 49.4875 106.46 49.3069 106.46 49.0863C106.46 48.8656 106.399 48.685 106.325 48.685C106.251 48.685 106.19 48.5646 106.19 48.4175C106.19 48.2704 106.129 48.15 106.055 48.15C105.981 48.15 105.92 48.0296 105.92 47.8825C105.92 47.7354 105.859 47.615 105.785 47.615C105.711 47.615 105.65 47.5079 105.65 47.3771C105.65 47.2461 105.529 47.0523 105.38 46.9463C105.232 46.8402 105.11 46.6753 105.11 46.5799C105.11 46.3537 103.413 44.6725 103.185 44.6725C103.089 44.6725 102.922 44.5521 102.815 44.405C102.708 44.2579 102.512 44.1375 102.38 44.1375C102.248 44.1375 102.14 44.0773 102.14 44.0038C102.14 43.9302 102.018 43.87 101.87 43.87C101.721 43.87 101.6 43.8098 101.6 43.7363C101.6 43.6627 101.478 43.6025 101.33 43.6025C101.181 43.6025 101.06 43.5423 101.06 43.4688C101.06 43.3952 100.878 43.335 100.655 43.335C100.432 43.335 100.25 43.2748 100.25 43.2013C100.25 43.1277 100.007 43.0675 99.71 43.0675C99.413 43.0675 99.17 43.0073 99.17 42.9338C99.17 42.852 98.54 42.8 97.55 42.8C96.56 42.8 95.93 42.852 95.93 42.9338ZM98.63 48.2837C98.63 48.3573 98.7515 48.4175 98.9 48.4175C99.0485 48.4175 99.17 48.4777 99.17 48.5513C99.17 48.6248 99.2915 48.685 99.44 48.685C99.5885 48.685 99.71 48.7452 99.71 48.8188C99.71 48.8923 99.8038 48.9525 99.9186 48.9525C100.189 48.9525 100.79 49.5482 100.79 49.8159C100.79 49.9295 100.851 50.0225 100.925 50.0225C100.999 50.0225 101.06 50.1429 101.06 50.29C101.06 50.4371 101.121 50.5575 101.195 50.5575C101.269 50.5575 101.33 50.6779 101.33 50.825C101.33 50.9721 101.391 51.0925 101.465 51.0925C101.544 51.0925 101.6 51.5383 101.6 52.1625C101.6 52.7867 101.544 53.2325 101.465 53.2325C101.391 53.2325 101.33 53.3529 101.33 53.5C101.33 53.6471 101.269 53.7675 101.195 53.7675C101.121 53.7675 101.06 53.8746 101.06 54.0054C101.06 54.1364 100.939 54.3302 100.79 54.4363C100.642 54.5423 100.52 54.7361 100.52 54.8671C100.52 55.006 100.42 55.105 100.28 55.105C100.148 55.105 99.9521 55.2254 99.845 55.3725C99.7379 55.5196 99.5423 55.64 99.4102 55.64C99.2781 55.64 99.17 55.7002 99.17 55.7738C99.17 55.8473 99.0485 55.9075 98.9 55.9075C98.7515 55.9075 98.63 55.9677 98.63 56.0413C98.63 56.1192 98.18 56.175 97.55 56.175C96.92 56.175 96.47 56.1192 96.47 56.0413C96.47 55.9677 96.3485 55.9075 96.2 55.9075C96.0515 55.9075 95.93 55.8473 95.93 55.7738C95.93 55.7002 95.8219 55.64 95.6898 55.64C95.5577 55.64 95.3621 55.5196 95.255 55.3725C95.1479 55.2254 94.9523 55.105 94.8202 55.105C94.6799 55.105 94.58 55.006 94.58 54.8671C94.58 54.7361 94.4585 54.5423 94.31 54.4363C94.1615 54.3302 94.04 54.1364 94.04 54.0054C94.04 53.8746 93.9792 53.7675 93.905 53.7675C93.8307 53.7675 93.77 53.6471 93.77 53.5C93.77 53.3529 93.7093 53.2325 93.635 53.2325C93.5563 53.2325 93.5 52.7867 93.5 52.1625C93.5 51.5383 93.5563 51.0925 93.635 51.0925C93.7093 51.0925 93.77 50.9721 93.77 50.825C93.77 50.6779 93.8307 50.5575 93.905 50.5575C93.9792 50.5575 94.04 50.4371 94.04 50.29C94.04 50.1429 94.1007 50.0225 94.175 50.0225C94.2492 50.0225 94.31 49.9295 94.31 49.8159C94.31 49.7022 94.4592 49.4614 94.6414 49.2809C94.8237 49.1003 95.0667 48.9525 95.1814 48.9525C95.2962 48.9525 95.39 48.8923 95.39 48.8188C95.39 48.7452 95.5115 48.685 95.66 48.685C95.8085 48.685 95.93 48.6248 95.93 48.5513C95.93 48.4777 96.0515 48.4175 96.2 48.4175C96.3485 48.4175 96.47 48.3573 96.47 48.2837C96.47 48.2058 96.92 48.15 97.55 48.15C98.18 48.15 98.63 48.2058 98.63 48.2837ZM28.89 56.3088C28.89 56.3823 28.7685 56.4425 28.62 56.4425C28.4715 56.4425 28.35 56.5027 28.35 56.5763C28.35 56.6498 28.2546 56.71 28.1379 56.71C27.8651 56.71 27.54 57.0321 27.54 57.3024C27.54 57.4179 27.4793 57.5125 27.405 57.5125C27.3308 57.5125 27.27 57.6329 27.27 57.78C27.27 57.9271 27.2092 58.0475 27.135 58.0475C27.0599 58.0475 27 58.4042 27 58.85C27 59.2958 27.0599 59.6525 27.135 59.6525C27.2092 59.6525 27.27 59.7729 27.27 59.92C27.27 60.0671 27.3308 60.1875 27.405 60.1875C27.4793 60.1875 27.54 60.2821 27.54 60.3976C27.54 60.6679 27.8651 60.99 28.1379 60.99C28.2546 60.99 28.35 61.0502 28.35 61.1238C28.35 61.1973 28.4715 61.2575 28.62 61.2575C28.7685 61.2575 28.89 61.3177 28.89 61.3913C28.89 61.4779 30.6 61.525 33.75 61.525C36.9 61.525 38.61 61.4779 38.61 61.3913C38.61 61.3177 38.7315 61.2575 38.88 61.2575C39.0285 61.2575 39.15 61.1973 39.15 61.1238C39.15 61.0502 39.2455 60.99 39.3621 60.99C39.6349 60.99 39.96 60.6679 39.96 60.3976C39.96 60.2821 40.0208 60.1875 40.095 60.1875C40.1693 60.1875 40.23 60.0671 40.23 59.92C40.23 59.7729 40.2908 59.6525 40.365 59.6525C40.4401 59.6525 40.5 59.2958 40.5 58.85C40.5 58.4042 40.4401 58.0475 40.365 58.0475C40.2908 58.0475 40.23 57.9271 40.23 57.78C40.23 57.6329 40.1693 57.5125 40.095 57.5125C40.0208 57.5125 39.96 57.4179 39.96 57.3024C39.96 57.0321 39.6349 56.71 39.3621 56.71C39.2455 56.71 39.15 56.6498 39.15 56.5763C39.15 56.5027 39.0285 56.4425 38.88 56.4425C38.7315 56.4425 38.61 56.3823 38.61 56.3088C38.61 56.2221 36.9 56.175 33.75 56.175C30.6 56.175 28.89 56.2221 28.89 56.3088ZM28.89 64.3337C28.89 64.4073 28.7685 64.4675 28.62 64.4675C28.4715 64.4675 28.35 64.5277 28.35 64.6012C28.35 64.6748 28.2546 64.735 28.1379 64.735C27.8651 64.735 27.54 65.0571 27.54 65.3274C27.54 65.4429 27.4793 65.5375 27.405 65.5375C27.3308 65.5375 27.27 65.6579 27.27 65.805C27.27 65.9521 27.2092 66.0725 27.135 66.0725C27.0599 66.0725 27 66.4292 27 66.875C27 67.3208 27.0599 67.6775 27.135 67.6775C27.2092 67.6775 27.27 67.7979 27.27 67.945C27.27 68.0921 27.3308 68.2125 27.405 68.2125C27.4793 68.2125 27.54 68.3071 27.54 68.4226C27.54 68.6929 27.8651 69.015 28.1379 69.015C28.2546 69.015 28.35 69.0752 28.35 69.1487C28.35 69.2223 28.4715 69.2825 28.62 69.2825C28.7685 69.2825 28.89 69.3427 28.89 69.4162C28.89 69.5047 34.65 69.55 45.9 69.55C57.15 69.55 62.91 69.5047 62.91 69.4162C62.91 69.3427 63.0315 69.2825 63.18 69.2825C63.3285 69.2825 63.45 69.2223 63.45 69.1487C63.45 69.0752 63.5454 69.015 63.6621 69.015C63.9349 69.015 64.26 68.6929 64.26 68.4226C64.26 68.3071 64.3208 68.2125 64.395 68.2125C64.4693 68.2125 64.53 68.0921 64.53 67.945C64.53 67.7979 64.5908 67.6775 64.665 67.6775C64.7401 67.6775 64.8 67.3208 64.8 66.875C64.8 66.4292 64.7401 66.0725 64.665 66.0725C64.5908 66.0725 64.53 65.9521 64.53 65.805C64.53 65.6579 64.4693 65.5375 64.395 65.5375C64.3208 65.5375 64.26 65.4429 64.26 65.3274C64.26 65.0571 63.9349 64.735 63.6621 64.735C63.5454 64.735 63.45 64.6748 63.45 64.6012C63.45 64.5277 63.3285 64.4675 63.18 64.4675C63.0315 64.4675 62.91 64.4073 62.91 64.3337C62.91 64.2453 57.15 64.2 45.9 64.2C34.65 64.2 28.89 64.2453 28.89 64.3337ZM99.09 69.6837C99.09 69.7573 98.9685 69.8175 98.82 69.8175C98.6715 69.8175 98.55 69.8777 98.55 69.9512C98.55 70.0248 98.4546 70.085 98.3379 70.085C98.2211 70.085 98.0389 70.171 97.9329 70.2761C97.8268 70.3811 97.74 70.5617 97.74 70.6774C97.74 70.7929 97.6793 70.8875 97.605 70.8875C97.5308 70.8875 97.47 71.0079 97.47 71.155C97.47 71.3021 97.4092 71.4225 97.335 71.4225C97.2599 71.4225 97.2 71.7792 97.2 72.225C97.2 72.6708 97.2599 73.0275 97.335 73.0275C97.4092 73.0275 97.47 73.1479 97.47 73.295C97.47 73.4421 97.5308 73.5625 97.605 73.5625C97.6793 73.5625 97.74 73.6571 97.74 73.7726C97.74 74.0429 98.0651 74.365 98.3379 74.365C98.4546 74.365 98.55 74.4252 98.55 74.4987C98.55 74.5723 98.6715 74.6325 98.82 74.6325C98.9685 74.6325 99.09 74.6927 99.09 74.7662C99.09 74.8406 99.4501 74.9 99.9 74.9C100.35 74.9 100.71 74.8406 100.71 74.7662C100.71 74.6927 100.832 74.6325 100.98 74.6325C101.129 74.6325 101.25 74.5723 101.25 74.4987C101.25 74.4252 101.345 74.365 101.462 74.365C101.735 74.365 102.06 74.0429 102.06 73.7726C102.06 73.6571 102.121 73.5625 102.195 73.5625C102.269 73.5625 102.33 73.4421 102.33 73.295C102.33 73.1479 102.391 73.0275 102.465 73.0275C102.54 73.0275 102.6 72.6708 102.6 72.225C102.6 71.7792 102.54 71.4225 102.465 71.4225C102.391 71.4225 102.33 71.3021 102.33 71.155C102.33 71.0079 102.269 70.8875 102.195 70.8875C102.121 70.8875 102.06 70.7929 102.06 70.6774C102.06 70.5617 101.973 70.3811 101.867 70.2761C101.761 70.171 101.579 70.085 101.462 70.085C101.345 70.085 101.25 70.0248 101.25 69.9512C101.25 69.8777 101.129 69.8175 100.98 69.8175C100.832 69.8175 100.71 69.7573 100.71 69.6837C100.71 69.6094 100.35 69.55 99.9 69.55C99.4501 69.55 99.09 69.6094 99.09 69.6837ZM28.89 72.3587C28.89 72.4323 28.7685 72.4925 28.62 72.4925C28.4715 72.4925 28.35 72.5527 28.35 72.6262C28.35 72.6998 28.2546 72.76 28.1379 72.76C27.8651 72.76 27.54 73.0821 27.54 73.3524C27.54 73.4679 27.4793 73.5625 27.405 73.5625C27.3308 73.5625 27.27 73.6829 27.27 73.83C27.27 73.9771 27.2092 74.0975 27.135 74.0975C27.0599 74.0975 27 74.4542 27 74.9C27 75.3458 27.0599 75.7025 27.135 75.7025C27.2092 75.7025 27.27 75.8229 27.27 75.97C27.27 76.1171 27.3308 76.2375 27.405 76.2375C27.4793 76.2375 27.54 76.332 27.54 76.4476C27.54 76.7179 27.8651 77.04 28.1379 77.04C28.2546 77.04 28.35 77.1002 28.35 77.1737C28.35 77.2473 28.4715 77.3075 28.62 77.3075C28.7685 77.3075 28.89 77.3677 28.89 77.4412C28.89 77.5297 34.65 77.575 45.9 77.575C57.15 77.575 62.91 77.5297 62.91 77.4412C62.91 77.3677 63.0315 77.3075 63.18 77.3075C63.3285 77.3075 63.45 77.2473 63.45 77.1737C63.45 77.1002 63.5454 77.04 63.6621 77.04C63.9349 77.04 64.26 76.7179 64.26 76.4476C64.26 76.332 64.3208 76.2375 64.395 76.2375C64.4693 76.2375 64.53 76.1171 64.53 75.97C64.53 75.8229 64.5908 75.7025 64.665 75.7025C64.7401 75.7025 64.8 75.3458 64.8 74.9C64.8 74.4542 64.7401 74.0975 64.665 74.0975C64.5908 74.0975 64.53 73.9771 64.53 73.83C64.53 73.6829 64.4693 73.5625 64.395 73.5625C64.3208 73.5625 64.26 73.4679 64.26 73.3524C64.26 73.0821 63.9349 72.76 63.6621 72.76C63.5454 72.76 63.45 72.6998 63.45 72.6262C63.45 72.5527 63.3285 72.4925 63.18 72.4925C63.0315 72.4925 62.91 72.4323 62.91 72.3587C62.91 72.2703 57.15 72.225 45.9 72.225C34.65 72.225 28.89 72.2703 28.89 72.3587ZM81 79.5812V82.925H77.625C75.7687 82.925 74.25 82.8946 74.25 82.8575C74.25 82.7547 80.7828 76.2609 80.8988 76.2485C80.9545 76.2424 81 77.7422 81 79.5812ZM75.6 89.6125V90.95H50.895C34.515 90.95 26.19 90.9951 26.19 91.0837C26.19 91.1573 26.0685 91.2175 25.92 91.2175C25.7715 91.2175 25.65 91.2777 25.65 91.3512C25.65 91.4248 25.5546 91.485 25.4379 91.485C25.1651 91.485 24.84 91.8071 24.84 92.0774C24.84 92.1929 24.7793 92.2875 24.705 92.2875C24.6308 92.2875 24.57 92.4079 24.57 92.555C24.57 92.7021 24.5093 92.8225 24.435 92.8225C24.3599 92.8225 24.3 93.1792 24.3 93.625C24.3 94.0708 24.3599 94.4275 24.435 94.4275C24.5093 94.4275 24.57 94.5479 24.57 94.695C24.57 94.8421 24.6308 94.9625 24.705 94.9625C24.7793 94.9625 24.84 95.0571 24.84 95.1726C24.84 95.4429 25.1651 95.765 25.4379 95.765C25.5546 95.765 25.65 95.8252 25.65 95.8987C25.65 95.9723 25.7715 96.0325 25.92 96.0325C26.0685 96.0325 26.19 96.0927 26.19 96.1662C26.19 96.2549 34.515 96.3 50.895 96.3H75.6V98.975V101.65H43.2C21.6901 101.65 10.8 101.605 10.8 101.516C10.8 101.443 10.6177 101.382 10.395 101.382C10.1722 101.382 9.99 101.322 9.99 101.249C9.99 101.175 9.80775 101.115 9.585 101.115C9.36225 101.115 9.18 101.055 9.18 100.981C9.18 100.908 9.08294 100.847 8.96414 100.847C8.84547 100.847 8.57803 100.667 8.37 100.446C8.16196 100.226 7.9222 100.045 7.83715 100.045C7.63681 100.045 7.02 99.4339 7.02 99.2354C7.02 99.1511 6.83775 98.9136 6.615 98.7075C6.39225 98.5014 6.21 98.2364 6.21 98.1189C6.21 98.0012 6.14925 97.905 6.075 97.905C6.00075 97.905 5.94 97.7244 5.94 97.5037C5.94 97.2831 5.87925 97.1025 5.805 97.1025C5.73075 97.1025 5.67 96.9219 5.67 96.7012C5.67 96.4806 5.60925 96.3 5.535 96.3C5.454 96.3 5.4 95.765 5.4 94.9625C5.4 94.16 5.454 93.625 5.535 93.625C5.60925 93.625 5.67 93.4444 5.67 93.2237C5.67 93.0031 5.73075 92.8225 5.805 92.8225C5.87925 92.8225 5.94 92.6419 5.94 92.4212C5.94 92.2006 6.00075 92.02 6.075 92.02C6.14925 92.02 6.21 91.9238 6.21 91.8061C6.21 91.6886 6.39225 91.4236 6.615 91.2175C6.83775 91.0114 7.02 90.7738 7.02 90.6896C7.02 90.4911 7.63681 89.88 7.83715 89.88C7.9222 89.88 8.16196 89.6994 8.37 89.4787C8.57803 89.2581 8.84547 89.0775 8.96414 89.0775C9.08294 89.0775 9.18 89.0173 9.18 88.9437C9.18 88.8702 9.3015 88.81 9.45 88.81C9.5985 88.81 9.72 88.7498 9.72 88.6762C9.72 88.6027 9.963 88.5425 10.26 88.5425C10.557 88.5425 10.8 88.4823 10.8 88.4087C10.8 88.3199 21.6901 88.275 43.2 88.275H75.6V89.6125ZM18.09 91.0837C18.09 91.1573 17.9685 91.2175 17.82 91.2175C17.6715 91.2175 17.55 91.2777 17.55 91.3512C17.55 91.4248 17.4546 91.485 17.3379 91.485C17.0651 91.485 16.74 91.8071 16.74 92.0774C16.74 92.1929 16.6792 92.2875 16.605 92.2875C16.5307 92.2875 16.47 92.4079 16.47 92.555C16.47 92.7021 16.4093 92.8225 16.335 92.8225C16.2599 92.8225 16.2 93.1792 16.2 93.625C16.2 94.0708 16.2599 94.4275 16.335 94.4275C16.4093 94.4275 16.47 94.5479 16.47 94.695C16.47 94.8421 16.5307 94.9625 16.605 94.9625C16.6792 94.9625 16.74 95.0571 16.74 95.1726C16.74 95.4429 17.0651 95.765 17.3379 95.765C17.4546 95.765 17.55 95.8252 17.55 95.8987C17.55 95.9723 17.6715 96.0325 17.82 96.0325C17.9685 96.0325 18.09 96.0927 18.09 96.1662C18.09 96.2406 18.45 96.3 18.9 96.3C19.35 96.3 19.71 96.2406 19.71 96.1662C19.71 96.0927 19.8315 96.0325 19.98 96.0325C20.1285 96.0325 20.25 95.9723 20.25 95.8987C20.25 95.8252 20.3454 95.765 20.4621 95.765C20.7349 95.765 21.06 95.4429 21.06 95.1726C21.06 95.0571 21.1208 94.9625 21.195 94.9625C21.2693 94.9625 21.33 94.8421 21.33 94.695C21.33 94.5479 21.3908 94.4275 21.465 94.4275C21.5401 94.4275 21.6 94.0708 21.6 93.625C21.6 93.1792 21.5401 92.8225 21.465 92.8225C21.3908 92.8225 21.33 92.7021 21.33 92.555C21.33 92.4079 21.2693 92.2875 21.195 92.2875C21.1208 92.2875 21.06 92.1929 21.06 92.0774C21.06 91.9617 20.9732 91.7811 20.8671 91.6761C20.7611 91.571 20.5789 91.485 20.4621 91.485C20.3454 91.485 20.25 91.4248 20.25 91.3512C20.25 91.2777 20.1285 91.2175 19.98 91.2175C19.8315 91.2175 19.71 91.1573 19.71 91.0837C19.71 91.0094 19.35 90.95 18.9 90.95C18.45 90.95 18.09 91.0094 18.09 91.0837ZM96.39 91.0837C96.39 91.1573 96.2685 91.2175 96.12 91.2175C95.9715 91.2175 95.85 91.2777 95.85 91.3512C95.85 91.4248 95.7546 91.485 95.6379 91.485C95.5211 91.485 95.3389 91.571 95.2329 91.6761C95.1268 91.7811 95.04 91.9617 95.04 92.0774C95.04 92.1929 94.9792 92.2875 94.905 92.2875C94.8307 92.2875 94.77 92.4079 94.77 92.555C94.77 92.7021 94.7093 92.8225 94.635 92.8225C94.5599 92.8225 94.5 93.1792 94.5 93.625C94.5 94.0708 94.5599 94.4275 94.635 94.4275C94.7093 94.4275 94.77 94.5479 94.77 94.695C94.77 94.8421 94.8307 94.9625 94.905 94.9625C94.9792 94.9625 95.04 95.0571 95.04 95.1726C95.04 95.4429 95.3651 95.765 95.6379 95.765C95.7546 95.765 95.85 95.8252 95.85 95.8987C95.85 95.9723 95.9715 96.0325 96.12 96.0325C96.2685 96.0325 96.39 96.0927 96.39 96.1662C96.39 96.2406 96.75 96.3 97.2 96.3C97.65 96.3 98.01 96.2406 98.01 96.1662C98.01 96.0927 98.1315 96.0325 98.28 96.0325C98.4285 96.0325 98.55 95.9723 98.55 95.8987C98.55 95.8252 98.6454 95.765 98.7621 95.765C99.0349 95.765 99.36 95.4429 99.36 95.1726C99.36 95.0571 99.4208 94.9625 99.495 94.9625C99.5693 94.9625 99.63 94.8421 99.63 94.695C99.63 94.5479 99.6907 94.4275 99.765 94.4275C99.8401 94.4275 99.9 94.0708 99.9 93.625C99.9 93.1792 99.8401 92.8225 99.765 92.8225C99.6907 92.8225 99.63 92.7021 99.63 92.555C99.63 92.4079 99.5693 92.2875 99.495 92.2875C99.4208 92.2875 99.36 92.1929 99.36 92.0774C99.36 91.9617 99.2732 91.7811 99.1671 91.6761C99.0611 91.571 98.8789 91.485 98.7621 91.485C98.6454 91.485 98.55 91.4248 98.55 91.3512C98.55 91.2777 98.4285 91.2175 98.28 91.2175C98.1315 91.2175 98.01 91.1573 98.01 91.0837C98.01 91.0094 97.65 90.95 97.2 90.95C96.75 90.95 96.39 91.0094 96.39 91.0837Z" fill="black"/>
</svg>
