<svg width="50" height="50" viewBox="0 0 107 107" fill="none" xmlns="http://www.w3.org/2000/svg">
<mask id="path-2-outside-1" maskUnits="userSpaceOnUse" x="0.671875" y="0.671875" width="106" height="106" fill="black">
<rect fill="white" x="0.671875" y="0.671875" width="106" height="106"/>
<path d="M65.2031 71.8906H68.5469C71.3122 71.8906 73.5625 69.6403 73.5625 66.875V50.9019C75.7543 51.5155 77.9946 51.8281 80.25 51.8281C94.0781 51.8281 105.328 40.5781 105.328 26.75C105.328 12.9219 94.0781 1.67188 80.25 1.67188C69.6035 1.67188 60.5085 8.35269 56.8772 17.7319L50.8484 11.7031H41.6631C40.8472 6.04048 35.9771 1.67188 30.0938 1.67188C23.6403 1.67188 18.3906 6.92156 18.3906 13.375C18.3906 19.8284 23.6403 25.0781 30.0938 25.0781C35.9771 25.0781 40.8472 20.7095 41.6631 15.0469H49.4641L55.7721 21.3549C55.3892 23.0953 55.1719 24.8959 55.1719 26.75C55.1719 32.1819 56.9708 37.465 60.226 41.7969H59.3165C53.3495 33.4108 43.7513 28.4219 33.4375 28.4219C15.9213 28.4219 1.67188 42.6713 1.67188 60.1875V66.875C1.67188 77.1921 6.65406 86.8054 15.0469 92.7707V105.328H18.3906V91.0018L17.65 90.5053C9.73867 85.2088 5.01562 76.3746 5.01562 66.875V61.8594H40.2939C41.0713 65.6696 44.4468 68.5469 48.4844 68.5469H60.4951C60.7777 69.3393 61.2458 70.0332 61.8594 70.5866V75.7025L56.9491 77.3393L55.3173 95.2969H40.125C33.6716 95.2969 28.4219 90.0455 28.4219 83.5938V81.9219H25.0781V83.5938C25.0781 91.8913 31.8292 98.6406 40.125 98.6406H41.7969V105.328H45.1406V98.6406H58.3702L60.0805 79.8187L65.2031 78.1117V71.8906ZM30.0938 21.7344C25.4844 21.7344 21.7344 17.9844 21.7344 13.375C21.7344 8.76564 25.4844 5.01562 30.0938 5.01562C34.7031 5.01562 38.4531 8.76564 38.4531 13.375C38.4531 17.9844 34.7031 21.7344 30.0938 21.7344ZM70.2188 66.875C70.2188 67.7979 69.4681 68.5469 68.5469 68.5469H65.2031C64.2819 68.5469 63.5312 67.7979 63.5312 66.875V43.4688C63.5312 42.5475 64.2819 41.7969 65.2031 41.7969H68.5469C69.4681 41.7969 70.2188 42.5475 70.2188 43.4688V66.875ZM95.8971 41.7969H81.9219C81.0007 41.7969 80.25 41.0462 80.25 40.125C80.25 39.2038 81.0007 38.4531 81.9219 38.4531H90.2812C93.0465 38.4531 95.2969 36.2028 95.2969 33.4375C95.2969 30.6722 93.0465 28.4219 90.2812 28.4219H88.6094C87.6882 28.4219 86.9375 27.6712 86.9375 26.75C86.9375 25.8288 87.6882 25.0781 88.6094 25.0781H101.899C101.943 25.6315 101.984 26.1849 101.984 26.75C101.984 32.5899 99.6571 37.888 95.8971 41.7969ZM101.377 21.7344H88.6094C85.8441 21.7344 83.5938 23.9847 83.5938 26.75C83.5938 29.5153 85.8441 31.7656 88.6094 31.7656H90.2812C91.2025 31.7656 91.9531 32.5163 91.9531 33.4375C91.9531 34.3587 91.2025 35.1094 90.2812 35.1094H81.9219C79.1566 35.1094 76.9062 37.3597 76.9062 40.125C76.9062 42.8903 79.1566 45.1406 81.9219 45.1406H91.7809C88.4338 47.2472 84.4882 48.4844 80.25 48.4844C77.9896 48.4844 75.7476 48.1015 73.5625 47.3876V43.4688C73.5625 40.7035 71.3122 38.4531 68.5469 38.4531H65.2031C64.2033 38.4531 63.2738 38.7557 62.4913 39.2623C60.893 36.9952 59.7628 34.4456 59.1242 31.7656H75.2344C77.9997 31.7656 80.25 29.5153 80.25 26.75C80.25 23.9847 77.9997 21.7344 75.2344 21.7344H71.8906C70.9694 21.7344 70.2188 20.9837 70.2188 20.0625C70.2188 19.1413 70.9694 18.3906 71.8906 18.3906H75.2344C77.9997 18.3906 80.25 16.1403 80.25 13.375C80.25 10.6097 77.9997 8.35938 75.2344 8.35938H68.7191C72.0662 6.25281 76.0118 5.01562 80.25 5.01562C90.5053 5.01562 99.1037 12.1646 101.377 21.7344ZM64.6029 11.7031H75.2344C76.1556 11.7031 76.9062 12.4538 76.9062 13.375C76.9062 14.2962 76.1556 15.0469 75.2344 15.0469H71.8906C69.1253 15.0469 66.875 17.2972 66.875 20.0625C66.875 22.8278 69.1253 25.0781 71.8906 25.0781H75.2344C76.1556 25.0781 76.9062 25.8288 76.9062 26.75C76.9062 27.6712 76.1556 28.4219 75.2344 28.4219H58.5892C58.5457 27.8668 58.5156 27.3101 58.5156 26.75C58.5156 20.9101 60.8429 15.612 64.6029 11.7031ZM33.4375 31.7656C41.8403 31.7656 49.7182 35.4672 55.0933 41.7969H48.4844C44.4485 41.7969 41.0713 44.6742 40.2939 48.4844H7.56691C12.0375 38.6404 21.94 31.7656 33.4375 31.7656ZM45.1406 51.8281C46.0618 51.8281 46.8125 52.5788 46.8125 53.5V56.8438C46.8125 57.7666 46.0618 58.5156 45.1406 58.5156H5.10089C5.23631 56.2051 5.6175 53.9598 6.27455 51.8281H45.1406ZM43.7764 61.8594H45.1406C47.9059 61.8594 50.1562 59.609 50.1562 56.8438V53.5C50.1562 50.7347 47.9059 48.4844 45.1406 48.4844H43.7764C44.4685 46.5433 46.3076 45.1406 48.4844 45.1406H60.1875V65.2031H48.4844C46.3076 65.2031 44.4685 63.8004 43.7764 61.8594Z"/>
</mask>
<path d="M65.2031 71.8906H68.5469C71.3122 71.8906 73.5625 69.6403 73.5625 66.875V50.9019C75.7543 51.5155 77.9946 51.8281 80.25 51.8281C94.0781 51.8281 105.328 40.5781 105.328 26.75C105.328 12.9219 94.0781 1.67188 80.25 1.67188C69.6035 1.67188 60.5085 8.35269 56.8772 17.7319L50.8484 11.7031H41.6631C40.8472 6.04048 35.9771 1.67188 30.0938 1.67188C23.6403 1.67188 18.3906 6.92156 18.3906 13.375C18.3906 19.8284 23.6403 25.0781 30.0938 25.0781C35.9771 25.0781 40.8472 20.7095 41.6631 15.0469H49.4641L55.7721 21.3549C55.3892 23.0953 55.1719 24.8959 55.1719 26.75C55.1719 32.1819 56.9708 37.465 60.226 41.7969H59.3165C53.3495 33.4108 43.7513 28.4219 33.4375 28.4219C15.9213 28.4219 1.67188 42.6713 1.67188 60.1875V66.875C1.67188 77.1921 6.65406 86.8054 15.0469 92.7707V105.328H18.3906V91.0018L17.65 90.5053C9.73867 85.2088 5.01562 76.3746 5.01562 66.875V61.8594H40.2939C41.0713 65.6696 44.4468 68.5469 48.4844 68.5469H60.4951C60.7777 69.3393 61.2458 70.0332 61.8594 70.5866V75.7025L56.9491 77.3393L55.3173 95.2969H40.125C33.6716 95.2969 28.4219 90.0455 28.4219 83.5938V81.9219H25.0781V83.5938C25.0781 91.8913 31.8292 98.6406 40.125 98.6406H41.7969V105.328H45.1406V98.6406H58.3702L60.0805 79.8187L65.2031 78.1117V71.8906ZM30.0938 21.7344C25.4844 21.7344 21.7344 17.9844 21.7344 13.375C21.7344 8.76564 25.4844 5.01562 30.0938 5.01562C34.7031 5.01562 38.4531 8.76564 38.4531 13.375C38.4531 17.9844 34.7031 21.7344 30.0938 21.7344ZM70.2188 66.875C70.2188 67.7979 69.4681 68.5469 68.5469 68.5469H65.2031C64.2819 68.5469 63.5312 67.7979 63.5312 66.875V43.4688C63.5312 42.5475 64.2819 41.7969 65.2031 41.7969H68.5469C69.4681 41.7969 70.2188 42.5475 70.2188 43.4688V66.875ZM95.8971 41.7969H81.9219C81.0007 41.7969 80.25 41.0462 80.25 40.125C80.25 39.2038 81.0007 38.4531 81.9219 38.4531H90.2812C93.0465 38.4531 95.2969 36.2028 95.2969 33.4375C95.2969 30.6722 93.0465 28.4219 90.2812 28.4219H88.6094C87.6882 28.4219 86.9375 27.6712 86.9375 26.75C86.9375 25.8288 87.6882 25.0781 88.6094 25.0781H101.899C101.943 25.6315 101.984 26.1849 101.984 26.75C101.984 32.5899 99.6571 37.888 95.8971 41.7969ZM101.377 21.7344H88.6094C85.8441 21.7344 83.5938 23.9847 83.5938 26.75C83.5938 29.5153 85.8441 31.7656 88.6094 31.7656H90.2812C91.2025 31.7656 91.9531 32.5163 91.9531 33.4375C91.9531 34.3587 91.2025 35.1094 90.2812 35.1094H81.9219C79.1566 35.1094 76.9062 37.3597 76.9062 40.125C76.9062 42.8903 79.1566 45.1406 81.9219 45.1406H91.7809C88.4338 47.2472 84.4882 48.4844 80.25 48.4844C77.9896 48.4844 75.7476 48.1015 73.5625 47.3876V43.4688C73.5625 40.7035 71.3122 38.4531 68.5469 38.4531H65.2031C64.2033 38.4531 63.2738 38.7557 62.4913 39.2623C60.893 36.9952 59.7628 34.4456 59.1242 31.7656H75.2344C77.9997 31.7656 80.25 29.5153 80.25 26.75C80.25 23.9847 77.9997 21.7344 75.2344 21.7344H71.8906C70.9694 21.7344 70.2188 20.9837 70.2188 20.0625C70.2188 19.1413 70.9694 18.3906 71.8906 18.3906H75.2344C77.9997 18.3906 80.25 16.1403 80.25 13.375C80.25 10.6097 77.9997 8.35938 75.2344 8.35938H68.7191C72.0662 6.25281 76.0118 5.01562 80.25 5.01562C90.5053 5.01562 99.1037 12.1646 101.377 21.7344ZM64.6029 11.7031H75.2344C76.1556 11.7031 76.9062 12.4538 76.9062 13.375C76.9062 14.2962 76.1556 15.0469 75.2344 15.0469H71.8906C69.1253 15.0469 66.875 17.2972 66.875 20.0625C66.875 22.8278 69.1253 25.0781 71.8906 25.0781H75.2344C76.1556 25.0781 76.9062 25.8288 76.9062 26.75C76.9062 27.6712 76.1556 28.4219 75.2344 28.4219H58.5892C58.5457 27.8668 58.5156 27.3101 58.5156 26.75C58.5156 20.9101 60.8429 15.612 64.6029 11.7031ZM33.4375 31.7656C41.8403 31.7656 49.7182 35.4672 55.0933 41.7969H48.4844C44.4485 41.7969 41.0713 44.6742 40.2939 48.4844H7.56691C12.0375 38.6404 21.94 31.7656 33.4375 31.7656ZM45.1406 51.8281C46.0618 51.8281 46.8125 52.5788 46.8125 53.5V56.8438C46.8125 57.7666 46.0618 58.5156 45.1406 58.5156H5.10089C5.23631 56.2051 5.6175 53.9598 6.27455 51.8281H45.1406ZM43.7764 61.8594H45.1406C47.9059 61.8594 50.1562 59.609 50.1562 56.8438V53.5C50.1562 50.7347 47.9059 48.4844 45.1406 48.4844H43.7764C44.4685 46.5433 46.3076 45.1406 48.4844 45.1406H60.1875V65.2031H48.4844C46.3076 65.2031 44.4685 63.8004 43.7764 61.8594Z" fill="black"/>
<path d="M65.2031 71.8906H68.5469C71.3122 71.8906 73.5625 69.6403 73.5625 66.875V50.9019C75.7543 51.5155 77.9946 51.8281 80.25 51.8281C94.0781 51.8281 105.328 40.5781 105.328 26.75C105.328 12.9219 94.0781 1.67188 80.25 1.67188C69.6035 1.67188 60.5085 8.35269 56.8772 17.7319L50.8484 11.7031H41.6631C40.8472 6.04048 35.9771 1.67188 30.0938 1.67188C23.6403 1.67188 18.3906 6.92156 18.3906 13.375C18.3906 19.8284 23.6403 25.0781 30.0938 25.0781C35.9771 25.0781 40.8472 20.7095 41.6631 15.0469H49.4641L55.7721 21.3549C55.3892 23.0953 55.1719 24.8959 55.1719 26.75C55.1719 32.1819 56.9708 37.465 60.226 41.7969H59.3165C53.3495 33.4108 43.7513 28.4219 33.4375 28.4219C15.9213 28.4219 1.67188 42.6713 1.67188 60.1875V66.875C1.67188 77.1921 6.65406 86.8054 15.0469 92.7707V105.328H18.3906V91.0018L17.65 90.5053C9.73867 85.2088 5.01562 76.3746 5.01562 66.875V61.8594H40.2939C41.0713 65.6696 44.4468 68.5469 48.4844 68.5469H60.4951C60.7777 69.3393 61.2458 70.0332 61.8594 70.5866V75.7025L56.9491 77.3393L55.3173 95.2969H40.125C33.6716 95.2969 28.4219 90.0455 28.4219 83.5938V81.9219H25.0781V83.5938C25.0781 91.8913 31.8292 98.6406 40.125 98.6406H41.7969V105.328H45.1406V98.6406H58.3702L60.0805 79.8187L65.2031 78.1117V71.8906ZM30.0938 21.7344C25.4844 21.7344 21.7344 17.9844 21.7344 13.375C21.7344 8.76564 25.4844 5.01562 30.0938 5.01562C34.7031 5.01562 38.4531 8.76564 38.4531 13.375C38.4531 17.9844 34.7031 21.7344 30.0938 21.7344ZM70.2188 66.875C70.2188 67.7979 69.4681 68.5469 68.5469 68.5469H65.2031C64.2819 68.5469 63.5312 67.7979 63.5312 66.875V43.4688C63.5312 42.5475 64.2819 41.7969 65.2031 41.7969H68.5469C69.4681 41.7969 70.2188 42.5475 70.2188 43.4688V66.875ZM95.8971 41.7969H81.9219C81.0007 41.7969 80.25 41.0462 80.25 40.125C80.25 39.2038 81.0007 38.4531 81.9219 38.4531H90.2812C93.0465 38.4531 95.2969 36.2028 95.2969 33.4375C95.2969 30.6722 93.0465 28.4219 90.2812 28.4219H88.6094C87.6882 28.4219 86.9375 27.6712 86.9375 26.75C86.9375 25.8288 87.6882 25.0781 88.6094 25.0781H101.899C101.943 25.6315 101.984 26.1849 101.984 26.75C101.984 32.5899 99.6571 37.888 95.8971 41.7969ZM101.377 21.7344H88.6094C85.8441 21.7344 83.5938 23.9847 83.5938 26.75C83.5938 29.5153 85.8441 31.7656 88.6094 31.7656H90.2812C91.2025 31.7656 91.9531 32.5163 91.9531 33.4375C91.9531 34.3587 91.2025 35.1094 90.2812 35.1094H81.9219C79.1566 35.1094 76.9062 37.3597 76.9062 40.125C76.9062 42.8903 79.1566 45.1406 81.9219 45.1406H91.7809C88.4338 47.2472 84.4882 48.4844 80.25 48.4844C77.9896 48.4844 75.7476 48.1015 73.5625 47.3876V43.4688C73.5625 40.7035 71.3122 38.4531 68.5469 38.4531H65.2031C64.2033 38.4531 63.2738 38.7557 62.4913 39.2623C60.893 36.9952 59.7628 34.4456 59.1242 31.7656H75.2344C77.9997 31.7656 80.25 29.5153 80.25 26.75C80.25 23.9847 77.9997 21.7344 75.2344 21.7344H71.8906C70.9694 21.7344 70.2188 20.9837 70.2188 20.0625C70.2188 19.1413 70.9694 18.3906 71.8906 18.3906H75.2344C77.9997 18.3906 80.25 16.1403 80.25 13.375C80.25 10.6097 77.9997 8.35938 75.2344 8.35938H68.7191C72.0662 6.25281 76.0118 5.01562 80.25 5.01562C90.5053 5.01562 99.1037 12.1646 101.377 21.7344ZM64.6029 11.7031H75.2344C76.1556 11.7031 76.9062 12.4538 76.9062 13.375C76.9062 14.2962 76.1556 15.0469 75.2344 15.0469H71.8906C69.1253 15.0469 66.875 17.2972 66.875 20.0625C66.875 22.8278 69.1253 25.0781 71.8906 25.0781H75.2344C76.1556 25.0781 76.9062 25.8288 76.9062 26.75C76.9062 27.6712 76.1556 28.4219 75.2344 28.4219H58.5892C58.5457 27.8668 58.5156 27.3101 58.5156 26.75C58.5156 20.9101 60.8429 15.612 64.6029 11.7031ZM33.4375 31.7656C41.8403 31.7656 49.7182 35.4672 55.0933 41.7969H48.4844C44.4485 41.7969 41.0713 44.6742 40.2939 48.4844H7.56691C12.0375 38.6404 21.94 31.7656 33.4375 31.7656ZM45.1406 51.8281C46.0618 51.8281 46.8125 52.5788 46.8125 53.5V56.8438C46.8125 57.7666 46.0618 58.5156 45.1406 58.5156H5.10089C5.23631 56.2051 5.6175 53.9598 6.27455 51.8281H45.1406ZM43.7764 61.8594H45.1406C47.9059 61.8594 50.1562 59.609 50.1562 56.8438V53.5C50.1562 50.7347 47.9059 48.4844 45.1406 48.4844H43.7764C44.4685 46.5433 46.3076 45.1406 48.4844 45.1406H60.1875V65.2031H48.4844C46.3076 65.2031 44.4685 63.8004 43.7764 61.8594Z" stroke="black" stroke-width="2" mask="url(#path-2-outside-1)"/>
<path d="M30.0938 8.35938C27.3285 8.35938 25.0781 10.6097 25.0781 13.375C25.0781 16.1403 27.3285 18.3906 30.0938 18.3906C32.859 18.3906 35.1094 16.1403 35.1094 13.375C35.1094 10.6097 32.859 8.35938 30.0938 8.35938ZM30.0938 15.0469C29.1725 15.0469 28.4219 14.2962 28.4219 13.375C28.4219 12.4538 29.1725 11.7031 30.0938 11.7031C31.015 11.7031 31.7656 12.4538 31.7656 13.375C31.7656 14.2962 31.015 15.0469 30.0938 15.0469Z" fill="black"/>
<path d="M32.9375 43.4688C32.9375 44.6682 33.9099 45.6406 35.1094 45.6406C36.3089 45.6406 37.2812 44.6682 37.2812 43.4688C37.2812 42.2693 36.3089 41.2969 35.1094 41.2969C33.9099 41.2969 32.9375 42.2693 32.9375 43.4688Z" fill="black" stroke="black"/>
<path d="M26.25 43.4688C26.25 44.6682 27.2224 45.6406 28.4219 45.6406C29.6214 45.6406 30.5938 44.6682 30.5938 43.4688C30.5938 42.2693 29.6214 41.2969 28.4219 41.2969C27.2224 41.2969 26.25 42.2693 26.25 43.4688Z" fill="black" stroke="black"/>
<path d="M19.5625 43.4688C19.5625 44.6682 20.5349 45.6406 21.7344 45.6406C22.9339 45.6406 23.9062 44.6682 23.9062 43.4688C23.9062 42.2693 22.9339 41.2969 21.7344 41.2969C20.5349 41.2969 19.5625 42.2693 19.5625 43.4688Z" fill="black" stroke="black"/>
<path d="M32.9375 66.875C32.9375 68.0745 33.9099 69.0469 35.1094 69.0469C36.3089 69.0469 37.2812 68.0745 37.2812 66.875C37.2812 65.6755 36.3089 64.7031 35.1094 64.7031C33.9099 64.7031 32.9375 65.6755 32.9375 66.875Z" fill="black" stroke="black"/>
<path d="M26.25 66.875C26.25 68.0745 27.2224 69.0469 28.4219 69.0469C29.6214 69.0469 30.5938 68.0745 30.5938 66.875C30.5938 65.6755 29.6214 64.7031 28.4219 64.7031C27.2224 64.7031 26.25 65.6755 26.25 66.875Z" fill="black" stroke="black"/>
<path d="M19.5625 66.875C19.5625 68.0745 20.5349 69.0469 21.7344 69.0469C22.9339 69.0469 23.9062 68.0745 23.9062 66.875C23.9062 65.6755 22.9339 64.7031 21.7344 64.7031C20.5349 64.7031 19.5625 65.6755 19.5625 66.875Z" fill="black" stroke="black"/>
</svg>
