<svg width="917" height="136" viewBox="0 0 917 136" fill="none" xmlns="http://www.w3.org/2000/svg">
<path d="M446.784 38.585C451.464 38.585 453.444 35.885 454.254 34.76H454.569C454.569 36.785 456.054 38 457.989 38H461.184V33.95H460.104C459.384 33.95 458.934 33.59 458.934 32.87V14.51H454.479V17.885H454.119C453.219 16.625 451.059 13.925 446.514 13.925C440.034 13.925 435.489 19.19 435.489 26.255C435.489 33.41 440.259 38.585 446.784 38.585ZM447.324 34.49C443.229 34.49 439.989 31.25 439.989 26.3C439.989 21.485 443.094 18.065 447.279 18.065C451.284 18.065 454.614 21.08 454.614 26.3C454.614 30.755 451.779 34.49 447.324 34.49ZM477.256 38H481.036V34.085H477.301C475.231 34.085 474.376 33.185 474.376 31.07V18.38H481.306V14.51H474.376V7.805H470.191V14.51H465.646V18.38H469.921V31.115C469.921 35.975 472.846 38 477.256 38Z" fill="black"/>
<path d="M37 113L879 113" stroke="black" stroke-width="3" stroke-linecap="round"/>
</svg>
