<svg width="917" height="136" viewBox="0 0 917 136" fill="none" xmlns="http://www.w3.org/2000/svg">
<path d="M403.77 38H417.495V33.905H412.905V10.595H417.495V6.5H403.77V10.595H408.36V33.905H403.77V38ZM423.412 16.265H426.967L429.082 6.5H424.222L423.412 16.265ZM436.152 38H440.607V23.96C440.607 20.45 443.082 18.11 445.962 18.11C448.887 18.11 451.137 20.09 451.137 23.42V38H455.592V24.095C455.592 20.225 458.067 18.11 460.992 18.11C464.007 18.11 466.032 20.135 466.032 24.05V38H470.487V22.565C470.487 17.615 467.067 13.925 461.937 13.925C458.697 13.925 456.222 15.32 454.782 17.975H454.422C453.162 15.545 450.777 13.925 447.402 13.925C444.117 13.925 442.002 15.635 440.967 17.525H440.607V14.51H436.152V38ZM500.269 38.585C504.949 38.585 506.929 35.885 507.739 34.76H508.054C508.054 36.785 509.539 38 511.474 38H514.669V33.95H513.589C512.869 33.95 512.419 33.59 512.419 32.87V14.51H507.964V17.885H507.604C506.704 16.625 504.544 13.925 499.999 13.925C493.519 13.925 488.974 19.19 488.974 26.255C488.974 33.41 493.744 38.585 500.269 38.585ZM500.809 34.49C496.714 34.49 493.474 31.25 493.474 26.3C493.474 21.485 496.579 18.065 500.764 18.065C504.769 18.065 508.099 21.08 508.099 26.3C508.099 30.755 505.264 34.49 500.809 34.49Z" fill="black"/>
</svg>
