<svg width="927" height="250" viewBox="0 0 927 250" fill="none" xmlns="http://www.w3.org/2000/svg">
<path d="M4.14 35H8.595V7.865H8.91L16.605 35H23.175L30.825 7.865H31.185V35H35.595V3.5H27.675L20.025 30.635H19.71L12.06 3.5H4.14V35ZM42.2016 45.35H45.1716C48.7716 45.35 51.2466 43.955 52.4616 40.805L63.6666 11.51H58.7616L52.1016 30.725H51.7416L45.5766 11.51H40.7166L49.0866 35H50.2116L48.7266 38.825C48.0516 40.49 47.1066 41.3 45.2166 41.3H42.2016V45.35ZM80.4625 35H84.9175V21.095C84.9175 17.675 87.4825 15.11 90.7675 15.11C93.7375 15.11 96.1675 17.36 96.1675 20.69V35H100.622V19.925C100.622 14.885 97.3375 10.925 92.0275 10.925C88.6075 10.925 86.2675 12.59 85.2775 14.57H84.9175V11.51H80.4625V35ZM117.163 35.585C121.843 35.585 123.823 32.885 124.633 31.76H124.948C124.948 33.785 126.433 35 128.368 35H131.563V30.95H130.483C129.763 30.95 129.313 30.59 129.313 29.87V11.51H124.858V14.885H124.498C123.598 13.625 121.438 10.925 116.893 10.925C110.413 10.925 105.868 16.19 105.868 23.255C105.868 30.41 110.638 35.585 117.163 35.585ZM117.703 31.49C113.608 31.49 110.368 28.25 110.368 23.3C110.368 18.485 113.473 15.065 117.658 15.065C121.663 15.065 124.993 18.08 124.993 23.3C124.993 27.755 122.158 31.49 117.703 31.49ZM137.503 35H141.958V20.96C141.958 17.45 144.433 15.11 147.313 15.11C150.238 15.11 152.488 17.09 152.488 20.42V35H156.943V21.095C156.943 17.225 159.418 15.11 162.343 15.11C165.358 15.11 167.383 17.135 167.383 21.05V35H171.838V19.565C171.838 14.615 168.418 10.925 163.288 10.925C160.048 10.925 157.573 12.32 156.133 14.975H155.773C154.513 12.545 152.128 10.925 148.753 10.925C145.468 10.925 143.353 12.635 142.318 14.525H141.958V11.51H137.503V35ZM188.893 35.585C194.023 35.585 198.118 32.84 199.558 28.205L195.373 27.17C194.563 30.095 191.818 31.715 188.893 31.715C184.528 31.715 181.738 29.015 181.693 24.425H200.008V23.03C200.008 16.01 195.823 10.925 188.668 10.925C182.368 10.925 177.103 15.875 177.103 23.3C177.103 30.5 181.738 35.585 188.893 35.585ZM181.738 21.05C182.053 17.45 185.068 14.84 188.668 14.84C192.223 14.84 195.238 17.045 195.463 21.05H181.738ZM223.011 7.595C224.766 7.595 226.026 6.29 226.026 4.58C226.026 2.96 224.766 1.655 223.011 1.655C221.301 1.655 220.041 2.96 220.041 4.58C220.041 6.29 221.301 7.595 223.011 7.595ZM220.761 35H225.216V11.51H216.486V15.38H220.761V35ZM241.135 35.585C246.76 35.585 250.45 32.525 250.45 27.98C250.45 18.395 236.86 22.94 236.86 17.81C236.86 16.1 238.48 14.885 241.045 14.885C243.7 14.885 245.59 16.19 245.995 18.575L249.91 17.45C249.19 13.22 245.455 10.925 241.18 10.925C236.05 10.925 232.585 13.76 232.585 17.765C232.585 27.17 245.95 22.67 245.95 28.34C245.95 30.32 244.33 31.625 241.315 31.625C238.3 31.625 236.365 30.23 235.96 27.44L231.82 28.385C232.405 32.93 235.96 35.585 241.135 35.585ZM13.32 86.585C18 86.585 19.98 83.885 20.79 82.76H21.105C21.105 84.785 22.59 86 24.525 86H27.72V81.95H26.64C25.92 81.95 25.47 81.59 25.47 80.87V62.51H21.015V65.885H20.655C19.755 64.625 17.595 61.925 13.05 61.925C6.57 61.925 2.025 67.19 2.025 74.255C2.025 81.41 6.795 86.585 13.32 86.585ZM13.86 82.49C9.765 82.49 6.525 79.25 6.525 74.3C6.525 69.485 9.63 66.065 13.815 66.065C17.82 66.065 21.15 69.08 21.15 74.3C21.15 78.755 18.315 82.49 13.86 82.49ZM33.6607 86H38.1157V72.095C38.1157 68.675 40.6807 66.11 43.9657 66.11C46.9357 66.11 49.3657 68.36 49.3657 71.69V86H53.8207V70.925C53.8207 65.885 50.5357 61.925 45.2257 61.925C41.8057 61.925 39.4657 63.59 38.4757 65.57H38.1157V62.51H33.6607V86ZM70.361 86.585C74.951 86.585 77.021 83.795 77.831 82.76H78.146V86H82.511V52.25H78.056V65.885H77.696C76.796 64.625 74.636 61.925 70.091 61.925C63.611 61.925 59.066 67.19 59.066 74.255C59.066 81.41 63.881 86.585 70.361 86.585ZM70.901 82.49C66.806 82.49 63.566 79.25 63.566 74.3C63.566 69.485 66.671 66.065 70.856 66.065C74.861 66.065 78.191 69.08 78.191 74.3C78.191 78.755 75.356 82.49 70.901 82.49ZM101.556 86H115.281V81.905H110.691V58.595H115.281V54.5H101.556V58.595H106.146V81.905H101.556V86ZM120.651 64.265H124.206L126.321 54.5H121.461L120.651 64.265ZM132.845 86H137.3V71.96C137.3 68.45 139.775 66.11 142.655 66.11C145.58 66.11 147.83 68.09 147.83 71.42V86H152.285V72.095C152.285 68.225 154.76 66.11 157.685 66.11C160.7 66.11 162.725 68.135 162.725 72.05V86H167.18V70.565C167.18 65.615 163.76 61.925 158.63 61.925C155.39 61.925 152.915 63.32 151.475 65.975H151.115C149.855 63.545 147.47 61.925 144.095 61.925C140.81 61.925 138.695 63.635 137.66 65.525H137.3V62.51H132.845V86ZM191.414 58.595C193.169 58.595 194.429 57.29 194.429 55.58C194.429 53.96 193.169 52.655 191.414 52.655C189.704 52.655 188.444 53.96 188.444 55.58C188.444 57.29 189.704 58.595 191.414 58.595ZM189.164 86H193.619V62.51H184.889V66.38H189.164V86ZM201.664 86H206.119V72.095C206.119 68.675 208.684 66.11 211.969 66.11C214.939 66.11 217.369 68.36 217.369 71.69V86H221.824V70.925C221.824 65.885 218.539 61.925 213.229 61.925C209.809 61.925 207.469 63.59 206.479 65.57H206.119V62.51H201.664V86ZM238.319 86H242.099V82.085H238.364C236.294 82.085 235.439 81.185 235.439 79.07V66.38H242.369V62.51H235.439V55.805H231.254V62.51H226.709V66.38H230.984V79.115C230.984 83.975 233.909 86 238.319 86ZM258.415 86.585C263.545 86.585 267.64 83.84 269.08 79.205L264.895 78.17C264.085 81.095 261.34 82.715 258.415 82.715C254.05 82.715 251.26 80.015 251.215 75.425H269.53V74.03C269.53 67.01 265.345 61.925 258.19 61.925C251.89 61.925 246.625 66.875 246.625 74.3C246.625 81.5 251.26 86.585 258.415 86.585ZM251.26 72.05C251.575 68.45 254.59 65.84 258.19 65.84C261.745 65.84 264.76 68.045 264.985 72.05H251.26ZM275.228 86H279.683V73.94C279.683 69.485 281.618 66.38 285.668 66.38H287.918V61.925H286.253C283.058 61.925 280.763 64.22 279.953 66.2H279.638V62.51H275.228V86ZM302.448 86.585C307.578 86.585 311.673 83.84 313.113 79.205L308.928 78.17C308.118 81.095 305.373 82.715 302.448 82.715C298.083 82.715 295.293 80.015 295.248 75.425H313.563V74.03C313.563 67.01 309.378 61.925 302.223 61.925C295.923 61.925 290.658 66.875 290.658 74.3C290.658 81.5 295.293 86.585 302.448 86.585ZM295.293 72.05C295.608 68.45 298.623 65.84 302.223 65.84C305.778 65.84 308.793 68.045 309.018 72.05H295.293ZM327.136 86.585C332.761 86.585 336.451 83.525 336.451 78.98C336.451 69.395 322.861 73.94 322.861 68.81C322.861 67.1 324.481 65.885 327.046 65.885C329.701 65.885 331.591 67.19 331.996 69.575L335.911 68.45C335.191 64.22 331.456 61.925 327.181 61.925C322.051 61.925 318.586 64.76 318.586 68.765C318.586 78.17 331.951 73.67 331.951 79.34C331.951 81.32 330.331 82.625 327.316 82.625C324.301 82.625 322.366 81.23 321.961 78.44L317.821 79.385C318.406 83.93 321.961 86.585 327.136 86.585ZM352.181 86H355.961V82.085H352.226C350.156 82.085 349.301 81.185 349.301 79.07V66.38H356.231V62.51H349.301V55.805H345.116V62.51H340.571V66.38H344.846V79.115C344.846 83.975 347.771 86 352.181 86ZM372.277 86.585C377.407 86.585 381.502 83.84 382.942 79.205L378.757 78.17C377.947 81.095 375.202 82.715 372.277 82.715C367.912 82.715 365.122 80.015 365.077 75.425H383.392V74.03C383.392 67.01 379.207 61.925 372.052 61.925C365.752 61.925 360.487 66.875 360.487 74.3C360.487 81.5 365.122 86.585 372.277 86.585ZM365.122 72.05C365.437 68.45 368.452 65.84 372.052 65.84C375.607 65.84 378.622 68.045 378.847 72.05H365.122ZM398.72 86.585C403.31 86.585 405.38 83.795 406.19 82.76H406.505V86H410.87V52.25H406.415V65.885H406.055C405.155 64.625 402.995 61.925 398.45 61.925C391.97 61.925 387.425 67.19 387.425 74.255C387.425 81.41 392.24 86.585 398.72 86.585ZM399.26 82.49C395.165 82.49 391.925 79.25 391.925 74.3C391.925 69.485 395.03 66.065 399.215 66.065C403.22 66.065 406.55 69.08 406.55 74.3C406.55 78.755 403.715 82.49 399.26 82.49ZM435.091 58.595C436.846 58.595 438.106 57.29 438.106 55.58C438.106 53.96 436.846 52.655 435.091 52.655C433.381 52.655 432.121 53.96 432.121 55.58C432.121 57.29 433.381 58.595 435.091 58.595ZM432.841 86H437.296V62.51H428.566V66.38H432.841V86ZM445.34 86H449.795V72.095C449.795 68.675 452.36 66.11 455.645 66.11C458.615 66.11 461.045 68.36 461.045 71.69V86H465.5V70.925C465.5 65.885 462.215 61.925 456.905 61.925C453.485 61.925 451.145 63.59 450.155 65.57H449.795V62.51H445.34V86ZM492.415 86.585C498.04 86.585 501.73 83.525 501.73 78.98C501.73 69.395 488.14 73.94 488.14 68.81C488.14 67.1 489.76 65.885 492.325 65.885C494.98 65.885 496.87 67.19 497.275 69.575L501.19 68.45C500.47 64.22 496.735 61.925 492.46 61.925C487.33 61.925 483.865 64.76 483.865 68.765C483.865 78.17 497.23 73.67 497.23 79.34C497.23 81.32 495.61 82.625 492.595 82.625C489.58 82.625 487.645 81.23 487.24 78.44L483.1 79.385C483.685 83.93 487.24 86.585 492.415 86.585ZM517.46 86H521.24V82.085H517.505C515.435 82.085 514.58 81.185 514.58 79.07V66.38H521.51V62.51H514.58V55.805H510.395V62.51H505.85V66.38H510.125V79.115C510.125 83.975 513.05 86 517.46 86ZM537.06 86.585C541.74 86.585 543.72 83.885 544.53 82.76H544.845C544.845 84.785 546.33 86 548.265 86H551.46V81.95H550.38C549.66 81.95 549.21 81.59 549.21 80.87V62.51H544.755V65.885H544.395C543.495 64.625 541.335 61.925 536.79 61.925C530.31 61.925 525.765 67.19 525.765 74.255C525.765 81.41 530.535 86.585 537.06 86.585ZM537.6 82.49C533.505 82.49 530.265 79.25 530.265 74.3C530.265 69.485 533.37 66.065 537.555 66.065C541.56 66.065 544.89 69.08 544.89 74.3C544.89 78.755 542.055 82.49 537.6 82.49ZM556.186 96.35H559.156C562.756 96.35 565.231 94.955 566.446 91.805L577.651 62.51H572.746L566.086 81.725H565.726L559.561 62.51H554.701L563.071 86H564.196L562.711 89.825C562.036 91.49 561.091 92.3 559.201 92.3H556.186V96.35ZM587.493 58.595C589.248 58.595 590.508 57.29 590.508 55.58C590.508 53.96 589.248 52.655 587.493 52.655C585.783 52.655 584.523 53.96 584.523 55.58C584.523 57.29 585.783 58.595 587.493 58.595ZM585.243 86H589.698V62.51H580.968V66.38H585.243V86ZM597.743 86H602.198V72.095C602.198 68.675 604.763 66.11 608.048 66.11C611.018 66.11 613.448 68.36 613.448 71.69V86H617.903V70.925C617.903 65.885 614.618 61.925 609.308 61.925C605.888 61.925 603.548 63.59 602.558 65.57H602.198V62.51H597.743V86ZM628.863 96.35H639.258C643.668 96.35 646.593 94.325 646.593 89.465V62.51H642.228V65.75H641.913C641.103 64.715 639.033 61.925 634.443 61.925C627.963 61.925 623.148 67.1 623.148 74.21C623.148 81.365 627.693 86.585 634.173 86.585C638.718 86.585 640.923 84.065 641.778 82.625H642.138V89.42C642.138 91.535 641.283 92.48 639.213 92.48H628.863V96.35ZM634.938 82.445C630.753 82.445 627.693 79.07 627.693 74.21C627.693 69.26 630.933 66.065 634.983 66.065C639.438 66.065 642.273 69.8 642.273 74.21C642.273 79.43 638.943 82.445 634.938 82.445ZM674.228 86.585C677.648 86.585 679.988 84.92 680.978 82.94H681.338V86H685.793V62.51H681.338V76.415C681.338 79.835 678.773 82.355 675.488 82.355C672.518 82.355 670.088 80.15 670.088 76.82V62.51H665.633V77.585C665.633 82.625 668.918 86.585 674.228 86.585ZM692.928 96.35H697.383V82.625H697.743C698.598 84.065 700.848 86.585 705.393 86.585C711.828 86.585 716.418 81.365 716.418 74.21C716.418 67.1 711.558 61.925 705.078 61.925C700.488 61.925 698.418 64.715 697.653 65.75H697.293V62.51H692.928V96.35ZM704.583 82.445C700.578 82.445 697.293 79.43 697.293 74.21C697.293 69.8 700.083 66.065 704.493 66.065C708.633 66.065 711.828 69.26 711.828 74.21C711.828 79.07 708.768 82.445 704.583 82.445ZM731.782 86.585C736.372 86.585 738.442 83.795 739.252 82.76H739.567V86H743.932V52.25H739.477V65.885H739.117C738.217 64.625 736.057 61.925 731.512 61.925C725.032 61.925 720.487 67.19 720.487 74.255C720.487 81.41 725.302 86.585 731.782 86.585ZM732.322 82.49C728.227 82.49 724.987 79.25 724.987 74.3C724.987 69.485 728.092 66.065 732.277 66.065C736.282 66.065 739.612 69.08 739.612 74.3C739.612 78.755 736.777 82.49 732.322 82.49ZM760.478 86.585C765.158 86.585 767.138 83.885 767.948 82.76H768.263C768.263 84.785 769.748 86 771.683 86H774.878V81.95H773.798C773.078 81.95 772.628 81.59 772.628 80.87V62.51H768.173V65.885H767.813C766.913 64.625 764.753 61.925 760.208 61.925C753.728 61.925 749.183 67.19 749.183 74.255C749.183 81.41 753.953 86.585 760.478 86.585ZM761.018 82.49C756.923 82.49 753.683 79.25 753.683 74.3C753.683 69.485 756.788 66.065 760.973 66.065C764.978 66.065 768.308 69.08 768.308 74.3C768.308 78.755 765.473 82.49 761.018 82.49ZM790.404 86H794.184V82.085H790.449C788.379 82.085 787.524 81.185 787.524 79.07V66.38H794.454V62.51H787.524V55.805H783.339V62.51H778.794V66.38H783.069V79.115C783.069 83.975 785.994 86 790.404 86ZM810.5 86.585C815.63 86.585 819.725 83.84 821.165 79.205L816.98 78.17C816.17 81.095 813.425 82.715 810.5 82.715C806.135 82.715 803.345 80.015 803.3 75.425H821.615V74.03C821.615 67.01 817.43 61.925 810.275 61.925C803.975 61.925 798.71 66.875 798.71 74.3C798.71 81.5 803.345 86.585 810.5 86.585ZM803.345 72.05C803.66 68.45 806.675 65.84 810.275 65.84C813.83 65.84 816.845 68.045 817.07 72.05H803.345ZM836.943 86.585C841.533 86.585 843.603 83.795 844.413 82.76H844.728V86H849.093V52.25H844.638V65.885H844.278C843.378 64.625 841.218 61.925 836.673 61.925C830.193 61.925 825.648 67.19 825.648 74.255C825.648 81.41 830.463 86.585 836.943 86.585ZM837.483 82.49C833.388 82.49 830.148 79.25 830.148 74.3C830.148 69.485 833.253 66.065 837.438 66.065C841.443 66.065 844.773 69.08 844.773 74.3C844.773 78.755 841.938 82.49 837.483 82.49ZM7.74 137H13.905L18.945 117.74H19.215L24.3 137H30.42L37.17 113.51H32.4L27.405 132.815H27.09L22.005 113.51H16.2L11.07 132.815H10.755L5.805 113.51H0.99L7.74 137ZM47.0535 109.595C48.8085 109.595 50.0685 108.29 50.0685 106.58C50.0685 104.96 48.8085 103.655 47.0535 103.655C45.3435 103.655 44.0835 104.96 44.0835 106.58C44.0835 108.29 45.3435 109.595 47.0535 109.595ZM44.8035 137H49.2585V113.51H40.5285V117.38H44.8035V137ZM66.8883 137H70.6683V133.085H66.9333C64.8633 133.085 64.0083 132.185 64.0083 130.07V117.38H70.9383V113.51H64.0083V106.805H59.8233V113.51H55.2783V117.38H59.5533V130.115C59.5533 134.975 62.4783 137 66.8883 137ZM76.8589 137H81.3139V122.87C81.3139 119.54 84.0139 117.11 87.2089 117.11C90.2239 117.11 92.7439 119.36 92.7439 122.69V137H97.1989V121.925C97.1989 116.885 93.7789 112.925 88.4689 112.925C85.0939 112.925 82.6639 114.635 81.6739 116.57H81.3139V103.25H76.8589V137ZM125.863 137H129.643V133.085H125.908C123.838 133.085 122.983 132.185 122.983 130.07V117.38H129.913V113.51H122.983V106.805H118.798V113.51H114.253V117.38H118.528V130.115C118.528 134.975 121.453 137 125.863 137ZM135.834 137H140.289V122.87C140.289 119.54 142.989 117.11 146.184 117.11C149.199 117.11 151.719 119.36 151.719 122.69V137H156.174V121.925C156.174 116.885 152.754 112.925 147.444 112.925C144.069 112.925 141.639 114.635 140.649 116.57H140.289V103.25H135.834V137ZM173.249 137.585C178.379 137.585 182.474 134.84 183.914 130.205L179.729 129.17C178.919 132.095 176.174 133.715 173.249 133.715C168.884 133.715 166.094 131.015 166.049 126.425H184.364V125.03C184.364 118.01 180.179 112.925 173.024 112.925C166.724 112.925 161.459 117.875 161.459 125.3C161.459 132.5 166.094 137.585 173.249 137.585ZM166.094 123.05C166.409 119.45 169.424 116.84 173.024 116.84C176.579 116.84 179.594 119.045 179.819 123.05H166.094ZM211.821 137.585C216.411 137.585 218.481 134.795 219.291 133.76H219.606V137H223.971V103.25H219.516V116.885H219.156C218.256 115.625 216.096 112.925 211.551 112.925C205.071 112.925 200.526 118.19 200.526 125.255C200.526 132.41 205.341 137.585 211.821 137.585ZM212.361 133.49C208.266 133.49 205.026 130.25 205.026 125.3C205.026 120.485 208.131 117.065 212.316 117.065C216.321 117.065 219.651 120.08 219.651 125.3C219.651 129.755 216.816 133.49 212.361 133.49ZM236.062 109.595C237.817 109.595 239.077 108.29 239.077 106.58C239.077 104.96 237.817 103.655 236.062 103.655C234.352 103.655 233.092 104.96 233.092 106.58C233.092 108.29 234.352 109.595 236.062 109.595ZM233.812 137H238.267V113.51H229.537V117.38H233.812V137ZM250.362 147.35H260.757C265.167 147.35 268.092 145.325 268.092 140.465V113.51H263.727V116.75H263.412C262.602 115.715 260.532 112.925 255.942 112.925C249.462 112.925 244.647 118.1 244.647 125.21C244.647 132.365 249.192 137.585 255.672 137.585C260.217 137.585 262.422 135.065 263.277 133.625H263.637V140.42C263.637 142.535 262.782 143.48 260.712 143.48H250.362V147.35ZM256.437 133.445C252.252 133.445 249.192 130.07 249.192 125.21C249.192 120.26 252.432 117.065 256.482 117.065C260.937 117.065 263.772 120.8 263.772 125.21C263.772 130.43 260.442 133.445 256.437 133.445ZM280.403 109.595C282.158 109.595 283.418 108.29 283.418 106.58C283.418 104.96 282.158 103.655 280.403 103.655C278.693 103.655 277.433 104.96 277.433 106.58C277.433 108.29 278.693 109.595 280.403 109.595ZM278.153 137H282.608V113.51H273.878V117.38H278.153V137ZM300.238 137H304.018V133.085H300.283C298.213 133.085 297.358 132.185 297.358 130.07V117.38H304.288V113.51H297.358V106.805H293.173V113.51H288.628V117.38H292.903V130.115C292.903 134.975 295.828 137 300.238 137ZM319.839 137.585C324.519 137.585 326.499 134.885 327.309 133.76H327.624C327.624 135.785 329.109 137 331.044 137H334.239V132.95H333.159C332.439 132.95 331.989 132.59 331.989 131.87V113.51H327.534V116.885H327.174C326.274 115.625 324.114 112.925 319.569 112.925C313.089 112.925 308.544 118.19 308.544 125.255C308.544 132.41 313.314 137.585 319.839 137.585ZM320.379 133.49C316.284 133.49 313.044 130.25 313.044 125.3C313.044 120.485 316.149 117.065 320.334 117.065C324.339 117.065 327.669 120.08 327.669 125.3C327.669 129.755 324.834 133.49 320.379 133.49ZM339.054 137H352.644V133.13H348.099V103.25H339.054V107.165H343.644V133.13H339.054V137ZM380.634 137.585C385.989 137.585 390.579 134.525 391.884 129.035L387.564 128.045C386.934 131.33 384.189 133.4 380.769 133.4C376.314 133.4 373.119 129.98 373.119 125.255C373.119 120.665 376.179 117.065 380.724 117.065C384.144 117.065 386.889 119.225 387.519 122.51L391.794 121.475C390.489 115.985 385.944 112.925 380.589 112.925C373.569 112.925 368.529 118.325 368.529 125.255C368.529 132.14 373.434 137.585 380.634 137.585ZM408.236 137.585C415.391 137.585 420.611 132.275 420.611 125.255C420.611 118.235 415.436 112.925 408.281 112.925C401.171 112.925 395.951 118.19 395.951 125.255C395.951 132.32 401.126 137.585 408.236 137.585ZM408.236 133.4C403.736 133.4 400.496 130.025 400.496 125.255C400.496 120.62 403.691 117.065 408.236 117.065C412.826 117.065 416.066 120.575 416.066 125.255C416.066 129.98 412.826 133.4 408.236 133.4ZM426.312 137H430.767V123.095C430.767 119.675 433.332 117.11 436.617 117.11C439.587 117.11 442.017 119.36 442.017 122.69V137H446.472V121.925C446.472 116.885 443.187 112.925 437.877 112.925C434.457 112.925 432.117 114.59 431.127 116.57H430.767V113.51H426.312V137ZM461.257 137.585C466.882 137.585 470.572 134.525 470.572 129.98C470.572 120.395 456.982 124.94 456.982 119.81C456.982 118.1 458.602 116.885 461.167 116.885C463.822 116.885 465.712 118.19 466.117 120.575L470.032 119.45C469.312 115.22 465.577 112.925 461.302 112.925C456.172 112.925 452.707 115.76 452.707 119.765C452.707 129.17 466.072 124.67 466.072 130.34C466.072 132.32 464.452 133.625 461.437 133.625C458.422 133.625 456.487 132.23 456.082 129.44L451.942 130.385C452.527 134.93 456.082 137.585 461.257 137.585ZM486.302 137H490.082V133.085H486.347C484.277 133.085 483.422 132.185 483.422 130.07V117.38H490.352V113.51H483.422V106.805H479.237V113.51H474.692V117.38H478.967V130.115C478.967 134.975 481.892 137 486.302 137ZM496.273 137H500.728V124.94C500.728 120.485 502.663 117.38 506.713 117.38H508.963V112.925H507.298C504.103 112.925 501.808 115.22 500.998 117.2H500.683V113.51H496.273V137ZM522.705 137.585C526.125 137.585 528.465 135.92 529.455 133.94H529.815V137H534.27V113.51H529.815V127.415C529.815 130.835 527.25 133.355 523.965 133.355C520.995 133.355 518.565 131.15 518.565 127.82V113.51H514.11V128.585C514.11 133.625 517.395 137.585 522.705 137.585ZM551.845 137.585C557.2 137.585 561.79 134.525 563.095 129.035L558.775 128.045C558.145 131.33 555.4 133.4 551.98 133.4C547.525 133.4 544.33 129.98 544.33 125.255C544.33 120.665 547.39 117.065 551.935 117.065C555.355 117.065 558.1 119.225 558.73 122.51L563.005 121.475C561.7 115.985 557.155 112.925 551.8 112.925C544.78 112.925 539.74 118.325 539.74 125.255C539.74 132.14 544.645 137.585 551.845 137.585ZM578.412 137H582.192V133.085H578.457C576.387 133.085 575.532 132.185 575.532 130.07V117.38H582.462V113.51H575.532V106.805H571.347V113.51H566.802V117.38H571.077V130.115C571.077 134.975 574.002 137 578.412 137ZM593.557 109.595C595.312 109.595 596.572 108.29 596.572 106.58C596.572 104.96 595.312 103.655 593.557 103.655C591.847 103.655 590.587 104.96 590.587 106.58C590.587 108.29 591.847 109.595 593.557 109.595ZM591.307 137H595.762V113.51H587.032V117.38H591.307V137ZM614.427 137.585C621.582 137.585 626.802 132.275 626.802 125.255C626.802 118.235 621.627 112.925 614.472 112.925C607.362 112.925 602.142 118.19 602.142 125.255C602.142 132.32 607.317 137.585 614.427 137.585ZM614.427 133.4C609.927 133.4 606.687 130.025 606.687 125.255C606.687 120.62 609.882 117.065 614.427 117.065C619.017 117.065 622.257 120.575 622.257 125.255C622.257 129.98 619.017 133.4 614.427 133.4ZM632.503 137H636.958V123.095C636.958 119.675 639.523 117.11 642.808 117.11C645.778 117.11 648.208 119.36 648.208 122.69V137H652.663V121.925C652.663 116.885 649.378 112.925 644.068 112.925C640.648 112.925 638.308 114.59 637.318 116.57H636.958V113.51H632.503V137ZM682.323 137.585C689.478 137.585 694.698 132.275 694.698 125.255C694.698 118.235 689.523 112.925 682.368 112.925C675.258 112.925 670.038 118.19 670.038 125.255C670.038 132.32 675.213 137.585 682.323 137.585ZM682.323 133.4C677.823 133.4 674.583 130.025 674.583 125.255C674.583 120.62 677.778 117.065 682.323 117.065C686.913 117.065 690.153 120.575 690.153 125.255C690.153 129.98 686.913 133.4 682.323 133.4ZM702.199 137H706.654V117.38H713.269V113.51H706.654V110.18C706.654 108.065 707.509 107.12 709.579 107.12H713.089V103.25H709.534C705.124 103.25 702.199 105.275 702.199 110.135V113.51H697.924V117.38H702.199V137ZM731.347 137H735.937V124.94H741.967C747.682 124.94 751.912 120.98 751.912 115.175C751.912 109.325 747.862 105.5 741.967 105.5H731.347V137ZM735.937 120.8V109.685H741.697C745.072 109.685 747.232 111.98 747.232 115.175C747.232 118.37 745.072 120.8 741.697 120.8H735.937ZM756.271 137H769.861V133.13H765.316V103.25H756.271V107.165H760.861V133.13H756.271V137ZM784.033 137.585C788.713 137.585 790.693 134.885 791.503 133.76H791.818C791.818 135.785 793.303 137 795.238 137H798.433V132.95H797.353C796.633 132.95 796.183 132.59 796.183 131.87V113.51H791.728V116.885H791.368C790.468 115.625 788.308 112.925 783.763 112.925C777.283 112.925 772.738 118.19 772.738 125.255C772.738 132.41 777.508 137.585 784.033 137.585ZM784.573 133.49C780.478 133.49 777.238 130.25 777.238 125.3C777.238 120.485 780.343 117.065 784.528 117.065C788.533 117.065 791.863 120.08 791.863 125.3C791.863 129.755 789.028 133.49 784.573 133.49ZM803.159 147.35H806.129C809.729 147.35 812.204 145.955 813.419 142.805L824.624 113.51H819.719L813.059 132.725H812.699L806.534 113.51H801.674L810.044 137H811.169L809.684 140.825C809.009 142.49 808.064 143.3 806.174 143.3H803.159V147.35ZM830.821 128.45H834.646L835.006 105.5H830.416L830.821 128.45ZM832.756 137.585C834.331 137.585 835.636 136.28 835.636 134.705C835.636 133.085 834.331 131.78 832.756 131.78C831.091 131.78 829.741 133.085 829.741 134.705C829.741 136.28 831.091 137.585 832.756 137.585ZM0.72 188H5.445L7.965 180.89H22.455L24.975 188H29.79L18.54 156.5H12.105L0.72 188ZM9.45 176.705L15.03 160.865H15.39L20.97 176.705H9.45ZM33.7046 188H38.1596V175.94C38.1596 171.485 40.0946 168.38 44.1446 168.38H46.3946V163.925H44.7296C41.5346 163.925 39.2396 166.22 38.4296 168.2H38.1146V164.51H33.7046V188ZM61.2394 188.585C66.5944 188.585 71.1844 185.525 72.4894 180.035L68.1694 179.045C67.5394 182.33 64.7944 184.4 61.3744 184.4C56.9194 184.4 53.7244 180.98 53.7244 176.255C53.7244 171.665 56.7844 168.065 61.3294 168.065C64.7494 168.065 67.4944 170.225 68.1244 173.51L72.3994 172.475C71.0944 166.985 66.5494 163.925 61.1944 163.925C54.1744 163.925 49.1344 169.325 49.1344 176.255C49.1344 183.14 54.0394 188.585 61.2394 188.585ZM87.8513 188.585C92.5313 188.585 94.5113 185.885 95.3213 184.76H95.6363C95.6363 186.785 97.1213 188 99.0563 188H102.251V183.95H101.171C100.451 183.95 100.001 183.59 100.001 182.87V164.51H95.5463V167.885H95.1863C94.2863 166.625 92.1263 163.925 87.5813 163.925C81.1013 163.925 76.5563 169.19 76.5563 176.255C76.5563 183.41 81.3263 188.585 87.8513 188.585ZM88.3913 184.49C84.2963 184.49 81.0563 181.25 81.0563 176.3C81.0563 171.485 84.1613 168.065 88.3463 168.065C92.3513 168.065 95.6813 171.08 95.6813 176.3C95.6813 180.755 92.8463 184.49 88.3913 184.49ZM117.822 188.585C122.412 188.585 124.482 185.795 125.292 184.76H125.607V188H129.972V154.25H125.517V167.885H125.157C124.257 166.625 122.097 163.925 117.552 163.925C111.072 163.925 106.527 169.19 106.527 176.255C106.527 183.41 111.342 188.585 117.822 188.585ZM118.362 184.49C114.267 184.49 111.027 181.25 111.027 176.3C111.027 171.485 114.132 168.065 118.317 168.065C122.322 168.065 125.652 171.08 125.652 176.3C125.652 180.755 122.817 184.49 118.362 184.49ZM147.013 188.585C152.143 188.585 156.238 185.84 157.678 181.205L153.493 180.17C152.683 183.095 149.938 184.715 147.013 184.715C142.648 184.715 139.858 182.015 139.813 177.425H158.128V176.03C158.128 169.01 153.943 163.925 146.788 163.925C140.488 163.925 135.223 168.875 135.223 176.3C135.223 183.5 139.858 188.585 147.013 188.585ZM139.858 174.05C140.173 170.45 143.188 167.84 146.788 167.84C150.343 167.84 153.358 170.045 153.583 174.05H139.858ZM166.347 171.845C167.967 171.845 169.272 170.54 169.272 168.92C169.272 167.345 167.967 166.04 166.347 166.04C164.727 166.04 163.377 167.345 163.377 168.92C163.377 170.54 164.727 171.845 166.347 171.845ZM166.347 188.585C167.967 188.585 169.272 187.28 169.272 185.705C169.272 184.085 167.967 182.78 166.347 182.78C164.727 182.78 163.377 184.085 163.377 185.705C163.377 187.28 164.727 188.585 166.347 188.585ZM177.704 194.435H178.694C182.924 194.435 185.759 192.23 185.759 187.505V160.595C185.759 155.87 182.924 153.665 178.694 153.665H177.704V157.715H178.379C180.629 157.715 181.304 158.795 181.304 160.64V187.46C181.304 189.305 180.629 190.385 178.379 190.385H177.704V194.435ZM205.619 188H219.344V183.905H214.754V160.595H219.344V156.5H205.619V160.595H210.209V183.905H205.619V188ZM248.471 188.585C253.151 188.585 255.131 185.885 255.941 184.76H256.256C256.256 186.785 257.741 188 259.676 188H262.871V183.95H261.791C261.071 183.95 260.621 183.59 260.621 182.87V164.51H256.166V167.885H255.806C254.906 166.625 252.746 163.925 248.201 163.925C241.721 163.925 237.176 169.19 237.176 176.255C237.176 183.41 241.946 188.585 248.471 188.585ZM249.011 184.49C244.916 184.49 241.676 181.25 241.676 176.3C241.676 171.485 244.781 168.065 248.966 168.065C252.971 168.065 256.301 171.08 256.301 176.3C256.301 180.755 253.466 184.49 249.011 184.49ZM267.687 188H281.277V184.13H276.732V154.25H267.687V158.165H272.277V184.13H267.687V188ZM294.573 188.585C300.198 188.585 303.888 185.525 303.888 180.98C303.888 171.395 290.298 175.94 290.298 170.81C290.298 169.1 291.918 167.885 294.483 167.885C297.138 167.885 299.028 169.19 299.433 171.575L303.348 170.45C302.628 166.22 298.893 163.925 294.618 163.925C289.488 163.925 286.023 166.76 286.023 170.765C286.023 180.17 299.388 175.67 299.388 181.34C299.388 183.32 297.768 184.625 294.753 184.625C291.738 184.625 289.803 183.23 289.398 180.44L285.258 181.385C285.843 185.93 289.398 188.585 294.573 188.585ZM320.653 188.585C327.808 188.585 333.028 183.275 333.028 176.255C333.028 169.235 327.853 163.925 320.698 163.925C313.588 163.925 308.368 169.19 308.368 176.255C308.368 183.32 313.543 188.585 320.653 188.585ZM320.653 184.4C316.153 184.4 312.913 181.025 312.913 176.255C312.913 171.62 316.108 168.065 320.653 168.065C325.243 168.065 328.483 171.575 328.483 176.255C328.483 180.98 325.243 184.4 320.653 184.4ZM361.298 188.585C366.653 188.585 371.243 185.525 372.548 180.035L368.228 179.045C367.598 182.33 364.853 184.4 361.433 184.4C356.978 184.4 353.783 180.98 353.783 176.255C353.783 171.665 356.843 168.065 361.388 168.065C364.808 168.065 367.553 170.225 368.183 173.51L372.458 172.475C371.153 166.985 366.608 163.925 361.253 163.925C354.233 163.925 349.193 169.325 349.193 176.255C349.193 183.14 354.098 188.585 361.298 188.585ZM387.91 188.585C392.59 188.585 394.57 185.885 395.38 184.76H395.695C395.695 186.785 397.18 188 399.115 188H402.31V183.95H401.23C400.51 183.95 400.06 183.59 400.06 182.87V164.51H395.605V167.885H395.245C394.345 166.625 392.185 163.925 387.64 163.925C381.16 163.925 376.615 169.19 376.615 176.255C376.615 183.41 381.385 188.585 387.91 188.585ZM388.45 184.49C384.355 184.49 381.115 181.25 381.115 176.3C381.115 171.485 384.22 168.065 388.405 168.065C392.41 168.065 395.74 171.08 395.74 176.3C395.74 180.755 392.905 184.49 388.45 184.49ZM408.251 188H412.706V175.94C412.706 171.485 414.641 168.38 418.691 168.38H420.941V163.925H419.276C416.081 163.925 413.786 166.22 412.976 168.2H412.661V164.51H408.251V188ZM435.47 188.585C440.6 188.585 444.695 185.84 446.135 181.205L441.95 180.17C441.14 183.095 438.395 184.715 435.47 184.715C431.105 184.715 428.315 182.015 428.27 177.425H446.585V176.03C446.585 169.01 442.4 163.925 435.245 163.925C428.945 163.925 423.68 168.875 423.68 176.3C423.68 183.5 428.315 188.585 435.47 188.585ZM428.315 174.05C428.63 170.45 431.645 167.84 435.245 167.84C438.8 167.84 441.815 170.045 442.04 174.05H428.315ZM474.043 188.585C478.723 188.585 480.703 185.885 481.513 184.76H481.828C481.828 186.785 483.313 188 485.248 188H488.443V183.95H487.363C486.643 183.95 486.193 183.59 486.193 182.87V164.51H481.738V167.885H481.378C480.478 166.625 478.318 163.925 473.773 163.925C467.293 163.925 462.748 169.19 462.748 176.255C462.748 183.41 467.518 188.585 474.043 188.585ZM474.583 184.49C470.488 184.49 467.248 181.25 467.248 176.3C467.248 171.485 470.353 168.065 474.538 168.065C478.543 168.065 481.873 171.08 481.873 176.3C481.873 180.755 479.038 184.49 474.583 184.49ZM506.533 188.585C513.013 188.585 517.873 183.41 517.873 176.255C517.873 169.19 513.283 163.925 506.848 163.925C502.303 163.925 500.053 166.625 499.198 167.885H498.838V154.25H494.383V188H498.748V184.76H499.108C499.873 185.795 501.943 188.585 506.533 188.585ZM505.948 184.49C501.538 184.49 498.748 180.755 498.748 176.3C498.748 171.08 502.033 168.065 506.038 168.065C510.223 168.065 513.328 171.485 513.328 176.3C513.328 181.25 510.088 184.49 505.948 184.49ZM534.227 188.585C541.382 188.585 546.602 183.275 546.602 176.255C546.602 169.235 541.427 163.925 534.272 163.925C527.162 163.925 521.942 169.19 521.942 176.255C521.942 183.32 527.117 188.585 534.227 188.585ZM534.227 184.4C529.727 184.4 526.487 181.025 526.487 176.255C526.487 171.62 529.682 168.065 534.227 168.065C538.817 168.065 542.057 171.575 542.057 176.255C542.057 180.98 538.817 184.4 534.227 184.4ZM560.673 188.585C564.093 188.585 566.433 186.92 567.423 184.94H567.783V188H572.238V164.51H567.783V178.415C567.783 181.835 565.218 184.355 561.933 184.355C558.963 184.355 556.533 182.15 556.533 178.82V164.51H552.078V179.585C552.078 184.625 555.363 188.585 560.673 188.585ZM588.959 188H592.739V184.085H589.004C586.934 184.085 586.079 183.185 586.079 181.07V168.38H593.009V164.51H586.079V157.805H581.894V164.51H577.349V168.38H581.624V181.115C581.624 185.975 584.549 188 588.959 188ZM620.643 188H624.423V184.085H620.688C618.618 184.085 617.763 183.185 617.763 181.07V168.38H624.693V164.51H617.763V157.805H613.578V164.51H609.033V168.38H613.308V181.115C613.308 185.975 616.233 188 620.643 188ZM630.614 188H635.069V173.87C635.069 170.54 637.769 168.11 640.964 168.11C643.979 168.11 646.499 170.36 646.499 173.69V188H650.954V172.925C650.954 167.885 647.534 163.925 642.224 163.925C638.849 163.925 636.419 165.635 635.429 167.57H635.069V154.25H630.614V188ZM668.029 188.585C673.159 188.585 677.254 185.84 678.694 181.205L674.509 180.17C673.699 183.095 670.954 184.715 668.029 184.715C663.664 184.715 660.874 182.015 660.829 177.425H679.144V176.03C679.144 169.01 674.959 163.925 667.804 163.925C661.504 163.925 656.239 168.875 656.239 176.3C656.239 183.5 660.874 188.585 668.029 188.585ZM660.874 174.05C661.189 170.45 664.204 167.84 667.804 167.84C671.359 167.84 674.374 170.045 674.599 174.05H660.874ZM706.556 188H710.336V184.085H706.601C704.531 184.085 703.676 183.185 703.676 181.07V168.38H710.606V164.51H703.676V157.805H699.491V164.51H694.946V168.38H699.221V181.115C699.221 185.975 702.146 188 706.556 188ZM716.527 188H720.982V175.94C720.982 171.485 722.917 168.38 726.967 168.38H729.217V163.925H727.552C724.357 163.925 722.062 166.22 721.252 168.2H720.937V164.51H716.527V188ZM743.747 188.585C748.877 188.585 752.972 185.84 754.412 181.205L750.227 180.17C749.417 183.095 746.672 184.715 743.747 184.715C739.382 184.715 736.592 182.015 736.547 177.425H754.862V176.03C754.862 169.01 750.677 163.925 743.522 163.925C737.222 163.925 731.957 168.875 731.957 176.3C731.957 183.5 736.592 188.585 743.747 188.585ZM736.592 174.05C736.907 170.45 739.922 167.84 743.522 167.84C747.077 167.84 750.092 170.045 750.317 174.05H736.592ZM770.685 188.585C775.815 188.585 779.91 185.84 781.35 181.205L777.165 180.17C776.355 183.095 773.61 184.715 770.685 184.715C766.32 184.715 763.53 182.015 763.485 177.425H781.8V176.03C781.8 169.01 777.615 163.925 770.46 163.925C764.16 163.925 758.895 168.875 758.895 176.3C758.895 183.5 763.53 188.585 770.685 188.585ZM763.53 174.05C763.845 170.45 766.86 167.84 770.46 167.84C774.015 167.84 777.03 170.045 777.255 174.05H763.53ZM795.374 188.585C800.999 188.585 804.689 185.525 804.689 180.98C804.689 171.395 791.099 175.94 791.099 170.81C791.099 169.1 792.719 167.885 795.284 167.885C797.939 167.885 799.829 169.19 800.234 171.575L804.149 170.45C803.429 166.22 799.694 163.925 795.419 163.925C790.289 163.925 786.824 166.76 786.824 170.765C786.824 180.17 800.189 175.67 800.189 181.34C800.189 183.32 798.569 184.625 795.554 184.625C792.539 184.625 790.604 183.23 790.199 180.44L786.059 181.385C786.644 185.93 790.199 188.585 795.374 188.585ZM809.899 192.995H813.499L815.614 183.05H810.709L809.899 192.995ZM842.615 188.585C848.24 188.585 851.93 185.525 851.93 180.98C851.93 171.395 838.34 175.94 838.34 170.81C838.34 169.1 839.96 167.885 842.525 167.885C845.18 167.885 847.07 169.19 847.475 171.575L851.39 170.45C850.67 166.22 846.935 163.925 842.66 163.925C837.53 163.925 834.065 166.76 834.065 170.765C834.065 180.17 847.43 175.67 847.43 181.34C847.43 183.32 845.81 184.625 842.795 184.625C839.78 184.625 837.845 183.23 837.44 180.44L833.3 181.385C833.885 185.93 837.44 188.585 842.615 188.585ZM868.695 188.585C875.85 188.585 881.07 183.275 881.07 176.255C881.07 169.235 875.895 163.925 868.74 163.925C861.63 163.925 856.41 169.19 856.41 176.255C856.41 183.32 861.585 188.585 868.695 188.585ZM868.695 184.4C864.195 184.4 860.955 181.025 860.955 176.255C860.955 171.62 864.15 168.065 868.695 168.065C873.285 168.065 876.525 171.575 876.525 176.255C876.525 180.98 873.285 184.4 868.695 184.4ZM13.32 239.585C17.91 239.585 19.98 236.795 20.79 235.76H21.105V239H25.47V205.25H21.015V218.885H20.655C19.755 217.625 17.595 214.925 13.05 214.925C6.57 214.925 2.025 220.19 2.025 227.255C2.025 234.41 6.84 239.585 13.32 239.585ZM13.86 235.49C9.765 235.49 6.525 232.25 6.525 227.3C6.525 222.485 9.63 219.065 13.815 219.065C17.82 219.065 21.15 222.08 21.15 227.3C21.15 231.755 18.315 235.49 13.86 235.49ZM43.0063 239.585C50.1613 239.585 55.3813 234.275 55.3813 227.255C55.3813 220.235 50.2063 214.925 43.0513 214.925C35.9413 214.925 30.7213 220.19 30.7213 227.255C30.7213 234.32 35.8963 239.585 43.0063 239.585ZM43.0063 235.4C38.5063 235.4 35.2663 232.025 35.2663 227.255C35.2663 222.62 38.4613 219.065 43.0063 219.065C47.5963 219.065 50.8363 222.575 50.8363 227.255C50.8363 231.98 47.5963 235.4 43.0063 235.4ZM61.0826 239H65.5376V225.095C65.5376 221.675 68.1026 219.11 71.3876 219.11C74.3576 219.11 76.7876 221.36 76.7876 224.69V239H81.2426V223.925C81.2426 218.885 77.9576 214.925 72.6476 214.925C69.2276 214.925 66.8876 216.59 65.8976 218.57H65.5376V215.51H61.0826V239ZM87.2529 217.265H90.8079L92.9229 207.5H88.0629L87.2529 217.265ZM109.032 239H112.812V235.085H109.077C107.007 235.085 106.152 234.185 106.152 232.07V219.38H113.082V215.51H106.152V208.805H101.967V215.51H97.4218V219.38H101.697V232.115C101.697 236.975 104.622 239 109.032 239ZM139.006 239.585C144.631 239.585 148.321 236.525 148.321 231.98C148.321 222.395 134.731 226.94 134.731 221.81C134.731 220.1 136.351 218.885 138.916 218.885C141.571 218.885 143.461 220.19 143.866 222.575L147.781 221.45C147.061 217.22 143.326 214.925 139.051 214.925C133.921 214.925 130.456 217.76 130.456 221.765C130.456 231.17 143.821 226.67 143.821 232.34C143.821 234.32 142.201 235.625 139.186 235.625C136.171 235.625 134.236 234.23 133.831 231.44L129.691 232.385C130.276 236.93 133.831 239.585 139.006 239.585ZM164.591 239.585C169.721 239.585 173.816 236.84 175.256 232.205L171.071 231.17C170.261 234.095 167.516 235.715 164.591 235.715C160.226 235.715 157.436 233.015 157.391 228.425H175.706V227.03C175.706 220.01 171.521 214.925 164.366 214.925C158.066 214.925 152.801 219.875 152.801 227.3C152.801 234.5 157.436 239.585 164.591 239.585ZM157.436 225.05C157.751 221.45 160.766 218.84 164.366 218.84C167.921 218.84 170.936 221.045 171.161 225.05H157.436ZM181.405 239H185.86V225.095C185.86 221.675 188.425 219.11 191.71 219.11C194.68 219.11 197.11 221.36 197.11 224.69V239H201.565V223.925C201.565 218.885 198.28 214.925 192.97 214.925C189.55 214.925 187.21 216.59 186.22 218.57H185.86V215.51H181.405V239ZM218.105 239.585C222.695 239.585 224.765 236.795 225.575 235.76H225.89V239H230.255V205.25H225.8V218.885H225.44C224.54 217.625 222.38 214.925 217.835 214.925C211.355 214.925 206.81 220.19 206.81 227.255C206.81 234.41 211.625 239.585 218.105 239.585ZM218.645 235.49C214.55 235.49 211.31 232.25 211.31 227.3C211.31 222.485 214.415 219.065 218.6 219.065C222.605 219.065 225.935 222.08 225.935 227.3C225.935 231.755 223.1 235.49 218.645 235.49ZM249.3 239H253.755V224.96C253.755 221.45 256.23 219.11 259.11 219.11C262.035 219.11 264.285 221.09 264.285 224.42V239H268.74V225.095C268.74 221.225 271.215 219.11 274.14 219.11C277.155 219.11 279.18 221.135 279.18 225.05V239H283.635V223.565C283.635 218.615 280.215 214.925 275.085 214.925C271.845 214.925 269.37 216.32 267.93 218.975H267.57C266.31 216.545 263.925 214.925 260.55 214.925C257.265 214.925 255.15 216.635 254.115 218.525H253.755V215.51H249.3V239ZM300.195 239.585C304.875 239.585 306.855 236.885 307.665 235.76H307.98C307.98 237.785 309.465 239 311.4 239H314.595V234.95H313.515C312.795 234.95 312.345 234.59 312.345 233.87V215.51H307.89V218.885H307.53C306.63 217.625 304.47 214.925 299.925 214.925C293.445 214.925 288.9 220.19 288.9 227.255C288.9 234.41 293.67 239.585 300.195 239.585ZM300.735 235.49C296.64 235.49 293.4 232.25 293.4 227.3C293.4 222.485 296.505 219.065 300.69 219.065C304.695 219.065 308.025 222.08 308.025 227.3C308.025 231.755 305.19 235.49 300.735 235.49ZM325.711 211.595C327.466 211.595 328.726 210.29 328.726 208.58C328.726 206.96 327.466 205.655 325.711 205.655C324.001 205.655 322.741 206.96 322.741 208.58C322.741 210.29 324.001 211.595 325.711 211.595ZM323.461 239H327.916V215.51H319.186V219.38H323.461V239ZM334.836 239H348.426V235.13H343.881V205.25H334.836V209.165H339.426V235.13H334.836V239ZM375.56 239H379.34V235.085H375.605C373.535 235.085 372.68 234.185 372.68 232.07V219.38H379.61V215.51H372.68V208.805H368.495V215.51H363.95V219.38H368.225V232.115C368.225 236.975 371.15 239 375.56 239ZM396.151 239.585C403.306 239.585 408.526 234.275 408.526 227.255C408.526 220.235 403.351 214.925 396.196 214.925C389.086 214.925 383.866 220.19 383.866 227.255C383.866 234.32 389.041 239.585 396.151 239.585ZM396.151 235.4C391.651 235.4 388.411 232.025 388.411 227.255C388.411 222.62 391.606 219.065 396.151 219.065C400.741 219.065 403.981 222.575 403.981 227.255C403.981 231.98 400.741 235.4 396.151 235.4ZM426.356 239H430.811V224.96C430.811 221.45 433.286 219.11 436.166 219.11C439.091 219.11 441.341 221.09 441.341 224.42V239H445.796V225.095C445.796 221.225 448.271 219.11 451.196 219.11C454.211 219.11 456.236 221.135 456.236 225.05V239H460.691V223.565C460.691 218.615 457.271 214.925 452.141 214.925C448.901 214.925 446.426 216.32 444.986 218.975H444.626C443.366 216.545 440.981 214.925 437.606 214.925C434.321 214.925 432.206 216.635 431.171 218.525H430.811V215.51H426.356V239ZM466.186 249.35H469.156C472.756 249.35 475.231 247.955 476.446 244.805L487.651 215.51H482.746L476.086 234.725H475.726L469.561 215.51H464.701L473.071 239H474.196L472.711 242.825C472.036 244.49 471.091 245.3 469.201 245.3H466.186V249.35ZM504.447 239H508.902V224.96C508.902 221.45 511.377 219.11 514.257 219.11C517.182 219.11 519.432 221.09 519.432 224.42V239H523.887V225.095C523.887 221.225 526.362 219.11 529.287 219.11C532.302 219.11 534.327 221.135 534.327 225.05V239H538.782V223.565C538.782 218.615 535.362 214.925 530.232 214.925C526.992 214.925 524.517 216.32 523.077 218.975H522.717C521.457 216.545 519.072 214.925 515.697 214.925C512.412 214.925 510.297 216.635 509.262 218.525H508.902V215.51H504.447V239ZM555.341 239.585C560.021 239.585 562.001 236.885 562.811 235.76H563.126C563.126 237.785 564.611 239 566.546 239H569.741V234.95H568.661C567.941 234.95 567.491 234.59 567.491 233.87V215.51H563.036V218.885H562.676C561.776 217.625 559.616 214.925 555.071 214.925C548.591 214.925 544.046 220.19 544.046 227.255C544.046 234.41 548.816 239.585 555.341 239.585ZM555.881 235.49C551.786 235.49 548.546 232.25 548.546 227.3C548.546 222.485 551.651 219.065 555.836 219.065C559.841 219.065 563.171 222.08 563.171 227.3C563.171 231.755 560.336 235.49 555.881 235.49ZM580.857 211.595C582.612 211.595 583.872 210.29 583.872 208.58C583.872 206.96 582.612 205.655 580.857 205.655C579.147 205.655 577.887 206.96 577.887 208.58C577.887 210.29 579.147 211.595 580.857 211.595ZM578.607 239H583.062V215.51H574.332V219.38H578.607V239ZM589.982 239H603.572V235.13H599.027V205.25H589.982V209.165H594.572V235.13H589.982V239ZM621.143 239.585C627.623 239.585 632.483 234.41 632.483 227.255C632.483 220.19 627.893 214.925 621.458 214.925C616.913 214.925 614.663 217.625 613.808 218.885H613.448V205.25H608.993V239H613.358V235.76H613.718C614.483 236.795 616.553 239.585 621.143 239.585ZM620.558 235.49C616.148 235.49 613.358 231.755 613.358 227.3C613.358 222.08 616.643 219.065 620.648 219.065C624.833 219.065 627.938 222.485 627.938 227.3C627.938 232.25 624.698 235.49 620.558 235.49ZM648.836 239.585C655.991 239.585 661.211 234.275 661.211 227.255C661.211 220.235 656.036 214.925 648.881 214.925C641.771 214.925 636.551 220.19 636.551 227.255C636.551 234.32 641.726 239.585 648.836 239.585ZM648.836 235.4C644.336 235.4 641.096 232.025 641.096 227.255C641.096 222.62 644.291 219.065 648.836 219.065C653.426 219.065 656.666 222.575 656.666 227.255C656.666 231.98 653.426 235.4 648.836 235.4ZM663.548 239H668.633L674.303 229.955H674.753L680.468 239H685.643L677.543 226.94L685.013 215.51H679.928L674.753 223.835H674.393L669.263 215.51H664.178L671.648 226.76L663.548 239ZM692.636 239.585C694.256 239.585 695.561 238.28 695.561 236.705C695.561 235.085 694.256 233.78 692.636 233.78C691.016 233.78 689.666 235.085 689.666 236.705C689.666 238.28 691.016 239.585 692.636 239.585Z" fill="black"/>
<path d="M274 35H871" stroke="black" stroke-width="3" stroke-linecap="round"/>
</svg>
