<svg width="927" height="143" viewBox="0 0 927 143" fill="none" xmlns="http://www.w3.org/2000/svg">
<path d="M4.14 34H23.13V29.77H8.73V20.05H20.745V15.865H8.73V6.73H22.68V2.5H4.14V34ZM28.9586 34H33.4136V19.96C33.4136 16.45 35.8886 14.11 38.7686 14.11C41.6936 14.11 43.9436 16.09 43.9436 19.42V34H48.3986V20.095C48.3986 16.225 50.8736 14.11 53.7986 14.11C56.8136 14.11 58.8386 16.135 58.8386 20.05V34H63.2936V18.565C63.2936 13.615 59.8736 9.925 54.7436 9.925C51.5036 9.925 49.0286 11.32 47.5886 13.975H47.2286C45.9686 11.545 43.5836 9.925 40.2086 9.925C36.9236 9.925 34.8086 11.635 33.7736 13.525H33.4136V10.51H28.9586V34ZM79.8532 34.585C84.5332 34.585 86.5132 31.885 87.3232 30.76H87.6382C87.6382 32.785 89.1232 34 91.0582 34H94.2532V29.95H93.1732C92.4532 29.95 92.0032 29.59 92.0032 28.87V10.51H87.5482V13.885H87.1882C86.2882 12.625 84.1282 9.925 79.5832 9.925C73.1032 9.925 68.5582 15.19 68.5582 22.255C68.5582 29.41 73.3282 34.585 79.8532 34.585ZM80.3932 30.49C76.2982 30.49 73.0582 27.25 73.0582 22.3C73.0582 17.485 76.1632 14.065 80.3482 14.065C84.3532 14.065 87.6832 17.08 87.6832 22.3C87.6832 26.755 84.8482 30.49 80.3932 30.49ZM105.369 6.595C107.124 6.595 108.384 5.29 108.384 3.58C108.384 1.96 107.124 0.654997 105.369 0.654997C103.659 0.654997 102.399 1.96 102.399 3.58C102.399 5.29 103.659 6.595 105.369 6.595ZM103.119 34H107.574V10.51H98.8439V14.38H103.119V34ZM114.494 34H128.084V30.13H123.539V0.249997H114.494V4.165H119.084V30.13H114.494V34ZM145.633 34H150.088V19.96C150.088 16.45 152.563 14.11 155.443 14.11C158.368 14.11 160.618 16.09 160.618 19.42V34H165.073V20.095C165.073 16.225 167.548 14.11 170.473 14.11C173.488 14.11 175.513 16.135 175.513 20.05V34H179.968V18.565C179.968 13.615 176.548 9.925 171.418 9.925C168.178 9.925 165.703 11.32 164.263 13.975H163.903C162.643 11.545 160.258 9.925 156.883 9.925C153.598 9.925 151.483 11.635 150.448 13.525H150.088V10.51H145.633V34ZM197.023 34.585C202.153 34.585 206.248 31.84 207.688 27.205L203.503 26.17C202.693 29.095 199.948 30.715 197.023 30.715C192.658 30.715 189.868 28.015 189.823 23.425H208.138V22.03C208.138 15.01 203.953 9.925 196.798 9.925C190.498 9.925 185.233 14.875 185.233 22.3C185.233 29.5 189.868 34.585 197.023 34.585ZM189.868 20.05C190.183 16.45 193.198 13.84 196.798 13.84C200.353 13.84 203.368 16.045 203.593 20.05H189.868ZM235.595 34.585C240.275 34.585 242.255 31.885 243.065 30.76H243.38C243.38 32.785 244.865 34 246.8 34H249.995V29.95H248.915C248.195 29.95 247.745 29.59 247.745 28.87V10.51H243.29V13.885H242.93C242.03 12.625 239.87 9.925 235.325 9.925C228.845 9.925 224.3 15.19 224.3 22.255C224.3 29.41 229.07 34.585 235.595 34.585ZM236.135 30.49C232.04 30.49 228.8 27.25 228.8 22.3C228.8 17.485 231.905 14.065 236.09 14.065C240.095 14.065 243.425 17.08 243.425 22.3C243.425 26.755 240.59 30.49 236.135 30.49ZM265.521 34H269.301V30.085H265.566C263.496 30.085 262.641 29.185 262.641 27.07V14.38H269.571V10.51H262.641V3.805H258.456V10.51H253.911V14.38H258.186V27.115C258.186 31.975 261.111 34 265.521 34ZM11.565 85.585C17.19 85.585 20.88 82.525 20.88 77.98C20.88 68.395 7.29 72.94 7.29 67.81C7.29 66.1 8.91 64.885 11.475 64.885C14.13 64.885 16.02 66.19 16.425 68.575L20.34 67.45C19.62 63.22 15.885 60.925 11.61 60.925C6.48 60.925 3.015 63.76 3.015 67.765C3.015 77.17 16.38 72.67 16.38 78.34C16.38 80.32 14.76 81.625 11.745 81.625C8.73 81.625 6.795 80.23 6.39 77.44L2.25 78.385C2.835 82.93 6.39 85.585 11.565 85.585ZM37.645 85.585C44.8 85.585 50.02 80.275 50.02 73.255C50.02 66.235 44.845 60.925 37.69 60.925C30.58 60.925 25.36 66.19 25.36 73.255C25.36 80.32 30.535 85.585 37.645 85.585ZM37.645 81.4C33.145 81.4 29.905 78.025 29.905 73.255C29.905 68.62 33.1 65.065 37.645 65.065C42.235 65.065 45.475 68.575 45.475 73.255C45.475 77.98 42.235 81.4 37.645 81.4ZM67.8502 85H81.5752V80.905H76.9852V57.595H81.5752V53.5H67.8502V57.595H72.4402V80.905H67.8502V85ZM111.513 85.585C116.868 85.585 121.458 82.525 122.763 77.035L118.443 76.045C117.813 79.33 115.068 81.4 111.648 81.4C107.193 81.4 103.998 77.98 103.998 73.255C103.998 68.665 107.058 65.065 111.603 65.065C115.023 65.065 117.768 67.225 118.398 70.51L122.673 69.475C121.368 63.985 116.823 60.925 111.468 60.925C104.448 60.925 99.4078 66.325 99.4078 73.255C99.4078 80.14 104.313 85.585 111.513 85.585ZM138.125 85.585C142.805 85.585 144.785 82.885 145.595 81.76H145.91C145.91 83.785 147.395 85 149.33 85H152.525V80.95H151.445C150.725 80.95 150.275 80.59 150.275 79.87V61.51H145.82V64.885H145.46C144.56 63.625 142.4 60.925 137.855 60.925C131.375 60.925 126.83 66.19 126.83 73.255C126.83 80.41 131.6 85.585 138.125 85.585ZM138.665 81.49C134.57 81.49 131.33 78.25 131.33 73.3C131.33 68.485 134.435 65.065 138.62 65.065C142.625 65.065 145.955 68.08 145.955 73.3C145.955 77.755 143.12 81.49 138.665 81.49ZM158.465 85H162.92V71.095C162.92 67.675 165.485 65.11 168.77 65.11C171.74 65.11 174.17 67.36 174.17 70.69V85H178.625V69.925C178.625 64.885 175.34 60.925 170.03 60.925C166.61 60.925 164.27 62.59 163.28 64.57H162.92V61.51H158.465V85ZM197.665 85H202.12V72.94C202.12 68.485 204.055 65.38 208.105 65.38H210.355V60.925H208.69C205.495 60.925 203.2 63.22 202.39 65.2H202.075V61.51H197.665V85ZM224.884 85.585C230.014 85.585 234.109 82.84 235.549 78.205L231.364 77.17C230.554 80.095 227.809 81.715 224.884 81.715C220.519 81.715 217.729 79.015 217.684 74.425H235.999V73.03C235.999 66.01 231.814 60.925 224.659 60.925C218.359 60.925 213.094 65.875 213.094 73.3C213.094 80.5 217.729 85.585 224.884 85.585ZM217.729 71.05C218.044 67.45 221.059 64.84 224.659 64.84C228.214 64.84 231.229 67.045 231.454 71.05H217.729ZM252.138 85.585C257.493 85.585 262.083 82.525 263.388 77.035L259.068 76.045C258.438 79.33 255.693 81.4 252.273 81.4C247.818 81.4 244.623 77.98 244.623 73.255C244.623 68.665 247.683 65.065 252.228 65.065C255.648 65.065 258.393 67.225 259.023 70.51L263.298 69.475C261.993 63.985 257.448 60.925 252.093 60.925C245.073 60.925 240.033 66.325 240.033 73.255C240.033 80.14 244.938 85.585 252.138 85.585ZM279.245 85.585C284.375 85.585 288.47 82.84 289.91 78.205L285.725 77.17C284.915 80.095 282.17 81.715 279.245 81.715C274.88 81.715 272.09 79.015 272.045 74.425H290.36V73.03C290.36 66.01 286.175 60.925 279.02 60.925C272.72 60.925 267.455 65.875 267.455 73.3C267.455 80.5 272.09 85.585 279.245 85.585ZM272.09 71.05C272.405 67.45 275.42 64.84 279.02 64.84C282.575 64.84 285.59 67.045 285.815 71.05H272.09ZM301.233 57.595C302.988 57.595 304.248 56.29 304.248 54.58C304.248 52.96 302.988 51.655 301.233 51.655C299.523 51.655 298.263 52.96 298.263 54.58C298.263 56.29 299.523 57.595 301.233 57.595ZM298.983 85H303.438V61.51H294.708V65.38H298.983V85ZM317.198 85H323.183L331.553 61.51H326.693L320.303 80.815H319.943L313.508 61.51H308.783L317.198 85ZM345.646 85.585C350.776 85.585 354.871 82.84 356.311 78.205L352.126 77.17C351.316 80.095 348.571 81.715 345.646 81.715C341.281 81.715 338.491 79.015 338.446 74.425H356.761V73.03C356.761 66.01 352.576 60.925 345.421 60.925C339.121 60.925 333.856 65.875 333.856 73.3C333.856 80.5 338.491 85.585 345.646 85.585ZM338.491 71.05C338.806 67.45 341.821 64.84 345.421 64.84C348.976 64.84 351.991 67.045 352.216 71.05H338.491ZM374.588 85H379.043V71.095C379.043 67.675 381.608 65.11 384.893 65.11C387.863 65.11 390.293 67.36 390.293 70.69V85H394.748V69.925C394.748 64.885 391.463 60.925 386.153 60.925C382.733 60.925 380.393 62.59 379.403 64.57H379.043V61.51H374.588V85ZM411.784 85.585C416.914 85.585 421.009 82.84 422.449 78.205L418.264 77.17C417.454 80.095 414.709 81.715 411.784 81.715C407.419 81.715 404.629 79.015 404.584 74.425H422.899V73.03C422.899 66.01 418.714 60.925 411.559 60.925C405.259 60.925 399.994 65.875 399.994 73.3C399.994 80.5 404.629 85.585 411.784 85.585ZM404.629 71.05C404.944 67.45 407.959 64.84 411.559 64.84C415.114 64.84 418.129 67.045 418.354 71.05H404.629ZM431.944 85H438.109L443.149 65.74H443.419L448.504 85H454.624L461.374 61.51H456.604L451.609 80.815H451.294L446.209 61.51H440.404L435.274 80.815H434.959L430.009 61.51H425.194L431.944 85ZM473.958 85.585C479.583 85.585 483.273 82.525 483.273 77.98C483.273 68.395 469.683 72.94 469.683 67.81C469.683 66.1 471.303 64.885 473.868 64.885C476.523 64.885 478.413 66.19 478.818 68.575L482.733 67.45C482.013 63.22 478.278 60.925 474.003 60.925C468.873 60.925 465.408 63.76 465.408 67.765C465.408 77.17 478.773 72.67 478.773 78.34C478.773 80.32 477.153 81.625 474.138 81.625C471.123 81.625 469.188 80.23 468.783 77.44L464.643 78.385C465.228 82.93 468.783 85.585 473.958 85.585ZM505.596 85H511.761L516.801 65.74H517.071L522.156 85H528.276L535.026 61.51H530.256L525.261 80.815H524.946L519.861 61.51H514.056L508.926 80.815H508.611L503.661 61.51H498.846L505.596 85ZM539.735 85H544.19V70.87C544.19 67.54 546.89 65.11 550.085 65.11C553.1 65.11 555.62 67.36 555.62 70.69V85H560.075V69.925C560.075 64.885 556.655 60.925 551.345 60.925C547.97 60.925 545.54 62.635 544.55 64.57H544.19V51.25H539.735V85ZM572.2 57.595C573.955 57.595 575.215 56.29 575.215 54.58C575.215 52.96 573.955 51.655 572.2 51.655C570.49 51.655 569.23 52.96 569.23 54.58C569.23 56.29 570.49 57.595 572.2 57.595ZM569.95 85H574.405V61.51H565.675V65.38H569.95V85ZM581.325 85H594.915V81.13H590.37V51.25H581.325V55.165H585.915V81.13H581.325V85ZM609.582 85.585C614.712 85.585 618.807 82.84 620.247 78.205L616.062 77.17C615.252 80.095 612.507 81.715 609.582 81.715C605.217 81.715 602.427 79.015 602.382 74.425H620.697V73.03C620.697 66.01 616.512 60.925 609.357 60.925C603.057 60.925 597.792 65.875 597.792 73.3C597.792 80.5 602.427 85.585 609.582 85.585ZM602.427 71.05C602.742 67.45 605.757 64.84 609.357 64.84C612.912 64.84 615.927 67.045 616.152 71.05H602.427ZM648.154 85.585C652.834 85.585 654.814 82.885 655.624 81.76H655.939C655.939 83.785 657.424 85 659.359 85H662.554V80.95H661.474C660.754 80.95 660.304 80.59 660.304 79.87V61.51H655.849V64.885H655.489C654.589 63.625 652.429 60.925 647.884 60.925C641.404 60.925 636.859 66.19 636.859 73.255C636.859 80.41 641.629 85.585 648.154 85.585ZM648.694 81.49C644.599 81.49 641.359 78.25 641.359 73.3C641.359 68.485 644.464 65.065 648.649 65.065C652.654 65.065 655.984 68.08 655.984 73.3C655.984 77.755 653.149 81.49 648.694 81.49ZM667.37 85H680.96V81.13H676.415V51.25H667.37V55.165H671.96V81.13H667.37V85ZM694.255 85.585C699.88 85.585 703.57 82.525 703.57 77.98C703.57 68.395 689.98 72.94 689.98 67.81C689.98 66.1 691.6 64.885 694.165 64.885C696.82 64.885 698.71 66.19 699.115 68.575L703.03 67.45C702.31 63.22 698.575 60.925 694.3 60.925C689.17 60.925 685.705 63.76 685.705 67.765C685.705 77.17 699.07 72.67 699.07 78.34C699.07 80.32 697.45 81.625 694.435 81.625C691.42 81.625 689.485 80.23 689.08 77.44L684.94 78.385C685.525 82.93 689.08 85.585 694.255 85.585ZM720.335 85.585C727.49 85.585 732.71 80.275 732.71 73.255C732.71 66.235 727.535 60.925 720.38 60.925C713.27 60.925 708.05 66.19 708.05 73.255C708.05 80.32 713.225 85.585 720.335 85.585ZM720.335 81.4C715.835 81.4 712.595 78.025 712.595 73.255C712.595 68.62 715.79 65.065 720.335 65.065C724.925 65.065 728.165 68.575 728.165 73.255C728.165 77.98 724.925 81.4 720.335 81.4ZM750.541 85H754.996V70.87C754.996 67.54 757.696 65.11 760.891 65.11C763.906 65.11 766.426 67.36 766.426 70.69V85H770.881V69.925C770.881 64.885 767.461 60.925 762.151 60.925C758.776 60.925 756.346 62.635 755.356 64.57H754.996V51.25H750.541V85ZM787.956 85.585C793.086 85.585 797.181 82.84 798.621 78.205L794.436 77.17C793.626 80.095 790.881 81.715 787.956 81.715C783.591 81.715 780.801 79.015 780.756 74.425H799.071V73.03C799.071 66.01 794.886 60.925 787.731 60.925C781.431 60.925 776.166 65.875 776.166 73.3C776.166 80.5 780.801 85.585 787.956 85.585ZM780.801 71.05C781.116 67.45 784.131 64.84 787.731 64.84C791.286 64.84 794.301 67.045 794.526 71.05H780.801ZM803.644 85H817.234V81.13H812.689V51.25H803.644V55.165H808.234V81.13H803.644V85ZM822.655 95.35H827.11V81.625H827.47C828.325 83.065 830.575 85.585 835.12 85.585C841.555 85.585 846.145 80.365 846.145 73.21C846.145 66.1 841.285 60.925 834.805 60.925C830.215 60.925 828.145 63.715 827.38 64.75H827.02V61.51H822.655V95.35ZM834.31 81.445C830.305 81.445 827.02 78.43 827.02 73.21C827.02 68.8 829.81 65.065 834.22 65.065C838.36 65.065 841.555 68.26 841.555 73.21C841.555 78.07 838.495 81.445 834.31 81.445ZM857.053 57.595C858.808 57.595 860.068 56.29 860.068 54.58C860.068 52.96 858.808 51.655 857.053 51.655C855.343 51.655 854.083 52.96 854.083 54.58C854.083 56.29 855.343 57.595 857.053 57.595ZM854.803 85H859.258V61.51H850.528V65.38H854.803V85ZM867.303 85H871.758V71.095C871.758 67.675 874.323 65.11 877.608 65.11C880.578 65.11 883.008 67.36 883.008 70.69V85H887.463V69.925C887.463 64.885 884.178 60.925 878.868 60.925C875.448 60.925 873.108 62.59 872.118 64.57H871.758V61.51H867.303V85ZM898.424 95.35H908.819C913.229 95.35 916.154 93.325 916.154 88.465V61.51H911.789V64.75H911.474C910.664 63.715 908.594 60.925 904.004 60.925C897.524 60.925 892.709 66.1 892.709 73.21C892.709 80.365 897.254 85.585 903.734 85.585C908.279 85.585 910.484 83.065 911.339 81.625H911.699V88.42C911.699 90.535 910.844 91.48 908.774 91.48H898.424V95.35ZM904.499 81.445C900.314 81.445 897.254 78.07 897.254 73.21C897.254 68.26 900.494 65.065 904.544 65.065C908.999 65.065 911.834 68.8 911.834 73.21C911.834 78.43 908.504 81.445 904.499 81.445ZM14.31 136.585C21.465 136.585 26.685 131.275 26.685 124.255C26.685 117.235 21.51 111.925 14.355 111.925C7.245 111.925 2.025 117.19 2.025 124.255C2.025 131.32 7.2 136.585 14.31 136.585ZM14.31 132.4C9.81 132.4 6.57 129.025 6.57 124.255C6.57 119.62 9.765 116.065 14.31 116.065C18.9 116.065 22.14 119.575 22.14 124.255C22.14 128.98 18.9 132.4 14.31 132.4ZM40.7563 136.585C44.1763 136.585 46.5163 134.92 47.5063 132.94H47.8663V136H52.3213V112.51H47.8663V126.415C47.8663 129.835 45.3013 132.355 42.0163 132.355C39.0463 132.355 36.6163 130.15 36.6163 126.82V112.51H32.1613V127.585C32.1613 132.625 35.4463 136.585 40.7563 136.585ZM69.0416 136H72.8216V132.085H69.0866C67.0166 132.085 66.1616 131.185 66.1616 129.07V116.38H73.0916V112.51H66.1616V105.805H61.9766V112.51H57.4316V116.38H61.7066V129.115C61.7066 133.975 64.6316 136 69.0416 136ZM101.761 136.585C108.916 136.585 114.136 131.275 114.136 124.255C114.136 117.235 108.961 111.925 101.806 111.925C94.6962 111.925 89.4762 117.19 89.4762 124.255C89.4762 131.32 94.6512 136.585 101.761 136.585ZM101.761 132.4C97.2612 132.4 94.0212 129.025 94.0212 124.255C94.0212 119.62 97.2162 116.065 101.761 116.065C106.351 116.065 109.591 119.575 109.591 124.255C109.591 128.98 106.351 132.4 101.761 132.4ZM128.207 136.585C131.627 136.585 133.967 134.92 134.957 132.94H135.317V136H139.772V112.51H135.317V126.415C135.317 129.835 132.752 132.355 129.467 132.355C126.497 132.355 124.067 130.15 124.067 126.82V112.51H119.612V127.585C119.612 132.625 122.897 136.585 128.207 136.585ZM146.908 136H151.363V123.94C151.363 119.485 153.298 116.38 157.348 116.38H159.598V111.925H157.933C154.738 111.925 152.443 114.22 151.633 116.2H151.318V112.51H146.908V136ZM187.223 136.585C192.353 136.585 196.448 133.84 197.888 129.205L193.703 128.17C192.893 131.095 190.148 132.715 187.223 132.715C182.858 132.715 180.068 130.015 180.023 125.425H198.338V124.03C198.338 117.01 194.153 111.925 186.998 111.925C180.698 111.925 175.433 116.875 175.433 124.3C175.433 131.5 180.068 136.585 187.223 136.585ZM180.068 122.05C180.383 118.45 183.398 115.84 186.998 115.84C190.553 115.84 193.568 118.045 193.793 122.05H180.068ZM204.037 136H208.492V122.095C208.492 118.675 211.057 116.11 214.342 116.11C217.312 116.11 219.742 118.36 219.742 121.69V136H224.197V120.925C224.197 115.885 220.912 111.925 215.602 111.925C212.182 111.925 209.842 113.59 208.852 115.57H208.492V112.51H204.037V136ZM236.339 136H242.324L250.694 112.51H245.834L239.444 131.815H239.084L232.649 112.51H227.924L236.339 136ZM260.54 108.595C262.295 108.595 263.555 107.29 263.555 105.58C263.555 103.96 262.295 102.655 260.54 102.655C258.83 102.655 257.57 103.96 257.57 105.58C257.57 107.29 258.83 108.595 260.54 108.595ZM258.29 136H262.745V112.51H254.015V116.38H258.29V136ZM270.79 136H275.245V123.94C275.245 119.485 277.18 116.38 281.23 116.38H283.48V111.925H281.815C278.62 111.925 276.325 114.22 275.515 116.2H275.2V112.51H270.79V136ZM298.504 136.585C305.659 136.585 310.879 131.275 310.879 124.255C310.879 117.235 305.704 111.925 298.549 111.925C291.439 111.925 286.219 117.19 286.219 124.255C286.219 131.32 291.394 136.585 298.504 136.585ZM298.504 132.4C294.004 132.4 290.764 129.025 290.764 124.255C290.764 119.62 293.959 116.065 298.504 116.065C303.094 116.065 306.334 119.575 306.334 124.255C306.334 128.98 303.094 132.4 298.504 132.4ZM316.581 136H321.036V122.095C321.036 118.675 323.601 116.11 326.886 116.11C329.856 116.11 332.286 118.36 332.286 121.69V136H336.741V120.925C336.741 115.885 333.456 111.925 328.146 111.925C324.726 111.925 322.386 113.59 321.396 115.57H321.036V112.51H316.581V136ZM343.651 136H348.106V121.96C348.106 118.45 350.581 116.11 353.461 116.11C356.386 116.11 358.636 118.09 358.636 121.42V136H363.091V122.095C363.091 118.225 365.566 116.11 368.491 116.11C371.506 116.11 373.531 118.135 373.531 122.05V136H377.986V120.565C377.986 115.615 374.566 111.925 369.436 111.925C366.196 111.925 363.721 113.32 362.281 115.975H361.921C360.661 113.545 358.276 111.925 354.901 111.925C351.616 111.925 349.501 113.635 348.466 115.525H348.106V112.51H343.651V136ZM395.041 136.585C400.171 136.585 404.266 133.84 405.706 129.205L401.521 128.17C400.711 131.095 397.966 132.715 395.041 132.715C390.676 132.715 387.886 130.015 387.841 125.425H406.156V124.03C406.156 117.01 401.971 111.925 394.816 111.925C388.516 111.925 383.251 116.875 383.251 124.3C383.251 131.5 387.886 136.585 395.041 136.585ZM387.886 122.05C388.201 118.45 391.216 115.84 394.816 115.84C398.371 115.84 401.386 118.045 401.611 122.05H387.886ZM411.854 136H416.309V122.095C416.309 118.675 418.874 116.11 422.159 116.11C425.129 116.11 427.559 118.36 427.559 121.69V136H432.014V120.925C432.014 115.885 428.729 111.925 423.419 111.925C419.999 111.925 417.659 113.59 416.669 115.57H416.309V112.51H411.854V136ZM448.509 136H452.289V132.085H448.554C446.484 132.085 445.629 131.185 445.629 129.07V116.38H452.559V112.51H445.629V105.805H441.444V112.51H436.899V116.38H441.174V129.115C441.174 133.975 444.099 136 448.509 136ZM473.129 119.845C474.749 119.845 476.054 118.54 476.054 116.92C476.054 115.345 474.749 114.04 473.129 114.04C471.509 114.04 470.159 115.345 470.159 116.92C470.159 118.54 471.509 119.845 473.129 119.845ZM473.129 136.585C474.749 136.585 476.054 135.28 476.054 133.705C476.054 132.085 474.749 130.78 473.129 130.78C471.509 130.78 470.159 132.085 470.159 133.705C470.159 135.28 471.509 136.585 473.129 136.585ZM484.487 142.435H485.477C489.707 142.435 492.542 140.23 492.542 135.505V108.595C492.542 103.87 489.707 101.665 485.477 101.665H484.487V105.715H485.162C487.412 105.715 488.087 106.795 488.087 108.64V135.46C488.087 137.305 487.412 138.385 485.162 138.385H484.487V142.435Z" fill="black"/>
<path d="M294 35H871" stroke="black" stroke-width="3" stroke-linecap="round"/>
</svg>
