<svg width="100" height="50" viewBox="0 0 299 80" fill="none" xmlns="http://www.w3.org/2000/svg">
<path d="M298.5 40.5C298.5 18.6848 280.815 1 259 1H1.5V80H259C280.815 80 298.5 62.3152 298.5 40.5Z" fill="white"/>
<path d="M225.949 14H267.052C267.739 14 268.419 14.1354 269.053 14.3984C269.688 14.6615 270.265 15.047 270.75 15.533C271.236 16.019 271.621 16.596 271.884 17.2309C272.147 17.8659 272.282 18.5464 272.281 19.2336V33.0142C272.281 34.4018 271.73 35.7325 270.75 36.7137C269.769 37.6949 268.439 38.2461 267.052 38.2461H225.949C225.262 38.2463 224.582 38.1111 223.947 37.8483C223.312 37.5855 222.736 37.2001 222.25 36.7143C221.764 36.2284 221.379 35.6516 221.116 35.0167C220.853 34.3819 220.718 33.7014 220.718 33.0142V19.2353C220.717 18.5478 220.852 17.867 221.115 17.2317C221.378 16.5964 221.763 16.0192 222.249 15.533C222.735 15.0468 223.311 14.6611 223.946 14.3981C224.581 14.1351 225.262 13.9998 225.949 14ZM225.949 17.4913C224.985 17.4913 224.204 18.2709 224.204 19.2336V33.0142C224.204 33.9768 224.985 34.7598 225.949 34.7598H267.052C268.014 34.7598 268.795 33.9768 268.795 33.0142V19.2353C268.795 18.2692 268.014 17.4896 267.05 17.4896H225.951L225.949 17.4913ZM229.33 24.4096C229.097 24.4169 228.864 24.3771 228.646 24.2927C228.428 24.2083 228.229 24.081 228.062 23.9182C227.894 23.7555 227.76 23.5607 227.669 23.3453C227.578 23.13 227.531 22.8986 227.531 22.6648C227.531 22.4309 227.578 22.1995 227.669 21.9842C227.76 21.7689 227.894 21.5741 228.062 21.4113C228.229 21.2486 228.428 21.1212 228.646 21.0368C228.864 20.9524 229.097 20.9127 229.33 20.9199H232.764C232.998 20.9127 233.231 20.9524 233.449 21.0368C233.667 21.1212 233.865 21.2486 234.033 21.4113C234.201 21.5741 234.335 21.7689 234.426 21.9842C234.517 22.1995 234.564 22.4309 234.564 22.6648C234.564 22.8986 234.517 23.13 234.426 23.3453C234.335 23.5607 234.201 23.7555 234.033 23.9182C233.865 24.081 233.667 24.2083 233.449 24.2927C233.231 24.3771 232.998 24.4169 232.764 24.4096H229.33ZM229.33 31.3278C229.095 31.3382 228.86 31.3008 228.639 31.2178C228.419 31.1349 228.217 31.0081 228.047 30.8451C227.877 30.6822 227.741 30.4864 227.649 30.2696C227.556 30.0529 227.509 29.8196 227.509 29.5839C227.509 29.3481 227.556 29.1149 227.649 28.8981C227.741 28.6813 227.877 28.4856 228.047 28.3226C228.217 28.1596 228.419 28.0328 228.639 27.9499C228.86 27.8669 229.095 27.8295 229.33 27.8399H232.764C233 27.8295 233.235 27.8669 233.455 27.9499C233.676 28.0328 233.877 28.1596 234.048 28.3226C234.218 28.4856 234.353 28.6813 234.446 28.8981C234.539 29.1149 234.586 29.3481 234.586 29.5839C234.586 29.8196 234.539 30.0529 234.446 30.2696C234.353 30.4864 234.218 30.6822 234.048 30.8451C233.877 31.0081 233.676 31.1349 233.455 31.2178C233.235 31.3008 233 31.3382 232.764 31.3278H229.33ZM239.631 24.4096C239.397 24.4169 239.164 24.3771 238.946 24.2927C238.728 24.2083 238.53 24.081 238.362 23.9182C238.194 23.7555 238.061 23.5607 237.969 23.3453C237.878 23.13 237.831 22.8986 237.831 22.6648C237.831 22.4309 237.878 22.1995 237.969 21.9842C238.061 21.7689 238.194 21.5741 238.362 21.4113C238.53 21.2486 238.728 21.1212 238.946 21.0368C239.164 20.9524 239.397 20.9127 239.631 20.9199H243.066C243.3 20.9127 243.533 20.9524 243.751 21.0368C243.969 21.1212 244.167 21.2486 244.335 21.4113C244.503 21.5741 244.636 21.7689 244.728 21.9842C244.819 22.1995 244.866 22.4309 244.866 22.6648C244.866 22.8986 244.819 23.13 244.728 23.3453C244.636 23.5607 244.503 23.7555 244.335 23.9182C244.167 24.081 243.969 24.2083 243.751 24.2927C243.533 24.3771 243.3 24.4169 243.066 24.4096H239.632H239.631ZM239.631 31.3278C239.395 31.3382 239.16 31.3008 238.94 31.2178C238.719 31.1349 238.518 31.0081 238.347 30.8451C238.177 30.6822 238.042 30.4864 237.949 30.2696C237.857 30.0529 237.809 29.8196 237.809 29.5839C237.809 29.3481 237.857 29.1149 237.949 28.8981C238.042 28.6813 238.177 28.4856 238.347 28.3226C238.518 28.1596 238.719 28.0328 238.94 27.9499C239.16 27.8669 239.395 27.8295 239.631 27.8399H253.368C253.604 27.8295 253.839 27.8669 254.059 27.9499C254.28 28.0328 254.481 28.1596 254.652 28.3226C254.822 28.4856 254.957 28.6813 255.05 28.8981C255.142 29.1149 255.19 29.3481 255.19 29.5839C255.19 29.8196 255.142 30.0529 255.05 30.2696C254.957 30.4864 254.822 30.6822 254.652 30.8451C254.481 31.0081 254.28 31.1349 254.059 31.2178C253.839 31.3008 253.604 31.3382 253.368 31.3278H239.632H239.631ZM249.934 24.4096C249.701 24.4169 249.468 24.3771 249.25 24.2927C249.032 24.2083 248.833 24.081 248.665 23.9182C248.498 23.7555 248.364 23.5607 248.273 23.3453C248.182 23.13 248.135 22.8986 248.135 22.6648C248.135 22.4309 248.182 22.1995 248.273 21.9842C248.364 21.7689 248.498 21.5741 248.665 21.4113C248.833 21.2486 249.032 21.1212 249.25 21.0368C249.468 20.9524 249.701 20.9127 249.934 20.9199H253.368C253.602 20.9127 253.835 20.9524 254.053 21.0368C254.271 21.1212 254.469 21.2486 254.637 21.4113C254.805 21.5741 254.938 21.7689 255.03 21.9842C255.121 22.1995 255.168 22.4309 255.168 22.6648C255.168 22.8986 255.121 23.13 255.03 23.3453C254.938 23.5607 254.805 23.7555 254.637 23.9182C254.469 24.081 254.271 24.2083 254.053 24.2927C253.835 24.3771 253.602 24.4169 253.368 24.4096H249.934ZM260.235 24.4096C260.001 24.4169 259.768 24.3771 259.55 24.2927C259.332 24.2083 259.134 24.081 258.966 23.9182C258.798 23.7555 258.664 23.5607 258.573 23.3453C258.482 23.13 258.435 22.8986 258.435 22.6648C258.435 22.4309 258.482 22.1995 258.573 21.9842C258.664 21.7689 258.798 21.5741 258.966 21.4113C259.134 21.2486 259.332 21.1212 259.55 21.0368C259.768 20.9524 260.001 20.9127 260.235 20.9199H263.67C263.904 20.9127 264.137 20.9524 264.354 21.0368C264.572 21.1212 264.771 21.2486 264.939 21.4113C265.107 21.5741 265.24 21.7689 265.331 21.9842C265.423 22.1995 265.47 22.4309 265.47 22.6648C265.47 22.8986 265.423 23.13 265.331 23.3453C265.24 23.5607 265.107 23.7555 264.939 23.9182C264.771 24.081 264.572 24.2083 264.354 24.2927C264.137 24.3771 263.904 24.4169 263.67 24.4096H260.235ZM260.235 31.3278C259.999 31.3382 259.764 31.3008 259.544 31.2178C259.323 31.1349 259.122 31.0081 258.951 30.8451C258.781 30.6822 258.646 30.4864 258.553 30.2696C258.46 30.0529 258.413 29.8196 258.413 29.5839C258.413 29.3481 258.46 29.1149 258.553 28.8981C258.646 28.6813 258.781 28.4856 258.951 28.3226C259.122 28.1596 259.323 28.0328 259.544 27.9499C259.764 27.8669 259.999 27.8295 260.235 27.8399H263.67C263.906 27.8295 264.141 27.8669 264.361 27.9499C264.582 28.0328 264.783 28.1596 264.953 28.3226C265.124 28.4856 265.259 28.6813 265.352 28.8981C265.444 29.1149 265.492 29.3481 265.492 29.5839C265.492 29.8196 265.444 30.0529 265.352 30.2696C265.259 30.4864 265.124 30.6822 264.953 30.8451C264.783 31.0081 264.582 31.1349 264.361 31.2178C264.141 31.3008 263.906 31.3382 263.67 31.3278H260.235ZM229.91 46.8947C229.005 46.8971 228.117 47.1394 227.336 47.597C226.556 48.0546 225.91 48.7112 225.466 49.4997C224.672 50.8962 224.033 52.7029 223.547 54.818C223.081 56.9135 222.771 59.0407 222.62 61.1821C222.546 62.177 222.501 63.1741 222.488 64.1717C222.499 64.4072 222.462 64.6424 222.38 64.8633C222.298 65.0842 222.172 65.2862 222.01 65.457C221.847 65.6278 221.652 65.764 221.436 65.8573C221.219 65.9507 220.986 65.9992 220.751 66C220.515 66.0008 220.282 65.9539 220.065 65.862C219.848 65.7702 219.652 65.6353 219.488 65.4656C219.325 65.2958 219.197 65.0948 219.114 64.8744C219.03 64.6541 218.992 64.4191 219.001 64.1836C219.001 63.4785 219.035 62.343 219.144 60.9177C219.307 58.6023 219.643 56.3023 220.148 54.0367C220.704 51.6182 221.453 49.5048 222.434 47.7777C223.182 46.4533 224.268 45.3511 225.581 44.5833C226.894 43.8155 228.387 43.4095 229.908 43.4068H235.936C236.94 43.4068 237.896 43.8475 238.552 44.6101C239.205 45.3677 239.5 46.3727 239.361 47.371L238.399 54.1604C241.691 52.7944 244.01 53.1181 244.744 55.7027C245.374 57.928 243.905 61.3583 241.03 65.2208C240.746 65.5692 240.338 65.7944 239.892 65.8495C239.446 65.9046 238.996 65.7853 238.635 65.5166C238.275 65.2478 238.032 64.8503 237.958 64.4068C237.883 63.9634 237.982 63.5082 238.235 63.1362C240.3 60.3601 241.421 57.9145 241.418 56.8976C241.374 56.9005 241.331 56.9045 241.288 56.9094C240.408 57.0162 238.977 57.6179 237.1 58.7517C236.817 58.9216 236.493 59.008 236.163 59.001C235.834 58.994 235.513 58.8939 235.238 58.7121C234.963 58.5304 234.746 58.2745 234.61 57.9741C234.474 57.6737 234.427 57.341 234.472 57.0145L235.907 46.8964H229.91V46.8947ZM253.638 47.3676C253.569 46.8765 253.605 46.3764 253.745 45.9006C253.884 45.4247 254.124 44.9842 254.447 44.6084C255.105 43.8458 256.059 43.4085 257.065 43.4068H263.101C264.62 43.411 266.111 43.8175 267.422 44.5849C268.733 45.3523 269.817 46.4534 270.565 47.7761C271.548 49.5048 272.295 51.6182 272.852 54.0367C273.357 56.3023 273.692 58.6023 273.855 60.9177C273.964 62.343 273.999 63.4769 273.999 64.1785C274.006 64.4122 273.966 64.6449 273.881 64.8628C273.796 65.0807 273.669 65.2793 273.506 65.4469C273.343 65.6144 273.148 65.7475 272.932 65.8383C272.717 65.929 272.485 65.9755 272.252 65.9751C272.018 65.9746 271.787 65.9272 271.572 65.8356C271.357 65.744 271.162 65.6102 271 65.442C270.837 65.2738 270.711 65.0747 270.627 64.8565C270.543 64.6383 270.503 64.4054 270.511 64.1717C270.498 63.1735 270.454 62.1759 270.379 61.1804C270.228 59.0396 269.918 56.913 269.452 54.818C268.968 52.7029 268.327 50.8962 267.533 49.498C267.089 48.7114 266.445 48.0563 265.666 47.5994C264.887 47.1425 264.001 46.8999 263.098 46.8964H257.092L258.529 57.0145C258.574 57.3411 258.527 57.674 258.392 57.9747C258.256 58.2754 258.038 58.5316 257.763 58.7136C257.488 58.8955 257.168 58.9958 256.838 59.0029C256.508 59.0099 256.183 58.9234 255.901 58.7534C254.024 57.6179 252.591 57.0179 251.711 56.9111C251.668 56.9062 251.625 56.9022 251.581 56.8993C251.578 57.9162 252.699 60.3618 254.766 63.1379C255.018 63.5099 255.118 63.9651 255.043 64.4085C254.969 64.852 254.726 65.2495 254.365 65.5183C254.005 65.787 253.555 65.9063 253.109 65.8512C252.663 65.7961 252.255 65.5709 251.971 65.2225C249.094 61.3583 247.625 57.9297 248.257 55.7044C248.989 53.1198 251.31 52.7961 254.602 54.1621L253.638 47.3693V47.3676Z" fill="black"/>
<path d="M1.5 1.5H259C280.263 1.5 297.5 18.737 297.5 40C297.5 61.263 280.263 78.5 259 78.5H1.5V1.5Z" stroke="black" stroke-width="3"/>
<path d="M61.08 51H71.512C75.16 51 78.552 48.568 78.552 44.344C78.552 41.592 76.888 39.992 75.448 39.256V39.064C76.888 38.168 77.816 36.568 77.816 34.648C77.816 31.192 75.32 28.6 70.84 28.6H61.08V31.864H63.096V47.704H61.08V51ZM66.872 37.848V32.12H70.776C72.568 32.12 73.88 33.272 73.88 34.936C73.88 36.632 72.632 37.848 70.744 37.848H66.872ZM66.872 47.48V40.984H70.808C72.856 40.984 74.584 42.008 74.584 44.184C74.584 46.36 73.016 47.48 70.968 47.48H66.872ZM91.5563 51.416C97.0283 51.416 100.196 47.832 100.196 42.68V28.6H96.3243V42.648C96.3243 45.72 94.6603 47.704 91.5563 47.704C88.4203 47.704 86.7883 45.72 86.7883 42.68V28.6H82.9163V42.712C82.9163 47.896 85.9883 51.416 91.5563 51.416ZM105.363 51H115.571V47.48H112.403V32.152H115.571V28.6H105.363V32.152H108.531V47.48H105.363V51ZM120.882 51H133.938V47.416H124.754V28.6H120.882V51ZM137.505 51H146.081C153.281 51 157.409 46.744 157.409 39.8C157.409 33.272 153.281 28.6 146.081 28.6H137.505V31.992H139.489V47.608H137.505V51ZM143.361 47.448V32.184H146.081C150.721 32.184 153.377 35.16 153.377 39.8C153.377 44.632 150.689 47.448 146.081 47.448H143.361ZM161.783 51H175.639V47.384H165.655V41.4H173.975V37.816H165.655V32.216H175.319V28.6H161.783V51ZM180.014 51H183.886V42.52H186.574L191.374 51H196.046L190.446 42.008C193.486 41.08 195.118 38.552 195.118 35.416C195.118 31.352 192.11 28.6 187.47 28.6H180.014V51ZM183.886 39.032V32.184H187.342C189.902 32.184 191.15 33.656 191.15 35.48C191.15 37.784 189.582 39.032 187.502 39.032H183.886Z" fill="black"/>
</svg>
