<svg width="100" height="50" viewBox="0 0 297 80" fill="none" xmlns="http://www.w3.org/2000/svg">
<path d="M1.5 40C1.5 18.737 18.737 1.5 40 1.5H295.5V78.5H40C18.737 78.5 1.5 61.263 1.5 40Z" stroke="black" stroke-width="3"/>
<path d="M49.0696 26.5965C53.0886 26.0611 57.177 26.7603 60.7804 28.5993C61.3612 26.6034 62.4199 24.7752 63.8667 23.2694C63.1013 22.6524 62.532 21.8303 62.227 20.9017C54.6313 20.7961 50.6858 23.1296 49.0696 26.5965ZM45.3581 27.4597C46.7905 21.7401 51.9423 17.5948 62.227 17.7065C62.8867 15.6975 64.7589 14.2397 66.9814 14.2397C69.7599 14.2397 71.9886 16.5188 71.9886 19.3041C71.9886 21.9047 70.0442 24.0643 67.5232 24.3375C65.5029 25.7952 64.1233 27.9616 63.6673 30.3925C64.0112 30.6472 64.3474 30.9142 64.6772 31.1937C64.8489 31.3269 64.9915 31.4931 65.0964 31.6823C65.2014 31.8714 65.2666 32.0796 65.288 32.2943C65.3094 32.509 65.2867 32.7258 65.2211 32.9315C65.1556 33.1373 65.0486 33.3279 64.9066 33.4917C64.7646 33.6556 64.5905 33.7893 64.3949 33.8849C64.1992 33.9805 63.986 34.036 63.7681 34.048C63.5502 34.06 63.3321 34.0283 63.1269 33.9548C62.9217 33.8813 62.7336 33.7675 62.5741 33.6203C57.8056 29.5836 51.2842 28.5093 45.5246 30.8071C45.3265 30.8917 45.1132 30.9363 44.8974 30.9382C44.6816 30.9402 44.4676 30.8994 44.268 30.8183C44.0683 30.7373 43.8871 30.6175 43.735 30.4662C43.5829 30.3148 43.463 30.1349 43.3823 29.9371C43.3016 29.7392 43.2618 29.5274 43.2652 29.3141C43.2685 29.1008 43.3151 28.8903 43.402 28.6951C43.4889 28.4998 43.6145 28.3237 43.7713 28.1771C43.9282 28.0306 44.1131 27.9165 44.3152 27.8417C44.6607 27.705 45.0078 27.5777 45.3581 27.4597ZM66.9185 21.1719C66.9604 21.1703 67.0023 21.1703 67.0442 21.1719C67.9834 21.1362 68.7562 20.3242 68.7562 19.3041C68.7562 18.2593 67.9489 17.4348 66.9814 17.4348C66.0123 17.4348 65.2065 18.2593 65.2065 19.3041C65.2065 20.3242 65.9777 21.1362 66.9185 21.1703V21.1719ZM54.7208 57.0997C54.7569 57.0857 54.7931 57.0749 54.8307 57.064C57.3438 56.2427 59.4548 54.451 60.7176 52.0865C60.7368 52.0458 60.7578 52.0059 60.7804 51.9669C61.283 50.9966 61.6427 49.9315 61.8312 48.7997C61.9194 48.3992 62.1598 48.0474 62.5029 47.817C62.8459 47.5867 63.2654 47.4954 63.6746 47.5619C64.0838 47.6285 64.4515 47.8478 64.7018 48.1747C64.9521 48.5015 65.0659 48.9109 65.0196 49.3183C64.8592 50.2872 64.5965 51.2369 64.2359 52.1517C68.5787 55.2568 70.0818 61.0153 66.9531 64.2353C63.5086 67.7503 57.2307 65.6543 54.3815 60.4858C51.7048 61.0304 48.9229 60.7385 46.4214 59.6506C46.5031 61.3956 45.9801 63.0507 44.7722 64.2834C42.066 67.0501 37.2802 66.3514 34.0588 63.0569C30.8609 59.7903 30.1887 54.9898 32.8588 52.2604C34.3776 50.7094 36.5498 50.2482 38.7331 50.7233C38.5602 50.0937 38.4316 49.4531 38.3482 48.8059C37.2317 48.1394 36.2096 47.3291 35.309 46.3963C32.397 43.4232 30.9473 39.6551 31.6101 36.7875L31.2834 36.9661C31.2725 36.9719 31.2615 36.9776 31.2504 36.9832L28.2756 38.6056C28.0891 38.7169 27.8818 38.7899 27.666 38.8201C27.4503 38.8502 27.2306 38.837 27.0202 38.7812C26.8098 38.7255 26.6129 38.6282 26.4414 38.4954C26.2699 38.3625 26.1273 38.1968 26.0222 38.0082C25.9171 37.8195 25.8516 37.6118 25.8297 37.3975C25.8078 37.1833 25.8299 36.9668 25.8947 36.7612C25.9595 36.5556 26.0656 36.365 26.2067 36.2009C26.3479 36.0368 26.5211 35.9026 26.7159 35.8063L28.1515 35.0254L21.2815 25.0564C21.0519 24.7239 20.9577 24.3181 21.0176 23.9199L22.3197 15.3591C22.3577 15.1116 22.4539 14.8764 22.6007 14.6724C22.7474 14.4684 22.9406 14.3013 23.1646 14.1846C23.3885 14.0679 23.6371 14.0047 23.8903 14.0003C24.1435 13.9958 24.3942 14.0502 24.6223 14.1589L32.2981 17.8308C32.675 18.0108 32.9656 18.3276 33.1101 18.7157L37.3399 30.023L38.6875 29.2887C38.874 29.1773 39.0814 29.1044 39.2971 29.0742C39.5128 29.044 39.7325 29.0572 39.9429 29.113C40.1534 29.1688 40.3502 29.266 40.5217 29.3989C40.6932 29.5317 40.8358 29.6974 40.9409 29.8861C41.046 30.0747 41.1115 30.2824 41.1334 30.4967C41.1553 30.711 41.1332 30.9274 41.0684 31.133C41.0036 31.3387 40.8975 31.5292 40.7564 31.6933C40.6153 31.8574 40.4421 31.9916 40.2472 32.0879L38.466 33.0583C40.2519 33.4542 42.132 34.437 43.8283 35.8933C44.2885 35.5548 44.7738 35.2443 45.2843 34.9617C50.8444 31.8876 57.7553 33.1608 61.9019 38.0172C62.1601 38.3431 62.2805 38.7553 62.2376 39.1671C62.1947 39.5789 61.992 39.9582 61.6719 40.2252C61.3519 40.4923 60.9396 40.6263 60.5217 40.599C60.1038 40.5717 59.7129 40.3853 59.4312 40.079C56.2789 36.387 51.0659 35.4259 46.8628 37.7501C46.1591 38.1383 45.5152 38.604 44.9372 39.1272C44.888 39.1787 44.8356 39.2269 44.7801 39.2716C42.5309 41.3986 41.3105 44.465 41.4817 47.6135C41.4927 47.6881 41.4974 47.7626 41.4974 47.8371C41.5492 48.5234 41.667 49.2111 41.8555 49.8943C42.2639 51.3754 42.966 52.7013 43.8848 53.8191C43.9901 53.9371 44.0937 54.0567 44.1942 54.1793C46.2141 56.4197 49.1418 57.7145 52.2627 57.5453C53.0978 57.5004 53.9237 57.3512 54.7208 57.1013V57.0997ZM62.6982 55.0069C61.3755 56.896 59.5858 58.4193 57.4993 59.4317C59.4736 62.5508 63.017 63.6577 64.6254 62.0167C66.1426 60.4548 65.3212 57.1028 62.6982 55.0069ZM41.4283 55.8965C41.3702 55.8329 41.311 55.7703 41.2508 55.7086C39.176 53.5878 36.4477 53.1904 35.1834 54.4821C33.8797 55.8126 34.2834 58.6911 36.3818 60.8367C38.4551 62.956 41.1849 63.355 42.4492 62.0632C43.6445 60.8398 43.4026 58.3123 41.7299 56.2458C41.6274 56.131 41.5268 56.0146 41.4283 55.8965ZM34.4766 31.5818L30.3049 20.4266L25.1893 17.9798L24.3097 23.7755L30.9976 33.4759L34.4766 31.5818ZM41.4691 38.1026C38.9624 36.0532 36.2797 35.53 35.2336 36.5966C33.9991 37.8588 34.8488 41.3334 37.6399 44.1839C37.8818 44.4339 38.1346 44.673 38.3969 44.8997C38.7794 42.4012 39.8413 40.0524 41.4691 38.1041V38.1026ZM45.0204 43.5598C45.0108 43.3441 45.0455 43.1287 45.1223 42.9266C45.1992 42.7244 45.3167 42.5398 45.4677 42.3838C45.6188 42.2278 45.8002 42.1036 46.0011 42.0188C46.202 41.934 46.4182 41.8902 46.6366 41.8902C46.8551 41.8902 47.0713 41.934 47.2721 42.0188C47.473 42.1036 47.6545 42.2278 47.8055 42.3838C47.9565 42.5398 48.074 42.7244 48.1509 42.9266C48.2278 43.1287 48.2624 43.3441 48.2528 43.5598V47.0236C48.2624 47.2393 48.2278 47.4547 48.1509 47.6568C48.074 47.859 47.9565 48.0436 47.8055 48.1996C47.6545 48.3556 47.473 48.4798 47.2721 48.5646C47.0713 48.6494 46.8551 48.6932 46.6366 48.6932C46.4182 48.6932 46.202 48.6494 46.0011 48.5646C45.8002 48.4798 45.6188 48.3556 45.4677 48.1996C45.3167 48.0436 45.1992 47.859 45.1223 47.6568C45.0455 47.4547 45.0108 47.2393 45.0204 47.0236V43.5614V43.5598ZM51.8025 43.5598C51.7929 43.3441 51.8276 43.1287 51.9044 42.9266C51.9813 42.7244 52.0988 42.5398 52.2499 42.3838C52.4009 42.2278 52.5823 42.1036 52.7832 42.0188C52.9841 41.934 53.2003 41.8902 53.4187 41.8902C53.6372 41.8902 53.8534 41.934 54.0542 42.0188C54.2551 42.1036 54.4366 42.2278 54.5876 42.3838C54.7386 42.5398 54.8561 42.7244 54.933 42.9266C55.0099 43.1287 55.0446 43.3441 55.0349 43.5598V47.0236C55.0446 47.2393 55.0099 47.4547 54.933 47.6568C54.8561 47.859 54.7386 48.0436 54.5876 48.1996C54.4366 48.3556 54.2551 48.4798 54.0542 48.5646C53.8534 48.6494 53.6372 48.6932 53.4187 48.6932C53.2003 48.6932 52.9841 48.6494 52.7832 48.5646C52.5823 48.4798 52.4009 48.3556 52.2499 48.1996C52.0988 48.0436 51.9813 47.859 51.9044 47.6568C51.8276 47.4547 51.7929 47.2393 51.8025 47.0236V43.5614V43.5598ZM63.9092 50.5852C63.5063 50.691 63.0777 50.6391 62.7126 50.4402C62.3475 50.2413 62.0742 49.9108 61.9497 49.5176C61.8251 49.1243 61.8589 48.6988 62.044 48.3296C62.2291 47.9604 62.5512 47.6761 62.9432 47.5359C66.8259 46.3358 69.2573 43.5303 68.6808 41.7449C68.1374 40.0852 64.8484 39.3244 61.1856 40.5509C60.7842 40.6695 60.3519 40.6295 59.9797 40.4393C59.6075 40.2492 59.3244 39.9237 59.1901 39.5314C59.0558 39.1391 59.0807 38.7106 59.2595 38.3361C59.4384 37.9616 59.7572 37.6703 60.149 37.5235C65.2976 35.8001 70.5279 37.0096 71.7577 40.7668C73.0064 44.6326 69.284 48.9239 63.9092 50.5852Z" fill="black"/>
<path d="M131.72 51H135.592V42.712H139.432C143.592 42.712 146.696 39.832 146.696 35.608C146.696 31.352 143.72 28.6 139.432 28.6H131.72V51ZM135.592 39.128V32.184H139.24C141.352 32.184 142.728 33.624 142.728 35.608C142.728 37.624 141.352 39.128 139.24 39.128H135.592ZM150.889 51H163.945V47.416H154.761V28.6H150.889V51ZM182.775 51H186.871L179.095 28.6H173.655L165.815 51H169.815L171.447 46.2H181.143L182.775 51ZM172.631 42.648L176.119 32.408H176.439L179.927 42.648H172.631ZM193.793 51H197.633V41.208L205.441 28.6H200.833L195.809 37.24H195.521L190.497 28.6H186.017L193.793 41.208V51ZM208.833 51H222.689V47.384H212.705V41.4H221.025V37.816H212.705V32.216H222.369V28.6H208.833V51ZM227.064 51H230.936V42.52H233.624L238.424 51H243.096L237.496 42.008C240.536 41.08 242.168 38.552 242.168 35.416C242.168 31.352 239.16 28.6 234.52 28.6H227.064V51ZM230.936 39.032V32.184H234.392C236.952 32.184 238.2 33.656 238.2 35.48C238.2 37.784 236.632 39.032 234.552 39.032H230.936Z" fill="black"/>
</svg>
