<svg width="113" height="23" viewBox="0 0 113 23" fill="none" xmlns="http://www.w3.org/2000/svg">
<path d="M0.72 23H4.592V14.712H8.432C12.592 14.712 15.696 11.832 15.696 7.608C15.696 3.352 12.72 0.599998 8.432 0.599998H0.72V23ZM4.592 11.128V4.184H8.24C10.352 4.184 11.728 5.624 11.728 7.608C11.728 9.624 10.352 11.128 8.24 11.128H4.592ZM19.8888 23H32.9448V19.416H23.7608V0.599998H19.8888V23ZM51.7753 23H55.8713L48.0953 0.599998H42.6553L34.8153 23H38.8153L40.4473 18.2H50.1433L51.7753 23ZM41.6313 14.648L45.1193 4.408H45.4393L48.9273 14.648H41.6313ZM62.7935 23H66.6335V13.208L74.4415 0.599998H69.8335L64.8095 9.24H64.5215L59.4975 0.599998H55.0175L62.7935 13.208V23ZM77.8325 23H91.6885V19.384H81.7045V13.4H90.0245V9.816H81.7045V4.216H91.3685V0.599998H77.8325V23ZM96.0638 23H99.9358V14.52H102.624L107.424 23H112.096L106.496 14.008C109.536 13.08 111.168 10.552 111.168 7.416C111.168 3.352 108.16 0.599998 103.52 0.599998H96.0638V23ZM99.9358 11.032V4.184H103.392C105.952 4.184 107.2 5.656 107.2 7.48C107.2 9.784 105.632 11.032 103.552 11.032H99.9358Z" fill="black"/>
</svg>
