<svg width="200" height="100" viewBox="0 0 413 98" fill="none" xmlns="http://www.w3.org/2000/svg">
<path d="M0 49C0 21.938 21.938 0 49 0H364C391.062 0 413 21.938 413 49V49C413 76.062 391.062 98 364 98H49C21.938 98 0 76.062 0 49V49Z" fill="white"/>
<path d="M93.4512 60H97.3232V51.52H100.011L104.811 60H109.483L103.883 51.008C106.923 50.08 108.555 47.552 108.555 44.416C108.555 40.352 105.547 37.6 100.907 37.6H93.4512V60ZM97.3232 48.032V41.184H100.779C103.339 41.184 104.587 42.656 104.587 44.48C104.587 46.784 103.019 48.032 100.939 48.032H97.3232ZM113.37 60H127.226V56.384H117.242V50.4H125.562V46.816H117.242V41.216H126.906V37.6H113.37V60ZM145.777 62.592H149.585L148.049 58.72C151.345 56.704 153.457 53.088 153.457 48.8C153.457 42.272 148.497 37.184 141.905 37.184C135.313 37.184 130.321 42.208 130.321 48.8C130.321 55.424 135.281 60.416 141.873 60.416C142.865 60.416 143.857 60.288 144.785 60.064L145.777 62.592ZM141.905 56.704C137.553 56.704 134.353 53.376 134.353 48.8C134.353 44.288 137.553 40.896 141.905 40.896C146.193 40.896 149.425 44.288 149.425 48.8C149.425 51.456 148.337 53.696 146.609 55.104L144.913 50.88H141.105L143.377 56.576C142.897 56.672 142.417 56.704 141.905 56.704ZM166.312 60.416C171.784 60.416 174.952 56.832 174.952 51.68V37.6H171.08V51.648C171.08 54.72 169.416 56.704 166.312 56.704C163.176 56.704 161.544 54.72 161.544 51.68V37.6H157.672V51.712C157.672 56.896 160.744 60.416 166.312 60.416ZM180.439 60H194.295V56.384H184.311V50.4H192.631V46.816H184.311V41.216H193.975V37.6H180.439V60ZM205.518 60.416C210.638 60.416 213.614 57.44 213.614 53.76C213.614 44.704 201.806 48.512 201.806 43.52C201.806 42.144 202.862 40.768 205.422 40.768C207.822 40.768 209.262 42.176 209.262 44.256H213.166C213.166 39.136 209.166 37.184 205.422 37.184C200.622 37.184 197.934 40.16 197.934 43.52C197.934 52.544 209.646 48.32 209.646 53.824C209.646 55.584 208.078 56.736 205.678 56.736C202.99 56.736 201.134 55.104 201.134 52.768H197.23C197.23 57.344 200.91 60.416 205.518 60.416ZM222.412 60H226.284V41.216H232.492V37.6H216.204V41.216H222.412V60ZM259.519 60H263.615L255.839 37.6H250.399L242.559 60H246.559L248.191 55.2H257.887L259.519 60ZM249.375 51.648L252.863 41.408H253.183L256.671 51.648H249.375ZM276.428 60.448C281.484 60.448 285.612 57.536 287.084 52.608H282.956C281.868 55.232 279.276 56.736 276.428 56.736C272.012 56.736 268.972 53.376 268.972 48.8C268.972 44.288 272.012 40.896 276.428 40.896C279.34 40.896 281.868 42.464 282.956 45.024H287.084C285.58 40.16 281.484 37.184 276.428 37.184C269.74 37.184 264.94 42.24 264.94 48.8C264.94 55.424 269.708 60.448 276.428 60.448ZM301.503 60.448C306.559 60.448 310.687 57.536 312.159 52.608H308.031C306.943 55.232 304.351 56.736 301.503 56.736C297.087 56.736 294.047 53.376 294.047 48.8C294.047 44.288 297.087 40.896 301.503 40.896C304.415 40.896 306.943 42.464 308.031 45.024H312.159C310.655 40.16 306.559 37.184 301.503 37.184C294.815 37.184 290.015 42.24 290.015 48.8C290.015 55.424 294.783 60.448 301.503 60.448ZM316.37 60H330.226V56.384H320.242V50.4H328.562V46.816H320.242V41.216H329.906V37.6H316.37V60ZM341.449 60.416C346.569 60.416 349.545 57.44 349.545 53.76C349.545 44.704 337.737 48.512 337.737 43.52C337.737 42.144 338.793 40.768 341.353 40.768C343.753 40.768 345.193 42.176 345.193 44.256H349.097C349.097 39.136 345.097 37.184 341.353 37.184C336.553 37.184 333.865 40.16 333.865 43.52C333.865 52.544 345.577 48.32 345.577 53.824C345.577 55.584 344.009 56.736 341.609 56.736C338.921 56.736 337.065 55.104 337.065 52.768H333.161C333.161 57.344 336.841 60.416 341.449 60.416ZM360.743 60.416C365.863 60.416 368.839 57.44 368.839 53.76C368.839 44.704 357.031 48.512 357.031 43.52C357.031 42.144 358.087 40.768 360.647 40.768C363.047 40.768 364.487 42.176 364.487 44.256H368.391C368.391 39.136 364.391 37.184 360.647 37.184C355.847 37.184 353.159 40.16 353.159 43.52C353.159 52.544 364.871 48.32 364.871 53.824C364.871 55.584 363.303 56.736 360.903 56.736C358.215 56.736 356.359 55.104 356.359 52.768H352.455C352.455 57.344 356.135 60.416 360.743 60.416Z" fill="black"/>
<path d="M49 3H364V-3H49V3ZM364 95H49V101H364V95ZM49 95C23.5949 95 3 74.4051 3 49H-3C-3 77.7188 20.2812 101 49 101V95ZM410 49C410 74.4051 389.405 95 364 95V101C392.719 101 416 77.7188 416 49H410ZM364 3C389.405 3 410 23.5949 410 49H416C416 20.2812 392.719 -3 364 -3V3ZM49 -3C20.2812 -3 -3 20.2812 -3 49H3C3 23.5949 23.5949 3 49 3V-3Z" fill="black"/>
</svg>
