<svg width="200" height="100" viewBox="0 0 413 98" fill="none" xmlns="http://www.w3.org/2000/svg">
<path d="M0 49C0 21.938 21.938 0 49 0H364C391.062 0 413 21.938 413 49C413 76.062 391.062 98 364 98H49C21.938 98 0 76.062 0 49Z" fill="white"/>
<path d="M113.303 60.448C118.423 60.448 124.055 57.312 124.567 48.864H113.911V52.224H120.215C119.287 55.424 116.375 56.736 113.335 56.736C108.919 56.736 105.847 53.376 105.847 48.8C105.847 44.288 108.887 40.896 113.303 40.896C116.215 40.896 118.743 42.464 119.831 45.024H124.023C122.519 40.16 118.359 37.184 113.303 37.184C106.615 37.184 101.815 42.24 101.815 48.8C101.815 55.424 106.615 60.416 113.303 60.448ZM128.92 60H142.776V56.384H132.792V50.4H141.112V46.816H132.792V41.216H142.456V37.6H128.92V60ZM151.599 60H155.471V41.216H161.679V37.6H145.391V41.216H151.599V60ZM182.563 60.416C188.035 60.416 191.203 56.832 191.203 51.68V37.6H187.331V51.648C187.331 54.72 185.667 56.704 182.563 56.704C179.427 56.704 177.795 54.72 177.795 51.68V37.6H173.923V51.712C173.923 56.896 176.995 60.416 182.563 60.416ZM196.689 60H200.561V51.712H204.401C208.561 51.712 211.665 48.832 211.665 44.608C211.665 40.352 208.689 37.6 204.401 37.6H196.689V60ZM200.561 48.128V41.184H204.209C206.321 41.184 207.697 42.624 207.697 44.608C207.697 46.624 206.321 48.128 204.209 48.128H200.561ZM215.217 60H223.793C230.993 60 235.121 55.744 235.121 48.8C235.121 42.272 230.993 37.6 223.793 37.6H215.217V40.992H217.201V56.608H215.217V60ZM221.073 56.448V41.184H223.793C228.433 41.184 231.089 44.16 231.089 48.8C231.089 53.632 228.401 56.448 223.793 56.448H221.073ZM253.494 60H257.59L249.814 37.6H244.374L236.534 60H240.534L242.166 55.2H251.862L253.494 60ZM243.35 51.648L246.838 41.408H247.158L250.646 51.648H243.35ZM264.049 60H267.921V41.216H274.129V37.6H257.841V41.216H264.049V60ZM278.02 60H291.876V56.384H281.892V50.4H290.212V46.816H281.892V41.216H291.556V37.6H278.02V60ZM303.099 60.416C308.219 60.416 311.195 57.44 311.195 53.76C311.195 44.704 299.387 48.512 299.387 43.52C299.387 42.144 300.443 40.768 303.003 40.768C305.403 40.768 306.843 42.176 306.843 44.256H310.747C310.747 39.136 306.747 37.184 303.003 37.184C298.203 37.184 295.515 40.16 295.515 43.52C295.515 52.544 307.227 48.32 307.227 53.824C307.227 55.584 305.659 56.736 303.259 56.736C300.571 56.736 298.715 55.104 298.715 52.768H294.811C294.811 57.344 298.491 60.416 303.099 60.416Z" fill="black"/>
<path d="M49 3H364V-3H49V3ZM364 95H49V101H364V95ZM49 95C23.5949 95 3 74.4051 3 49H-3C-3 77.7188 20.2812 101 49 101V95ZM410 49C410 74.4051 389.405 95 364 95V101C392.719 101 416 77.7188 416 49H410ZM364 3C389.405 3 410 23.5949 410 49H416C416 20.2812 392.719 -3 364 -3V3ZM49 -3C20.2812 -3 -3 20.2812 -3 49H3C3 23.5949 23.5949 3 49 3V-3Z" fill="black"/>
</svg>
