<svg width="132" height="132" viewBox="0 0 132 132" fill="none" xmlns="http://www.w3.org/2000/svg">
<path d="M127.022 119.003L102.029 75.7129C100.709 73.4252 98.34 72.0589 95.6984 72.0589C93.0559 72.0589 90.6902 73.4252 89.3679 75.7129L84.2637 84.5581L61.5242 45.1697C59.98 42.4992 57.4344 40.7162 54.4911 40.1675V32.8235H80.6867C81.3663 32.8235 81.9959 32.4727 82.3527 31.892C82.7065 31.3113 82.7355 30.5907 82.4257 29.9841L76.6319 18.6373L82.4257 7.29354C82.7355 6.68787 82.7065 5.96627 82.3527 5.38559C81.9959 4.80591 81.3663 4.4511 80.6867 4.4511H54.4911V2.95193C54.4911 1.87152 53.6185 1 52.5381 1C51.4607 1 50.5862 1.87152 50.5862 2.95193V40.1675C47.6448 40.7162 45.0962 42.4992 43.5531 45.1697L14.2432 95.9388C13.7045 96.8733 14.0243 98.0647 14.9588 98.6034C15.2666 98.7833 15.6024 98.8672 15.9322 98.8672C16.6069 98.8672 17.2625 98.5184 17.6243 97.8907L30.6522 75.3281C32.0424 76.6604 34.0393 77.0982 35.8893 76.4295L41.7261 74.3257L44.5605 78.1186C46.4575 80.6612 49.3679 82.1164 52.5381 82.1164C55.7114 82.1164 58.6218 80.6612 60.5187 78.1186L63.3542 74.3257L69.19 76.4295C71.04 77.0982 73.0339 76.6604 74.4271 75.3281L82.0089 88.4629L64.3736 119.003C62.8095 121.716 62.8095 124.956 64.3736 127.668C64.4596 127.814 64.5485 127.955 64.6395 128.093H15.0817C11.9734 128.093 9.18795 126.487 7.6348 123.793C6.08066 121.101 6.08066 117.887 7.6348 115.192L13.4126 105.187C13.9513 104.252 13.6315 103.058 12.7 102.518C11.7655 101.979 10.5702 102.3 10.0315 103.235L4.25266 113.24C1.9939 117.155 1.9939 121.831 4.25266 125.745C6.51242 129.662 10.5602 131.997 15.0817 131.997L104.374 132C105.452 132 106.327 131.125 106.327 130.048C106.327 128.968 105.452 128.095 104.374 128.095L71.8655 128.093C70.1504 128.09 68.6143 127.203 67.7558 125.716C66.8962 124.225 66.8962 122.447 67.7558 120.956L81.9939 96.3006C82.9854 96.8963 84.2037 97.0292 85.3511 96.6174L88.5663 95.4571L91.2369 99.0311C92.2993 100.452 93.9254 101.267 95.6984 101.267C97.4734 101.267 99.0975 100.452 100.16 99.0311L102.83 95.4571L106.048 96.6174C107.193 97.0292 108.411 96.8963 109.406 96.3006L123.641 120.956C124.503 122.447 124.503 124.225 123.641 125.716C122.783 127.206 121.241 128.095 119.52 128.095H112.183C111.105 128.095 110.23 128.968 110.23 130.048C110.23 131.125 111.105 132 112.183 132H119.52C122.653 132 125.458 130.381 127.022 127.668C128.589 124.956 128.589 121.716 127.022 119.003ZM54.4901 8.35596H77.4984L72.701 17.7498C72.4172 18.3095 72.4172 18.9681 72.701 19.5278L77.4984 28.9197H54.4901V8.35596ZM71.8315 72.3998C71.6696 72.5927 71.2199 73.0114 70.5112 72.7566L63.3172 70.164C62.5096 69.8721 61.6071 70.143 61.0914 70.8296L57.3925 75.7809C56.2371 77.327 54.4671 78.2126 52.5381 78.2126C50.6092 78.2126 48.8422 77.327 47.6858 75.7809L43.9868 70.8296C43.4721 70.143 42.5686 69.8721 41.762 70.164L34.565 72.7566C33.8564 73.0114 33.4066 72.5927 33.2477 72.3998C33.0858 72.2069 32.753 71.6891 33.1278 71.0385L46.9342 47.1246C48.0976 45.1098 50.1774 43.9024 52.4991 43.8894C52.5121 43.8894 52.5251 43.8914 52.5381 43.8914C52.5511 43.8914 52.5641 43.8894 52.5771 43.8894C54.9018 43.9024 56.9787 45.1098 58.142 47.1217L71.9535 71.0465C72.3232 71.6941 71.9924 72.2069 71.8315 72.3998ZM107.404 92.9525C107.404 92.9525 107.393 92.9525 107.37 92.9425L102.795 91.2944C101.987 91.0035 101.083 91.2734 100.569 91.961L97.0337 96.6934C96.7158 97.1172 96.2291 97.362 95.6984 97.362C95.1697 97.362 94.683 97.1172 94.3651 96.6934L90.8281 91.961C90.3154 91.2734 89.4119 91.0035 88.6023 91.2944L84.0268 92.9425C84.0138 92.9475 84.0028 92.9505 84.0008 92.9525C83.9818 92.9425 83.9589 92.9135 83.9559 92.9055C83.9559 92.9055 83.9589 92.8955 83.9688 92.8745L92.749 77.6659C93.3657 76.6004 94.4671 75.9628 95.6984 75.9628C96.9297 75.9628 98.0331 76.6004 98.6478 77.6659L107.43 92.8775C107.435 92.8875 107.44 92.8985 107.443 92.8985C107.435 92.9185 107.411 92.9475 107.404 92.9525Z" fill="black"/>
</svg>
