<svg width="200" height="100" viewBox="0 0 562 123" fill="none" xmlns="http://www.w3.org/2000/svg">
<path d="M138.341 32.432C138.341 35.0347 137.723 37.232 136.486 39.024C135.291 40.816 133.755 42.2667 131.877 43.376C130 44.4853 127.909 45.296 125.605 45.808C123.301 46.2773 121.061 46.512 118.885 46.512C116.795 46.512 114.619 46.2987 112.357 45.872C110.139 45.4453 108.091 44.7413 106.213 43.76C104.336 42.736 102.757 41.4133 101.477 39.792C100.24 38.128 99.5575 36.08 99.4295 33.648C99.4295 33.264 99.5575 32.944 99.8135 32.688C100.112 32.432 100.453 32.304 100.837 32.304H109.349C109.605 32.304 109.819 32.3253 109.989 32.368C110.203 32.4107 110.395 32.4747 110.565 32.56C110.864 32.7307 111.227 33.0293 111.653 33.456C112.336 34.8213 113.339 35.76 114.661 36.272C116.027 36.7413 117.435 36.976 118.885 36.976C119.525 36.976 120.251 36.9333 121.061 36.848C121.915 36.7627 122.683 36.592 123.365 36.336C124.091 36.0373 124.709 35.632 125.221 35.12C125.733 34.5653 125.989 33.8613 125.989 33.008C125.989 31.856 125.563 31.024 124.709 30.512C123.856 30 122.96 29.5947 122.021 29.296C121.296 29.04 120.421 28.8053 119.397 28.592C118.416 28.336 117.264 28.08 115.941 27.824C113.979 27.44 112.08 26.9493 110.245 26.352C108.411 25.712 106.768 24.88 105.317 23.856C103.909 22.832 102.757 21.552 101.861 20.016C101.008 18.4373 100.581 16.5173 100.581 14.256C100.581 11.44 101.349 9.02933 102.885 7.024C104.464 4.976 106.512 3.41867 109.029 2.352C111.76 1.24267 114.896 0.688 118.437 0.688C119.845 0.688 121.296 0.815999 122.789 1.072C124.325 1.28533 125.797 1.66933 127.205 2.224C128.656 2.736 130 3.44 131.237 4.336C132.475 5.18933 133.541 6.23466 134.438 7.472C135.888 9.34933 136.677 11.248 136.806 13.168C136.806 13.5093 136.656 13.8293 136.357 14.128C136.101 14.4267 135.803 14.576 135.461 14.576H126.501C125.605 14.576 124.901 14.192 124.389 13.424C124.133 12.528 123.472 11.76 122.405 11.12C121.253 10.5227 119.931 10.224 118.437 10.224C117.797 10.224 117.136 10.2667 116.453 10.352C115.813 10.4373 115.216 10.6293 114.661 10.928C114.107 11.2267 113.659 11.632 113.317 12.144C112.976 12.6133 112.805 13.232 112.805 14C112.805 15.1947 113.445 16.1547 114.725 16.88C116.005 17.5627 118.395 18.2667 121.893 18.992C123.899 19.376 125.883 19.8453 127.845 20.4C129.851 20.912 131.621 21.6587 133.157 22.64C134.693 23.6213 135.931 24.9013 136.869 26.48C137.851 28.016 138.341 30 138.341 32.432ZM144.942 44.336V6.896C144.942 5.31733 145.497 3.99467 146.606 2.928C147.716 1.86133 149.017 1.328 150.51 1.328H155.246C156.356 1.328 156.91 1.88266 156.91 2.992V17.84C156.91 18.5653 157.166 19.0773 157.678 19.376C158.19 19.632 158.596 19.76 158.894 19.76C161.54 19.7173 163.737 19.5253 165.486 19.184C167.278 18.8 169.006 18.2453 170.67 17.52C171.012 17.3493 171.31 17.1147 171.566 16.816C171.822 16.5173 171.95 16.1333 171.95 15.664V6.896C171.95 6.04266 172.1 5.27466 172.398 4.592C172.74 3.90933 173.166 3.33333 173.678 2.864C174.233 2.352 174.83 1.968 175.47 1.712C176.153 1.456 176.836 1.328 177.518 1.328H182.254C183.364 1.328 183.918 1.88266 183.918 2.992V44.336C183.918 44.848 183.769 45.2533 183.47 45.552C183.172 45.808 182.766 45.936 182.254 45.936H173.614C173.188 45.936 172.804 45.7867 172.462 45.488C172.121 45.1893 171.95 44.8053 171.95 44.336V29.168C171.95 28.528 171.737 28.0587 171.31 27.76C170.926 27.4613 170.5 27.312 170.03 27.312C169.86 27.312 169.646 27.3547 169.39 27.44C167.3 28.0373 165.188 28.4213 163.054 28.592C160.964 28.7627 159.108 28.848 157.486 28.848C156.633 28.848 155.908 28.848 155.31 28.848C154.713 28.8053 154.244 28.784 153.902 28.784C154.756 28.912 155.46 29.296 156.014 29.936C156.612 30.5333 156.91 31.2587 156.91 32.112V44.336C156.91 44.848 156.761 45.2533 156.462 45.552C156.164 45.808 155.758 45.936 155.246 45.936H146.542C146.073 45.936 145.689 45.7867 145.39 45.488C145.092 45.1893 144.942 44.8053 144.942 44.336ZM189.434 45.616C189.178 45.2747 189.05 44.9547 189.05 44.656C189.05 44.3573 189.071 44.1653 189.114 44.08L203.962 3.248C204.431 2.01066 205.284 1.392 206.522 1.392H216.442C217.679 1.392 218.532 2.01066 219.002 3.248L233.85 44.08C233.892 44.1653 233.914 44.3573 233.914 44.656C233.914 44.9973 233.764 45.3173 233.466 45.616C233.21 45.872 232.911 46 232.57 46H224.314C223.247 46 222.522 45.5307 222.138 44.592L218.81 35.568C217.274 36.1653 215.716 36.656 214.138 37.04C212.559 37.424 211.023 37.7227 209.53 37.936C208.079 38.1067 206.714 38.2347 205.434 38.32C204.154 38.3627 203.044 38.384 202.106 38.384C201.508 38.384 200.996 38.384 200.57 38.384C200.186 38.384 199.887 38.3627 199.674 38.32C200.442 38.448 201.06 38.8747 201.53 39.6C202.042 40.3253 202.106 41.1787 201.722 42.16L200.826 44.592C200.442 45.5307 199.716 46 198.65 46H190.394C190.095 46 189.775 45.872 189.434 45.616ZM205.69 29.232C206.884 29.1467 208.122 28.9973 209.402 28.784C210.511 28.6133 211.663 28.3787 212.858 28.08C214.095 27.7387 215.268 27.2693 216.378 26.672L211.45 12.592L205.69 29.232ZM275.952 45.872H266.928C265.733 45.872 264.88 45.3173 264.368 44.208L257.84 31.408C257.456 30.7253 256.88 30.384 256.112 30.384H247.728C248.795 30.384 249.627 30.768 250.224 31.536C250.864 32.2613 251.184 33.008 251.184 33.776V44.336C251.184 44.8053 251.035 45.168 250.736 45.424C250.437 45.7227 250.053 45.872 249.584 45.872H240.816C240.389 45.872 240.005 45.7227 239.664 45.424C239.365 45.0827 239.216 44.72 239.216 44.336V6.832C239.216 5.25333 239.771 3.952 240.88 2.928C241.989 1.86133 243.291 1.328 244.784 1.328H258.352C260.741 1.328 263.003 1.584 265.136 2.096C267.312 2.608 269.211 3.44 270.832 4.592C272.496 5.744 273.819 7.25867 274.8 9.136C275.781 10.9707 276.272 13.232 276.272 15.92C276.272 18.48 275.696 20.784 274.544 22.832C273.392 24.88 271.685 26.544 269.424 27.824C269.083 28.0373 268.891 28.2933 268.848 28.592C268.848 28.8907 268.912 29.1253 269.04 29.296L277.104 43.888C277.232 44.144 277.296 44.3787 277.296 44.592C277.296 44.9333 277.147 45.232 276.848 45.488C276.592 45.744 276.293 45.872 275.952 45.872ZM263.92 15.856C263.92 14.1067 263.387 12.784 262.32 11.888C261.296 10.9493 259.952 10.48 258.288 10.48H247.28C248.347 10.48 249.2 10.8427 249.84 11.568C250.48 12.2933 250.8 13.0613 250.8 13.872V19.056C250.8 19.568 250.971 20.016 251.312 20.4C251.696 20.784 252.165 20.976 252.72 20.976H258.288C259.952 20.976 261.296 20.5707 262.32 19.76C263.387 18.9067 263.92 17.6053 263.92 15.856ZM283.916 44.272V6.832C283.916 5.21066 284.471 3.888 285.58 2.864C286.689 1.79733 287.991 1.264 289.484 1.264H315.596C316.065 1.264 316.449 1.43466 316.748 1.776C317.089 2.07467 317.26 2.45867 317.26 2.928V9.264C317.26 9.73333 317.111 10.096 316.812 10.352C316.513 10.6507 316.108 10.8 315.596 10.8H291.98C293.004 10.8 293.836 11.1627 294.476 11.888C295.159 12.6133 295.5 13.4027 295.5 14.256V16.944C295.5 17.4133 295.649 17.8613 295.948 18.288C296.289 18.7147 296.78 18.928 297.42 18.928H311.372C311.841 18.928 312.225 19.0987 312.524 19.44C312.865 19.7387 313.036 20.1227 313.036 20.592V26.352C313.036 26.8213 312.865 27.2267 312.524 27.568C312.225 27.8667 311.841 28.016 311.372 28.016H291.98C292.961 28.016 293.793 28.3573 294.476 29.04C295.159 29.7227 295.5 30.4907 295.5 31.344V34.352C295.5 34.8213 295.671 35.2693 296.012 35.696C296.353 36.1227 296.823 36.336 297.42 36.336H316.108C317.217 36.336 317.772 36.8907 317.772 38V44.272C317.772 44.784 317.601 45.1893 317.26 45.488C316.961 45.744 316.577 45.872 316.108 45.872H285.516C285.089 45.872 284.705 45.7227 284.364 45.424C284.065 45.0827 283.916 44.6987 283.916 44.272ZM371.776 1.2C372.245 1.2 372.629 1.37066 372.928 1.712C373.269 2.01066 373.44 2.39466 373.44 2.864V29.424C373.44 32.3253 372.928 34.8427 371.904 36.976C370.923 39.1093 369.579 40.88 367.872 42.288C366.165 43.696 364.139 44.7413 361.792 45.424C359.488 46.1067 357.035 46.448 354.432 46.448C352.128 46.448 349.867 46.1493 347.648 45.552C345.472 44.9547 343.509 44.0587 341.76 42.864C340.011 41.6267 338.581 40.0907 337.472 38.256C336.405 36.4213 335.851 34.2453 335.808 31.728C335.808 31.3867 335.936 31.0453 336.192 30.704C336.448 30.448 336.768 30.32 337.152 30.32H346.304C346.859 30.32 347.328 30.448 347.712 30.704C348.011 31.0027 348.288 31.472 348.544 32.112C349.184 35.2693 351.253 36.848 354.752 36.848C355.904 36.848 356.885 36.656 357.696 36.272C358.507 35.8453 359.147 35.2693 359.616 34.544C360.128 33.8187 360.491 32.9867 360.704 32.048C360.96 31.1093 361.088 30.1067 361.088 29.04V14.512C361.088 13.7013 361.429 12.9333 362.112 12.208C362.795 11.44 363.627 11.056 364.608 11.056H340.608C340.139 11.056 339.755 10.9067 339.456 10.608C339.157 10.2667 339.008 9.88266 339.008 9.456V6.704C339.008 6.02133 339.136 5.36 339.392 4.72C339.648 4.03733 340.011 3.44 340.48 2.928C340.992 2.416 341.589 2.01066 342.272 1.712C342.955 1.37066 343.723 1.2 344.576 1.2H371.776ZM400.637 46.64C394.578 46.64 389.8 45.168 386.301 42.224C382.802 39.28 380.946 34.9493 380.733 29.232C380.69 28.0373 380.669 26.2027 380.669 23.728C380.669 21.2533 380.69 19.3973 380.733 18.16C380.904 12.528 382.76 8.19733 386.301 5.168C389.885 2.096 394.664 0.559998 400.637 0.559998C406.568 0.559998 411.304 2.096 414.845 5.168C418.429 8.19733 420.306 12.528 420.477 18.16C420.562 20.6347 420.605 22.4907 420.605 23.728C420.605 25.008 420.562 26.8427 420.477 29.232C420.264 34.9493 418.408 39.28 414.909 42.224C411.453 45.168 406.696 46.64 400.637 46.64ZM400.637 37.04C402.856 37.04 404.626 36.3787 405.949 35.056C407.272 33.6907 407.976 31.6213 408.061 28.848C408.146 26.3733 408.189 24.6027 408.189 23.536C408.189 22.4693 408.146 20.7413 408.061 18.352C407.976 15.5787 407.272 13.5307 405.949 12.208C404.626 10.8427 402.856 10.16 400.637 10.16C398.376 10.16 396.584 10.8427 395.261 12.208C393.938 13.5307 393.234 15.5787 393.149 18.352C393.106 19.5467 393.085 21.2747 393.085 23.536C393.085 25.84 393.106 27.6107 393.149 28.848C393.234 31.6213 393.938 33.6907 395.261 35.056C396.584 36.3787 398.376 37.04 400.637 37.04ZM437.484 44.336V32.944C437.484 32.2613 437.399 31.5787 437.228 30.896C437.058 30.1707 436.844 29.5733 436.588 29.104L422.764 3.376C422.636 3.16267 422.572 2.928 422.572 2.672C422.572 2.33066 422.7 2.032 422.956 1.776C423.255 1.47733 423.575 1.328 423.916 1.328H432.3C432.77 1.328 433.218 1.456 433.644 1.712C434.114 1.92533 434.434 2.26666 434.604 2.736C436.14 5.50933 437.527 8.00533 438.764 10.224C439.49 11.5893 440.066 12.6773 440.492 13.488C440.962 14.256 441.367 14.9813 441.708 15.664C442.092 16.3467 442.412 16.9227 442.668 17.392C442.967 17.8613 443.138 18.1387 443.18 18.224C443.266 18.352 443.372 18.416 443.5 18.416C443.628 18.416 443.714 18.352 443.756 18.224C443.799 18.1387 443.948 17.8613 444.204 17.392C444.503 16.88 444.844 16.2613 445.228 15.536C445.655 14.8107 446.124 13.9787 446.636 13.04C447.148 12.1013 447.66 11.1627 448.172 10.224C449.41 8.00533 450.796 5.50933 452.332 2.736C452.887 1.79733 453.655 1.328 454.636 1.328H463.02C463.362 1.328 463.66 1.47733 463.916 1.776C464.215 2.032 464.364 2.33066 464.364 2.672C464.364 2.928 464.3 3.16267 464.172 3.376C461.698 7.984 459.458 12.1227 457.452 15.792C456.258 18.0533 455.298 19.8453 454.572 21.168C453.89 22.448 453.25 23.664 452.652 24.816C452.055 25.9253 451.543 26.8853 451.116 27.696C450.69 28.464 450.434 28.912 450.348 29.04C450.05 29.5947 449.815 30.2133 449.644 30.896C449.516 31.536 449.452 32.1547 449.452 32.752V44.336C449.452 44.848 449.303 45.2533 449.004 45.552C448.706 45.808 448.3 45.936 447.788 45.936H439.084C438.615 45.936 438.231 45.7867 437.932 45.488C437.634 45.1893 437.484 44.8053 437.484 44.336ZM37.0585 77.2C37.5278 77.2 37.9118 77.3707 38.2105 77.712C38.5518 78.0107 38.7225 78.3733 38.7225 78.8V85.968C38.7225 86.4373 38.5518 86.8213 38.2105 87.12C37.9118 87.4187 37.5278 87.568 37.0585 87.568H22.2105C23.1492 87.568 23.9812 87.9093 24.7065 88.592C25.4745 89.2747 25.8585 90.0427 25.8585 90.896V120.208C25.8585 120.677 25.6878 121.04 25.3465 121.296C25.0478 121.595 24.6638 121.744 24.1945 121.744H15.2985C14.8292 121.744 14.4452 121.595 14.1465 121.296C13.8052 121.04 13.6345 120.677 13.6345 120.208V89.488C13.6345 88.8907 13.4425 88.4213 13.0585 88.08C12.6745 87.7387 12.2265 87.568 11.7145 87.568H2.43449C2.00782 87.568 1.62382 87.4187 1.28249 87.12C0.941155 86.8213 0.770488 86.4373 0.770488 85.968V82.704C0.770488 81.8933 0.919821 81.1467 1.21849 80.464C1.55982 79.7813 1.98649 79.2053 2.49849 78.736C3.05315 78.224 3.65049 77.84 4.29049 77.584C4.97315 77.328 5.65582 77.2 6.33849 77.2H37.0585ZM44.6675 120.336V82.896C44.6675 81.3173 45.2222 79.9947 46.3315 78.928C47.4408 77.8613 48.7422 77.328 50.2355 77.328H54.9715C56.0808 77.328 56.6355 77.8827 56.6355 78.992V93.84C56.6355 94.5653 56.8915 95.0773 57.4035 95.376C57.9155 95.632 58.3208 95.76 58.6195 95.76C61.2648 95.7173 63.4622 95.5253 65.2115 95.184C67.0035 94.8 68.7315 94.2453 70.3955 93.52C70.7368 93.3493 71.0355 93.1147 71.2915 92.816C71.5475 92.5173 71.6755 92.1333 71.6755 91.664V82.896C71.6755 82.0427 71.8248 81.2747 72.1235 80.592C72.4648 79.9093 72.8915 79.3333 73.4035 78.864C73.9582 78.352 74.5555 77.968 75.1955 77.712C75.8782 77.456 76.5608 77.328 77.2435 77.328H81.9795C83.0888 77.328 83.6435 77.8827 83.6435 78.992V120.336C83.6435 120.848 83.4942 121.253 83.1955 121.552C82.8968 121.808 82.4915 121.936 81.9795 121.936H73.3395C72.9128 121.936 72.5288 121.787 72.1875 121.488C71.8462 121.189 71.6755 120.805 71.6755 120.336V105.168C71.6755 104.528 71.4622 104.059 71.0355 103.76C70.6515 103.461 70.2248 103.312 69.7555 103.312C69.5848 103.312 69.3715 103.355 69.1155 103.44C67.0248 104.037 64.9128 104.421 62.7795 104.592C60.6888 104.763 58.8328 104.848 57.2115 104.848C56.3582 104.848 55.6328 104.848 55.0355 104.848C54.4382 104.805 53.9688 104.784 53.6275 104.784C54.4808 104.912 55.1848 105.296 55.7395 105.936C56.3368 106.533 56.6355 107.259 56.6355 108.112V120.336C56.6355 120.848 56.4862 121.253 56.1875 121.552C55.8888 121.808 55.4835 121.936 54.9715 121.936H46.2675C45.7982 121.936 45.4142 121.787 45.1155 121.488C44.8168 121.189 44.6675 120.805 44.6675 120.336ZM129.414 121.872H120.39C119.196 121.872 118.342 121.317 117.83 120.208L111.302 107.408C110.918 106.725 110.342 106.384 109.574 106.384H101.19C102.257 106.384 103.089 106.768 103.686 107.536C104.326 108.261 104.646 109.008 104.646 109.776V120.336C104.646 120.805 104.497 121.168 104.198 121.424C103.9 121.723 103.516 121.872 103.046 121.872H94.2785C93.8518 121.872 93.4678 121.723 93.1265 121.424C92.8278 121.083 92.6785 120.72 92.6785 120.336V82.832C92.6785 81.2533 93.2332 79.952 94.3425 78.928C95.4518 77.8613 96.7532 77.328 98.2465 77.328H111.814C114.204 77.328 116.465 77.584 118.598 78.096C120.774 78.608 122.673 79.44 124.294 80.592C125.958 81.744 127.281 83.2587 128.262 85.136C129.244 86.9707 129.734 89.232 129.734 91.92C129.734 94.48 129.158 96.784 128.006 98.832C126.854 100.88 125.148 102.544 122.886 103.824C122.545 104.037 122.353 104.293 122.31 104.592C122.31 104.891 122.374 105.125 122.502 105.296L130.566 119.888C130.694 120.144 130.758 120.379 130.758 120.592C130.758 120.933 130.609 121.232 130.31 121.488C130.054 121.744 129.756 121.872 129.414 121.872ZM117.382 91.856C117.382 90.1067 116.849 88.784 115.782 87.888C114.758 86.9493 113.414 86.48 111.75 86.48H100.742C101.809 86.48 102.662 86.8427 103.302 87.568C103.942 88.2933 104.262 89.0613 104.262 89.872V95.056C104.262 95.568 104.433 96.016 104.774 96.4C105.158 96.784 105.628 96.976 106.182 96.976H111.75C113.414 96.976 114.758 96.5707 115.782 95.76C116.849 94.9067 117.382 93.6053 117.382 91.856ZM155.687 122.64C149.628 122.64 144.85 121.168 141.351 118.224C137.852 115.28 135.996 110.949 135.783 105.232C135.74 104.037 135.719 102.203 135.719 99.728C135.719 97.2533 135.74 95.3973 135.783 94.16C135.954 88.528 137.81 84.1973 141.351 81.168C144.935 78.096 149.714 76.56 155.687 76.56C161.618 76.56 166.354 78.096 169.895 81.168C173.479 84.1973 175.356 88.528 175.527 94.16C175.612 96.6347 175.655 98.4907 175.655 99.728C175.655 101.008 175.612 102.843 175.527 105.232C175.314 110.949 173.458 115.28 169.959 118.224C166.503 121.168 161.746 122.64 155.687 122.64ZM155.687 113.04C157.906 113.04 159.676 112.379 160.999 111.056C162.322 109.691 163.026 107.621 163.111 104.848C163.196 102.373 163.239 100.603 163.239 99.536C163.239 98.4693 163.196 96.7413 163.111 94.352C163.026 91.5787 162.322 89.5307 160.999 88.208C159.676 86.8427 157.906 86.16 155.687 86.16C153.426 86.16 151.634 86.8427 150.311 88.208C148.988 89.5307 148.284 91.5787 148.199 94.352C148.156 95.5467 148.135 97.2747 148.135 99.536C148.135 101.84 148.156 103.611 148.199 104.848C148.284 107.621 148.988 109.691 150.311 111.056C151.634 112.379 153.426 113.04 155.687 113.04ZM182.821 105.04V82.896C182.821 82 182.992 81.2107 183.333 80.528C183.717 79.8453 184.165 79.2693 184.677 78.8C185.232 78.3307 185.829 77.9893 186.469 77.776C187.152 77.52 187.792 77.392 188.389 77.392H193.189C193.658 77.392 194.042 77.5413 194.341 77.84C194.682 78.1387 194.853 78.5227 194.853 78.992V104.912C194.853 107.344 195.408 109.264 196.517 110.672C197.669 112.08 199.525 112.784 202.085 112.784C204.645 112.784 206.48 112.08 207.589 110.672C208.741 109.264 209.317 107.344 209.317 104.912V82.832C209.317 81.936 209.488 81.1467 209.829 80.464C210.213 79.7813 210.682 79.2053 211.237 78.736C211.792 78.2667 212.389 77.9253 213.029 77.712C213.669 77.4987 214.288 77.392 214.885 77.392H219.685C220.154 77.392 220.538 77.5413 220.837 77.84C221.178 78.1387 221.349 78.5227 221.349 78.992V105.04C221.349 108.069 220.88 110.693 219.941 112.912C219.045 115.088 217.765 116.901 216.101 118.352C214.437 119.76 212.41 120.827 210.021 121.552C207.674 122.235 205.05 122.576 202.149 122.576C199.29 122.576 196.666 122.235 194.277 121.552C191.888 120.869 189.84 119.824 188.133 118.416C186.469 116.965 185.168 115.131 184.229 112.912C183.29 110.693 182.821 108.069 182.821 105.04ZM228.559 105.36C228.559 104.72 228.538 103.931 228.495 102.992C228.495 102.011 228.495 100.859 228.495 99.536C228.495 98.1707 228.495 97.0187 228.495 96.08C228.538 95.0987 228.559 94.288 228.559 93.648C228.687 90.704 229.285 88.1653 230.351 86.032C231.418 83.8987 232.847 82.1493 234.639 80.784C236.431 79.4187 238.522 78.416 240.911 77.776C243.301 77.136 245.861 76.816 248.591 76.816C250.17 76.816 251.791 76.944 253.455 77.2C255.119 77.4133 256.719 77.7973 258.255 78.352C259.834 78.9067 261.306 79.632 262.671 80.528C264.037 81.424 265.21 82.5333 266.191 83.856C267.813 85.904 268.645 88.016 268.687 90.192C268.687 90.576 268.559 90.896 268.303 91.152C267.962 91.4507 267.621 91.6 267.279 91.6H257.423C257.082 91.6 256.741 91.5147 256.399 91.344C256.186 91.1733 255.973 90.96 255.759 90.704C255.119 89.1253 254.181 88.016 252.943 87.376C251.706 86.6933 250.255 86.352 248.591 86.352C243.685 86.352 241.125 88.8907 240.911 93.968C240.911 94.5653 240.89 95.3333 240.847 96.272C240.847 97.168 240.847 98.2347 240.847 99.472C240.847 100.709 240.847 101.797 240.847 102.736C240.89 103.632 240.911 104.4 240.911 105.04C241.039 107.728 241.743 109.755 243.023 111.12C244.303 112.443 246.522 113.104 249.679 113.104C250.703 113.104 251.535 113.061 252.175 112.976C252.815 112.891 253.349 112.784 253.775 112.656C254.245 112.485 254.65 112.293 254.991 112.08C255.333 111.824 255.674 111.547 256.015 111.248C256.954 110.437 257.573 109.392 257.871 108.112C258.042 107.429 258.319 106.875 258.703 106.448C259.087 105.979 259.493 105.616 259.919 105.36C260.389 105.061 260.837 104.848 261.263 104.72C261.69 104.592 262.053 104.528 262.351 104.528H251.023C250.597 104.528 250.213 104.357 249.871 104.016C249.53 103.675 249.359 103.291 249.359 102.864V101.776C249.359 101.093 249.487 100.432 249.743 99.792C249.999 99.1093 250.362 98.512 250.831 98C251.301 97.4453 251.877 97.0187 252.559 96.72C253.242 96.3787 254.031 96.208 254.927 96.208H264.399C265.978 96.208 267.109 96.6347 267.791 97.488C268.517 98.2987 268.879 99.408 268.879 100.816V105.296C268.879 108.325 268.325 110.928 267.215 113.104C266.149 115.28 264.677 117.072 262.799 118.48C260.965 119.888 258.81 120.933 256.335 121.616C253.903 122.299 251.322 122.64 248.591 122.64C245.775 122.64 243.173 122.299 240.783 121.616C238.394 120.933 236.303 119.888 234.511 118.48C232.762 117.072 231.354 115.28 230.287 113.104C229.263 110.928 228.687 108.347 228.559 105.36ZM276.418 120.336V82.896C276.418 81.3173 276.972 79.9947 278.082 78.928C279.191 77.8613 280.492 77.328 281.986 77.328H286.722C287.831 77.328 288.385 77.8827 288.385 78.992V93.84C288.385 94.5653 288.642 95.0773 289.154 95.376C289.666 95.632 290.071 95.76 290.37 95.76C293.015 95.7173 295.212 95.5253 296.962 95.184C298.754 94.8 300.482 94.2453 302.146 93.52C302.487 93.3493 302.786 93.1147 303.042 92.816C303.298 92.5173 303.426 92.1333 303.426 91.664V82.896C303.426 82.0427 303.575 81.2747 303.874 80.592C304.215 79.9093 304.642 79.3333 305.154 78.864C305.708 78.352 306.306 77.968 306.946 77.712C307.628 77.456 308.311 77.328 308.994 77.328H313.73C314.839 77.328 315.394 77.8827 315.394 78.992V120.336C315.394 120.848 315.244 121.253 314.946 121.552C314.647 121.808 314.242 121.936 313.73 121.936H305.09C304.663 121.936 304.279 121.787 303.938 121.488C303.596 121.189 303.426 120.805 303.426 120.336V105.168C303.426 104.528 303.212 104.059 302.786 103.76C302.402 103.461 301.975 103.312 301.506 103.312C301.335 103.312 301.122 103.355 300.866 103.44C298.775 104.037 296.663 104.421 294.53 104.592C292.439 104.763 290.583 104.848 288.962 104.848C288.108 104.848 287.383 104.848 286.786 104.848C286.188 104.805 285.719 104.784 285.378 104.784C286.231 104.912 286.935 105.296 287.49 105.936C288.087 106.533 288.385 107.259 288.385 108.112V120.336C288.385 120.848 288.236 121.253 287.938 121.552C287.639 121.808 287.234 121.936 286.722 121.936H278.018C277.548 121.936 277.164 121.787 276.866 121.488C276.567 121.189 276.418 120.805 276.418 120.336ZM336.722 105.36C336.722 104.72 336.701 103.931 336.658 102.992C336.658 102.011 336.658 100.859 336.658 99.536C336.658 98.1707 336.658 97.0187 336.658 96.08C336.701 95.0987 336.722 94.288 336.722 93.648C336.85 90.704 337.447 88.1653 338.514 86.032C339.581 83.8987 341.01 82.1493 342.802 80.784C344.594 79.4187 346.685 78.416 349.074 77.776C351.463 77.136 354.023 76.816 356.754 76.816C358.333 76.816 359.954 76.944 361.618 77.2C363.282 77.4133 364.882 77.7973 366.418 78.352C367.997 78.9067 369.469 79.632 370.834 80.528C372.199 81.424 373.373 82.5333 374.354 83.856C375.975 85.904 376.807 88.016 376.85 90.192C376.85 90.576 376.722 90.896 376.466 91.152C376.125 91.4507 375.783 91.6 375.442 91.6H365.586C365.245 91.6 364.903 91.5147 364.562 91.344C364.349 91.1733 364.135 90.96 363.922 90.704C363.282 89.1253 362.343 88.016 361.106 87.376C359.869 86.6933 358.418 86.352 356.754 86.352C351.847 86.352 349.287 88.8907 349.074 93.968C349.074 94.5653 349.053 95.3333 349.01 96.272C349.01 97.168 349.01 98.2347 349.01 99.472C349.01 100.709 349.01 101.797 349.01 102.736C349.053 103.632 349.074 104.4 349.074 105.04C349.202 107.728 349.906 109.755 351.186 111.12C352.466 112.443 354.685 113.104 357.842 113.104C358.866 113.104 359.698 113.061 360.338 112.976C360.978 112.891 361.511 112.784 361.938 112.656C362.407 112.485 362.813 112.293 363.154 112.08C363.495 111.824 363.837 111.547 364.178 111.248C365.117 110.437 365.735 109.392 366.034 108.112C366.205 107.429 366.482 106.875 366.866 106.448C367.25 105.979 367.655 105.616 368.082 105.36C368.551 105.061 368.999 104.848 369.426 104.72C369.853 104.592 370.215 104.528 370.514 104.528H359.186C358.759 104.528 358.375 104.357 358.034 104.016C357.693 103.675 357.522 103.291 357.522 102.864V101.776C357.522 101.093 357.65 100.432 357.906 99.792C358.162 99.1093 358.525 98.512 358.994 98C359.463 97.4453 360.039 97.0187 360.722 96.72C361.405 96.3787 362.194 96.208 363.09 96.208H372.562C374.141 96.208 375.271 96.6347 375.954 97.488C376.679 98.2987 377.042 99.408 377.042 100.816V105.296C377.042 108.325 376.487 110.928 375.378 113.104C374.311 115.28 372.839 117.072 370.962 118.48C369.127 119.888 366.973 120.933 364.498 121.616C362.066 122.299 359.485 122.64 356.754 122.64C353.938 122.64 351.335 122.299 348.946 121.616C346.557 120.933 344.466 119.888 342.674 118.48C340.925 117.072 339.517 115.28 338.45 113.104C337.426 110.928 336.85 108.347 336.722 105.36ZM380.996 121.616C380.74 121.275 380.612 120.955 380.612 120.656C380.612 120.357 380.633 120.165 380.676 120.08L395.524 79.248C395.993 78.0107 396.847 77.392 398.084 77.392H408.004C409.241 77.392 410.095 78.0107 410.564 79.248L425.412 120.08C425.455 120.165 425.476 120.357 425.476 120.656C425.476 120.997 425.327 121.317 425.028 121.616C424.772 121.872 424.473 122 424.132 122H415.876C414.809 122 414.084 121.531 413.7 120.592L410.372 111.568C408.836 112.165 407.279 112.656 405.7 113.04C404.121 113.424 402.585 113.723 401.092 113.936C399.641 114.107 398.276 114.235 396.996 114.32C395.716 114.363 394.607 114.384 393.668 114.384C393.071 114.384 392.559 114.384 392.132 114.384C391.748 114.384 391.449 114.363 391.236 114.32C392.004 114.448 392.623 114.875 393.092 115.6C393.604 116.325 393.668 117.179 393.284 118.16L392.388 120.592C392.004 121.531 391.279 122 390.212 122H381.956C381.657 122 381.337 121.872 380.996 121.616ZM397.252 105.232C398.447 105.147 399.684 104.997 400.964 104.784C402.073 104.613 403.225 104.379 404.42 104.08C405.657 103.739 406.831 103.269 407.94 102.672L403.012 88.592L397.252 105.232ZM473.594 77.456C474.064 77.456 474.448 77.6053 474.746 77.904C475.045 78.16 475.194 78.544 475.194 79.056V120.464C475.194 120.933 475.045 121.296 474.746 121.552C474.448 121.851 474.064 122 473.594 122H465.466C465.04 122 464.656 121.851 464.314 121.552C464.016 121.211 463.866 120.848 463.866 120.464V98.576C463.866 98.3627 463.76 98.256 463.546 98.256C463.418 98.256 463.312 98.2987 463.226 98.384L457.018 109.84C456.464 110.821 455.717 111.312 454.778 111.312H451.322C450.426 111.312 449.68 110.821 449.082 109.84L442.938 98.448C442.853 98.32 442.746 98.256 442.618 98.256C442.405 98.256 442.298 98.3627 442.298 98.576V120.464C442.298 120.891 442.128 121.253 441.786 121.552C441.488 121.851 441.104 122 440.634 122H432.57C432.101 122 431.717 121.851 431.418 121.552C431.12 121.296 430.97 120.933 430.97 120.464V82.768C430.97 81.872 431.162 81.0827 431.546 80.4C431.93 79.7173 432.4 79.1627 432.954 78.736C433.509 78.3093 434.085 77.9893 434.682 77.776C435.28 77.5627 435.792 77.456 436.218 77.456H439.802C440.826 77.456 441.594 77.904 442.106 78.8L452.73 97.936C452.773 98.064 452.88 98.128 453.05 98.128C453.178 98.128 453.285 98.064 453.37 97.936L464.058 78.8C464.57 77.904 465.338 77.456 466.362 77.456H473.594ZM484.166 120.272V82.832C484.166 81.2107 484.721 79.888 485.83 78.864C486.939 77.7973 488.241 77.264 489.734 77.264H515.846C516.315 77.264 516.699 77.4347 516.998 77.776C517.339 78.0747 517.51 78.4587 517.51 78.928V85.264C517.51 85.7333 517.361 86.096 517.062 86.352C516.763 86.6507 516.358 86.8 515.846 86.8H492.23C493.254 86.8 494.086 87.1627 494.726 87.888C495.409 88.6133 495.75 89.4027 495.75 90.256V92.944C495.75 93.4133 495.899 93.8613 496.198 94.288C496.539 94.7147 497.03 94.928 497.67 94.928H511.622C512.091 94.928 512.475 95.0987 512.774 95.44C513.115 95.7387 513.286 96.1227 513.286 96.592V102.352C513.286 102.821 513.115 103.227 512.774 103.568C512.475 103.867 512.091 104.016 511.622 104.016H492.23C493.211 104.016 494.043 104.357 494.726 105.04C495.409 105.723 495.75 106.491 495.75 107.344V110.352C495.75 110.821 495.921 111.269 496.262 111.696C496.603 112.123 497.073 112.336 497.67 112.336H516.358C517.467 112.336 518.022 112.891 518.022 114V120.272C518.022 120.784 517.851 121.189 517.51 121.488C517.211 121.744 516.827 121.872 516.358 121.872H485.766C485.339 121.872 484.955 121.723 484.614 121.424C484.315 121.083 484.166 120.699 484.166 120.272ZM561.717 108.432C561.717 111.035 561.098 113.232 559.861 115.024C558.666 116.816 557.13 118.267 555.253 119.376C553.375 120.485 551.285 121.296 548.981 121.808C546.677 122.277 544.437 122.512 542.261 122.512C540.17 122.512 537.994 122.299 535.733 121.872C533.514 121.445 531.466 120.741 529.589 119.76C527.711 118.736 526.133 117.413 524.853 115.792C523.615 114.128 522.933 112.08 522.805 109.648C522.805 109.264 522.933 108.944 523.189 108.688C523.487 108.432 523.829 108.304 524.213 108.304H532.725C532.981 108.304 533.194 108.325 533.365 108.368C533.578 108.411 533.77 108.475 533.941 108.56C534.239 108.731 534.602 109.029 535.029 109.456C535.711 110.821 536.714 111.76 538.037 112.272C539.402 112.741 540.81 112.976 542.261 112.976C542.901 112.976 543.626 112.933 544.437 112.848C545.29 112.763 546.058 112.592 546.741 112.336C547.466 112.037 548.085 111.632 548.597 111.12C549.109 110.565 549.365 109.861 549.365 109.008C549.365 107.856 548.938 107.024 548.085 106.512C547.231 106 546.335 105.595 545.397 105.296C544.671 105.04 543.797 104.805 542.773 104.592C541.791 104.336 540.639 104.08 539.317 103.824C537.354 103.44 535.455 102.949 533.621 102.352C531.786 101.712 530.143 100.88 528.693 99.856C527.285 98.832 526.133 97.552 525.237 96.016C524.383 94.4373 523.957 92.5173 523.957 90.256C523.957 87.44 524.725 85.0293 526.261 83.024C527.839 80.976 529.887 79.4187 532.405 78.352C535.135 77.2427 538.271 76.688 541.813 76.688C543.221 76.688 544.671 76.816 546.165 77.072C547.701 77.2853 549.173 77.6693 550.581 78.224C552.031 78.736 553.375 79.44 554.613 80.336C555.85 81.1893 556.917 82.2347 557.813 83.472C559.263 85.3493 560.053 87.248 560.181 89.168C560.181 89.5093 560.031 89.8293 559.733 90.128C559.477 90.4267 559.178 90.576 558.837 90.576H549.877C548.981 90.576 548.277 90.192 547.765 89.424C547.509 88.528 546.847 87.76 545.781 87.12C544.629 86.5227 543.306 86.224 541.813 86.224C541.173 86.224 540.511 86.2667 539.829 86.352C539.189 86.4373 538.591 86.6293 538.037 86.928C537.482 87.2267 537.034 87.632 536.693 88.144C536.351 88.6133 536.181 89.232 536.181 90C536.181 91.1947 536.821 92.1547 538.101 92.88C539.381 93.5627 541.77 94.2667 545.269 94.992C547.274 95.376 549.258 95.8453 551.221 96.4C553.226 96.912 554.997 97.6587 556.533 98.64C558.069 99.6213 559.306 100.901 560.245 102.48C561.226 104.016 561.717 106 561.717 108.432Z" fill="black"/>
</svg>
