<svg width="699" height="153" viewBox="0 0 699 153" fill="none" xmlns="http://www.w3.org/2000/svg">
<path d="M126.318 40.04C126.318 43.2933 125.544 46.04 123.998 48.28C122.504 50.52 120.584 52.3333 118.238 53.72C115.891 55.1067 113.278 56.12 110.398 56.76C107.518 57.3467 104.718 57.64 101.998 57.64C99.3842 57.64 96.6642 57.3733 93.8375 56.84C91.0642 56.3067 88.5042 55.4267 86.1575 54.2C83.8108 52.92 81.8375 51.2667 80.2375 49.24C78.6908 47.16 77.8375 44.6 77.6775 41.56C77.6775 41.08 77.8375 40.68 78.1575 40.36C78.5308 40.04 78.9575 39.88 79.4375 39.88H90.0775C90.3975 39.88 90.6642 39.9067 90.8775 39.96C91.1442 40.0133 91.3842 40.0933 91.5975 40.2C91.9708 40.4133 92.4242 40.7867 92.9575 41.32C93.8108 43.0267 95.0642 44.2 96.7175 44.84C98.4242 45.4267 100.184 45.72 101.998 45.72C102.798 45.72 103.704 45.6667 104.718 45.56C105.784 45.4533 106.744 45.24 107.598 44.92C108.504 44.5467 109.278 44.04 109.918 43.4C110.558 42.7067 110.878 41.8267 110.878 40.76C110.878 39.32 110.344 38.28 109.278 37.64C108.211 37 107.091 36.4933 105.918 36.12C105.011 35.8 103.918 35.5067 102.638 35.24C101.411 34.92 99.9708 34.6 98.3175 34.28C95.8642 33.8 93.4908 33.1867 91.1975 32.44C88.9042 31.64 86.8508 30.6 85.0375 29.32C83.2775 28.04 81.8375 26.44 80.7175 24.52C79.6508 22.5467 79.1175 20.1467 79.1175 17.32C79.1175 13.8 80.0775 10.7867 81.9975 8.28C83.9708 5.72 86.5308 3.77333 89.6775 2.44C93.0908 1.05333 97.0108 0.36 101.438 0.36C103.198 0.36 105.011 0.519999 106.878 0.839998C108.798 1.10666 110.638 1.58666 112.398 2.28C114.211 2.92 115.891 3.8 117.438 4.92C118.984 5.98666 120.318 7.29333 121.438 8.84C123.251 11.1867 124.238 13.56 124.398 15.96C124.398 16.3867 124.211 16.7867 123.838 17.16C123.518 17.5333 123.144 17.72 122.718 17.72H111.518C110.398 17.72 109.518 17.24 108.878 16.28C108.558 15.16 107.731 14.2 106.398 13.4C104.958 12.6533 103.304 12.28 101.438 12.28C100.638 12.28 99.8108 12.3333 98.9575 12.44C98.1575 12.5467 97.4108 12.7867 96.7175 13.16C96.0242 13.5333 95.4642 14.04 95.0375 14.68C94.6108 15.2667 94.3975 16.04 94.3975 17C94.3975 18.4933 95.1975 19.6933 96.7975 20.6C98.3975 21.4533 101.384 22.3333 105.758 23.24C108.264 23.72 110.744 24.3067 113.198 25C115.704 25.64 117.918 26.5733 119.838 27.8C121.758 29.0267 123.304 30.6267 124.478 32.6C125.704 34.52 126.318 37 126.318 40.04ZM134.319 54.92V8.12C134.319 6.14667 135.012 4.49333 136.399 3.16C137.785 1.82666 139.412 1.16 141.279 1.16H147.199C148.585 1.16 149.279 1.85333 149.279 3.24V21.8C149.279 22.7067 149.599 23.3467 150.239 23.72C150.879 24.04 151.385 24.2 151.759 24.2C155.065 24.1467 157.812 23.9067 159.999 23.48C162.239 23 164.399 22.3067 166.479 21.4C166.905 21.1867 167.279 20.8933 167.599 20.52C167.919 20.1467 168.079 19.6667 168.079 19.08V8.12C168.079 7.05333 168.265 6.09333 168.639 5.24C169.065 4.38666 169.599 3.66666 170.239 3.08C170.932 2.44 171.679 1.96 172.479 1.64C173.332 1.32 174.185 1.16 175.039 1.16H180.959C182.345 1.16 183.039 1.85333 183.039 3.24V54.92C183.039 55.56 182.852 56.0667 182.479 56.44C182.105 56.76 181.599 56.92 180.959 56.92H170.159C169.625 56.92 169.145 56.7333 168.719 56.36C168.292 55.9867 168.079 55.5067 168.079 54.92V35.96C168.079 35.16 167.812 34.5733 167.279 34.2C166.799 33.8267 166.265 33.64 165.679 33.64C165.465 33.64 165.199 33.6933 164.879 33.8C162.265 34.5467 159.625 35.0267 156.959 35.24C154.345 35.4533 152.025 35.56 149.999 35.56C148.932 35.56 148.025 35.56 147.279 35.56C146.532 35.5067 145.945 35.48 145.519 35.48C146.585 35.64 147.465 36.12 148.159 36.92C148.905 37.6667 149.279 38.5733 149.279 39.64V54.92C149.279 55.56 149.092 56.0667 148.719 56.44C148.345 56.76 147.839 56.92 147.199 56.92H136.319C135.732 56.92 135.252 56.7333 134.879 56.36C134.505 55.9867 134.319 55.5067 134.319 54.92ZM189.683 56.52C189.363 56.0933 189.203 55.6933 189.203 55.32C189.203 54.9467 189.229 54.7067 189.283 54.6L207.843 3.56C208.429 2.01333 209.496 1.24 211.043 1.24H223.443C224.989 1.24 226.056 2.01333 226.643 3.56L245.203 54.6C245.256 54.7067 245.283 54.9467 245.283 55.32C245.283 55.7467 245.096 56.1467 244.723 56.52C244.403 56.84 244.029 57 243.603 57H233.283C231.949 57 231.043 56.4133 230.563 55.24L226.403 43.96C224.483 44.7067 222.536 45.32 220.563 45.8C218.589 46.28 216.669 46.6533 214.803 46.92C212.989 47.1333 211.282 47.2933 209.682 47.4C208.083 47.4533 206.696 47.48 205.523 47.48C204.776 47.48 204.136 47.48 203.603 47.48C203.123 47.48 202.749 47.4533 202.483 47.4C203.443 47.56 204.216 48.0933 204.803 49C205.443 49.9067 205.523 50.9733 205.043 52.2L203.923 55.24C203.443 56.4133 202.536 57 201.203 57H190.883C190.509 57 190.109 56.84 189.683 56.52ZM210.003 36.04C211.496 35.9333 213.043 35.7467 214.643 35.48C216.029 35.2667 217.469 34.9733 218.963 34.6C220.509 34.1733 221.976 33.5867 223.363 32.84L217.203 15.24L210.003 36.04ZM297.581 56.84H286.301C284.807 56.84 283.741 56.1467 283.101 54.76L274.941 38.76C274.461 37.9067 273.741 37.48 272.781 37.48H262.301C263.634 37.48 264.674 37.96 265.421 38.92C266.221 39.8267 266.621 40.76 266.621 41.72V54.92C266.621 55.5067 266.434 55.96 266.061 56.28C265.687 56.6533 265.207 56.84 264.621 56.84H253.661C253.127 56.84 252.647 56.6533 252.221 56.28C251.847 55.8533 251.661 55.4 251.661 54.92V8.04C251.661 6.06666 252.354 4.44 253.741 3.16C255.127 1.82666 256.754 1.16 258.621 1.16H275.581C278.567 1.16 281.394 1.48 284.061 2.12C286.781 2.76 289.154 3.8 291.181 5.24C293.261 6.68 294.914 8.57333 296.141 10.92C297.367 13.2133 297.981 16.04 297.981 19.4C297.981 22.6 297.261 25.48 295.821 28.04C294.381 30.6 292.247 32.68 289.421 34.28C288.994 34.5467 288.754 34.8667 288.701 35.24C288.701 35.6133 288.781 35.9067 288.941 36.12L299.021 54.36C299.181 54.68 299.261 54.9733 299.261 55.24C299.261 55.6667 299.074 56.04 298.701 56.36C298.381 56.68 298.007 56.84 297.581 56.84ZM282.541 19.32C282.541 17.1333 281.874 15.48 280.541 14.36C279.261 13.1867 277.581 12.6 275.501 12.6H261.741C263.074 12.6 264.141 13.0533 264.941 13.96C265.741 14.8667 266.141 15.8267 266.141 16.84V23.32C266.141 23.96 266.354 24.52 266.781 25C267.261 25.48 267.847 25.72 268.541 25.72H275.501C277.581 25.72 279.261 25.2133 280.541 24.2C281.874 23.1333 282.541 21.5067 282.541 19.32ZM307.206 54.84V8.04C307.206 6.01333 307.899 4.36 309.286 3.08C310.672 1.74666 312.299 1.08 314.166 1.08H320.566C321.206 1.08 321.686 1.26666 322.006 1.64C322.379 2.01333 322.566 2.49333 322.566 3.08V54.84C322.566 55.3733 322.379 55.8267 322.006 56.2C321.686 56.6267 321.206 56.84 320.566 56.84H309.206C308.672 56.84 308.192 56.6533 307.766 56.28C307.392 55.8533 307.206 55.3733 307.206 54.84ZM333.614 54.76V7.96C333.614 6.09333 334.28 4.46667 335.614 3.08C336.947 1.69333 338.6 0.999996 340.574 0.999996H343.214C343.8 0.999996 344.494 1.13333 345.294 1.4C346.094 1.61333 346.92 2.30666 347.774 3.48C350.92 8.38666 353.747 12.8133 356.254 16.76C357.8 19.16 359 21.08 359.854 22.52C360.76 23.9067 361.614 25.2133 362.414 26.44C363.214 27.6133 363.88 28.6267 364.414 29.48C364.947 30.3333 365.267 30.84 365.374 31C365.374 31.1067 365.48 31.16 365.694 31.16C365.96 31.16 366.094 31.0267 366.094 30.76V7.96C366.094 5.88 366.814 4.2 368.254 2.92C369.694 1.64 371.32 0.999996 373.134 0.999996H378.254C378.84 0.999996 379.32 1.18666 379.694 1.56C380.067 2.04 380.254 2.54667 380.254 3.08V54.68C380.254 55.16 380.067 55.64 379.694 56.12C379.267 56.5467 378.787 56.76 378.254 56.76H369.214C368.04 56.76 367.134 56.2533 366.494 55.24C363.294 50.3333 360.414 45.9333 357.854 42.04C356.307 39.6933 355.08 37.8267 354.174 36.44C353.267 35 352.414 33.6933 351.614 32.52C350.814 31.2933 350.147 30.28 349.614 29.48C349.08 28.6267 348.76 28.12 348.654 27.96C348.494 27.8 348.36 27.72 348.254 27.72C347.987 27.72 347.854 27.8533 347.854 28.12V54.76C347.854 55.3467 347.64 55.8267 347.214 56.2C346.787 56.5733 346.307 56.76 345.774 56.76H335.614C335.134 56.76 334.68 56.5467 334.254 56.12C333.827 55.6933 333.614 55.24 333.614 54.76ZM389.59 36.2C389.59 35.4 389.563 34.4133 389.51 33.24C389.51 32.0133 389.51 30.5733 389.51 28.92C389.51 27.2133 389.51 25.7733 389.51 24.6C389.563 23.3733 389.59 22.36 389.59 21.56C389.75 17.88 390.497 14.7067 391.83 12.04C393.163 9.37333 394.95 7.18666 397.19 5.48C399.43 3.77333 402.043 2.52 405.03 1.72C408.017 0.919997 411.217 0.519998 414.63 0.519998C416.603 0.519998 418.63 0.679997 420.71 0.999996C422.79 1.26666 424.79 1.74666 426.71 2.44C428.683 3.13333 430.523 4.04 432.23 5.16C433.937 6.28 435.403 7.66666 436.63 9.32C438.657 11.88 439.697 14.52 439.75 17.24C439.75 17.72 439.59 18.12 439.27 18.44C438.843 18.8133 438.417 19 437.99 19H425.67C425.243 19 424.817 18.8933 424.39 18.68C424.123 18.4667 423.857 18.2 423.59 17.88C422.79 15.9067 421.617 14.52 420.07 13.72C418.523 12.8667 416.71 12.44 414.63 12.44C408.497 12.44 405.297 15.6133 405.03 21.96C405.03 22.7067 405.003 23.6667 404.95 24.84C404.95 25.96 404.95 27.2933 404.95 28.84C404.95 30.3867 404.95 31.7467 404.95 32.92C405.003 34.04 405.03 35 405.03 35.8C405.19 39.16 406.07 41.6933 407.67 43.4C409.27 45.0533 412.043 45.88 415.99 45.88C417.27 45.88 418.31 45.8267 419.11 45.72C419.91 45.6133 420.577 45.48 421.11 45.32C421.697 45.1067 422.203 44.8667 422.63 44.6C423.057 44.28 423.483 43.9333 423.91 43.56C425.083 42.5467 425.857 41.24 426.23 39.64C426.443 38.7867 426.79 38.0933 427.27 37.56C427.75 36.9733 428.257 36.52 428.79 36.2C429.377 35.8267 429.937 35.56 430.47 35.4C431.003 35.24 431.457 35.16 431.83 35.16H417.67C417.137 35.16 416.657 34.9467 416.23 34.52C415.803 34.0933 415.59 33.6133 415.59 33.08V31.72C415.59 30.8667 415.75 30.04 416.07 29.24C416.39 28.3867 416.843 27.64 417.43 27C418.017 26.3067 418.737 25.7733 419.59 25.4C420.443 24.9733 421.43 24.76 422.55 24.76H434.39C436.363 24.76 437.777 25.2933 438.63 26.36C439.537 27.3733 439.99 28.76 439.99 30.52V36.12C439.99 39.9067 439.297 43.16 437.91 45.88C436.577 48.6 434.737 50.84 432.39 52.6C430.097 54.36 427.403 55.6667 424.31 56.52C421.27 57.3733 418.043 57.8 414.63 57.8C411.11 57.8 407.857 57.3733 404.87 56.52C401.883 55.6667 399.27 54.36 397.03 52.6C394.843 50.84 393.083 48.6 391.75 45.88C390.47 43.16 389.75 39.9333 389.59 36.2ZM507.079 0.999996C507.666 0.999996 508.146 1.21333 508.519 1.64C508.946 2.01333 509.159 2.49333 509.159 3.08V36.28C509.159 39.9067 508.519 43.0533 507.239 45.72C506.013 48.3867 504.333 50.6 502.199 52.36C500.066 54.12 497.533 55.4267 494.599 56.28C491.719 57.1333 488.653 57.56 485.399 57.56C482.519 57.56 479.693 57.1867 476.919 56.44C474.199 55.6933 471.746 54.5733 469.559 53.08C467.373 51.5333 465.586 49.6133 464.199 47.32C462.866 45.0267 462.173 42.3067 462.119 39.16C462.119 38.7333 462.279 38.3067 462.599 37.88C462.919 37.56 463.319 37.4 463.799 37.4H475.239C475.933 37.4 476.519 37.56 476.999 37.88C477.373 38.2533 477.719 38.84 478.039 39.64C478.839 43.5867 481.426 45.56 485.799 45.56C487.239 45.56 488.466 45.32 489.479 44.84C490.493 44.3067 491.293 43.5867 491.879 42.68C492.519 41.7733 492.973 40.7333 493.239 39.56C493.559 38.3867 493.719 37.1333 493.719 35.8V17.64C493.719 16.6267 494.146 15.6667 494.999 14.76C495.853 13.8 496.893 13.32 498.119 13.32H468.119C467.533 13.32 467.053 13.1333 466.679 12.76C466.306 12.3333 466.119 11.8533 466.119 11.32V7.88C466.119 7.02666 466.279 6.2 466.599 5.4C466.919 4.54666 467.373 3.8 467.959 3.16C468.599 2.52 469.346 2.01333 470.199 1.64C471.053 1.21333 472.013 0.999996 473.079 0.999996H507.079ZM542.906 57.8C535.332 57.8 529.359 55.96 524.986 52.28C520.612 48.6 518.292 43.1867 518.026 36.04C517.972 34.5467 517.946 32.2533 517.946 29.16C517.946 26.0667 517.972 23.7467 518.026 22.2C518.239 15.16 520.559 9.74666 524.986 5.96C529.466 2.12 535.439 0.199997 542.906 0.199997C550.319 0.199997 556.239 2.12 560.666 5.96C565.146 9.74666 567.492 15.16 567.706 22.2C567.812 25.2933 567.866 27.6133 567.866 29.16C567.866 30.76 567.812 33.0533 567.706 36.04C567.439 43.1867 565.119 48.6 560.746 52.28C556.426 55.96 550.479 57.8 542.906 57.8ZM542.906 45.8C545.679 45.8 547.892 44.9733 549.546 43.32C551.199 41.6133 552.079 39.0267 552.186 35.56C552.292 32.4667 552.346 30.2533 552.346 28.92C552.346 27.5867 552.292 25.4267 552.186 22.44C552.079 18.9733 551.199 16.4133 549.546 14.76C547.892 13.0533 545.679 12.2 542.906 12.2C540.079 12.2 537.839 13.0533 536.186 14.76C534.532 16.4133 533.652 18.9733 533.546 22.44C533.492 23.9333 533.466 26.0933 533.466 28.92C533.466 31.8 533.492 34.0133 533.546 35.56C533.652 39.0267 534.532 41.6133 536.186 43.32C537.839 44.9733 540.079 45.8 542.906 45.8ZM588.715 54.92V40.68C588.715 39.8267 588.608 38.9733 588.395 38.12C588.182 37.2133 587.915 36.4667 587.595 35.88L570.315 3.72C570.155 3.45333 570.075 3.16 570.075 2.84C570.075 2.41333 570.235 2.04 570.555 1.72C570.928 1.34666 571.328 1.16 571.755 1.16H582.235C582.822 1.16 583.382 1.32 583.915 1.64C584.502 1.90666 584.902 2.33333 585.115 2.92C587.035 6.38667 588.768 9.50667 590.315 12.28C591.222 13.9867 591.942 15.3467 592.475 16.36C593.062 17.32 593.568 18.2267 593.995 19.08C594.475 19.9333 594.875 20.6533 595.195 21.24C595.568 21.8267 595.782 22.1733 595.835 22.28C595.942 22.44 596.075 22.52 596.235 22.52C596.395 22.52 596.502 22.44 596.555 22.28C596.608 22.1733 596.795 21.8267 597.115 21.24C597.488 20.6 597.915 19.8267 598.395 18.92C598.928 18.0133 599.515 16.9733 600.155 15.8C600.795 14.6267 601.435 13.4533 602.075 12.28C603.622 9.50667 605.355 6.38667 607.275 2.92C607.968 1.74666 608.928 1.16 610.155 1.16H620.635C621.062 1.16 621.435 1.34666 621.755 1.72C622.128 2.04 622.315 2.41333 622.315 2.84C622.315 3.16 622.235 3.45333 622.075 3.72C618.982 9.48 616.182 14.6533 613.675 19.24C612.182 22.0667 610.982 24.3067 610.075 25.96C609.222 27.56 608.422 29.08 607.675 30.52C606.928 31.9067 606.288 33.1067 605.755 34.12C605.222 35.08 604.902 35.64 604.795 35.8C604.422 36.4933 604.128 37.2667 603.915 38.12C603.755 38.92 603.675 39.6933 603.675 40.44V54.92C603.675 55.56 603.488 56.0667 603.115 56.44C602.742 56.76 602.235 56.92 601.595 56.92H590.715C590.128 56.92 589.648 56.7333 589.275 56.36C588.902 55.9867 588.715 55.5067 588.715 54.92ZM45.4481 96C46.0348 96 46.5148 96.2133 46.8881 96.64C47.3148 97.0133 47.5281 97.4667 47.5281 98V106.96C47.5281 107.547 47.3148 108.027 46.8881 108.4C46.5148 108.773 46.0348 108.96 45.4481 108.96H26.8881C28.0615 108.96 29.1015 109.387 30.0081 110.24C30.9681 111.093 31.4481 112.053 31.4481 113.12V149.76C31.4481 150.347 31.2348 150.8 30.8081 151.12C30.4348 151.493 29.9548 151.68 29.3681 151.68H18.2481C17.6615 151.68 17.1815 151.493 16.8081 151.12C16.3815 150.8 16.1681 150.347 16.1681 149.76V111.36C16.1681 110.613 15.9281 110.027 15.4481 109.6C14.9681 109.173 14.4081 108.96 13.7681 108.96H2.16813C1.63479 108.96 1.15479 108.773 0.728125 108.4C0.301458 108.027 0.0881251 107.547 0.0881251 106.96V102.88C0.0881251 101.867 0.274792 100.933 0.648125 100.08C1.07479 99.2267 1.60813 98.5067 2.24813 97.92C2.94146 97.28 3.68813 96.8 4.48813 96.48C5.34146 96.16 6.19479 96 7.04813 96H45.4481ZM54.7094 149.92V103.12C54.7094 101.147 55.4027 99.4933 56.7894 98.16C58.176 96.8267 59.8027 96.16 61.6694 96.16H67.5894C68.976 96.16 69.6694 96.8533 69.6694 98.24V116.8C69.6694 117.707 69.9894 118.347 70.6294 118.72C71.2694 119.04 71.776 119.2 72.1494 119.2C75.456 119.147 78.2027 118.907 80.3894 118.48C82.6294 118 84.7894 117.307 86.8694 116.4C87.296 116.187 87.6694 115.893 87.9894 115.52C88.3094 115.147 88.4694 114.667 88.4694 114.08V103.12C88.4694 102.053 88.656 101.093 89.0294 100.24C89.456 99.3867 89.9894 98.6667 90.6294 98.08C91.3227 97.44 92.0694 96.96 92.8694 96.64C93.7227 96.32 94.576 96.16 95.4294 96.16H101.349C102.736 96.16 103.429 96.8533 103.429 98.24V149.92C103.429 150.56 103.243 151.067 102.869 151.44C102.496 151.76 101.989 151.92 101.349 151.92H90.5494C90.016 151.92 89.536 151.733 89.1094 151.36C88.6827 150.987 88.4694 150.507 88.4694 149.92V130.96C88.4694 130.16 88.2027 129.573 87.6694 129.2C87.1894 128.827 86.656 128.64 86.0694 128.64C85.856 128.64 85.5894 128.693 85.2694 128.8C82.656 129.547 80.016 130.027 77.3494 130.24C74.736 130.453 72.416 130.56 70.3894 130.56C69.3227 130.56 68.416 130.56 67.6694 130.56C66.9227 130.507 66.336 130.48 65.9094 130.48C66.976 130.64 67.856 131.12 68.5494 131.92C69.296 132.667 69.6694 133.573 69.6694 134.64V149.92C69.6694 150.56 69.4827 151.067 69.1094 151.44C68.736 151.76 68.2294 151.92 67.5894 151.92H56.7094C56.1227 151.92 55.6427 151.733 55.2694 151.36C54.896 150.987 54.7094 150.507 54.7094 149.92ZM160.393 151.84H149.113C147.62 151.84 146.553 151.147 145.913 149.76L137.753 133.76C137.273 132.907 136.553 132.48 135.593 132.48H125.113C126.446 132.48 127.486 132.96 128.233 133.92C129.033 134.827 129.433 135.76 129.433 136.72V149.92C129.433 150.507 129.246 150.96 128.873 151.28C128.5 151.653 128.02 151.84 127.433 151.84H116.473C115.94 151.84 115.46 151.653 115.033 151.28C114.66 150.853 114.473 150.4 114.473 149.92V103.04C114.473 101.067 115.166 99.44 116.553 98.16C117.94 96.8267 119.566 96.16 121.433 96.16H138.393C141.38 96.16 144.206 96.48 146.873 97.12C149.593 97.76 151.966 98.8 153.993 100.24C156.073 101.68 157.726 103.573 158.953 105.92C160.18 108.213 160.793 111.04 160.793 114.4C160.793 117.6 160.073 120.48 158.633 123.04C157.193 125.6 155.06 127.68 152.233 129.28C151.806 129.547 151.566 129.867 151.513 130.24C151.513 130.613 151.593 130.907 151.753 131.12L161.833 149.36C161.993 149.68 162.073 149.973 162.073 150.24C162.073 150.667 161.886 151.04 161.513 151.36C161.193 151.68 160.82 151.84 160.393 151.84ZM145.353 114.32C145.353 112.133 144.686 110.48 143.353 109.36C142.073 108.187 140.393 107.6 138.313 107.6H124.553C125.886 107.6 126.953 108.053 127.753 108.96C128.553 109.867 128.953 110.827 128.953 111.84V118.32C128.953 118.96 129.166 119.52 129.593 120C130.073 120.48 130.66 120.72 131.353 120.72H138.313C140.393 120.72 142.073 120.213 143.353 119.2C144.686 118.133 145.353 116.507 145.353 114.32ZM192.984 152.8C185.41 152.8 179.437 150.96 175.064 147.28C170.69 143.6 168.37 138.187 168.104 131.04C168.05 129.547 168.024 127.253 168.024 124.16C168.024 121.067 168.05 118.747 168.104 117.2C168.317 110.16 170.637 104.747 175.064 100.96C179.544 97.12 185.517 95.2 192.984 95.2C200.397 95.2 206.317 97.12 210.744 100.96C215.224 104.747 217.57 110.16 217.784 117.2C217.89 120.293 217.944 122.613 217.944 124.16C217.944 125.76 217.89 128.053 217.784 131.04C217.517 138.187 215.197 143.6 210.824 147.28C206.504 150.96 200.557 152.8 192.984 152.8ZM192.984 140.8C195.757 140.8 197.97 139.973 199.624 138.32C201.277 136.613 202.157 134.027 202.264 130.56C202.37 127.467 202.424 125.253 202.424 123.92C202.424 122.587 202.37 120.427 202.264 117.44C202.157 113.973 201.277 111.413 199.624 109.76C197.97 108.053 195.757 107.2 192.984 107.2C190.157 107.2 187.917 108.053 186.264 109.76C184.61 111.413 183.73 113.973 183.624 117.44C183.57 118.933 183.544 121.093 183.544 123.92C183.544 126.8 183.57 129.013 183.624 130.56C183.73 134.027 184.61 136.613 186.264 138.32C187.917 139.973 190.157 140.8 192.984 140.8ZM226.651 130.8V103.12C226.651 102 226.865 101.013 227.291 100.16C227.771 99.3067 228.331 98.5867 228.971 98C229.665 97.4133 230.411 96.9867 231.211 96.72C232.065 96.4 232.865 96.24 233.611 96.24H239.611C240.198 96.24 240.678 96.4267 241.051 96.8C241.478 97.1733 241.691 97.6533 241.691 98.24V130.64C241.691 133.68 242.385 136.08 243.771 137.84C245.211 139.6 247.531 140.48 250.731 140.48C253.931 140.48 256.225 139.6 257.611 137.84C259.051 136.08 259.771 133.68 259.771 130.64V103.04C259.771 101.92 259.985 100.933 260.411 100.08C260.891 99.2267 261.478 98.5067 262.171 97.92C262.865 97.3333 263.611 96.9067 264.411 96.64C265.211 96.3733 265.985 96.24 266.731 96.24H272.731C273.318 96.24 273.798 96.4267 274.171 96.8C274.598 97.1733 274.811 97.6533 274.811 98.24V130.8C274.811 134.587 274.225 137.867 273.051 140.64C271.931 143.36 270.331 145.627 268.251 147.44C266.171 149.2 263.638 150.533 260.651 151.44C257.718 152.293 254.438 152.72 250.811 152.72C247.238 152.72 243.958 152.293 240.971 151.44C237.985 150.587 235.425 149.28 233.291 147.52C231.211 145.707 229.585 143.413 228.411 140.64C227.238 137.867 226.651 134.587 226.651 130.8ZM283.574 131.2C283.574 130.4 283.548 129.413 283.494 128.24C283.494 127.013 283.494 125.573 283.494 123.92C283.494 122.213 283.494 120.773 283.494 119.6C283.548 118.373 283.574 117.36 283.574 116.56C283.734 112.88 284.481 109.707 285.814 107.04C287.148 104.373 288.934 102.187 291.174 100.48C293.414 98.7733 296.028 97.52 299.014 96.72C302.001 95.92 305.201 95.52 308.614 95.52C310.588 95.52 312.614 95.68 314.694 96C316.774 96.2667 318.774 96.7467 320.694 97.44C322.668 98.1333 324.508 99.04 326.214 100.16C327.921 101.28 329.388 102.667 330.614 104.32C332.641 106.88 333.681 109.52 333.734 112.24C333.734 112.72 333.574 113.12 333.254 113.44C332.828 113.813 332.401 114 331.974 114H319.654C319.228 114 318.801 113.893 318.374 113.68C318.108 113.467 317.841 113.2 317.574 112.88C316.774 110.907 315.601 109.52 314.054 108.72C312.508 107.867 310.694 107.44 308.614 107.44C302.481 107.44 299.281 110.613 299.014 116.96C299.014 117.707 298.988 118.667 298.934 119.84C298.934 120.96 298.934 122.293 298.934 123.84C298.934 125.387 298.934 126.747 298.934 127.92C298.988 129.04 299.014 130 299.014 130.8C299.174 134.16 300.054 136.693 301.654 138.4C303.254 140.053 306.028 140.88 309.974 140.88C311.254 140.88 312.294 140.827 313.094 140.72C313.894 140.613 314.561 140.48 315.094 140.32C315.681 140.107 316.188 139.867 316.614 139.6C317.041 139.28 317.468 138.933 317.894 138.56C319.068 137.547 319.841 136.24 320.214 134.64C320.428 133.787 320.774 133.093 321.254 132.56C321.734 131.973 322.241 131.52 322.774 131.2C323.361 130.827 323.921 130.56 324.454 130.4C324.988 130.24 325.441 130.16 325.814 130.16H311.654C311.121 130.16 310.641 129.947 310.214 129.52C309.788 129.093 309.574 128.613 309.574 128.08V126.72C309.574 125.867 309.734 125.04 310.054 124.24C310.374 123.387 310.828 122.64 311.414 122C312.001 121.307 312.721 120.773 313.574 120.4C314.428 119.973 315.414 119.76 316.534 119.76H328.374C330.348 119.76 331.761 120.293 332.614 121.36C333.521 122.373 333.974 123.76 333.974 125.52V131.12C333.974 134.907 333.281 138.16 331.894 140.88C330.561 143.6 328.721 145.84 326.374 147.6C324.081 149.36 321.388 150.667 318.294 151.52C315.254 152.373 312.028 152.8 308.614 152.8C305.094 152.8 301.841 152.373 298.854 151.52C295.868 150.667 293.254 149.36 291.014 147.6C288.828 145.84 287.068 143.6 285.734 140.88C284.454 138.16 283.734 134.933 283.574 131.2ZM343.147 149.92V103.12C343.147 101.147 343.84 99.4933 345.227 98.16C346.614 96.8267 348.24 96.16 350.107 96.16H356.027C357.414 96.16 358.107 96.8533 358.107 98.24V116.8C358.107 117.707 358.427 118.347 359.067 118.72C359.707 119.04 360.214 119.2 360.587 119.2C363.894 119.147 366.64 118.907 368.827 118.48C371.067 118 373.227 117.307 375.307 116.4C375.734 116.187 376.107 115.893 376.427 115.52C376.747 115.147 376.907 114.667 376.907 114.08V103.12C376.907 102.053 377.094 101.093 377.467 100.24C377.894 99.3867 378.427 98.6667 379.067 98.08C379.76 97.44 380.507 96.96 381.307 96.64C382.16 96.32 383.014 96.16 383.867 96.16H389.787C391.174 96.16 391.867 96.8533 391.867 98.24V149.92C391.867 150.56 391.68 151.067 391.307 151.44C390.934 151.76 390.427 151.92 389.787 151.92H378.987C378.454 151.92 377.974 151.733 377.547 151.36C377.12 150.987 376.907 150.507 376.907 149.92V130.96C376.907 130.16 376.64 129.573 376.107 129.2C375.627 128.827 375.094 128.64 374.507 128.64C374.294 128.64 374.027 128.693 373.707 128.8C371.094 129.547 368.454 130.027 365.787 130.24C363.174 130.453 360.854 130.56 358.827 130.56C357.76 130.56 356.854 130.56 356.107 130.56C355.36 130.507 354.774 130.48 354.347 130.48C355.414 130.64 356.294 131.12 356.987 131.92C357.734 132.667 358.107 133.573 358.107 134.64V149.92C358.107 150.56 357.92 151.067 357.547 151.44C357.174 151.76 356.667 151.92 356.027 151.92H345.147C344.56 151.92 344.08 151.733 343.707 151.36C343.334 150.987 343.147 150.507 343.147 149.92ZM418.028 131.2C418.028 130.4 418.001 129.413 417.948 128.24C417.948 127.013 417.948 125.573 417.948 123.92C417.948 122.213 417.948 120.773 417.948 119.6C418.001 118.373 418.028 117.36 418.028 116.56C418.188 112.88 418.934 109.707 420.268 107.04C421.601 104.373 423.388 102.187 425.628 100.48C427.868 98.7733 430.481 97.52 433.468 96.72C436.454 95.92 439.654 95.52 443.068 95.52C445.041 95.52 447.068 95.68 449.148 96C451.228 96.2667 453.228 96.7467 455.148 97.44C457.121 98.1333 458.961 99.04 460.668 100.16C462.374 101.28 463.841 102.667 465.068 104.32C467.094 106.88 468.134 109.52 468.188 112.24C468.188 112.72 468.028 113.12 467.708 113.44C467.281 113.813 466.854 114 466.428 114H454.108C453.681 114 453.254 113.893 452.828 113.68C452.561 113.467 452.294 113.2 452.028 112.88C451.228 110.907 450.054 109.52 448.508 108.72C446.961 107.867 445.148 107.44 443.068 107.44C436.934 107.44 433.734 110.613 433.468 116.96C433.468 117.707 433.441 118.667 433.388 119.84C433.388 120.96 433.388 122.293 433.388 123.84C433.388 125.387 433.388 126.747 433.388 127.92C433.441 129.04 433.468 130 433.468 130.8C433.628 134.16 434.508 136.693 436.108 138.4C437.708 140.053 440.481 140.88 444.428 140.88C445.708 140.88 446.748 140.827 447.548 140.72C448.348 140.613 449.014 140.48 449.548 140.32C450.134 140.107 450.641 139.867 451.068 139.6C451.494 139.28 451.921 138.933 452.348 138.56C453.521 137.547 454.294 136.24 454.668 134.64C454.881 133.787 455.228 133.093 455.708 132.56C456.188 131.973 456.694 131.52 457.228 131.2C457.814 130.827 458.374 130.56 458.908 130.4C459.441 130.24 459.894 130.16 460.268 130.16H446.108C445.574 130.16 445.094 129.947 444.668 129.52C444.241 129.093 444.028 128.613 444.028 128.08V126.72C444.028 125.867 444.188 125.04 444.508 124.24C444.828 123.387 445.281 122.64 445.868 122C446.454 121.307 447.174 120.773 448.028 120.4C448.881 119.973 449.868 119.76 450.988 119.76H462.828C464.801 119.76 466.214 120.293 467.068 121.36C467.974 122.373 468.428 123.76 468.428 125.52V131.12C468.428 134.907 467.734 138.16 466.348 140.88C465.014 143.6 463.174 145.84 460.828 147.6C458.534 149.36 455.841 150.667 452.748 151.52C449.708 152.373 446.481 152.8 443.068 152.8C439.548 152.8 436.294 152.373 433.308 151.52C430.321 150.667 427.708 149.36 425.468 147.6C423.281 145.84 421.521 143.6 420.188 140.88C418.908 138.16 418.188 134.933 418.028 131.2ZM473.12 151.52C472.8 151.093 472.64 150.693 472.64 150.32C472.64 149.947 472.667 149.707 472.72 149.6L491.28 98.56C491.867 97.0133 492.933 96.24 494.48 96.24H506.88C508.427 96.24 509.493 97.0133 510.08 98.56L528.64 149.6C528.693 149.707 528.72 149.947 528.72 150.32C528.72 150.747 528.533 151.147 528.16 151.52C527.84 151.84 527.467 152 527.04 152H516.72C515.387 152 514.48 151.413 514 150.24L509.84 138.96C507.92 139.707 505.973 140.32 504 140.8C502.027 141.28 500.107 141.653 498.24 141.92C496.427 142.133 494.72 142.293 493.12 142.4C491.52 142.453 490.133 142.48 488.96 142.48C488.213 142.48 487.573 142.48 487.04 142.48C486.56 142.48 486.187 142.453 485.92 142.4C486.88 142.56 487.653 143.093 488.24 144C488.88 144.907 488.96 145.973 488.48 147.2L487.36 150.24C486.88 151.413 485.973 152 484.64 152H474.32C473.947 152 473.547 151.84 473.12 151.52ZM493.44 131.04C494.933 130.933 496.48 130.747 498.08 130.48C499.467 130.267 500.907 129.973 502.4 129.6C503.947 129.173 505.413 128.587 506.8 127.84L500.64 110.24L493.44 131.04ZM588.618 96.32C589.205 96.32 589.685 96.5067 590.058 96.88C590.431 97.2 590.618 97.68 590.618 98.32V150.08C590.618 150.667 590.431 151.12 590.058 151.44C589.685 151.813 589.205 152 588.618 152H578.458C577.925 152 577.445 151.813 577.018 151.44C576.645 151.013 576.458 150.56 576.458 150.08V122.72C576.458 122.453 576.325 122.32 576.058 122.32C575.898 122.32 575.765 122.373 575.658 122.48L567.898 136.8C567.205 138.027 566.271 138.64 565.098 138.64H560.778C559.658 138.64 558.725 138.027 557.978 136.8L550.298 122.56C550.191 122.4 550.058 122.32 549.898 122.32C549.631 122.32 549.498 122.453 549.498 122.72V150.08C549.498 150.613 549.285 151.067 548.858 151.44C548.485 151.813 548.005 152 547.418 152H537.338C536.751 152 536.271 151.813 535.898 151.44C535.525 151.12 535.338 150.667 535.338 150.08V102.96C535.338 101.84 535.578 100.853 536.058 100C536.538 99.1467 537.125 98.4533 537.818 97.92C538.511 97.3867 539.231 96.9867 539.978 96.72C540.725 96.4533 541.365 96.32 541.898 96.32H546.378C547.658 96.32 548.618 96.88 549.258 98L562.538 121.92C562.591 122.08 562.725 122.16 562.938 122.16C563.098 122.16 563.231 122.08 563.338 121.92L576.698 98C577.338 96.88 578.298 96.32 579.578 96.32H588.618ZM601.583 149.84V103.04C601.583 101.013 602.276 99.36 603.663 98.08C605.049 96.7467 606.676 96.08 608.543 96.08H641.183C641.769 96.08 642.249 96.2933 642.623 96.72C643.049 97.0933 643.263 97.5733 643.263 98.16V106.08C643.263 106.667 643.076 107.12 642.703 107.44C642.329 107.813 641.823 108 641.183 108H611.663C612.943 108 613.983 108.453 614.783 109.36C615.636 110.267 616.062 111.253 616.062 112.32V115.68C616.062 116.267 616.249 116.827 616.622 117.36C617.049 117.893 617.663 118.16 618.463 118.16H635.903C636.489 118.16 636.969 118.373 637.343 118.8C637.769 119.173 637.983 119.653 637.983 120.24V127.44C637.983 128.027 637.769 128.533 637.343 128.96C636.969 129.333 636.489 129.52 635.903 129.52H611.663C612.889 129.52 613.929 129.947 614.783 130.8C615.636 131.653 616.062 132.613 616.062 133.68V137.44C616.062 138.027 616.276 138.587 616.703 139.12C617.129 139.653 617.716 139.92 618.463 139.92H641.823C643.209 139.92 643.903 140.613 643.903 142V149.84C643.903 150.48 643.689 150.987 643.263 151.36C642.889 151.68 642.409 151.84 641.823 151.84H603.583C603.049 151.84 602.569 151.653 602.143 151.28C601.769 150.853 601.583 150.373 601.583 149.84ZM698.271 135.04C698.271 138.293 697.497 141.04 695.951 143.28C694.457 145.52 692.537 147.333 690.191 148.72C687.844 150.107 685.231 151.12 682.351 151.76C679.471 152.347 676.671 152.64 673.951 152.64C671.337 152.64 668.617 152.373 665.791 151.84C663.017 151.307 660.457 150.427 658.111 149.2C655.764 147.92 653.791 146.267 652.191 144.24C650.644 142.16 649.791 139.6 649.631 136.56C649.631 136.08 649.791 135.68 650.111 135.36C650.484 135.04 650.911 134.88 651.391 134.88H662.031C662.351 134.88 662.617 134.907 662.831 134.96C663.097 135.013 663.337 135.093 663.551 135.2C663.924 135.413 664.377 135.787 664.911 136.32C665.764 138.027 667.017 139.2 668.671 139.84C670.377 140.427 672.137 140.72 673.951 140.72C674.751 140.72 675.657 140.667 676.671 140.56C677.737 140.453 678.697 140.24 679.551 139.92C680.457 139.547 681.231 139.04 681.871 138.4C682.511 137.707 682.831 136.827 682.831 135.76C682.831 134.32 682.297 133.28 681.231 132.64C680.164 132 679.044 131.493 677.871 131.12C676.964 130.8 675.871 130.507 674.591 130.24C673.364 129.92 671.924 129.6 670.271 129.28C667.817 128.8 665.444 128.187 663.151 127.44C660.857 126.64 658.804 125.6 656.991 124.32C655.231 123.04 653.791 121.44 652.671 119.52C651.604 117.547 651.071 115.147 651.071 112.32C651.071 108.8 652.031 105.787 653.951 103.28C655.924 100.72 658.484 98.7733 661.631 97.44C665.044 96.0533 668.964 95.36 673.391 95.36C675.151 95.36 676.964 95.52 678.831 95.84C680.751 96.1067 682.591 96.5867 684.351 97.28C686.164 97.92 687.844 98.8 689.391 99.92C690.937 100.987 692.271 102.293 693.391 103.84C695.204 106.187 696.191 108.56 696.351 110.96C696.351 111.387 696.164 111.787 695.791 112.16C695.471 112.533 695.097 112.72 694.671 112.72H683.471C682.351 112.72 681.471 112.24 680.831 111.28C680.511 110.16 679.684 109.2 678.351 108.4C676.911 107.653 675.257 107.28 673.391 107.28C672.591 107.28 671.764 107.333 670.911 107.44C670.111 107.547 669.364 107.787 668.671 108.16C667.977 108.533 667.417 109.04 666.991 109.68C666.564 110.267 666.351 111.04 666.351 112C666.351 113.493 667.151 114.693 668.751 115.6C670.351 116.453 673.337 117.333 677.711 118.24C680.217 118.72 682.697 119.307 685.151 120C687.657 120.64 689.871 121.573 691.791 122.8C693.711 124.027 695.257 125.627 696.431 127.6C697.657 129.52 698.271 132 698.271 135.04Z" fill="black"/>
</svg>
