<svg width="1692" height="37" viewBox="0 0 1692 37" fill="none" xmlns="http://www.w3.org/2000/svg">
<path d="M0.600977 36H5.70098V21.05H20.151V16.4H5.70098V5.7H21.201V0.999998H0.600977V36ZM27.64 36H42.89V31.45H37.79V5.55H42.89V0.999998H27.64V5.55H32.74V31.45H27.64V36ZM51.5775 36H56.6775V22.3H61.6775L69.8275 36H75.9275L66.8775 21.75C71.9775 20.5 74.6775 16.5 74.6775 11.45C74.6775 5.2 70.1775 0.999998 62.9775 0.999998H51.5775V36ZM56.6775 17.75V5.65H62.7275C67.2275 5.65 69.4275 8.25 69.4275 11.5C69.4275 15.6 66.6775 17.75 62.9775 17.75H56.6775ZM92.5404 36.65C100.39 36.65 104.94 32.1 104.94 26.5C104.94 12.35 86.0404 18.65 86.0404 10C86.0404 7.45 87.9404 5 92.3904 5C96.6404 5 99.0904 7.35 99.0904 10.95H104.24C104.24 3.35 97.9904 0.349997 92.4404 0.349997C85.1404 0.349997 80.9404 4.85 80.9404 10C80.9404 24.05 99.7904 16.9 99.7904 26.65C99.7904 29.85 96.8904 31.85 92.7404 31.85C87.9904 31.85 84.8904 29 84.8904 25.15H79.7904C79.7904 31.95 85.4404 36.65 92.5404 36.65ZM118.779 36H123.829V5.7H133.779V0.999998H108.829V5.7H118.779V36ZM168.935 36.7C176.785 36.7 183.135 32.1 185.385 24.85H179.885C178.185 29.2 173.885 31.85 168.935 31.85C161.635 31.85 156.385 26.2 156.385 18.5C156.385 10.9 161.635 5.2 168.935 5.2C173.935 5.2 178.135 7.9 179.885 12.15H185.385C183.085 5.05 176.835 0.349997 168.935 0.349997C158.635 0.349997 151.085 8.25 151.085 18.5C151.085 28.85 158.585 36.7 168.935 36.7ZM192.154 36H197.254V22.3H202.254L210.404 36H216.504L207.454 21.75C212.554 20.5 215.254 16.5 215.254 11.45C215.254 5.2 210.754 0.999998 203.554 0.999998H192.154V36ZM197.254 17.75V5.65H203.304C207.804 5.65 210.004 8.25 210.004 11.5C210.004 15.6 207.254 17.75 203.554 17.75H197.254ZM238.567 36.65C248.817 36.65 256.567 28.75 256.567 18.5C256.567 8.3 248.867 0.349997 238.617 0.349997C228.367 0.349997 220.617 8.2 220.617 18.5C220.617 28.85 228.317 36.65 238.567 36.65ZM238.617 31.8C231.367 31.8 225.917 26.2 225.917 18.5C225.917 10.9 231.367 5.2 238.617 5.2C245.817 5.2 251.317 10.9 251.317 18.5C251.317 26.2 245.817 31.8 238.617 31.8ZM273.79 36.65C281.64 36.65 286.19 32.1 286.19 26.5C286.19 12.35 267.29 18.65 267.29 10C267.29 7.45 269.19 5 273.64 5C277.89 5 280.34 7.35 280.34 10.95H285.49C285.49 3.35 279.24 0.349997 273.69 0.349997C266.39 0.349997 262.19 4.85 262.19 10C262.19 24.05 281.04 16.9 281.04 26.65C281.04 29.85 278.14 31.85 273.99 31.85C269.24 31.85 266.14 29 266.14 25.15H261.04C261.04 31.95 266.69 36.65 273.79 36.65ZM303.429 36.65C311.279 36.65 315.829 32.1 315.829 26.5C315.829 12.35 296.929 18.65 296.929 10C296.929 7.45 298.829 5 303.279 5C307.529 5 309.979 7.35 309.979 10.95H315.129C315.129 3.35 308.879 0.349997 303.329 0.349997C296.029 0.349997 291.829 4.85 291.829 10C291.829 24.05 310.679 16.9 310.679 26.65C310.679 29.85 307.779 31.85 303.629 31.85C298.879 31.85 295.779 29 295.779 25.15H290.679C290.679 31.95 296.329 36.65 303.429 36.65ZM321.468 23.35H334.818V18.75H321.468V23.35ZM342.691 36H347.791V22.6H354.491C360.841 22.6 365.541 18.2 365.541 11.75C365.541 5.25 361.041 0.999998 354.491 0.999998H342.691V36ZM347.791 18V5.65H354.191C357.941 5.65 360.341 8.2 360.341 11.75C360.341 15.3 357.941 18 354.191 18H347.791ZM372.134 36H391.934V31.35H377.234V0.999998H372.134V36ZM394.994 36H400.244L403.044 28.1H419.144L421.944 36H427.294L414.794 0.999998H407.644L394.994 36ZM404.694 23.45L410.894 5.85H411.294L417.494 23.45H404.694ZM436.553 36H441.603V5.7H451.553V0.999998H426.603V5.7H436.553V36ZM457.632 36H462.732V21.05H477.182V16.4H462.732V5.7H478.232V0.999998H457.632V36ZM500.871 36.65C511.121 36.65 518.871 28.75 518.871 18.5C518.871 8.3 511.171 0.349997 500.921 0.349997C490.671 0.349997 482.921 8.2 482.921 18.5C482.921 28.85 490.621 36.65 500.871 36.65ZM500.921 31.8C493.671 31.8 488.221 26.2 488.221 18.5C488.221 10.9 493.671 5.2 500.921 5.2C508.121 5.2 513.621 10.9 513.621 18.5C513.621 26.2 508.121 31.8 500.921 31.8ZM525.845 36H530.945V22.3H535.945L544.095 36H550.195L541.145 21.75C546.245 20.5 548.945 16.5 548.945 11.45C548.945 5.2 544.445 0.999998 537.245 0.999998H525.845V36ZM530.945 17.75V5.65H536.995C541.495 5.65 543.695 8.25 543.695 11.5C543.695 15.6 540.945 17.75 537.245 17.75H530.945ZM556.558 36H561.508V5.85H561.858L570.408 36H577.708L586.208 5.85H586.608V36H591.508V0.999998H582.708L574.208 31.15H573.858L565.358 0.999998H556.558V36ZM624.425 36.65C632.275 36.65 636.825 32.1 636.825 26.5C636.825 12.35 617.925 18.65 617.925 10C617.925 7.45 619.825 5 624.275 5C628.525 5 630.975 7.35 630.975 10.95H636.125C636.125 3.35 629.875 0.349997 624.325 0.349997C617.025 0.349997 612.825 4.85 612.825 10C612.825 24.05 631.675 16.9 631.675 26.65C631.675 29.85 628.775 31.85 624.625 31.85C619.875 31.85 616.775 29 616.775 25.15H611.675C611.675 31.95 617.325 36.65 624.425 36.65ZM659.514 36.65C669.764 36.65 677.514 28.75 677.514 18.5C677.514 8.3 669.814 0.349997 659.564 0.349997C649.314 0.349997 641.564 8.2 641.564 18.5C641.564 28.85 649.264 36.65 659.514 36.65ZM659.564 31.8C652.314 31.8 646.864 26.2 646.864 18.5C646.864 10.9 652.314 5.2 659.564 5.2C666.764 5.2 672.264 10.9 672.264 18.5C672.264 26.2 666.764 31.8 659.564 31.8ZM700.088 36.7C707.938 36.7 714.288 32.1 716.538 24.85H711.038C709.338 29.2 705.038 31.85 700.088 31.85C692.788 31.85 687.538 26.2 687.538 18.5C687.538 10.9 692.788 5.2 700.088 5.2C705.088 5.2 709.288 7.9 711.038 12.15H716.538C714.238 5.05 707.988 0.349997 700.088 0.349997C689.788 0.349997 682.238 8.25 682.238 18.5C682.238 28.85 689.738 36.7 700.088 36.7ZM722.806 36H738.056V31.45H732.956V5.55H738.056V0.999998H722.806V5.55H727.906V31.45H722.806V36ZM742.944 36H748.194L750.994 28.1H767.094L769.894 36H775.244L762.744 0.999998H755.594L742.944 36ZM752.644 23.45L758.844 5.85H759.244L765.444 23.45H752.644ZM780.63 36H800.43V31.35H785.73V0.999998H780.63V36ZM816.967 36H822.217L825.017 28.1H841.117L843.917 36H849.267L836.767 0.999998H829.617L816.967 36ZM826.667 23.45L832.867 5.85H833.267L839.467 23.45H826.667ZM854.654 36H859.754V22.3H864.754L872.904 36H879.004L869.954 21.75C875.054 20.5 877.754 16.5 877.754 11.45C877.754 5.2 873.254 0.999998 866.054 0.999998H854.654V36ZM859.754 17.75V5.65H865.804C870.304 5.65 872.504 8.25 872.504 11.5C872.504 15.6 869.754 17.75 866.054 17.75H859.754ZM900.967 36.7C908.817 36.7 915.167 32.1 917.417 24.85H911.917C910.217 29.2 905.917 31.85 900.967 31.85C893.667 31.85 888.417 26.2 888.417 18.5C888.417 10.9 893.667 5.2 900.967 5.2C905.967 5.2 910.167 7.9 911.917 12.15H917.417C915.117 5.05 908.867 0.349997 900.967 0.349997C890.667 0.349997 883.117 8.25 883.117 18.5C883.117 28.85 890.617 36.7 900.967 36.7ZM920.385 36H925.635L928.435 28.1H944.535L947.335 36H952.685L940.185 0.999998H933.035L920.385 36ZM930.085 23.45L936.285 5.85H936.685L942.885 23.45H930.085ZM957.072 36H970.122C981.322 36 987.772 29.35 987.772 18.5C987.772 8.3 981.322 0.999998 970.122 0.999998H957.072V5.4H960.272V31.6H957.072V36ZM965.372 31.4V5.65H970.122C977.972 5.65 982.522 10.65 982.522 18.5C982.522 26.65 977.872 31.4 970.122 31.4H965.372ZM994.742 36H1015.84V31.3H999.842V20.5H1013.19V15.85H999.842V5.7H1015.34V0.999998H994.742V36ZM1032.49 36H1037.74L1040.54 28.1H1056.64L1059.44 36H1064.79L1052.29 0.999998H1045.14L1032.49 36ZM1042.19 23.45L1048.39 5.85H1048.79L1054.99 23.45H1042.19ZM1070.18 36H1075.28V5.85H1075.63L1088.93 36H1097.53V0.999998H1092.53V31.15H1092.18L1078.68 0.999998H1070.18V36ZM1105.75 36H1118.8C1130 36 1136.45 29.35 1136.45 18.5C1136.45 8.3 1130 0.999998 1118.8 0.999998H1105.75V5.4H1108.95V31.6H1105.75V36ZM1114.05 31.4V5.65H1118.8C1126.65 5.65 1131.2 10.65 1131.2 18.5C1131.2 26.65 1126.55 31.4 1118.8 31.4H1114.05ZM1172.55 36.7C1180.5 36.7 1188.85 32 1190.05 19.1H1173.95V23.5H1184.2C1182.6 29.5 1177.65 31.85 1172.6 31.85C1165.3 31.85 1159.95 26.2 1159.95 18.5C1159.95 10.9 1165.2 5.2 1172.5 5.2C1177.5 5.2 1181.7 7.9 1183.45 12.15H1189C1186.7 5.05 1180.4 0.349997 1172.5 0.349997C1162.2 0.349997 1154.65 8.25 1154.65 18.5C1154.65 28.85 1162.25 36.65 1172.55 36.7ZM1193.19 36H1198.44L1201.24 28.1H1217.34L1220.14 36H1225.49L1212.99 0.999998H1205.84L1193.19 36ZM1202.89 23.45L1209.09 5.85H1209.49L1215.69 23.45H1202.89ZM1230.87 36H1235.82V5.85H1236.17L1244.72 36H1252.02L1260.52 5.85H1260.92V36H1265.82V0.999998H1257.02L1248.52 31.15H1248.17L1239.67 0.999998H1230.87V36ZM1275.02 36H1296.12V31.3H1280.12V20.5H1293.47V15.85H1280.12V5.7H1295.62V0.999998H1275.02V36ZM1313.34 36.65C1321.19 36.65 1325.74 32.1 1325.74 26.5C1325.74 12.35 1306.84 18.65 1306.84 10C1306.84 7.45 1308.74 5 1313.19 5C1317.44 5 1319.89 7.35 1319.89 10.95H1325.04C1325.04 3.35 1318.79 0.349997 1313.24 0.349997C1305.94 0.349997 1301.74 4.85 1301.74 10C1301.74 24.05 1320.59 16.9 1320.59 26.65C1320.59 29.85 1317.69 31.85 1313.54 31.85C1308.79 31.85 1305.69 29 1305.69 25.15H1300.59C1300.59 31.95 1306.24 36.65 1313.34 36.65ZM1346.21 36H1351.16V5.85H1351.51L1360.06 36H1367.36L1375.86 5.85H1376.26V36H1381.16V0.999998H1372.36L1363.86 31.15H1363.51L1355.01 0.999998H1346.21V36ZM1386.55 36H1391.8L1394.6 28.1H1410.7L1413.5 36H1418.85L1406.35 0.999998H1399.2L1386.55 36ZM1396.25 23.45L1402.45 5.85H1402.85L1409.05 23.45H1396.25ZM1424.23 36H1429.33V22.3H1434.33L1442.48 36H1448.58L1439.53 21.75C1444.63 20.5 1447.33 16.5 1447.33 11.45C1447.33 5.2 1442.83 0.999998 1435.63 0.999998H1424.23V36ZM1429.33 17.75V5.65H1435.38C1439.88 5.65 1442.08 8.25 1442.08 11.5C1442.08 15.6 1439.33 17.75 1435.63 17.75H1429.33ZM1454.95 36H1460.05V20.25H1464.45L1474.65 36H1480.9L1468.7 17.8L1480.3 0.999998H1474.2L1464.45 15.55H1460.05V0.999998H1454.95V36ZM1486.49 36H1507.59V31.3H1491.59V20.5H1504.94V15.85H1491.59V5.7H1507.09V0.999998H1486.49V36ZM1521.42 36H1526.47V5.7H1536.42V0.999998H1511.47V5.7H1521.42V36ZM1542.5 36H1547.6V22.6H1554.3C1560.65 22.6 1565.35 18.2 1565.35 11.75C1565.35 5.25 1560.85 0.999998 1554.3 0.999998H1542.5V36ZM1547.6 18V5.65H1554C1557.75 5.65 1560.15 8.2 1560.15 11.75C1560.15 15.3 1557.75 18 1554 18H1547.6ZM1571.94 36H1591.74V31.35H1577.04V0.999998H1571.94V36ZM1594.8 36H1600.05L1602.85 28.1H1618.95L1621.75 36H1627.1L1614.6 0.999998H1607.45L1594.8 36ZM1604.5 23.45L1610.7 5.85H1611.1L1617.3 23.45H1604.5ZM1647.3 36.7C1655.15 36.7 1661.5 32.1 1663.75 24.85H1658.25C1656.55 29.2 1652.25 31.85 1647.3 31.85C1640 31.85 1634.75 26.2 1634.75 18.5C1634.75 10.9 1640 5.2 1647.3 5.2C1652.3 5.2 1656.5 7.9 1658.25 12.15H1663.75C1661.45 5.05 1655.2 0.349997 1647.3 0.349997C1637 0.349997 1629.45 8.25 1629.45 18.5C1629.45 28.85 1636.95 36.7 1647.3 36.7ZM1670.52 36H1691.62V31.3H1675.62V20.5H1688.97V15.85H1675.62V5.7H1691.12V0.999998H1670.52V36Z" fill="black"/>
</svg>
