<svg width="132" height="132" viewBox="0 0 132 132" fill="none" xmlns="http://www.w3.org/2000/svg">
<path d="M128.626 18.1546C127.313 15.8516 125.514 13.8625 123.354 12.3259C121.194 10.7893 118.724 9.74225 116.118 9.25764L114.717 3.46856C114.657 3.2229 114.55 2.99138 114.401 2.78729C114.252 2.5832 114.064 2.41057 113.848 2.27928C113.632 2.148 113.392 2.06066 113.142 2.02227C112.892 1.98388 112.637 1.9952 112.392 2.05558L101.639 4.65885C101.145 4.77894 100.718 5.09055 100.452 5.5252C100.187 5.95986 100.106 6.482 100.225 6.9769L101.25 11.2082L29.9045 28.4822C29.4109 28.6032 28.9854 28.9149 28.7212 29.349C28.4569 29.783 28.3755 30.304 28.4946 30.798L29.1825 33.6383L16.227 36.7758C15.7321 36.8959 15.3052 37.2075 15.04 37.6421C14.7748 38.0768 14.693 38.5989 14.8127 39.0938L15.8276 43.2845L2.46828 46.5175C2.22318 46.5768 1.99216 46.6839 1.78844 46.8325C1.58471 46.9811 1.41226 47.1684 1.28092 47.3836C1.14959 47.5989 1.06196 47.8379 1.02302 48.087C0.984088 48.3361 0.994616 48.5905 1.05401 48.8356L3.52267 59.0271C3.62398 59.4455 3.86292 59.8177 4.20116 60.0841C4.5394 60.3505 4.95732 60.4955 5.38788 60.496C5.54055 60.4954 5.69263 60.477 5.84102 60.4411L19.1992 57.2082L20.2108 61.3857C20.3121 61.8041 20.5511 62.1764 20.8893 62.4427C21.2276 62.7091 21.6455 62.8542 22.076 62.8546C22.2287 62.8546 22.3809 62.8362 22.5292 62.7998L35.4858 59.6644L36.1749 62.5058C36.2766 62.9239 36.5156 63.2958 36.8538 63.5619C37.192 63.8281 37.6097 63.973 38.0401 63.9736C38.1928 63.9736 38.3449 63.9552 38.4932 63.9188L57.683 59.2695C57.9135 60.3706 58.3611 61.4149 58.9996 62.3412L28.4309 124.492C28.0415 125.286 27.8606 126.166 27.9051 127.049C27.9497 127.933 28.2183 128.79 28.6856 129.541C29.153 130.292 29.8038 130.912 30.5767 131.342C31.3496 131.772 32.2193 131.999 33.1038 132C34.077 131.996 35.0297 131.72 35.8553 131.206C36.681 130.691 37.3471 129.956 37.7789 129.084L60.7968 82.2766V126.789C60.7968 128.171 61.3458 129.496 62.3232 130.474C63.3006 131.451 64.6262 132 66.0084 132C67.3906 132 68.7162 131.451 69.6936 130.474C70.6709 129.496 71.22 128.171 71.22 126.789V82.2766L94.2378 129.084C94.6701 129.957 95.3368 130.692 96.1633 131.207C96.9898 131.722 97.9434 131.996 98.9173 132C99.7127 132.003 100.498 131.82 101.209 131.465C101.824 131.164 102.373 130.745 102.826 130.232C103.278 129.718 103.625 129.121 103.846 128.473C104.068 127.826 104.159 127.141 104.115 126.458C104.071 125.775 103.893 125.108 103.591 124.494L73.0238 62.3368C73.7271 61.318 74.197 60.1566 74.3999 58.9355C74.6029 57.7143 74.5338 56.4633 74.1978 55.2719L109.835 46.6316L110.862 50.8684C110.982 51.3631 111.294 51.79 111.729 52.0552C112.164 52.3203 112.686 52.4021 113.181 52.2824L123.933 49.6781C124.178 49.6189 124.409 49.5119 124.613 49.3634C124.817 49.2148 124.99 49.0275 125.121 48.8122C125.252 48.5969 125.34 48.3578 125.379 48.1087C125.418 47.8595 125.407 47.6051 125.347 47.36L123.946 41.5742C127.409 38.8828 129.787 35.0355 130.646 30.7354C131.505 26.4353 130.788 21.9696 128.626 18.1546ZM6.80325 56.257L5.23867 49.7977L16.7306 47.0167L18.2952 53.476L6.80325 56.257ZM23.4914 58.6168L22.4908 54.4842C22.4908 54.4689 22.4908 54.4535 22.4842 54.4381C22.4776 54.4228 22.4732 54.4085 22.4688 54.3932L20.021 44.2916C20.021 44.2773 20.021 44.2642 20.021 44.251C20.021 44.2379 20.0111 44.2258 20.0079 44.2115L19.0017 40.0603L30.0921 37.377L34.5905 55.9367L23.4914 58.6168ZM69.9078 54.9965C70.4934 55.8877 70.7537 56.9535 70.645 58.0142C70.5363 59.0749 70.0651 60.0658 69.3109 60.8196L69.301 60.8317C68.8686 61.2647 68.355 61.6082 67.7896 61.8426C67.2242 62.077 66.6182 62.1976 66.0062 62.1976C65.3942 62.1976 64.7881 62.077 64.2228 61.8426C63.6574 61.6082 63.1438 61.2647 62.7113 60.8317L62.7015 60.8196C62.2402 60.3578 61.8812 59.8042 61.6477 59.1947C61.4141 58.5852 61.3113 57.9335 61.3458 57.2817C61.3804 56.6299 61.5515 55.9927 61.8482 55.4113C62.1448 54.8299 62.5604 54.3174 63.0678 53.9069C63.5753 53.4964 64.1634 53.1971 64.794 53.0284C65.4246 52.8597 66.0836 52.8254 66.7283 52.9278C67.373 53.0301 67.989 53.2667 68.5363 53.6224C69.0837 53.978 69.5502 54.4447 69.9056 54.9921L69.9078 54.9965ZM34.3316 127.391C34.212 127.634 34.0233 127.836 33.7891 127.971C33.555 128.107 33.286 128.17 33.016 128.152C32.7461 128.135 32.4873 128.038 32.2723 127.874C32.0573 127.71 31.8958 127.486 31.8081 127.23C31.7496 127.06 31.7256 126.881 31.7372 126.702C31.7489 126.523 31.7961 126.348 31.8761 126.188L60.7968 67.3733V73.576L34.3316 127.391ZM66.0084 128.159C65.6447 128.159 65.2961 128.014 65.0389 127.757C64.7818 127.5 64.6372 127.152 64.6369 126.788V65.9198C65.5441 66.0807 66.4726 66.0807 67.3799 65.9198V126.789C67.3796 127.153 67.235 127.501 66.9778 127.758C66.7207 128.015 66.372 128.16 66.0084 128.16V128.159ZM100.209 127.229C100.15 127.402 100.057 127.561 99.9355 127.697C99.8142 127.833 99.6668 127.944 99.5021 128.022C99.1757 128.17 98.8051 128.186 98.4668 128.068C98.1284 127.951 97.8483 127.707 97.6841 127.389L71.22 73.576V67.3733L100.142 126.191C100.221 126.351 100.268 126.525 100.279 126.703C100.291 126.881 100.267 127.059 100.209 127.228V127.229ZM66.0084 49.0363C64.1471 49.0396 62.3382 49.6529 60.8589 50.7823C59.3795 51.9117 58.3113 53.495 57.8179 55.2894L39.45 59.7357L33.365 34.6135V34.5949L32.6792 31.7634L102.156 14.9392L108.929 42.8995L72.2557 51.791C71.4625 50.9237 70.4974 50.2309 69.4218 49.7566C68.3463 49.2824 67.1839 49.0371 66.0084 49.0363ZM114.141 48.0983L105.451 12.2251C105.451 12.2054 105.451 12.1856 105.442 12.1659C105.433 12.1461 105.428 12.1297 105.424 12.111L104.412 7.94229L111.434 6.24188L121.164 46.4023L114.141 48.0983ZM117.136 13.4802C119.495 14.2246 121.622 15.5655 123.31 17.373C124.999 19.1804 126.192 21.3932 126.775 23.797C127.357 26.2008 127.309 28.7143 126.634 31.094C125.96 33.4737 124.683 35.639 122.926 37.3803L117.136 13.4802Z" fill="black"/>
<path d="M80.3036 23.0551L65.5564 26.6292C65.3049 26.6822 65.0666 26.7852 64.8557 26.932C64.6447 27.0787 64.4654 27.2664 64.3283 27.4837C64.1912 27.7011 64.0992 27.9437 64.0576 28.1973C64.0161 28.4509 64.0258 28.7102 64.0864 28.9599C64.1469 29.2097 64.257 29.4447 64.41 29.6511C64.5631 29.8576 64.756 30.0312 64.9774 30.1616C65.1988 30.2921 65.4442 30.3768 65.6989 30.4108C65.9536 30.4447 66.2126 30.4272 66.4604 30.3592L81.2088 26.7861C81.4598 26.7325 81.6974 26.6292 81.9078 26.4822C82.1181 26.3352 82.2968 26.1476 82.4334 25.9303C82.57 25.7131 82.6616 25.4707 82.7029 25.2175C82.7442 24.9642 82.7343 24.7053 82.6738 24.4559C82.6132 24.2066 82.5034 23.9719 82.3506 23.7657C82.1978 23.5595 82.0053 23.3861 81.7843 23.2556C81.5633 23.1251 81.3185 23.0402 81.0642 23.006C80.8098 22.9717 80.5512 22.9888 80.3036 23.0562V23.0551Z" fill="black"/>
<path d="M94.5835 21.5719C94.5248 21.3264 94.4182 21.095 94.2697 20.8909C94.1213 20.6867 93.934 20.514 93.7186 20.3824C93.5031 20.2509 93.2638 20.1633 93.0144 20.1246C92.765 20.0858 92.5103 20.0967 92.2652 20.1567L87.8764 21.2186C87.6249 21.2716 87.3867 21.3746 87.1757 21.5214C86.9648 21.6681 86.7855 21.8558 86.6484 22.0731C86.5113 22.2905 86.4192 22.5331 86.3777 22.7867C86.3361 23.0403 86.3459 23.2996 86.4064 23.5494C86.467 23.7991 86.577 24.0341 86.7301 24.2405C86.8831 24.447 87.0761 24.6206 87.2975 24.751C87.5189 24.8815 87.7642 24.9663 88.019 25.0002C88.2737 25.0341 88.5327 25.0166 88.7805 24.9486L93.1637 23.8866C93.4091 23.828 93.6404 23.7216 93.8446 23.5735C94.0488 23.4254 94.2217 23.2385 94.3536 23.0236C94.4854 22.8086 94.5736 22.5697 94.6131 22.3206C94.6525 22.0715 94.6425 21.8171 94.5835 21.5719Z" fill="black"/>
</svg>
