<svg width="1007" height="208" viewBox="0 0 1007 208" fill="none" xmlns="http://www.w3.org/2000/svg">
<rect x="1.5" y="1.5" width="1004" height="205" rx="48.5" stroke="black" stroke-width="3"/>
<path d="M117.812 73.5391C115.023 73.5391 112.754 75.8082 112.754 78.5977C112.754 81.3871 115.023 83.6562 117.812 83.6562C120.602 83.6562 122.871 81.3871 122.871 78.5977C122.871 75.8082 120.602 73.5391 117.812 73.5391ZM117.09 78.5977C117.09 78.1988 117.414 77.875 117.812 77.875C118.211 77.875 118.535 78.1988 118.535 78.5977C118.535 79.3926 117.09 79.3926 117.09 78.5977Z" fill="black"/>
<path d="M146.719 73.5391C143.929 73.5391 141.66 75.8082 141.66 78.5977C141.66 81.3871 143.929 83.6562 146.719 83.6562C149.508 83.6562 151.777 81.3871 151.777 78.5977C151.777 75.8082 149.508 73.5391 146.719 73.5391ZM145.996 78.5977C145.996 78.1988 146.32 77.875 146.719 77.875C147.118 77.875 147.441 78.1988 147.441 78.5977C147.441 79.3926 145.996 79.3926 145.996 78.5977Z" fill="black"/>
<path d="M236.328 87.2695H181.406V78.5977C181.406 73.8946 179.114 69.7495 175.625 67.1103V58.1262C182.525 54.1198 187.188 46.6678 187.188 38.1289V29.457C187.188 27.8614 185.893 26.5664 184.297 26.5664H166.548C164.855 20.4412 157.651 15.0039 143.828 15.0039H120.703H109.141C102.804 15.0039 96.7543 18.0304 92.9531 23.0977C90.3429 26.5751 88.9062 30.8879 88.9062 35.2383V65.3499C83.8043 67.5844 80.2344 72.6834 80.2344 78.5977V90.1602C80.2344 97.1381 85.2091 102.977 91.7969 104.321V129.195C79.6505 133.453 68.6719 138.983 68.6719 145.082V185.551C68.6719 187.146 69.9669 188.441 71.5625 188.441H164.062H216.094C217.689 188.441 218.984 187.146 218.984 185.551V173.988C218.984 172.393 217.689 171.098 216.094 171.098H198.75V156.645H236.328C237.924 156.645 239.219 155.35 239.219 153.754V90.1602C239.219 88.5645 237.924 87.2695 236.328 87.2695ZM166.953 87.2695V69.9258C171.734 69.9258 175.625 73.8166 175.625 78.5977V87.2695H166.953ZM120.703 117.745C122.807 118.607 125.065 119.066 127.346 119.066H137.185C138.44 119.066 139.7 118.907 140.938 118.633V131.369C134.465 135.078 126.334 134.317 120.703 129.38V117.745ZM143.828 87.2695C142.232 87.2695 140.938 88.5645 140.938 90.1602V112.638C139.718 113.054 138.446 113.285 137.185 113.285H127.346C125.374 113.285 123.42 112.785 121.692 111.84L108.354 104.529C105.175 101.78 103.359 97.8116 103.359 93.6V69.9258C103.906 69.9258 104.386 69.735 104.822 69.472L104.848 69.5153L118.613 61.2539H161.172V87.2695H143.828ZM164.062 32.3477V38.1289C164.062 47.694 156.284 55.4727 146.719 55.4727H144.62C149.439 51.2321 152.5 45.0375 152.5 38.1289V32.3477H164.062ZM146.719 38.1289C146.719 47.694 138.94 55.4727 129.375 55.4727H120.703V49.6914C120.703 40.1263 128.482 32.3477 138.047 32.3477H146.719V38.1289ZM169.844 64.4365C168.91 64.2457 167.942 64.1445 166.953 64.1445V61.0545C167.939 60.9302 168.901 60.7394 169.844 60.4937V64.4365ZM181.406 38.1289C181.406 47.694 173.628 55.4727 164.062 55.4727H161.964C166.783 51.2321 169.844 45.0375 169.844 38.1289V32.3477H181.406V38.1289ZM109.141 26.5664C111.855 22.9473 116.176 20.7852 120.703 20.7852H143.828C152.624 20.7852 158.14 23.3954 160.212 26.5664H138.047C125.296 26.5664 114.922 36.9409 114.922 49.6914V56.7272L106.25 61.9303V35.2383C106.25 32.1309 107.276 29.0495 109.141 26.5664ZM94.6875 35.2383C94.6875 32.1309 95.7137 29.0495 97.5781 26.5664C99.7056 23.7278 102.822 21.7882 106.25 21.08C105.631 21.7102 105.05 22.3837 104.516 23.0977C101.905 26.5751 100.469 30.8879 100.469 35.2383V64.1445H94.6875V35.2383ZM86.0156 90.1602V78.5977C86.0156 73.8166 89.9064 69.9258 94.6875 69.9258H97.5781V93.6C97.5781 95.3922 97.8412 97.141 98.2921 98.832H94.6875C89.9064 98.832 86.0156 94.9413 86.0156 90.1602ZM97.5781 104.613H100.862C101.955 106.29 103.281 107.828 104.86 109.143C105.001 109.264 105.157 109.368 105.322 109.458L114.922 114.719V122.555C110.132 123.697 103.911 125.304 97.5781 127.282V104.613ZM74.4531 145.082C74.4531 142.885 81.46 139.191 91.7969 135.439V170.462L88.3397 171.155L89.4757 176.824L91.7969 176.359V182.66H74.4531V145.082ZM140.938 182.66H97.5781V175.202L118.099 171.098H135.156C138.345 171.098 140.938 173.691 140.938 176.879V182.66ZM161.172 173.988V182.66H146.719V176.879C146.719 170.502 141.533 165.316 135.156 165.316H117.812C117.622 165.316 117.434 165.334 117.246 165.374L97.5781 169.305V133.447C102.897 131.71 108.797 130.019 114.922 128.513V130.629C114.922 131.395 115.225 132.132 115.769 132.673C120.287 137.191 126.265 139.515 132.283 139.512C135.22 139.512 138.148 138.896 140.938 137.775V153.754C140.938 155.35 142.232 156.645 143.828 156.645H181.406V171.098H164.062C162.467 171.098 161.172 172.393 161.172 173.988ZM213.203 182.66H166.953V176.879H213.203V182.66ZM187.188 171.098V104.613C187.188 103.021 188.485 101.723 190.078 101.723C191.671 101.723 192.969 103.021 192.969 104.613V171.098H187.188ZM233.438 150.863H198.75V104.613C198.75 99.8322 194.859 95.9414 190.078 95.9414C185.297 95.9414 181.406 99.8322 181.406 104.613V150.863H146.719V93.0508H233.438V150.863Z" fill="black"/>
<path d="M320.185 121.92H314.545C313.798 121.92 313.265 121.573 312.945 120.88L308.865 112.88C308.625 112.453 308.265 112.24 307.785 112.24H302.545C303.212 112.24 303.732 112.48 304.105 112.96C304.505 113.413 304.705 113.88 304.705 114.36V120.96C304.705 121.253 304.612 121.48 304.425 121.64C304.238 121.827 303.998 121.92 303.705 121.92H298.225C297.958 121.92 297.718 121.827 297.505 121.64C297.318 121.427 297.225 121.2 297.225 120.96V97.52C297.225 96.5333 297.572 95.72 298.265 95.08C298.958 94.4133 299.772 94.08 300.705 94.08H309.185C310.678 94.08 312.092 94.24 313.425 94.56C314.785 94.88 315.972 95.4 316.985 96.12C318.025 96.84 318.852 97.7867 319.465 98.96C320.078 100.107 320.385 101.52 320.385 103.2C320.385 104.8 320.025 106.24 319.305 107.52C318.585 108.8 317.518 109.84 316.105 110.64C315.892 110.773 315.772 110.933 315.745 111.12C315.745 111.307 315.785 111.453 315.865 111.56L320.905 120.68C320.985 120.84 321.025 120.987 321.025 121.12C321.025 121.333 320.932 121.52 320.745 121.68C320.585 121.84 320.398 121.92 320.185 121.92ZM312.665 103.16C312.665 102.067 312.332 101.24 311.665 100.68C311.025 100.093 310.185 99.8 309.145 99.8H302.265C302.932 99.8 303.465 100.027 303.865 100.48C304.265 100.933 304.465 101.413 304.465 101.92V105.16C304.465 105.48 304.572 105.76 304.785 106C305.025 106.24 305.318 106.36 305.665 106.36H309.145C310.185 106.36 311.025 106.107 311.665 105.6C312.332 105.067 312.665 104.253 312.665 103.16ZM325.037 120.92V97.52C325.037 96.5067 325.384 95.68 326.077 95.04C326.771 94.3733 327.584 94.04 328.517 94.04H344.837C345.131 94.04 345.371 94.1467 345.557 94.36C345.771 94.5467 345.877 94.7867 345.877 95.08V99.04C345.877 99.3333 345.784 99.56 345.597 99.72C345.411 99.9067 345.157 100 344.837 100H330.077C330.717 100 331.237 100.227 331.637 100.68C332.064 101.133 332.277 101.627 332.277 102.16V103.84C332.277 104.133 332.371 104.413 332.557 104.68C332.771 104.947 333.077 105.08 333.477 105.08H342.197C342.491 105.08 342.731 105.187 342.917 105.4C343.131 105.587 343.237 105.827 343.237 106.12V109.72C343.237 110.013 343.131 110.267 342.917 110.48C342.731 110.667 342.491 110.76 342.197 110.76H330.077C330.691 110.76 331.211 110.973 331.637 111.4C332.064 111.827 332.277 112.307 332.277 112.84V114.72C332.277 115.013 332.384 115.293 332.597 115.56C332.811 115.827 333.104 115.96 333.477 115.96H345.157C345.851 115.96 346.197 116.307 346.197 117V120.92C346.197 121.24 346.091 121.493 345.877 121.68C345.691 121.84 345.451 121.92 345.157 121.92H326.037C325.771 121.92 325.531 121.827 325.317 121.64C325.131 121.427 325.037 121.187 325.037 120.92ZM369.627 120.48C370.027 120.267 370.454 120.16 370.907 120.16C371.28 120.16 371.614 120.24 371.907 120.4C372.227 120.533 372.454 120.68 372.587 120.84L374.347 123.36C374.427 123.52 374.467 123.653 374.467 123.76V123.88C374.467 124.093 374.374 124.267 374.187 124.4C374.027 124.533 373.854 124.6 373.667 124.6H368.187C367.867 124.6 367.56 124.507 367.267 124.32C367.16 124.24 367.054 124.147 366.947 124.04C366.867 123.933 366.774 123.813 366.667 123.68L365.467 122.08C364.747 122.24 364.134 122.333 363.627 122.36C363.12 122.387 362.547 122.4 361.907 122.4C360.147 122.4 358.52 122.187 357.027 121.76C355.534 121.333 354.24 120.68 353.147 119.8C352.08 118.92 351.227 117.8 350.587 116.44C349.947 115.08 349.6 113.453 349.547 111.56C349.52 111.187 349.507 110.72 349.507 110.16C349.507 109.6 349.507 108.92 349.507 108.12C349.507 107.373 349.507 106.72 349.507 106.16C349.507 105.573 349.52 105.08 349.547 104.68C349.6 102.84 349.947 101.24 350.587 99.88C351.227 98.4933 352.094 97.3467 353.187 96.44C354.28 95.5333 355.56 94.8533 357.027 94.4C358.52 93.9467 360.147 93.72 361.907 93.72C363.667 93.72 365.294 93.9467 366.787 94.4C368.28 94.8533 369.574 95.5333 370.667 96.44C371.76 97.3467 372.627 98.4933 373.267 99.88C373.907 101.24 374.254 102.84 374.307 104.68C374.334 105.453 374.347 106.133 374.347 106.72C374.374 107.28 374.387 107.747 374.387 108.12C374.387 109.24 374.347 110.413 374.267 111.64C374.187 112.84 373.987 114 373.667 115.12C373.374 116.213 372.907 117.24 372.267 118.2C371.627 119.133 370.747 119.893 369.627 120.48ZM366.547 111.32C366.574 110.573 366.587 109.92 366.587 109.36C366.614 108.8 366.627 108.347 366.627 108C366.627 107.68 366.614 107.253 366.587 106.72C366.587 106.187 366.574 105.547 366.547 104.8C366.52 103.333 366.134 102.12 365.387 101.16C364.667 100.173 363.507 99.68 361.907 99.68C360.334 99.68 359.174 100.173 358.427 101.16C357.707 102.12 357.334 103.333 357.307 104.8C357.28 105.173 357.267 105.627 357.267 106.16C357.267 106.693 357.267 107.307 357.267 108C357.267 108.747 357.267 109.4 357.267 109.96C357.267 110.493 357.28 110.947 357.307 111.32C357.334 112.813 357.707 114.04 358.427 115C359.174 115.933 360.334 116.4 361.907 116.4C363.507 116.4 364.667 115.933 365.387 115C366.134 114.067 366.52 112.84 366.547 111.32ZM378.861 111.4V97.56C378.861 97 378.967 96.5067 379.181 96.08C379.421 95.6533 379.701 95.2933 380.021 95C380.367 94.7067 380.741 94.4933 381.141 94.36C381.567 94.2 381.967 94.12 382.341 94.12H385.341C385.634 94.12 385.874 94.2133 386.061 94.4C386.274 94.5867 386.381 94.8267 386.381 95.12V111.32C386.381 112.84 386.727 114.04 387.421 114.92C388.141 115.8 389.301 116.24 390.901 116.24C392.501 116.24 393.647 115.8 394.341 114.92C395.061 114.04 395.421 112.84 395.421 111.32V97.52C395.421 96.96 395.527 96.4667 395.741 96.04C395.981 95.6133 396.274 95.2533 396.621 94.96C396.967 94.6667 397.341 94.4533 397.741 94.32C398.141 94.1867 398.527 94.12 398.901 94.12H401.901C402.194 94.12 402.434 94.2133 402.621 94.4C402.834 94.5867 402.941 94.8267 402.941 95.12V111.4C402.941 113.293 402.647 114.933 402.061 116.32C401.501 117.68 400.701 118.813 399.661 119.72C398.621 120.6 397.354 121.267 395.861 121.72C394.394 122.147 392.754 122.36 390.941 122.36C389.154 122.36 387.514 122.147 386.021 121.72C384.527 121.293 383.247 120.64 382.181 119.76C381.141 118.853 380.327 117.707 379.741 116.32C379.154 114.933 378.861 113.293 378.861 111.4ZM408.162 120.92V97.52C408.162 96.5067 408.509 95.68 409.202 95.04C409.896 94.3733 410.709 94.04 411.642 94.04H427.962C428.256 94.04 428.496 94.1467 428.682 94.36C428.896 94.5467 429.002 94.7867 429.002 95.08V99.04C429.002 99.3333 428.909 99.56 428.722 99.72C428.536 99.9067 428.282 100 427.962 100H413.202C413.842 100 414.362 100.227 414.762 100.68C415.189 101.133 415.402 101.627 415.402 102.16V103.84C415.402 104.133 415.496 104.413 415.682 104.68C415.896 104.947 416.202 105.08 416.602 105.08H425.322C425.616 105.08 425.856 105.187 426.042 105.4C426.256 105.587 426.362 105.827 426.362 106.12V109.72C426.362 110.013 426.256 110.267 426.042 110.48C425.856 110.667 425.616 110.76 425.322 110.76H413.202C413.816 110.76 414.336 110.973 414.762 111.4C415.189 111.827 415.402 112.307 415.402 112.84V114.72C415.402 115.013 415.509 115.293 415.722 115.56C415.936 115.827 416.229 115.96 416.602 115.96H428.282C428.976 115.96 429.322 116.307 429.322 117V120.92C429.322 121.24 429.216 121.493 429.002 121.68C428.816 121.84 428.576 121.92 428.282 121.92H409.162C408.896 121.92 408.656 121.827 408.442 121.64C408.256 121.427 408.162 121.187 408.162 120.92ZM456.506 113.52C456.506 115.147 456.12 116.52 455.346 117.64C454.6 118.76 453.64 119.667 452.466 120.36C451.293 121.053 449.986 121.56 448.546 121.88C447.106 122.173 445.706 122.32 444.346 122.32C443.04 122.32 441.68 122.187 440.266 121.92C438.88 121.653 437.6 121.213 436.426 120.6C435.253 119.96 434.266 119.133 433.466 118.12C432.693 117.08 432.266 115.8 432.186 114.28C432.186 114.04 432.266 113.84 432.426 113.68C432.613 113.52 432.826 113.44 433.066 113.44H438.386C438.546 113.44 438.68 113.453 438.786 113.48C438.92 113.507 439.04 113.547 439.146 113.6C439.333 113.707 439.56 113.893 439.826 114.16C440.253 115.013 440.88 115.6 441.706 115.92C442.56 116.213 443.44 116.36 444.346 116.36C444.746 116.36 445.2 116.333 445.706 116.28C446.24 116.227 446.72 116.12 447.146 115.96C447.6 115.773 447.986 115.52 448.306 115.2C448.626 114.853 448.786 114.413 448.786 113.88C448.786 113.16 448.52 112.64 447.986 112.32C447.453 112 446.893 111.747 446.306 111.56C445.853 111.4 445.306 111.253 444.666 111.12C444.053 110.96 443.333 110.8 442.506 110.64C441.28 110.4 440.093 110.093 438.946 109.72C437.8 109.32 436.773 108.8 435.866 108.16C434.986 107.52 434.266 106.72 433.706 105.76C433.173 104.773 432.906 103.573 432.906 102.16C432.906 100.4 433.386 98.8933 434.346 97.64C435.333 96.36 436.613 95.3867 438.186 94.72C439.893 94.0267 441.853 93.68 444.066 93.68C444.946 93.68 445.853 93.76 446.786 93.92C447.746 94.0533 448.666 94.2933 449.546 94.64C450.453 94.96 451.293 95.4 452.066 95.96C452.84 96.4933 453.506 97.1467 454.066 97.92C454.973 99.0933 455.466 100.28 455.546 101.48C455.546 101.693 455.453 101.893 455.266 102.08C455.106 102.267 454.92 102.36 454.706 102.36H449.106C448.546 102.36 448.106 102.12 447.786 101.64C447.626 101.08 447.213 100.6 446.546 100.2C445.826 99.8267 445 99.64 444.066 99.64C443.666 99.64 443.253 99.6667 442.826 99.72C442.426 99.7733 442.053 99.8933 441.706 100.08C441.36 100.267 441.08 100.52 440.866 100.84C440.653 101.133 440.546 101.52 440.546 102C440.546 102.747 440.946 103.347 441.746 103.8C442.546 104.227 444.04 104.667 446.226 105.12C447.48 105.36 448.72 105.653 449.946 106C451.2 106.32 452.306 106.787 453.266 107.4C454.226 108.013 455 108.813 455.586 109.8C456.2 110.76 456.506 112 456.506 113.52ZM480.994 94C481.287 94 481.527 94.1067 481.714 94.32C481.927 94.5067 482.034 94.7333 482.034 95V99.48C482.034 99.7733 481.927 100.013 481.714 100.2C481.527 100.387 481.287 100.48 480.994 100.48H471.714C472.3 100.48 472.82 100.693 473.274 101.12C473.754 101.547 473.994 102.027 473.994 102.56V120.88C473.994 121.173 473.887 121.4 473.674 121.56C473.487 121.747 473.247 121.84 472.954 121.84H467.394C467.1 121.84 466.86 121.747 466.674 121.56C466.46 121.4 466.354 121.173 466.354 120.88V101.68C466.354 101.307 466.234 101.013 465.994 100.8C465.754 100.587 465.474 100.48 465.154 100.48H459.354C459.087 100.48 458.847 100.387 458.634 100.2C458.42 100.013 458.314 99.7733 458.314 99.48V97.44C458.314 96.9333 458.407 96.4667 458.594 96.04C458.807 95.6133 459.074 95.2533 459.394 94.96C459.74 94.64 460.114 94.4 460.514 94.24C460.94 94.08 461.367 94 461.794 94H480.994ZM490.845 121.76C490.685 121.547 490.605 121.347 490.605 121.16C490.605 120.973 490.618 120.853 490.645 120.8L499.925 95.28C500.218 94.5067 500.752 94.12 501.525 94.12H507.725C508.498 94.12 509.032 94.5067 509.325 95.28L518.605 120.8C518.632 120.853 518.645 120.973 518.645 121.16C518.645 121.373 518.552 121.573 518.365 121.76C518.205 121.92 518.018 122 517.805 122H512.645C511.978 122 511.525 121.707 511.285 121.12L509.205 115.48C508.245 115.853 507.272 116.16 506.285 116.4C505.298 116.64 504.338 116.827 503.405 116.96C502.498 117.067 501.645 117.147 500.845 117.2C500.045 117.227 499.352 117.24 498.765 117.24C498.392 117.24 498.072 117.24 497.805 117.24C497.565 117.24 497.378 117.227 497.245 117.2C497.725 117.28 498.112 117.547 498.405 118C498.725 118.453 498.765 118.987 498.525 119.6L497.965 121.12C497.725 121.707 497.272 122 496.605 122H491.445C491.258 122 491.058 121.92 490.845 121.76ZM501.005 111.52C501.752 111.467 502.525 111.373 503.325 111.24C504.018 111.133 504.738 110.987 505.485 110.8C506.258 110.587 506.992 110.293 507.685 109.92L504.605 101.12L501.005 111.52ZM521.874 120.88V97.44C521.874 96.9333 521.968 96.4667 522.154 96.04C522.368 95.6133 522.634 95.2533 522.954 94.96C523.301 94.6667 523.674 94.44 524.074 94.28C524.501 94.0933 524.928 94 525.354 94H528.474C528.768 94 528.994 94.0933 529.154 94.28C529.341 94.4667 529.434 94.7067 529.434 95V114.4C529.434 114.613 529.541 114.88 529.754 115.2C529.968 115.493 530.274 115.64 530.674 115.64H541.394C541.688 115.64 541.928 115.733 542.114 115.92C542.328 116.08 542.434 116.32 542.434 116.64V120.88C542.434 121.2 542.328 121.453 542.114 121.64C541.928 121.8 541.688 121.88 541.394 121.88H522.874C522.634 121.88 522.408 121.773 522.194 121.56C521.981 121.347 521.874 121.12 521.874 120.88ZM569.299 103.24C569.299 104.92 569.005 106.347 568.419 107.52C567.832 108.667 567.032 109.6 566.019 110.32C565.032 111.013 563.872 111.52 562.539 111.84C561.205 112.133 559.779 112.28 558.259 112.28H554.899C554.579 112.28 554.299 112.387 554.059 112.6C553.819 112.813 553.699 113.107 553.699 113.48V120.88C553.699 121.147 553.592 121.387 553.379 121.6C553.192 121.787 552.965 121.88 552.699 121.88H546.979C546.712 121.88 546.472 121.787 546.259 121.6C546.072 121.387 545.979 121.147 545.979 120.88V97.48C545.979 96.92 546.085 96.4267 546.299 96C546.512 95.5467 546.792 95.1733 547.139 94.88C547.485 94.5867 547.859 94.3733 548.259 94.24C548.659 94.08 549.059 94 549.459 94H558.259C559.779 94 561.205 94.1733 562.539 94.52C563.899 94.84 565.072 95.3733 566.059 96.12C567.072 96.84 567.859 97.7867 568.419 98.96C569.005 100.133 569.299 101.56 569.299 103.24ZM561.539 103.2C561.539 102.08 561.232 101.227 560.619 100.64C560.032 100.027 559.179 99.72 558.059 99.72H551.299C551.512 99.72 551.752 99.7733 552.019 99.88C552.285 99.96 552.525 100.093 552.739 100.28C552.979 100.467 553.179 100.707 553.339 101C553.499 101.267 553.579 101.573 553.579 101.92V105.36C553.579 105.733 553.699 106.04 553.939 106.28C554.205 106.493 554.499 106.6 554.819 106.6H558.059C559.152 106.6 560.005 106.307 560.619 105.72C561.232 105.133 561.539 104.293 561.539 103.2ZM573.007 120.96V97.56C573.007 96.5733 573.354 95.7467 574.047 95.08C574.74 94.4133 575.554 94.08 576.487 94.08H579.447C580.14 94.08 580.487 94.4267 580.487 95.12V104.4C580.487 104.853 580.647 105.173 580.967 105.36C581.287 105.52 581.54 105.6 581.727 105.6C583.38 105.573 584.754 105.453 585.847 105.24C586.967 105 588.047 104.653 589.087 104.2C589.3 104.093 589.487 103.947 589.647 103.76C589.807 103.573 589.887 103.333 589.887 103.04V97.56C589.887 97.0267 589.98 96.5467 590.167 96.12C590.38 95.6933 590.647 95.3333 590.967 95.04C591.314 94.72 591.687 94.48 592.087 94.32C592.514 94.16 592.94 94.08 593.367 94.08H596.327C597.02 94.08 597.367 94.4267 597.367 95.12V120.96C597.367 121.28 597.274 121.533 597.087 121.72C596.9 121.88 596.647 121.96 596.327 121.96H590.927C590.66 121.96 590.42 121.867 590.207 121.68C589.994 121.493 589.887 121.253 589.887 120.96V111.48C589.887 111.08 589.754 110.787 589.487 110.6C589.247 110.413 588.98 110.32 588.687 110.32C588.58 110.32 588.447 110.347 588.287 110.4C586.98 110.773 585.66 111.013 584.327 111.12C583.02 111.227 581.86 111.28 580.847 111.28C580.314 111.28 579.86 111.28 579.487 111.28C579.114 111.253 578.82 111.24 578.607 111.24C579.14 111.32 579.58 111.56 579.927 111.96C580.3 112.333 580.487 112.787 580.487 113.32V120.96C580.487 121.28 580.394 121.533 580.207 121.72C580.02 121.88 579.767 121.96 579.447 121.96H574.007C573.714 121.96 573.474 121.867 573.287 121.68C573.1 121.493 573.007 121.253 573.007 120.96ZM600.689 121.76C600.529 121.547 600.449 121.347 600.449 121.16C600.449 120.973 600.462 120.853 600.489 120.8L609.769 95.28C610.062 94.5067 610.596 94.12 611.369 94.12H617.569C618.342 94.12 618.876 94.5067 619.169 95.28L628.449 120.8C628.476 120.853 628.489 120.973 628.489 121.16C628.489 121.373 628.396 121.573 628.209 121.76C628.049 121.92 627.862 122 627.649 122H622.489C621.822 122 621.369 121.707 621.129 121.12L619.049 115.48C618.089 115.853 617.116 116.16 616.129 116.4C615.142 116.64 614.182 116.827 613.249 116.96C612.342 117.067 611.489 117.147 610.689 117.2C609.889 117.227 609.196 117.24 608.609 117.24C608.236 117.24 607.916 117.24 607.649 117.24C607.409 117.24 607.222 117.227 607.089 117.2C607.569 117.28 607.956 117.547 608.249 118C608.569 118.453 608.609 118.987 608.369 119.6L607.809 121.12C607.569 121.707 607.116 122 606.449 122H601.289C601.102 122 600.902 121.92 600.689 121.76ZM610.849 111.52C611.596 111.467 612.369 111.373 613.169 111.24C613.862 111.133 614.582 110.987 615.329 110.8C616.102 110.587 616.836 110.293 617.529 109.92L614.449 101.12L610.849 111.52ZM637.876 121.76C637.716 121.547 637.636 121.347 637.636 121.16C637.636 120.973 637.65 120.853 637.676 120.8L646.956 95.28C647.25 94.5067 647.783 94.12 648.556 94.12H654.756C655.53 94.12 656.063 94.5067 656.356 95.28L665.636 120.8C665.663 120.853 665.676 120.973 665.676 121.16C665.676 121.373 665.583 121.573 665.396 121.76C665.236 121.92 665.05 122 664.836 122H659.676C659.01 122 658.556 121.707 658.316 121.12L656.236 115.48C655.276 115.853 654.303 116.16 653.316 116.4C652.33 116.64 651.37 116.827 650.436 116.96C649.53 117.067 648.676 117.147 647.876 117.2C647.076 117.227 646.383 117.24 645.796 117.24C645.423 117.24 645.103 117.24 644.836 117.24C644.596 117.24 644.41 117.227 644.276 117.2C644.756 117.28 645.143 117.547 645.436 118C645.756 118.453 645.796 118.987 645.556 119.6L644.996 121.12C644.756 121.707 644.303 122 643.636 122H638.476C638.29 122 638.09 121.92 637.876 121.76ZM648.036 111.52C648.783 111.467 649.556 111.373 650.356 111.24C651.05 111.133 651.77 110.987 652.516 110.8C653.29 110.587 654.023 110.293 654.716 109.92L651.636 101.12L648.036 111.52ZM680.425 122.4C676.612 122.4 673.612 121.48 671.425 119.64C669.265 117.8 668.119 115.107 667.985 111.56C667.959 110.84 667.945 109.667 667.945 108.04C667.945 106.387 667.959 105.187 667.985 104.44C668.119 100.973 669.279 98.3067 671.465 96.44C673.679 94.5467 676.665 93.6 680.425 93.6C682.799 93.6 684.919 93.9867 686.785 94.76C688.679 95.5333 690.172 96.6533 691.265 98.12C692.359 99.5867 692.932 101.32 692.985 103.32C692.985 103.56 692.892 103.76 692.705 103.92C692.545 104.08 692.345 104.16 692.105 104.16H686.425C686.052 104.16 685.772 104.093 685.585 103.96C685.425 103.8 685.279 103.52 685.145 103.12C684.772 101.813 684.199 100.907 683.425 100.4C682.679 99.8667 681.679 99.6 680.425 99.6C677.412 99.6 675.852 101.28 675.745 104.64C675.719 105.36 675.705 106.467 675.705 107.96C675.705 109.453 675.719 110.587 675.745 111.36C675.852 114.72 677.412 116.4 680.425 116.4C681.652 116.4 682.652 116.133 683.425 115.6C684.225 115.067 684.799 114.16 685.145 112.88C685.252 112.48 685.399 112.213 685.585 112.08C685.772 111.92 686.052 111.84 686.425 111.84H692.105C692.345 111.84 692.545 111.92 692.705 112.08C692.892 112.24 692.985 112.44 692.985 112.68C692.932 114.68 692.359 116.413 691.265 117.88C690.172 119.347 688.679 120.467 686.785 121.24C684.919 122.013 682.799 122.4 680.425 122.4ZM708.668 122.4C704.854 122.4 701.854 121.48 699.668 119.64C697.508 117.8 696.361 115.107 696.228 111.56C696.201 110.84 696.188 109.667 696.188 108.04C696.188 106.387 696.201 105.187 696.228 104.44C696.361 100.973 697.521 98.3067 699.708 96.44C701.921 94.5467 704.908 93.6 708.668 93.6C711.041 93.6 713.161 93.9867 715.028 94.76C716.921 95.5333 718.414 96.6533 719.508 98.12C720.601 99.5867 721.174 101.32 721.228 103.32C721.228 103.56 721.134 103.76 720.948 103.92C720.788 104.08 720.588 104.16 720.348 104.16H714.668C714.294 104.16 714.014 104.093 713.828 103.96C713.668 103.8 713.521 103.52 713.388 103.12C713.014 101.813 712.441 100.907 711.668 100.4C710.921 99.8667 709.921 99.6 708.668 99.6C705.654 99.6 704.094 101.28 703.988 104.64C703.961 105.36 703.948 106.467 703.948 107.96C703.948 109.453 703.961 110.587 703.988 111.36C704.094 114.72 705.654 116.4 708.668 116.4C709.894 116.4 710.894 116.133 711.668 115.6C712.468 115.067 713.041 114.16 713.388 112.88C713.494 112.48 713.641 112.213 713.828 112.08C714.014 111.92 714.294 111.84 714.668 111.84H720.348C720.588 111.84 720.788 111.92 720.948 112.08C721.134 112.24 721.228 112.44 721.228 112.68C721.174 114.68 720.601 116.413 719.508 117.88C718.414 119.347 716.921 120.467 715.028 121.24C713.161 122.013 711.041 122.4 708.668 122.4ZM725.35 120.92V97.52C725.35 96.5067 725.697 95.68 726.39 95.04C727.083 94.3733 727.897 94.04 728.83 94.04H745.15C745.443 94.04 745.683 94.1467 745.87 94.36C746.083 94.5467 746.19 94.7867 746.19 95.08V99.04C746.19 99.3333 746.097 99.56 745.91 99.72C745.723 99.9067 745.47 100 745.15 100H730.39C731.03 100 731.55 100.227 731.95 100.68C732.377 101.133 732.59 101.627 732.59 102.16V103.84C732.59 104.133 732.683 104.413 732.87 104.68C733.083 104.947 733.39 105.08 733.79 105.08H742.51C742.803 105.08 743.043 105.187 743.23 105.4C743.443 105.587 743.55 105.827 743.55 106.12V109.72C743.55 110.013 743.443 110.267 743.23 110.48C743.043 110.667 742.803 110.76 742.51 110.76H730.39C731.003 110.76 731.523 110.973 731.95 111.4C732.377 111.827 732.59 112.307 732.59 112.84V114.72C732.59 115.013 732.697 115.293 732.91 115.56C733.123 115.827 733.417 115.96 733.79 115.96H745.47C746.163 115.96 746.51 116.307 746.51 117V120.92C746.51 121.24 746.403 121.493 746.19 121.68C746.003 121.84 745.763 121.92 745.47 121.92H726.35C726.083 121.92 725.843 121.827 725.63 121.64C725.443 121.427 725.35 121.187 725.35 120.92ZM773.694 113.52C773.694 115.147 773.307 116.52 772.534 117.64C771.787 118.76 770.827 119.667 769.654 120.36C768.481 121.053 767.174 121.56 765.734 121.88C764.294 122.173 762.894 122.32 761.534 122.32C760.227 122.32 758.867 122.187 757.454 121.92C756.067 121.653 754.787 121.213 753.614 120.6C752.441 119.96 751.454 119.133 750.654 118.12C749.881 117.08 749.454 115.8 749.374 114.28C749.374 114.04 749.454 113.84 749.614 113.68C749.801 113.52 750.014 113.44 750.254 113.44H755.574C755.734 113.44 755.867 113.453 755.974 113.48C756.107 113.507 756.227 113.547 756.334 113.6C756.521 113.707 756.747 113.893 757.014 114.16C757.441 115.013 758.067 115.6 758.894 115.92C759.747 116.213 760.627 116.36 761.534 116.36C761.934 116.36 762.387 116.333 762.894 116.28C763.427 116.227 763.907 116.12 764.334 115.96C764.787 115.773 765.174 115.52 765.494 115.2C765.814 114.853 765.974 114.413 765.974 113.88C765.974 113.16 765.707 112.64 765.174 112.32C764.641 112 764.081 111.747 763.494 111.56C763.041 111.4 762.494 111.253 761.854 111.12C761.241 110.96 760.521 110.8 759.694 110.64C758.467 110.4 757.281 110.093 756.134 109.72C754.987 109.32 753.961 108.8 753.054 108.16C752.174 107.52 751.454 106.72 750.894 105.76C750.361 104.773 750.094 103.573 750.094 102.16C750.094 100.4 750.574 98.8933 751.534 97.64C752.521 96.36 753.801 95.3867 755.374 94.72C757.081 94.0267 759.041 93.68 761.254 93.68C762.134 93.68 763.041 93.76 763.974 93.92C764.934 94.0533 765.854 94.2933 766.734 94.64C767.641 94.96 768.481 95.4 769.254 95.96C770.027 96.4933 770.694 97.1467 771.254 97.92C772.161 99.0933 772.654 100.28 772.734 101.48C772.734 101.693 772.641 101.893 772.454 102.08C772.294 102.267 772.107 102.36 771.894 102.36H766.294C765.734 102.36 765.294 102.12 764.974 101.64C764.814 101.08 764.401 100.6 763.734 100.2C763.014 99.8267 762.187 99.64 761.254 99.64C760.854 99.64 760.441 99.6667 760.014 99.72C759.614 99.7733 759.241 99.8933 758.894 100.08C758.547 100.267 758.267 100.52 758.054 100.84C757.841 101.133 757.734 101.52 757.734 102C757.734 102.747 758.134 103.347 758.934 103.8C759.734 104.227 761.227 104.667 763.414 105.12C764.667 105.36 765.907 105.653 767.134 106C768.387 106.32 769.494 106.787 770.454 107.4C771.414 108.013 772.187 108.813 772.774 109.8C773.387 110.76 773.694 112 773.694 113.52ZM800.335 113.52C800.335 115.147 799.948 116.52 799.175 117.64C798.428 118.76 797.468 119.667 796.295 120.36C795.121 121.053 793.815 121.56 792.375 121.88C790.935 122.173 789.535 122.32 788.175 122.32C786.868 122.32 785.508 122.187 784.095 121.92C782.708 121.653 781.428 121.213 780.255 120.6C779.081 119.96 778.095 119.133 777.295 118.12C776.521 117.08 776.095 115.8 776.015 114.28C776.015 114.04 776.095 113.84 776.255 113.68C776.441 113.52 776.655 113.44 776.895 113.44H782.215C782.375 113.44 782.508 113.453 782.615 113.48C782.748 113.507 782.868 113.547 782.975 113.6C783.161 113.707 783.388 113.893 783.655 114.16C784.081 115.013 784.708 115.6 785.535 115.92C786.388 116.213 787.268 116.36 788.175 116.36C788.575 116.36 789.028 116.333 789.535 116.28C790.068 116.227 790.548 116.12 790.975 115.96C791.428 115.773 791.815 115.52 792.135 115.2C792.455 114.853 792.615 114.413 792.615 113.88C792.615 113.16 792.348 112.64 791.815 112.32C791.281 112 790.721 111.747 790.135 111.56C789.681 111.4 789.135 111.253 788.495 111.12C787.881 110.96 787.161 110.8 786.335 110.64C785.108 110.4 783.921 110.093 782.775 109.72C781.628 109.32 780.601 108.8 779.695 108.16C778.815 107.52 778.095 106.72 777.535 105.76C777.001 104.773 776.735 103.573 776.735 102.16C776.735 100.4 777.215 98.8933 778.175 97.64C779.161 96.36 780.441 95.3867 782.015 94.72C783.721 94.0267 785.681 93.68 787.895 93.68C788.775 93.68 789.681 93.76 790.615 93.92C791.575 94.0533 792.495 94.2933 793.375 94.64C794.281 94.96 795.121 95.4 795.895 95.96C796.668 96.4933 797.335 97.1467 797.895 97.92C798.801 99.0933 799.295 100.28 799.375 101.48C799.375 101.693 799.281 101.893 799.095 102.08C798.935 102.267 798.748 102.36 798.535 102.36H792.935C792.375 102.36 791.935 102.12 791.615 101.64C791.455 101.08 791.041 100.6 790.375 100.2C789.655 99.8267 788.828 99.64 787.895 99.64C787.495 99.64 787.081 99.6667 786.655 99.72C786.255 99.7733 785.881 99.8933 785.535 100.08C785.188 100.267 784.908 100.52 784.695 100.84C784.481 101.133 784.375 101.52 784.375 102C784.375 102.747 784.775 103.347 785.575 103.8C786.375 104.227 787.868 104.667 790.055 105.12C791.308 105.36 792.548 105.653 793.775 106C795.028 106.32 796.135 106.787 797.095 107.4C798.055 108.013 798.828 108.813 799.415 109.8C800.028 110.76 800.335 112 800.335 113.52Z" fill="black"/>
</svg>
