<svg width="485" height="496" viewBox="0 0 485 496" fill="none" xmlns="http://www.w3.org/2000/svg">
<rect x="1.5" y="1.5" width="481.5" height="493" rx="48.5" fill="white" stroke="black" stroke-width="3"/>
<path d="M127.914 404.4C124.1 404.4 121.1 403.48 118.914 401.64C116.754 399.8 115.607 397.107 115.474 393.56C115.447 392.84 115.434 391.667 115.434 390.04C115.434 388.387 115.447 387.187 115.474 386.44C115.607 382.973 116.767 380.307 118.954 378.44C121.167 376.547 124.154 375.6 127.914 375.6C130.287 375.6 132.407 375.987 134.274 376.76C136.167 377.533 137.66 378.653 138.754 380.12C139.847 381.587 140.42 383.32 140.474 385.32C140.474 385.56 140.38 385.76 140.194 385.92C140.034 386.08 139.834 386.16 139.594 386.16H133.914C133.54 386.16 133.26 386.093 133.074 385.96C132.914 385.8 132.767 385.52 132.634 385.12C132.26 383.813 131.687 382.907 130.914 382.4C130.167 381.867 129.167 381.6 127.914 381.6C124.9 381.6 123.34 383.28 123.234 386.64C123.207 387.36 123.194 388.467 123.194 389.96C123.194 391.453 123.207 392.587 123.234 393.36C123.34 396.72 124.9 398.4 127.914 398.4C129.14 398.4 130.14 398.133 130.914 397.6C131.714 397.067 132.287 396.16 132.634 394.88C132.74 394.48 132.887 394.213 133.074 394.08C133.26 393.92 133.54 393.84 133.914 393.84H139.594C139.834 393.84 140.034 393.92 140.194 394.08C140.38 394.24 140.474 394.44 140.474 394.68C140.42 396.68 139.847 398.413 138.754 399.88C137.66 401.347 136.167 402.467 134.274 403.24C132.407 404.013 130.287 404.4 127.914 404.4ZM167.556 403.92H161.916C161.169 403.92 160.636 403.573 160.316 402.88L156.236 394.88C155.996 394.453 155.636 394.24 155.156 394.24H149.916C150.583 394.24 151.103 394.48 151.476 394.96C151.876 395.413 152.076 395.88 152.076 396.36V402.96C152.076 403.253 151.983 403.48 151.796 403.64C151.609 403.827 151.369 403.92 151.076 403.92H145.596C145.329 403.92 145.089 403.827 144.876 403.64C144.689 403.427 144.596 403.2 144.596 402.96V379.52C144.596 378.533 144.943 377.72 145.636 377.08C146.329 376.413 147.143 376.08 148.076 376.08H156.556C158.049 376.08 159.463 376.24 160.796 376.56C162.156 376.88 163.343 377.4 164.356 378.12C165.396 378.84 166.223 379.787 166.836 380.96C167.449 382.107 167.756 383.52 167.756 385.2C167.756 386.8 167.396 388.24 166.676 389.52C165.956 390.8 164.889 391.84 163.476 392.64C163.263 392.773 163.143 392.933 163.116 393.12C163.116 393.307 163.156 393.453 163.236 393.56L168.276 402.68C168.356 402.84 168.396 402.987 168.396 403.12C168.396 403.333 168.303 403.52 168.116 403.68C167.956 403.84 167.769 403.92 167.556 403.92ZM160.036 385.16C160.036 384.067 159.703 383.24 159.036 382.68C158.396 382.093 157.556 381.8 156.516 381.8H149.636C150.303 381.8 150.836 382.027 151.236 382.48C151.636 382.933 151.836 383.413 151.836 383.92V387.16C151.836 387.48 151.943 387.76 152.156 388C152.396 388.24 152.689 388.36 153.036 388.36H156.516C157.556 388.36 158.396 388.107 159.036 387.6C159.703 387.067 160.036 386.253 160.036 385.16ZM183.851 404.4C180.065 404.4 177.078 403.48 174.891 401.64C172.705 399.8 171.545 397.093 171.411 393.52C171.385 392.773 171.371 391.627 171.371 390.08C171.371 388.533 171.385 387.373 171.411 386.6C171.518 383.08 172.678 380.373 174.891 378.48C177.131 376.56 180.118 375.6 183.851 375.6C187.558 375.6 190.518 376.56 192.731 378.48C194.971 380.373 196.145 383.08 196.251 386.6C196.305 388.147 196.331 389.307 196.331 390.08C196.331 390.88 196.305 392.027 196.251 393.52C196.118 397.093 194.958 399.8 192.771 401.64C190.611 403.48 187.638 404.4 183.851 404.4ZM183.851 398.4C185.238 398.4 186.345 397.987 187.171 397.16C187.998 396.307 188.438 395.013 188.491 393.28C188.545 391.733 188.571 390.627 188.571 389.96C188.571 389.293 188.545 388.213 188.491 386.72C188.438 384.987 187.998 383.707 187.171 382.88C186.345 382.027 185.238 381.6 183.851 381.6C182.438 381.6 181.318 382.027 180.491 382.88C179.665 383.707 179.225 384.987 179.171 386.72C179.145 387.467 179.131 388.547 179.131 389.96C179.131 391.4 179.145 392.507 179.171 393.28C179.225 395.013 179.665 396.307 180.491 397.16C181.318 397.987 182.438 398.4 183.851 398.4ZM229.773 376.8V377.04L225.533 402.56C225.346 403.413 224.813 403.84 223.933 403.84H219.893C219.439 403.84 219.119 403.733 218.932 403.52C218.693 403.333 218.533 403.107 218.453 402.84L214.693 392.36C214.666 392.253 214.599 392.2 214.493 392.2C214.386 392.2 214.319 392.253 214.293 392.36L210.533 402.84C210.453 403.08 210.279 403.307 210.013 403.52C209.826 403.733 209.506 403.84 209.053 403.84H205.053C204.173 403.84 203.639 403.413 203.453 402.56L199.213 377.04C199.186 376.693 199.253 376.427 199.413 376.24C199.573 376.08 199.773 376 200.013 376H205.213C205.986 376 206.413 376.293 206.493 376.88L208.773 391.08C208.799 391.187 208.866 391.24 208.973 391.24C209.106 391.24 209.173 391.2 209.173 391.12L211.653 383.24C211.893 382.52 212.333 382.16 212.973 382.16H215.973C216.613 382.16 217.053 382.52 217.293 383.24L219.773 391.08C219.826 391.16 219.893 391.2 219.973 391.2C220.079 391.2 220.146 391.147 220.173 391.04L222.493 376.88C222.546 376.533 222.679 376.307 222.893 376.2C223.133 376.067 223.413 376 223.733 376H228.933C229.146 376 229.333 376.08 229.493 376.24C229.679 376.4 229.773 376.587 229.773 376.8ZM233.853 403V379.6C233.853 378.587 234.199 377.76 234.893 377.12C235.613 376.453 236.426 376.12 237.333 376.12H245.333C247.119 376.12 248.759 376.333 250.253 376.76C251.773 377.16 253.093 377.813 254.213 378.72C255.333 379.6 256.213 380.733 256.853 382.12C257.493 383.48 257.839 385.107 257.893 387C257.919 387.373 257.933 387.827 257.933 388.36C257.933 388.867 257.933 389.44 257.933 390.08C257.933 390.693 257.933 391.253 257.933 391.76C257.933 392.267 257.919 392.707 257.893 393.08C257.653 400.36 253.533 404 245.533 404H234.853C234.559 404 234.319 403.907 234.133 403.72C233.946 403.533 233.853 403.293 233.853 403ZM245.333 398.04C247.066 398.04 248.319 397.627 249.093 396.8C249.866 395.947 250.266 394.68 250.293 393C250.319 392.627 250.333 392.2 250.333 391.72C250.359 391.213 250.373 390.653 250.373 390.04C250.373 389.427 250.359 388.88 250.333 388.4C250.333 387.893 250.319 387.453 250.293 387.08C250.213 383.747 248.493 382.08 245.133 382.08H239.133C239.746 382.08 240.266 382.307 240.693 382.76C241.119 383.187 241.333 383.653 241.333 384.16V396.8C241.333 397.147 241.439 397.44 241.653 397.68C241.893 397.92 242.199 398.04 242.573 398.04H245.333ZM262.683 402.88V379.48C262.683 378.973 262.776 378.507 262.963 378.08C263.176 377.653 263.443 377.293 263.763 377C264.083 376.68 264.456 376.44 264.883 376.28C265.309 376.093 265.736 376 266.163 376H282.203C282.469 376 282.709 376.107 282.923 376.32C283.136 376.533 283.243 376.773 283.243 377.04V381.28C283.243 381.573 283.136 381.8 282.923 381.96C282.736 382.147 282.496 382.24 282.203 382.24H267.803C268.389 382.24 268.896 382.453 269.323 382.88C269.776 383.307 270.003 383.813 270.003 384.4V387.8H279.603C280.296 387.8 280.643 388.147 280.643 388.84V393.04C280.643 393.36 280.549 393.613 280.363 393.8C280.176 393.96 279.923 394.04 279.603 394.04H267.803C268.336 394.04 268.829 394.24 269.283 394.64C269.763 395.04 270.003 395.547 270.003 396.16V402.88C270.003 403.173 269.909 403.413 269.723 403.6C269.563 403.787 269.323 403.88 269.003 403.88H263.683C263.389 403.88 263.149 403.787 262.963 403.6C262.776 403.413 262.683 403.173 262.683 402.88ZM287.287 393.4V379.56C287.287 379 287.393 378.507 287.607 378.08C287.847 377.653 288.127 377.293 288.447 377C288.793 376.707 289.167 376.493 289.567 376.36C289.993 376.2 290.393 376.12 290.767 376.12H293.767C294.06 376.12 294.3 376.213 294.487 376.4C294.7 376.587 294.807 376.827 294.807 377.12V393.32C294.807 394.84 295.153 396.04 295.847 396.92C296.567 397.8 297.727 398.24 299.327 398.24C300.927 398.24 302.073 397.8 302.767 396.92C303.487 396.04 303.847 394.84 303.847 393.32V379.52C303.847 378.96 303.953 378.467 304.167 378.04C304.407 377.613 304.7 377.253 305.047 376.96C305.393 376.667 305.767 376.453 306.167 376.32C306.567 376.187 306.953 376.12 307.327 376.12H310.327C310.62 376.12 310.86 376.213 311.047 376.4C311.26 376.587 311.367 376.827 311.367 377.12V393.4C311.367 395.293 311.073 396.933 310.487 398.32C309.927 399.68 309.127 400.813 308.087 401.72C307.047 402.6 305.78 403.267 304.287 403.72C302.82 404.147 301.18 404.36 299.367 404.36C297.58 404.36 295.94 404.147 294.447 403.72C292.953 403.293 291.673 402.64 290.607 401.76C289.567 400.853 288.753 399.707 288.167 398.32C287.58 396.933 287.287 395.293 287.287 393.4ZM316.588 402.88V379.48C316.588 378.547 316.921 377.733 317.588 377.04C318.255 376.347 319.081 376 320.068 376H321.388C321.681 376 322.028 376.067 322.428 376.2C322.828 376.307 323.241 376.653 323.668 377.24C325.241 379.693 326.655 381.907 327.908 383.88C328.681 385.08 329.281 386.04 329.708 386.76C330.161 387.453 330.588 388.107 330.988 388.72C331.388 389.307 331.721 389.813 331.988 390.24C332.255 390.667 332.415 390.92 332.468 391C332.468 391.053 332.521 391.08 332.628 391.08C332.761 391.08 332.828 391.013 332.828 390.88V379.48C332.828 378.44 333.188 377.6 333.908 376.96C334.628 376.32 335.441 376 336.348 376H338.908C339.201 376 339.441 376.093 339.628 376.28C339.815 376.52 339.908 376.773 339.908 377.04V402.84C339.908 403.08 339.815 403.32 339.628 403.56C339.415 403.773 339.175 403.88 338.908 403.88H334.388C333.801 403.88 333.348 403.627 333.028 403.12C331.428 400.667 329.988 398.467 328.708 396.52C327.935 395.347 327.321 394.413 326.868 393.72C326.415 393 325.988 392.347 325.588 391.76C325.188 391.147 324.855 390.64 324.588 390.24C324.321 389.813 324.161 389.56 324.108 389.48C324.028 389.4 323.961 389.36 323.908 389.36C323.775 389.36 323.708 389.427 323.708 389.56V402.88C323.708 403.173 323.601 403.413 323.388 403.6C323.175 403.787 322.935 403.88 322.668 403.88H317.588C317.348 403.88 317.121 403.773 316.908 403.56C316.695 403.347 316.588 403.12 316.588 402.88ZM345.376 403V379.6C345.376 378.587 345.723 377.76 346.416 377.12C347.136 376.453 347.95 376.12 348.856 376.12H356.856C358.643 376.12 360.283 376.333 361.776 376.76C363.296 377.16 364.616 377.813 365.736 378.72C366.856 379.6 367.736 380.733 368.376 382.12C369.016 383.48 369.363 385.107 369.416 387C369.443 387.373 369.456 387.827 369.456 388.36C369.456 388.867 369.456 389.44 369.456 390.08C369.456 390.693 369.456 391.253 369.456 391.76C369.456 392.267 369.443 392.707 369.416 393.08C369.176 400.36 365.056 404 357.056 404H346.376C346.083 404 345.843 403.907 345.656 403.72C345.47 403.533 345.376 403.293 345.376 403ZM356.856 398.04C358.59 398.04 359.843 397.627 360.616 396.8C361.39 395.947 361.79 394.68 361.816 393C361.843 392.627 361.856 392.2 361.856 391.72C361.883 391.213 361.896 390.653 361.896 390.04C361.896 389.427 361.883 388.88 361.856 388.4C361.856 387.893 361.843 387.453 361.816 387.08C361.736 383.747 360.016 382.08 356.656 382.08H350.656C351.27 382.08 351.79 382.307 352.216 382.76C352.643 383.187 352.856 383.653 352.856 384.16V396.8C352.856 397.147 352.963 397.44 353.176 397.68C353.416 397.92 353.723 398.04 354.096 398.04H356.856Z" fill="black"/>
<path d="M300.281 151.334C298.83 151.352 297.415 150.891 296.268 150.026C294.901 148.868 293.71 147.882 292.541 146.917L290.953 145.588C281.008 137.419 273.819 131.545 273.819 122.004C273.718 119.836 274.065 117.671 274.837 115.636C275.61 113.601 276.793 111.737 278.318 110.152C279.842 108.568 281.677 107.297 283.714 106.412C285.752 105.527 287.951 105.048 290.181 105.001C293.885 104.956 297.477 106.23 300.281 108.582C303.084 106.226 306.677 104.952 310.381 105.001C312.6 105.048 314.788 105.524 316.816 106.4C318.845 107.277 320.673 108.537 322.196 110.107C323.719 111.678 324.905 113.527 325.686 115.547C326.467 117.567 326.826 119.718 326.744 121.875C326.744 129.229 322.135 134.503 317.636 138.684C315.431 140.828 312.939 142.801 310.05 145.116L309.587 145.524C307.956 146.832 306.213 148.268 304.427 149.812C303.275 150.782 301.805 151.321 300.281 151.334ZM290.181 112.849C287.868 113.003 285.711 114.037 284.176 115.726C282.64 117.415 281.851 119.624 281.978 121.875C281.978 127.557 286.609 131.609 296.246 139.499L297.878 140.85L300.325 142.994C301.693 141.836 303.082 140.7 304.405 139.628L304.846 139.263C307.625 136.969 310.028 134.975 312.079 133.067C316.049 129.379 318.695 126.099 318.695 121.982C318.828 119.721 318.035 117.5 316.49 115.805C314.945 114.11 312.772 113.078 310.447 112.934C309.077 112.949 307.734 113.313 306.554 113.99C305.374 114.668 304.397 115.634 303.721 116.794C303.347 117.329 302.844 117.767 302.256 118.069C301.668 118.372 301.013 118.53 300.348 118.53C299.682 118.53 299.027 118.372 298.439 118.069C297.851 117.767 297.348 117.329 296.974 116.794C296.304 115.609 295.322 114.619 294.128 113.925C292.934 113.232 291.572 112.86 290.181 112.849Z" fill="black"/>
<path d="M184.445 191.05C182.721 191.072 181.041 190.512 179.678 189.462C178.055 188.056 176.641 186.858 175.253 185.687L173.367 184.073C161.557 174.153 153.02 167.02 153.02 155.434C152.901 152.803 153.312 150.174 154.229 147.703C155.147 145.231 156.552 142.967 158.363 141.044C160.173 139.12 162.352 137.576 164.771 136.502C167.191 135.427 169.802 134.845 172.451 134.789C176.849 134.734 181.114 136.281 184.445 139.137C187.772 136.276 192.04 134.729 196.438 134.789C199.073 134.846 201.671 135.423 204.08 136.488C206.489 137.552 208.66 139.082 210.468 140.989C212.277 142.896 213.685 145.141 214.613 147.594C215.54 150.047 215.967 152.659 215.869 155.278C215.869 164.208 210.396 170.613 205.054 175.689C202.435 178.293 199.476 180.688 196.045 183.5L195.495 183.994C193.558 185.583 191.489 187.327 189.368 189.201C187.999 190.379 186.254 191.034 184.445 191.05ZM172.451 144.317C169.704 144.505 167.142 145.76 165.319 147.811C163.496 149.863 162.558 152.545 162.709 155.278C162.709 162.177 168.209 167.098 179.652 176.679L181.59 178.319L184.497 180.922C186.12 179.516 187.77 178.137 189.341 176.835L189.865 176.392C193.165 173.607 196.019 171.185 198.455 168.868C203.168 164.39 206.311 160.407 206.311 155.408C206.468 152.662 205.527 149.966 203.692 147.907C201.857 145.849 199.278 144.596 196.517 144.422C194.889 144.439 193.295 144.881 191.893 145.704C190.492 146.526 189.332 147.7 188.53 149.108C188.085 149.758 187.488 150.289 186.79 150.657C186.091 151.025 185.313 151.217 184.523 151.217C183.733 151.217 182.955 151.025 182.256 150.657C181.558 150.289 180.961 149.758 180.516 149.108C179.721 147.669 178.555 146.467 177.137 145.625C175.72 144.783 174.102 144.332 172.451 144.317Z" fill="black"/>
<path d="M251.461 252.096C255.165 252.047 258.772 250.904 261.827 248.811C264.883 246.718 267.252 243.767 268.636 240.331C270.019 236.895 270.356 233.127 269.603 229.5C268.851 225.873 267.043 222.55 264.406 219.948C261.77 217.346 258.423 215.582 254.787 214.877C251.15 214.172 247.387 214.558 243.969 215.987C240.552 217.415 237.633 219.823 235.58 222.906C233.527 225.989 232.431 229.61 232.431 233.314C232.47 238.326 234.496 243.118 238.063 246.639C241.631 250.16 246.449 252.123 251.461 252.096ZM251.461 222.823C253.528 222.872 255.535 223.529 257.23 224.713C258.925 225.897 260.233 227.555 260.991 229.479C261.748 231.402 261.921 233.507 261.488 235.529C261.055 237.55 260.035 239.399 258.556 240.844C257.077 242.289 255.205 243.266 253.173 243.651C251.142 244.037 249.042 243.815 247.136 243.013C245.231 242.211 243.604 240.864 242.46 239.142C241.316 237.42 240.706 235.398 240.705 233.331C240.744 230.513 241.898 227.825 243.914 225.856C245.93 223.887 248.643 222.796 251.461 222.823ZM276.962 286.864V274.651C276.955 273.484 276.718 272.33 276.264 271.255C275.81 270.181 275.148 269.206 274.316 268.388C273.484 267.57 272.499 266.924 271.416 266.488C270.334 266.052 269.176 265.835 268.009 265.848H264.981L255.797 274.883C254.64 276.014 253.087 276.647 251.469 276.647C249.852 276.647 248.299 276.014 247.142 274.883L237.941 265.848H234.913C232.571 265.821 230.313 266.724 228.635 268.359C226.957 269.993 225.995 272.226 225.961 274.568V286.864C225.961 287.961 225.525 289.013 224.749 289.789C223.973 290.565 222.921 291.001 221.824 291.001C220.726 291.001 219.674 290.565 218.898 289.789C218.122 289.013 217.687 287.961 217.687 286.864V274.651C217.693 272.398 218.144 270.168 219.014 268.089C219.884 266.01 221.155 264.124 222.756 262.537C224.356 260.951 226.254 259.696 228.34 258.844C230.426 257.992 232.66 257.561 234.913 257.574H239.646C240.73 257.576 241.77 258.004 242.542 258.765L251.461 267.618L260.381 258.848C260.758 258.454 261.21 258.138 261.71 257.92C262.209 257.701 262.748 257.583 263.293 257.574H268.009C270.263 257.561 272.496 257.992 274.583 258.844C276.669 259.696 278.566 260.951 280.167 262.537C281.767 264.124 283.038 266.01 283.908 268.089C284.778 270.168 285.229 272.398 285.236 274.651V286.864C285.236 287.961 284.8 289.013 284.024 289.789C283.248 290.565 282.196 291.001 281.099 291.001C280.002 291.001 278.949 290.565 278.173 289.789C277.398 289.013 276.962 287.961 276.962 286.864ZM297.945 237.104C301.648 237.055 305.255 235.912 308.311 233.818C311.367 231.725 313.735 228.775 315.119 225.339C316.503 221.903 316.839 218.135 316.087 214.508C315.334 210.881 313.526 207.557 310.89 204.955C308.254 202.354 304.907 200.589 301.27 199.884C297.634 199.18 293.87 199.566 290.453 200.994C287.035 202.423 284.116 204.83 282.063 207.913C280.01 210.996 278.915 214.618 278.914 218.322C278.954 223.334 280.979 228.126 284.547 231.647C288.114 235.168 292.932 237.13 297.945 237.104ZM297.945 207.814C300.012 207.862 302.018 208.52 303.713 209.704C305.408 210.888 306.717 212.546 307.474 214.469C308.231 216.393 308.404 218.498 307.971 220.52C307.538 222.541 306.518 224.39 305.039 225.835C303.56 227.28 301.688 228.257 299.657 228.642C297.626 229.028 295.526 228.806 293.62 228.004C291.714 227.202 290.088 225.855 288.944 224.133C287.799 222.411 287.189 220.389 287.188 218.322C287.223 215.502 288.376 212.812 290.392 210.842C292.409 208.872 295.125 207.783 297.945 207.814ZM331.719 259.659V271.871C331.719 272.968 331.283 274.021 330.508 274.796C329.732 275.572 328.679 276.008 327.582 276.008C326.485 276.008 325.433 275.572 324.657 274.796C323.881 274.021 323.445 272.968 323.445 271.871V259.659C323.406 257.319 322.442 255.091 320.765 253.46C319.087 251.828 316.832 250.928 314.493 250.954H311.464L302.264 259.973C301.105 261.1 299.553 261.731 297.936 261.731C296.32 261.731 294.768 261.1 293.609 259.973L283.2 249.746C282.439 248.972 282.013 247.929 282.014 246.843C282.015 245.758 282.443 244.716 283.205 243.942C283.968 243.169 285.003 242.727 286.089 242.71C287.175 242.694 288.223 243.105 289.009 243.855L297.945 252.609L306.864 243.839C307.641 243.09 308.68 242.674 309.76 242.68H314.493C319.027 242.654 323.386 244.426 326.615 247.609C329.844 250.792 331.68 255.125 331.719 259.659ZM204.978 237.104C208.681 237.055 212.288 235.912 215.344 233.818C218.4 231.725 220.768 228.775 222.152 225.339C223.536 221.903 223.872 218.135 223.12 214.508C222.367 210.881 220.559 207.557 217.923 204.955C215.287 202.354 211.94 200.589 208.303 199.884C204.667 199.18 200.903 199.566 197.486 200.994C194.068 202.423 191.149 204.83 189.096 207.913C187.043 210.996 185.948 214.618 185.947 218.322C185.987 223.334 188.012 228.126 191.58 231.647C195.147 235.168 199.965 237.13 204.978 237.104ZM204.978 207.814C207.045 207.862 209.051 208.52 210.746 209.704C212.442 210.888 213.75 212.546 214.507 214.469C215.264 216.393 215.437 218.498 215.004 220.52C214.571 222.541 213.551 224.39 212.073 225.835C210.594 227.28 208.721 228.257 206.69 228.642C204.659 229.028 202.559 228.806 200.653 228.004C198.747 227.202 197.121 225.855 195.977 224.133C194.833 222.411 194.222 220.389 194.221 218.322C194.256 215.502 195.409 212.812 197.425 210.842C199.442 208.872 202.158 207.783 204.978 207.814ZM175.34 276.008C174.243 276.008 173.191 275.572 172.415 274.796C171.639 274.021 171.203 272.968 171.203 271.871V259.659C171.242 255.125 173.078 250.792 176.307 247.609C179.536 244.426 183.896 242.654 188.43 242.68H193.162C194.247 242.683 195.286 243.111 196.058 243.872L204.978 252.609L213.897 243.839C214.682 243.089 215.731 242.678 216.817 242.694C217.902 242.71 218.938 243.153 219.7 243.926C220.463 244.699 220.891 245.741 220.892 246.827C220.892 247.913 220.466 248.955 219.705 249.73L209.313 259.957C208.155 261.084 206.602 261.714 204.986 261.714C203.37 261.714 201.817 261.084 200.659 259.957L191.458 250.954H188.43C186.09 250.928 183.835 251.828 182.158 253.46C180.48 255.091 179.516 257.319 179.477 259.659V271.871C179.477 272.968 179.041 274.021 178.265 274.796C177.49 275.572 176.437 276.008 175.34 276.008ZM255.598 138.924V142.697C258.199 143.337 260.613 144.578 262.647 146.319C264.682 148.061 266.28 150.255 267.314 152.725C267.615 153.704 267.543 154.76 267.11 155.688C266.678 156.617 265.917 157.352 264.974 157.751C264.031 158.151 262.973 158.186 262.005 157.851C261.038 157.515 260.229 156.833 259.735 155.936C259.055 154.304 257.905 152.913 256.432 151.937C254.959 150.962 253.228 150.447 251.461 150.458C247.175 150.458 242.542 152.907 242.542 158.285C242.542 159.692 242.542 163.961 252.371 166.212H252.504C266.52 169.521 268.621 177.613 268.621 182.181C268.624 185.904 267.321 189.51 264.938 192.37C262.555 195.231 259.244 197.165 255.582 197.835V201.542C255.582 202.639 255.146 203.691 254.37 204.467C253.594 205.243 252.542 205.679 251.445 205.679C250.347 205.679 249.295 205.243 248.519 204.467C247.743 203.691 247.308 202.639 247.308 201.542V197.802C244.704 197.164 242.287 195.925 240.249 194.183C238.211 192.441 236.611 190.246 235.575 187.774C235.219 186.778 235.257 185.684 235.682 184.716C236.108 183.747 236.888 182.979 237.862 182.568C238.837 182.157 239.932 182.135 240.922 182.506C241.912 182.877 242.723 183.613 243.187 184.564C243.867 186.195 245.017 187.587 246.49 188.562C247.964 189.537 249.694 190.052 251.461 190.041C255.747 190.041 260.381 187.592 260.381 182.214C260.381 180.807 260.381 176.538 250.551 174.287H250.419C236.402 170.978 234.301 162.902 234.301 158.318C234.29 154.592 235.587 150.98 237.968 148.113C240.348 145.246 243.659 143.306 247.324 142.631V138.924C247.324 137.827 247.76 136.775 248.536 135.999C249.312 135.223 250.364 134.787 251.461 134.787C252.558 134.787 253.611 135.223 254.386 135.999C255.162 136.775 255.598 137.827 255.598 138.924Z" fill="black"/>
</svg>
