<svg width="1007" height="208" viewBox="0 0 1007 208" fill="none" xmlns="http://www.w3.org/2000/svg">
<path d="M125.972 85.9234H138.425L150.389 97.8876V103.558C150.389 104.277 150.675 104.967 151.184 105.476C151.693 105.985 152.383 106.271 153.102 106.271C153.822 106.271 154.512 105.985 155.02 105.476C155.529 104.967 155.815 104.277 155.815 103.558V84.3228L166.233 73.9321C171.421 78.2671 178.041 80.5087 184.796 80.2176C191.551 79.9266 197.953 77.1238 202.749 72.3586L212.353 62.7818C212.839 62.2289 213.092 61.5094 213.059 60.7742C213.032 60.0142 212.711 59.2943 212.163 58.7666C207.076 53.6806 200.176 50.8234 192.983 50.8234C185.789 50.8234 178.89 53.6806 173.802 58.7666L164.741 67.8008L164.198 68.3434L155.815 76.6722V65.3049C160.622 60.1656 163.244 53.3596 163.128 46.3236C163.011 39.2876 160.165 32.5721 155.191 27.5947L149.412 21.7889C148.904 21.2836 148.217 21 147.5 21C146.783 21 146.095 21.2836 145.587 21.7889C140.501 26.8765 137.644 33.7758 137.644 40.9696C137.644 48.1634 140.501 55.0627 145.587 60.1502L150.389 64.9793V90.237L142.25 82.0981C141.963 75.0974 138.978 68.4793 133.921 63.6297C128.864 58.78 122.127 56.0749 115.121 56.0808H101.556C100.836 56.0808 100.146 56.3666 99.6374 56.8754C99.1286 57.3842 98.8428 58.0742 98.8428 58.7938C98.8428 65.989 101.701 72.8895 106.789 77.9773C111.877 83.0651 118.777 85.9234 125.972 85.9234Z" fill="black"/>
<path d="M170.872 132.044H171.279L178.74 137.009C179.177 137.315 179.699 137.476 180.232 137.47C180.812 137.465 181.375 137.275 181.838 136.928C182.302 136.58 182.642 136.093 182.809 135.538C182.976 134.983 182.961 134.389 182.765 133.843C182.57 133.297 182.205 132.828 181.724 132.505L176.976 129.331L181.724 126.157C182.251 125.733 182.6 125.127 182.703 124.459C182.807 123.791 182.657 123.109 182.284 122.545C181.91 121.982 181.34 121.578 180.685 121.413C180.029 121.248 179.336 121.334 178.74 121.653L171.279 126.618H169.597L176.325 118.208C177.097 117.246 177.518 116.05 177.519 114.817C177.528 113.942 177.326 113.078 176.929 112.299C176.532 111.519 175.953 110.847 175.24 110.34C174.552 109.853 173.759 109.534 172.926 109.407C172.092 109.279 171.24 109.348 170.438 109.608C169.649 109.872 168.887 110.208 168.159 110.612C166.861 111.305 165.412 111.668 163.941 111.668C162.469 111.668 161.02 111.305 159.722 110.612C158.5 109.95 157.181 109.483 155.815 109.228C154.921 109.056 154.013 108.974 153.102 108.984C152.192 108.971 151.283 109.053 150.389 109.228C149.01 109.48 147.681 109.957 146.456 110.639C145.175 111.365 143.722 111.731 142.25 111.697C140.778 111.739 139.322 111.373 138.045 110.639C137.311 110.25 136.549 109.915 135.766 109.635C134.964 109.375 134.112 109.307 133.279 109.434C132.445 109.561 131.653 109.881 130.965 110.367C130.359 110.796 129.848 111.344 129.462 111.978C129.077 112.612 128.826 113.318 128.724 114.053C128.622 114.787 128.672 115.535 128.871 116.25C129.07 116.965 129.413 117.631 129.879 118.208L136.607 126.618H134.112C133.392 126.618 132.702 126.904 132.193 127.413C131.684 127.921 131.399 128.611 131.399 129.331C131.399 130.051 131.684 130.741 132.193 131.249C132.702 131.758 133.392 132.044 134.112 132.044H135.332L110.617 154.86C107.697 157.542 105.655 161.044 104.76 164.907C103.865 168.77 104.158 172.813 105.601 176.506C107.044 180.2 109.57 183.37 112.847 185.603C116.124 187.835 120 189.025 123.965 189.016H182.24C186.205 189.025 190.08 187.835 193.357 185.603C196.634 183.37 199.16 180.2 200.604 176.506C202.047 172.813 202.34 168.77 201.445 164.907C200.55 161.044 198.508 157.542 195.587 154.86L170.872 132.044ZM153.102 153.748C155.011 153.762 156.854 154.448 158.308 155.683C159.763 156.919 160.737 158.627 161.061 160.508C161.384 162.389 161.036 164.324 160.077 165.975C159.118 167.625 157.61 168.886 155.815 169.537V172.738C155.815 173.458 155.529 174.148 155.021 174.657C154.512 175.166 153.822 175.451 153.102 175.451C152.383 175.451 151.693 175.166 151.184 174.657C150.675 174.148 150.389 173.458 150.389 172.738V170.025H147.676C146.957 170.025 146.267 169.74 145.758 169.231C145.249 168.722 144.963 168.032 144.963 167.312C144.963 166.593 145.249 165.903 145.758 165.394C146.267 164.885 146.957 164.6 147.676 164.6H153.102C153.822 164.6 154.512 164.314 155.021 163.805C155.529 163.296 155.815 162.606 155.815 161.887C155.815 161.167 155.529 160.477 155.021 159.968C154.512 159.459 153.822 159.174 153.102 159.174C151.194 159.159 149.351 158.474 147.896 157.238C146.441 156.002 145.467 154.294 145.144 152.413C144.821 150.532 145.169 148.597 146.128 146.947C147.087 145.296 148.595 144.035 150.389 143.384V140.183C150.389 139.463 150.675 138.773 151.184 138.264C151.693 137.756 152.383 137.47 153.102 137.47C153.822 137.47 154.512 137.756 155.021 138.264C155.529 138.773 155.815 139.463 155.815 140.183V142.896H158.528C159.248 142.896 159.938 143.182 160.447 143.69C160.955 144.199 161.241 144.889 161.241 145.609C161.241 146.328 160.955 147.018 160.447 147.527C159.938 148.036 159.248 148.322 158.528 148.322H153.102C152.383 148.322 151.693 148.608 151.184 149.116C150.675 149.625 150.389 150.315 150.389 151.035C150.389 151.754 150.675 152.444 151.184 152.953C151.693 153.462 152.383 153.748 153.102 153.748Z" fill="black"/>
<path d="M85.2778 99.4885C85.2778 98.769 84.992 98.0789 84.4832 97.5701C83.9744 97.0614 83.2844 96.7755 82.5648 96.7755C81.8453 96.7755 81.1553 96.4897 80.6465 95.9809C80.1377 95.4722 79.8519 94.7821 79.8519 94.0626C79.8519 93.3431 79.566 92.653 79.0573 92.1442C78.5485 91.6354 77.8584 91.3496 77.1389 91.3496C76.4194 91.3496 75.7293 91.6354 75.2205 92.1442C74.7118 92.653 74.4259 93.3431 74.4259 94.0626C74.4259 94.7821 74.1401 95.4722 73.6313 95.9809C73.1225 96.4897 72.4325 96.7755 71.713 96.7755C70.9934 96.7755 70.3034 97.0614 69.7946 97.5701C69.2858 98.0789 69 98.769 69 99.4885C69 100.208 69.2858 100.898 69.7946 101.407C70.3034 101.916 70.9934 102.201 71.713 102.201C72.4325 102.201 73.1225 102.487 73.6313 102.996C74.1401 103.505 74.4259 104.195 74.4259 104.914C74.4259 105.634 74.7118 106.324 75.2205 106.833C75.7293 107.342 76.4194 107.627 77.1389 107.627C77.8584 107.627 78.5485 107.342 79.0573 106.833C79.566 106.324 79.8519 105.634 79.8519 104.914C79.8519 104.195 80.1377 103.505 80.6465 102.996C81.1553 102.487 81.8453 102.201 82.5648 102.201C83.2844 102.201 83.9744 101.916 84.4832 101.407C84.992 100.898 85.2778 100.208 85.2778 99.4885Z" fill="black"/>
<path d="M231.778 75.0725C231.778 74.353 231.492 73.6629 230.983 73.1541C230.474 72.6454 229.784 72.3595 229.065 72.3595C228.345 72.3595 227.655 72.0737 227.146 71.5649C226.638 71.0561 226.352 70.3661 226.352 69.6466C226.352 68.927 226.066 68.237 225.557 67.7282C225.048 67.2194 224.358 66.9336 223.639 66.9336C222.919 66.9336 222.229 67.2194 221.721 67.7282C221.212 68.237 220.926 68.927 220.926 69.6466C220.926 70.3661 220.64 71.0561 220.131 71.5649C219.623 72.0737 218.932 72.3595 218.213 72.3595C217.493 72.3595 216.803 72.6454 216.295 73.1541C215.786 73.6629 215.5 74.353 215.5 75.0725C215.5 75.792 215.786 76.4821 216.295 76.9908C216.803 77.4996 217.493 77.7855 218.213 77.7855C218.932 77.7855 219.623 78.0713 220.131 78.5801C220.64 79.0888 220.926 79.7789 220.926 80.4984C220.926 81.2179 221.212 81.908 221.721 82.4168C222.229 82.9256 222.919 83.2114 223.639 83.2114C224.358 83.2114 225.048 82.9256 225.557 82.4168C226.066 81.908 226.352 81.2179 226.352 80.4984C226.352 79.7789 226.638 79.0888 227.146 78.5801C227.655 78.0713 228.345 77.7855 229.065 77.7855C229.784 77.7855 230.474 77.4996 230.983 76.9908C231.492 76.4821 231.778 75.792 231.778 75.0725Z" fill="black"/>
<path d="M207.362 115.766C206.642 115.766 205.952 115.48 205.443 114.971C204.935 114.462 204.649 113.772 204.649 113.053C204.649 112.333 204.363 111.643 203.854 111.134C203.345 110.626 202.655 110.34 201.936 110.34C201.216 110.34 200.526 110.626 200.017 111.134C199.509 111.643 199.223 112.333 199.223 113.053C199.223 113.772 198.937 114.462 198.428 114.971C197.919 115.48 197.229 115.766 196.51 115.766C195.79 115.766 195.1 116.052 194.591 116.56C194.083 117.069 193.797 117.759 193.797 118.479C193.797 119.198 194.083 119.888 194.591 120.397C195.1 120.906 195.79 121.192 196.51 121.192C197.229 121.192 197.919 121.478 198.428 121.986C198.937 122.495 199.223 123.185 199.223 123.905C199.223 124.624 199.509 125.314 200.017 125.823C200.526 126.332 201.216 126.618 201.936 126.618C202.655 126.618 203.345 126.332 203.854 125.823C204.363 125.314 204.649 124.624 204.649 123.905C204.649 123.185 204.935 122.495 205.443 121.986C205.952 121.478 206.642 121.192 207.362 121.192C208.081 121.192 208.771 120.906 209.28 120.397C209.789 119.888 210.075 119.198 210.075 118.479C210.075 117.759 209.789 117.069 209.28 116.56C208.771 116.052 208.081 115.766 207.362 115.766Z" fill="black"/>
<path d="M106.982 140.183C106.982 140.903 107.267 141.593 107.776 142.101C108.285 142.61 108.975 142.896 109.695 142.896C110.414 142.896 111.104 142.61 111.613 142.101C112.122 141.593 112.408 140.903 112.408 140.183C112.408 139.463 112.693 138.773 113.202 138.265C113.711 137.756 114.401 137.47 115.12 137.47C115.84 137.47 116.53 137.184 117.039 136.675C117.548 136.167 117.833 135.477 117.833 134.757C117.833 134.038 117.548 133.347 117.039 132.839C116.53 132.33 115.84 132.044 115.12 132.044C114.401 132.044 113.711 131.758 113.202 131.249C112.693 130.741 112.408 130.051 112.408 129.331C112.408 128.612 112.122 127.922 111.613 127.413C111.104 126.904 110.414 126.618 109.695 126.618C108.975 126.618 108.285 126.904 107.776 127.413C107.267 127.922 106.982 128.612 106.982 129.331C106.982 130.051 106.696 130.741 106.187 131.249C105.678 131.758 104.988 132.044 104.269 132.044C103.549 132.044 102.859 132.33 102.35 132.839C101.841 133.347 101.556 134.038 101.556 134.757C101.556 135.477 101.841 136.167 102.35 136.675C102.859 137.184 103.549 137.47 104.269 137.47C104.988 137.47 105.678 137.756 106.187 138.265C106.696 138.773 106.982 139.463 106.982 140.183Z" fill="black"/>
<path d="M185.657 42.5159C186.377 42.5159 187.067 42.8018 187.576 43.3105C188.084 43.8193 188.37 44.5094 188.37 45.2289C188.37 45.9484 188.656 46.6385 189.165 47.1472C189.674 47.656 190.364 47.9419 191.083 47.9419C191.803 47.9419 192.493 47.656 193.002 47.1472C193.51 46.6385 193.796 45.9484 193.796 45.2289C193.796 44.5094 194.082 43.8193 194.591 43.3105C195.1 42.8018 195.79 42.5159 196.509 42.5159C197.229 42.5159 197.919 42.2301 198.428 41.7213C198.936 41.2125 199.222 40.5225 199.222 39.803C199.222 39.0834 198.936 38.3934 198.428 37.8846C197.919 37.3758 197.229 37.09 196.509 37.09C195.79 37.09 195.1 36.8042 194.591 36.2954C194.082 35.7866 193.796 35.0966 193.796 34.377C193.796 33.6575 193.51 32.9675 193.002 32.4587C192.493 31.9499 191.803 31.6641 191.083 31.6641C190.364 31.6641 189.674 31.9499 189.165 32.4587C188.656 32.9675 188.37 33.6575 188.37 34.377C188.37 35.0966 188.084 35.7866 187.576 36.2954C187.067 36.8042 186.377 37.09 185.657 37.09C184.938 37.09 184.248 37.3758 183.739 37.8846C183.23 38.3934 182.944 39.0834 182.944 39.803C182.944 40.5225 183.23 41.2125 183.739 41.7213C184.248 42.2301 184.938 42.5159 185.657 42.5159Z" fill="black"/>
<path d="M104.269 42.5159C104.988 42.5159 105.678 42.8018 106.187 43.3105C106.696 43.8193 106.982 44.5094 106.982 45.2289C106.982 45.9484 107.267 46.6385 107.776 47.1472C108.285 47.656 108.975 47.9419 109.695 47.9419C110.414 47.9419 111.104 47.656 111.613 47.1472C112.122 46.6385 112.408 45.9484 112.408 45.2289C112.408 44.5094 112.693 43.8193 113.202 43.3105C113.711 42.8018 114.401 42.5159 115.12 42.5159C115.84 42.5159 116.53 42.2301 117.039 41.7213C117.548 41.2125 117.833 40.5225 117.833 39.803C117.833 39.0834 117.548 38.3934 117.039 37.8846C116.53 37.3758 115.84 37.09 115.12 37.09C114.401 37.09 113.711 36.8042 113.202 36.2954C112.693 35.7866 112.408 35.0966 112.408 34.377C112.408 33.6575 112.122 32.9675 111.613 32.4587C111.104 31.9499 110.414 31.6641 109.695 31.6641C108.975 31.6641 108.285 31.9499 107.776 32.4587C107.267 32.9675 106.982 33.6575 106.982 34.377C106.982 35.0966 106.696 35.7866 106.187 36.2954C105.678 36.8042 104.988 37.09 104.269 37.09C103.549 37.09 102.859 37.3758 102.35 37.8846C101.841 38.3934 101.556 39.0834 101.556 39.803C101.556 40.5225 101.841 41.2125 102.35 41.7213C102.859 42.2301 103.549 42.5159 104.269 42.5159Z" fill="black"/>
<path d="M172.093 31.6642C173.591 31.6642 174.806 30.4496 174.806 28.9512C174.806 27.4529 173.591 26.2383 172.093 26.2383C170.595 26.2383 169.38 27.4529 169.38 28.9512C169.38 30.4496 170.595 31.6642 172.093 31.6642Z" fill="black"/>
<path d="M212.787 156.461C214.286 156.461 215.5 155.246 215.5 153.748C215.5 152.25 214.286 151.035 212.787 151.035C211.289 151.035 210.074 152.25 210.074 153.748C210.074 155.246 211.289 156.461 212.787 156.461Z" fill="black"/>
<path d="M96.13 161.887C97.6283 161.887 98.8429 160.672 98.8429 159.174C98.8429 157.676 97.6283 156.461 96.13 156.461C94.6316 156.461 93.417 157.676 93.417 159.174C93.417 160.672 94.6316 161.887 96.13 161.887Z" fill="black"/>
<path d="M231.778 115.766C233.277 115.766 234.491 114.551 234.491 113.053C234.491 111.554 233.277 110.34 231.778 110.34C230.28 110.34 229.065 111.554 229.065 113.053C229.065 114.551 230.28 115.766 231.778 115.766Z" fill="black"/>
<path d="M172.093 96.7755C173.591 96.7755 174.806 95.5609 174.806 94.0626C174.806 92.5642 173.591 91.3496 172.093 91.3496C170.595 91.3496 169.38 92.5642 169.38 94.0626C169.38 95.5609 170.595 96.7755 172.093 96.7755Z" fill="black"/>
<path d="M85.2784 129.331C86.7767 129.331 87.9914 128.117 87.9914 126.618C87.9914 125.12 86.7767 123.905 85.2784 123.905C83.7801 123.905 82.5654 125.12 82.5654 126.618C82.5654 128.117 83.7801 129.331 85.2784 129.331Z" fill="black"/>
<path d="M125.973 102.201C127.471 102.201 128.686 100.987 128.686 99.4884C128.686 97.99 127.471 96.7754 125.973 96.7754C124.474 96.7754 123.26 97.99 123.26 99.4884C123.26 100.987 124.474 102.201 125.973 102.201Z" fill="black"/>
<path d="M90.7042 72.3595C92.2025 72.3595 93.4171 71.1449 93.4171 69.6466C93.4171 68.1482 92.2025 66.9336 90.7042 66.9336C89.2058 66.9336 87.9912 68.1482 87.9912 69.6466C87.9912 71.1449 89.2058 72.3595 90.7042 72.3595Z" fill="black"/>
<rect x="1.5" y="1.5" width="1004" height="205" rx="48.5" stroke="black" stroke-width="3"/>
<path d="M297.126 115.88V92.48C297.126 91.8667 297.233 91.3467 297.446 90.92C297.686 90.4933 297.98 90.1333 298.326 89.84C298.673 89.5467 299.046 89.3333 299.446 89.2C299.873 89.0667 300.26 89 300.606 89H310.446C311.806 89 313.086 89.1333 314.286 89.4C315.486 89.64 316.54 90.0667 317.446 90.68C318.353 91.2933 319.073 92.12 319.606 93.16C320.14 94.1733 320.406 95.44 320.406 96.96C320.406 98.1067 320.113 99.1467 319.526 100.08C318.966 101.013 318.18 101.76 317.166 102.32C318.366 102.8 319.3 103.627 319.966 104.8C320.66 105.947 321.006 107.147 321.006 108.4C321.006 109.947 320.726 111.253 320.166 112.32C319.633 113.387 318.9 114.267 317.966 114.96C317.033 115.627 315.94 116.12 314.686 116.44C313.46 116.733 312.153 116.88 310.766 116.88H298.126C297.86 116.88 297.62 116.787 297.406 116.6C297.22 116.387 297.126 116.147 297.126 115.88ZM309.606 100.04C310.513 100.04 311.246 99.8 311.806 99.32C312.366 98.8133 312.646 98.0933 312.646 97.16C312.646 96.2267 312.353 95.5333 311.766 95.08C311.206 94.6 310.486 94.36 309.606 94.36H302.406C303.02 94.36 303.54 94.5867 303.966 95.04C304.393 95.4667 304.606 95.9467 304.606 96.48V98.88C304.606 99.12 304.713 99.3733 304.926 99.64C305.14 99.9067 305.433 100.04 305.806 100.04H309.606ZM309.966 111.48C310.926 111.48 311.7 111.213 312.286 110.68C312.9 110.147 313.206 109.387 313.206 108.4C313.206 107.44 312.9 106.68 312.286 106.12C311.673 105.533 310.9 105.24 309.966 105.24H302.406C303.02 105.24 303.54 105.467 303.966 105.92C304.393 106.347 304.606 106.827 304.606 107.36V110.28C304.606 110.547 304.7 110.813 304.886 111.08C305.1 111.347 305.406 111.48 305.806 111.48H309.966ZM325.448 115.92V92.52C325.448 91.5067 325.794 90.68 326.488 90.04C327.181 89.3733 327.994 89.04 328.928 89.04H345.248C345.541 89.04 345.781 89.1467 345.968 89.36C346.181 89.5467 346.288 89.7867 346.288 90.08V94.04C346.288 94.3333 346.194 94.56 346.008 94.72C345.821 94.9067 345.568 95 345.248 95H330.488C331.128 95 331.648 95.2267 332.048 95.68C332.474 96.1333 332.688 96.6267 332.688 97.16V98.84C332.688 99.1333 332.781 99.4133 332.967 99.68C333.181 99.9467 333.488 100.08 333.888 100.08H342.608C342.901 100.08 343.141 100.187 343.328 100.4C343.541 100.587 343.648 100.827 343.648 101.12V104.72C343.648 105.013 343.541 105.267 343.328 105.48C343.141 105.667 342.901 105.76 342.608 105.76H330.488C331.101 105.76 331.621 105.973 332.048 106.4C332.474 106.827 332.688 107.307 332.688 107.84V109.72C332.688 110.013 332.794 110.293 333.008 110.56C333.221 110.827 333.514 110.96 333.888 110.96H345.568C346.261 110.96 346.608 111.307 346.608 112V115.92C346.608 116.24 346.501 116.493 346.288 116.68C346.101 116.84 345.861 116.92 345.568 116.92H326.448C326.181 116.92 325.941 116.827 325.728 116.64C325.541 116.427 325.448 116.187 325.448 115.92ZM362.437 117.4C358.624 117.4 355.624 116.48 353.437 114.64C351.277 112.8 350.131 110.107 349.997 106.56C349.971 105.84 349.957 104.667 349.957 103.04C349.957 101.387 349.971 100.187 349.997 99.44C350.131 95.9733 351.291 93.3067 353.477 91.44C355.691 89.5467 358.677 88.6 362.437 88.6C364.811 88.6 366.931 88.9867 368.797 89.76C370.691 90.5333 372.184 91.6533 373.277 93.12C374.371 94.5867 374.944 96.32 374.997 98.32C374.997 98.56 374.904 98.76 374.717 98.92C374.557 99.08 374.357 99.16 374.117 99.16H368.437C368.064 99.16 367.784 99.0933 367.597 98.96C367.437 98.8 367.291 98.52 367.157 98.12C366.784 96.8133 366.211 95.9067 365.437 95.4C364.691 94.8667 363.691 94.6 362.437 94.6C359.424 94.6 357.864 96.28 357.757 99.64C357.731 100.36 357.717 101.467 357.717 102.96C357.717 104.453 357.731 105.587 357.757 106.36C357.864 109.72 359.424 111.4 362.437 111.4C363.664 111.4 364.664 111.133 365.437 110.6C366.237 110.067 366.811 109.16 367.157 107.88C367.264 107.48 367.411 107.213 367.597 107.08C367.784 106.92 368.064 106.84 368.437 106.84H374.117C374.357 106.84 374.557 106.92 374.717 107.08C374.904 107.24 374.997 107.44 374.997 107.68C374.944 109.68 374.371 111.413 373.277 112.88C372.184 114.347 370.691 115.467 368.797 116.24C366.931 117.013 364.811 117.4 362.437 117.4ZM390.679 117.4C386.893 117.4 383.906 116.48 381.719 114.64C379.533 112.8 378.373 110.093 378.239 106.52C378.213 105.773 378.199 104.627 378.199 103.08C378.199 101.533 378.213 100.373 378.239 99.6C378.346 96.08 379.506 93.3733 381.719 91.48C383.959 89.56 386.946 88.6 390.679 88.6C394.386 88.6 397.346 89.56 399.559 91.48C401.799 93.3733 402.973 96.08 403.079 99.6C403.133 101.147 403.159 102.307 403.159 103.08C403.159 103.88 403.133 105.027 403.079 106.52C402.946 110.093 401.786 112.8 399.599 114.64C397.439 116.48 394.466 117.4 390.679 117.4ZM390.679 111.4C392.066 111.4 393.173 110.987 393.999 110.16C394.826 109.307 395.266 108.013 395.319 106.28C395.373 104.733 395.399 103.627 395.399 102.96C395.399 102.293 395.373 101.213 395.319 99.72C395.266 97.9867 394.826 96.7067 393.999 95.88C393.173 95.0267 392.066 94.6 390.679 94.6C389.266 94.6 388.146 95.0267 387.319 95.88C386.493 96.7067 386.053 97.9867 385.999 99.72C385.973 100.467 385.959 101.547 385.959 102.96C385.959 104.4 385.973 105.507 385.999 106.28C386.053 108.013 386.493 109.307 387.319 110.16C388.146 110.987 389.266 111.4 390.679 111.4ZM434.473 89.16C434.766 89.16 435.006 89.2533 435.193 89.44C435.38 89.6 435.473 89.84 435.473 90.16V116.04C435.473 116.333 435.38 116.56 435.193 116.72C435.006 116.907 434.766 117 434.473 117H429.393C429.126 117 428.886 116.907 428.673 116.72C428.486 116.507 428.393 116.28 428.393 116.04V102.36C428.393 102.227 428.326 102.16 428.193 102.16C428.113 102.16 428.046 102.187 427.993 102.24L424.113 109.4C423.766 110.013 423.3 110.32 422.713 110.32H420.553C419.993 110.32 419.526 110.013 419.153 109.4L415.313 102.28C415.26 102.2 415.193 102.16 415.113 102.16C414.98 102.16 414.913 102.227 414.913 102.36V116.04C414.913 116.307 414.806 116.533 414.593 116.72C414.406 116.907 414.166 117 413.873 117H408.833C408.54 117 408.3 116.907 408.113 116.72C407.926 116.56 407.833 116.333 407.833 116.04V92.48C407.833 91.92 407.953 91.4267 408.193 91C408.433 90.5733 408.726 90.2267 409.073 89.96C409.42 89.6933 409.78 89.4933 410.153 89.36C410.526 89.2267 410.846 89.16 411.113 89.16H413.353C413.993 89.16 414.473 89.44 414.793 90L421.433 101.96C421.46 102.04 421.526 102.08 421.633 102.08C421.713 102.08 421.78 102.04 421.833 101.96L428.513 90C428.833 89.44 429.313 89.16 429.953 89.16H434.473ZM440.955 115.92V92.52C440.955 91.5067 441.302 90.68 441.995 90.04C442.689 89.3733 443.502 89.04 444.435 89.04H460.755C461.049 89.04 461.289 89.1467 461.475 89.36C461.689 89.5467 461.795 89.7867 461.795 90.08V94.04C461.795 94.3333 461.702 94.56 461.515 94.72C461.329 94.9067 461.075 95 460.755 95H445.995C446.635 95 447.155 95.2267 447.555 95.68C447.982 96.1333 448.195 96.6267 448.195 97.16V98.84C448.195 99.1333 448.289 99.4133 448.475 99.68C448.689 99.9467 448.995 100.08 449.395 100.08H458.115C458.409 100.08 458.649 100.187 458.835 100.4C459.049 100.587 459.155 100.827 459.155 101.12V104.72C459.155 105.013 459.049 105.267 458.835 105.48C458.649 105.667 458.409 105.76 458.115 105.76H445.995C446.609 105.76 447.129 105.973 447.555 106.4C447.982 106.827 448.195 107.307 448.195 107.84V109.72C448.195 110.013 448.302 110.293 448.515 110.56C448.729 110.827 449.022 110.96 449.395 110.96H461.075C461.769 110.96 462.115 111.307 462.115 112V115.92C462.115 116.24 462.009 116.493 461.795 116.68C461.609 116.84 461.369 116.92 461.075 116.92H441.955C441.689 116.92 441.449 116.827 441.235 116.64C441.049 116.427 440.955 116.187 440.955 115.92ZM472.818 116.76C472.658 116.547 472.578 116.347 472.578 116.16C472.578 115.973 472.591 115.853 472.618 115.8L481.898 90.28C482.191 89.5067 482.724 89.12 483.498 89.12H489.698C490.471 89.12 491.004 89.5067 491.298 90.28L500.578 115.8C500.604 115.853 500.618 115.973 500.618 116.16C500.618 116.373 500.524 116.573 500.338 116.76C500.178 116.92 499.991 117 499.778 117H494.618C493.951 117 493.498 116.707 493.258 116.12L491.178 110.48C490.218 110.853 489.244 111.16 488.258 111.4C487.271 111.64 486.311 111.827 485.378 111.96C484.471 112.067 483.618 112.147 482.818 112.2C482.018 112.227 481.324 112.24 480.738 112.24C480.364 112.24 480.044 112.24 479.778 112.24C479.538 112.24 479.351 112.227 479.218 112.2C479.698 112.28 480.084 112.547 480.378 113C480.698 113.453 480.738 113.987 480.498 114.6L479.938 116.12C479.698 116.707 479.244 117 478.578 117H473.418C473.231 117 473.031 116.92 472.818 116.76ZM482.978 106.52C483.724 106.467 484.498 106.373 485.298 106.24C485.991 106.133 486.711 105.987 487.458 105.8C488.231 105.587 488.964 105.293 489.658 104.92L486.578 96.12L482.978 106.52ZM503.807 115.88V92.48C503.807 91.5467 504.14 90.7333 504.807 90.04C505.474 89.3467 506.3 89 507.287 89H508.607C508.9 89 509.247 89.0667 509.647 89.2C510.047 89.3067 510.46 89.6533 510.887 90.24C512.46 92.6933 513.874 94.9067 515.127 96.88C515.9 98.08 516.5 99.04 516.927 99.76C517.38 100.453 517.807 101.107 518.207 101.72C518.607 102.307 518.94 102.813 519.207 103.24C519.474 103.667 519.634 103.92 519.687 104C519.687 104.053 519.74 104.08 519.847 104.08C519.98 104.08 520.047 104.013 520.047 103.88V92.48C520.047 91.44 520.407 90.6 521.127 89.96C521.847 89.32 522.66 89 523.567 89H526.127C526.42 89 526.66 89.0933 526.847 89.28C527.034 89.52 527.127 89.7733 527.127 90.04V115.84C527.127 116.08 527.034 116.32 526.847 116.56C526.634 116.773 526.394 116.88 526.127 116.88H521.607C521.02 116.88 520.567 116.627 520.247 116.12C518.647 113.667 517.207 111.467 515.927 109.52C515.154 108.347 514.54 107.413 514.087 106.72C513.634 106 513.207 105.347 512.807 104.76C512.407 104.147 512.074 103.64 511.807 103.24C511.54 102.813 511.38 102.56 511.327 102.48C511.247 102.4 511.18 102.36 511.127 102.36C510.994 102.36 510.927 102.427 510.927 102.56V115.88C510.927 116.173 510.82 116.413 510.607 116.6C510.394 116.787 510.154 116.88 509.887 116.88H504.807C504.567 116.88 504.34 116.773 504.127 116.56C503.914 116.347 503.807 116.12 503.807 115.88ZM540.993 115.92V92.52C540.993 91.5067 541.34 90.68 542.033 90.04C542.727 89.3733 543.54 89.04 544.473 89.04H547.673C547.993 89.04 548.233 89.1333 548.393 89.32C548.58 89.5067 548.673 89.7467 548.673 90.04V115.92C548.673 116.187 548.58 116.413 548.393 116.6C548.233 116.813 547.993 116.92 547.673 116.92H541.993C541.727 116.92 541.487 116.827 541.273 116.64C541.087 116.427 540.993 116.187 540.993 115.92ZM554.198 115.88V92.48C554.198 91.5467 554.531 90.7333 555.198 90.04C555.864 89.3467 556.691 89 557.678 89H558.998C559.291 89 559.638 89.0667 560.038 89.2C560.438 89.3067 560.851 89.6533 561.278 90.24C562.851 92.6933 564.264 94.9067 565.518 96.88C566.291 98.08 566.891 99.04 567.318 99.76C567.771 100.453 568.198 101.107 568.598 101.72C568.998 102.307 569.331 102.813 569.598 103.24C569.864 103.667 570.024 103.92 570.078 104C570.078 104.053 570.131 104.08 570.238 104.08C570.371 104.08 570.438 104.013 570.438 103.88V92.48C570.438 91.44 570.798 90.6 571.518 89.96C572.238 89.32 573.051 89 573.958 89H576.518C576.811 89 577.051 89.0933 577.238 89.28C577.424 89.52 577.518 89.7733 577.518 90.04V115.84C577.518 116.08 577.424 116.32 577.238 116.56C577.024 116.773 576.784 116.88 576.518 116.88H571.997C571.411 116.88 570.958 116.627 570.638 116.12C569.038 113.667 567.598 111.467 566.318 109.52C565.544 108.347 564.931 107.413 564.478 106.72C564.024 106 563.598 105.347 563.197 104.76C562.798 104.147 562.464 103.64 562.198 103.24C561.931 102.813 561.771 102.56 561.717 102.48C561.638 102.4 561.571 102.36 561.518 102.36C561.384 102.36 561.318 102.427 561.318 102.56V115.88C561.318 116.173 561.211 116.413 560.998 116.6C560.784 116.787 560.544 116.88 560.278 116.88H555.198C554.958 116.88 554.731 116.773 554.518 116.56C554.304 116.347 554.198 116.12 554.198 115.88ZM606.386 89C606.599 89 606.786 89.08 606.946 89.24C607.132 89.4 607.226 89.5867 607.226 89.8C607.226 89.9867 607.212 90.1067 607.186 90.16L599.106 115.68C599.026 115.973 598.852 116.253 598.586 116.52C598.346 116.733 597.972 116.84 597.466 116.84H591.066C590.559 116.84 590.186 116.733 589.946 116.52C589.679 116.28 589.492 116 589.386 115.68L581.346 90.16L581.266 89.8C581.266 89.5867 581.346 89.4 581.506 89.24C581.692 89.08 581.906 89 582.146 89H587.346C587.772 89 588.106 89.1067 588.346 89.32C588.586 89.56 588.746 89.8 588.826 90.04L594.066 107.4C594.066 107.507 594.132 107.56 594.266 107.56C594.372 107.56 594.426 107.507 594.426 107.4L599.706 90.04C599.812 89.6933 599.999 89.44 600.266 89.28C600.532 89.0933 600.839 89 601.186 89H606.386ZM610.916 115.92V92.52C610.916 91.5067 611.263 90.68 611.956 90.04C612.65 89.3733 613.463 89.04 614.396 89.04H630.716C631.01 89.04 631.25 89.1467 631.436 89.36C631.65 89.5467 631.756 89.7867 631.756 90.08V94.04C631.756 94.3333 631.663 94.56 631.476 94.72C631.29 94.9067 631.036 95 630.716 95H615.956C616.596 95 617.116 95.2267 617.516 95.68C617.943 96.1333 618.156 96.6267 618.156 97.16V98.84C618.156 99.1333 618.25 99.4133 618.436 99.68C618.65 99.9467 618.956 100.08 619.356 100.08H628.076C628.37 100.08 628.61 100.187 628.796 100.4C629.01 100.587 629.116 100.827 629.116 101.12V104.72C629.116 105.013 629.01 105.267 628.796 105.48C628.61 105.667 628.37 105.76 628.076 105.76H615.956C616.57 105.76 617.09 105.973 617.516 106.4C617.943 106.827 618.156 107.307 618.156 107.84V109.72C618.156 110.013 618.263 110.293 618.476 110.56C618.69 110.827 618.983 110.96 619.356 110.96H631.036C631.73 110.96 632.076 111.307 632.076 112V115.92C632.076 116.24 631.97 116.493 631.756 116.68C631.57 116.84 631.33 116.92 631.036 116.92H611.916C611.65 116.92 611.41 116.827 611.196 116.64C611.01 116.427 610.916 116.187 610.916 115.92ZM659.26 108.52C659.26 110.147 658.874 111.52 658.1 112.64C657.354 113.76 656.394 114.667 655.22 115.36C654.047 116.053 652.74 116.56 651.3 116.88C649.86 117.173 648.46 117.32 647.1 117.32C645.794 117.32 644.434 117.187 643.02 116.92C641.634 116.653 640.354 116.213 639.18 115.6C638.007 114.96 637.02 114.133 636.22 113.12C635.447 112.08 635.02 110.8 634.94 109.28C634.94 109.04 635.02 108.84 635.18 108.68C635.367 108.52 635.58 108.44 635.82 108.44H641.14C641.3 108.44 641.434 108.453 641.54 108.48C641.674 108.507 641.794 108.547 641.9 108.6C642.087 108.707 642.314 108.893 642.58 109.16C643.007 110.013 643.634 110.6 644.46 110.92C645.314 111.213 646.194 111.36 647.1 111.36C647.5 111.36 647.954 111.333 648.46 111.28C648.994 111.227 649.474 111.12 649.9 110.96C650.354 110.773 650.74 110.52 651.06 110.2C651.38 109.853 651.54 109.413 651.54 108.88C651.54 108.16 651.274 107.64 650.74 107.32C650.207 107 649.647 106.747 649.06 106.56C648.607 106.4 648.06 106.253 647.42 106.12C646.807 105.96 646.087 105.8 645.26 105.64C644.034 105.4 642.847 105.093 641.7 104.72C640.554 104.32 639.527 103.8 638.62 103.16C637.74 102.52 637.02 101.72 636.46 100.76C635.927 99.7733 635.66 98.5733 635.66 97.16C635.66 95.4 636.14 93.8933 637.1 92.64C638.087 91.36 639.367 90.3867 640.94 89.72C642.647 89.0267 644.607 88.68 646.82 88.68C647.7 88.68 648.607 88.76 649.54 88.92C650.5 89.0533 651.42 89.2933 652.3 89.64C653.207 89.96 654.047 90.4 654.82 90.96C655.594 91.4933 656.26 92.1467 656.82 92.92C657.727 94.0933 658.22 95.28 658.3 96.48C658.3 96.6933 658.207 96.8933 658.02 97.08C657.86 97.2667 657.674 97.36 657.46 97.36H651.86C651.3 97.36 650.86 97.12 650.54 96.64C650.38 96.08 649.967 95.6 649.3 95.2C648.58 94.8267 647.754 94.64 646.82 94.64C646.42 94.64 646.007 94.6667 645.58 94.72C645.18 94.7733 644.807 94.8933 644.46 95.08C644.114 95.2667 643.834 95.52 643.62 95.84C643.407 96.1333 643.3 96.52 643.3 97C643.3 97.7467 643.7 98.3467 644.5 98.8C645.3 99.2267 646.794 99.6667 648.98 100.12C650.234 100.36 651.474 100.653 652.7 101C653.954 101.32 655.06 101.787 656.02 102.4C656.98 103.013 657.754 103.813 658.34 104.8C658.954 105.76 659.26 107 659.26 108.52ZM683.748 89C684.041 89 684.281 89.1067 684.468 89.32C684.681 89.5067 684.788 89.7333 684.788 90V94.48C684.788 94.7733 684.681 95.0133 684.468 95.2C684.281 95.3867 684.041 95.48 683.748 95.48H674.468C675.054 95.48 675.574 95.6933 676.028 96.12C676.508 96.5467 676.748 97.0267 676.748 97.56V115.88C676.748 116.173 676.641 116.4 676.428 116.56C676.241 116.747 676.001 116.84 675.708 116.84H670.148C669.854 116.84 669.614 116.747 669.428 116.56C669.214 116.4 669.108 116.173 669.108 115.88V96.68C669.108 96.3067 668.988 96.0133 668.748 95.8C668.508 95.5867 668.228 95.48 667.908 95.48H662.108C661.841 95.48 661.601 95.3867 661.388 95.2C661.174 95.0133 661.068 94.7733 661.068 94.48V92.44C661.068 91.9333 661.161 91.4667 661.348 91.04C661.561 90.6133 661.828 90.2533 662.148 89.96C662.494 89.64 662.868 89.4 663.268 89.24C663.694 89.08 664.121 89 664.548 89H683.748ZM699.508 117.4C695.721 117.4 692.734 116.48 690.548 114.64C688.361 112.8 687.201 110.093 687.068 106.52C687.041 105.773 687.028 104.627 687.028 103.08C687.028 101.533 687.041 100.373 687.068 99.6C687.174 96.08 688.334 93.3733 690.548 91.48C692.788 89.56 695.774 88.6 699.508 88.6C703.214 88.6 706.174 89.56 708.388 91.48C710.628 93.3733 711.801 96.08 711.908 99.6C711.961 101.147 711.988 102.307 711.988 103.08C711.988 103.88 711.961 105.027 711.908 106.52C711.774 110.093 710.614 112.8 708.428 114.64C706.268 116.48 703.294 117.4 699.508 117.4ZM699.508 111.4C700.894 111.4 702.001 110.987 702.828 110.16C703.654 109.307 704.094 108.013 704.148 106.28C704.201 104.733 704.228 103.627 704.228 102.96C704.228 102.293 704.201 101.213 704.148 99.72C704.094 97.9867 703.654 96.7067 702.828 95.88C702.001 95.0267 700.894 94.6 699.508 94.6C698.094 94.6 696.974 95.0267 696.148 95.88C695.321 96.7067 694.881 97.9867 694.828 99.72C694.801 100.467 694.788 101.547 694.788 102.96C694.788 104.4 694.801 105.507 694.828 106.28C694.881 108.013 695.321 109.307 696.148 110.16C696.974 110.987 698.094 111.4 699.508 111.4ZM739.501 116.92H733.861C733.115 116.92 732.581 116.573 732.261 115.88L728.181 107.88C727.941 107.453 727.581 107.24 727.101 107.24H721.861C722.528 107.24 723.048 107.48 723.421 107.96C723.821 108.413 724.021 108.88 724.021 109.36V115.96C724.021 116.253 723.928 116.48 723.741 116.64C723.555 116.827 723.315 116.92 723.021 116.92H717.541C717.275 116.92 717.035 116.827 716.821 116.64C716.635 116.427 716.541 116.2 716.541 115.96V92.52C716.541 91.5333 716.888 90.72 717.581 90.08C718.275 89.4133 719.088 89.08 720.021 89.08H728.501C729.995 89.08 731.408 89.24 732.741 89.56C734.101 89.88 735.288 90.4 736.301 91.12C737.341 91.84 738.168 92.7867 738.781 93.96C739.395 95.1067 739.701 96.52 739.701 98.2C739.701 99.8 739.341 101.24 738.621 102.52C737.901 103.8 736.835 104.84 735.421 105.64C735.208 105.773 735.088 105.933 735.061 106.12C735.061 106.307 735.101 106.453 735.181 106.56L740.221 115.68C740.301 115.84 740.341 115.987 740.341 116.12C740.341 116.333 740.248 116.52 740.061 116.68C739.901 116.84 739.715 116.92 739.501 116.92ZM731.981 98.16C731.981 97.0667 731.648 96.24 730.981 95.68C730.341 95.0933 729.501 94.8 728.461 94.8H721.581C722.248 94.8 722.781 95.0267 723.181 95.48C723.581 95.9333 723.781 96.4133 723.781 96.92V100.16C723.781 100.48 723.888 100.76 724.101 101C724.341 101.24 724.635 101.36 724.981 101.36H728.461C729.501 101.36 730.341 101.107 730.981 100.6C731.648 100.067 731.981 99.2533 731.981 98.16Z" fill="black"/>
</svg>
