<svg width="485" height="496" viewBox="0 0 485 496" fill="none" xmlns="http://www.w3.org/2000/svg">
<rect x="1.5" y="1.5" width="481.5" height="493" rx="48.5" fill="white" stroke="black" stroke-width="3"/>
<path d="M169.637 352C169.931 352 170.171 352.107 170.357 352.32C170.571 352.507 170.677 352.747 170.677 353.04V369.64C170.677 371.453 170.357 373.027 169.717 374.36C169.104 375.693 168.264 376.8 167.197 377.68C166.131 378.56 164.864 379.213 163.397 379.64C161.957 380.067 160.424 380.28 158.797 380.28C157.357 380.28 155.944 380.093 154.557 379.72C153.197 379.347 151.971 378.787 150.877 378.04C149.784 377.267 148.891 376.307 148.197 375.16C147.531 374.013 147.184 372.653 147.157 371.08C147.157 370.867 147.237 370.653 147.397 370.44C147.557 370.28 147.757 370.2 147.997 370.2H153.717C154.064 370.2 154.357 370.28 154.597 370.44C154.784 370.627 154.957 370.92 155.117 371.32C155.517 373.293 156.811 374.28 158.997 374.28C159.717 374.28 160.331 374.16 160.837 373.92C161.344 373.653 161.744 373.293 162.037 372.84C162.357 372.387 162.584 371.867 162.717 371.28C162.877 370.693 162.957 370.067 162.957 369.4V360.32C162.957 359.813 163.171 359.333 163.597 358.88C164.024 358.4 164.544 358.16 165.157 358.16H150.157C149.864 358.16 149.624 358.067 149.437 357.88C149.251 357.667 149.157 357.427 149.157 357.16V355.44C149.157 355.013 149.237 354.6 149.397 354.2C149.557 353.773 149.784 353.4 150.077 353.08C150.397 352.76 150.771 352.507 151.197 352.32C151.624 352.107 152.104 352 152.637 352H169.637ZM187.55 380.4C183.764 380.4 180.777 379.48 178.59 377.64C176.404 375.8 175.244 373.093 175.11 369.52C175.084 368.773 175.07 367.627 175.07 366.08C175.07 364.533 175.084 363.373 175.11 362.6C175.217 359.08 176.377 356.373 178.59 354.48C180.83 352.56 183.817 351.6 187.55 351.6C191.257 351.6 194.217 352.56 196.43 354.48C198.67 356.373 199.844 359.08 199.95 362.6C200.004 364.147 200.03 365.307 200.03 366.08C200.03 366.88 200.004 368.027 199.95 369.52C199.817 373.093 198.657 375.8 196.47 377.64C194.31 379.48 191.337 380.4 187.55 380.4ZM187.55 374.4C188.937 374.4 190.044 373.987 190.87 373.16C191.697 372.307 192.137 371.013 192.19 369.28C192.244 367.733 192.27 366.627 192.27 365.96C192.27 365.293 192.244 364.213 192.19 362.72C192.137 360.987 191.697 359.707 190.87 358.88C190.044 358.027 188.937 357.6 187.55 357.6C186.137 357.6 185.017 358.027 184.19 358.88C183.364 359.707 182.924 360.987 182.87 362.72C182.844 363.467 182.83 364.547 182.83 365.96C182.83 367.4 182.844 368.507 182.87 369.28C182.924 371.013 183.364 372.307 184.19 373.16C185.017 373.987 186.137 374.4 187.55 374.4ZM204.544 378.92V355.52C204.544 354.507 204.891 353.68 205.584 353.04C206.278 352.373 207.091 352.04 208.024 352.04H211.224C211.544 352.04 211.784 352.133 211.944 352.32C212.131 352.507 212.224 352.747 212.224 353.04V378.92C212.224 379.187 212.131 379.413 211.944 379.6C211.784 379.813 211.544 379.92 211.224 379.92H205.544C205.278 379.92 205.038 379.827 204.824 379.64C204.638 379.427 204.544 379.187 204.544 378.92ZM217.748 378.88V355.48C217.748 354.547 218.082 353.733 218.748 353.04C219.415 352.347 220.242 352 221.228 352H222.548C222.842 352 223.188 352.067 223.588 352.2C223.988 352.307 224.402 352.653 224.828 353.24C226.402 355.693 227.815 357.907 229.068 359.88C229.842 361.08 230.442 362.04 230.868 362.76C231.322 363.453 231.748 364.107 232.148 364.72C232.548 365.307 232.882 365.813 233.148 366.24C233.415 366.667 233.575 366.92 233.628 367C233.628 367.053 233.682 367.08 233.788 367.08C233.922 367.08 233.988 367.013 233.988 366.88V355.48C233.988 354.44 234.348 353.6 235.068 352.96C235.788 352.32 236.602 352 237.508 352H240.068C240.362 352 240.602 352.093 240.788 352.28C240.975 352.52 241.068 352.773 241.068 353.04V378.84C241.068 379.08 240.975 379.32 240.788 379.56C240.575 379.773 240.335 379.88 240.068 379.88H235.548C234.962 379.88 234.508 379.627 234.188 379.12C232.588 376.667 231.148 374.467 229.868 372.52C229.095 371.347 228.482 370.413 228.028 369.72C227.575 369 227.148 368.347 226.748 367.76C226.348 367.147 226.015 366.64 225.748 366.24C225.482 365.813 225.322 365.56 225.268 365.48C225.188 365.4 225.122 365.36 225.068 365.36C224.935 365.36 224.868 365.427 224.868 365.56V378.88C224.868 379.173 224.762 379.413 224.548 379.6C224.335 379.787 224.095 379.88 223.828 379.88H218.748C218.508 379.88 218.282 379.773 218.068 379.56C217.855 379.347 217.748 379.12 217.748 378.88ZM266.535 380.4C262.748 380.4 259.762 379.48 257.575 377.64C255.388 375.8 254.228 373.093 254.095 369.52C254.068 368.773 254.055 367.627 254.055 366.08C254.055 364.533 254.068 363.373 254.095 362.6C254.202 359.08 255.362 356.373 257.575 354.48C259.815 352.56 262.802 351.6 266.535 351.6C270.242 351.6 273.202 352.56 275.415 354.48C277.655 356.373 278.828 359.08 278.935 362.6C278.988 364.147 279.015 365.307 279.015 366.08C279.015 366.88 278.988 368.027 278.935 369.52C278.802 373.093 277.642 375.8 275.455 377.64C273.295 379.48 270.322 380.4 266.535 380.4ZM266.535 374.4C267.922 374.4 269.028 373.987 269.855 373.16C270.682 372.307 271.122 371.013 271.175 369.28C271.228 367.733 271.255 366.627 271.255 365.96C271.255 365.293 271.228 364.213 271.175 362.72C271.122 360.987 270.682 359.707 269.855 358.88C269.028 358.027 267.922 357.6 266.535 357.6C265.122 357.6 264.002 358.027 263.175 358.88C262.348 359.707 261.908 360.987 261.855 362.72C261.828 363.467 261.815 364.547 261.815 365.96C261.815 367.4 261.828 368.507 261.855 369.28C261.908 371.013 262.348 372.307 263.175 373.16C264.002 373.987 265.122 374.4 266.535 374.4ZM283.369 369.4V355.56C283.369 355 283.475 354.507 283.689 354.08C283.929 353.653 284.209 353.293 284.529 353C284.875 352.707 285.249 352.493 285.649 352.36C286.075 352.2 286.475 352.12 286.849 352.12H289.849C290.142 352.12 290.382 352.213 290.569 352.4C290.782 352.587 290.889 352.827 290.889 353.12V369.32C290.889 370.84 291.235 372.04 291.929 372.92C292.649 373.8 293.809 374.24 295.409 374.24C297.009 374.24 298.155 373.8 298.849 372.92C299.569 372.04 299.929 370.84 299.929 369.32V355.52C299.929 354.96 300.035 354.467 300.249 354.04C300.489 353.613 300.782 353.253 301.129 352.96C301.475 352.667 301.849 352.453 302.249 352.32C302.649 352.187 303.035 352.12 303.409 352.12H306.409C306.702 352.12 306.942 352.213 307.129 352.4C307.342 352.587 307.449 352.827 307.449 353.12V369.4C307.449 371.293 307.155 372.933 306.569 374.32C306.009 375.68 305.209 376.813 304.169 377.72C303.129 378.6 301.862 379.267 300.369 379.72C298.902 380.147 297.262 380.36 295.449 380.36C293.662 380.36 292.022 380.147 290.529 379.72C289.035 379.293 287.755 378.64 286.689 377.76C285.649 376.853 284.835 375.707 284.249 374.32C283.662 372.933 283.369 371.293 283.369 369.4ZM335.63 379.92H329.99C329.243 379.92 328.71 379.573 328.39 378.88L324.31 370.88C324.07 370.453 323.71 370.24 323.23 370.24H317.99C318.657 370.24 319.177 370.48 319.55 370.96C319.95 371.413 320.15 371.88 320.15 372.36V378.96C320.15 379.253 320.057 379.48 319.87 379.64C319.683 379.827 319.443 379.92 319.15 379.92H313.67C313.403 379.92 313.163 379.827 312.95 379.64C312.763 379.427 312.67 379.2 312.67 378.96V355.52C312.67 354.533 313.017 353.72 313.71 353.08C314.403 352.413 315.217 352.08 316.15 352.08H324.63C326.123 352.08 327.537 352.24 328.87 352.56C330.23 352.88 331.417 353.4 332.43 354.12C333.47 354.84 334.297 355.787 334.91 356.96C335.523 358.107 335.83 359.52 335.83 361.2C335.83 362.8 335.47 364.24 334.75 365.52C334.03 366.8 332.963 367.84 331.55 368.64C331.337 368.773 331.217 368.933 331.19 369.12C331.19 369.307 331.23 369.453 331.31 369.56L336.35 378.68C336.43 378.84 336.47 378.987 336.47 379.12C336.47 379.333 336.377 379.52 336.19 379.68C336.03 379.84 335.843 379.92 335.63 379.92ZM328.11 361.16C328.11 360.067 327.777 359.24 327.11 358.68C326.47 358.093 325.63 357.8 324.59 357.8H317.71C318.377 357.8 318.91 358.027 319.31 358.48C319.71 358.933 319.91 359.413 319.91 359.92V363.16C319.91 363.48 320.017 363.76 320.23 364C320.47 364.24 320.763 364.36 321.11 364.36H324.59C325.63 364.36 326.47 364.107 327.11 363.6C327.777 363.067 328.11 362.253 328.11 361.16ZM110.658 425.88V402.48C110.658 401.547 110.992 400.733 111.658 400.04C112.325 399.347 113.152 399 114.138 399H115.458C115.752 399 116.098 399.067 116.498 399.2C116.898 399.307 117.312 399.653 117.738 400.24C119.312 402.693 120.725 404.907 121.978 406.88C122.752 408.08 123.352 409.04 123.778 409.76C124.232 410.453 124.658 411.107 125.058 411.72C125.458 412.307 125.792 412.813 126.058 413.24C126.325 413.667 126.485 413.92 126.538 414C126.538 414.053 126.592 414.08 126.698 414.08C126.832 414.08 126.898 414.013 126.898 413.88V402.48C126.898 401.44 127.258 400.6 127.978 399.96C128.698 399.32 129.512 399 130.418 399H132.978C133.272 399 133.512 399.093 133.698 399.28C133.885 399.52 133.978 399.773 133.978 400.04V425.84C133.978 426.08 133.885 426.32 133.698 426.56C133.485 426.773 133.245 426.88 132.978 426.88H128.458C127.872 426.88 127.418 426.627 127.098 426.12C125.498 423.667 124.058 421.467 122.778 419.52C122.005 418.347 121.392 417.413 120.938 416.72C120.485 416 120.058 415.347 119.658 414.76C119.258 414.147 118.925 413.64 118.658 413.24C118.392 412.813 118.232 412.56 118.178 412.48C118.098 412.4 118.032 412.36 117.978 412.36C117.845 412.36 117.778 412.427 117.778 412.56V425.88C117.778 426.173 117.672 426.413 117.458 426.6C117.245 426.787 117.005 426.88 116.738 426.88H111.658C111.418 426.88 111.192 426.773 110.978 426.56C110.765 426.347 110.658 426.12 110.658 425.88ZM139.487 425.92V402.52C139.487 401.507 139.833 400.68 140.527 400.04C141.22 399.373 142.033 399.04 142.967 399.04H159.287C159.58 399.04 159.82 399.147 160.007 399.36C160.22 399.547 160.327 399.787 160.327 400.08V404.04C160.327 404.333 160.233 404.56 160.047 404.72C159.86 404.907 159.607 405 159.287 405H144.527C145.167 405 145.687 405.227 146.087 405.68C146.513 406.133 146.727 406.627 146.727 407.16V408.84C146.727 409.133 146.82 409.413 147.007 409.68C147.22 409.947 147.527 410.08 147.927 410.08H156.647C156.94 410.08 157.18 410.187 157.367 410.4C157.58 410.587 157.687 410.827 157.687 411.12V414.72C157.687 415.013 157.58 415.267 157.367 415.48C157.18 415.667 156.94 415.76 156.647 415.76H144.527C145.14 415.76 145.66 415.973 146.087 416.4C146.513 416.827 146.727 417.307 146.727 417.84V419.72C146.727 420.013 146.833 420.293 147.047 420.56C147.26 420.827 147.553 420.96 147.927 420.96H159.607C160.3 420.96 160.647 421.307 160.647 422V425.92C160.647 426.24 160.54 426.493 160.327 426.68C160.14 426.84 159.9 426.92 159.607 426.92H140.487C140.22 426.92 139.98 426.827 139.767 426.64C139.58 426.427 139.487 426.187 139.487 425.92ZM194.351 399.8V400.04L190.111 425.56C189.924 426.413 189.391 426.84 188.511 426.84H184.471C184.017 426.84 183.697 426.733 183.511 426.52C183.271 426.333 183.111 426.107 183.031 425.84L179.271 415.36C179.244 415.253 179.177 415.2 179.071 415.2C178.964 415.2 178.897 415.253 178.871 415.36L175.111 425.84C175.031 426.08 174.857 426.307 174.591 426.52C174.404 426.733 174.084 426.84 173.631 426.84H169.631C168.751 426.84 168.217 426.413 168.031 425.56L163.791 400.04C163.764 399.693 163.831 399.427 163.991 399.24C164.151 399.08 164.351 399 164.591 399H169.791C170.564 399 170.991 399.293 171.071 399.88L173.351 414.08C173.377 414.187 173.444 414.24 173.551 414.24C173.684 414.24 173.751 414.2 173.751 414.12L176.231 406.24C176.471 405.52 176.911 405.16 177.551 405.16H180.551C181.191 405.16 181.631 405.52 181.871 406.24L184.351 414.08C184.404 414.16 184.471 414.2 184.551 414.2C184.657 414.2 184.724 414.147 184.751 414.04L187.071 399.88C187.124 399.533 187.257 399.307 187.471 399.2C187.711 399.067 187.991 399 188.311 399H193.511C193.724 399 193.911 399.08 194.071 399.24C194.257 399.4 194.351 399.587 194.351 399.8ZM220.995 418.52C220.995 420.147 220.608 421.52 219.835 422.64C219.088 423.76 218.128 424.667 216.955 425.36C215.781 426.053 214.475 426.56 213.035 426.88C211.595 427.173 210.195 427.32 208.835 427.32C207.528 427.32 206.168 427.187 204.755 426.92C203.368 426.653 202.088 426.213 200.915 425.6C199.741 424.96 198.755 424.133 197.955 423.12C197.181 422.08 196.755 420.8 196.675 419.28C196.675 419.04 196.755 418.84 196.915 418.68C197.101 418.52 197.315 418.44 197.555 418.44H202.875C203.035 418.44 203.168 418.453 203.275 418.48C203.408 418.507 203.528 418.547 203.635 418.6C203.821 418.707 204.048 418.893 204.315 419.16C204.741 420.013 205.368 420.6 206.195 420.92C207.048 421.213 207.928 421.36 208.835 421.36C209.235 421.36 209.688 421.333 210.195 421.28C210.728 421.227 211.208 421.12 211.635 420.96C212.088 420.773 212.475 420.52 212.795 420.2C213.115 419.853 213.275 419.413 213.275 418.88C213.275 418.16 213.008 417.64 212.475 417.32C211.941 417 211.381 416.747 210.795 416.56C210.341 416.4 209.795 416.253 209.155 416.12C208.541 415.96 207.821 415.8 206.995 415.64C205.768 415.4 204.581 415.093 203.435 414.72C202.288 414.32 201.261 413.8 200.355 413.16C199.475 412.52 198.755 411.72 198.195 410.76C197.661 409.773 197.395 408.573 197.395 407.16C197.395 405.4 197.875 403.893 198.835 402.64C199.821 401.36 201.101 400.387 202.675 399.72C204.381 399.027 206.341 398.68 208.555 398.68C209.435 398.68 210.341 398.76 211.275 398.92C212.235 399.053 213.155 399.293 214.035 399.64C214.941 399.96 215.781 400.4 216.555 400.96C217.328 401.493 217.995 402.147 218.555 402.92C219.461 404.093 219.955 405.28 220.035 406.48C220.035 406.693 219.941 406.893 219.755 407.08C219.595 407.267 219.408 407.36 219.195 407.36H213.595C213.035 407.36 212.595 407.12 212.275 406.64C212.115 406.08 211.701 405.6 211.035 405.2C210.315 404.827 209.488 404.64 208.555 404.64C208.155 404.64 207.741 404.667 207.315 404.72C206.915 404.773 206.541 404.893 206.195 405.08C205.848 405.267 205.568 405.52 205.355 405.84C205.141 406.133 205.035 406.52 205.035 407C205.035 407.747 205.435 408.347 206.235 408.8C207.035 409.227 208.528 409.667 210.715 410.12C211.968 410.36 213.208 410.653 214.435 411C215.688 411.32 216.795 411.787 217.755 412.4C218.715 413.013 219.488 413.813 220.075 414.8C220.688 415.76 220.995 417 220.995 418.52ZM224.995 425.88V402.44C224.995 401.933 225.089 401.467 225.275 401.04C225.489 400.613 225.755 400.253 226.075 399.96C226.422 399.667 226.795 399.44 227.195 399.28C227.622 399.093 228.049 399 228.475 399H231.595C231.889 399 232.115 399.093 232.275 399.28C232.462 399.467 232.555 399.707 232.555 400V419.4C232.555 419.613 232.662 419.88 232.875 420.2C233.089 420.493 233.395 420.64 233.795 420.64H244.515C244.809 420.64 245.049 420.733 245.235 420.92C245.449 421.08 245.555 421.32 245.555 421.64V425.88C245.555 426.2 245.449 426.453 245.235 426.64C245.049 426.8 244.809 426.88 244.515 426.88H225.995C225.755 426.88 225.529 426.773 225.315 426.56C225.102 426.347 224.995 426.12 224.995 425.88ZM248.94 425.92V402.52C248.94 401.507 249.286 400.68 249.98 400.04C250.673 399.373 251.486 399.04 252.42 399.04H268.74C269.033 399.04 269.273 399.147 269.46 399.36C269.673 399.547 269.78 399.787 269.78 400.08V404.04C269.78 404.333 269.686 404.56 269.5 404.72C269.313 404.907 269.06 405 268.74 405H253.98C254.62 405 255.14 405.227 255.54 405.68C255.966 406.133 256.18 406.627 256.18 407.16V408.84C256.18 409.133 256.273 409.413 256.46 409.68C256.673 409.947 256.98 410.08 257.38 410.08H266.1C266.393 410.08 266.633 410.187 266.82 410.4C267.033 410.587 267.14 410.827 267.14 411.12V414.72C267.14 415.013 267.033 415.267 266.82 415.48C266.633 415.667 266.393 415.76 266.1 415.76H253.98C254.593 415.76 255.113 415.973 255.54 416.4C255.966 416.827 256.18 417.307 256.18 417.84V419.72C256.18 420.013 256.286 420.293 256.5 420.56C256.713 420.827 257.006 420.96 257.38 420.96H269.06C269.753 420.96 270.1 421.307 270.1 422V425.92C270.1 426.24 269.993 426.493 269.78 426.68C269.593 426.84 269.353 426.92 269.06 426.92H249.94C249.673 426.92 249.433 426.827 249.22 426.64C249.033 426.427 248.94 426.187 248.94 425.92ZM295.404 399C295.697 399 295.937 399.107 296.124 399.32C296.337 399.507 296.444 399.733 296.444 400V404.48C296.444 404.773 296.337 405.013 296.124 405.2C295.937 405.387 295.697 405.48 295.404 405.48H286.124C286.71 405.48 287.23 405.693 287.684 406.12C288.164 406.547 288.404 407.027 288.404 407.56V425.88C288.404 426.173 288.297 426.4 288.084 426.56C287.897 426.747 287.657 426.84 287.364 426.84H281.804C281.51 426.84 281.27 426.747 281.084 426.56C280.87 426.4 280.764 426.173 280.764 425.88V406.68C280.764 406.307 280.644 406.013 280.404 405.8C280.164 405.587 279.884 405.48 279.564 405.48H273.764C273.497 405.48 273.257 405.387 273.044 405.2C272.83 405.013 272.724 404.773 272.724 404.48V402.44C272.724 401.933 272.817 401.467 273.004 401.04C273.217 400.613 273.484 400.253 273.804 399.96C274.15 399.64 274.524 399.4 274.924 399.24C275.35 399.08 275.777 399 276.204 399H295.404ZM320.794 399C321.088 399 321.328 399.107 321.514 399.32C321.728 399.507 321.834 399.733 321.834 400V404.48C321.834 404.773 321.728 405.013 321.514 405.2C321.328 405.387 321.088 405.48 320.794 405.48H311.514C312.101 405.48 312.621 405.693 313.074 406.12C313.554 406.547 313.794 407.027 313.794 407.56V425.88C313.794 426.173 313.688 426.4 313.474 426.56C313.288 426.747 313.048 426.84 312.754 426.84H307.194C306.901 426.84 306.661 426.747 306.474 426.56C306.261 426.4 306.154 426.173 306.154 425.88V406.68C306.154 406.307 306.034 406.013 305.794 405.8C305.554 405.587 305.274 405.48 304.954 405.48H299.154C298.888 405.48 298.648 405.387 298.434 405.2C298.221 405.013 298.114 404.773 298.114 404.48V402.44C298.114 401.933 298.208 401.467 298.394 401.04C298.608 400.613 298.874 400.253 299.194 399.96C299.541 399.64 299.914 399.4 300.314 399.24C300.741 399.08 301.168 399 301.594 399H320.794ZM325.385 425.92V402.52C325.385 401.507 325.732 400.68 326.425 400.04C327.118 399.373 327.932 399.04 328.865 399.04H345.185C345.478 399.04 345.718 399.147 345.905 399.36C346.118 399.547 346.225 399.787 346.225 400.08V404.04C346.225 404.333 346.132 404.56 345.945 404.72C345.758 404.907 345.505 405 345.185 405H330.425C331.065 405 331.585 405.227 331.985 405.68C332.412 406.133 332.625 406.627 332.625 407.16V408.84C332.625 409.133 332.718 409.413 332.905 409.68C333.118 409.947 333.425 410.08 333.825 410.08H342.545C342.838 410.08 343.078 410.187 343.265 410.4C343.478 410.587 343.585 410.827 343.585 411.12V414.72C343.585 415.013 343.478 415.267 343.265 415.48C343.078 415.667 342.838 415.76 342.545 415.76H330.425C331.038 415.76 331.558 415.973 331.985 416.4C332.412 416.827 332.625 417.307 332.625 417.84V419.72C332.625 420.013 332.732 420.293 332.945 420.56C333.158 420.827 333.452 420.96 333.825 420.96H345.505C346.198 420.96 346.545 421.307 346.545 422V425.92C346.545 426.24 346.438 426.493 346.225 426.68C346.038 426.84 345.798 426.92 345.505 426.92H326.385C326.118 426.92 325.878 426.827 325.665 426.64C325.478 426.427 325.385 426.187 325.385 425.92ZM374.009 426.92H368.369C367.622 426.92 367.089 426.573 366.769 425.88L362.689 417.88C362.449 417.453 362.089 417.24 361.609 417.24H356.369C357.036 417.24 357.556 417.48 357.929 417.96C358.329 418.413 358.529 418.88 358.529 419.36V425.96C358.529 426.253 358.436 426.48 358.249 426.64C358.062 426.827 357.822 426.92 357.529 426.92H352.049C351.782 426.92 351.542 426.827 351.329 426.64C351.142 426.427 351.049 426.2 351.049 425.96V402.52C351.049 401.533 351.396 400.72 352.089 400.08C352.782 399.413 353.596 399.08 354.529 399.08H363.009C364.502 399.08 365.916 399.24 367.249 399.56C368.609 399.88 369.796 400.4 370.809 401.12C371.849 401.84 372.676 402.787 373.289 403.96C373.902 405.107 374.209 406.52 374.209 408.2C374.209 409.8 373.849 411.24 373.129 412.52C372.409 413.8 371.342 414.84 369.929 415.64C369.716 415.773 369.596 415.933 369.569 416.12C369.569 416.307 369.609 416.453 369.689 416.56L374.729 425.68C374.809 425.84 374.849 425.987 374.849 426.12C374.849 426.333 374.756 426.52 374.569 426.68C374.409 426.84 374.222 426.92 374.009 426.92ZM366.489 408.16C366.489 407.067 366.156 406.24 365.489 405.68C364.849 405.093 364.009 404.8 362.969 404.8H356.089C356.756 404.8 357.289 405.027 357.689 405.48C358.089 405.933 358.289 406.413 358.289 406.92V410.16C358.289 410.48 358.396 410.76 358.609 411C358.849 411.24 359.142 411.36 359.489 411.36H362.969C364.009 411.36 364.849 411.107 365.489 410.6C366.156 410.067 366.489 409.253 366.489 408.16Z" fill="black"/>
<g clip-path="url(#clip0)">
<path d="M341.006 184.998L319.419 164.271V138.936C319.408 130.033 312.194 122.818 303.29 122.807H276.231L260.361 107.576C259.113 106.378 257.144 106.378 255.897 107.576L240.026 122.807H200.064C191.16 122.818 183.946 130.033 183.935 138.936V151.839C183.935 153.62 185.38 155.065 187.161 155.065H196.838V164.271L175.252 184.998C174.614 185.603 174.255 186.444 174.258 187.323V284.097C174.258 285.879 175.702 287.323 177.484 287.323H338.774C340.555 287.323 342 285.879 342 284.097V187.323C341.998 186.446 341.638 185.608 341 185.004L341.006 184.998ZM319.419 173.213L330.758 184.097H319.419V173.213ZM319.419 190.549H328.774L319.419 197.284V190.549ZM293.613 151.839V138.936C293.613 133.591 297.946 129.258 303.29 129.258C308.634 129.258 312.968 133.591 312.968 138.936V201.93L258.129 241.413L203.29 201.93V155.065H290.387C292.168 155.065 293.613 153.62 293.613 151.839ZM258.129 114.375L266.916 122.807H249.341L258.129 114.375ZM190.387 148.613V138.936C190.387 133.591 194.72 129.258 200.064 129.258H290.47C288.336 132.034 287.174 135.434 287.161 138.936V148.613H190.387ZM196.838 173.213V184.097H185.499L196.838 173.213ZM196.838 190.549V197.284L187.484 190.549H196.838ZM180.709 193.62L243.093 238.536L180.709 278.22V193.62ZM188.568 280.871L248.735 242.598L256.245 248.007C257.37 248.816 258.888 248.816 260.013 248.007L267.523 242.598L327.69 280.871H188.568ZM335.548 278.22L273.165 238.542L335.548 193.62V278.22Z" fill="black"/>
<path d="M222.645 184.097H287.161V190.548H222.645V184.097Z" fill="black"/>
<path d="M222.645 171.193H287.161V177.645H222.645V171.193Z" fill="black"/>
<path d="M222.645 197H287.161V203.452H222.645V197Z" fill="black"/>
<path d="M142 148.613H174.258V155.065H142V148.613Z" fill="black"/>
<path d="M151.677 161.517H187.161V167.968H151.677V161.517Z" fill="black"/>
</g>
<defs>
<clipPath id="clip0">
<rect x="142" y="97" width="200" height="200" fill="white"/>
</clipPath>
</defs>
</svg>
