<svg width="1007" height="208" viewBox="0 0 1007 208" fill="none" xmlns="http://www.w3.org/2000/svg">
<rect x="1.5" y="1.5" width="1004" height="205" rx="48.5" stroke="black" stroke-width="3"/>
<path d="M195.247 138.821C196.003 137.5 196.489 136.043 196.677 134.535C198.313 135.166 200.048 135.505 201.802 135.537C203.51 135.582 205.201 135.195 206.718 134.414C208.234 133.633 209.528 132.482 210.476 131.069C211.485 129.457 212.041 127.606 212.086 125.708C212.132 123.81 211.665 121.934 210.734 120.276C210.827 118.362 211.442 116.509 212.512 114.916C213.582 113.323 215.067 112.049 216.809 111.23C217.665 112.189 218.715 112.955 219.89 113.48C221.066 114.004 222.34 114.274 223.628 114.272C225.043 114.272 226.439 113.951 227.71 113.333L236.68 108.638C237.093 108.423 237.458 108.129 237.756 107.774C238.055 107.418 238.279 107.007 238.417 106.565C238.556 106.123 238.605 105.658 238.562 105.197C238.52 104.735 238.386 104.287 238.169 103.877C237.953 103.468 237.657 103.104 237.298 102.808C236.94 102.513 236.527 102.29 236.082 102.153C235.637 102.016 235.17 101.968 234.706 102.011C234.242 102.054 233.792 102.188 233.38 102.404L224.512 107.047C224.055 107.272 223.529 107.315 223.041 107.168C222.553 107.021 222.14 106.695 221.885 106.256L200.882 65.8543C200.781 65.6673 200.721 65.4618 200.703 65.2505C200.686 65.0392 200.713 64.8266 200.782 64.626C200.86 64.4016 200.983 64.1952 201.143 64.0191C201.303 63.843 201.497 63.7007 201.714 63.6007L211.879 58.6996C212.718 58.2881 213.359 57.5635 213.662 56.6838C213.966 55.804 213.908 54.8406 213.5 54.0035C213.092 53.1665 212.368 52.5238 211.486 52.2156C210.603 51.9074 209.634 51.9588 208.79 52.3585L198.625 57.2597C197.555 57.7668 196.599 58.4836 195.814 59.3672C195.029 60.2508 194.432 61.2829 194.058 62.4017C193.494 64.0864 193.471 65.9042 193.993 67.6024C192.009 68.8234 189.718 69.4598 187.385 69.4375C185.052 69.4153 182.773 68.7353 180.813 67.4766L172.185 62.2743C169.599 61.0616 166.731 60.5665 163.885 60.8413H151.032C148.383 60.6793 145.768 61.506 143.7 63.1597L143.691 63.1568C134.893 61.12 127.445 65.0423 122.507 67.6348L121.18 68.3281C119.493 69.1872 117.63 69.6469 115.735 69.6714C113.84 69.6958 111.966 69.2844 110.257 68.4691L108.771 67.7941C109.321 66.0668 109.308 64.2105 108.733 62.4911C108.358 61.365 107.757 60.326 106.968 59.4365C106.178 58.547 105.216 57.8253 104.139 57.3147L93.8688 52.3654C93.0244 51.9656 92.0553 51.9143 91.1729 52.2224C90.2906 52.5306 89.5665 53.1733 89.1587 54.0104C88.751 54.8474 88.6925 55.8109 88.9962 56.6906C89.2998 57.5704 89.941 58.295 90.7797 58.7064L101.05 63.6557C101.274 63.7586 101.474 63.9054 101.639 64.0872C101.804 64.269 101.93 64.4821 102.01 64.7137C102.081 64.9212 102.108 65.1408 102.09 65.3592C102.073 65.5775 102.01 65.7899 101.906 65.9833L80.6889 106.799C80.439 107.241 80.0328 107.574 79.5493 107.734C79.0658 107.894 78.5398 107.869 78.0737 107.665L70.1779 103.574C69.7654 103.36 69.3147 103.229 68.8513 103.189C68.388 103.148 67.9212 103.199 67.4776 103.338C67.034 103.477 66.6223 103.701 66.2659 103.999C65.9095 104.296 65.6155 104.66 65.4006 105.07C65.1858 105.481 65.0542 105.929 65.0136 106.39C64.9729 106.851 65.0239 107.315 65.1636 107.756C65.3034 108.197 65.5291 108.607 65.828 108.961C66.1268 109.316 66.4929 109.608 66.9054 109.822L74.8929 113.959C77.0271 114.984 79.477 115.148 81.7302 114.418C83.9833 113.687 85.865 112.118 86.9814 110.039L105.651 74.1244L107.327 74.8859C109.939 76.0761 112.777 76.6956 115.65 76.7026C118.703 76.7058 121.713 75.9814 124.427 74.59L125.814 73.8675C128.604 72.2645 131.585 71.0138 134.687 70.1443L119.736 81.7086C119.647 81.7774 119.563 81.848 119.483 81.9237C118.565 82.7813 117.855 83.8356 117.407 85.0067C116.959 86.1777 116.784 87.4348 116.897 88.6827C117.162 89.9865 117.758 91.2012 118.628 92.2112C119.498 93.2212 120.613 93.9928 121.868 94.4526C121.998 94.5145 122.131 94.568 122.268 94.6126C127.709 96.196 133.535 95.8363 138.738 93.5959C138.827 93.5529 138.917 93.5082 139.006 93.4583L145.789 89.6306L202.402 121.418C202.938 121.678 203.415 122.041 203.807 122.487C204.198 122.933 204.496 123.453 204.681 124.016C204.867 124.579 204.937 125.173 204.887 125.763C204.837 126.353 204.669 126.927 204.391 127.452C203.978 127.969 202.157 129.672 197.438 127.188L173.026 113.99C172.201 113.544 171.231 113.442 170.33 113.707C169.429 113.972 168.671 114.582 168.223 115.403C167.774 116.223 167.672 117.188 167.938 118.084C168.204 118.98 168.817 119.734 169.643 120.18L188.127 130.174C188.338 130.373 188.573 130.545 188.826 130.686C189.201 130.951 189.461 131.348 189.553 131.797C189.849 132.969 189.696 134.209 189.124 135.276C188.461 136.413 185.811 136.752 184.312 135.941L165.459 125.2C164.644 124.737 163.677 124.614 162.771 124.859C161.866 125.105 161.095 125.697 160.628 126.507C160.162 127.318 160.037 128.279 160.283 129.18C160.528 130.081 161.123 130.849 161.937 131.314L175.265 138.907C175.471 139.02 175.65 139.177 175.79 139.365C175.929 139.554 176.026 139.77 176.074 139.999C176.308 141.076 176.11 142.202 175.522 143.136C174.9 143.882 174.055 144.412 173.11 144.648C172.164 144.884 171.168 144.813 170.265 144.446L156.84 136.265C156.039 135.778 155.077 135.627 154.164 135.845C153.251 136.064 152.463 136.633 151.972 137.43C151.482 138.226 151.329 139.183 151.548 140.091C151.767 140.999 152.339 141.783 153.139 142.272L161.764 147.529C162.271 147.87 162.631 148.389 162.773 148.981C163.078 150.149 162.906 151.39 162.294 152.432C161.625 153.24 160.711 153.81 159.689 154.056C158.667 154.303 157.592 154.213 156.625 153.8L100.488 119.612C100.091 119.368 99.65 119.205 99.1895 119.131C98.729 119.058 98.2585 119.075 97.8048 119.183C97.3512 119.291 96.9233 119.486 96.5459 119.759C96.1685 120.031 95.8489 120.375 95.6055 120.771C95.362 121.167 95.1996 121.606 95.1274 122.065C95.0552 122.523 95.0747 122.991 95.1847 123.442C95.2948 123.892 95.4933 124.317 95.7688 124.691C96.0443 125.066 96.3914 125.382 96.7902 125.623L153.023 159.869C153.074 159.9 153.128 159.931 153.182 159.96C154.822 160.808 156.647 161.24 158.495 161.218C160.464 161.275 162.415 160.822 164.155 159.902C165.894 158.983 167.364 157.629 168.418 155.974C169.198 154.637 169.705 153.16 169.908 151.627C170.583 151.75 171.266 151.814 171.952 151.82C173.877 151.873 175.784 151.427 177.483 150.526C179.183 149.624 180.617 148.298 181.645 146.678C182.319 145.523 182.792 144.263 183.047 142.952C184.132 143.263 185.256 143.423 186.386 143.428C188.139 143.501 189.881 143.113 191.436 142.304C192.992 141.496 194.306 140.294 195.247 138.821ZM147.526 82.5154C146.993 82.2158 146.392 82.0586 145.78 82.0592C145.168 82.0598 144.567 82.2182 144.035 82.519L135.647 87.2514C132.169 88.6711 128.322 88.9265 124.686 87.9791C124.439 87.8576 124.206 87.7105 123.991 87.5405C124.072 87.3925 124.168 87.2525 124.276 87.1225C124.276 87.1225 148.088 68.6928 148.199 68.5792C148.861 68.0624 149.692 67.8092 150.532 67.8687C150.653 67.8808 163.971 67.8877 163.971 67.8877C164.032 67.8877 164.092 67.886 164.153 67.8825C165.71 67.7457 167.279 67.9373 168.757 68.445L177.021 73.427C179.993 75.3579 183.445 76.4288 186.993 76.5201C190.541 76.6114 194.044 75.7194 197.112 73.944L213.294 105.071C209.298 107.03 206.239 110.477 204.781 114.664L147.526 82.5154Z" fill="black"/>
<path d="M320.486 101.24C320.486 102.92 320.193 104.347 319.606 105.52C319.019 106.667 318.219 107.6 317.206 108.32C316.219 109.013 315.059 109.52 313.726 109.84C312.393 110.133 310.966 110.28 309.446 110.28H306.086C305.766 110.28 305.486 110.387 305.246 110.6C305.006 110.813 304.886 111.107 304.886 111.48V118.88C304.886 119.147 304.779 119.387 304.566 119.6C304.379 119.787 304.153 119.88 303.886 119.88H298.166C297.899 119.88 297.659 119.787 297.446 119.6C297.259 119.387 297.166 119.147 297.166 118.88V95.48C297.166 94.92 297.273 94.4267 297.486 94C297.699 93.5467 297.979 93.1733 298.326 92.88C298.673 92.5867 299.046 92.3733 299.446 92.24C299.846 92.08 300.246 92 300.646 92H309.446C310.966 92 312.393 92.1733 313.726 92.52C315.086 92.84 316.259 93.3733 317.246 94.12C318.259 94.84 319.046 95.7867 319.606 96.96C320.193 98.1333 320.486 99.56 320.486 101.24ZM312.726 101.2C312.726 100.08 312.419 99.2267 311.806 98.64C311.219 98.0267 310.366 97.72 309.246 97.72H302.486C302.699 97.72 302.939 97.7733 303.206 97.88C303.473 97.96 303.713 98.0933 303.926 98.28C304.166 98.4667 304.366 98.7067 304.526 99C304.686 99.2667 304.766 99.5733 304.766 99.92V103.36C304.766 103.733 304.886 104.04 305.126 104.28C305.393 104.493 305.686 104.6 306.006 104.6H309.246C310.339 104.6 311.193 104.307 311.806 103.72C312.419 103.133 312.726 102.293 312.726 101.2ZM321.955 119.76C321.795 119.547 321.715 119.347 321.715 119.16C321.715 118.973 321.728 118.853 321.755 118.8L331.035 93.28C331.328 92.5067 331.861 92.12 332.635 92.12H338.835C339.608 92.12 340.141 92.5067 340.435 93.28L349.715 118.8C349.741 118.853 349.755 118.973 349.755 119.16C349.755 119.373 349.661 119.573 349.475 119.76C349.315 119.92 349.128 120 348.915 120H343.755C343.088 120 342.635 119.707 342.395 119.12L340.315 113.48C339.355 113.853 338.381 114.16 337.395 114.4C336.408 114.64 335.448 114.827 334.515 114.96C333.608 115.067 332.755 115.147 331.955 115.2C331.155 115.227 330.461 115.24 329.875 115.24C329.501 115.24 329.181 115.24 328.915 115.24C328.675 115.24 328.488 115.227 328.355 115.2C328.835 115.28 329.221 115.547 329.515 116C329.835 116.453 329.875 116.987 329.635 117.6L329.075 119.12C328.835 119.707 328.381 120 327.715 120H322.555C322.368 120 322.168 119.92 321.955 119.76ZM332.115 109.52C332.861 109.467 333.635 109.373 334.435 109.24C335.128 109.133 335.848 108.987 336.595 108.8C337.368 108.587 338.101 108.293 338.795 107.92L335.715 99.12L332.115 109.52ZM375.904 119.92H370.264C369.517 119.92 368.984 119.573 368.664 118.88L364.584 110.88C364.344 110.453 363.984 110.24 363.504 110.24H358.264C358.93 110.24 359.45 110.48 359.824 110.96C360.224 111.413 360.424 111.88 360.424 112.36V118.96C360.424 119.253 360.33 119.48 360.144 119.64C359.957 119.827 359.717 119.92 359.424 119.92H353.944C353.677 119.92 353.437 119.827 353.224 119.64C353.037 119.427 352.944 119.2 352.944 118.96V95.52C352.944 94.5333 353.29 93.72 353.984 93.08C354.677 92.4133 355.49 92.08 356.424 92.08H364.904C366.397 92.08 367.81 92.24 369.144 92.56C370.504 92.88 371.69 93.4 372.704 94.12C373.744 94.84 374.57 95.7867 375.184 96.96C375.797 98.1067 376.104 99.52 376.104 101.2C376.104 102.8 375.744 104.24 375.024 105.52C374.304 106.8 373.237 107.84 371.824 108.64C371.61 108.773 371.49 108.933 371.464 109.12C371.464 109.307 371.504 109.453 371.584 109.56L376.624 118.68C376.704 118.84 376.744 118.987 376.744 119.12C376.744 119.333 376.65 119.52 376.464 119.68C376.304 119.84 376.117 119.92 375.904 119.92ZM368.384 101.16C368.384 100.067 368.05 99.24 367.384 98.68C366.744 98.0933 365.904 97.8 364.864 97.8H357.984C358.65 97.8 359.184 98.0267 359.584 98.48C359.984 98.9333 360.184 99.4133 360.184 99.92V103.16C360.184 103.48 360.29 103.76 360.504 104C360.744 104.24 361.037 104.36 361.384 104.36H364.864C365.904 104.36 366.744 104.107 367.384 103.6C368.05 103.067 368.384 102.253 368.384 101.16ZM401.283 92C401.576 92 401.816 92.1067 402.003 92.32C402.216 92.5067 402.323 92.7333 402.323 93V97.48C402.323 97.7733 402.216 98.0133 402.003 98.2C401.816 98.3867 401.576 98.48 401.283 98.48H392.003C392.589 98.48 393.109 98.6933 393.563 99.12C394.043 99.5467 394.283 100.027 394.283 100.56V118.88C394.283 119.173 394.176 119.4 393.963 119.56C393.776 119.747 393.536 119.84 393.243 119.84H387.683C387.389 119.84 387.149 119.747 386.963 119.56C386.749 119.4 386.643 119.173 386.643 118.88V99.68C386.643 99.3067 386.523 99.0133 386.283 98.8C386.043 98.5867 385.763 98.48 385.443 98.48H379.643C379.376 98.48 379.136 98.3867 378.923 98.2C378.709 98.0133 378.603 97.7733 378.603 97.48V95.44C378.603 94.9333 378.696 94.4667 378.883 94.04C379.096 93.6133 379.363 93.2533 379.683 92.96C380.029 92.64 380.403 92.4 380.803 92.24C381.229 92.08 381.656 92 382.083 92H401.283ZM405.873 118.88V95.48C405.873 94.5467 406.207 93.7333 406.873 93.04C407.54 92.3467 408.367 92 409.353 92H410.673C410.967 92 411.313 92.0667 411.713 92.2C412.113 92.3067 412.527 92.6533 412.953 93.24C414.527 95.6933 415.94 97.9067 417.193 99.88C417.967 101.08 418.567 102.04 418.993 102.76C419.447 103.453 419.873 104.107 420.273 104.72C420.673 105.307 421.007 105.813 421.273 106.24C421.54 106.667 421.7 106.92 421.753 107C421.753 107.053 421.807 107.08 421.913 107.08C422.047 107.08 422.113 107.013 422.113 106.88V95.48C422.113 94.44 422.473 93.6 423.193 92.96C423.913 92.32 424.727 92 425.633 92H428.193C428.487 92 428.727 92.0933 428.913 92.28C429.1 92.52 429.193 92.7733 429.193 93.04V118.84C429.193 119.08 429.1 119.32 428.913 119.56C428.7 119.773 428.46 119.88 428.193 119.88H423.673C423.087 119.88 422.633 119.627 422.313 119.12C420.713 116.667 419.273 114.467 417.993 112.52C417.22 111.347 416.607 110.413 416.153 109.72C415.7 109 415.273 108.347 414.873 107.76C414.473 107.147 414.14 106.64 413.873 106.24C413.607 105.813 413.447 105.56 413.393 105.48C413.313 105.4 413.247 105.36 413.193 105.36C413.06 105.36 412.993 105.427 412.993 105.56V118.88C412.993 119.173 412.887 119.413 412.673 119.6C412.46 119.787 412.22 119.88 411.953 119.88H406.873C406.633 119.88 406.407 119.773 406.193 119.56C405.98 119.347 405.873 119.12 405.873 118.88ZM434.701 118.92V95.52C434.701 94.5067 435.048 93.68 435.741 93.04C436.435 92.3733 437.248 92.04 438.181 92.04H454.501C454.795 92.04 455.035 92.1467 455.221 92.36C455.435 92.5467 455.541 92.7867 455.541 93.08V97.04C455.541 97.3333 455.448 97.56 455.261 97.72C455.075 97.9067 454.821 98 454.501 98H439.741C440.381 98 440.901 98.2267 441.301 98.68C441.728 99.1333 441.941 99.6267 441.941 100.16V101.84C441.941 102.133 442.035 102.413 442.221 102.68C442.435 102.947 442.741 103.08 443.141 103.08H451.861C452.155 103.08 452.395 103.187 452.581 103.4C452.795 103.587 452.901 103.827 452.901 104.12V107.72C452.901 108.013 452.795 108.267 452.581 108.48C452.395 108.667 452.155 108.76 451.861 108.76H439.741C440.355 108.76 440.875 108.973 441.301 109.4C441.728 109.827 441.941 110.307 441.941 110.84V112.72C441.941 113.013 442.048 113.293 442.261 113.56C442.475 113.827 442.768 113.96 443.141 113.96H454.821C455.515 113.96 455.861 114.307 455.861 115V118.92C455.861 119.24 455.755 119.493 455.541 119.68C455.355 119.84 455.115 119.92 454.821 119.92H435.701C435.435 119.92 435.195 119.827 434.981 119.64C434.795 119.427 434.701 119.187 434.701 118.92ZM483.325 119.92H477.685C476.939 119.92 476.405 119.573 476.085 118.88L472.005 110.88C471.765 110.453 471.405 110.24 470.925 110.24H465.685C466.352 110.24 466.872 110.48 467.245 110.96C467.645 111.413 467.845 111.88 467.845 112.36V118.96C467.845 119.253 467.752 119.48 467.565 119.64C467.379 119.827 467.139 119.92 466.845 119.92H461.365C461.099 119.92 460.859 119.827 460.645 119.64C460.459 119.427 460.365 119.2 460.365 118.96V95.52C460.365 94.5333 460.712 93.72 461.405 93.08C462.099 92.4133 462.912 92.08 463.845 92.08H472.325C473.819 92.08 475.232 92.24 476.565 92.56C477.925 92.88 479.112 93.4 480.125 94.12C481.165 94.84 481.992 95.7867 482.605 96.96C483.219 98.1067 483.525 99.52 483.525 101.2C483.525 102.8 483.165 104.24 482.445 105.52C481.725 106.8 480.659 107.84 479.245 108.64C479.032 108.773 478.912 108.933 478.885 109.12C478.885 109.307 478.925 109.453 479.005 109.56L484.045 118.68C484.125 118.84 484.165 118.987 484.165 119.12C484.165 119.333 484.072 119.52 483.885 119.68C483.725 119.84 483.539 119.92 483.325 119.92ZM475.805 101.16C475.805 100.067 475.472 99.24 474.805 98.68C474.165 98.0933 473.325 97.8 472.285 97.8H465.405C466.072 97.8 466.605 98.0267 467.005 98.48C467.405 98.9333 467.605 99.4133 467.605 99.92V103.16C467.605 103.48 467.712 103.76 467.925 104C468.165 104.24 468.459 104.36 468.805 104.36H472.285C473.325 104.36 474.165 104.107 474.805 103.6C475.472 103.067 475.805 102.253 475.805 101.16ZM525.776 92.8V93.04L521.536 118.56C521.35 119.413 520.816 119.84 519.936 119.84H515.896C515.443 119.84 515.123 119.733 514.936 119.52C514.696 119.333 514.536 119.107 514.456 118.84L510.696 108.36C510.67 108.253 510.603 108.2 510.496 108.2C510.39 108.2 510.323 108.253 510.296 108.36L506.536 118.84C506.456 119.08 506.283 119.307 506.016 119.52C505.83 119.733 505.51 119.84 505.056 119.84H501.056C500.176 119.84 499.643 119.413 499.456 118.56L495.216 93.04C495.19 92.6933 495.256 92.4267 495.416 92.24C495.576 92.08 495.776 92 496.016 92H501.216C501.99 92 502.416 92.2933 502.496 92.88L504.776 107.08C504.803 107.187 504.87 107.24 504.976 107.24C505.11 107.24 505.176 107.2 505.176 107.12L507.656 99.24C507.896 98.52 508.336 98.16 508.976 98.16H511.976C512.616 98.16 513.056 98.52 513.296 99.24L515.776 107.08C515.83 107.16 515.896 107.2 515.976 107.2C516.083 107.2 516.15 107.147 516.176 107.04L518.496 92.88C518.55 92.5333 518.683 92.3067 518.896 92.2C519.136 92.0667 519.416 92 519.736 92H524.936C525.15 92 525.336 92.08 525.496 92.24C525.683 92.4 525.776 92.5867 525.776 92.8ZM529.857 118.92V95.52C529.857 94.5067 530.203 93.68 530.897 93.04C531.59 92.3733 532.403 92.04 533.337 92.04H536.537C536.857 92.04 537.097 92.1333 537.257 92.32C537.443 92.5067 537.537 92.7467 537.537 93.04V118.92C537.537 119.187 537.443 119.413 537.257 119.6C537.097 119.813 536.857 119.92 536.537 119.92H530.857C530.59 119.92 530.35 119.827 530.137 119.64C529.95 119.427 529.857 119.187 529.857 118.92ZM563.861 92C564.154 92 564.394 92.1067 564.581 92.32C564.794 92.5067 564.901 92.7333 564.901 93V97.48C564.901 97.7733 564.794 98.0133 564.581 98.2C564.394 98.3867 564.154 98.48 563.861 98.48H554.581C555.167 98.48 555.687 98.6933 556.141 99.12C556.621 99.5467 556.861 100.027 556.861 100.56V118.88C556.861 119.173 556.754 119.4 556.541 119.56C556.354 119.747 556.114 119.84 555.821 119.84H550.261C549.967 119.84 549.727 119.747 549.541 119.56C549.327 119.4 549.221 119.173 549.221 118.88V99.68C549.221 99.3067 549.101 99.0133 548.861 98.8C548.621 98.5867 548.341 98.48 548.021 98.48H542.221C541.954 98.48 541.714 98.3867 541.501 98.2C541.287 98.0133 541.181 97.7733 541.181 97.48V95.44C541.181 94.9333 541.274 94.4667 541.461 94.04C541.674 93.6133 541.941 93.2533 542.261 92.96C542.607 92.64 542.981 92.4 543.381 92.24C543.807 92.08 544.234 92 544.661 92H563.861ZM568.491 118.96V95.56C568.491 94.5733 568.838 93.7467 569.531 93.08C570.225 92.4133 571.038 92.08 571.971 92.08H574.931C575.625 92.08 575.971 92.4267 575.971 93.12V102.4C575.971 102.853 576.131 103.173 576.451 103.36C576.771 103.52 577.025 103.6 577.211 103.6C578.865 103.573 580.238 103.453 581.331 103.24C582.451 103 583.531 102.653 584.571 102.2C584.785 102.093 584.971 101.947 585.131 101.76C585.291 101.573 585.371 101.333 585.371 101.04V95.56C585.371 95.0267 585.465 94.5467 585.651 94.12C585.865 93.6933 586.131 93.3333 586.451 93.04C586.798 92.72 587.171 92.48 587.571 92.32C587.998 92.16 588.425 92.08 588.851 92.08H591.811C592.505 92.08 592.851 92.4267 592.851 93.12V118.96C592.851 119.28 592.758 119.533 592.571 119.72C592.385 119.88 592.131 119.96 591.811 119.96H586.411C586.145 119.96 585.905 119.867 585.691 119.68C585.478 119.493 585.371 119.253 585.371 118.96V109.48C585.371 109.08 585.238 108.787 584.971 108.6C584.731 108.413 584.465 108.32 584.171 108.32C584.065 108.32 583.931 108.347 583.771 108.4C582.465 108.773 581.145 109.013 579.811 109.12C578.505 109.227 577.345 109.28 576.331 109.28C575.798 109.28 575.345 109.28 574.971 109.28C574.598 109.253 574.305 109.24 574.091 109.24C574.625 109.32 575.065 109.56 575.411 109.96C575.785 110.333 575.971 110.787 575.971 111.32V118.96C575.971 119.28 575.878 119.533 575.691 119.72C575.505 119.88 575.251 119.96 574.931 119.96H569.491C569.198 119.96 568.958 119.867 568.771 119.68C568.585 119.493 568.491 119.253 568.491 118.96ZM606.572 109.4V95.56C606.572 95 606.678 94.5067 606.892 94.08C607.132 93.6533 607.412 93.2933 607.732 93C608.078 92.7067 608.452 92.4933 608.852 92.36C609.278 92.2 609.678 92.12 610.052 92.12H613.052C613.345 92.12 613.585 92.2133 613.772 92.4C613.985 92.5867 614.092 92.8267 614.092 93.12V109.32C614.092 110.84 614.438 112.04 615.132 112.92C615.852 113.8 617.012 114.24 618.612 114.24C620.212 114.24 621.358 113.8 622.052 112.92C622.772 112.04 623.132 110.84 623.132 109.32V95.52C623.132 94.96 623.238 94.4667 623.452 94.04C623.692 93.6133 623.985 93.2533 624.332 92.96C624.678 92.6667 625.052 92.4533 625.452 92.32C625.852 92.1867 626.238 92.12 626.612 92.12H629.612C629.905 92.12 630.145 92.2133 630.332 92.4C630.545 92.5867 630.652 92.8267 630.652 93.12V109.4C630.652 111.293 630.358 112.933 629.772 114.32C629.212 115.68 628.412 116.813 627.372 117.72C626.332 118.6 625.065 119.267 623.572 119.72C622.105 120.147 620.465 120.36 618.652 120.36C616.865 120.36 615.225 120.147 613.732 119.72C612.238 119.293 610.958 118.64 609.892 117.76C608.852 116.853 608.038 115.707 607.452 114.32C606.865 112.933 606.572 111.293 606.572 109.4ZM658.553 111.52C658.553 113.147 658.167 114.52 657.393 115.64C656.647 116.76 655.687 117.667 654.513 118.36C653.34 119.053 652.033 119.56 650.593 119.88C649.153 120.173 647.753 120.32 646.393 120.32C645.087 120.32 643.727 120.187 642.313 119.92C640.927 119.653 639.647 119.213 638.473 118.6C637.3 117.96 636.313 117.133 635.513 116.12C634.74 115.08 634.313 113.8 634.233 112.28C634.233 112.04 634.313 111.84 634.473 111.68C634.66 111.52 634.873 111.44 635.113 111.44H640.433C640.593 111.44 640.727 111.453 640.833 111.48C640.967 111.507 641.087 111.547 641.193 111.6C641.38 111.707 641.607 111.893 641.873 112.16C642.3 113.013 642.927 113.6 643.753 113.92C644.607 114.213 645.487 114.36 646.393 114.36C646.793 114.36 647.247 114.333 647.753 114.28C648.287 114.227 648.767 114.12 649.193 113.96C649.647 113.773 650.033 113.52 650.353 113.2C650.673 112.853 650.833 112.413 650.833 111.88C650.833 111.16 650.567 110.64 650.033 110.32C649.5 110 648.94 109.747 648.353 109.56C647.9 109.4 647.353 109.253 646.713 109.12C646.1 108.96 645.38 108.8 644.553 108.64C643.327 108.4 642.14 108.093 640.993 107.72C639.847 107.32 638.82 106.8 637.913 106.16C637.033 105.52 636.313 104.72 635.753 103.76C635.22 102.773 634.953 101.573 634.953 100.16C634.953 98.4 635.433 96.8933 636.393 95.64C637.38 94.36 638.66 93.3867 640.233 92.72C641.94 92.0267 643.9 91.68 646.113 91.68C646.993 91.68 647.9 91.76 648.833 91.92C649.793 92.0533 650.713 92.2933 651.593 92.64C652.5 92.96 653.34 93.4 654.113 93.96C654.887 94.4933 655.553 95.1467 656.113 95.92C657.02 97.0933 657.513 98.28 657.593 99.48C657.593 99.6933 657.5 99.8933 657.313 100.08C657.153 100.267 656.967 100.36 656.753 100.36H651.153C650.593 100.36 650.153 100.12 649.833 99.64C649.673 99.08 649.26 98.6 648.593 98.2C647.873 97.8267 647.047 97.64 646.113 97.64C645.713 97.64 645.3 97.6667 644.873 97.72C644.473 97.7733 644.1 97.8933 643.753 98.08C643.407 98.2667 643.127 98.52 642.913 98.84C642.7 99.1333 642.593 99.52 642.593 100C642.593 100.747 642.993 101.347 643.793 101.8C644.593 102.227 646.087 102.667 648.273 103.12C649.527 103.36 650.767 103.653 651.993 104C653.247 104.32 654.353 104.787 655.313 105.4C656.273 106.013 657.047 106.813 657.633 107.8C658.247 108.76 658.553 110 658.553 111.52Z" fill="black"/>
</svg>
